P3
64 50
255
  50  59  62    46  53  57     0   0   0     0   0   0     0   0   0     0   0   0     0   0   0     0   0   0     0   0   0     0   0   0     0   0   0     0   0   0     0   0   0     0   0   0     0   0   0     0   0   0     0   0   0     0   0   0     0   0   0     0   0   0     0   0   0     0   0   0     0   0   0     0   0   0     0   0   0     0   0   0     0   0   0     0   0   0     0   0   0     0   0   0     0   0   0     0   0   0     0   0   0     0   0   0     0   0   0     0   0   0     0   0   0     0   0   0     0   0   0     0   0   0     0   0   0     0   0   0     0   0   0     0   0   0     0   0   0     0   0   0     0   0   0     0   0   0    64  54  46    64  54  45     0   0   0     0   0   0     0   0   0     0   0   0     0   0   0     0   0   0     0   0   0     0   0   0     0   0   0     0   0   0     0   0   0     0   0   0     0   0   0     0   0   0  
  51  59  62    46  53  57    44  49  55     0   0   0     0   0   0     0   0   0     0   0   0     0   0   0     0   0   0     0   0   0     0   0   0     0   0   0     0   0   0     0   0   0     0   0   0     0   0   0     0   0   0     0   0   0     0   0   0     0   0   0     0   0   0     0   0   0     0   0   0     0   0   0     0   0   0     0   0   0     0   0   0     0   0   0     0   0   0     0   0   0     0   0   0     0   0   0     0   0   0     0   0   0     0   0   0     0   0   0     0   0   0     0   0   0     0   0   0     0   0   0     0   0   0     0   0   0     0   0   0     0   0   0     0   0   0     0   0   0     0   0   0    66  55  49    64  54  46    63  53  44     0   0   0     0   0   0     0   0   0     0   0   0     0   0   0     0   0   0     0   0   0     0   0   0     0   0   0     0   0   0     0   0   0     0   0   0     0   0   0     0   0   0  
  55  63  66    48  56  60    44  51  57    43  48  56     0   0   0     0   0   0     0   0   0     0   0   0     0   0   0     0   0   0     0   0   0     0   0   0     0   0   0     0   0   0     0   0   0     0   0   0     0   0   0     0   0   0     0   0   0     0   0   0     0   0   0     0   0   0     0   0   0     0   0   0    36  36  38    33  33  33     0   0   0     0   0   0     0   0   0     0   0   0     0   0   0     0   0   0     0   0   0     0   0   0     0   0   0     0   0   0     0   0   0     0   0   0     0   0   0     0   0   0     0   0   0     0   0   0     0   0   0     0   0   0     0   0   0     0   0   0     0   0   0    65  54  48    63  53  45    63  53  44    62  52  42     0   0   0     0   0   0     0   0   0     0   0   0     0   0   0     0   0   0     0   0   0     0   0   0     0   0   0     0   0   0     0   0   0     0   0   0     0   0   0  
  62  65  70    53  58  63    48  53  59    45  49  57    43  46  55     0   0   0     0   0   0     0   0   0     0   0   0     0   0   0     0   0   0     0   0   0     0   0   0     0   0   0     0   0   0     0   0   0     0   0   0     0   0   0     0   0   0     0   0   0     0   0   0     0   0   0     0   0   0    37  36  41    35  35  37    33  33  34    29  29  31    28  26  29    28  26  29     0   0   0     0   0   0     0   0   0     0   0   0     0   0   0     0   0   0     0   0   0     0   0   0     0   0   0     0   0   0     0   0   0     0   0   0     0   0   0     0   0   0     0   0   0     0   0   0    63  52  48    64  53  47    65  54  47    64  52  43    64  51  43    64  51  42    61  48  39    59  46  37     0   0   0     0   0   0     0   0   0     0   0   0     0   0   0     0   0   0     0   0   0     0   0   0     0   0   0     0   0   0     0   0   0  
  62  62  67    58  57  63    53  53  59    50  50  57    44  47  54    39  42  49     0   0   0     0   0   0     0   0   0     0   0   0     0   0   0     0   0   0     0   0   0     0   0   0     0   0   0     0   0   0     0   0   0     0   0   0     0   0   0     0   0   0     0   0   0     0   0   0    41  42  47    37  38  43    33  34  38    31  32  36    30  30  33    32  29  29    33  29  28    32  28  27    33  29  28     0   0   0     0   0   0     0   0   0     0   0   0     0   0   0     0   0   0     0   0   0     0   0   0     0   0   0     0   0   0    67  49  49    70  53  52    67  52  48    65  52  44    66  53  45    66  53  45    67  54  45    66  52  43    69  52  44    69  52  45    66  47  41    61  42  36     0   0   0     0   0   0     0   0   0     0   0   0     0   0   0     0   0   0     0   0   0     0   0   0     0   0   0     0   0   0     0   0   0  
  65  60  67    61  57  64    56  53  60    50  49  56    45  45  53    39  42  49    38  41  49     0   0   0     0   0   0     0   0   0     0   0   0     0   0   0     0   0   0     0   0   0     0   0   0     0   0   0     0   0   0     0   0   0     0   0   0     0   0   0     0   0   0    44  43  49    40  41  46    36  37  42    32  33  38    28  31  36    29  29  32    31  28  28    33  29  26    33  29  26    34  29  26    38  32  30    44  36  34    47  39  36     0   0   0     0   0   0     0   0   0    55  44  40    56  45  41    60  47  44    66  46  47    70  50  50    72  54  51    70  54  48    68  53  46    67  54  45    68  56  46    72  60  48    70  57  47    71  54  46    70  50  44    67  45  41    64  41  39     0   0   0     0   0   0     0   0   0     0   0   0     0   0   0     0   0   0     0   0   0     0   0   0     0   0   0     0   0   0     0   0   0  
  63  58  65    62  57  64    57  55  61    50  49  57    44  44  52    39  42  49    38  41  48    40  43  52     0   0   0     0   0   0     0   0   0     0   0   0     0   0   0     0   0   0     0   0   0     0   0   0     0   0   0     0   0   0     0   0   0     0   0   0    45  46  51    43  44  49    39  40  45    34  35  40    30  31  36    28  29  34    27  28  31    30  28  28    32  29  26    34  30  27    35  31  28    41  35  32    47  39  37    49  40  38    52  42  40    53  43  41    55  44  41    57  44  41    59  45  42    63  48  45    69  51  49    72  53  51    74  56  52    72  57  51    70  56  47    68  56  44    69  57  45    73  61  49    72  59  49    71  54  46    67  47  42    63  43  38    61  41  38     0   0   0     0   0   0     0   0   0     0   0   0     0   0   0     0   0   0     0   0   0     0   0   0     0   0   0     0   0   0     0   0   0  
  61  56  63    61  57  64    58  55  62    51  49  57    43  43  51    39  42  49    38  41  49    37  40  49     0   0   0     0   0   0     0   0   0     0   0   0     0   0   0     0   0   0     0   0   0     0   0   0     0   0   0     0   0   0     0   0   0    48  49  54    45  46  51    42  43  48    37  38  43    32  33  38    28  29  34    27  28  33    26  27  30    29  28  27    33  30  27    36  32  29    38  34  31    44  38  35    50  42  40    52  42  40    53  43  41    56  45  43    59  45  43    60  46  43    61  47  44    64  49  46    72  54  52    75  56  52    77  59  54    75  60  51    73  59  50    71  59  47    70  58  46    71  59  47    71  57  48    67  53  44    63  45  39    60  40  36    61  41  38     0   0   0     0   0   0     0   0   0     0   0   0     0   0   0     0   0   0     0   0   0     0   0   0     0   0   0     0   0   0     0   0   0  
  60  55  62    60  56  63    57  55  62    50  50  57    43  43  51    39  42  49    37  40  48    35  38  47    39  40  49     0   0   0     0   0   0     0   0   0     0   0   0     0   0   0     0   0   0     0   0   0     0   0   0     0   0   0    52  52  61    48  48  56    44  44  52    39  40  47    34  35  40    29  30  34    26  27  31    26  27  31    26  27  29    29  29  28    33  32  29    36  35  31    40  36  33    45  41  38    51  44  42    54  44  42    55  45  43    58  47  45    61  47  45    62  48  45    64  49  46    69  51  49    75  56  52    76  58  51    78  61  53    77  62  54    76  62  51    73  61  47    71  59  45    71  59  45    71  57  45    68  54  43    64  47  39    61  44  36    63  44  39     0   0   0     0   0   0     0   0   0     0   0   0     0   0   0     0   0   0     0   0   0     0   0   0     0   0   0     0   0   0     0   0   0  
  59  54  61    59  55  62    56  53  60    50  49  56    43  43  51    38  41  48    36  39  46    34  37  46    37  38  47    41  39  50     0   0   0     0   0   0     0   0   0     0   0   0     0   0   0     0   0   0     0   0   0    53  53  61    51  51  58    47  47  55    42  42  49    37  38  45    32  33  38    27  28  32    25  26  30    26  27  31    27  28  29    31  31  30    35  34  30    39  38  34    43  39  36    49  43  40    54  46  44    55  46  44    59  48  46    63  49  48    65  49  48    67  50  48    69  50  49    71  53  49    76  57  51    76  57  51    78  61  53    78  63  53    78  64  53    75  63  49    73  61  47    73  61  47    73  60  48    70  56  45    69  52  44    65  48  40    64  47  41     0   0   0     0   0   0     0   0   0     0   0   0     0   0   0     0   0   0     0   0   0     0   0   0     0   0   0     0   0   0     0   0   0  
  59  54  61    57  52  59    53  51  58    49  49  56    44  44  52    37  40  47    34  37  44    33  36  45    35  36  45    39  39  49    43  41  52     0   0   0     0   0   0     0   0   0     0   0   0     0   0   0    52  51  60    50  50  60    46  48  57    42  45  54    38  41  48    34  36  43    30  31  36    26  26  31    26  25  30    27  27  29    29  29  31    34  34  33    38  37  34    41  40  36    46  42  39    49  45  42    55  48  46    58  48  46    61  50  48    65  51  50    67  51  50    69  52  50    70  53  50    74  55  51    74  57  50    74  57  49    77  60  50    79  64  52    80  66  53    78  65  49    75  62  47    73  61  47    71  58  46    68  56  44    67  52  44    62  47  39    58  43  37     0   0   0     0   0   0     0   0   0     0   0   0     0   0   0     0   0   0     0   0   0     0   0   0     0   0   0     0   0   0     0   0   0  
  59  54  61    56  51  58    53  50  57    51  49  57    45  45  53    37  39  47    33  36  43    33  36  45    34  35  45    39  37  48    43  40  51    48  44  56     0   0   0     0   0   0     0   0   0    54  53  61    50  49  58    48  48  58    44  46  56    40  43  52    37  39  48    32  34  41    28  29  35    25  25  30    25  24  29    27  27  29    30  30  30    36  35  33    39  38  35    44  41  38    47  43  40    51  46  43    57  48  46    60  49  48    64  50  49    67  51  51    68  52  51    71  53  51    73  54  52    75  56  52    73  56  49    73  56  48    76  59  49    79  64  52    81  67  54    79  66  50    75  63  47    71  59  45    67  56  43    65  52  43    63  49  41    58  43  36    50  36  31     0   0   0     0   0   0     0   0   0     0   0   0     0   0   0     0   0   0     0   0   0     0   0   0     0   0   0     0   0   0     0   0   0  
  59  54  61    57  52  59    53  51  58    50  50  57    45  45  53    37  40  47    33  36  44    32  35  44    33  34  44    35  35  45    39  37  48    44  41  52    49  43  56     0   0   0    51  48  55    48  47  54    44  43  52    41  42  52    39  43  53    40  44  53    32  36  44    30  34  40    29  31  37    25  25  30    22  21  26    28  25  28    34  33  33    39  38  36    41  40  37    46  43  39    51  47  44    56  50  47    59  50  48    62  52  50    65  54  52    69  55  54    73  56  55    75  57  55    74  55  53    73  54  50    72  55  48    73  56  48    76  59  49    78  62  50    80  64  51    78  64  51    77  63  50    74  60  47    71  58  46    65  53  43    62  49  41    56  45  39    51  40  36     0   0   0     0   0   0     0   0   0     0   0   0     0   0   0     0   0   0     0   0   0     0   0   0     0   0   0     0   0   0     0   0   0  
  58  53  60    55  50  58    52  49  56    49  47  55    43  43  51    36  39  46    32  35  43    31  34  43    34  35  44    38  36  47    41  38  49    45  41  53    49  43  56    50  46  56    51  48  55    49  48  56    46  45  54    42  43  53    39  43  53    39  43  54    29  34  44    26  30  38    26  28  34    25  25  30    25  25  27    30  28  29    37  34  35    43  39  38    46  42  40    51  47  44    55  50  47    60  51  49    61  51  50    64  53  51    67  56  54    70  56  55    73  57  56    75  57  55    73  56  53    73  55  51    76  59  52    76  60  51    79  62  52    79  62  52    79  63  50    77  63  50    75  61  48    70  56  44    67  54  44    62  49  41    58  47  41    55  44  40    49  39  36     0   0   0     0   0   0     0   0   0     0   0   0     0   0   0     0   0   0     0   0   0     0   0   0     0   0   0     0   0   0     0   0   0  
  57  52  59    54  49  56    50  48  54    46  46  53    41  41  49    34  37  44    30  33  41    30  33  42    33  34  44    39  39  49    43  41  52    47  43  55    50  44  57    52  47  55    51  49  54    49  48  54    46  47  55    43  46  55    39  43  53    35  42  52    26  32  42    23  27  35    22  25  31    25  26  30    29  29  31    35  32  33    42  37  36    47  41  41    51  45  43    57  49  47    61  53  51    64  54  53    65  54  53    67  56  54    69  58  56    72  58  57    73  59  58    75  60  57    73  58  55    72  57  52    76  61  54    78  63  54    80  63  54    80  63  53    79  62  52    78  61  51    74  58  48    66  52  42    64  51  42    58  46  40    54  45  40    52  42  40    47  38  36     0   0   0     0   0   0     0   0   0     0   0   0     0   0   0     0   0   0     0   0   0     0   0   0     0   0   0     0   0   0     0   0   0  
  58  53  60    54  50  57    50  47  54    47  45  53    41  41  49    34  37  44    30  33  40    29  32  41    34  35  45    41  39  50    46  43  54    49  45  57    51  45  58    53  48  56    54  49  55    52  49  56    49  49  57    46  47  58    40  44  56    34  40  52    27  34  44    22  25  36    21  23  30    27  27  32    33  32  35    39  35  36    44  37  38    53  43  44    58  48  47    62  52  52    65  55  54    66  56  55    68  56  56    70  59  57    71  60  58    74  60  59    75  61  59    75  61  58    74  59  56    73  58  53    75  60  53    77  62  53    79  62  54    79  62  54    79  62  52    78  61  51    74  58  49    67  52  44    63  50  43    55  44  40    51  41  39    48  40  38    42  35  34    35  31  30     0   0   0     0   0   0     0   0   0     0   0   0     0   0   0     0   0   0     0   0   0     0   0   0     0   0   0     0   0   0  
  60  55  62    56  52  59    51  49  56    46  46  53    42  42  50    36  39  46    31  34  42    30  33  42    36  37  46    42  42  52    48  46  57    52  48  60    54  48  61    57  50  58    56  51  57    53  50  57    52  51  60    48  50  61    40  45  57    34  40  52    31  37  49    23  29  38    23  25  32    29  29  34    35  34  35    40  36  35    46  39  39    56  46  47    61  51  51    67  55  54    68  56  56    69  57  57    71  59  59    72  61  60    74  63  61    74  63  61    74  63  60    73  62  58    71  60  56    73  60  54    71  56  49    72  57  51    75  60  52    76  60  52    78  61  53    77  60  52    74  58  50    68  54  48    62  50  44    55  43  39    49  39  38    44  36  36    37  32  31    32  28  27    27  26  24     0   0   0     0   0   0     0   0   0     0   0   0     0   0   0     0   0   0     0   0   0     0   0   0     0   0   0  
  62  57  64    57  53  60    53  50  57    48  46  54    42  42  50    36  39  46    32  35  42    31  34  43    37  38  47    45  43  54    51  48  59    55  51  63    58  52  65    60  53  62    59  52  59    57  52  59    53  53  61    50  52  62    42  47  59    36  42  54    33  39  51    26  32  42    25  28  35    31  31  36    38  34  36    44  38  38    51  42  43    63  49  52    68  53  54    69  57  57    69  57  57    71  59  59    75  63  63    76  65  63    76  65  63    75  64  62    75  64  61    74  63  59    72  61  57    71  60  56    68  55  49    71  56  48    73  58  51    75  59  52    76  59  51    76  59  51    74  58  51    69  54  50    64  49  46    53  43  40    45  37  38    39  34  36    34  30  31    29  27  26    26  25  23    23  22  20     0   0   0     0   0   0     0   0   0     0   0   0     0   0   0     0   0   0     0   0   0     0   0   0  
  62  57  64    57  53  60    51  49  56    46  46  53    42  42  50    36  39  46    32  35  43    32  35  44    38  39  48    45  45  55    52  50  61    57  53  65    62  56  69    63  57  65    60  55  59    56  54  59    53  53  62    51  54  64    44  49  61    36  44  57    33  41  52    28  34  44    27  31  38    32  32  37    38  37  38    47  42  41    56  47  46    68  54  57    72  58  59    74  60  60    73  59  59    76  62  62    81  67  67    79  67  65    77  66  64    75  65  63    74  64  61    73  64  59    71  62  57    71  60  56    70  57  51    72  57  52    73  58  52    74  58  51    75  58  51    75  56  50    71  55  49    67  52  48    59  47  45    50  40  38    44  35  36    38  33  35    32  29  30    27  27  26    25  26  21    24  23  19    25  23  19     0   0   0     0   0   0     0   0   0     0   0   0     0   0   0     0   0   0     0   0   0  
  62  57  64    57  53  60    51  49  55    45  45  52    39  42  51    34  38  47    31  35  45    32  36  47    37  40  51    45  45  57    53  50  61    59  56  67    63  58  70    65  59  68    63  56  63    58  53  60    54  54  63    51  54  66    45  50  64    38  44  58    33  39  53    28  34  45    28  32  40    33  33  39    42  37  42    51  44  44    62  51  50    72  57  58    75  59  60    77  61  62    75  61  61    78  64  64    84  70  70    80  68  68    77  65  65    75  65  64    74  64  62    72  62  60    71  61  59    71  60  56    73  60  54    74  59  54    74  59  54    75  57  53    74  56  52    73  55  51    70  53  49    64  49  47    56  45  44    47  38  38    40  35  37    35  33  35    30  30  31    27  27  26    25  25  23    23  23  21    25  23  19    29  26  21     0   0   0     0   0   0     0   0   0     0   0   0     0   0   0     0   0   0  
  61  56  60    59  55  61    53  51  59    45  47  56    40  44  55    34  41  53    32  38  52    31  39  52    34  41  53    44  48  60    53  55  67    58  57  67    62  59  69    66  60  70    65  59  69    60  58  69    56  54  68    51  52  66    44  47  62    38  43  57    35  41  54    33  36  48    32  33  44    36  34  42    46  41  45    55  48  50    64  53  51    75  59  57    77  61  58    78  62  62    79  63  64    83  67  69    87  72  75    83  70  72    78  66  68    76  64  66    75  64  65    73  63  62    71  61  60    74  63  61    74  60  57    72  58  53    72  58  55    74  59  56    74  59  56    69  54  53    62  49  48    57  46  47    51  44  44    41  38  39    34  34  34    31  33  34    27  31  32    22  26  26    24  26  25    27  27  27    30  28  25    32  27  24    35  28  23     0   0   0     0   0   0     0   0   0     0   0   0     0   0   0  
  61  56  60    60  56  62    53  52  59    45  47  56    40  44  56    34  41  55    31  38  54    32  40  55    35  41  55    45  49  61    53  55  67    59  58  68    63  61  69    67  62  73    66  60  72    61  57  71    57  55  70    52  52  68    45  47  64    40  43  60    38  41  55    35  37  49    35  34  45    38  36  44    48  41  48    57  48  53    65  53  53    76  59  56    78  62  58    79  63  63    81  65  66    83  68  69    86  71  74    83  70  73    78  66  70    76  64  68    75  64  67    73  63  64    71  61  61    74  63  61    74  60  56    70  57  52    70  56  53    72  57  54    72  56  56    66  52  52    59  48  48    54  45  46    48  42  43    38  37  38    31  32  34    27  31  32    23  29  29    21  26  26    24  25  27    27  27  27    30  28  25    32  28  24    36  29  24    40  29  25     0   0   0     0   0   0     0   0   0     0   0   0  
  64  58  62    61  57  61    54  53  59    45  47  56    38  44  56    34  43  56    32  40  54    34  41  57    36  42  57    44  50  62    53  57  68    58  61  69    64  63  71    68  63  74    67  61  73    62  58  72    58  56  69    53  53  68    46  48  65    41  44  61    39  43  57    35  39  51    36  36  46    40  38  45    49  44  49    58  51  53    66  55  55    75  60  56    78  63  59    81  66  63    82  68  67    83  69  70    85  70  73    82  69  72    77  65  69    75  63  67    74  63  66    72  62  63    70  60  60    72  62  60    72  61  57    71  58  53    69  55  52    69  55  53    67  53  52    62  49  49    56  45  45    51  43  43    45  41  41    35  35  35    28  30  32    23  30  29    20  27  27    22  24  25    26  26  28    28  28  28    30  28  25    35  28  25    38  29  25    41  30  26    44  33  27     0   0   0     0   0   0     0   0   0  
  66  60  64    62  58  64    55  53  61    46  48  56    41  45  57    37  43  57    34  41  55    36  43  59    38  44  59    47  51  63    56  58  70    62  62  71    67  65  72    70  65  74    69  63  75    64  60  74    59  57  72    54  55  70    47  50  66    43  46  63    41  44  58    39  40  53    39  38  48    42  40  47    52  46  51    60  51  54    67  55  55    75  61  58    80  65  62    83  67  67    83  69  69    83  68  71    84  69  72    80  67  71    76  64  68    74  62  66    73  62  65    71  61  62    69  59  58    72  61  59    75  61  57    72  59  54    69  55  52    67  53  52    65  51  50    59  48  48    55  44  44    49  41  42    43  39  40    34  33  33    27  29  31    23  28  28    20  26  26    23  25  26    28  26  27    32  28  27    34  29  27    37  28  26    40  29  26    44  31  28    47  34  28    47  34  29     0   0   0     0   0   0  
  68  62  66    65  61  65    57  55  62    47  49  58    42  46  57    37  44  56    35  43  57    38  45  60    40  46  59    49  53  64    58  60  69    64  64  71    68  67  73    70  67  75    70  64  76    65  62  76    61  59  73    56  57  71    49  52  68    43  48  64    42  45  59    39  43  55    40  40  50    44  42  49    54  48  53    62  53  56    68  56  55    76  62  60    80  66  63    83  69  67    82  70  70    81  69  71    81  69  72    79  67  71    75  63  67    72  61  65    72  61  64    70  60  61    68  58  57    70  60  58    73  62  58    73  59  56    71  57  54    68  54  52    64  50  49    59  47  47    53  43  43    48  40  41    43  38  39    34  33  33    28  30  29    24  29  28    22  27  28    25  25  26    30  27  28    34  28  28    37  29  27    39  30  28    42  31  28    47  33  30    49  35  32    50  35  32    52  37  34     0   0   0  
  71  65  69    68  62  67    59  56  63    50  49  59    44  48  59    39  46  58    37  45  59    40  47  62    41  48  60    50  54  65    58  61  70    65  65  72    71  69  76    72  69  78    70  67  76    66  64  75    61  62  74    56  58  72    49  54  70    44  50  66    43  46  60    42  43  56    42  42  52    48  44  51    55  49  54    63  54  57    68  58  56    76  63  62    80  66  65    81  69  69    81  69  71    80  68  71    81  69  73    78  66  70    74  62  66    71  60  64    70  60  63    69  59  60    67  57  56    69  59  58    71  60  58    73  59  55    72  58  55    68  54  52    63  49  48    57  45  45    52  42  42    46  39  39    42  37  38    35  32  33    30  30  30    28  30  30    26  29  29    28  26  27    34  26  27    38  29  30    40  30  29    42  32  30    46  33  30    49  35  32    52  37  34    53  38  35    54  39  36    55  39  38  
  73  67  69    69  65  69    60  59  64    52  51  59    45  49  60    41  47  59    40  46  60    42  50  63    43  50  62    51  55  66    60  62  71    66  66  73    72  70  77    73  70  79    71  68  77    67  65  76    62  63  75    57  60  73    50  55  69    45  51  65    43  47  59    42  43  56    43  43  53    49  45  52    56  50  54    63  54  57    68  58  57    74  64  62    77  67  65    79  69  68    79  69  70    78  68  70    79  68  72    76  65  71    72  61  67    70  59  63    70  59  62    68  58  59    65  57  56    68  58  57    67  56  54    70  56  55    71  57  56    67  55  53    60  49  47    54  44  43    49  40  39    44  36  37    41  36  36    34  32  30    30  30  30    30  32  30    29  30  29    31  27  27    37  28  27    40  30  29    43  31  31    46  33  32    48  34  33    52  36  36    55  40  37    56  40  37    59  41  39    59  41  39  
  75  69  71    71  65  70    63  59  65    53  52  60    47  49  61    44  48  60    41  47  61    43  50  63    45  49  62    53  55  67    62  62  72    68  67  75    74  71  78    74  71  80    72  69  78    67  66  77    63  63  75    58  61  73    51  56  70    46  52  66    43  47  59    42  43  55    44  42  52    49  45  52    58  49  53    64  54  55    69  59  58    75  65  64    77  67  66    78  68  69    78  68  69    78  67  71    79  68  72    76  65  71    72  61  67    70  59  63    69  59  62    67  57  58    65  57  56    68  58  57    64  53  51    68  55  53    70  56  55    66  54  52    59  48  46    52  43  42    46  39  37    40  35  35    37  35  33    32  31  29    30  30  30    31  31  31    31  30  29    34  28  26    39  28  28    42  30  30    45  32  32    48  34  33    51  35  35    53  37  37    56  41  38    57  41  38    60  42  40     0   0   0  
  74  65  68    71  65  68    66  62  68    57  56  63    48  49  61    42  46  58    38  44  56    39  45  59    45  50  63    55  57  69    66  66  76    71  70  77    71  69  75    70  69  75    70  69  77    66  66  76    61  62  73    56  59  71    51  56  70    48  54  68    43  47  59    41  43  54    46  44  53    52  46  53    58  49  53    65  55  56    71  61  60    76  67  66    77  69  67    76  67  68    73  64  65    72  63  66    74  65  69    73  65  70    72  63  68    70  61  64    67  58  61    65  57  56    63  55  52    63  53  51    66  55  53    66  52  52    63  51  51    61  50  49    57  47  46    52  44  42    47  40  38    41  37  34    34  32  30    32  31  29    36  35  33    36  35  33    34  32  30    38  29  29    44  30  29    45  31  30    46  32  31    48  34  33    48  34  33    49  35  34    59  44  41    58  43  40    57  42  39     0   0   0  
  72  63  66    71  63  66    65  61  66    57  55  63    49  51  60    44  48  59    40  47  59    41  47  60    47  51  63    55  58  67    65  65  73    70  68  74    71  69  74    70  69  75    69  68  74    65  66  74    59  63  72    55  59  70    50  56  69    48  54  68    44  48  59    43  45  56    48  46  55    55  49  56    61  51  55    67  55  57    73  62  61    76  67  67    77  68  69    75  66  69    73  64  67    72  63  68    74  65  70    73  64  69    72  63  68    71  62  65    68  59  62    66  58  57    63  56  53    63  53  51    65  54  52    64  50  50    61  49  49    58  47  46    55  45  44    49  42  39    44  39  36    41  37  34    35  33  31    33  32  30    35  34  32    35  34  32    35  32  29    40  28  27    44  28  28    45  29  29    46  32  31    49  35  34    50  37  35    52  38  37    56  42  39    57  42  39     0   0   0     0   0   0  
  69  60  61    67  62  64    64  60  65    57  55  61    49  51  60    45  49  60    44  49  60    43  49  61    47  52  63    55  58  67    63  63  71    68  67  73    70  68  73    70  69  74    69  68  74    64  65  73    59  62  72    54  58  69    49  55  66    47  53  65    46  49  61    46  47  59    53  49  58    59  53  58    64  54  58    70  58  60    73  62  63    74  67  67    73  69  68    72  68  69    70  66  67    70  64  68    70  64  69    70  64  69    70  64  68    71  62  64    69  60  61    67  59  57    65  56  54    64  54  52    63  51  51    62  48  48    58  46  46    55  44  43    51  43  41    46  41  38    42  38  35    41  37  34    38  35  31    36  32  29    35  31  28    35  31  28    36  31  28    40  29  27    44  29  26    46  31  28    48  33  31    51  37  36    52  40  38    52  41  39    54  43  41    55  40  39     0   0   0     0   0   0  
  69  60  61    68  60  63    63  59  63    55  54  60    49  49  59    46  48  60    43  48  60    44  49  61    48  51  63    56  56  67    63  62  70    69  66  72    73  69  75    70  68  74    67  68  73    62  64  72    58  61  70    54  58  69    49  55  66    47  53  65    47  51  62    48  50  59    56  53  60    62  56  61    67  57  61    71  59  61    74  64  64    73  68  69    73  69  70    72  67  71    71  66  70    69  63  68    69  62  69    70  63  68    70  64  68    72  63  66    70  60  63    68  59  59    65  56  54    64  54  52    63  51  51    60  47  47    56  44  44    52  42  41    49  41  39    44  39  36    41  36  33    40  36  33    39  35  32    37  33  30    34  30  27    33  29  26    37  31  28    42  30  27    47  30  28    48  33  30    50  36  33    52  38  37    52  40  39    53  42  40    54  43  41     0   0   0     0   0   0     0   0   0  
  70  60  61    68  60  61    63  57  61    54  52  58    45  48  57    42  46  57    42  45  57    43  47  59    47  50  62    54  57  67    61  61  69    68  67  72    72  70  75    69  67  73    65  66  71    61  64  71    58  61  69    53  59  68    50  56  67    48  54  66    49  53  64    51  51  60    57  54  61    65  57  63    69  59  60    73  61  61    75  65  65    73  69  70    71  69  70    71  69  72    70  68  71    69  66  71    68  63  69    69  63  68    70  64  68    69  63  65    69  62  62    68  60  58    66  57  55    64  54  52    63  50  51    60  46  49    54  43  45    50  41  40    47  39  37    43  38  35    38  35  32    36  35  31    38  35  32    37  33  30    35  30  27    35  30  26    39  32  29    45  33  30    50  33  29    50  35  32    51  36  34    51  39  37    50  40  39    51  41  40    54  44  42     0   0   0     0   0   0     0   0   0  
  69  59  60    67  57  61    62  55  60    52  50  56    45  45  55    42  44  56    40  45  56    42  46  58    48  51  63    56  56  67    62  61  69    67  64  71    71  68  72    67  65  70    63  64  69    60  63  70    58  61  71    54  60  70    51  57  69    52  56  68    53  55  67    53  53  63    59  56  63    66  58  64    72  60  62    77  63  63    78  68  69    75  72  73    73  71  73    73  71  74    73  71  76    70  68  73    69  64  70    68  62  66    69  63  67    69  63  65    69  62  64    68  60  59    65  57  54    64  54  53    63  50  52    59  45  47    52  40  42    48  37  37    45  37  35    41  36  33    37  34  31    35  34  30    37  34  30    36  32  29    35  30  27    36  31  27    40  33  30    48  34  32    52  34  30    51  36  33    50  37  35    51  40  38    50  40  39    51  41  40     0   0   0     0   0   0     0   0   0     0   0   0  
  65  55  56    63  55  56    58  52  56    51  47  54    45  45  53    43  46  55    42  45  57    43  47  59    50  53  63    57  58  66    61  60  66    64  61  66    67  63  67    64  62  67    62  63  68    59  62  69    56  62  68    54  61  70    53  60  71    52  58  70    55  59  69    56  56  65    61  58  65    68  60  65    74  62  64    81  67  67    81  72  72    76  74  76    73  73  75    74  74  76    75  73  78    72  69  75    70  65  71    66  61  67    67  62  66    68  62  64    68  62  61    68  60  58    65  57  54    63  53  51    63  49  49    57  43  45    49  38  40    44  35  36    40  34  34    38  34  31    36  33  29    33  32  28    34  31  28    35  31  28    36  31  28    38  32  30    42  33  31    47  34  30    51  34  27    50  35  30    50  37  35    51  40  38    51  42  40    52  44  42     0   0   0     0   0   0     0   0   0     0   0   0  
  62  52  51    60  52  53    56  51  54    50  47  53    46  45  53    44  47  56    43  47  59    45  48  61    52  54  66    58  59  67    60  59  65    61  59  63    62  60  63    63  60  64    62  61  66    61  61  69    58  61  71    56  61  73    54  60  74    54  60  74    59  61  73    59  58  67    63  58  65    69  61  67    75  64  68    83  69  71    83  75  76    77  74  79    74  73  78    75  74  79    76  74  79    75  70  76    71  66  72    66  61  67    67  60  67    68  62  66    68  62  63    67  59  60    65  56  55    62  54  52    59  48  50    53  42  46    46  37  40    40  33  36    37  33  32    36  32  31    33  32  28    33  31  27    33  29  26    35  30  27    37  32  29    41  32  31    43  34  32    45  33  28    48  33  26    48  35  29    49  38  34    52  41  39    53  43  42     0   0   0     0   0   0     0   0   0     0   0   0     0   0   0  
  58  50  47    56  49  46    52  47  48    46  44  48    43  42  50    43  43  53    43  45  57    43  45  57    43  46  55    54  54  62    60  61  66    59  58  62    62  61  62    67  62  64    69  62  68    62  59  69    56  57  70    54  61  77    54  61  79    50  56  73    53  54  67    60  56  66    66  58  65    73  62  67    81  69  73    84  72  76    80  73  78    78  77  82    77  76  81    73  72  77    73  71  76    77  72  78    76  70  77    72  65  72    69  62  69    67  61  65    65  59  63    63  58  59    58  54  55    54  50  51    49  49  49    45  45  45    40  40  40    34  34  34    31  31  31    31  31  31    31  30  28    30  28  26    33  29  28    36  30  30    37  32  29    41  32  31    44  35  33    47  36  31    50  37  29    48  37  31    49  38  32    49  39  36    49  39  37     0   0   0     0   0   0     0   0   0     0   0   0     0   0   0  
  56  49  43    54  47  45    50  45  46    45  42  46    42  41  49    43  43  53    43  44  56    41  43  55    43  44  54    53  53  61    58  59  64    56  57  60    60  59  60    67  60  62    70  61  66    63  58  68    55  56  71    53  59  78    53  60  79    50  55  74    55  54  68    63  58  68    70  60  67    74  63  67    80  68  72    83  72  78    78  73  80    76  76  81    77  77  83    78  75  82    79  74  80    80  74  80    78  71  78    76  66  74    73  63  71    69  63  67    66  60  65    64  59  63    59  54  58    53  51  54    45  50  51    41  46  46    35  39  40    31  32  34    28  29  31    29  29  29    30  27  28    31  27  26    34  28  28    36  30  30    38  30  28    40  31  30    43  33  32    47  36  31    48  38  29    48  37  31    48  37  34    49  38  36     0   0   0     0   0   0     0   0   0     0   0   0     0   0   0     0   0   0  
  51  46  42    49  45  41    47  43  44    43  40  45    40  39  47    41  41  51    42  43  55    39  41  53    41  42  53    51  51  59    56  57  62    55  56  59    58  57  60    65  59  62    68  59  64    59  57  66    53  56  71    51  57  76    51  58  76    49  55  71    55  56  69    64  61  70    72  64  70    74  64  68    79  68  72    83  74  79    79  75  79    76  76  81    79  79  84    80  79  85    81  79  84    83  77  83    80  73  80    78  69  76    76  66  74    72  66  69    68  62  66    65  60  64    59  56  59    53  53  55    45  49  52    39  44  47    33  37  40    28  30  33    26  27  29    27  27  27    27  27  26    29  27  25    33  28  27    35  29  29    37  29  27    39  30  28    42  32  31    46  36  31    48  38  29    48  37  31    48  37  31     0   0   0     0   0   0     0   0   0     0   0   0     0   0   0     0   0   0     0   0   0  
  47  42  39    45  40  39    42  39  41    38  37  42    38  37  44    39  39  49    40  41  53    39  41  53    41  42  53    50  50  58    55  56  61    55  56  59    58  57  59    62  58  60    64  57  64    57  56  67    52  55  69    49  55  74    48  55  73    49  55  71    55  56  69    66  62  72    73  65  71    74  65  68    77  69  72    83  74  79    81  77  83    80  80  85    81  81  87    82  79  86    84  79  85    85  79  85    83  76  83    81  72  80    79  69  77    74  68  72    70  64  68    66  61  65    60  57  60    53  53  55    45  49  52    39  44  47    33  37  40    28  30  32    25  26  28    26  26  28    27  25  25    29  25  25    32  27  26    34  28  28    36  28  26    39  30  28    42  32  30    46  35  30    48  37  31    48  37  31    48  37  33     0   0   0     0   0   0     0   0   0     0   0   0     0   0   0     0   0   0     0   0   0  
  43  38  35    42  37  37    39  36  38    35  33  38    35  34  42    36  36  46    37  40  49    39  41  53    42  43  54    49  49  57    56  55  61    57  56  60    58  57  59    61  57  60    61  56  62    55  54  65    50  55  68    46  54  71    45  54  71    47  54  70    54  55  67    64  62  70    71  66  71    72  66  68    75  69  72    81  75  79    83  80  86    85  85  90    83  83  88    80  79  85    80  78  83    85  79  85    86  79  86    83  76  83    80  73  80    77  70  74    72  66  70    67  62  66    60  57  60    54  54  56    47  52  54    41  46  49    34  38  41    28  30  33    25  26  28    26  26  28    25  25  25    27  24  25    31  25  26    33  27  27    36  28  26    38  29  27    41  31  30    45  35  31    46  37  30    46  37  30     0   0   0     0   0   0     0   0   0     0   0   0     0   0   0     0   0   0     0   0   0     0   0   0  
  41  35  37    39  35  37    35  33  37    32  31  36    30  30  38    30  33  42    33  36  46    38  40  52    42  43  54    48  48  57    54  53  59    57  56  62    57  56  60    60  55  59    57  55  60    54  55  65    49  55  67    43  54  69    43  53  70    47  55  71    54  55  67    63  61  68    70  65  70    72  66  69    77  71  75    81  76  82    82  81  86    85  86  91    83  83  89    79  78  84    80  78  83    86  80  86    88  81  88    86  80  86    84  77  84    79  74  78    75  70  74    70  65  69    62  59  62    56  55  60    49  52  57    42  47  51    34  38  42    28  30  33    24  25  29    25  25  27    27  24  27    28  24  25    31  25  26    33  27  27    36  28  26    38  29  27    41  31  30    45  35  31    46  37  32     0   0   0     0   0   0     0   0   0     0   0   0     0   0   0     0   0   0     0   0   0     0   0   0     0   0   0  
  37  35  36    35  34  37    33  32  36    29  29  34    27  27  35    27  30  39    30  33  42    37  40  49    40  43  50    46  47  54    52  51  57    56  55  60    56  54  59    58  56  61    56  55  61    52  55  64    48  55  68    42  53  68    42  52  67    47  55  69    55  57  66    62  61  67    68  65  69    73  68  72    80  75  79    82  80  85    81  81  87    80  82  87    80  82  87    80  79  85    83  80  85    88  83  89    90  83  90    90  84  90    89  82  89    84  79  82    78  74  78    72  70  73    65  63  66    59  58  63    49  52  57    42  46  50    33  36  41    27  28  33    23  24  28    24  24  26    25  24  26    27  24  25    31  25  26    33  27  27    36  28  26    38  29  27    41  31  29    44  36  31     0   0   0     0   0   0     0   0   0     0   0   0     0   0   0     0   0   0     0   0   0     0   0   0     0   0   0     0   0   0  
  36  34  39    35  33  38    32  31  36    27  27  34    25  25  33    25  28  37    28  31  40    35  38  47    39  42  49    44  45  53    51  50  56    55  54  60    55  53  58    57  55  60    55  54  60    52  55  64    48  55  68    42  53  68    41  51  66    48  54  69    56  59  68    63  61  66    69  64  69    75  70  74    81  79  84    84  83  89    79  81  86    75  78  83    79  80  85    82  81  87    85  83  88    89  86  91    91  85  92    94  87  94     0   0   0     0   0   0     0   0   0    75  73  76    68  66  69    61  60  65    49  52  58    42  46  53    33  36  42    25  27  32    22  23  27    23  22  27    26  23  25    29  25  26    31  25  26    33  27  27    36  28  26    38  29  27    41  31  29     0   0   0     0   0   0     0   0   0     0   0   0     0   0   0     0   0   0     0   0   0     0   0   0     0   0   0     0   0   0     0   0   0  
  35  34  39    34  34  40    32  32  39    26  28  35    22  25  32    21  25  34    25  29  38    33  37  46    40  43  51    43  46  53    46  47  52    50  48  54    52  50  55    51  50  55    51  51  59    49  53  64    44  52  66    41  52  67    42  52  67    46  52  64    53  56  63    59  57  61    68  62  65    75  70  73    79  76  81    79  78  84    76  77  84    73  76  81    78  80  85    84  84  89    85  84  89     0   0   0     0   0   0     0   0   0     0   0   0     0   0   0     0   0   0     0   0   0     0   0   0    63  63  67    54  57  64    43  47  56    34  37  45    27  29  34    22  23  27    22  21  26    23  23  25    27  24  25    29  24  24    32  26  26    36  28  26    39  30  28     0   0   0     0   0   0     0   0   0     0   0   0     0   0   0     0   0   0     0   0   0     0   0   0     0   0   0     0   0   0     0   0   0     0   0   0  
  34  33  41    33  33  40    31  31  39    25  27  34    21  24  31    21  25  34    24  28  37    31  35  44    37  41  48    42  43  51    45  44  50    49  47  53     0   0   0     0   0   0     0   0   0     0   0   0    44  51  65    42  51  66    42  50  64    47  51  63    55  55  63    59  56  60    66  60  63    72  67  70    77  74  79    78  77  83    76  77  84    75  78  83    78  80  85     0   0   0     0   0   0     0   0   0     0   0   0     0   0   0     0   0   0     0   0   0     0   0   0     0   0   0     0   0   0     0   0   0     0   0   0    43  46  55    34  37  46    29  30  38    23  24  30    23  22  28    26  23  28    30  25  28    31  26  26    34  28  28    38  30  28    41  32  30     0   0   0     0   0   0     0   0   0     0   0   0     0   0   0     0   0   0     0   0   0     0   0   0     0   0   0     0   0   0     0   0   0     0   0   0  
  32  32  40    31  32  42    28  31  40    23  27  36    20  24  33    20  24  33    22  27  35    29  34  40    35  39  45    39  42  49     0   0   0     0   0   0     0   0   0     0   0   0     0   0   0     0   0   0     0   0   0     0   0   0     0   0   0     0   0   0     0   0   0     0   0   0    63  57  60    68  63  67    73  70  75    76  75  81     0   0   0     0   0   0     0   0   0     0   0   0     0   0   0     0   0   0     0   0   0     0   0   0     0   0   0     0   0   0     0   0   0     0   0   0     0   0   0     0   0   0     0   0   0     0   0   0     0   0   0    31  31  40    25  26  32    24  23  29    25  24  28    30  27  29    33  28  28    36  30  30    40  32  30     0   0   0     0   0   0     0   0   0     0   0   0     0   0   0     0   0   0     0   0   0     0   0   0     0   0   0     0   0   0     0   0   0     0   0   0     0   0   0  
  33  33  43    31  32  42    28  31  40    24  28  37    21  25  34    20  24  33    21  26  34    27  32  38     0   0   0     0   0   0     0   0   0     0   0   0     0   0   0     0   0   0     0   0   0     0   0   0     0   0   0     0   0   0     0   0   0     0   0   0     0   0   0     0   0   0     0   0   0     0   0   0     0   0   0     0   0   0     0   0   0     0   0   0     0   0   0     0   0   0     0   0   0     0   0   0     0   0   0     0   0   0     0   0   0     0   0   0     0   0   0     0   0   0     0   0   0     0   0   0     0   0   0     0   0   0     0   0   0     0   0   0     0   0   0    26  25  31    28  25  31    32  27  32    34  28  31    37  31  31     0   0   0     0   0   0     0   0   0     0   0   0     0   0   0     0   0   0     0   0   0     0   0   0     0   0   0     0   0   0     0   0   0     0   0   0     0   0   0     0   0   0  
  32  34  46    30  33  45    28  32  43    24  30  39    21  28  36    20  27  35     0   0   0     0   0   0     0   0   0     0   0   0     0   0   0     0   0   0     0   0   0     0   0   0     0   0   0     0   0   0     0   0   0     0   0   0     0   0   0     0   0   0     0   0   0     0   0   0     0   0   0     0   0   0     0   0   0     0   0   0     0   0   0     0   0   0     0   0   0     0   0   0     0   0   0     0   0   0     0   0   0     0   0   0     0   0   0     0   0   0     0   0   0     0   0   0     0   0   0     0   0   0     0   0   0     0   0   0     0   0   0     0   0   0     0   0   0     0   0   0     0   0   0    31  28  30    33  28  28    36  30  30     0   0   0     0   0   0     0   0   0     0   0   0     0   0   0     0   0   0     0   0   0     0   0   0     0   0   0     0   0   0     0   0   0     0   0   0     0   0   0     0   0   0  
  35  37  49    32  35  47    31  35  46    28  34  44     0   0   0     0   0   0     0   0   0     0   0   0     0   0   0     0   0   0     0   0   0     0   0   0     0   0   0     0   0   0     0   0   0     0   0   0     0   0   0     0   0   0     0   0   0     0   0   0     0   0   0     0   0   0     0   0   0     0   0   0     0   0   0     0   0   0     0   0   0     0   0   0     0   0   0     0   0   0     0   0   0     0   0   0     0   0   0     0   0   0     0   0   0     0   0   0     0   0   0     0   0   0     0   0   0     0   0   0     0   0   0     0   0   0     0   0   0     0   0   0     0   0   0     0   0   0     0   0   0     0   0   0    33  28  30    36  30  30     0   0   0     0   0   0     0   0   0     0   0   0     0   0   0     0   0   0     0   0   0     0   0   0     0   0   0     0   0   0     0   0   0     0   0   0     0   0   0     0   0   0  
