P3
66 50
255
 148 148 146   144 144 142   157 158 153     0   0   0     0   0   0     0   0   0     0   0   0     0   0   0     0   0   0     0   0   0     0   0   0     0   0   0     0   0   0     0   0   0     0   0   0     0   0   0     0   0   0     0   0   0     0   0   0     0   0   0     0   0   0     0   0   0     0   0   0     0   0   0     0   0   0     0   0   0     0   0   0     0   0   0     0   0   0     0   0   0     0   0   0     0   0   0     0   0   0     0   0   0     0   0   0     0   0   0     0   0   0     0   0   0     0   0   0     0   0   0     0   0   0     0   0   0     0   0   0     0   0   0     0   0   0     0   0   0     0   0   0   126 128 128   122 124 123   121 123 122     0   0   0     0   0   0     0   0   0     0   0   0     0   0   0     0   0   0     0   0   0     0   0   0     0   0   0     0   0   0     0   0   0     0   0   0     0   0   0     0   0   0     0   0   0     0   0   0  
 143 143 141   140 140 139   153 155 150   152 154 149   155 158 153     0   0   0     0   0   0     0   0   0     0   0   0     0   0   0     0   0   0     0   0   0     0   0   0     0   0   0     0   0   0     0   0   0     0   0   0     0   0   0     0   0   0     0   0   0     0   0   0     0   0   0     0   0   0     0   0   0     0   0   0     0   0   0     0   0   0     0   0   0     0   0   0     0   0   0     0   0   0     0   0   0     0   0   0     0   0   0     0   0   0     0   0   0     0   0   0     0   0   0     0   0   0     0   0   0     0   0   0     0   0   0     0   0   0     0   0   0     0   0   0     0   0   0     0   0   0   132 134 133   122 124 123   121 123 122     0   0   0     0   0   0     0   0   0     0   0   0     0   0   0     0   0   0     0   0   0     0   0   0     0   0   0     0   0   0     0   0   0     0   0   0     0   0   0     0   0   0     0   0   0     0   0   0  
 144 144 142   139 139 137   150 152 147   150 152 147   160 165 159   174 179 173   171 176 170     0   0   0     0   0   0     0   0   0     0   0   0     0   0   0     0   0   0     0   0   0     0   0   0     0   0   0     0   0   0     0   0   0     0   0   0     0   0   0     0   0   0     0   0   0     0   0   0     0   0   0     0   0   0     0   0   0     0   0   0     0   0   0     0   0   0     0   0   0     0   0   0     0   0   0     0   0   0     0   0   0     0   0   0     0   0   0     0   0   0     0   0   0     0   0   0     0   0   0     0   0   0     0   0   0     0   0   0     0   0   0     0   0   0   124 126 125   124 126 125   129 131 130   124 126 125   125 127 126     0   0   0     0   0   0     0   0   0     0   0   0     0   0   0     0   0   0     0   0   0     0   0   0     0   0   0     0   0   0     0   0   0     0   0   0     0   0   0     0   0   0     0   0   0     0   0   0  
   0   0   0   146 146 144   150 152 147   153 155 150   160 165 159   168 173 167   169 174 168   175 180 174   172 174 171     0   0   0     0   0   0     0   0   0     0   0   0     0   0   0     0   0   0     0   0   0     0   0   0     0   0   0     0   0   0     0   0   0     0   0   0     0   0   0     0   0   0     0   0   0     0   0   0     0   0   0     0   0   0     0   0   0     0   0   0     0   0   0     0   0   0     0   0   0     0   0   0     0   0   0     0   0   0     0   0   0     0   0   0     0   0   0     0   0   0     0   0   0     0   0   0     0   0   0   125 128 127   126 128 127   124 126 125   122 124 123   123 125 124   125 127 126   127 129 128   126 128 127     0   0   0     0   0   0     0   0   0     0   0   0     0   0   0     0   0   0     0   0   0     0   0   0     0   0   0     0   0   0     0   0   0     0   0   0     0   0   0     0   0   0     0   0   0     0   0   0  
   0   0   0   166 166 164   164 166 161   159 162 157   161 166 160   171 176 170   174 179 174   170 175 169   169 171 168   171 173 170   171 173 170     0   0   0     0   0   0     0   0   0     0   0   0     0   0   0     0   0   0     0   0   0     0   0   0     0   0   0     0   0   0     0   0   0     0   0   0     0   0   0     0   0   0     0   0   0     0   0   0     0   0   0     0   0   0     0   0   0     0   0   0     0   0   0     0   0   0     0   0   0     0   0   0     0   0   0     0   0   0     0   0   0     0   0   0     0   0   0   130 132 131   131 133 132   132 134 133   131 133 132   129 131 130   128 130 129   128 130 129   129 130 129   128 130 129   124 126 125   120 122 121     0   0   0     0   0   0     0   0   0     0   0   0     0   0   0     0   0   0     0   0   0     0   0   0     0   0   0     0   0   0     0   0   0     0   0   0     0   0   0     0   0   0     0   0   0  
   0   0   0     0   0   0   174 175 170   161 163 158   162 164 159   175 177 172   177 179 174   168 169 164   166 168 163   164 166 161   166 168 163   169 171 166   164 166 161     0   0   0     0   0   0     0   0   0     0   0   0     0   0   0     0   0   0     0   0   0     0   0   0     0   0   0     0   0   0     0   0   0     0   0   0     0   0   0     0   0   0     0   0   0     0   0   0     0   0   0     0   0   0     0   0   0     0   0   0     0   0   0     0   0   0     0   0   0     0   0   0   156 158 157   157 159 158   156 158 157   145 147 146   143 145 144   141 143 142   140 143 141   140 143 142   140 142 141   138 140 139   137 139 138   127 129 128   123 125 124   117 119 118     0   0   0     0   0   0     0   0   0     0   0   0     0   0   0     0   0   0     0   0   0     0   0   0     0   0   0     0   0   0     0   0   0     0   0   0     0   0   0     0   0   0     0   0   0  
   0   0   0     0   0   0     0   0   0   165 166 161   167 167 162   171 173 168   172 172 167   166 167 162   163 165 160   159 161 156   161 163 158   166 168 163   162 164 159   155 157 152   161 163 158   175 177 172     0   0   0     0   0   0     0   0   0     0   0   0     0   0   0     0   0   0     0   0   0     0   0   0     0   0   0     0   0   0     0   0   0     0   0   0     0   0   0     0   0   0     0   0   0     0   0   0     0   0   0   152 154 153   150 152 151   147 149 148   149 151 150   153 155 154   155 157 156   152 154 153   152 155 153   150 151 151   146 148 147   147 149 148   148 150 149   149 151 150   147 149 148   145 147 146   133 135 134   130 133 131   123 125 124   116 118 117     0   0   0     0   0   0     0   0   0     0   0   0     0   0   0     0   0   0     0   0   0     0   0   0     0   0   0     0   0   0     0   0   0     0   0   0     0   0   0     0   0   0  
   0   0   0     0   0   0     0   0   0     0   0   0   177 176 172   171 171 167   169 168 164   170 170 165   163 164 159   157 159 154   157 159 154   162 164 159   160 162 157   157 159 154   163 165 160   176 178 173   180 182 177   184 186 181   198 200 195   212 214 209   207 209 204   189 191 186     0   0   0     0   0   0     0   0   0     0   0   0     0   0   0   191 193 192   187 189 188   176 178 177   167 169 168   162 164 163   160 162 161   161 163 162   157 159 158   150 152 151   150 152 151   155 157 156   156 158 157   152 154 153   155 157 156   153 155 154   150 152 151   150 152 151   152 154 153   153 155 154   153 155 154   152 154 153   147 149 148   146 148 147   138 140 139   123 125 124     0   0   0     0   0   0     0   0   0     0   0   0     0   0   0     0   0   0     0   0   0     0   0   0     0   0   0     0   0   0     0   0   0     0   0   0     0   0   0     0   0   0  
   0   0   0     0   0   0     0   0   0     0   0   0   177 174 171   173 170 166   169 166 163   168 167 163   164 165 160   158 160 155   155 157 152   155 157 152   156 158 153   161 163 158   168 170 165   174 176 171   177 179 174   182 184 179   191 193 188   198 201 196   195 197 192   183 185 180   178 180 175   180 182 177   180 182 181   177 179 178   175 177 176   176 178 177   175 177 176   170 172 171   167 170 168   168 170 169   167 169 168   170 172 171   167 169 168   160 162 161   161 163 162   167 169 167   166 168 167   160 163 162   157 159 158   157 159 158   155 157 156   154 156 155   154 155 155   154 156 155   155 157 156   157 159 158   156 158 157   157 159 158   148 150 149   133 134 133   123 125 124     0   0   0     0   0   0     0   0   0     0   0   0     0   0   0     0   0   0     0   0   0     0   0   0     0   0   0     0   0   0     0   0   0     0   0   0     0   0   0  
   0   0   0     0   0   0     0   0   0     0   0   0     0   0   0   168 167 163   170 166 165   162 161 157   165 165 163   161 163 158   154 156 153   150 152 147   155 157 154   165 167 162   172 174 171   173 175 170   172 174 170   178 180 175   183 185 182   181 184 179   175 177 174   169 171 166   172 174 170   177 179 176   180 182 181   174 176 175   172 174 173   175 177 176   174 177 176   171 173 172   167 169 168   168 170 169   168 170 169   172 174 173   171 173 172   164 166 165   165 167 166   171 173 172   170 172 171   163 165 164   161 163 162   162 164 162   160 162 162   158 159 159   155 157 156   154 156 155   156 158 157   160 162 161   157 159 158   157 159 158   150 152 151   139 140 139   135 137 136     0   0   0     0   0   0     0   0   0     0   0   0     0   0   0     0   0   0     0   0   0     0   0   0     0   0   0     0   0   0     0   0   0     0   0   0     0   0   0  
   0   0   0     0   0   0     0   0   0     0   0   0     0   0   0     0   0   0   164 162 163   166 166 164   164 164 164   165 165 163   163 163 163   159 159 158   163 163 163   171 171 170   174 174 174   172 172 170   173 173 173   177 177 175   179 179 179   175 175 173   170 170 170   170 170 168   167 167 167   164 164 164   172 172 172   174 174 174   175 175 175   174 174 174   170 170 170   166 166 166   166 166 166   166 166 166   169 169 169   169 169 169   169 169 169   169 169 169   169 169 169   168 168 168   167 167 167   165 167 166   159 161 158   158 163 159   159 164 160   159 164 160   160 165 161   159 164 160   157 161 160   156 160 159   158 162 161   160 164 163   154 158 159   143 147 148   143 147 148   149 153 154     0   0   0     0   0   0     0   0   0     0   0   0     0   0   0     0   0   0     0   0   0     0   0   0     0   0   0     0   0   0     0   0   0     0   0   0  
   0   0   0     0   0   0     0   0   0     0   0   0     0   0   0     0   0   0     0   0   0   163 163 163   160 160 160   162 162 162   163 163 163   165 165 165   170 170 170   177 177 177   178 178 178   175 175 175   173 173 173   173 173 173   173 173 173   173 173 173   177 177 177   178 178 178   173 173 173   165 165 165   170 170 170   172 172 172   173 173 173   173 173 173   169 169 169   165 165 165   164 164 164   163 163 163   169 169 169   169 169 169   169 169 169   168 168 168   167 167 167   167 167 167   166 166 166   165 167 166   161 163 161   159 164 160   159 164 160   158 163 159   159 164 160   159 164 160   158 162 161   158 162 161   155 159 158   155 159 158   150 155 155   146 150 151   147 151 152   152 156 157     0   0   0     0   0   0     0   0   0     0   0   0     0   0   0     0   0   0     0   0   0     0   0   0     0   0   0     0   0   0     0   0   0     0   0   0  
   0   0   0     0   0   0     0   0   0     0   0   0     0   0   0     0   0   0     0   0   0   162 162 162   159 159 159   160 160 160   162 162 162   166 166 166   172 172 172   177 177 177   175 175 175   172 172 172   169 169 169   168 168 168   168 168 168   171 171 171   178 178 178   181 181 181   174 174 174   163 163 163   167 167 167   169 169 169   171 171 171   172 172 172   170 170 170   167 167 167   165 165 165   163 163 163   169 169 169   169 169 169   167 167 167   166 166 166   165 165 165   166 166 166   166 166 166   165 167 166   164 166 163   159 164 160   157 162 158   156 161 157   157 162 158   159 164 160   159 163 162   158 162 161   154 158 157   151 155 154   150 154 155   151 155 156   151 155 156   152 156 157   155 159 160     0   0   0     0   0   0     0   0   0     0   0   0     0   0   0     0   0   0     0   0   0     0   0   0     0   0   0     0   0   0     0   0   0  
   0   0   0     0   0   0     0   0   0     0   0   0     0   0   0     0   0   0     0   0   0     0   0   0   158 158 158   155 155 155   155 155 155   160 160 160   167 167 167   170 170 170   169 169 169   167 167 167   162 162 162   165 165 165   167 167 167   169 169 169   172 172 172   174 174 174   168 168 168   161 161 161   163 163 163   165 165 165   168 168 168   170 170 170   170 170 170   170 170 170   169 169 169   167 167 167   168 168 168   167 167 167   165 165 165   163 163 163   162 162 162   164 164 164   165 165 165   165 168 167   165 167 164   159 164 160   155 160 156   153 158 155   155 160 156   157 162 158   157 161 160   156 160 159   150 154 153   147 151 150   149 153 154   154 158 159   153 157 158   148 152 153   152 156 157     0   0   0     0   0   0     0   0   0     0   0   0     0   0   0     0   0   0     0   0   0     0   0   0     0   0   0     0   0   0     0   0   0  
   0   0   0     0   0   0     0   0   0     0   0   0     0   0   0     0   0   0     0   0   0     0   0   0     0   0   0   150 150 150   148 148 148   154 154 154   162 162 162   167 167 167   168 168 168   168 168 168   162 162 162   169 169 169   172 172 172   172 172 172   169 169 169   168 168 168   167 167 167   164 164 164   163 163 163   163 163 163   164 164 164   167 167 167   170 170 170   172 172 172   172 172 172   171 171 171   167 167 167   165 165 165   162 162 162   160 160 160   161 161 161   163 163 163   166 166 166   168 168 168   166 168 165   159 164 160   153 158 154   153 158 154   155 160 156   157 162 158   157 161 160   154 158 157   146 150 149   145 149 148   148 152 153   154 158 159   153 157 158   149 153 154   152 156 157   160 161 163     0   0   0     0   0   0     0   0   0     0   0   0     0   0   0     0   0   0     0   0   0     0   0   0     0   0   0     0   0   0  
   0   0   0     0   0   0     0   0   0     0   0   0     0   0   0     0   0   0     0   0   0     0   0   0     0   0   0   153 153 153   150 150 150   158 158 158   166 166 166   169 169 169   169 169 169   169 169 169   164 164 164   170 170 170   174 174 174   172 172 172   169 169 169   169 169 169   168 168 168   166 166 166   164 164 164   163 163 163   162 162 162   164 164 164   168 168 168   170 170 170   170 170 170   169 169 169   165 165 165   163 163 163   160 160 160   159 159 159   160 160 160   163 163 163   167 167 167   170 170 170   168 170 167   162 164 161   157 159 156   157 159 156   160 162 159   162 164 161   160 162 161   157 159 158   152 154 153   152 154 153   152 153 155   153 154 156   154 155 157   154 155 157   157 158 160   159 160 162   157 156 161     0   0   0     0   0   0     0   0   0     0   0   0     0   0   0     0   0   0     0   0   0     0   0   0     0   0   0  
   0   0   0     0   0   0     0   0   0     0   0   0     0   0   0     0   0   0     0   0   0     0   0   0     0   0   0     0   0   0   159 159 159   165 165 165   170 170 170   170 170 170   166 166 166   165 165 165   166 166 166   168 168 168   170 170 170   169 169 169   169 169 169   170 170 170   168 168 168   166 166 166   164 164 164   163 163 163   162 162 162   163 163 163   166 166 166   168 168 168   168 168 168   168 168 168   165 165 165   163 163 163   160 160 160   158 158 158   159 159 159   162 162 162   166 166 166   169 169 169   167 169 166   164 166 163   161 163 160   160 162 159   162 165 161   163 165 162   161 163 162   158 160 159   158 161 160   159 161 160   156 157 159   154 155 157   153 154 156   155 157 159   157 158 160   158 159 160   155 155 160   152 151 157     0   0   0     0   0   0     0   0   0     0   0   0     0   0   0     0   0   0     0   0   0     0   0   0  
   0   0   0     0   0   0     0   0   0     0   0   0     0   0   0     0   0   0     0   0   0     0   0   0     0   0   0     0   0   0     0   0   0   171 171 171   172 172 172   170 170 170   166 166 166   164 164 164   169 169 169   168 168 168   168 168 168   168 168 168   168 168 168   168 168 168   169 169 169   169 169 169   164 164 164   164 164 164   165 165 165   167 167 167   168 168 168   170 170 170   172 172 172   173 173 173   169 169 169   167 167 167   164 164 164   161 161 161   160 160 160   160 160 160   161 161 161   162 162 162   164 166 163   164 166 163   166 168 165   166 168 165   165 167 164   163 165 162   161 163 162   160 162 161   159 161 160   160 162 161   160 161 163   159 160 162   157 158 160   157 158 160   158 159 161   159 160 162   159 160 163   157 158 161   156 157 161     0   0   0     0   0   0     0   0   0     0   0   0     0   0   0     0   0   0     0   0   0  
   0   0   0     0   0   0     0   0   0     0   0   0     0   0   0     0   0   0     0   0   0     0   0   0     0   0   0     0   0   0     0   0   0     0   0   0   174 174 174   172 172 172   172 172 172   171 171 171   171 171 171   170 170 170   169 169 169   167 167 167   166 166 166   166 166 166   166 166 166   167 167 167   170 170 170   169 169 169   167 167 167   167 167 167   167 167 167   170 170 170   174 174 174   175 175 175   172 172 172   170 170 170   166 166 166   163 163 163   160 160 160   159 159 159   159 159 159   159 159 159   163 163 161   165 165 163   167 168 165   169 170 167   168 169 166   165 166 164   162 162 162   160 160 160   159 159 159   160 160 160   161 162 164   161 161 163   160 160 162   160 160 162   162 162 164   162 163 165   163 164 165   159 162 162   158 161 163   159 162 162     0   0   0     0   0   0     0   0   0     0   0   0     0   0   0     0   0   0  
   0   0   0     0   0   0     0   0   0     0   0   0     0   0   0     0   0   0     0   0   0     0   0   0     0   0   0     0   0   0     0   0   0     0   0   0   173 173 173   170 170 170   171 171 171   173 173 173   172 172 172   171 171 171   169 169 169   167 167 167   166 166 166   167 167 167   167 167 167   168 168 168   171 171 171   170 170 170   168 168 168   167 167 167   167 167 167   169 169 169   171 171 171   173 173 173   173 173 173   171 171 171   168 168 168   165 165 165   163 163 163   162 162 162   162 162 162   162 162 162   162 162 160   164 164 162   166 166 164   167 167 165   167 167 165   165 165 163   162 162 162   160 160 160   161 161 161   163 163 163   164 164 166   163 163 165   162 162 164   161 161 163   161 161 163   161 162 164   162 166 165   161 166 162   160 164 163   160 165 161   163 165 164     0   0   0     0   0   0     0   0   0     0   0   0     0   0   0  
   0   0   0     0   0   0     0   0   0     0   0   0     0   0   0     0   0   0     0   0   0     0   0   0     0   0   0     0   0   0     0   0   0     0   0   0     0   0   0   168 168 168   169 169 169   171 171 171   171 171 171   170 170 170   169 169 169   169 169 169   169 169 169   169 169 169   170 170 170   171 171 171   171 171 171   171 171 171   170 170 170   170 170 170   170 170 170   170 170 170   170 170 170   170 170 170   174 174 174   173 173 173   170 170 170   168 168 168   165 165 165   164 164 164   163 163 163   163 163 163   163 163 161   163 163 161   163 163 161   162 162 160   162 162 160   162 162 160   162 162 162   162 162 162   160 160 160   162 162 162   164 164 166   164 164 166   163 163 165   162 162 164   162 162 164   162 164 163   166 171 167   164 171 164   165 170 166   165 170 164   165 170 166   164 169 165     0   0   0     0   0   0     0   0   0     0   0   0  
   0   0   0     0   0   0     0   0   0     0   0   0     0   0   0     0   0   0     0   0   0     0   0   0     0   0   0     0   0   0     0   0   0     0   0   0     0   0   0     0   0   0   170 170 170   172 172 172   169 169 169   169 169 169   171 171 171   172 172 172   173 173 173   172 172 172   173 173 173   173 173 173   172 172 172   172 172 172   173 173 173   172 172 172   172 172 172   172 172 172   172 172 172   171 171 171   173 173 173   173 173 173   170 170 170   167 167 167   165 165 165   163 163 163   160 160 160   160 160 160   162 162 160   162 162 160   161 161 159   160 160 158   160 160 158   161 161 159   162 162 162   163 163 163   158 158 158   161 161 161   164 164 166   166 166 168   167 167 169   167 167 169   168 168 170   168 170 169   165 170 165   165 172 165   167 172 165   167 172 166   166 171 165   164 169 163   165 167 164     0   0   0     0   0   0     0   0   0  
   0   0   0     0   0   0     0   0   0     0   0   0     0   0   0     0   0   0     0   0   0     0   0   0     0   0   0     0   0   0     0   0   0     0   0   0     0   0   0     0   0   0     0   0   0   170 170 170   170 170 170   171 171 171   173 173 173   175 175 175   176 176 176   175 175 175   173 173 173   173 173 173   173 173 173   172 172 172   171 171 171   169 169 169   169 169 169   170 170 170   172 172 172   173 173 173   167 167 167   167 167 167   166 166 166   165 165 165   164 164 164   162 162 162   161 161 161   161 161 161   160 161 160   161 162 159   162 163 160   162 163 161   162 163 161   162 163 161   162 163 162   161 162 162   161 162 162   164 165 165   168 168 170   170 171 173   170 170 172   170 170 172   170 170 172   170 172 171   167 172 167   168 174 167   171 174 168   171 175 169   170 173 168   169 172 167   169 171 167   169 171 167     0   0   0     0   0   0  
   0   0   0     0   0   0     0   0   0     0   0   0     0   0   0     0   0   0     0   0   0     0   0   0     0   0   0     0   0   0     0   0   0     0   0   0     0   0   0     0   0   0     0   0   0   170 172 171   170 172 171   172 173 173   173 175 174   175 176 175   175 176 175   173 174 173   171 172 171   170 171 171   168 169 170   167 168 170   166 167 168   165 166 167   166 166 168   167 167 169   168 169 170   169 170 171   162 162 164   161 162 163   161 161 163   162 163 164   164 164 166   163 164 165   162 163 164   160 161 161   162 165 164   160 165 162   160 165 162   162 167 165   164 168 166   164 169 167   166 171 169   167 172 171   161 166 165   164 169 167   166 170 170   167 172 171   168 172 171   168 173 172   170 175 174   173 176 175   179 182 180   182 183 180   180 181 178   175 175 172   171 171 168   173 173 170   174 175 174   173 173 172   170 171 170     0   0   0  
   0   0   0     0   0   0     0   0   0     0   0   0     0   0   0     0   0   0     0   0   0     0   0   0     0   0   0     0   0   0     0   0   0     0   0   0     0   0   0     0   0   0     0   0   0     0   0   0   169 171 170   170 172 171   171 173 172   171 173 172   170 172 171   169 171 170   166 168 167   165 167 166   164 165 167   163 164 166   162 163 165   162 163 165   162 163 165   163 164 166   164 165 167   165 166 168   164 164 167   163 164 166   163 164 166   164 165 167   166 167 169   167 168 169   164 166 168   160 164 164   160 166 164   160 169 166   162 170 167   164 173 170   167 176 173   169 178 175   171 179 176   170 179 176   164 173 170   164 172 169   163 172 169   163 172 169   165 174 171   169 177 174   173 181 179   177 182 180   184 184 184   186 184 185   181 179 180   174 172 173   171 171 171   172 172 172   172 172 172   169 169 169   165 168 166   169 171 170  
   0   0   0     0   0   0     0   0   0     0   0   0     0   0   0     0   0   0     0   0   0     0   0   0     0   0   0     0   0   0     0   0   0     0   0   0     0   0   0     0   0   0     0   0   0     0   0   0   165 167 166   166 168 167   168 170 169   169 171 170   169 171 170   168 170 169   166 168 167   165 167 166   163 164 166   162 163 165   161 162 164   161 162 164   161 162 164   162 163 165   163 164 166   164 165 167   165 166 168   164 165 167   164 165 167   166 167 169   167 168 170   168 169 171   167 168 170   164 168 169   163 169 167   168 174 172   171 177 175   171 177 175   175 181 179   183 189 187   184 190 188   179 185 183   172 178 176   168 174 172   163 169 167   162 168 166   166 172 170   171 177 174   174 180 178   177 181 180   176 176 176   176 174 175   173 171 172   170 168 169   171 171 171   173 173 173   170 172 171   166 168 167   162 164 163     0   0   0  
   0   0   0     0   0   0     0   0   0     0   0   0     0   0   0     0   0   0     0   0   0     0   0   0     0   0   0     0   0   0     0   0   0     0   0   0     0   0   0     0   0   0     0   0   0     0   0   0   163 166 165   165 166 166   167 169 168   169 171 170   170 172 170   169 171 170   168 170 169   167 169 168   164 165 167   163 164 166   162 163 165   162 163 165   162 163 165   163 164 166   164 165 167   165 166 168   163 164 166   163 164 166   164 165 167   165 166 168   167 168 170   167 168 170   168 169 171   168 169 171   166 170 169   172 178 176   177 180 179   176 182 180   184 188 186   191 197 195   192 195 194   183 188 186   176 179 178   168 174 172   163 167 166   161 166 165   166 169 168   168 173 171   170 173 172   168 172 170   165 165 165   164 162 163   162 161 161   165 163 164   169 169 169   172 172 172   169 171 170   165 167 166   161 163 162     0   0   0  
   0   0   0     0   0   0     0   0   0     0   0   0     0   0   0     0   0   0     0   0   0     0   0   0     0   0   0     0   0   0     0   0   0     0   0   0     0   0   0     0   0   0     0   0   0   165 167 166   167 169 168   168 170 169   169 171 170   169 171 170   168 170 169   166 168 167   164 166 165   162 164 163   163 164 166   162 163 165   161 162 164   161 162 164   161 162 164   162 163 165   163 164 166   164 165 167   164 165 167   165 166 168   166 167 169   167 168 170   168 169 171   169 170 172   171 172 174   173 174 176   168 170 169   175 178 177   186 187 186   193 196 195   202 203 202   201 204 203   195 196 195   183 186 185   179 180 180   173 176 175   171 172 171   168 171 170   170 171 171   169 172 171   167 168 168   164 165 165   163 163 163   160 160 160   159 159 159   163 163 163   167 167 167   167 167 167   164 166 165   162 164 163     0   0   0     0   0   0  
   0   0   0     0   0   0     0   0   0     0   0   0     0   0   0     0   0   0     0   0   0     0   0   0     0   0   0     0   0   0     0   0   0     0   0   0     0   0   0     0   0   0     0   0   0   168 170 169   170 172 170   170 172 171   170 173 172   170 172 170   168 170 169   165 167 166   162 164 163   160 162 161   162 163 165   162 163 165   160 162 164   160 161 163   160 162 164   162 163 165   163 164 165   164 165 167   164 165 167   165 166 168   167 168 170   168 169 171   168 169 171   169 170 172   173 174 175   175 177 179   172 172 172   172 173 173   182 180 181   196 197 196   204 203 203   198 199 198   190 188 189   184 185 184   180 179 180   178 179 178   177 175 176   174 175 174   173 172 173   170 171 171   169 168 168   167 167 167   166 166 166   162 162 162   161 162 162   164 165 164   164 165 165   161 162 162   160 162 161     0   0   0     0   0   0     0   0   0  
   0   0   0     0   0   0     0   0   0     0   0   0     0   0   0     0   0   0     0   0   0     0   0   0     0   0   0     0   0   0     0   0   0     0   0   0     0   0   0     0   0   0     0   0   0   171 173 172   169 171 170   170 172 171   171 173 172   172 174 173   172 174 172   170 172 171   168 170 169   167 169 168   164 166 168   164 165 167   163 164 166   163 164 166   163 164 166   164 165 167   165 166 168   166 167 169   161 162 164   163 164 166   165 166 168   165 166 168   165 166 168   167 168 170   171 172 174   175 176 178   171 169 170   160 158 159   160 158 159   172 170 171   180 178 179   176 174 175   174 172 173   179 178 178   179 177 178   179 177 178   178 176 177   176 174 175   173 171 172   171 169 170   172 170 171   172 171 172   166 166 166   164 164 164   163 165 164   166 168 167   165 167 166   161 163 162   163 164 164     0   0   0     0   0   0     0   0   0  
   0   0   0     0   0   0     0   0   0     0   0   0     0   0   0     0   0   0     0   0   0     0   0   0     0   0   0     0   0   0     0   0   0     0   0   0     0   0   0     0   0   0     0   0   0   170 172 171   168 170 169   171 173 172   173 175 174   174 176 175   172 174 173   169 171 170   167 169 168   166 168 167   162 163 165   161 162 164   161 162 164   162 163 165   164 165 167   165 166 168   165 166 168   164 165 167   163 164 166   161 162 164   160 161 163   162 163 165   164 165 167   165 166 168   163 164 166   160 161 163   164 162 163   165 163 164   166 164 165   165 163 164   165 163 164   167 165 166   169 167 168   172 170 171   174 172 173   172 170 171   170 168 169   169 167 168   169 167 168   170 168 169   170 168 169   169 167 168   164 165 164   163 165 164   163 165 164   162 164 163   161 163 162   160 162 161     0   0   0     0   0   0     0   0   0     0   0   0  
   0   0   0     0   0   0     0   0   0     0   0   0     0   0   0     0   0   0     0   0   0     0   0   0     0   0   0     0   0   0     0   0   0     0   0   0     0   0   0     0   0   0     0   0   0   170 172 171   170 172 171   172 174 173   174 176 175   174 176 175   172 174 173   170 172 171   168 171 170   168 171 170   166 167 169   165 166 168   164 165 167   165 166 167   165 166 168   165 166 168   164 165 167   163 164 165   162 163 165   162 163 165   161 162 165   162 163 165   163 164 165   163 164 166   163 164 166   162 163 165   165 163 164   165 163 164   166 164 165   165 163 164   165 163 164   165 163 164   167 165 166   169 167 168   171 169 170   170 168 169   169 167 168   168 165 167   168 166 167   169 167 168   170 168 169   169 169 169   168 170 169   168 170 169   167 170 169   167 169 168   166 168 167   165 167 166     0   0   0     0   0   0     0   0   0     0   0   0  
   0   0   0     0   0   0     0   0   0     0   0   0     0   0   0     0   0   0     0   0   0     0   0   0     0   0   0     0   0   0     0   0   0     0   0   0     0   0   0     0   0   0     0   0   0   170 172 171   171 173 172   172 174 173   173 175 174   173 175 174   171 173 172   170 172 171   170 172 171   170 172 171   170 171 173   169 170 172   168 169 171   168 169 171   167 168 170   166 167 169   164 165 167   162 163 165   161 162 164   162 163 165   164 165 167   163 164 166   162 163 165   161 162 164   163 164 166   165 166 168   166 165 166   166 165 166   167 165 166   165 164 164   164 162 163   163 162 163   166 164 165   167 166 166   169 167 168   168 167 168   168 166 167   167 166 166   168 166 167   168 167 167   170 168 169   170 170 170   168 171 170   167 171 170   166 170 169   166 170 169   166 168 167     0   0   0     0   0   0     0   0   0     0   0   0     0   0   0  
   0   0   0     0   0   0     0   0   0     0   0   0     0   0   0     0   0   0     0   0   0     0   0   0     0   0   0     0   0   0     0   0   0     0   0   0     0   0   0     0   0   0   169 171 170   169 171 170   168 171 170   170 171 171   170 172 171   169 171 170   168 170 169   167 169 168   168 170 169   169 171 170   173 174 175   171 172 174   170 171 173   170 170 173   169 170 172   167 168 170   163 164 166   160 161 163   160 161 163   162 163 165   163 164 166   162 163 165   160 161 163   160 162 164   164 165 167   167 168 170   166 167 167   166 167 167   166 165 166   163 165 164   162 162 162   161 163 162   163 163 163   164 165 165   167 167 167   167 168 168   168 167 168   167 168 167   167 166 167   167 168 168   170 170 170   172 173 172   168 172 171   167 173 171   168 172 171   168 172 171     0   0   0     0   0   0     0   0   0     0   0   0     0   0   0     0   0   0  
   0   0   0     0   0   0     0   0   0     0   0   0     0   0   0     0   0   0     0   0   0     0   0   0     0   0   0     0   0   0     0   0   0     0   0   0     0   0   0     0   0   0   168 170 169   168 170 169   166 168 167   167 169 168   166 168 167   165 167 166   164 166 165   164 166 165   166 168 167   168 170 169   172 173 175   172 173 175   171 172 174   171 172 174   170 171 173   168 169 171   164 165 167   161 162 164   161 162 164   161 162 164   161 162 164   161 162 164   161 162 164   162 163 165   164 165 167   167 168 170   168 170 169   167 169 168   167 169 168   164 166 165   162 164 163   162 164 163   163 165 164   164 166 165   167 169 168   169 171 170   170 172 171   169 171 170   168 169 169   168 170 169   171 173 172   173 177 176   169 173 172   169 175 173   170 174 173   170 174 173     0   0   0     0   0   0     0   0   0     0   0   0     0   0   0     0   0   0  
   0   0   0     0   0   0     0   0   0     0   0   0     0   0   0     0   0   0     0   0   0     0   0   0     0   0   0     0   0   0     0   0   0     0   0   0     0   0   0     0   0   0   166 168 167   167 169 168   166 168 167   166 168 167   165 167 166   163 165 164   162 164 163   163 165 164   166 168 167   168 170 169   171 172 174   171 172 174   171 172 174   171 172 174   171 172 174   168 169 171   164 165 167   161 162 164   162 163 165   161 162 164   159 160 162   159 160 162   161 162 164   164 165 167   165 166 168   166 167 169   168 170 169   168 170 169   167 169 168   165 167 166   163 165 164   163 165 164   164 166 165   166 168 167   170 172 171   172 174 173   173 175 174   172 174 173   169 171 170   170 172 171   173 175 174   175 179 178   171 175 175   172 178 175   173 178 176     0   0   0     0   0   0     0   0   0     0   0   0     0   0   0     0   0   0     0   0   0  
   0   0   0     0   0   0     0   0   0     0   0   0     0   0   0     0   0   0     0   0   0     0   0   0     0   0   0     0   0   0     0   0   0     0   0   0     0   0   0   166 167 166   166 168 166   165 168 166   165 168 166   164 166 165   163 165 163   162 164 162   162 164 162   163 165 163   164 166 165     0   0   0     0   0   0     0   0   0     0   0   0     0   0   0     0   0   0     0   0   0     0   0   0     0   0   0     0   0   0     0   0   0     0   0   0     0   0   0   162 163 165   165 165 167   165 166 168   164 165 167   169 170 170   169 170 170   168 169 169   166 168 167   164 166 166   164 166 166   165 166 166   166 168 168   172 174 174   175 176 176   176 178 178   174 176 176   171 173 173   172 174 174   175 177 177   179 181 180   178 181 180   179 183 179     0   0   0     0   0   0     0   0   0     0   0   0     0   0   0     0   0   0     0   0   0     0   0   0  
   0   0   0     0   0   0     0   0   0     0   0   0     0   0   0     0   0   0     0   0   0     0   0   0     0   0   0     0   0   0     0   0   0     0   0   0   167 169 168   167 169 168   166 168 165   165 167 164   165 167 164   161 163 160   160 162 159   162 164 161     0   0   0     0   0   0     0   0   0     0   0   0     0   0   0     0   0   0     0   0   0     0   0   0     0   0   0     0   0   0     0   0   0     0   0   0     0   0   0     0   0   0     0   0   0     0   0   0     0   0   0   164 164 166   164 164 166   163 163 165   166 167 169   166 167 169   166 167 169   166 167 169   166 167 169   166 167 169   166 167 169   166 167 169   173 174 176   175 176 178   176 177 179   174 175 177   174 175 177   176 177 179   178 179 181   180 182 181   178 179 177   184 185 180     0   0   0     0   0   0     0   0   0     0   0   0     0   0   0     0   0   0     0   0   0     0   0   0  
   0   0   0     0   0   0     0   0   0     0   0   0     0   0   0     0   0   0     0   0   0     0   0   0     0   0   0     0   0   0     0   0   0   168 170 171   169 170 170   168 170 169   165 167 165   163 165 164   165 167 165   161 163 161     0   0   0     0   0   0     0   0   0     0   0   0     0   0   0     0   0   0     0   0   0     0   0   0     0   0   0     0   0   0     0   0   0     0   0   0     0   0   0     0   0   0     0   0   0     0   0   0     0   0   0     0   0   0     0   0   0     0   0   0   162 162 164   164 164 165   161 162 165   161 162 165   163 164 166   164 165 167   166 167 169   168 169 170   168 169 171   169 170 172   171 172 174   170 171 173   169 170 172   171 172 174   174 175 177   176 177 179   177 178 180   177 179 178   180 180 178     0   0   0     0   0   0     0   0   0     0   0   0     0   0   0     0   0   0     0   0   0     0   0   0     0   0   0  
   0   0   0     0   0   0     0   0   0     0   0   0     0   0   0     0   0   0     0   0   0     0   0   0     0   0   0     0   0   0   170 171 173   170 171 173   170 172 171   169 171 170   166 168 167     0   0   0     0   0   0     0   0   0     0   0   0     0   0   0     0   0   0     0   0   0     0   0   0     0   0   0     0   0   0     0   0   0     0   0   0     0   0   0     0   0   0     0   0   0     0   0   0     0   0   0     0   0   0     0   0   0     0   0   0     0   0   0     0   0   0     0   0   0     0   0   0   165 165 167   163 164 166   164 164 167   165 166 168   166 167 169   167 168 170   168 169 171   169 170 172   170 171 173   172 173 175   169 170 172   167 168 170   169 170 172   171 172 174   173 174 176   178 179 181   181 182 184   182 182 182     0   0   0     0   0   0     0   0   0     0   0   0     0   0   0     0   0   0     0   0   0     0   0   0     0   0   0  
   0   0   0     0   0   0     0   0   0     0   0   0     0   0   0     0   0   0     0   0   0     0   0   0     0   0   0   170 171 173   169 170 172   170 171 173   170 171 173     0   0   0     0   0   0     0   0   0     0   0   0     0   0   0     0   0   0     0   0   0     0   0   0     0   0   0     0   0   0     0   0   0     0   0   0     0   0   0     0   0   0     0   0   0     0   0   0     0   0   0     0   0   0     0   0   0     0   0   0     0   0   0     0   0   0     0   0   0     0   0   0     0   0   0     0   0   0     0   0   0   164 164 167   164 165 167   165 166 168   167 168 170   168 169 171   170 171 173   171 172 174   171 172 174   173 174 176   170 171 173   169 170 172   169 170 172   165 166 168   166 167 169   176 177 179   189 190 192     0   0   0     0   0   0     0   0   0     0   0   0     0   0   0     0   0   0     0   0   0     0   0   0     0   0   0     0   0   0  
   0   0   0     0   0   0     0   0   0     0   0   0     0   0   0     0   0   0     0   0   0     0   0   0   175 176 178   173 174 177   171 172 174   171 171 174     0   0   0     0   0   0     0   0   0     0   0   0     0   0   0     0   0   0     0   0   0     0   0   0     0   0   0     0   0   0     0   0   0     0   0   0     0   0   0     0   0   0     0   0   0     0   0   0     0   0   0     0   0   0     0   0   0     0   0   0     0   0   0     0   0   0     0   0   0     0   0   0     0   0   0     0   0   0     0   0   0     0   0   0     0   0   0   162 163 165   164 165 167   165 167 169   168 169 171   170 171 173   171 172 174   172 173 175   171 172 174   168 169 171   167 168 170   166 167 169   160 161 163   159 160 162   170 171 173   185 186 188     0   0   0     0   0   0     0   0   0     0   0   0     0   0   0     0   0   0     0   0   0     0   0   0     0   0   0     0   0   0  
   0   0   0     0   0   0     0   0   0     0   0   0     0   0   0     0   0   0     0   0   0   192 193 194   182 183 185   179 180 184     0   0   0     0   0   0     0   0   0     0   0   0     0   0   0     0   0   0     0   0   0     0   0   0     0   0   0     0   0   0     0   0   0     0   0   0     0   0   0     0   0   0     0   0   0     0   0   0     0   0   0     0   0   0     0   0   0     0   0   0     0   0   0     0   0   0     0   0   0     0   0   0     0   0   0     0   0   0     0   0   0     0   0   0     0   0   0     0   0   0     0   0   0   163 164 166   164 165 167   165 166 168   166 167 169   166 167 169   167 168 170   167 168 170   168 169 171   163 164 166   161 162 164   163 164 166   159 160 162   155 156 158   162 163 165     0   0   0     0   0   0     0   0   0     0   0   0     0   0   0     0   0   0     0   0   0     0   0   0     0   0   0     0   0   0     0   0   0  
   0   0   0     0   0   0     0   0   0     0   0   0     0   0   0     0   0   0   208 209 209   203 203 203   189 190 193     0   0   0     0   0   0     0   0   0     0   0   0     0   0   0     0   0   0     0   0   0     0   0   0     0   0   0     0   0   0     0   0   0     0   0   0     0   0   0     0   0   0     0   0   0     0   0   0     0   0   0     0   0   0     0   0   0     0   0   0     0   0   0     0   0   0     0   0   0     0   0   0     0   0   0     0   0   0     0   0   0     0   0   0     0   0   0     0   0   0     0   0   0     0   0   0     0   0   0   162 163 166   162 163 166   164 165 167   165 165 168   165 165 168   165 165 168   163 164 166   163 164 166   163 164 167   161 162 164   155 156 158   154 155 157   160 161 163     0   0   0     0   0   0     0   0   0     0   0   0     0   0   0     0   0   0     0   0   0     0   0   0     0   0   0     0   0   0     0   0   0  
   0   0   0     0   0   0     0   0   0     0   0   0     0   0   0   197 199 198   197 197 197   193 193 193     0   0   0     0   0   0     0   0   0     0   0   0     0   0   0     0   0   0     0   0   0     0   0   0     0   0   0     0   0   0     0   0   0     0   0   0     0   0   0     0   0   0     0   0   0     0   0   0     0   0   0     0   0   0     0   0   0     0   0   0     0   0   0     0   0   0     0   0   0     0   0   0     0   0   0     0   0   0     0   0   0     0   0   0     0   0   0     0   0   0     0   0   0     0   0   0     0   0   0     0   0   0     0   0   0   162 163 165   164 165 167   165 166 168   164 165 167   164 165 167   163 164 166   165 166 168   166 167 169   163 164 166   158 159 161   158 159 161     0   0   0     0   0   0     0   0   0     0   0   0     0   0   0     0   0   0     0   0   0     0   0   0     0   0   0     0   0   0     0   0   0     0   0   0  
   0   0   0     0   0   0     0   0   0     0   0   0   173 173 171   179 179 177   183 183 181     0   0   0     0   0   0     0   0   0     0   0   0     0   0   0     0   0   0     0   0   0     0   0   0     0   0   0     0   0   0     0   0   0     0   0   0     0   0   0     0   0   0     0   0   0     0   0   0     0   0   0     0   0   0     0   0   0     0   0   0     0   0   0     0   0   0     0   0   0     0   0   0     0   0   0     0   0   0     0   0   0     0   0   0     0   0   0     0   0   0     0   0   0     0   0   0     0   0   0     0   0   0     0   0   0     0   0   0     0   0   0   163 164 166   164 165 167   164 165 167   163 164 166   163 164 166   164 165 167   165 166 168   164 165 167   164 165 167   165 166 168     0   0   0     0   0   0     0   0   0     0   0   0     0   0   0     0   0   0     0   0   0     0   0   0     0   0   0     0   0   0     0   0   0     0   0   0  
   0   0   0     0   0   0     0   0   0   168 168 166   169 169 167   172 172 170     0   0   0     0   0   0     0   0   0     0   0   0     0   0   0     0   0   0     0   0   0     0   0   0     0   0   0     0   0   0     0   0   0     0   0   0     0   0   0     0   0   0     0   0   0     0   0   0     0   0   0     0   0   0     0   0   0     0   0   0     0   0   0     0   0   0     0   0   0     0   0   0     0   0   0     0   0   0     0   0   0     0   0   0     0   0   0     0   0   0     0   0   0     0   0   0     0   0   0     0   0   0     0   0   0     0   0   0     0   0   0     0   0   0     0   0   0   163 164 166   163 164 166   162 163 165   162 163 165   162 163 165   163 165 166   166 167 169   169 170 172     0   0   0     0   0   0     0   0   0     0   0   0     0   0   0     0   0   0     0   0   0     0   0   0     0   0   0     0   0   0     0   0   0     0   0   0     0   0   0  
   0   0   0   168 170 169   171 171 169   171 171 169     0   0   0     0   0   0     0   0   0     0   0   0     0   0   0     0   0   0     0   0   0     0   0   0     0   0   0     0   0   0     0   0   0     0   0   0     0   0   0     0   0   0     0   0   0     0   0   0     0   0   0     0   0   0     0   0   0     0   0   0     0   0   0     0   0   0     0   0   0     0   0   0     0   0   0     0   0   0     0   0   0     0   0   0     0   0   0     0   0   0     0   0   0     0   0   0     0   0   0     0   0   0     0   0   0     0   0   0     0   0   0     0   0   0     0   0   0     0   0   0     0   0   0     0   0   0   163 164 166   162 163 165   164 165 167   165 166 168   167 168 170     0   0   0     0   0   0     0   0   0     0   0   0     0   0   0     0   0   0     0   0   0     0   0   0     0   0   0     0   0   0     0   0   0     0   0   0     0   0   0     0   0   0     0   0   0  
 166 167 167   169 170 170   172 172 170     0   0   0     0   0   0     0   0   0     0   0   0     0   0   0     0   0   0     0   0   0     0   0   0     0   0   0     0   0   0     0   0   0     0   0   0     0   0   0     0   0   0     0   0   0     0   0   0     0   0   0     0   0   0     0   0   0     0   0   0     0   0   0     0   0   0     0   0   0     0   0   0     0   0   0     0   0   0     0   0   0     0   0   0     0   0   0     0   0   0     0   0   0     0   0   0     0   0   0     0   0   0     0   0   0     0   0   0     0   0   0     0   0   0     0   0   0     0   0   0     0   0   0     0   0   0     0   0   0     0   0   0   163 164 165   164 165 167   166 167 169     0   0   0     0   0   0     0   0   0     0   0   0     0   0   0     0   0   0     0   0   0     0   0   0     0   0   0     0   0   0     0   0   0     0   0   0     0   0   0     0   0   0     0   0   0     0   0   0  
 167 167 167   168 168 168     0   0   0     0   0   0     0   0   0     0   0   0     0   0   0     0   0   0     0   0   0     0   0   0     0   0   0     0   0   0     0   0   0     0   0   0     0   0   0     0   0   0     0   0   0     0   0   0     0   0   0     0   0   0     0   0   0     0   0   0     0   0   0     0   0   0     0   0   0     0   0   0     0   0   0     0   0   0     0   0   0     0   0   0     0   0   0     0   0   0     0   0   0     0   0   0     0   0   0     0   0   0     0   0   0     0   0   0     0   0   0     0   0   0     0   0   0     0   0   0     0   0   0     0   0   0     0   0   0     0   0   0     0   0   0     0   0   0   161 162 166   164 165 167     0   0   0     0   0   0     0   0   0     0   0   0     0   0   0     0   0   0     0   0   0     0   0   0     0   0   0     0   0   0     0   0   0     0   0   0     0   0   0     0   0   0     0   0   0     0   0   0  
