P3
50 50
255
 144 145 139   147 148 142     0   0   0     0   0   0     0   0   0     0   0   0     0   0   0     0   0   0     0   0   0     0   0   0     0   0   0     0   0   0     0   0   0     0   0   0     0   0   0     0   0   0     0   0   0     0   0   0     0   0   0     0   0   0     0   0   0     0   0   0     0   0   0     0   0   0     0   0   0     0   0   0     0   0   0     0   0   0     0   0   0     0   0   0     0   0   0     0   0   0     0   0   0     0   0   0     0   0   0     0   0   0     0   0   0     0   0   0     0   0   0     0   0   0     0   0   0     0   0   0     0   0   0     0   0   0     0   0   0     0   0   0     0   0   0     0   0   0   160 160 151   160 160 150  
 145 146 140   148 149 143   149 150 144   148 149 143     0   0   0     0   0   0     0   0   0     0   0   0     0   0   0     0   0   0     0   0   0     0   0   0     0   0   0     0   0   0     0   0   0     0   0   0     0   0   0     0   0   0     0   0   0     0   0   0     0   0   0     0   0   0     0   0   0     0   0   0     0   0   0     0   0   0     0   0   0     0   0   0     0   0   0     0   0   0     0   0   0     0   0   0     0   0   0     0   0   0     0   0   0     0   0   0     0   0   0     0   0   0     0   0   0     0   0   0     0   0   0     0   0   0     0   0   0     0   0   0     0   0   0     0   0   0     0   0   0   163 163 155   162 162 152   162 162 152  
 146 147 141   149 150 144   150 151 145   150 150 145   150 151 145   150 151 145   151 152 146     0   0   0     0   0   0     0   0   0     0   0   0     0   0   0     0   0   0     0   0   0     0   0   0     0   0   0     0   0   0     0   0   0     0   0   0     0   0   0     0   0   0     0   0   0     0   0   0   161 162 157   160 162 157     0   0   0     0   0   0     0   0   0     0   0   0     0   0   0     0   0   0     0   0   0     0   0   0     0   0   0     0   0   0     0   0   0     0   0   0     0   0   0     0   0   0     0   0   0     0   0   0     0   0   0     0   0   0     0   0   0     0   0   0     0   0   0     0   0   0   165 165 157   164 164 156     0   0   0  
   0   0   0     0   0   0   151 152 146   151 152 146   152 153 147   152 153 147   153 154 148   154 155 149   155 155 150     0   0   0     0   0   0     0   0   0     0   0   0     0   0   0     0   0   0     0   0   0     0   0   0     0   0   0     0   0   0   163 162 157   162 161 156   162 161 156   162 161 156   164 164 159   162 164 159   161 163 158     0   0   0     0   0   0     0   0   0     0   0   0     0   0   0     0   0   0     0   0   0     0   0   0     0   0   0     0   0   0     0   0   0     0   0   0     0   0   0     0   0   0     0   0   0     0   0   0     0   0   0     0   0   0     0   0   0     0   0   0   166 166 158     0   0   0     0   0   0     0   0   0  
   0   0   0     0   0   0   153 154 148   154 155 149   155 156 150   154 155 149   153 154 148   156 157 151   158 159 153   161 162 156   161 160 155   160 159 154     0   0   0     0   0   0     0   0   0   165 164 159   165 164 158   163 163 155   165 165 157   166 166 158   166 166 158   167 167 159   169 169 162   167 168 163   166 168 163   166 168 163   166 168 163     0   0   0     0   0   0     0   0   0     0   0   0     0   0   0     0   0   0     0   0   0     0   0   0     0   0   0     0   0   0     0   0   0     0   0   0     0   0   0     0   0   0     0   0   0     0   0   0     0   0   0     0   0   0   172 171 166     0   0   0     0   0   0     0   0   0     0   0   0  
   0   0   0     0   0   0     0   0   0   155 156 150   156 157 151   155 156 150   155 156 150   157 158 152   159 160 154   162 163 157   161 160 155   161 160 155   162 161 156   163 162 157   164 163 158   166 165 160   166 165 159   164 164 156   166 166 158   167 167 159   167 167 159   168 168 160   170 170 162   169 170 163   167 169 164   167 169 164   167 169 164   167 169 164     0   0   0     0   0   0     0   0   0     0   0   0     0   0   0     0   0   0     0   0   0     0   0   0     0   0   0     0   0   0     0   0   0     0   0   0     0   0   0     0   0   0     0   0   0     0   0   0   174 173 168     0   0   0     0   0   0     0   0   0     0   0   0     0   0   0  
   0   0   0     0   0   0     0   0   0   156 157 151   157 158 152   156 157 151   156 157 151   158 159 153   160 161 155   163 164 158   162 161 157   162 161 157   163 162 157   164 163 158   166 165 160   167 166 161   167 166 160   166 166 158   168 168 160   169 169 161   168 168 160   169 169 160   171 171 162   170 171 162   169 170 162   169 170 162   169 170 162   169 170 162   169 170 162     0   0   0     0   0   0     0   0   0     0   0   0     0   0   0     0   0   0     0   0   0     0   0   0     0   0   0     0   0   0     0   0   0     0   0   0     0   0   0     0   0   0   175 175 169     0   0   0     0   0   0     0   0   0     0   0   0     0   0   0     0   0   0  
   0   0   0     0   0   0     0   0   0   157 158 152   158 159 153   157 158 152   158 159 153   160 161 155   161 162 156   163 164 158   163 162 158   163 162 158   164 163 158   165 164 159   166 165 160   167 166 161   167 167 161   167 167 159   169 169 160   170 170 162   169 169 161   170 170 161   172 172 162   171 171 163   171 171 163   171 171 163   171 171 163   171 171 163   171 171 163   171 171 163     0   0   0     0   0   0     0   0   0     0   0   0     0   0   0     0   0   0     0   0   0     0   0   0     0   0   0     0   0   0     0   0   0     0   0   0   177 177 169     0   0   0     0   0   0     0   0   0     0   0   0     0   0   0     0   0   0     0   0   0  
   0   0   0     0   0   0     0   0   0     0   0   0   157 158 152   157 158 152   158 159 153   160 161 155   161 162 156   162 163 157   162 161 157   162 161 157   164 163 159   165 164 159   166 165 160   167 166 161   167 166 160   168 168 160   169 169 160   169 169 161   169 169 159   169 169 159   171 171 161   171 171 161   171 171 161   171 171 161   171 171 161   171 171 161   171 171 161   171 171 161     0   0   0     0   0   0     0   0   0     0   0   0     0   0   0     0   0   0     0   0   0     0   0   0     0   0   0     0   0   0     0   0   0   175 175 166     0   0   0     0   0   0     0   0   0     0   0   0     0   0   0     0   0   0     0   0   0     0   0   0  
   0   0   0     0   0   0     0   0   0     0   0   0   156 157 151   156 157 151   157 158 152   159 160 154   160 160 155   161 162 156   160 159 155   161 160 156   163 162 158   164 163 158   165 164 159   165 164 159   165 165 159   167 167 159   168 168 160   168 168 160   167 167 157   167 167 157   169 169 159   171 169 160   172 169 160   172 169 160   172 169 160   172 169 160   172 169 160   172 169 160   172 169 160     0   0   0     0   0   0     0   0   0     0   0   0     0   0   0     0   0   0     0   0   0     0   0   0     0   0   0   174 174 166     0   0   0     0   0   0     0   0   0     0   0   0     0   0   0     0   0   0     0   0   0     0   0   0     0   0   0  
   0   0   0     0   0   0     0   0   0     0   0   0     0   0   0   154 155 149   155 156 150   157 158 152   158 159 153   158 159 153   157 156 152   158 157 153   161 160 156   162 160 157   163 162 158   163 162 157   162 162 156   165 165 157   166 166 157   166 166 156   165 165 155   165 165 155   167 167 157   170 168 157   172 168 157   172 168 157   172 168 157   172 168 157   172 168 157   172 168 157   172 168 157   172 168 157     0   0   0     0   0   0     0   0   0     0   0   0     0   0   0     0   0   0     0   0   0   174 174 164     0   0   0     0   0   0     0   0   0     0   0   0     0   0   0     0   0   0     0   0   0     0   0   0     0   0   0     0   0   0  
   0   0   0     0   0   0     0   0   0     0   0   0     0   0   0   153 154 146   154 155 147   156 157 149   157 158 150   158 158 150   156 155 150   157 156 151   159 158 153   160 160 155   161 160 155   161 161 153   161 161 153   164 164 155   165 165 155   165 165 155   164 164 154   164 164 154   167 165 156   170 166 156   171 167 156   171 167 156   171 167 156   171 167 156   171 167 156   171 167 156   172 168 157   172 168 157   172 168 157     0   0   0     0   0   0     0   0   0     0   0   0     0   0   0   174 171 162     0   0   0     0   0   0     0   0   0     0   0   0     0   0   0     0   0   0     0   0   0     0   0   0     0   0   0     0   0   0     0   0   0  
   0   0   0     0   0   0     0   0   0     0   0   0     0   0   0   153 154 140   154 155 141   155 156 142   154 155 141   154 154 142   157 157 147   159 156 147   160 157 148   160 158 149   162 159 150   162 159 150   162 159 150   164 161 151   165 163 150   166 164 152   167 165 153   167 165 153   166 164 152   169 165 153   168 164 152   167 163 151   170 166 154   174 170 158   172 168 156   168 164 152   169 165 153   170 166 154   172 168 156   172 168 156     0   0   0     0   0   0     0   0   0   172 169 156     0   0   0     0   0   0     0   0   0     0   0   0     0   0   0     0   0   0     0   0   0     0   0   0     0   0   0     0   0   0     0   0   0     0   0   0  
   0   0   0     0   0   0     0   0   0     0   0   0     0   0   0     0   0   0   153 154 138   154 155 139   154 155 139   154 155 141   158 156 144   158 156 144   160 158 146   160 158 146   161 159 147   161 159 147   162 160 148   163 161 149   164 162 150   166 164 152   166 164 152   166 164 152   166 164 152   168 165 153   167 163 151   167 163 151   170 166 154   172 168 156   171 166 155   167 163 151   169 165 153   170 166 154   171 167 155   172 168 155   172 168 156     0   0   0   170 167 155     0   0   0     0   0   0     0   0   0     0   0   0     0   0   0     0   0   0     0   0   0     0   0   0     0   0   0     0   0   0     0   0   0     0   0   0     0   0   0  
   0   0   0     0   0   0     0   0   0     0   0   0     0   0   0     0   0   0   151 152 138   153 154 138   154 155 139   154 155 139   157 155 142   157 155 143   158 156 144   159 157 145   160 158 146   160 158 146   161 158 146   162 160 148   163 161 149   165 163 151   166 164 152   166 164 152   166 164 152   167 164 152   166 162 150   166 162 150   168 165 152   171 167 155   170 166 153   166 162 150   169 165 153   169 165 153   171 167 155   171 167 155   171 167 155   171 167 155     0   0   0     0   0   0     0   0   0     0   0   0     0   0   0     0   0   0     0   0   0     0   0   0     0   0   0     0   0   0     0   0   0     0   0   0     0   0   0     0   0   0  
   0   0   0     0   0   0     0   0   0     0   0   0     0   0   0     0   0   0   150 151 136   152 153 137   153 154 138   154 155 141   155 153 141   156 154 142   157 155 143   157 155 143   158 156 144   159 157 145   159 157 145   161 159 147   162 160 148   164 162 150   165 163 151   165 163 151   165 163 151   165 162 150   165 161 149   165 161 149   167 163 151   169 165 153   167 163 151   166 162 150   169 165 153   169 165 153   170 166 154   170 166 154   170 166 154   170 166 154     0   0   0     0   0   0     0   0   0     0   0   0     0   0   0     0   0   0     0   0   0     0   0   0     0   0   0     0   0   0     0   0   0     0   0   0     0   0   0     0   0   0  
   0   0   0     0   0   0     0   0   0     0   0   0     0   0   0     0   0   0   148 149 135   150 151 137   152 153 139   153 154 140   154 152 140   155 153 141   156 154 142   156 154 142   157 155 143   158 156 144   158 156 144   160 158 146   161 159 147   163 161 149   164 162 150   165 163 151   165 163 151   165 161 150   165 161 149   166 162 150   167 163 151   168 164 152   167 163 151   166 162 150   169 165 153   169 165 153   169 165 153   169 165 153   170 166 154   170 166 154     0   0   0     0   0   0     0   0   0     0   0   0     0   0   0     0   0   0     0   0   0     0   0   0     0   0   0     0   0   0     0   0   0     0   0   0     0   0   0     0   0   0  
   0   0   0     0   0   0     0   0   0     0   0   0     0   0   0     0   0   0     0   0   0   149 150 136   150 152 138   152 153 139   154 152 140   154 152 140   155 153 141   155 154 142   156 154 142   157 155 143   157 155 143   159 157 145   160 158 146   162 160 148   164 162 150   164 162 150   164 162 150   165 161 149   166 162 150   167 163 151   168 164 152   168 164 152   167 163 151   167 163 151   168 164 152   168 164 152   168 164 152   168 164 152   169 165 153   170 166 154     0   0   0     0   0   0     0   0   0     0   0   0     0   0   0     0   0   0     0   0   0     0   0   0     0   0   0     0   0   0     0   0   0     0   0   0     0   0   0     0   0   0  
   0   0   0     0   0   0     0   0   0     0   0   0     0   0   0     0   0   0     0   0   0   148 148 136   150 150 138   151 151 139   153 151 139   154 152 140   155 153 141   155 154 142   156 154 142   157 155 143   157 155 143   158 156 144   159 157 145   162 160 148   163 161 149   164 162 150   164 162 150   165 162 150   167 163 152   168 164 153   169 165 154   169 165 154   168 164 153   168 164 153   168 164 153   168 164 153   167 163 152   168 164 153   168 164 153   169 165 154     0   0   0     0   0   0     0   0   0     0   0   0     0   0   0     0   0   0     0   0   0     0   0   0     0   0   0     0   0   0     0   0   0     0   0   0     0   0   0     0   0   0  
   0   0   0     0   0   0     0   0   0     0   0   0     0   0   0     0   0   0     0   0   0   148 148 136   149 149 137   150 150 138   153 151 139   154 152 140   155 153 141   155 153 141   156 154 142   157 155 143   157 155 143   157 155 143   159 157 145   161 159 147   163 161 149   164 162 150   164 162 150   165 162 150   168 164 153   169 165 154   170 165 155   169 165 154   169 165 154   169 165 154   168 164 153   168 164 153   167 163 152   167 163 152   168 164 153   169 165 154     0   0   0     0   0   0     0   0   0     0   0   0     0   0   0     0   0   0     0   0   0     0   0   0     0   0   0     0   0   0     0   0   0     0   0   0     0   0   0     0   0   0  
   0   0   0     0   0   0     0   0   0     0   0   0     0   0   0     0   0   0     0   0   0   148 148 138   149 149 139   152 152 142   154 152 140   153 151 139   154 152 140   157 155 143   159 157 145   158 156 144   156 154 142   157 155 143   159 157 145   161 159 147   161 159 147   162 161 148   165 163 151   166 162 151   167 163 152   167 163 152   167 163 152   168 164 153   168 164 153   168 164 153   168 164 153   167 163 152   167 163 152   168 164 153   169 165 154   171 167 156   171 167 156     0   0   0     0   0   0     0   0   0     0   0   0     0   0   0     0   0   0     0   0   0     0   0   0     0   0   0     0   0   0     0   0   0     0   0   0     0   0   0  
   0   0   0     0   0   0     0   0   0     0   0   0     0   0   0     0   0   0     0   0   0   148 148 138   149 149 139   152 152 142   154 152 140   153 151 139   155 153 141   157 155 143   159 157 145   158 156 144   156 154 142   158 156 144   159 157 145   161 159 147   161 159 147   162 161 148   165 163 151   167 163 152   167 163 152   167 163 152   167 163 152   168 164 153   168 164 153   168 164 153   168 164 153   167 163 152   167 163 152   168 164 153   169 165 154   171 167 156   170 166 155     0   0   0     0   0   0     0   0   0     0   0   0     0   0   0     0   0   0     0   0   0     0   0   0     0   0   0     0   0   0     0   0   0     0   0   0     0   0   0  
   0   0   0     0   0   0     0   0   0     0   0   0     0   0   0     0   0   0     0   0   0   147 147 139   148 148 140   151 151 143   154 151 142   153 151 139   155 153 141   157 155 143   159 157 145   158 156 144   157 155 143   159 157 145   160 158 146   162 160 148   162 160 148   163 161 149   165 163 151   167 163 153   167 163 154   167 163 154   167 163 154   168 164 155   168 164 155   168 164 155   168 164 155   167 163 154   167 163 154   168 164 155   169 165 156   170 166 157   170 166 157     0   0   0     0   0   0     0   0   0     0   0   0     0   0   0     0   0   0     0   0   0     0   0   0     0   0   0     0   0   0     0   0   0     0   0   0     0   0   0  
   0   0   0     0   0   0     0   0   0     0   0   0     0   0   0     0   0   0     0   0   0     0   0   0   148 148 142   151 151 143   154 151 142   154 152 140   156 154 142   157 155 143   158 156 144   159 157 145   158 156 144   160 158 146   161 159 147   162 160 148   162 160 148   163 161 149   165 163 151   167 163 153   167 163 154   167 163 154   168 164 155   168 164 155   169 165 155   169 165 156   168 164 155   168 164 155   168 164 155   169 165 155   169 165 156   170 166 157   169 165 156     0   0   0     0   0   0     0   0   0     0   0   0     0   0   0     0   0   0     0   0   0     0   0   0     0   0   0     0   0   0     0   0   0     0   0   0     0   0   0  
   0   0   0     0   0   0     0   0   0     0   0   0     0   0   0     0   0   0     0   0   0     0   0   0   149 148 143   152 152 144   154 151 142   155 153 141   156 154 142   157 155 143   158 156 144   159 157 145   160 158 146   161 159 147   162 160 148   163 161 149   163 161 149   163 161 150   166 164 152   167 163 153   167 163 154   168 164 155   168 164 155   169 165 156   169 165 156   169 165 156   168 164 155   168 164 155   169 165 156   169 165 156   170 166 157   170 166 157   170 165 157     0   0   0     0   0   0     0   0   0     0   0   0     0   0   0     0   0   0     0   0   0     0   0   0     0   0   0     0   0   0     0   0   0     0   0   0     0   0   0  
   0   0   0     0   0   0     0   0   0     0   0   0     0   0   0     0   0   0     0   0   0     0   0   0   149 148 143   152 152 144   154 151 142   155 153 141   156 154 142   156 154 142   157 155 143   159 157 145   161 159 147   162 160 148   163 160 149   163 161 149   163 161 149   163 161 150   166 164 152   167 164 154   168 164 155   168 164 155   168 164 155   169 165 156   169 165 156   169 165 156   169 165 156   170 166 157   171 167 158   171 167 158   170 166 157   170 166 157   170 166 157     0   0   0     0   0   0     0   0   0     0   0   0     0   0   0     0   0   0     0   0   0     0   0   0     0   0   0     0   0   0     0   0   0     0   0   0     0   0   0  
   0   0   0     0   0   0     0   0   0     0   0   0     0   0   0     0   0   0     0   0   0     0   0   0   150 149 145   153 152 147   154 151 142   156 154 142   157 155 143   156 154 142   157 155 143   159 157 145   162 160 148   162 160 148   164 162 150   164 162 150   163 161 149   164 162 150   166 164 152   167 164 154   168 164 155   168 164 155   168 164 155   169 165 156   169 165 156   169 165 156   170 166 157   171 167 158   172 168 159   172 168 159   171 167 158   170 166 157   170 166 157     0   0   0     0   0   0     0   0   0     0   0   0     0   0   0     0   0   0     0   0   0     0   0   0     0   0   0     0   0   0     0   0   0     0   0   0     0   0   0  
   0   0   0     0   0   0     0   0   0     0   0   0     0   0   0     0   0   0     0   0   0     0   0   0   151 150 145   153 153 145   154 151 142   156 154 142   157 155 143   156 154 142   156 154 142   160 158 146   162 160 148   163 161 149   164 162 150   164 162 150   164 162 150   164 162 150   166 164 152   167 164 154   168 164 155   168 164 155   169 165 156   169 165 156   169 165 156   170 166 157   171 167 158   171 167 158   173 169 160   173 169 160   172 168 159   171 167 158   170 166 157     0   0   0     0   0   0     0   0   0     0   0   0     0   0   0     0   0   0     0   0   0     0   0   0     0   0   0     0   0   0     0   0   0     0   0   0     0   0   0  
   0   0   0     0   0   0     0   0   0     0   0   0     0   0   0     0   0   0     0   0   0   154 152 140   155 153 140   156 154 142   154 152 139   156 154 141   157 155 142   157 155 142   159 158 144   161 159 147   159 157 145   161 159 147   162 160 150   165 162 153   166 163 154   167 164 155   167 164 155   167 164 155   167 164 155   168 165 156   168 165 156   170 167 158   170 167 158   171 168 159   172 169 160   173 170 161   174 171 162   172 169 160   171 168 159   172 169 160   173 170 161     0   0   0     0   0   0     0   0   0     0   0   0     0   0   0     0   0   0     0   0   0     0   0   0     0   0   0     0   0   0     0   0   0     0   0   0     0   0   0  
   0   0   0     0   0   0     0   0   0     0   0   0     0   0   0     0   0   0     0   0   0   155 153 140   155 153 140   156 154 141   156 154 141   158 156 143   158 156 143   159 157 144   161 159 146   162 160 148   160 159 147   161 159 147   162 160 150   165 162 153   167 164 155   167 164 155   168 165 156   169 165 157   169 166 157   170 167 158   170 167 158   172 169 160   172 169 160   172 169 160   173 170 161   174 171 162   175 172 163   173 170 161   172 169 160   173 170 161   174 171 162     0   0   0     0   0   0     0   0   0     0   0   0     0   0   0     0   0   0     0   0   0     0   0   0     0   0   0     0   0   0     0   0   0     0   0   0     0   0   0  
   0   0   0     0   0   0     0   0   0     0   0   0     0   0   0     0   0   0     0   0   0   156 154 141   156 154 141   157 155 142   157 155 142   160 158 145   160 158 145   160 158 145   163 161 148   164 162 150   163 160 149   163 161 149   164 162 152   167 164 155   168 165 156   168 165 156   169 166 157   170 167 158   172 169 160   172 169 160   173 170 161   174 171 162   175 172 163   175 172 163   174 171 162   175 172 163   176 173 164   175 172 163   174 171 162   175 172 163   176 173 164     0   0   0     0   0   0     0   0   0     0   0   0     0   0   0     0   0   0     0   0   0     0   0   0     0   0   0     0   0   0     0   0   0     0   0   0     0   0   0  
   0   0   0     0   0   0     0   0   0     0   0   0     0   0   0     0   0   0     0   0   0   158 156 143   158 156 143   158 156 143   159 157 144   161 159 146   161 159 146   162 160 147   164 162 149   165 163 151   164 162 150   165 163 151   166 164 154   169 166 157   170 167 158   170 167 158   170 167 158   172 169 160   173 170 161   174 171 162   174 171 162   176 173 164   176 173 164   176 173 164   176 173 164   177 174 165   178 175 166   177 174 165   176 173 164   177 174 165   178 175 166     0   0   0     0   0   0     0   0   0     0   0   0     0   0   0     0   0   0     0   0   0     0   0   0     0   0   0     0   0   0     0   0   0     0   0   0     0   0   0  
   0   0   0     0   0   0     0   0   0     0   0   0     0   0   0     0   0   0     0   0   0   160 158 145   160 158 145   160 158 145   160 158 145   162 160 147   163 161 148   163 160 148   165 163 150   166 164 152   166 163 151   168 166 154   169 167 157   171 168 159   172 169 160   172 169 160   172 169 160   173 170 161   174 171 162   175 172 163   175 172 163   177 174 165   177 174 165   177 174 165   177 174 165   179 176 167   180 177 168   179 176 167   179 176 167   180 177 168   180 177 168     0   0   0     0   0   0     0   0   0     0   0   0     0   0   0     0   0   0     0   0   0     0   0   0     0   0   0     0   0   0     0   0   0     0   0   0     0   0   0  
   0   0   0     0   0   0     0   0   0     0   0   0     0   0   0     0   0   0     0   0   0   163 161 148   162 160 147   162 160 147   162 160 147   164 162 149   164 162 149   165 163 150   167 165 152   168 166 154   168 166 154   171 169 157   172 170 160   174 171 162   175 172 163   175 172 163   174 171 162   175 172 163   176 173 164   176 173 164   177 174 165   178 175 166   179 175 167   179 176 167   179 176 167   181 177 168   182 179 170   181 178 169   181 178 169   183 180 171   182 179 170     0   0   0     0   0   0     0   0   0     0   0   0     0   0   0     0   0   0     0   0   0     0   0   0     0   0   0     0   0   0     0   0   0     0   0   0     0   0   0  
   0   0   0     0   0   0     0   0   0     0   0   0     0   0   0     0   0   0   165 163 150   165 163 150   164 162 149   164 162 149   165 163 150   167 165 152   167 165 152   168 165 153   170 168 155   171 169 157   171 169 157   174 172 160   175 172 162   176 173 164   177 174 165   177 174 165   176 173 164   177 174 165   178 175 166   179 176 167   179 176 167   181 178 169   181 178 169   181 178 169   180 177 168   182 179 170   183 180 171   183 180 171   183 180 171   184 181 172   184 181 172     0   0   0     0   0   0     0   0   0     0   0   0     0   0   0     0   0   0     0   0   0     0   0   0     0   0   0     0   0   0     0   0   0     0   0   0     0   0   0  
   0   0   0     0   0   0     0   0   0     0   0   0     0   0   0     0   0   0   167 165 152   167 165 152   165 163 150   165 163 150   167 165 152   169 167 154   170 168 155   170 168 155   173 171 158   173 171 159   173 171 159   175 173 161   176 174 164   178 175 166   178 175 166   178 175 166   178 175 166   179 176 167   180 177 168   181 178 169   181 178 169   183 180 171   183 180 171   183 180 171   181 178 169   182 180 171   184 181 172   184 181 172   184 181 172   185 182 173   186 183 174     0   0   0     0   0   0     0   0   0     0   0   0     0   0   0     0   0   0     0   0   0     0   0   0     0   0   0     0   0   0     0   0   0     0   0   0     0   0   0  
   0   0   0     0   0   0     0   0   0     0   0   0     0   0   0     0   0   0   167 165 152   169 167 154   169 167 154   168 166 153   168 166 153   170 168 155   171 169 156   170 169 155   174 172 159   175 173 161   175 172 161   176 174 162   175 173 163   179 176 167   181 178 169   180 177 168   179 176 167   180 177 168   182 179 170   184 181 172   185 182 173   185 182 173   185 182 173   184 181 172   183 180 171   182 179 170   183 180 171   184 181 172   187 184 175   186 183 174   185 182 173     0   0   0     0   0   0     0   0   0     0   0   0     0   0   0     0   0   0     0   0   0     0   0   0     0   0   0     0   0   0     0   0   0     0   0   0     0   0   0  
   0   0   0     0   0   0     0   0   0     0   0   0     0   0   0   169 167 154   170 168 155   172 170 157   171 169 156   170 168 155   171 169 156   173 171 158   174 172 159     0   0   0     0   0   0     0   0   0   177 175 163   179 177 165   178 175 165   181 178 169   182 179 170   181 178 169   182 179 170   183 180 170   184 181 172   185 182 173   186 183 174   186 183 174   185 182 173   184 181 172   185 182 173   184 181 172   185 182 173   186 183 174   188 185 176   188 185 176   186 183 174   185 182 173     0   0   0     0   0   0     0   0   0     0   0   0     0   0   0     0   0   0     0   0   0     0   0   0     0   0   0     0   0   0     0   0   0     0   0   0  
   0   0   0     0   0   0     0   0   0     0   0   0     0   0   0   173 171 158   173 171 158   176 174 161   175 173 160   174 172 159   175 173 160   177 175 162     0   0   0     0   0   0     0   0   0     0   0   0     0   0   0     0   0   0     0   0   0     0   0   0     0   0   0     0   0   0   186 183 174   186 183 174   187 184 175   187 184 175   187 184 175   187 184 175   186 183 174   185 182 173   187 184 175   186 183 174   187 184 175   188 185 175   189 186 177   189 186 177   187 184 175   187 184 175   187 184 175     0   0   0     0   0   0     0   0   0     0   0   0     0   0   0     0   0   0     0   0   0     0   0   0     0   0   0     0   0   0     0   0   0  
   0   0   0     0   0   0     0   0   0     0   0   0   176 174 161   176 174 161   176 175 161   179 177 164   178 176 163   177 175 162   179 177 164     0   0   0     0   0   0     0   0   0     0   0   0     0   0   0     0   0   0     0   0   0     0   0   0     0   0   0     0   0   0     0   0   0     0   0   0     0   0   0     0   0   0     0   0   0     0   0   0     0   0   0     0   0   0     0   0   0     0   0   0     0   0   0     0   0   0     0   0   0     0   0   0     0   0   0   188 185 176   187 184 175   187 184 175   187 184 175     0   0   0     0   0   0     0   0   0     0   0   0     0   0   0     0   0   0     0   0   0     0   0   0     0   0   0     0   0   0  
   0   0   0     0   0   0     0   0   0     0   0   0   178 176 163   178 176 163   178 176 163   181 179 166   180 178 165   179 177 164     0   0   0     0   0   0     0   0   0     0   0   0     0   0   0     0   0   0     0   0   0     0   0   0     0   0   0     0   0   0     0   0   0     0   0   0     0   0   0     0   0   0     0   0   0     0   0   0     0   0   0     0   0   0     0   0   0     0   0   0     0   0   0     0   0   0     0   0   0     0   0   0     0   0   0     0   0   0     0   0   0     0   0   0   187 184 175   187 184 175   187 184 175     0   0   0     0   0   0     0   0   0     0   0   0     0   0   0     0   0   0     0   0   0     0   0   0     0   0   0  
   0   0   0     0   0   0     0   0   0   181 179 166   181 179 166   180 178 165   181 179 166   183 181 168   182 180 167   181 179 166     0   0   0     0   0   0     0   0   0     0   0   0     0   0   0     0   0   0     0   0   0     0   0   0     0   0   0     0   0   0     0   0   0     0   0   0     0   0   0     0   0   0     0   0   0     0   0   0     0   0   0     0   0   0     0   0   0     0   0   0     0   0   0     0   0   0     0   0   0     0   0   0     0   0   0     0   0   0     0   0   0     0   0   0     0   0   0   188 185 176   188 185 176   188 185 176     0   0   0     0   0   0     0   0   0     0   0   0     0   0   0     0   0   0     0   0   0     0   0   0  
   0   0   0     0   0   0     0   0   0   184 182 169   183 181 168   183 181 168   183 181 168   186 184 171   185 183 170     0   0   0     0   0   0     0   0   0     0   0   0     0   0   0     0   0   0     0   0   0     0   0   0     0   0   0     0   0   0     0   0   0     0   0   0     0   0   0     0   0   0     0   0   0     0   0   0     0   0   0     0   0   0     0   0   0     0   0   0     0   0   0     0   0   0     0   0   0     0   0   0     0   0   0     0   0   0     0   0   0     0   0   0     0   0   0     0   0   0     0   0   0   190 187 178   191 188 179   192 189 180     0   0   0     0   0   0     0   0   0     0   0   0     0   0   0     0   0   0     0   0   0  
   0   0   0     0   0   0   187 185 172   186 184 171   185 183 170   185 183 170   186 183 171   188 186 174     0   0   0     0   0   0     0   0   0     0   0   0     0   0   0     0   0   0     0   0   0     0   0   0     0   0   0     0   0   0     0   0   0     0   0   0     0   0   0     0   0   0     0   0   0     0   0   0     0   0   0     0   0   0     0   0   0     0   0   0     0   0   0     0   0   0     0   0   0     0   0   0     0   0   0     0   0   0     0   0   0     0   0   0     0   0   0     0   0   0     0   0   0     0   0   0     0   0   0     0   0   0   194 191 182   194 191 182   193 190 181     0   0   0     0   0   0     0   0   0     0   0   0     0   0   0  
   0   0   0     0   0   0   188 189 175   188 188 175   189 189 177   191 191 179   193 193 183     0   0   0     0   0   0     0   0   0     0   0   0     0   0   0     0   0   0     0   0   0     0   0   0     0   0   0     0   0   0     0   0   0     0   0   0     0   0   0     0   0   0     0   0   0     0   0   0     0   0   0     0   0   0     0   0   0     0   0   0     0   0   0     0   0   0     0   0   0     0   0   0     0   0   0     0   0   0     0   0   0     0   0   0     0   0   0     0   0   0     0   0   0     0   0   0     0   0   0     0   0   0     0   0   0     0   0   0   192 190 178   192 190 178   191 189 177     0   0   0     0   0   0     0   0   0     0   0   0  
   0   0   0   191 192 176   191 192 178   192 192 179   192 192 180   194 194 184     0   0   0     0   0   0     0   0   0     0   0   0     0   0   0     0   0   0     0   0   0     0   0   0     0   0   0     0   0   0     0   0   0     0   0   0     0   0   0     0   0   0     0   0   0     0   0   0     0   0   0     0   0   0     0   0   0     0   0   0     0   0   0     0   0   0     0   0   0     0   0   0     0   0   0     0   0   0     0   0   0     0   0   0     0   0   0     0   0   0     0   0   0     0   0   0     0   0   0     0   0   0     0   0   0     0   0   0     0   0   0     0   0   0   194 192 180   193 191 179   193 191 179     0   0   0     0   0   0     0   0   0  
   0   0   0   198 196 181   198 196 183   198 196 184   198 196 184     0   0   0     0   0   0     0   0   0     0   0   0     0   0   0     0   0   0     0   0   0     0   0   0     0   0   0     0   0   0     0   0   0     0   0   0     0   0   0     0   0   0     0   0   0     0   0   0     0   0   0     0   0   0     0   0   0     0   0   0     0   0   0     0   0   0     0   0   0     0   0   0     0   0   0     0   0   0     0   0   0     0   0   0     0   0   0     0   0   0     0   0   0     0   0   0     0   0   0     0   0   0     0   0   0     0   0   0     0   0   0     0   0   0     0   0   0     0   0   0     0   0   0   197 195 183   198 196 183     0   0   0     0   0   0  
 201 199 184   202 200 186   203 201 188   202 200 188   201 199 187     0   0   0     0   0   0     0   0   0     0   0   0     0   0   0     0   0   0     0   0   0     0   0   0     0   0   0     0   0   0     0   0   0     0   0   0     0   0   0     0   0   0     0   0   0     0   0   0     0   0   0     0   0   0     0   0   0     0   0   0     0   0   0     0   0   0     0   0   0     0   0   0     0   0   0     0   0   0     0   0   0     0   0   0     0   0   0     0   0   0     0   0   0     0   0   0     0   0   0     0   0   0     0   0   0     0   0   0     0   0   0     0   0   0     0   0   0     0   0   0     0   0   0     0   0   0   199 197 184   200 198 185     0   0   0  
 204 202 187   205 203 188   206 204 189   205 202 189     0   0   0     0   0   0     0   0   0     0   0   0     0   0   0     0   0   0     0   0   0     0   0   0     0   0   0     0   0   0     0   0   0     0   0   0     0   0   0     0   0   0     0   0   0     0   0   0     0   0   0     0   0   0     0   0   0     0   0   0     0   0   0     0   0   0     0   0   0     0   0   0     0   0   0     0   0   0     0   0   0     0   0   0     0   0   0     0   0   0     0   0   0     0   0   0     0   0   0     0   0   0     0   0   0     0   0   0     0   0   0     0   0   0     0   0   0     0   0   0     0   0   0     0   0   0     0   0   0   201 199 187   200 198 186   200 198 186  
 206 204 189   207 205 190   208 206 191     0   0   0     0   0   0     0   0   0     0   0   0     0   0   0     0   0   0     0   0   0     0   0   0     0   0   0     0   0   0     0   0   0     0   0   0     0   0   0     0   0   0     0   0   0     0   0   0     0   0   0     0   0   0     0   0   0     0   0   0     0   0   0     0   0   0     0   0   0     0   0   0     0   0   0     0   0   0     0   0   0     0   0   0     0   0   0     0   0   0     0   0   0     0   0   0     0   0   0     0   0   0     0   0   0     0   0   0     0   0   0     0   0   0     0   0   0     0   0   0     0   0   0     0   0   0     0   0   0     0   0   0     0   0   0   201 199 187   200 198 186  
