P3
57 50
255
   0   0   0     0   0   0     0   0   0     0   0   0     0   0   0     0   0   0     0   0   0   164 165 170   164 165 170   164 165 170     0   0   0     0   0   0     0   0   0     0   0   0     0   0   0     0   0   0     0   0   0     0   0   0     0   0   0     0   0   0     0   0   0     0   0   0     0   0   0     0   0   0     0   0   0     0   0   0     0   0   0     0   0   0     0   0   0     0   0   0     0   0   0     0   0   0     0   0   0     0   0   0     0   0   0     0   0   0     0   0   0     0   0   0     0   0   0     0   0   0     0   0   0     0   0   0     0   0   0     0   0   0     0   0   0     0   0   0     0   0   0     0   0   0     0   0   0     0   0   0     0   0   0     0   0   0     0   0   0     0   0   0     0   0   0   153 158 164   154 159 165  
   0   0   0     0   0   0     0   0   0     0   0   0     0   0   0     0   0   0     0   0   0   165 166 171   165 166 171   165 166 171   166 167 172     0   0   0     0   0   0     0   0   0     0   0   0     0   0   0     0   0   0     0   0   0     0   0   0     0   0   0     0   0   0     0   0   0     0   0   0     0   0   0     0   0   0     0   0   0     0   0   0     0   0   0     0   0   0     0   0   0     0   0   0     0   0   0     0   0   0     0   0   0     0   0   0     0   0   0     0   0   0     0   0   0     0   0   0     0   0   0     0   0   0     0   0   0     0   0   0     0   0   0     0   0   0     0   0   0     0   0   0     0   0   0     0   0   0     0   0   0     0   0   0     0   0   0     0   0   0     0   0   0   153 156 163   155 160 166   155 160 166  
   0   0   0     0   0   0     0   0   0     0   0   0     0   0   0     0   0   0   165 166 171   167 168 173   167 168 173   167 168 173   168 169 174   169 170 175     0   0   0     0   0   0     0   0   0     0   0   0     0   0   0     0   0   0     0   0   0     0   0   0     0   0   0     0   0   0     0   0   0     0   0   0     0   0   0     0   0   0     0   0   0     0   0   0     0   0   0     0   0   0     0   0   0     0   0   0     0   0   0     0   0   0     0   0   0     0   0   0     0   0   0     0   0   0     0   0   0     0   0   0     0   0   0     0   0   0     0   0   0     0   0   0     0   0   0     0   0   0     0   0   0     0   0   0     0   0   0     0   0   0     0   0   0     0   0   0     0   0   0     0   0   0   156 159 166   157 162 168     0   0   0  
   0   0   0     0   0   0     0   0   0     0   0   0     0   0   0     0   0   0   166 167 172   168 169 173   166 167 171   166 166 171   166 167 172   170 170 175   173 174 178     0   0   0     0   0   0     0   0   0     0   0   0     0   0   0     0   0   0     0   0   0     0   0   0     0   0   0     0   0   0     0   0   0     0   0   0     0   0   0     0   0   0     0   0   0     0   0   0     0   0   0     0   0   0     0   0   0     0   0   0     0   0   0     0   0   0     0   0   0     0   0   0     0   0   0     0   0   0     0   0   0     0   0   0     0   0   0     0   0   0     0   0   0     0   0   0     0   0   0     0   0   0     0   0   0     0   0   0     0   0   0     0   0   0     0   0   0     0   0   0   155 158 164   156 159 165     0   0   0     0   0   0  
   0   0   0     0   0   0     0   0   0     0   0   0     0   0   0     0   0   0   166 167 171   165 166 170   166 167 171   166 167 171   166 167 171   168 169 173   174 175 179   181 182 186     0   0   0     0   0   0     0   0   0     0   0   0     0   0   0     0   0   0     0   0   0     0   0   0     0   0   0     0   0   0     0   0   0     0   0   0     0   0   0     0   0   0     0   0   0     0   0   0     0   0   0     0   0   0     0   0   0     0   0   0     0   0   0     0   0   0     0   0   0     0   0   0     0   0   0     0   0   0     0   0   0     0   0   0     0   0   0     0   0   0     0   0   0     0   0   0     0   0   0     0   0   0     0   0   0     0   0   0     0   0   0     0   0   0   158 159 164   156 159 164   157 160 165     0   0   0     0   0   0  
   0   0   0     0   0   0     0   0   0     0   0   0     0   0   0     0   0   0   165 166 170   164 165 169   166 167 171   166 167 171   164 165 169   163 164 168   168 169 173   179 180 184   189 190 194   186 189 193     0   0   0     0   0   0     0   0   0     0   0   0     0   0   0     0   0   0     0   0   0     0   0   0     0   0   0     0   0   0     0   0   0     0   0   0     0   0   0     0   0   0     0   0   0     0   0   0     0   0   0     0   0   0     0   0   0     0   0   0     0   0   0     0   0   0     0   0   0     0   0   0     0   0   0     0   0   0     0   0   0     0   0   0     0   0   0     0   0   0     0   0   0     0   0   0     0   0   0     0   0   0   159 160 165   159 160 165   159 160 165   158 161 166     0   0   0     0   0   0     0   0   0  
   0   0   0     0   0   0     0   0   0     0   0   0     0   0   0     0   0   0   167 168 172   166 167 171   166 167 171   164 165 169   162 163 167   161 161 166   163 164 168   169 170 174   174 175 179   174 175 178   172 175 178     0   0   0     0   0   0     0   0   0     0   0   0     0   0   0     0   0   0     0   0   0     0   0   0     0   0   0     0   0   0     0   0   0     0   0   0     0   0   0     0   0   0     0   0   0     0   0   0     0   0   0     0   0   0     0   0   0     0   0   0     0   0   0     0   0   0     0   0   0     0   0   0     0   0   0     0   0   0     0   0   0     0   0   0     0   0   0     0   0   0     0   0   0     0   0   0   162 163 168   160 161 166   160 161 165   160 161 166   160 162 167     0   0   0     0   0   0     0   0   0  
   0   0   0     0   0   0     0   0   0     0   0   0     0   0   0     0   0   0   170 171 175   168 169 173   166 167 171   164 165 169   164 165 169   165 166 170   166 167 171   166 167 171   165 166 170   168 169 171   169 169 171   169 169 171     0   0   0     0   0   0     0   0   0     0   0   0     0   0   0     0   0   0     0   0   0     0   0   0     0   0   0     0   0   0     0   0   0     0   0   0     0   0   0     0   0   0     0   0   0     0   0   0     0   0   0     0   0   0     0   0   0     0   0   0     0   0   0     0   0   0     0   0   0     0   0   0     0   0   0     0   0   0     0   0   0     0   0   0     0   0   0     0   0   0   165 164 169   162 163 167   161 162 166   161 162 166   161 162 166     0   0   0     0   0   0     0   0   0     0   0   0  
   0   0   0     0   0   0     0   0   0     0   0   0     0   0   0   167 168 172   168 169 173   168 169 173   168 169 173   168 169 173   168 169 173   168 169 173   167 168 172   167 168 172   166 167 171   166 166 167   168 166 169   169 167 170   169 168 171     0   0   0     0   0   0     0   0   0     0   0   0     0   0   0     0   0   0     0   0   0     0   0   0     0   0   0     0   0   0     0   0   0     0   0   0     0   0   0     0   0   0     0   0   0     0   0   0     0   0   0     0   0   0     0   0   0     0   0   0     0   0   0     0   0   0     0   0   0     0   0   0     0   0   0     0   0   0     0   0   0     0   0   0   166 165 170   165 164 169   163 162 167   162 161 166   161 161 165   161 161 165     0   0   0     0   0   0     0   0   0     0   0   0  
   0   0   0     0   0   0     0   0   0     0   0   0     0   0   0   166 167 171   164 165 169   169 170 174   172 173 177   174 174 179   171 172 176   166 167 171   163 164 168   165 166 170   168 169 173   167 165 168   170 168 171   171 169 172   169 167 170   171 171 173     0   0   0     0   0   0     0   0   0     0   0   0     0   0   0     0   0   0     0   0   0     0   0   0     0   0   0     0   0   0     0   0   0     0   0   0     0   0   0     0   0   0     0   0   0     0   0   0     0   0   0     0   0   0     0   0   0     0   0   0     0   0   0     0   0   0     0   0   0     0   0   0     0   0   0     0   0   0   162 163 167   165 164 169   164 163 168   163 162 167   161 160 165   161 160 165     0   0   0     0   0   0     0   0   0     0   0   0     0   0   0  
   0   0   0     0   0   0     0   0   0     0   0   0     0   0   0   169 170 174   169 170 174   170 171 175   171 172 176   171 172 176   171 172 176   171 172 176   170 171 175   168 169 173   167 168 172   164 162 165   165 163 164   168 166 167   171 169 170   174 174 176   178 178 180     0   0   0     0   0   0     0   0   0     0   0   0     0   0   0     0   0   0     0   0   0     0   0   0     0   0   0     0   0   0     0   0   0     0   0   0     0   0   0     0   0   0     0   0   0     0   0   0     0   0   0     0   0   0     0   0   0     0   0   0     0   0   0     0   0   0     0   0   0   170 171 175   168 169 173   167 168 172   165 164 169   164 162 167   162 161 166   162 161 166   162 161 166     0   0   0     0   0   0     0   0   0     0   0   0     0   0   0  
   0   0   0     0   0   0     0   0   0     0   0   0     0   0   0   170 171 175   170 171 175   171 172 176   172 173 177   172 173 177   172 173 177   171 172 176   170 171 175   168 169 173   167 168 170   168 168 170   169 167 168   171 169 170   173 172 172   176 176 178   181 181 182   185 185 187   187 187 190     0   0   0     0   0   0     0   0   0     0   0   0     0   0   0     0   0   0     0   0   0     0   0   0     0   0   0     0   0   0     0   0   0     0   0   0     0   0   0     0   0   0     0   0   0     0   0   0     0   0   0     0   0   0     0   0   0     0   0   0   170 170 174   169 170 173   167 168 171   167 166 170   166 164 169   165 163 167   163 162 166   162 161 165     0   0   0     0   0   0     0   0   0     0   0   0     0   0   0     0   0   0  
   0   0   0     0   0   0     0   0   0     0   0   0     0   0   0   172 173 177   172 173 177   172 173 177   172 173 177   173 174 178   174 175 179   173 174 178   173 174 178   171 172 176   170 171 173   173 174 176   173 174 173   173 173 173   175 175 175   178 178 178   183 183 183   187 188 190   189 190 192   189 190 192     0   0   0     0   0   0     0   0   0     0   0   0     0   0   0     0   0   0     0   0   0     0   0   0     0   0   0     0   0   0     0   0   0     0   0   0     0   0   0     0   0   0     0   0   0     0   0   0     0   0   0   171 171 173   171 171 173   170 170 172   169 169 171   168 168 170   167 167 169   168 166 169   166 164 167   164 162 165   163 161 164     0   0   0     0   0   0     0   0   0     0   0   0     0   0   0     0   0   0  
   0   0   0     0   0   0     0   0   0     0   0   0     0   0   0   174 175 179   174 175 179   171 172 176   172 173 177   174 175 179   175 176 180   176 177 181   177 178 182   176 177 181   175 176 178   175 176 178   173 177 175   174 175 175   175 176 175   177 179 178   181 183 182   186 188 188   189 191 191   190 192 194   190 192 194   190 190 193     0   0   0     0   0   0     0   0   0     0   0   0     0   0   0     0   0   0     0   0   0     0   0   0     0   0   0     0   0   0     0   0   0     0   0   0     0   0   0   168 168 170   169 169 171   170 170 173   172 172 174   171 171 173   171 171 173   170 170 172   170 170 172   169 167 170   167 165 168   164 162 165     0   0   0     0   0   0     0   0   0     0   0   0     0   0   0     0   0   0     0   0   0  
   0   0   0     0   0   0     0   0   0     0   0   0     0   0   0   177 178 182   178 179 183   173 174 178   174 175 179   176 177 181   179 179 184   179 181 184   181 182 186   180 182 185   180 182 184   175 179 178   175 179 178   174 178 177   174 178 177   178 180 179   182 184 183   185 187 186   187 189 188   190 191 193   190 191 193   190 190 192   188 188 190   186 185 190     0   0   0     0   0   0     0   0   0     0   0   0     0   0   0     0   0   0     0   0   0     0   0   0     0   0   0   167 167 169   167 167 169   169 169 171   171 171 173   173 173 175   174 174 177   175 175 177   176 176 178   176 176 178   176 176 178   174 172 175   171 169 172   167 164 168     0   0   0     0   0   0     0   0   0     0   0   0     0   0   0     0   0   0     0   0   0  
   0   0   0     0   0   0     0   0   0     0   0   0   178 179 183   178 179 183   179 180 184   177 178 182   178 179 183   180 181 185   181 182 186   182 183 187   183 184 188   182 183 187   182 183 185   177 181 180   175 181 177   175 181 179   176 182 180   178 182 181   181 185 184   185 187 186   186 188 187   188 188 189   188 188 189   187 187 189   186 186 188   186 184 189   183 181 186     0   0   0     0   0   0     0   0   0     0   0   0     0   0   0     0   0   0   167 167 169   167 167 169   167 167 169   168 168 170   171 171 173   172 172 174   175 175 177   178 178 180   180 180 182   182 182 184   182 182 184   183 183 185   181 179 182   179 174 178   172 170 173     0   0   0     0   0   0     0   0   0     0   0   0     0   0   0     0   0   0     0   0   0  
   0   0   0     0   0   0     0   0   0     0   0   0   180 180 184   180 181 185   181 182 186   181 182 186   183 183 187   184 184 188   185 185 189   184 185 189   184 185 189   183 183 188   183 183 186   179 182 182   179 182 182   180 183 183   181 184 184   181 185 184   185 186 186   185 187 186   186 187 187   186 186 188   186 186 187   185 185 187   185 185 187   185 183 188   183 182 186   182 181 185   181 180 184     0   0   0     0   0   0   172 174 176   170 171 176   168 170 174   168 170 174   170 170 172   171 171 172   174 171 171   175 173 172   179 177 174   182 181 177   183 183 182   187 187 186   187 189 191   184 187 188   184 183 185   180 180 180   176 175 175     0   0   0     0   0   0     0   0   0     0   0   0     0   0   0     0   0   0     0   0   0  
   0   0   0     0   0   0     0   0   0   183 183 185   184 184 186   184 184 186   185 185 187   188 188 190   189 189 191   190 189 194   190 189 194   188 187 192   187 186 191   186 185 190   187 186 191   185 185 187   185 185 187   186 186 188   187 187 189   187 187 189   187 187 189   187 187 189   187 187 189   188 188 190   187 187 189   186 186 188   185 185 187   185 185 187   185 185 187   185 185 187   185 185 187   181 181 183   179 180 182   174 178 182   172 176 180   169 174 179   169 173 177   170 173 176   173 173 172   176 172 168   176 172 165   185 179 171   189 186 178   188 186 182   193 193 191   190 195 195   178 186 185   182 186 183   181 184 180   180 180 178     0   0   0     0   0   0     0   0   0     0   0   0     0   0   0     0   0   0     0   0   0  
   0   0   0     0   0   0     0   0   0   182 182 182   183 183 183   185 185 187   185 185 188   190 190 193   191 191 193   191 190 195   190 189 194   187 186 191   186 185 190   186 185 190   186 185 190   187 187 189   187 187 189   188 188 190   189 189 191   189 189 191   189 189 191   189 189 191   189 189 190   186 186 188   186 186 188   185 185 187   185 185 187   185 185 187   185 185 188   185 185 188   185 185 188   186 186 188   184 185 187   180 183 188   176 181 185   174 179 183   171 176 179   170 174 176   172 172 170   175 172 167   177 173 164   189 182 172   194 190 181   193 192 185   195 196 192   190 196 195   176 185 183   189 196 189   187 192 185   184 184 182     0   0   0     0   0   0     0   0   0     0   0   0     0   0   0     0   0   0     0   0   0  
   0   0   0     0   0   0   184 184 184   183 183 183   185 185 185   187 187 189   189 189 191   186 186 188   187 187 189   188 187 192   187 186 191   186 185 190   186 185 190   187 186 191   188 187 192   188 188 190   189 189 191   190 190 192   190 190 192   190 190 192   190 190 192   189 189 191   189 189 191   185 185 187   185 185 187   185 185 187   185 185 187   185 185 187   186 186 188   187 187 189   188 188 190   189 189 191   189 189 191   186 188 192   182 186 190   179 183 187   175 179 183   174 176 178   174 174 172   181 178 171   181 177 168   188 181 171   192 188 179   192 192 184   201 203 198   203 210 208   195 204 201   199 206 199   195 202 194   191 193 188     0   0   0     0   0   0     0   0   0     0   0   0     0   0   0     0   0   0     0   0   0  
   0   0   0     0   0   0   187 187 187   186 186 186   187 187 187   189 189 189   190 190 190   187 187 189   188 188 190   190 190 191   189 189 191   188 187 192   187 186 191   188 187 192   189 188 193   187 187 189   187 187 189   188 188 190   188 188 190   188 188 190   188 188 189   187 187 189   187 187 189   184 184 186   184 184 186   184 184 186   185 185 187   186 186 188   187 187 189   188 188 190   189 189 191   189 187 188   189 187 190   189 188 193   187 188 192   183 186 191   179 183 186   178 180 179   178 177 173   187 182 176   186 179 171   189 183 172   193 189 178   195 195 187   208 210 205   212 221 218   207 218 214   197 207 199   196 203 195   193 195 190     0   0   0     0   0   0     0   0   0     0   0   0     0   0   0     0   0   0     0   0   0  
   0   0   0   192 192 191   189 189 188   187 187 187   188 188 188   188 188 188   189 189 189   192 192 193   194 194 195   196 196 197   195 195 197   193 192 196   190 189 193   188 187 192   188 187 191   185 185 187   185 185 188   185 185 188   185 185 188   185 185 187   185 185 187   184 184 185   183 183 185   182 182 184   183 183 185   183 183 185   184 184 186   186 186 188   188 188 190   190 190 192   192 190 193   192 187 189   193 188 190   191 188 191   189 188 193   186 187 192   183 185 188   182 182 182   182 180 176   186 181 175   188 181 171   195 189 177   201 197 186   205 205 196   216 218 212   218 227 223   211 222 218   205 215 206   202 209 201   196 201 195     0   0   0     0   0   0     0   0   0     0   0   0     0   0   0     0   0   0     0   0   0  
   0   0   0   192 192 190   189 189 187   188 188 188   187 187 187   186 186 186   186 186 186   190 190 190   193 193 193   196 196 198   197 197 199   196 196 198   193 193 195   190 190 192   189 189 191   184 184 186   185 185 187   185 185 187   185 185 187   184 184 186   184 184 186   183 183 185   182 182 184   181 181 183   182 182 184   183 183 185   184 184 186   186 186 188   189 189 191   191 191 193   193 191 193   197 191 192   197 191 192   194 191 193   191 190 193   188 188 193   186 187 189   185 184 184   186 182 178   190 184 176   191 185 174   201 194 181   209 205 193   215 213 204   226 229 222   231 239 234   225 235 229   230 240 232   224 231 223   214 218 211     0   0   0     0   0   0     0   0   0     0   0   0     0   0   0     0   0   0     0   0   0  
 192 192 190   190 190 188   188 188 186   187 187 186   186 186 185   185 185 185   186 186 186   187 187 187   189 189 189   191 191 192   193 193 194   193 193 195   192 192 194   190 190 192   189 189 191   185 185 187   185 185 187   185 185 187   185 185 188   185 185 187   184 184 186   183 183 185   183 183 185   181 181 183   182 182 184   182 182 184   184 184 186   186 186 188   188 188 190   190 190 192   192 190 191   199 193 193   195 189 189   192 188 189   189 187 189   187 187 190   186 186 187   187 186 185   192 187 183   196 188 180   195 188 177   205 196 184   220 214 202   229 225 215   231 233 225   233 238 233   234 241 237   241 249 241   241 248 240   235 239 231     0   0   0     0   0   0     0   0   0     0   0   0     0   0   0     0   0   0     0   0   0  
 191 191 189   189 189 187   188 188 186   187 187 185   187 187 185   188 188 188   188 188 188   188 188 188   189 189 189   190 190 190   192 192 192   192 192 194   191 191 193   190 190 192   188 188 190   184 184 186   185 185 187   185 185 187   185 185 187   185 185 187   184 184 186   184 184 186   183 183 185   184 184 186   184 184 186   184 184 186   185 185 187   186 186 188   187 187 189   188 188 190   190 188 189   196 190 190   196 191 188   195 191 190   195 193 194   191 191 193   188 186 187   191 187 186   197 192 186   203 194 185   202 192 181   211 201 189   230 222 209   242 235 225   240 240 232   239 241 236   241 246 240   241 246 239   244 249 242   247 248 242     0   0   0     0   0   0     0   0   0     0   0   0     0   0   0     0   0   0     0   0   0  
 190 191 186   188 189 184   188 189 184   187 187 185   188 188 186   189 189 187   190 190 188   188 188 188   189 189 189   191 191 191   192 192 192   191 191 191   190 190 190   188 188 190   187 187 189   186 186 188   186 186 188   186 186 188   186 186 188   186 186 188   186 186 188   185 185 187   184 184 186   186 186 188   186 186 188   186 186 188   186 186 188   186 186 188   187 187 189   188 188 190   189 187 188   192 188 185   195 190 187   196 193 192   194 194 192   190 190 190   187 186 184   193 190 186   204 197 190   205 195 186   207 194 182   217 204 192   235 225 213   251 242 233   251 248 239   249 249 243   249 251 246   243 246 239   243 246 237   250 249 242     0   0   0     0   0   0     0   0   0     0   0   0     0   0   0     0   0   0     0   0   0  
 191 191 186   189 190 185   188 189 184   187 187 184   187 188 185   188 188 185   188 188 186   189 189 189   190 190 190   191 191 191   192 192 192   191 191 191   190 190 190   188 188 190   187 187 188   188 188 190   188 188 190   188 188 190   188 188 190   188 188 190   188 188 190   187 187 189   186 186 188   187 187 189   187 187 189   186 186 188   187 187 189   187 187 189   188 188 191   190 190 191   191 190 191   196 193 190   194 191 186   192 191 190   193 194 192   194 195 194   195 195 192   201 198 194   210 203 195   199 188 179   204 190 177   216 202 189   238 224 210   254 243 234   255 251 243   255 252 247   251 251 246   248 248 240   245 245 237     0   0   0     0   0   0     0   0   0     0   0   0     0   0   0     0   0   0     0   0   0     0   0   0  
   0   0   0   190 191 186   188 189 184   187 188 183   186 187 182   187 187 185   187 187 185   190 190 188   191 191 189   193 193 193   194 194 194   193 193 193   192 192 192   190 190 190   188 188 188   187 187 189   187 187 189   187 187 189   187 187 189   187 187 189   186 186 188   186 186 188   185 185 187   187 187 189   187 187 189   187 187 189   188 188 190   189 189 191   191 191 193   192 192 194   193 193 193   194 193 189   191 191 186   192 193 190   199 201 198   205 207 204   204 205 200   204 201 196   205 198 190   199 186 176   205 190 177   219 202 188   237 220 208   251 238 228   255 248 239   255 252 246   255 253 248   255 252 245   253 250 243     0   0   0     0   0   0     0   0   0     0   0   0     0   0   0     0   0   0     0   0   0     0   0   0  
   0   0   0   190 191 186   188 189 184   187 188 183   187 188 183   187 187 185   187 187 185   190 190 188   192 192 190   193 193 191   195 195 193   194 194 194   193 193 193   191 191 191   190 190 190   187 187 189   187 187 189   187 187 189   187 187 189   187 187 189   186 186 188   185 185 188   185 185 187   188 188 190   188 188 190   188 188 190   189 189 190   190 190 192   191 191 193   192 192 194   192 192 192   187 188 182   186 187 181   188 190 185   195 199 194   201 203 200   197 198 193   194 191 186   193 186 178   200 188 175   206 190 177   215 197 183   225 207 195   236 220 209   245 233 225   252 243 238   255 249 245   253 248 242   252 246 240     0   0   0     0   0   0     0   0   0     0   0   0     0   0   0     0   0   0     0   0   0     0   0   0  
   0   0   0   189 190 185   188 189 184   187 188 183   188 189 184   189 189 185   189 189 187   191 191 189   192 192 190   194 194 192   195 195 195   196 196 198   195 195 197   194 194 195   193 193 194   189 189 192   189 189 192   191 191 193   191 191 193   190 190 192   189 189 192   189 189 191   189 189 191   192 192 194   191 191 193   191 191 193   190 190 192   190 190 192   190 190 192   190 190 192   191 191 191   192 193 188   189 190 185   186 191 185   188 193 188   188 190 187   186 186 184   187 186 182   193 187 181   197 187 178   200 187 178   205 188 179   206 189 181   213 198 190   226 214 207   240 229 227   250 240 238   248 239 234     0   0   0     0   0   0     0   0   0     0   0   0     0   0   0     0   0   0     0   0   0     0   0   0     0   0   0  
   0   0   0   192 193 187   190 191 185   186 187 181   185 186 180   187 188 182   189 190 185   190 190 188   191 191 189   193 193 193   197 197 199   200 199 204   200 199 205   198 197 205   196 195 201   195 195 197   193 193 193   189 189 189   186 186 186   186 186 186   187 187 187   189 189 189   191 191 191   187 187 187   188 188 188   190 190 190   191 191 191   191 191 191   190 190 190   189 189 189   188 188 188   187 189 188   184 188 187   184 188 187   184 188 187   186 188 187   187 189 188   189 189 187   190 189 187   196 192 189   193 188 185   198 188 186   204 194 192   209 199 197   212 202 202   218 208 207   225 215 213   219 208 204     0   0   0     0   0   0     0   0   0     0   0   0     0   0   0     0   0   0     0   0   0     0   0   0     0   0   0  
   0   0   0   193 194 190   191 192 187   188 189 184   188 189 183   189 190 185   191 192 187   192 192 190   193 193 191   196 196 198   199 198 203   202 201 207   203 202 210   201 200 210   201 200 207   199 199 201   197 197 197   193 193 193   190 190 190   188 188 188   187 187 187   188 188 188   189 189 189   188 188 188   189 189 189   190 190 190   191 191 191   191 191 191   190 190 190   189 189 189   188 190 189   187 188 190   185 189 190   184 188 189   184 188 189   187 188 190   187 188 190   189 189 189   189 189 189   194 192 193   192 190 191   196 192 191   202 196 196   206 198 199   205 197 197   206 197 198   210 200 199     0   0   0     0   0   0     0   0   0     0   0   0     0   0   0     0   0   0     0   0   0     0   0   0     0   0   0     0   0   0  
   0   0   0   192 192 190   190 190 187   188 188 185   187 188 183   188 189 184   189 190 185   193 193 191   194 194 192   196 196 197   200 199 203   203 202 207   204 203 210   203 202 209   202 201 207   202 202 204   200 200 200   197 197 197   194 194 194   192 192 192   190 190 190   190 190 190   190 190 190   190 190 190   191 191 191   191 191 191   191 191 191   191 191 191   191 191 191   190 190 190   189 190 190   189 190 192   186 190 191   186 190 191   186 190 191   188 189 191   189 190 192   191 191 191   191 191 191   193 191 192   194 192 193   199 195 194   203 199 198   206 200 200   204 198 198   205 196 197   206 197 196     0   0   0     0   0   0     0   0   0     0   0   0     0   0   0     0   0   0     0   0   0     0   0   0     0   0   0     0   0   0  
   0   0   0     0   0   0   194 194 192   192 192 190   191 191 188   190 191 188   190 190 187   194 194 192   194 194 192   195 195 195   199 199 201   202 202 205   204 203 208   204 203 208   203 202 205   201 201 202   200 200 200   199 199 199   197 197 197   196 196 196   195 195 195   194 194 194   193 193 193   192 192 192   192 192 192   192 192 192   191 191 191   191 191 191   191 191 191   190 190 190   190 190 190   190 190 193   188 190 192   188 190 192   188 190 192   189 190 192   190 190 193   192 192 192   192 192 192   194 192 193   196 194 195   200 196 195   202 198 197   205 199 199   207 200 200   208 201 202   210 202 200     0   0   0     0   0   0     0   0   0     0   0   0     0   0   0     0   0   0     0   0   0     0   0   0     0   0   0     0   0   0  
   0   0   0     0   0   0   200 200 200   200 200 200   198 198 196   194 194 193   193 193 191   197 197 195   198 198 196   198 198 198   201 201 201   203 203 203   205 205 205   205 205 207   204 204 204   200 200 200   200 200 200   200 200 200   200 200 200   199 199 199   198 198 198   197 197 197   196 196 196   194 194 194   193 193 193   192 192 192   191 191 191   191 191 191   191 191 191   191 191 191   191 191 191   191 192 194   190 191 193   190 191 193   190 191 193   191 191 193   192 192 194   193 193 193   193 193 193   198 196 197   199 197 198   201 197 196   199 195 194   202 196 196   206 200 200   208 202 202     0   0   0     0   0   0     0   0   0     0   0   0     0   0   0     0   0   0     0   0   0     0   0   0     0   0   0     0   0   0     0   0   0  
   0   0   0     0   0   0   207 208 210   208 209 211   205 207 206   199 200 200   195 196 195   198 200 197   198 200 197   198 200 197   199 201 198   201 203 200   203 204 202   203 204 203   202 204 202   200 200 200   200 200 200   201 201 201   201 201 201   201 201 201   199 199 199   197 197 197   196 196 196   195 195 195   194 194 194   193 193 193   192 192 192   191 191 191   191 191 191   191 191 191   192 192 192   191 192 194   191 192 194   192 192 194   192 192 194   192 192 194   193 193 195   194 192 193   195 193 194   197 194 196   200 198 199   202 198 197   200 196 195   201 197 196   206 202 201   207 203 202     0   0   0     0   0   0     0   0   0     0   0   0     0   0   0     0   0   0     0   0   0     0   0   0     0   0   0     0   0   0     0   0   0  
   0   0   0     0   0   0   216 217 221   217 218 220   214 215 217   208 208 211   202 204 203   199 201 200   198 200 198   198 200 197   198 200 197   199 201 197   200 202 198   200 202 198   200 201 198   201 201 201   202 202 202   202 202 202   202 202 202   201 201 201   199 199 199   197 197 197   196 196 196   197 197 197   196 196 196   193 193 193   192 192 192   190 190 190   190 190 190   192 192 192   192 192 192   191 192 194   191 192 194   191 191 193   192 192 194   192 192 194   193 193 195   195 193 194   195 193 194   194 192 193   198 196 197   201 198 197   201 198 197   204 200 199   208 204 203   210 205 205   208 204 203     0   0   0     0   0   0     0   0   0     0   0   0     0   0   0     0   0   0     0   0   0     0   0   0     0   0   0     0   0   0  
   0   0   0     0   0   0     0   0   0   224 225 229   223 224 227   218 219 221   210 211 212   205 207 207   205 207 206   203 205 202   202 204 201   201 203 198   201 203 198   201 203 197   201 203 198   204 204 202   204 204 204   204 204 204   204 204 204   203 203 203   201 201 201   199 199 199   198 198 198   201 201 201   198 198 198   195 195 195   192 192 192   190 190 190   190 190 190   190 190 190   192 192 192   189 189 191   190 190 192   191 191 193   191 191 193   192 192 194   193 193 195   195 193 194   195 193 194   196 194 195   197 195 196   198 197 195   200 199 197   205 201 200   207 203 202   210 206 205   210 207 207   206 205 207     0   0   0     0   0   0     0   0   0     0   0   0     0   0   0     0   0   0     0   0   0     0   0   0     0   0   0  
   0   0   0     0   0   0     0   0   0   229 233 236   231 234 237   227 230 232   221 224 225   210 213 215   207 211 210   205 209 205   203 207 203   203 207 201   203 207 201   200 205 198   199 201 196   203 203 201   203 203 203   204 204 204   204 204 204   204 204 204   202 202 202   200 200 200   199 199 199   200 200 200   198 198 198   195 195 195   193 193 193   190 190 190   189 189 189   188 188 188   188 188 188   190 189 192   190 189 192   192 190 193   192 190 193   193 191 194   194 192 195   195 193 194   195 193 194   196 194 195   196 194 195   197 196 194   198 197 196   202 200 198   206 204 202   208 207 205   210 208 209   206 207 209     0   0   0     0   0   0     0   0   0     0   0   0     0   0   0     0   0   0     0   0   0     0   0   0     0   0   0  
   0   0   0     0   0   0     0   0   0   236 240 243   239 243 246   238 242 245   235 239 241   220 224 225   215 219 220   209 213 211   205 210 206   205 210 205   204 209 203   201 206 199   198 203 197   203 203 201   204 204 204   205 205 205   205 205 205   205 205 205   204 204 204   203 203 203   202 202 202   197 197 197   197 197 197   196 196 196   194 194 194   192 192 192   190 190 190   188 188 188   187 187 187   189 187 190   190 188 191   190 188 191   191 189 192   191 189 192   192 190 193   192 190 191   193 191 192   195 193 194   194 192 193   194 193 191   195 194 192   198 197 195   203 202 200   207 206 204   208 208 208   207 208 210   204 208 211     0   0   0     0   0   0     0   0   0     0   0   0     0   0   0     0   0   0     0   0   0     0   0   0  
   0   0   0     0   0   0     0   0   0   241 245 246   244 248 249   244 248 251   241 245 248   234 238 241   228 232 233   219 223 222   213 218 214   210 215 210   207 212 207   205 210 203   204 209 203   205 205 203   206 206 206   207 207 207   207 207 207   207 207 207   207 207 207   206 206 206   205 205 205   196 196 196   196 196 196   196 196 196   195 195 195   194 194 194   192 192 192   190 190 190   189 189 189   187 185 188   188 186 189   188 186 189   188 186 189   189 187 190   189 187 190   189 187 188   189 188 189   191 189 189   191 189 189   191 190 188   192 191 189   196 195 193   200 199 197   203 203 201   205 207 206   204 208 209   204 208 211   204 206 208     0   0   0     0   0   0     0   0   0     0   0   0     0   0   0     0   0   0     0   0   0  
   0   0   0     0   0   0     0   0   0     0   0   0   246 250 251   245 249 252   242 246 249   242 246 249   239 243 246   234 238 239   226 230 229   218 223 219   212 217 213   210 215 209   209 214 208   208 208 206   209 209 209   210 210 210   211 211 211   211 211 211   210 210 210   208 208 208   207 207 207   199 199 199   199 199 199   198 198 198   196 196 196   194 194 194   193 193 193   190 190 190   190 190 190   186 184 187   186 184 187   186 184 187   187 185 188   187 185 188   187 185 188   187 185 186   187 185 186   187 185 186   188 185 187   189 188 186   191 190 188   194 193 191   198 197 195   201 201 199   203 205 204   201 205 207   200 205 208   201 205 206   203 204 205     0   0   0     0   0   0     0   0   0     0   0   0     0   0   0     0   0   0  
   0   0   0     0   0   0     0   0   0     0   0   0   246 250 251   246 250 253   243 247 250   241 245 248   243 247 250   243 247 248   236 240 239   224 229 225   214 219 214   208 213 207   208 211 206   211 211 209   212 212 212   213 213 213   213 213 213   213 213 213   212 212 212   211 211 211   210 210 210   205 205 205   204 204 204   201 201 201   198 198 198   194 194 194   192 192 192   190 190 190   189 189 189   187 185 188   188 184 188   187 185 188   187 185 188   187 185 188   187 185 188   187 185 186   187 185 186   186 184 185   187 185 186   189 189 187   192 192 190   195 195 193   199 199 197   201 201 199   202 204 203   199 203 206   199 203 206   200 204 205   202 203 205   203 203 203     0   0   0     0   0   0     0   0   0     0   0   0     0   0   0  
   0   0   0     0   0   0     0   0   0     0   0   0   245 249 250   246 250 253   247 251 254   242 246 250   240 245 248   242 246 247   240 244 243   230 233 230   214 217 212   205 209 202   207 208 202   211 211 208   214 214 214   215 215 215   212 212 212   211 211 211   211 211 211   212 212 212   211 211 211   208 208 208   205 205 205   201 201 201   197 197 197   195 195 195   193 193 193   191 191 191   189 189 189   187 186 187   187 186 187   188 187 188   188 187 188   188 187 188   187 186 187   186 185 186   186 185 186   185 185 185   187 186 187   190 190 189   193 193 193   196 196 196   199 199 198   200 200 200   201 201 201   200 202 204   200 202 204   201 203 205   203 204 205   204 204 206   205 205 206     0   0   0     0   0   0     0   0   0     0   0   0  
   0   0   0     0   0   0     0   0   0     0   0   0   249 251 253   248 251 255   247 252 255   247 252 254   243 248 251   244 249 251   244 248 247   233 235 232   215 218 211   207 208 202   209 210 204   211 211 209   217 217 217   219 219 219   216 216 216   214 214 214   213 213 213   211 211 211   208 208 208   209 209 209   206 206 206   201 201 201   198 198 198   197 197 197   195 195 195   193 193 193   190 190 190   188 188 188   188 188 188   188 188 188   187 187 187   187 187 187   187 187 187   187 187 187   187 187 187   189 189 189   189 189 189   192 192 192   195 195 195   198 198 198   200 200 200   201 201 201   202 202 202   203 203 205   203 203 205   204 204 206   205 205 207   206 206 208   207 207 209     0   0   0     0   0   0     0   0   0     0   0   0  
   0   0   0     0   0   0     0   0   0     0   0   0     0   0   0   250 253 255   249 252 255   251 254 255   249 253 255   250 251 254   246 247 247   232 232 229   215 215 209   209 208 203   212 211 206   212 212 210   218 218 218   222 222 222   220 220 220   217 217 217   214 214 214   209 209 209   204 204 204   209 209 209   206 206 206   203 203 203   200 200 200   198 198 198   196 196 196   194 194 194   192 192 192   190 190 190   189 189 189   188 188 188   187 187 187   186 186 186   187 187 187   188 188 188   188 188 188   192 192 192   192 192 192   194 194 194   196 196 196   198 198 198   201 201 201   202 202 202   203 203 203   204 204 206   204 204 206   205 205 207   207 207 209   208 208 210   209 209 211   210 210 212     0   0   0     0   0   0     0   0   0  
   0   0   0     0   0   0     0   0   0     0   0   0     0   0   0   250 250 254   250 253 255   252 252 255   250 251 255   248 249 251   241 241 241   227 226 224   213 211 206   210 207 202   211 210 205   211 211 209   215 215 215   218 218 218   216 216 216   214 214 214   213 213 213   209 209 209   203 203 203   206 206 206   205 205 205   203 203 203   201 201 201   198 198 198   195 195 195   194 194 194   192 192 192   191 191 191   190 190 190   188 188 188   187 187 187   186 186 186   187 187 187   189 189 189   190 190 190   190 190 190   192 192 192   194 194 194   196 196 196   199 199 199   201 201 201   204 204 204   205 205 205   204 204 205   204 204 206   205 205 207   205 205 208   207 207 209   208 208 210   209 209 211   209 209 211     0   0   0     0   0   0  
   0   0   0     0   0   0     0   0   0     0   0   0     0   0   0     0   0   0   250 250 254   249 248 253   247 246 250   242 241 242   234 231 231   223 219 217   214 209 205   212 206 202   212 208 204   208 207 205   209 209 209   209 209 209   208 208 208   209 209 209   211 211 211   210 210 210   206 206 206   204 204 204   204 204 204   204 204 204   201 201 201   198 198 198   195 195 195   193 193 193   193 193 193   192 192 192   191 191 191   190 190 190   188 188 188   188 188 188   189 189 189   190 190 190   190 190 190   189 189 189   191 191 191   194 194 194   197 197 197   201 201 201   203 203 203   204 204 204   205 205 205   204 204 206   204 204 206   204 204 206   205 205 207   205 205 207   206 206 208   206 206 208   207 207 209   205 205 207     0   0   0  
   0   0   0     0   0   0     0   0   0     0   0   0     0   0   0     0   0   0     0   0   0   240 238 241   238 234 237   229 226 227   221 216 216   216 209 207   213 203 201   211 201 199   209 202 198   203 202 200   203 203 203   203 203 203   202 202 202   205 205 205   209 209 209   209 209 209   206 206 206   203 203 203   205 205 205   205 205 205   202 202 202   199 199 199   195 195 195   194 194 194   194 194 194   191 191 191   191 191 191   190 190 190   190 190 190   189 189 189   190 190 190   190 190 190   190 190 190   191 191 191   193 193 193   197 197 197   201 201 201   203 203 203   204 204 204   203 203 203   202 202 202   205 205 207   205 205 207   205 205 207   204 204 206   204 204 206   203 203 205   203 203 206   203 203 206   202 202 204   200 200 202  
   0   0   0     0   0   0     0   0   0     0   0   0     0   0   0     0   0   0     0   0   0   231 227 231   226 222 223   217 211 213   209 203 203   208 199 198   207 197 195   206 195 193   202 194 190   202 198 197   201 201 201   201 201 201   201 201 201   205 205 205   209 209 209   208 208 208   203 203 203   204 204 204   206 206 206   207 207 207   205 205 205   200 200 200   196 196 196   195 195 195   196 196 196   191 191 191   191 191 191   191 191 191   191 191 191   191 191 191   190 190 190   190 190 190   189 189 189   194 194 194   197 197 197   201 201 201   204 204 204   206 206 206   204 204 204   202 202 202   200 200 200   206 206 208   206 206 208   206 206 208   205 205 207   204 204 206   203 203 205   202 202 204   202 202 204   202 202 204   201 201 203  
