P3
64 50
255
 232 233 228   231 230 226   226 225 221   221 217 214   214 209 207   210 205 202   206 198 195   204 196 193   201 196 192   199 194 190   199 196 189   201 198 191   201 201 193   203 202 197   203 204 198   205 206 201   208 207 203   207 206 202   204 199 197   199 195 192   196 191 188   194 189 186   196 191 188   194 189 186   193 189 186   197 193 190   197 196 192   198 197 193   200 201 196   204 205 200   201 200 198   201 200 196   200 199 194   196 196 188   193 190 181   191 188 181   193 190 183   195 191 188   185 179 179   188 182 184   189 183 187   189 183 185   185 179 179   181 176 173   180 173 163   180 171 162   182 171 169   182 170 170   178 170 168   176 171 168     0   0   0     0   0   0     0   0   0     0   0   0     0   0   0     0   0   0     0   0   0     0   0   0     0   0   0     0   0   0     0   0   0     0   0   0     0   0   0     0   0   0  
 230 231 226   228 227 223   223 222 218   217 213 210   210 205 202   206 201 198   203 195 192   204 195 193   201 196 192   202 197 193   203 200 193   205 202 195   205 205 197   206 206 201   203 204 198   205 205 200   205 205 200   203 202 198   200 196 193   196 192 189   195 190 187   195 190 187   195 190 187   192 187 184   192 188 185   196 192 189   197 196 192   198 197 193   201 202 197   206 207 202   204 203 201   201 200 198   198 197 192   195 195 187   195 193 184   194 192 182   192 189 182   189 186 182   189 183 183   189 184 185   190 184 188   190 184 186   190 184 184   188 183 179   186 180 170   185 177 168   190 179 177   191 180 179   190 183 181   189 185 182     0   0   0     0   0   0     0   0   0     0   0   0     0   0   0     0   0   0     0   0   0     0   0   0     0   0   0     0   0   0     0   0   0     0   0   0     0   0   0     0   0   0  
   0   0   0   224 223 219   218 217 213   212 208 205   205 200 197   201 196 193   202 194 191   203 195 192   203 198 194   205 200 196   206 203 196   208 205 198   207 207 199   208 207 202   203 204 198   205 206 201   207 206 202   204 203 199   200 196 193   196 192 189   196 191 188   196 191 188   196 191 188   193 188 185   193 189 186   197 193 190   198 197 193   200 199 195   204 205 200   210 210 207   207 206 204   204 203 201   201 200 195   199 199 191   198 198 188   195 195 184   191 188 180   187 184 179   189 185 184   187 183 184   187 181 185   189 183 185   192 186 186   193 188 184   190 186 177   188 181 173   192 182 180   195 185 184   195 190 187   195 192 189   196 196 191     0   0   0     0   0   0     0   0   0     0   0   0     0   0   0     0   0   0     0   0   0     0   0   0     0   0   0     0   0   0     0   0   0     0   0   0     0   0   0  
   0   0   0     0   0   0     0   0   0   208 204 201   201 196 193   197 192 190   201 193 190   203 195 192   203 198 194   205 200 196   206 203 196   206 203 196   205 205 197   204 203 198   203 204 198   207 208 203   211 210 206   209 208 204   204 200 197   198 194 191   196 191 188   196 191 188   195 190 187   193 188 185   192 188 185   197 193 190   198 197 193   201 200 196   204 205 200   210 210 207   206 205 203   206 206 204   206 205 201   204 204 196   199 199 189   194 194 182   190 189 180   188 187 180   192 188 185   189 185 186   187 182 186   189 185 186   196 190 190   198 193 189   197 192 185   196 189 182   198 188 187   202 192 192   203 198 197   200 199 197   200 201 196   200 201 196     0   0   0     0   0   0     0   0   0     0   0   0     0   0   0     0   0   0     0   0   0     0   0   0     0   0   0     0   0   0     0   0   0     0   0   0  
   0   0   0     0   0   0     0   0   0   206 202 199   202 197 194   199 194 191   202 194 191   203 195 192   203 198 194   204 199 195   204 201 194   204 201 194   202 202 194   201 200 195   204 205 199   211 212 207   217 215 212   215 214 210   209 204 202   200 196 193   196 191 188   196 191 188   194 189 186   192 187 184   192 188 185   197 193 190   197 196 192   198 197 193   200 201 196   204 204 202   204 204 204   207 207 205   209 208 204   206 206 198   200 200 190   194 194 182   192 192 182   192 192 184   191 187 184   189 185 184   188 184 185   190 186 187   196 190 190   200 195 191   201 196 190   202 195 189   205 197 195   210 201 202   210 204 204   206 204 203   204 205 200   203 204 199   199 200 195     0   0   0     0   0   0     0   0   0     0   0   0     0   0   0     0   0   0     0   0   0     0   0   0     0   0   0     0   0   0     0   0   0  
   0   0   0     0   0   0     0   0   0   206 202 199   203 198 195   201 196 193   202 194 191   203 195 192   202 197 193   203 198 194   204 201 194   204 201 194   202 202 194   202 201 196   208 209 203   214 215 210   219 218 214   216 215 211   208 204 201   199 195 192   196 191 188   197 192 189   196 191 188   194 189 186   195 191 188   200 196 193   200 199 195   199 198 194   199 200 195   202 202 200   204 204 204   204 204 204   203 204 199   202 202 195   200 200 190   196 196 184   194 194 184   193 193 185   188 184 181   188 184 183   188 184 185   189 185 186   192 188 187   195 192 187   200 195 189   204 197 191   206 198 196   209 201 202   208 204 203   204 203 201   202 203 198   202 204 199   202 203 198   200 199 195     0   0   0     0   0   0     0   0   0     0   0   0     0   0   0     0   0   0     0   0   0     0   0   0     0   0   0     0   0   0  
   0   0   0     0   0   0     0   0   0   206 203 200   204 201 197   202 198 193   200 195 190   200 196 191   201 196 192   200 198 193   202 200 195   204 202 197   205 204 200   207 206 202   212 213 208   216 216 212   217 216 212   212 210 207   204 201 198   197 194 191   195 192 189   198 193 191   198 195 191   197 194 191   200 197 193   205 202 199   206 205 201   204 204 199   203 203 198   203 202 200   203 203 202   202 201 201   199 200 195   198 199 193   200 200 192   197 197 188   193 192 185   189 188 183   188 185 182   190 187 185   192 188 187   193 190 188   195 192 188   198 195 191   201 199 192   205 201 195   205 199 196   207 203 199   207 204 200   203 202 198   200 200 195   202 202 197   206 207 200   209 208 203   217 215 210     0   0   0     0   0   0     0   0   0     0   0   0     0   0   0     0   0   0     0   0   0     0   0   0     0   0   0  
   0   0   0     0   0   0     0   0   0   206 205 200   204 203 197   201 199 192   199 197 190   199 197 190   198 196 191   196 195 191   198 197 193   201 200 197   207 205 205   210 209 208   215 214 210   213 212 208   210 209 205   205 204 200   200 199 195   197 196 192   196 195 191   198 196 192   198 197 193   199 198 194   203 202 198   208 207 203   211 210 206   211 210 206   208 207 203   204 203 199   202 201 198   201 200 197   200 199 195   200 199 195   200 199 194   196 195 191   191 190 185   186 185 181   186 185 181   189 188 184   193 192 188   197 196 192   200 199 195   201 200 196   200 199 195   201 199 194   203 201 196   206 204 199   206 205 199   205 204 199   204 204 197   209 208 203   219 219 211   228 227 222   233 232 227   228 226 221     0   0   0     0   0   0     0   0   0     0   0   0     0   0   0     0   0   0     0   0   0     0   0   0  
   0   0   0     0   0   0     0   0   0   207 206 201   204 204 196   200 200 192   199 199 191   199 199 190   197 196 191   197 195 192   197 196 192   199 198 196   202 200 201   204 202 203   203 202 198   203 202 198   201 200 196   199 198 194   195 194 190   194 193 189   194 193 189   195 194 190   200 199 195   201 200 196   204 203 199   206 205 201   206 205 201   205 204 200   204 203 199   202 201 197   202 201 197   201 200 196   200 199 195   199 198 194   199 198 194   197 195 192   194 193 189   190 189 185   192 191 187   194 193 189   196 195 191   198 197 193   200 200 195   201 200 196   200 200 195   200 199 195   204 203 199   203 202 198   203 202 197   206 205 200   213 213 207   222 221 217   229 228 222   233 232 228   236 235 230   230 229 225   223 222 217     0   0   0     0   0   0     0   0   0     0   0   0     0   0   0     0   0   0     0   0   0  
   0   0   0     0   0   0   208 207 203   206 205 200   204 204 196   200 200 192   200 200 192   199 198 193   197 196 191   196 195 191   197 196 194   198 197 195   198 196 197   198 196 197   196 195 191   197 196 192   197 196 192   196 195 191   194 193 189   193 192 188   193 192 188   194 193 189   198 197 193   201 200 196   204 203 199   203 202 198   201 200 196   200 199 195   201 200 196   202 201 197   203 202 198   202 201 197   201 200 196   200 199 195   200 199 195   199 199 194   199 197 194   198 197 193   197 197 192   198 197 193   199 198 194   200 199 195   200 199 195   200 199 195   200 199 195   200 199 195   202 201 199   201 200 198   202 201 199   205 204 202   211 210 208   218 218 213   224 223 218   226 225 221   228 227 223   224 223 219   218 217 212   212 211 206   207 206 201     0   0   0     0   0   0     0   0   0     0   0   0     0   0   0  
   0   0   0     0   0   0   206 204 201   204 203 199   203 202 197   201 200 195   201 200 195   199 198 193   196 195 190   196 195 191   197 196 194   198 197 195   198 196 197   197 195 196   199 198 194   199 199 194   199 199 194   199 197 194   196 195 191   195 194 190   195 194 190   197 195 192   195 194 190   198 197 193   200 199 195   201 199 196   199 198 194   198 197 193   200 199 195   202 201 197   202 201 197   202 201 197   202 201 197   202 201 197   201 200 196   202 201 197   203 202 198   204 203 199   199 198 194   199 198 194   199 198 194   198 197 193   198 197 193   199 198 194   199 198 194   199 198 196   198 196 197   203 201 203   209 207 209   212 210 211   213 210 212   215 214 212   221 219 218   226 224 223   224 224 222   222 221 219   217 216 212   211 210 206   206 205 200   203 202 197     0   0   0     0   0   0     0   0   0     0   0   0  
   0   0   0     0   0   0   202 201 197   202 200 197   203 202 197   203 202 197   205 204 200   201 200 195   196 196 191   195 194 190   196 195 192   198 197 195   197 195 194   195 194 192   196 195 191   196 195 191   195 194 190   193 192 188   190 189 185   189 188 184   191 190 186   192 191 187   193 192 188   195 194 190   196 195 191   197 196 192   198 197 193   198 197 193   198 197 193   199 198 194   198 197 193   200 199 195   201 200 196   201 200 196   201 200 196   202 201 197   205 204 200   207 205 202   199 198 194   199 198 194   197 196 192   197 195 192   197 196 192   198 197 193   200 198 195   201 200 198   208 206 209   217 214 220   225 223 227   226 224 227   219 217 221   215 213 214   216 214 216   221 219 218   219 218 216   217 215 213   212 210 207   204 203 199   199 198 193   197 196 191   198 197 191     0   0   0     0   0   0     0   0   0  
   0   0   0     0   0   0   201 200 196   202 201 197   205 204 200   207 206 202   211 210 206   206 205 201   199 198 194   195 194 190   196 195 191   197 196 193   195 194 192   193 192 190   194 193 189   194 193 189   192 191 187   190 189 185   188 187 183   188 187 183   190 189 185   192 191 187   194 193 189   194 193 189   194 193 189   196 195 191   198 197 193   198 197 193   196 195 191   194 193 189   193 192 188   196 195 191   199 198 194   200 199 195   200 199 195   201 200 196   203 202 198   206 205 201   200 199 195   199 198 194   197 196 192   196 195 191   197 196 192   200 199 195   202 201 197   204 203 201   207 205 209   217 214 221   227 225 231   229 226 232   222 220 225   215 213 217   214 212 215   215 213 215   210 209 207   208 207 205   204 203 199   197 196 192   193 192 187   193 192 187   198 198 190   202 201 196     0   0   0     0   0   0  
   0   0   0     0   0   0   202 201 197   202 201 197   203 202 200   204 203 201   207 206 203   203 202 200   200 199 195   197 196 192   196 195 191   195 194 190   193 192 189   191 190 187   193 192 188   193 192 188   193 192 188   193 192 188   192 191 187   192 191 187   193 192 188   193 192 188   193 192 188   194 193 189   196 195 191   199 198 194   199 198 194   198 197 193   195 194 190   192 191 187   190 189 185   192 191 187   196 195 191   198 197 193   200 199 195   202 201 197   203 202 198   203 202 198   199 198 194   199 198 194   198 197 193   196 195 191   196 195 191   198 197 193   204 203 199   208 207 205   208 206 211   212 209 216   214 211 218   213 210 217   213 211 216   213 211 216   211 209 212   208 206 208   203 202 200   194 193 191   195 193 190   198 197 193   194 193 188   194 193 188   200 200 192   204 203 198   200 201 195     0   0   0  
   0   0   0     0   0   0   199 198 194   199 198 196   200 199 197   202 201 199   200 199 197   198 197 195   196 195 191   194 193 189   194 193 189   194 193 189   192 191 187   191 190 186   189 188 184   189 188 184   190 189 185   190 189 185   190 189 185   190 189 185   191 190 186   191 190 186   194 193 189   195 194 190   197 196 192   198 197 193   197 196 192   196 195 191   194 193 189   193 192 188   192 191 187   192 191 187   193 192 188   194 193 189   196 195 191   199 198 194   201 200 196   202 201 197   203 202 198   201 200 196   198 197 193   198 197 193   200 199 195   202 201 197   202 201 197   202 201 199   207 205 208   208 205 212   207 205 210   205 203 208   207 205 210   210 208 211   208 206 209   203 201 202   197 196 194   187 186 184   188 187 183   193 193 188   192 191 186   196 195 190   202 202 194   201 200 195   200 201 196   200 201 196  
   0   0   0     0   0   0   198 197 195   199 198 196   201 200 198   203 201 202   204 202 203   201 199 200   196 195 193   193 192 190   192 191 187   191 189 186   189 188 183   188 187 182   188 187 183   187 186 182   186 185 181   186 185 181   187 186 182   188 187 183   189 188 184   190 189 185   191 190 186   192 191 187   194 193 189   195 194 190   195 194 190   196 195 191   195 194 190   195 194 190   195 194 190   194 193 189   193 192 188   193 192 188   194 193 189   197 196 192   200 199 195   202 201 197   204 203 199   200 199 195   199 198 194   205 204 200   214 213 209   218 217 213   214 213 209   207 206 204   206 204 207   207 205 209   206 204 207   204 202 205   203 201 204   203 201 202   200 198 199   195 194 192   192 191 189   186 185 183   186 185 181   187 186 182   187 185 180   196 195 190   203 202 197   198 197 192   199 200 195   199 200 195  
   0   0   0     0   0   0   200 199 197   201 201 198   205 202 203   207 206 206   215 213 214   210 208 209   202 201 200   196 195 193   191 190 186   187 186 182   184 183 177   183 182 177   187 186 182   186 185 181   185 185 180   185 185 180   187 185 182   189 188 184   191 190 186   192 191 187   187 185 182   188 187 183   191 190 186   194 193 189   196 195 191   197 196 192   197 195 192   196 195 191   196 195 191   196 195 191   196 195 191   196 195 191   198 197 193   200 198 195   202 201 197   204 203 199   204 203 199   202 201 197   201 200 196   206 205 201   212 211 207   215 214 210   213 212 208   208 207 204   208 206 206   207 205 206   205 204 204   204 202 202   200 199 199   197 195 193   193 192 189   191 190 187   190 188 186   190 189 187   192 191 187   187 186 182   183 182 177   193 192 187   201 200 195   197 196 191   199 200 195   199 200 195  
   0   0   0     0   0   0     0   0   0   203 202 200   205 203 204   208 206 207   215 213 214   210 208 209   202 201 199   196 195 193   190 189 185   186 185 180   182 182 174   180 179 174   184 183 178   183 182 178   183 182 178   184 183 179   185 184 180   187 186 182   190 189 185   191 190 186   188 187 183   190 189 185   192 191 187   195 194 190   196 195 191   196 195 191   196 195 191   195 194 190   196 195 191   196 195 191   197 196 192   198 197 193   200 199 195   201 200 196   202 201 197   203 202 198   204 203 199   204 203 199   204 203 199   203 202 198   201 200 196   201 200 196   201 200 196   201 200 196   205 204 201   204 203 200   203 202 199   203 202 199   200 199 196   197 196 192   196 195 190   197 196 192   194 193 189   196 195 191   200 199 194   194 193 188   185 184 179   191 190 185   200 199 194   198 197 192   198 199 194   198 199 194  
   0   0   0     0   0   0     0   0   0   201 200 198   202 201 201   205 202 203   207 205 206   203 201 202   198 197 195   192 191 190   188 187 182   185 184 179   181 181 173   178 177 172   178 177 172   179 178 174   180 178 175   181 180 176   183 182 178   185 183 180   186 186 181   187 186 182   190 189 185   191 190 186   191 191 186   192 191 187   193 192 188   195 195 190   198 197 193   198 197 193   201 200 196   200 199 195   199 198 194   199 198 194   198 197 193   200 198 195   201 200 196   202 201 197   199 198 194   201 201 196   203 202 198   202 201 197   199 198 194   198 197 193   200 199 195   202 201 197   199 198 193   198 197 192   198 198 191   201 200 195   199 199 192   198 197 192   201 200 193   206 205 200   202 201 196   196 195 191   199 198 193   200 199 194   193 193 188   194 193 188   199 198 194   196 196 191   196 196 191   196 197 192  
   0   0   0     0   0   0     0   0   0   202 201 199   202 201 199   203 201 202   204 203 201   201 200 198   197 196 194   193 192 188   189 188 184   185 184 179   180 179 174   177 176 171   176 175 170   177 176 172   179 178 174   181 180 176   183 182 178   185 184 180   186 185 181   186 185 181   189 188 184   188 187 183   187 186 182   187 186 182   191 190 186   198 197 193   204 203 199   208 207 203   210 209 207   207 206 204   203 202 199   199 198 196   198 197 195   201 197 194   204 200 197   205 202 199   202 198 195   203 199 196   204 200 197   201 200 195   198 197 192   195 194 189   194 193 188   192 191 186   199 198 193   196 195 190   196 196 188   199 198 193   198 198 190   196 196 188   201 201 193   209 208 203   207 207 202   193 192 187   193 192 187   201 200 196   201 200 196   199 198 194   199 198 194   195 194 192   197 193 192   198 194 193  
   0   0   0     0   0   0     0   0   0   199 200 195   200 199 195   200 199 197   202 201 197   198 197 193   196 192 189   193 189 186   191 187 184   187 183 180   182 178 175   177 174 169   171 168 163   175 172 167   180 177 172   183 180 175   185 181 178   186 182 179   185 184 180   186 185 181   187 186 182   190 189 185   189 189 187   189 189 187   193 193 191   207 207 205   228 228 226   244 244 242   237 237 237   219 219 221   205 203 204   202 199 200   207 203 204   208 202 202   206 199 200   205 199 199   203 198 195   206 201 198   204 199 195   199 196 189   197 197 189   201 201 193   202 203 195   201 201 193   202 201 196   203 199 196   203 200 195   202 198 195   202 199 194   202 199 194   202 199 194   203 200 195   204 201 196   203 199 196   199 198 194   198 197 193   198 197 193   198 197 195   198 197 195   199 195 196   201 191 199     0   0   0  
   0   0   0     0   0   0     0   0   0   199 200 195   200 199 195   200 199 195   199 198 194   198 197 193   196 192 189   194 190 187   192 188 185   188 184 181   182 178 176   178 175 171   177 174 169   178 175 170   180 177 172   182 179 174   185 180 178   187 183 181   189 188 184   191 190 186   191 191 186   191 190 186   189 189 187   188 188 186   192 192 190   202 202 201   218 218 216   229 229 228   234 234 235   221 221 223   210 208 210   208 203 206   207 203 203   205 199 200   204 195 196   203 194 195   204 196 194   206 198 196   202 197 193   200 195 190   198 198 189   202 202 193   204 205 196   203 203 195   203 202 197   205 201 197   204 200 197   203 199 196   202 198 195   202 198 195   202 199 194   202 199 194   204 200 197   202 198 195   198 197 193   198 197 193   198 197 195   199 198 196   198 196 196   199 195 198   203 195 203     0   0   0  
   0   0   0     0   0   0     0   0   0   198 199 194   199 198 194   199 198 194   197 196 192   197 196 192   198 194 191   196 192 189   194 190 187   190 186 183   186 182 179   182 178 175   182 179 174   181 178 173   181 178 173   183 180 175   186 182 179   191 187 184   193 192 188   195 194 190   195 194 190   198 197 193   202 202 200   206 206 204   209 209 207   210 210 208   209 209 207   209 209 207   220 220 220   215 215 215   209 207 208   206 203 203   203 199 198   200 194 194   199 191 192   200 191 192   198 190 188   201 193 191   202 197 193   203 199 194   202 202 195   205 204 198   204 205 197   204 204 197   207 206 201   208 204 201   206 202 199   205 201 198   204 200 197   203 199 196   202 198 195   202 198 195   203 199 196   202 198 195   200 196 193   200 196 193   199 198 196   199 198 196   199 198 196   198 197 198   200 199 205     0   0   0  
   0   0   0     0   0   0     0   0   0     0   0   0   199 198 194   199 198 194   196 195 191   197 195 192   199 195 192   198 194 190   195 192 189   192 188 185   190 186 183   188 184 181   187 184 179   187 184 179   188 184 179   191 188 183   195 191 188   198 194 192   197 196 192   197 196 192   203 202 198   203 202 198   206 206 203   210 210 208   215 215 213   218 218 216   218 218 216   218 218 216   211 211 209   211 211 210   210 209 208   206 205 202   203 199 196   200 195 193   199 194 192   200 194 192   193 188 185   198 192 190   205 200 197   212 208 204   212 212 207   211 210 205   206 207 200   205 204 199   209 208 204   210 205 203   208 204 201   206 202 199   205 200 198   204 200 197   203 199 197   203 199 197   203 199 197   202 198 196   200 196 193   200 196 193   200 196 194   200 197 195   200 196 194   196 196 196   196 200 204     0   0   0  
   0   0   0     0   0   0     0   0   0     0   0   0   200 199 195   200 199 195   197 196 192   198 197 193   200 196 193   199 195 192   197 193 190   196 192 189   195 191 188   195 191 188   197 194 189   197 194 189   199 196 191   204 201 196   208 204 201   210 206 203   205 204 200   202 201 197   207 206 202   207 207 202   209 209 207   212 212 210   216 216 214   216 216 214   215 215 214   214 214 212   209 209 207   211 212 207   210 211 206   204 203 199   200 196 193   199 195 192   199 194 191   198 193 190   198 193 190   204 199 196   214 210 207   225 221 218   225 224 220   220 219 215   212 213 208   209 209 204   211 210 206   212 208 205   210 206 203   208 204 201   207 203 200   205 201 199   205 201 200   205 201 200   205 201 200   203 199 198   201 197 194   200 196 193   200 196 193   200 196 193   199 195 192   196 195 193   195 201 201     0   0   0  
   0   0   0     0   0   0     0   0   0     0   0   0   201 200 196   201 200 196   198 197 193   199 198 194   202 198 195   200 196 193   198 194 191   198 194 191   200 196 193   202 198 195   205 202 197   204 201 196   205 202 197   210 207 202   214 210 207   215 211 208   210 209 205   206 205 201   206 205 201   211 210 206   217 217 214   220 220 218   219 219 217   212 212 210   205 205 203   200 200 198   206 208 203   209 210 204   206 207 201   200 199 194   198 194 191   200 195 193   202 197 194   201 196 193   206 201 198   210 205 202   219 215 214   229 226 225   230 229 227   222 222 220   215 217 214   214 214 212   211 210 206   210 209 205   209 208 204   207 206 202   206 205 203   205 204 202   206 202 201   206 202 203   206 202 201   204 200 199   201 197 194   200 196 193   200 197 192   200 197 192   199 194 189   197 194 189   197 197 194     0   0   0  
   0   0   0     0   0   0     0   0   0     0   0   0   203 202 198   203 202 198   200 199 195   200 199 195   203 199 196   202 198 195   201 197 194   201 197 194   204 200 197   206 202 200   208 206 201   207 204 199   208 205 200   210 206 201   212 208 205   213 209 206   210 209 205   208 207 203   209 208 204   212 210 207   214 214 212   215 215 213   214 214 212   212 212 210   210 210 208   209 209 207   205 208 201   207 210 203   207 208 202   202 203 197   201 200 196   205 201 198   207 203 200   208 203 200   209 204 201   211 206 203   217 214 213   224 223 221   225 225 223   220 220 218   214 216 213   212 214 211   210 211 206   210 210 205   208 208 204   206 205 203   205 204 202   205 203 204   206 202 203   206 203 204   206 202 202   204 200 199   202 198 195   200 196 193   200 197 192   199 195 190   197 192 185   196 190 183     0   0   0     0   0   0  
   0   0   0     0   0   0     0   0   0     0   0   0     0   0   0   204 203 199   198 197 193   200 199 195   203 199 196   204 200 197   204 200 197   205 201 198   207 203 200   208 204 201   209 206 201   209 206 201   209 206 201   208 205 200   207 203 200   207 203 200   207 206 202   209 208 204   210 209 205   211 210 206   212 212 210   212 212 210   211 211 209   209 209 207   206 206 204   204 204 202   204 206 200   207 210 203   210 211 205   209 210 204   206 205 201   205 202 199   207 203 200   209 205 202   208 204 201   211 207 204   212 211 209   217 216 214   218 218 216   217 217 215   212 214 211   208 210 207   211 212 207   210 211 206   207 207 205   204 204 202   204 202 202   203 201 203   204 202 204   204 202 205   204 200 201   202 198 198   202 197 195   202 197 193   202 197 192   200 195 188   196 192 183     0   0   0     0   0   0     0   0   0  
   0   0   0     0   0   0     0   0   0     0   0   0     0   0   0   201 200 196   195 194 190   196 196 191   200 196 192   201 197 194   201 197 194   202 198 195   204 200 197   206 202 199   206 203 198   206 202 197   205 201 196   204 201 196   205 201 198   207 203 200   206 205 201   206 205 201   210 210 205   210 209 205   209 209 207   208 208 206   208 208 206   208 208 206   207 207 205   207 207 205   206 208 205   209 211 205   212 213 207   210 211 205   208 207 203   205 205 200   209 205 202   210 206 203   209 205 202   209 205 202   210 208 205   213 212 208   214 215 211   214 215 210   210 212 208   208 210 206   209 211 206   208 210 205   207 207 205   205 205 203   203 203 203   203 202 205   205 203 205   205 203 207   203 198 202   202 198 199   202 196 196   202 197 193   203 197 191   201 195 187     0   0   0     0   0   0     0   0   0     0   0   0  
   0   0   0     0   0   0     0   0   0     0   0   0     0   0   0     0   0   0   197 196 192   197 196 192   199 195 192   197 193 190   196 192 189   195 191 188   198 193 190   199 195 192   204 201 196   202 199 194   201 198 193   204 201 196   209 205 202   213 209 206   213 212 208   212 211 207   212 211 207   212 211 207   210 210 208   210 210 208   210 210 208   210 210 208   210 210 208   210 210 208   206 208 205   208 210 207   209 211 208   209 210 205   207 206 202   205 204 200   207 203 200   208 204 201   209 205 202   209 205 202   208 207 203   209 208 204   211 212 207   212 213 208   210 213 206   209 211 206   211 213 208   210 212 207   209 209 207   207 207 207   205 205 205   204 204 206   204 202 207   204 202 207   203 198 202   202 198 199   202 196 196   201 196 192   203 196 190     0   0   0     0   0   0     0   0   0     0   0   0     0   0   0  
   0   0   0     0   0   0     0   0   0     0   0   0     0   0   0     0   0   0   196 194 191   196 194 191   197 193 189   195 191 188   193 189 186   193 189 186   195 191 188   197 193 190   201 198 193   199 196 191   198 195 190   202 199 194   208 204 201   212 208 205   212 211 207   212 211 207   211 210 206   211 210 206   212 212 210   212 212 210   212 212 210   211 211 209   210 210 208   209 209 207   208 210 209   208 210 209   208 210 209   208 208 206   208 207 205   206 205 203   205 204 202   205 204 202   208 207 203   207 206 202   206 205 200   207 206 201   209 210 203   209 212 204   208 214 204   207 212 204   213 215 210   212 214 209   210 212 209   207 209 208   206 206 206   204 204 206   203 201 206   203 201 206   203 198 202   202 198 199   202 196 196   200 195 191     0   0   0     0   0   0     0   0   0     0   0   0     0   0   0     0   0   0  
   0   0   0     0   0   0     0   0   0     0   0   0     0   0   0     0   0   0     0   0   0   193 192 188   194 190 187   193 189 186   193 189 186   194 190 187   197 193 190   200 196 193   205 202 197   204 201 196   204 201 196   205 202 197   208 204 201   210 206 203   211 210 206   211 210 206   210 209 205   211 210 206   211 211 209   210 210 209   210 210 208   210 210 208   208 208 206   207 207 206   208 212 211   208 212 211   209 210 210   208 209 209   208 208 206   207 206 205   205 205 203   204 203 201   205 204 200   204 203 199   203 202 197   203 204 197   204 207 198   206 209 199   205 211 200   205 211 201   210 213 206   209 211 206   208 210 207   206 208 207   205 205 207   203 202 207   202 200 205   200 198 204   203 198 202   202 197 199   202 195 195     0   0   0     0   0   0     0   0   0     0   0   0     0   0   0     0   0   0     0   0   0  
   0   0   0     0   0   0     0   0   0     0   0   0     0   0   0     0   0   0     0   0   0   195 194 190   195 191 188   194 190 187   193 189 186   195 191 188   198 194 191   200 196 193   206 203 198   208 204 200   209 206 201   210 206 202   210 206 203   211 207 204   213 212 208   216 215 211   215 214 210   214 213 209   212 212 210   210 210 208   209 209 207   209 209 207   209 209 207   210 210 209   208 211 211   207 210 211   207 209 209   207 207 208   206 206 206   206 205 204   204 203 201   202 201 199   201 200 196   201 200 196   200 200 194   201 201 193   202 205 194   204 206 195   203 207 196   202 206 196   204 206 199   205 206 201   204 206 202   204 205 203   203 203 204   202 201 205   201 199 204   200 198 204   202 197 202   201 197 199     0   0   0     0   0   0     0   0   0     0   0   0     0   0   0     0   0   0     0   0   0     0   0   0  
   0   0   0     0   0   0     0   0   0     0   0   0     0   0   0     0   0   0     0   0   0     0   0   0   195 191 190   195 191 188   196 192 189   197 193 189   200 196 192   204 200 196   208 206 202   208 206 203   208 207 202   213 211 208   217 216 213   219 217 215   217 216 213   214 213 210   213 212 210   212 211 209   211 210 208   210 210 208   211 210 208   211 210 208   210 210 208   210 210 207   208 209 205   206 206 203   204 205 201   203 204 200   203 203 200   203 202 200   200 199 197   199 196 194   203 200 197   199 196 192   199 196 191   204 202 195   208 206 196   206 204 195   204 202 191   205 203 194   203 201 193   202 202 195   203 203 196   204 203 199   203 202 199   203 200 200   202 198 200   200 196 199   204 199 201     0   0   0     0   0   0     0   0   0     0   0   0     0   0   0     0   0   0     0   0   0     0   0   0     0   0   0  
   0   0   0     0   0   0     0   0   0     0   0   0     0   0   0     0   0   0     0   0   0     0   0   0   195 191 190   198 194 192   199 197 192   200 197 192   203 200 193   207 204 199   209 208 204   209 208 206   211 209 207   217 216 214   224 223 221   226 224 223   223 222 220   220 219 217   212 211 209   210 209 207   209 208 206   208 207 205   210 209 207   210 209 207   210 209 207   209 208 206   206 207 201   203 204 198   201 202 196   201 202 197   203 202 198   203 202 198   203 200 199   202 197 197   203 199 196   203 199 196   206 201 197   209 204 199   210 203 197   206 199 191   205 198 188   207 200 190   202 199 190   202 199 190   202 199 192   202 199 194   202 199 194   202 198 195   202 198 197   202 198 197     0   0   0     0   0   0     0   0   0     0   0   0     0   0   0     0   0   0     0   0   0     0   0   0     0   0   0     0   0   0  
   0   0   0     0   0   0     0   0   0     0   0   0     0   0   0     0   0   0     0   0   0     0   0   0     0   0   0   201 197 196   204 201 196   204 201 196   208 205 198   213 210 205   213 212 208   213 212 210   213 212 210   216 215 213   218 217 215   219 218 216   218 217 215   217 216 214   210 209 207   208 207 205   205 204 202   204 203 201   205 204 202   207 206 204   207 206 204   207 206 204   203 204 198   202 203 197   201 200 196   201 200 196   203 202 198   205 204 202   207 203 202   207 203 202   203 198 198   210 205 203   215 210 207   213 208 204   208 203 197   205 201 193   208 202 192   208 201 191   204 201 192   203 200 191   202 199 192   201 198 193   200 197 192   201 197 194   201 197 196     0   0   0     0   0   0     0   0   0     0   0   0     0   0   0     0   0   0     0   0   0     0   0   0     0   0   0     0   0   0     0   0   0  
   0   0   0     0   0   0     0   0   0     0   0   0     0   0   0     0   0   0     0   0   0     0   0   0     0   0   0   201 197 196   205 201 198   208 205 200   215 212 206   223 220 215   224 223 219   222 221 219   219 218 216   215 214 212   212 211 209   210 209 207   210 208 206   210 208 206   211 210 208   208 207 205   205 204 202   203 202 200   203 202 201   205 204 202   206 205 203   206 206 203   203 205 198   202 203 197   202 201 197   202 201 197   203 202 200   205 204 202   209 206 205   211 208 207   211 208 206   218 214 213   222 217 214   218 214 209   213 209 203   213 208 202   212 208 199   210 205 197   206 203 194   205 202 195   205 201 195   203 200 195   202 198 195   201 197 195     0   0   0     0   0   0     0   0   0     0   0   0     0   0   0     0   0   0     0   0   0     0   0   0     0   0   0     0   0   0     0   0   0     0   0   0  
   0   0   0     0   0   0     0   0   0     0   0   0     0   0   0     0   0   0     0   0   0     0   0   0   196 192 191   200 196 195   204 200 197   209 205 202   220 217 212   231 227 223   228 227 224   224 223 221   218 217 215   214 213 211   212 211 209   212 211 209   214 213 211   215 214 212   215 214 212   212 211 209   209 208 206   208 207 205   208 207 205   209 208 206   210 209 207   210 209 207   206 207 201   205 206 200   204 203 199   204 203 199   204 203 201   207 206 204   212 211 209   216 215 213   228 224 223   228 224 223   227 223 220   225 221 217   220 217 210   216 212 205   212 209 200   211 207 198   210 207 199   210 207 200   209 206 200   207 204 199   206 202 199   204 200 197     0   0   0     0   0   0     0   0   0     0   0   0     0   0   0     0   0   0     0   0   0     0   0   0     0   0   0     0   0   0     0   0   0     0   0   0  
   0   0   0     0   0   0     0   0   0     0   0   0     0   0   0     0   0   0     0   0   0     0   0   0   200 196 194   205 201 198   208 204 201   213 209 206   224 221 217   236 232 229   227 226 224   220 219 217   213 212 210   210 209 207   211 210 208   215 214 212   217 216 214   219 218 215   216 215 213   214 213 211   212 210 209   210 210 208   210 210 208   211 210 208   211 210 208   210 209 207   206 206 201   205 205 200   205 205 200   205 204 200   205 204 202   210 209 207   217 215 215   222 220 220   240 238 236   234 232 230   232 230 227   233 232 228   226 225 218   216 213 206   215 212 203   222 218 209   229 226 219   226 223 218   221 218 213   214 212 207   210 206 203   206 202 201     0   0   0     0   0   0     0   0   0     0   0   0     0   0   0     0   0   0     0   0   0     0   0   0     0   0   0     0   0   0     0   0   0     0   0   0  
   0   0   0     0   0   0     0   0   0     0   0   0     0   0   0     0   0   0     0   0   0   202 198 197   209 205 202   214 210 207   217 213 210   220 216 213   230 226 223   242 237 234   238 237 235   229 228 226   217 216 214   212 212 209   214 214 212   219 218 216   219 218 216   218 217 215   213 212 210   211 210 208   210 209 207   209 208 206   209 208 206   209 208 206   207 206 204   206 205 203   205 204 200   205 204 200   205 204 200   205 204 202   207 206 204   213 212 210   222 219 220   228 226 227   244 243 241   238 237 234   239 238 234   244 243 239   234 233 228   219 218 210   223 223 213   241 238 231   253 253 247   250 247 242   237 233 228   224 220 217   214 209 208   208 204 203     0   0   0     0   0   0     0   0   0     0   0   0     0   0   0     0   0   0     0   0   0     0   0   0     0   0   0     0   0   0     0   0   0     0   0   0  
   0   0   0     0   0   0     0   0   0     0   0   0     0   0   0     0   0   0   204 200 197   210 206 203   211 207 204   208 204 201   213 209 206   225 221 218   232 228 227   229 225 224   223 223 218   224 223 219   223 222 218   218 217 213   212 211 207   209 208 204   209 208 204   209 209 204   207 207 202   207 207 202   207 206 202   206 205 201   206 205 201   206 205 201   206 205 201   206 205 201   206 205 201   204 203 199   203 202 200   207 206 204   213 212 211   218 216 217   219 217 218   217 215 216   229 227 229   234 233 231   224 225 220   226 227 222   226 227 221   227 228 222   244 245 237   250 250 242   253 252 247   253 250 245   243 239 236   226 222 219   211 207 206   205 201 200     0   0   0     0   0   0     0   0   0     0   0   0     0   0   0     0   0   0     0   0   0     0   0   0     0   0   0     0   0   0     0   0   0     0   0   0  
   0   0   0     0   0   0     0   0   0     0   0   0     0   0   0   201 197 193   202 199 195   207 203 199   209 205 202   212 208 205   224 220 218   239 234 234   242 238 237   237 233 232   231 230 226   228 227 223   223 222 218   217 216 212   211 211 206   207 206 202   206 205 201   205 204 200   203 202 198   203 202 198   205 204 200   205 205 200   207 205 202   208 207 203   208 207 203   208 207 203   207 205 202   204 203 200   203 202 200   203 202 200   207 205 206   212 210 211   216 215 216   219 218 219   226 225 226   233 231 232   226 226 224   226 227 222   224 225 219   226 228 221   246 247 239   253 253 246   233 233 228   236 232 229   229 225 222   216 212 210   206 202 201   204 200 199     0   0   0     0   0   0     0   0   0     0   0   0     0   0   0     0   0   0     0   0   0     0   0   0     0   0   0     0   0   0     0   0   0     0   0   0  
   0   0   0     0   0   0     0   0   0     0   0   0     0   0   0   203 200 195   200 197 192   204 201 196   209 205 201   217 213 210   233 229 228   247 243 242   250 246 246   245 241 240   235 234 230   230 229 225   224 223 219   218 217 213   214 213 209   211 210 206   206 205 201   203 202 198   203 202 198     0   0   0     0   0   0     0   0   0     0   0   0     0   0   0   205 204 200   205 204 200   205 204 202   203 202 200   201 200 198   199 197 197   199 197 198   206 204 205   214 214 216   221 221 223   231 231 231   238 238 238   231 231 229   230 231 227   224 227 221   221 224 217   236 239 230   240 241 234   230 229 224   232 228 225   227 223 221   217 213 212   210 206 205     0   0   0     0   0   0     0   0   0     0   0   0     0   0   0     0   0   0     0   0   0     0   0   0     0   0   0     0   0   0     0   0   0     0   0   0     0   0   0  
   0   0   0     0   0   0     0   0   0     0   0   0   207 204 198   206 203 197   201 198 192   206 203 198   212 209 204   219 215 212   228 224 223   238 234 233   241 238 239   240 236 235   232 231 227   228 227 222   222 221 216     0   0   0     0   0   0     0   0   0     0   0   0     0   0   0     0   0   0     0   0   0     0   0   0     0   0   0     0   0   0     0   0   0     0   0   0     0   0   0     0   0   0     0   0   0     0   0   0     0   0   0   195 192 193   201 199 201   211 211 213   221 221 223   232 232 234   238 238 238   231 233 230   235 237 234   234 238 232   227 232 225   232 237 227   228 231 224   228 227 223   230 226 225   225 221 220   215 211 210   207 203 204     0   0   0     0   0   0     0   0   0     0   0   0     0   0   0     0   0   0     0   0   0     0   0   0     0   0   0     0   0   0     0   0   0     0   0   0     0   0   0  
   0   0   0     0   0   0     0   0   0   216 213 208   209 206 199   203 200 193   206 203 196   211 208 202   217 214 209   222 218 214   225 221 218   227 223 222   228 224 225     0   0   0     0   0   0     0   0   0     0   0   0     0   0   0     0   0   0     0   0   0     0   0   0     0   0   0     0   0   0     0   0   0     0   0   0     0   0   0     0   0   0     0   0   0     0   0   0     0   0   0     0   0   0     0   0   0     0   0   0     0   0   0     0   0   0     0   0   0     0   0   0   215 215 218   220 220 222   226 226 228   225 227 224   239 241 238   246 251 245   243 248 241   244 249 241   234 237 230   218 217 213   221 217 216   217 213 212   208 205 203   202 198 199     0   0   0     0   0   0     0   0   0     0   0   0     0   0   0     0   0   0     0   0   0     0   0   0     0   0   0     0   0   0     0   0   0     0   0   0     0   0   0  
   0   0   0     0   0   0   225 222 217   226 223 218   220 217 210   212 209 203   210 207 200   214 211 204   222 219 214   232 228 225     0   0   0     0   0   0     0   0   0     0   0   0     0   0   0     0   0   0     0   0   0     0   0   0     0   0   0     0   0   0     0   0   0     0   0   0     0   0   0     0   0   0     0   0   0     0   0   0     0   0   0     0   0   0     0   0   0     0   0   0     0   0   0     0   0   0     0   0   0     0   0   0     0   0   0     0   0   0     0   0   0     0   0   0     0   0   0   217 218 219   218 219 217   233 235 232   239 243 237   234 239 233   235 240 233   226 229 222   208 207 203   211 207 206   209 206 204   204 201 199   201 197 198     0   0   0     0   0   0     0   0   0     0   0   0     0   0   0     0   0   0     0   0   0     0   0   0     0   0   0     0   0   0     0   0   0     0   0   0     0   0   0  
   0   0   0     0   0   0   228 225 222   225 225 220   217 216 211   208 208 203   207 207 202   215 215 210     0   0   0     0   0   0     0   0   0     0   0   0     0   0   0     0   0   0     0   0   0     0   0   0     0   0   0     0   0   0     0   0   0     0   0   0     0   0   0     0   0   0     0   0   0     0   0   0     0   0   0     0   0   0     0   0   0     0   0   0     0   0   0     0   0   0     0   0   0     0   0   0     0   0   0     0   0   0     0   0   0     0   0   0     0   0   0     0   0   0     0   0   0     0   0   0     0   0   0   223 222 220   226 225 221   220 219 215   217 216 211   211 210 206   203 202 198   203 203 201   202 202 199   199 198 195   198 195 193     0   0   0     0   0   0     0   0   0     0   0   0     0   0   0     0   0   0     0   0   0     0   0   0     0   0   0     0   0   0     0   0   0     0   0   0     0   0   0  
   0   0   0   216 215 213   216 215 213   214 214 211   213 214 210     0   0   0     0   0   0     0   0   0     0   0   0     0   0   0     0   0   0     0   0   0     0   0   0     0   0   0     0   0   0     0   0   0     0   0   0     0   0   0     0   0   0     0   0   0     0   0   0     0   0   0     0   0   0     0   0   0     0   0   0     0   0   0     0   0   0     0   0   0     0   0   0     0   0   0     0   0   0     0   0   0     0   0   0     0   0   0     0   0   0     0   0   0     0   0   0     0   0   0     0   0   0     0   0   0     0   0   0     0   0   0     0   0   0   222 216 213   213 207 203   215 211 208   201 202 197   198 201 198   197 198 193   194 195 190   192 191 185     0   0   0     0   0   0     0   0   0     0   0   0     0   0   0     0   0   0     0   0   0     0   0   0     0   0   0     0   0   0     0   0   0     0   0   0     0   0   0  
 218 218 215   219 218 216   214 214 212     0   0   0     0   0   0     0   0   0     0   0   0     0   0   0     0   0   0     0   0   0     0   0   0     0   0   0     0   0   0     0   0   0     0   0   0     0   0   0     0   0   0     0   0   0     0   0   0     0   0   0     0   0   0     0   0   0     0   0   0     0   0   0     0   0   0     0   0   0     0   0   0     0   0   0     0   0   0     0   0   0     0   0   0     0   0   0     0   0   0     0   0   0     0   0   0     0   0   0     0   0   0     0   0   0     0   0   0     0   0   0     0   0   0     0   0   0     0   0   0     0   0   0     0   0   0   210 205 202   201 203 198   195 200 197   193 195 190   191 191 186     0   0   0     0   0   0     0   0   0     0   0   0     0   0   0     0   0   0     0   0   0     0   0   0     0   0   0     0   0   0     0   0   0     0   0   0     0   0   0     0   0   0  
 219 219 217   218 218 216   212 212 210     0   0   0     0   0   0     0   0   0     0   0   0     0   0   0     0   0   0     0   0   0     0   0   0     0   0   0     0   0   0     0   0   0     0   0   0     0   0   0     0   0   0     0   0   0     0   0   0     0   0   0     0   0   0     0   0   0     0   0   0     0   0   0     0   0   0     0   0   0     0   0   0     0   0   0     0   0   0     0   0   0     0   0   0     0   0   0     0   0   0     0   0   0     0   0   0     0   0   0     0   0   0     0   0   0     0   0   0     0   0   0     0   0   0     0   0   0     0   0   0     0   0   0     0   0   0     0   0   0     0   0   0   194 196 193   188 190 185   185 186 180     0   0   0     0   0   0     0   0   0     0   0   0     0   0   0     0   0   0     0   0   0     0   0   0     0   0   0     0   0   0     0   0   0     0   0   0     0   0   0     0   0   0  
