P3
50 61
255
  45  53  38    41  50  35     0   0   0     0   0   0     0   0   0     0   0   0     0   0   0     0   0   0     0   0   0     0   0   0     0   0   0     0   0   0     0   0   0     0   0   0     0   0   0     0   0   0     0   0   0     0   0   0     0   0   0     0   0   0     0   0   0     0   0   0     0   0   0     0   0   0     0   0   0     0   0   0     0   0   0     0   0   0     0   0   0     0   0   0     0   0   0     0   0   0     0   0   0     0   0   0     0   0   0     0   0   0     0   0   0     0   0   0     0   0   0     0   0   0     0   0   0     0   0   0     0   0   0     0   0   0     0   0   0     0   0   0     0   0   0     0   0   0    20  26  19    43  50  43  
  42  49  34    36  45  30    29  39  22     0   0   0     0   0   0     0   0   0     0   0   0     0   0   0     0   0   0     0   0   0     0   0   0     0   0   0     0   0   0     0   0   0     0   0   0     0   0   0     0   0   0     0   0   0     0   0   0     0   0   0     0   0   0     0   0   0     0   0   0     0   0   0     0   0   0     0   0   0     0   0   0     0   0   0     0   0   0     0   0   0     0   0   0     0   0   0     0   0   0     0   0   0     0   0   0     0   0   0     0   0   0     0   0   0     0   0   0     0   0   0     0   0   0     0   0   0     0   0   0     0   0   0     0   0   0     0   0   0     0   0   0    13  15  10     4   6   3    49  50  46  
  39  45  29    34  41  25    30  37  20    27  33  13     0   0   0     0   0   0     0   0   0     0   0   0     0   0   0     0   0   0     0   0   0     0   0   0     0   0   0     0   0   0     0   0   0     0   0   0     0   0   0     0   0   0     0   0   0     0   0   0     0   0   0     0   0   0     0   0   0     0   0   0     0   0   0     0   0   0     0   0   0     0   0   0     0   0   0     0   0   0     0   0   0     0   0   0     0   0   0     0   0   0     0   0   0    21  24  17    21  24  17    20  23  16    19  21  14    19  20  14    21  22  16    20  22  15    20  21  14    22  20  11    22  18   9    25  22  15    20  17  11    16  15  10    17  15  11     0   0   0  
   0   0   0     0   0   0    31  35  18    28  32  13    26  29   8     0   0   0     0   0   0     0   0   0     0   0   0     0   0   0     0   0   0     0   0   0     0   0   0     0   0   0     0   0   0     0   0   0     0   0   0     0   0   0     0   0   0     0   0   0     0   0   0     0   0   0     0   0   0     0   0   0     0   0   0     0   0   0     0   0   0     0   0   0     0   0   0     0   0   0     0   0   0     0   0   0     0   0   0     0   0   0    18  24  14    20  23  14    20  24  15    20  23  14    19  21  12    20  21  13    21  22  14    20  22  14    20  21  12    25  23  12    19  12   2    20  16   7    24  19  14     0   0   0     0   0   0     0   0   0  
   0   0   0     0   0   0    29  34  15    27  31  10    25  28   7    23  26   5     0   0   0     0   0   0     0   0   0     0   0   0     0   0   0     0   0   0     0   0   0     0   0   0     0   0   0     0   0   0     0   0   0     0   0   0     0   0   0     0   0   0     0   0   0     0   0   0     0   0   0     0   0   0     0   0   0     0   0   0     0   0   0     0   0   0     0   0   0     0   0   0     0   0   0     0   0   0    17  23  11    17  23  11    17  23  11    19  22  11    19  22  11    20  23  12    19  21  10    20  22  11    21  23  12    21  23  12    21  22  11    26  25  13    19  15   4    24  21  12    22  20  12     0   0   0     0   0   0     0   0   0  
   0   0   0     0   0   0     0   0   0    25  29   8    24  27   6    22  25   4    20  23   2     0   0   0     0   0   0     0   0   0     0   0   0     0   0   0     0   0   0     0   0   0     0   0   0     0   0   0     0   0   0     0   0   0     0   0   0     0   0   0     0   0   0     0   0   0     0   0   0     0   0   0     0   0   0     0   0   0     0   0   0     0   0   0     0   0   0     0   0   0     0   0   0    14  20   8    16  22  10    18  24  12    18  24  12    19  22  11    19  22  11    20  23  12    19  21  10    20  22  11    21  23  12    20  23  12    20  21  10    20  18   6    22  20   8    29  27  18    26  25  18     0   0   0     0   0   0     0   0   0  
   0   0   0     0   0   0     0   0   0    23  27   6    22  25   4    21  24   3    19  22   1    18  21   1     0   0   0     0   0   0     0   0   0     0   0   0     0   0   0     0   0   0     0   0   0     0   0   0     0   0   0     0   0   0     0   0   0     0   0   0     0   0   0     0   0   0     0   0   0     0   0   0     0   0   0     0   0   0     0   0   0     0   0   0     0   0   0     0   0   0    13  20   4    15  21   6    17  24   8    18  25   9    18  25   9    20  24   9    19  23   8    19  23   8    19  21   7    19  21   7    20  22   8    20  23   9    20  22   8    17  18   6    22  22  10    21  21  11     0   0   0     0   0   0     0   0   0     0   0   0  
   0   0   0     0   0   0     0   0   0    21  25   5    20  23   2    20  23   2    19  22   1    18  21   1     0   0   0     0   0   0     0   0   0     0   0   0     0   0   0     0   0   0     0   0   0     0   0   0     0   0   0     0   0   0     0   0   0     0   0   0     0   0   0     0   0   0     0   0   0     0   0   0     0   0   0     0   0   0     0   0   0     0   0   0     0   0   0    17  21   6    14  21   5    15  22   6    16  23   7    17  24   8    17  24   8    19  23   8    19  23   8    19  23   8    18  21   6    18  20   6    19  21   7    20  22   8    19  21   7    19  19   7    21  21   9    17  18   8     0   0   0     0   0   0     0   0   0     0   0   0  
   0   0   0     0   0   0     0   0   0     0   0   0    19  22   3    19  22   3    19  22   3    19  22   3    19  22   3     0   0   0     0   0   0     0   0   0     0   0   0     0   0   0     0   0   0     0   0   0     0   0   0     0   0   0     0   0   0     0   0   0     0   0   0     0   0   0     0   0   0     0   0   0     0   0   0     0   0   0     0   0   0     0   0   0    15  19   2    16  20   3    15  22   4    15  22   4    14  21   3    14  21   3    15  22   4    17  21   4    18  22   5    18  22   5    17  20   3    17  20   3    18  21   4    19  22   5    18  21   4    14  16   1    11  13   1    22  25  14     0   0   0     0   0   0     0   0   0     0   0   0  
   0   0   0     0   0   0     0   0   0     0   0   0    18  21   2    18  21   2    19  22   3    19  22   3    19  22   3    19  22   3     0   0   0     0   0   0     0   0   0     0   0   0     0   0   0     0   0   0     0   0   0     0   0   0     0   0   0     0   0   0     0   0   0     0   0   0     0   0   0     0   0   0     0   0   0     0   0   0    17  21   4    16  20   3    13  17   1    15  19   2    15  22   4    14  20   3    13  20   2    12  19   1    12  19   1    15  19   2    16  20   3    17  21   4    16  19   2    17  20   3    18  21   4    18  20   4    17  20   3    20  22   8    11  13   1    25  28  17     0   0   0     0   0   0     0   0   0     0   0   0  
   0   0   0     0   0   0     0   0   0     0   0   0     0   0   0    21  24   7    22  25   8    21  24   7    20  23   6    22  25   8    18  21   4     0   0   0     0   0   0     0   0   0     0   0   0     0   0   0     0   0   0     0   0   0     0   0   0     0   0   0     0   0   0     0   0   0     0   0   0     0   0   0     0   0   0    16  20   3    16  20   3    16  20   3    16  20   3    16  20   3    15  22   4    14  21   3    14  21   3    13  20   2    14  21   3    17  21   4    17  21   4    16  20   3    16  19   2    16  19   2    16  19   2    17  20   3    19  22   5    17  19   4    19  22   7    19  23   9     0   0   0     0   0   0     0   0   0     0   0   0  
   0   0   0     0   0   0     0   0   0     0   0   0     0   0   0    20  22   8    22  24  10    22  24  10    22  24  10    24  27  10    20  23   6    21  24   7     0   0   0     0   0   0     0   0   0     0   0   0     0   0   0     0   0   0     0   0   0     0   0   0     0   0   0     0   0   0    16  20   3    16  20   3    16  20   3    16  20   3    16  20   3    16  20   3    16  20   3    16  20   3    16  23   5    15  22   4    14  21   3    14  21   3    15  22   4    17  21   4    18  22   5    17  21   4    17  20   3    16  19   2    17  20   3    18  21   4    19  22   5    19  21   6    21  23   9    19  22   9     0   0   0     0   0   0     0   0   0     0   0   0  
   0   0   0     0   0   0     0   0   0     0   0   0     0   0   0    20  22   9    22  24  11    23  25  11    23  25  10    26  28  14    21  23   9    22  25  11    24  26  12     0   0   0     0   0   0     0   0   0    23  26  11    22  28  12    20  27  11    20  27  11    19  26  10    19  26  10    19  26  10    16  23   7    15  22   6    15  22   6    15  22   6    15  22   6    15  22   6    15  22   6    17  24   8    17  24   8    16  23   7    15  22   6    16  23   7    18  22   7    18  22   7    17  21   6    18  20   6    18  20   6    18  20   6    19  21   7    20  22   8    21  23   9    21  23   9     0   0   0     0   0   0     0   0   0     0   0   0     0   0   0  
   0   0   0     0   0   0     0   0   0     0   0   0     0   0   0     0   0   0    24  26  15    24  26  15    23  25  14    26  28  15    20  22   9    21  23  11    23  25  12    23  25  11    22  24  10    21  23   9    22  24  10    23  28  13    21  27  13    20  26  12    20  26  12    19  25  11    19  25  11    16  22   8    16  22   8    16  22   8    16  22   8    16  22   8    16  22   8    16  22   8    18  24  10    18  24  10    18  24  10    17  23   9    17  23   9    19  23   9    18  22   8    17  21   7    18  20   7    19  21   8    19  21   8    19  21   8    20  22   9    21  23   9    22  23   9     0   0   0     0   0   0     0   0   0     0   0   0     0   0   0  
   0   0   0     0   0   0     0   0   0     0   0   0     0   0   0     0   0   0    25  25  18    23  24  16    21  22  14    23  24  14    21  23  12    22  24  11    23  25  12    24  25  13    23  25  12    22  24  11    19  23   9    16  22   8    16  22   8    16  22   8    15  21   7    15  20   7    14  20   6    16  22   8    17  23   9    17  23   9    17  23   9    17  23   9    17  23   9    17  23   9    19  25  11    19  25  11    19  25  11    18  24  10    18  24  10    19  23   9    18  22   8    17  21   7    18  21   8    19  21   8    20  22   9    20  22   9    20  22   9    20  21   7    20  21   7     0   0   0     0   0   0     0   0   0     0   0   0     0   0   0  
   0   0   0     0   0   0     0   0   0     0   0   0     0   0   0     0   0   0    23  24  18    21  22  16    19  20  14    20  21  13    23  24  16    22  24  13    23  25  14    24  25  15    24  26  13    23  25  12    21  24  13    19  24  12    18  24  12    18  24  12    19  25  13    19  25  13    19  25  13    18  24  12    18  24  12    18  24  12    18  24  12    18  24  12    18  24  12    18  24  12    19  25  13    20  26  14    20  26  14    19  25  13    18  24  12    19  22  11    18  20  10    17  20   9    18  20  10    20  22  11    20  22  11    20  22  11    20  21  11     0   0   0     0   0   0     0   0   0     0   0   0     0   0   0     0   0   0     0   0   0  
   0   0   0     0   0   0     0   0   0     0   0   0     0   0   0     0   0   0    19  20  15    18  19  14    16  17  11    17  18  12    21  22  15    18  19  11    18  19  10    19  20  10    20  22  11    19  21  10    17  21  10    19  25  14    19  25  15    20  26  16    21  27  17    21  27  17    22  28  18    19  25  15    18  24  14    18  24  14    18  24  14    18  24  14    18  24  14    18  24  14    19  25  15    20  26  16    20  26  16    19  25  15    18  24  14    18  21  12    17  20  11    17  20  11    18  20  12    20  21  13    20  21  13    20  20  13     0   0   0     0   0   0     0   0   0     0   0   0     0   0   0     0   0   0     0   0   0     0   0   0  
   0   0   0     0   0   0     0   0   0     0   0   0     0   0   0     0   0   0     0   0   0    16  17  12    15  16  10    16  17  11    16  17  11    12  13   7    11  12   5    12  13   5    14  15   7    14  15   7    13  14   6    12  15   6    13  15   7    14  17   8    15  18  11    16  19  12    17  20  13    19  22  15    20  23  16    20  23  16    20  23  15    20  23  14    20  23  14    20  23  14    21  24  15    22  25  18    22  25  18    21  24  17    20  23  16    18  21  14    17  20  13    16  19  12    18  20  13    19  20  14     0   0   0     0   0   0     0   0   0     0   0   0     0   0   0     0   0   0     0   0   0     0   0   0     0   0   0     0   0   0  
   0   0   0     0   0   0     0   0   0     0   0   0     0   0   0     0   0   0     0   0   0    16  17  12    16  17  12    17  18  13    16  17  12    15  16  11    15  16  10    14  15   9    13  14   8    13  14   8    13  15   8    16  18   9    15  18  10    12  15   8    11  13   8    13  16  12    15  17  15    13  16  15    15  17  14    19  21  18    21  24  18    19  22  15    19  22  14    24  27  17    24  27  20    23  26  19    23  26  19    21  24  17    20  21  15    19  20  14    17  18  12    15  16  10    15  17  10     0   0   0     0   0   0     0   0   0     0   0   0     0   0   0     0   0   0     0   0   0     0   0   0     0   0   0     0   0   0     0   0   0  
   0   0   0     0   0   0     0   0   0     0   0   0     0   0   0     0   0   0     0   0   0    14  15  10    15  15  10    15  16  11    16  17  12    15  17  12    15  16  11    15  16  11    14  15  10    14  15  10    14  15  10    16  17  10    17  18  11    14  15  10    12  12  10    13  13  12    14  14  15    12  12  15    14  14  14    18  18  16    20  21  18    20  21  15    21  22  15    26  27  21    28  29  24    25  26  21    23  24  19    19  20  15    16  17  12    15  16  11    15  16  11    15  16  11     0   0   0     0   0   0     0   0   0     0   0   0     0   0   0     0   0   0     0   0   0     0   0   0     0   0   0     0   0   0     0   0   0     0   0   0  
   0   0   0     0   0   0     0   0   0     0   0   0     0   0   0     0   0   0     0   0   0    16  17  12    16  17  12    16  17  12    16  17  12    16  17  12    16  17  12    16  17  12    15  16  11    15  16  11    15  16  10    18  19  11    19  20  13    16  17  11    13  14   9    13  13  11    12  12  12    10  10  10    11  11  11    14  14  12    17  18  13    18  19  13    20  21  14    26  27  19    32  33  27    29  30  25    25  26  21    21  22  17    17  18  13    16  17  12     0   0   0     0   0   0     0   0   0     0   0   0     0   0   0     0   0   0     0   0   0     0   0   0     0   0   0     0   0   0     0   0   0     0   0   0     0   0   0     0   0   0  
   0   0   0     0   0   0     0   0   0     0   0   0     0   0   0     0   0   0     0   0   0    20  21  16    18  19  14    18  19  14    16  17  12    16  17  12    16  17  12    16  17  12    16  17  12    17  18  13    17  18  13    19  20  14    20  21  15    17  18  13    14  14  12    12  12  11    10  10  10     9   9   9     9   9   9    10  10   8    13  13  10    14  15   9    16  17  11    21  22  16    31  32  27    30  32  27    30  31  26    27  28  23    24  25  20     0   0   0     0   0   0     0   0   0     0   0   0     0   0   0     0   0   0     0   0   0     0   0   0     0   0   0     0   0   0     0   0   0     0   0   0     0   0   0     0   0   0     0   0   0  
   0   0   0     0   0   0     0   0   0     0   0   0     0   0   0     0   0   0     0   0   0    18  19  14    16  17  12    16  17  12    15  16  11    15  16  11    16  17  12    16  17  12    17  18  13    17  18  13    17  18  13    19  20  14    20  22  15    18  19  14    15  15  13    14  14  12    12  12  12    11  11  11    10  10  10    10  10   8    10  11   8    10  11   5    10  11   5    14  15   9    21  22  17    24  25  20    29  30  25     0   0   0     0   0   0     0   0   0     0   0   0     0   0   0     0   0   0     0   0   0     0   0   0     0   0   0     0   0   0     0   0   0     0   0   0     0   0   0     0   0   0     0   0   0     0   0   0     0   0   0  
   0   0   0     0   0   0     0   0   0     0   0   0     0   0   0     0   0   0     0   0   0     0   0   0    11  12   7    12  13   8    13  14   9    13  14   9    14  15  10    15  15  10    16  17  12    17  18  13    17  18  13    19  20  14    20  22  16    18  19  14    16  16  14    16  16  15    15  15  15    14  14  14    12  12  12    11  11   9    11  12   9     9  10   5     8   9   3    10  11   6    10  11   6    14  15  10     0   0   0     0   0   0     0   0   0     0   0   0     0   0   0     0   0   0     0   0   0     0   0   0     0   0   0     0   0   0     0   0   0     0   0   0     0   0   0     0   0   0     0   0   0     0   0   0     0   0   0     0   0   0  
   0   0   0     0   0   0     0   0   0     0   0   0     0   0   0     0   0   0     0   0   0     0   0   0     9  10   5    11  12   7    11  12   7    11  12   7    13  14   9    14  15  10    15  16  11    16  17  12    17  18  13    18  19  14    20  20  15    17  18  13    16  17  12    18  19  15    20  20  18    17  17  16    14  14  12    14  15  10    15  15  10    13  14   9    10  11   6     9  10   5     0   0   0     0   0   0     0   0   0     0   0   0     0   0   0     0   0   0     0   0   0     0   0   0     0   0   0     0   0   0     0   0   0     0   0   0     0   0   0     0   0   0     0   0   0     0   0   0     0   0   0     0   0   0     0   0   0     0   0   0  
   0   0   0     0   0   0     0   0   0     0   0   0     0   0   0     0   0   0     0   0   0     0   0   0    10  11   6    13  14   9     9  10   5    10  11   6    12  13   8    13  14   9    15  16  11    16  17  12    16  17  12    18  19  14    19  20  15    17  18  13    17  18  13    21  21  17    22  22  20    19  19  17    16  16  14    15  16  11    17  18  13    15  16  11    11  12   7     0   0   0     0   0   0     0   0   0     0   0   0     0   0   0     0   0   0     0   0   0     0   0   0     0   0   0     0   0   0     0   0   0     0   0   0     0   0   0     0   0   0     0   0   0     0   0   0     0   0   0     0   0   0     0   0   0     0   0   0     0   0   0  
   0   0   0     0   0   0     0   0   0     0   0   0     0   0   0     0   0   0     0   0   0     0   0   0    10  11   6     9  10   5     8   9   4     8   9   4    10  11   6    11  12   7    13  14   9    14  15  10    15  16  11    17  17  15    15  16  12    15  16  11    15  16  11    16  17  12    17  18  13    18  19  14    17  18  13    17  18  13    15  17  12    15  16  11    13  13  10    13  13  11     0   0   0     0   0   0     0   0   0     0   0   0     0   0   0     0   0   0     0   0   0     0   0   0     0   0   0     0   0   0     0   0   0     0   0   0     0   0   0     0   0   0     0   0   0     0   0   0     0   0   0     0   0   0     0   0   0     0   0   0  
   0   0   0     0   0   0     0   0   0     0   0   0     0   0   0     0   0   0     0   0   0     0   0   0    10  11   6     9  10   5     9  10   5     9  10   5    10  11   6    11  12   7    12  13   8    13  14   9    13  14  10    15  15  13    13  13  11    13  14   9    13  14   9    14  15  10    15  16  11    15  17  12    16  17  12    15  16  11    15  15  10    14  14  11    13  13  11    13  13  11     0   0   0     0   0   0     0   0   0     0   0   0     0   0   0     0   0   0     0   0   0     0   0   0     0   0   0     0   0   0     0   0   0     0   0   0     0   0   0     0   0   0     0   0   0     0   0   0     0   0   0     0   0   0     0   0   0     0   0   0  
   0   0   0     0   0   0     0   0   0     0   0   0     0   0   0     0   0   0     0   0   0    12  13   8    10  11   6     9  10   5    10  11   6    10  11   6    11  12   7    11  12   7    12  13   8    12  13   8    12  13   9    13  13  11    11  11   9    10  10   8    10  11   6    11  12   7    12  13   7    13  14   8    13  14   8    13  14   9    13  14  10    13  13  11    13  13  11    13  13  13     9   9   9     0   0   0     0   0   0     0   0   0     0   0   0     0   0   0     0   0   0     0   0   0     0   0   0     0   0   0     0   0   0     0   0   0     0   0   0     0   0   0     0   0   0     0   0   0     0   0   0     0   0   0     0   0   0     0   0   0  
   0   0   0     0   0   0     0   0   0     0   0   0     0   0   0     0   0   0     0   0   0    12  13   8    10  11   6     9  10   5    11  12   7    11  12   7    11  12   7    11  12   7    11  12   7    11  12   7    11  11  10    12  12  12    10  10   9     9   9   7     9  10   5     9  10   5    11  12   6    11  12   6    11  12   6    11  12   7    11  12   8    12  12  10    13  13  12    13  13  13    11  11  11    11  11  11     0   0   0     0   0   0     0   0   0     0   0   0     0   0   0     0   0   0     0   0   0     0   0   0     0   0   0     0   0   0     0   0   0     0   0   0     0   0   0     0   0   0     0   0   0     0   0   0     0   0   0     0   0   0  
   0   0   0     0   0   0     0   0   0     0   0   0     0   0   0     0   0   0     0   0   0    12  13   8    10  11   6     9  10   5    12  13   8    12  13   8    11  12   7    11  12   7    11  12   7    10  11   6    11  11   7    13  13  12    11  11  10    10  10   8     9  10   5    10  11   4    11  12   4    10  11   2     9  10   2    10  11   5    10  11   7    11  11   9    12  12  11    12  12  12    13  13  13    13  13  13    12  12  12     0   0   0     0   0   0     0   0   0     0   0   0     0   0   0     0   0   0     0   0   0     0   0   0     0   0   0     0   0   0     0   0   0     0   0   0     0   0   0     0   0   0     0   0   0     0   0   0     0   0   0  
   0   0   0     0   0   0     0   0   0     0   0   0     0   0   0     0   0   0     0   0   0    12  13   8    10  11   6     9  10   5    11  12   7    11  12   7    11  12   7    11  12   7    11  12   7    11  12   7    12  12  10    14  14  14    12  12  11    10  10   8    10  11   6    10  11   4    11  12   4    10  11   2     9  10   2     9  10   4    10  10   6    11  11   9    11  11  10    11  11  11    13  13  13    13  13  13    12  12  12     0   0   0     0   0   0     0   0   0     0   0   0     0   0   0     0   0   0     0   0   0     0   0   0     0   0   0     0   0   0     0   0   0     0   0   0     0   0   0     0   0   0     0   0   0     0   0   0     0   0   0  
   0   0   0     0   0   0     0   0   0     0   0   0     0   0   0     0   0   0     0   0   0    12  13   8    10  11   6     9  10   5    11  12   7    11  12   7    11  12   7    11  12   7    11  12   7    11  12   7    12  12  10    14  14  14    11  11  10    10  11   6     9  10   4     9  10   4    10  11   3     9  10   2     9  10   2     9  10   4    10  11   5    10  11   7    10  10   9    10  10  12    11  11  11    11  11  11    11  11  11    11  11  11     0   0   0     0   0   0     0   0   0     0   0   0     0   0   0     0   0   0     0   0   0     0   0   0     0   0   0     0   0   0     0   0   0     0   0   0     0   0   0     0   0   0     0   0   0     0   0   0  
   0   0   0     0   0   0     0   0   0     0   0   0     0   0   0     0   0   0     0   0   0    12  13   8    10  11   6     9  10   5    10  11   6    10  11   6    11  12   7    11  12   7    12  13   8    12  13   8    12  12  11    13  13  13    11  11  10    10  10   8     9  10   5     8   9   3     9  10   4    10  10   5    10  11   5    10  11   5    10  10   6    10  10   8    10  10   9     9   9   9     9   9   9     9   9   7    11  11   9    11  11   9    12  12  12     0   0   0     0   0   0     0   0   0     0   0   0     0   0   0     0   0   0     0   0   0     0   0   0     0   0   0     0   0   0     0   0   0     0   0   0     0   0   0     0   0   0     0   0   0  
   0   0   0     0   0   0     0   0   0     0   0   0     0   0   0     0   0   0    11  11   9    11  11   9    10  10   8     9   9   7    10  10   8    10  10   8    10  10   8    10  10   8    10  10   8    10  10   8    10  10   8     9   9   7     9   9   7     9   9   7     9   9   7     9  10   5     9  10   5     9  10   5     9  10   5     9  10   5     9   9   7     9   9   7     9   9   7     9   9   7    12  11   7    10  10   5    11  10   6    12  10   7    12  11   9    10  10   8     0   0   0     0   0   0     0   0   0     0   0   0     0   0   0     0   0   0     0   0   0     0   0   0     0   0   0     0   0   0     0   0   0     0   0   0     0   0   0     0   0   0  
   0   0   0     0   0   0     0   0   0     0   0   0     0   0   0     0   0   0    11  11   9    11  11   9    10  10   8     9   9   7    10  10   8    10  10   8    10  10   8    10  10   8    10  10   8    10  10   8    10  10   8     9   9   7     9   9   7     9   9   7     9   9   7     9   9   7     9   9   7     9   9   7     9   9   7     9   9   7     9   9   7     9   9   7     9   9   7     9   9   7    12  11   7    10  10   5    10   9   4    11  10   6    12  11   7    10  10   8     0   0   0     0   0   0     0   0   0     0   0   0     0   0   0     0   0   0     0   0   0     0   0   0     0   0   0     0   0   0     0   0   0     0   0   0     0   0   0     0   0   0  
   0   0   0     0   0   0     0   0   0     0   0   0     0   0   0     0   0   0    11  11   9    11  11   9     9   9   7     9   9   7    11  11   9    11  11   9    11  11   9    11  11   9    11  11   9    11  11   9    10  10   8     9   9   7     9   9   7     9   9   7     9   9   7     9   9   7     9   9   7     9   9   7     9   9   7     9   9   7     9   9   7     9   9   7     9   9   7     9  10   5    11  10   5    10   9   4    10   9   5    10  10   5    12  11   7    10  10   8     8   8   7     0   0   0     0   0   0     0   0   0     0   0   0     0   0   0     0   0   0     0   0   0     0   0   0     0   0   0     0   0   0     0   0   0     0   0   0     0   0   0  
   0   0   0     0   0   0     0   0   0     0   0   0     0   0   0    10  10   8    11  11   9    11  11   9     9   9   7     9   9   7    10  10   8    10  10   8    10  10   8    10  10   8    10  10   8    10  10   8    10  10   8    10  10   8    10  10   8    10  10   8    10  10   8    10  10   8    10  10   8    10  10   8    10  10   8    10  10   8    10  10   8    10  10   8    10  10   8    10  10   8    11  10   6    10   9   4     9   8   4    10   9   5    11  10   8     9   9   7     8   8   8     9   9  10     0   0   0     0   0   0     0   0   0     0   0   0     0   0   0     0   0   0     0   0   0     0   0   0     0   0   0     0   0   0     0   0   0     0   0   0  
   0   0   0     0   0   0     0   0   0     0   0   0     0   0   0    10  10   8    10  10   8    10  10   8     9   9   7     8   8   6    10  10   8    10  10   8    10  10   8    10  10   8    10  10   8    10  10   8    10  10   8     9   9   7     9   9   7     9   9   7     9   9   7     9   9   7     9   9   7     9   9   7     9   9   7     9   9   7     9   9   7     9   9   7     9   9   7     9   9   7    10   9   5     9   8   4     9   8   4    10   9   6    11  10   8     9   9   7     9   9   9    12  12  12     6   7   8     0   0   0     0   0   0     0   0   0     0   0   0     0   0   0     0   0   0     0   0   0     0   0   0     0   0   0     0   0   0     0   0   0  
   0   0   0     0   0   0     0   0   0     0   0   0     9   9   7    10  10   8    10  10   8    10  10   8     9   9   7     8   8   6     9   9   7     9   9   7     9   9   7     9   9   7     9   9   7     9   9   7     9   9   7     9   9   7     9   9   7     9   9   7     9   9   7     9   9   7     9   9   7     9   9   7     9   9   7     9   9   7     9   9   7     9   9   7     9   9   7     9   9   7    10   9   5     9   8   4     8   7   3     9   8   6    10   9   7     8   8   8     7   7   7    13  13  13     5   6   8    22  22  25     0   0   0     0   0   0     0   0   0     0   0   0     0   0   0     0   0   0     0   0   0     0   0   0     0   0   0     0   0   0  
   0   0   0     0   0   0     0   0   0     0   0   0     9   9   7     9   9   7    10  10   8    10  10   8     9   9   7     8   8   6     8   8   6     8   8   6     8   8   6     8   8   6     8   8   6     8   8   6     8   8   6     8   8   6     8   8   6     8   8   6     8   8   6     8   8   6     8   8   6     8   8   6     8   8   6     8   8   6     8   8   6     8   8   6     8   8   6     8   8   6     9   8   4     8   7   3     8   7   5     9   8   5    10   9   7     8   8   8     7   7   7    11  11  11     6   7   8    26  27  29    54  55  57     0   0   0     0   0   0     0   0   0     0   0   0     0   0   0     0   0   0     0   0   0     0   0   0     0   0   0  
   0   0   0     0   0   0     0   0   0     8   8   5     8   8   6     9   9   7    10  10   8    10  10   8     8   8   6     8   8   6     7   7   5     7   7   5     7   7   5     7   7   5     7   7   5     7   7   5     7   7   5     7   7   5     7   7   5     7   7   5     7   7   5     7   7   5     7   7   5     7   7   5     7   7   5     7   7   5     7   7   5     7   7   5     7   7   5     7   7   5     9   8   4     8   7   3     8   7   5     9   8   5     9   8   6     8   8   8     7   7   7     9   9   9     7   8  10    33  34  36    99  99 102    75  76  79     0   0   0     0   0   0     0   0   0     0   0   0     0   0   0     0   0   0     0   0   0     0   0   0  
   0   0   0     0   0   0     0   0   0     8   9   4     8   8   6     8   8   6     8   8   6     8   8   6     7   7   5     7   7   5     7   7   5     7   7   5     7   7   5     7   7   5     7   7   5     7   7   5     7   7   5     8   8   6     8   8   6     8   8   6     7   7   5     7   7   5     6   6   4     7   7   5     8   8   6     7   7   5     7   7   5     6   6   4     6   6   4     5   5   3     9   8   6     5   4   2     9   8   6    10   8   8     3   1   3     7   7   7    16  16  16     8   8   8     7   8   8    42  44  43   106 107 109    64  66  67    21  22  24     0   0   0     0   0   0     0   0   0     0   0   0     0   0   0     0   0   0     0   0   0  
   0   0   0     0   0   0     9  10   5     9   9   6     9   9   7     9   9   7     8   8   6     8   8   6     8   8   6     7   7   5     7   7   5     7   7   5     7   7   5     7   7   5     7   7   5     7   7   5     7   7   5     8   8   6     8   8   6     7   7   5     7   7   5     7   7   5     6   6   4     7   7   5     8   8   6     8   8   6     7   7   5     7   7   5     6   6   4     6   6   4     4   3   1    12  11   9    17  16  14    14  12  12    10   8   9     9   9   9    11  11  11     9   9   9    29  31  30    91  93  92   120 121 123    75  76  78    56  57  59    80  83  85    92  96  97     0   0   0     0   0   0     0   0   0     0   0   0     0   0   0  
   0   0   0     0   0   0    10  11   5    10  11   5     9   9   7     9   9   7     8   8   6     8   8   6     8   8   6     8   8   6     7   7   5     7   7   5     7   7   5     7   7   5     7   7   5     7   7   5     7   7   5     8   8   6     7   7   5     7   7   5     7   7   5     7   7   5     6   6   4     8   8   6     8   8   6     8   8   6     8   8   6     8   8   6     7   7   5     7   7   5     5   3   5    11   9  10     8   6   7     5   3   4    10   8   9     9   9   9     3   3   3     6   6   6    52  53  52   118 120 119   110 112 111    74  77  75    76  78  77    52  54  53    40  42  41    36  38  37     0   0   0     0   0   0     0   0   0     0   0   0  
   0   0   0     8   9   3     9  10   5     9   9   6     8   8   6     8   8   6     7   7   5     7   7   5     7   7   5     7   7   5     7   7   5     7   7   5     7   7   5     7   7   5     7   7   5     7   7   5     7   7   5     7   7   5     7   7   5     7   7   5     7   7   5     7   7   5     7   7   5     8   8   6     9   9   7     9   9   7     9   9   7     8   8   6     8   8   6     8   8   6    11   9   9     7   5   6     5   3   4     7   5   6    12   9  10     9   9   9    10  10  10    38  38  38    85  87  86   125 127 126   105 107 106    91  93  92    94  96  95    81  84  83    88  90  89    75  77  76    82  84  83     0   0   0     0   0   0     0   0   0  
   0   0   0     7   8   2     7   8   2     8   9   3     7   7   5     6   6   4     5   5   3     5   5   3     5   5   4     6   6   4     7   7   5     7   7   5     7   7   5     7   7   5     7   7   5     7   7   5     7   7   5     7   7   5     7   7   5     8   8   6     8   8   6     8   8   6     8   8   6     9   9   7     9   9   7     9   9   7     9   9   7     9   9   7     9   9   7     9   9   7     8   6   7     8   6   7    17  15  16    19  17  18    10   8   9    14  14  14    38  38  38    77  77  77   100 101 100   110 112 111   104 106 105   100 102 101   104 106 105    90  92  91    91  93  92    83  85  84    97  99  98   112 114 113     0   0   0     0   0   0  
   8   9   3     8   9   3     7   8   3     8   8   5     7   7   5     5   5   3     4   4   2     4   4   2     5   5   3     6   6   4     7   7   5     7   7   5     7   7   5     7   7   5     7   7   5     7   7   5     7   7   5     8   8   6     8   8   6     8   8   6     9   9   7     9   9   7     9   9   7     8   8   6     8   8   6     8   8   6     9   9   7     9   9   7     9   9   7     9   9   7     9   7   8     7   5   6    12  10  11     7   5   6     1   1   1    33  33  33    75  75  75    89  89  89    88  89  88    88  90  89    92  94  93    88  91  90   100 102 101   122 124 123   108 110 109    98 100  99    95  97  96    87  89  88    81  83  82     0   0   0  
  11  12   6    10  10   5     9  10   4     9  10   5     8   8   6     6   6   4     5   5   3     5   5   3     6   6   4     8   8   6     7   7   5     7   7   5     7   7   5     7   7   5     7   7   5     7   7   5     7   7   5     9   9   7     9   9   7     9   9   7    10  10   8    10  10   8    10  10   8     8   8   6     7   7   5     8   8   6     8   8   6     9   9   7     9   9   7     9   9   7    13  11  12     7   5   8     5   3   6     4   2   3    17  15  16    62  62  62    98  98  98    93  93  93    96  97  97    88  90  89    81  83  80    86  88  86   106 108 105   136 138 137   120 122 121   104 106 105    90  92  91    76  78  77    76  78  77    70  73  72  
  13  14   8    11  12   6    10  11   5    10  12   6    10  10   8     8   8   6     6   6   4     7   7   5     8   8   5     9   9   7     7   7   5     7   7   5     7   7   5     7   7   5     7   7   7     7   7   7     7   7   6     9   9   7     9   9   7    10  10   8    10  10   8    11  11   9    11  11   9     9   8   6     8   7   5     8   7   5     9   8   6    10   9   7    10   9   7    10   8   9    14  13  16    11  11  13    15  15  17    31  31  32    58  58  58    86  86  86    95  95  95    87  88  87   109 111 110    89  91  90    65  67  66    86  88  87   106 108 107   138 140 139   142 144 143   115 117 116    96  98  97    90  92  91    80  82  81    87  89  88  
   0   0   0     0   0   0    16  19   9    16  19  11    15  18  11    13  16   9    10  12   7     9  11   6     9  11   7     9  11   8     9  11   8     2   4   1     3   5   4     5   7   6     6   8   7    10  12  11    11  13  12     8  10   9    16  18  17    15  17  16     7   7   7     6   6   6     7   5   6     4   2   2    25  22  22    21  14  16    12   5   8    23  14  17    17   8  11    17  13  14    11  12  14    24  25  27    76  77  79   107 108 110   103 104 106   107 108 110    88  92  93    76  80  81    64  68  69    72  76  77    78  83  83    89  93  92   110 114 113   125 129 128   114 117 116   105 109 108   104 107 107   102 106 105     0   0   0     0   0   0  
   0   0   0     0   0   0     0   0   0    17  20  11    16  19  12    15  18  11    14  16  10    13  15  10    12  14  10    12  14  11     7   9   6     7   9   6    10  12  11     8   9  10     5   6   8     6   7   9     9  10  12    12  14  13     8  10   9     4   6   5     1   1   1    12  12  12    18  16  17    11   8   9    18  12  14    36  29  32    26  18  20     8   1   2    13   4   6     9   2   4     9  10  12    55  59  60    80  84  85    82  86  87    78  82  83    99 103 104    96 100 101    70  74  75    73  77  78    75  79  80    72  76  77    78  82  83    85  89  90   102 106 106   118 122 121    80  84  83    99 103 102     0   0   0     0   0   0     0   0   0  
   0   0   0     0   0   0     0   0   0     0   0   0    18  21  12    18  21  12    18  21  12    18  21  14    16  18  13    16  18  13     9  11   8    13  16  12    14  16  13    10  12  10     9  11  10     9  11  10     9  11  10     4   7   6     4   7   6    25  29  28    59  61  60   103 104 103   118 117 117    96  94  95    78  74  75    73  69  70    38  32  34     6   1   1    22  14  16    25  19  21    53  54  56    71  75  76    66  70  71    57  61  62    62  66  67    85  89  90    80  84  85    68  72  73    82  86  87    77  81  82    68  71  73    73  77  78    70  74  75    98 102 101   176 180 179   112 116 115    95  99  98     0   0   0     0   0   0     0   0   0  
   0   0   0     0   0   0     0   0   0     0   0   0     0   0   0    20  23  14    21  24  15    21  24  16    19  22  15    19  21  16    16  18  13    19  21  18    14  16  13    10  13  11    14  17  15    16  18  17    11  14  13     3   7   6    23  27  26    70  75  73   117 119 118   150 152 151   143 143 143   126 124 125   137 135 136   132 130 131   104  99 101    91  86  87    92  86  88    81  77  78    98  99 101    83  87  88    87  91  92    81  85  86    79  83  84    97 101 102    76  80  81    76  80  81    85  89  90    80  84  85    73  77  78    80  84  85    78  82  83   112 116 115   221 224 224     0   0   0     0   0   0     0   0   0     0   0   0     0   0   0  
   0   0   0     0   0   0     0   0   0     0   0   0     0   0   0     0   0   0    22  25  14    22  25  15    21  24  15    20  23  16    19  22  15    20  22  17    14  16  11    15  17  13    19  21  18    14  16  13    12  15  13    24  29  27    60  66  64   102 108 106   121 125 124   119 123 122    95  97  96    77  78  77   128 128 128   168 167 168   150 149 150   137 134 135   113 109 110    55  53  54    86  87  89   105 109 110   119 123 124   104 108 109    90  94  95   104 108 109    91  95  96    84  88  89    84  88  89    89  92  94    87  91  92    88  92  93    91  95  96     0   0   0     0   0   0     0   0   0     0   0   0     0   0   0     0   0   0     0   0   0  
   0   0   0     0   0   0     0   0   0     0   0   0     0   0   0     0   0   0     0   0   0    22  25  14    22  25  15    21  24  15    17  20  13    19  22  16    17  19  14    22  24  20    18  20  18     9  11   8    20  26  22    66  72  70    91  97  95    97 103 101    96 100  99    94  99  98    98 101 100    89  91  90   125 125 125   145 145 145    90  90  90    65  64  64    71  69  70    19  18  18    93  94  96   135 139 140   105 109 110    88  93  93    91  95  96    93  97  98    95  99 100    90  94  95    86  90  91    98 103 103    98 102 103     0   0   0     0   0   0     0   0   0     0   0   0     0   0   0     0   0   0     0   0   0     0   0   0     0   0   0  
   0   0   0     0   0   0     0   0   0     0   0   0     0   0   0     0   0   0     0   0   0     0   0   0     0   0   0    23  26  15    19  22  13    21  24  15    19  22  15    24  26  21    18  20  15    17  20  15    55  60  57   124 131 129   115 124 121    86  95  92    86  92  90    86  92  90    99 104 103    86  90  89   123 125 124   140 143 141    90  92  91    71  73  72    70  72  71    21  23  22   109 113 114   142 146 147    89  93  94    86  90  91   105 109 110    98 102 103   100 104 105    94  98  99    91  95  96     0   0   0     0   0   0     0   0   0     0   0   0     0   0   0     0   0   0     0   0   0     0   0   0     0   0   0     0   0   0     0   0   0  
   0   0   0     0   0   0     0   0   0     0   0   0     0   0   0     0   0   0     0   0   0     0   0   0     0   0   0     0   0   0    24  27  18    23  26  17    19  22  15    22  25  19    18  20  15    33  35  31    87  93  89   161 168 166   137 146 143   104 113 110   116 122 120   101 107 105    87  93  91    81  85  84   136 140 139   144 146 145   112 114 113   115 117 116    92  94  93    51  53  52    72  76  77   108 112 113    89  93  94    95  99 100   104 108 109   103 107 108   105 109 110     0   0   0     0   0   0     0   0   0     0   0   0     0   0   0     0   0   0     0   0   0     0   0   0     0   0   0     0   0   0     0   0   0     0   0   0     0   0   0  
   0   0   0     0   0   0     0   0   0     0   0   0     0   0   0     0   0   0     0   0   0     0   0   0     0   0   0     0   0   0     0   0   0    22  25  17    16  19  12    14  16  10    35  37  32    69  71  66    92  98  92   120 128 124   141 148 146   123 129 127   113 119 117   102 107 106    96 102 100     0   0   0     0   0   0     0   0   0     0   0   0     0   0   0     0   0   0     0   0   0     0   0   0     0   0   0     0   0   0     0   0   0     0   0   0     0   0   0     0   0   0     0   0   0     0   0   0     0   0   0     0   0   0     0   0   0     0   0   0     0   0   0     0   0   0     0   0   0     0   0   0     0   0   0     0   0   0     0   0   0  
   0   0   0     0   0   0     0   0   0     0   0   0     0   0   0     0   0   0     0   0   0     0   0   0     0   0   0     0   0   0     0   0   0     0   0   0    22  24  18    50  51  46    79  81  76    91  94  89    93  98  95   104 110 108   115 121 119     0   0   0     0   0   0     0   0   0     0   0   0     0   0   0     0   0   0     0   0   0     0   0   0     0   0   0     0   0   0     0   0   0     0   0   0     0   0   0     0   0   0     0   0   0     0   0   0     0   0   0     0   0   0     0   0   0     0   0   0     0   0   0     0   0   0     0   0   0     0   0   0     0   0   0     0   0   0     0   0   0     0   0   0     0   0   0     0   0   0     0   0   0  
   0   0   0     0   0   0     0   0   0     0   0   0     0   0   0     0   0   0     0   0   0     0   0   0     0   0   0     0   0   0     0   0   0     0   0   0     0   0   0    78  80  75    99 101  98     0   0   0     0   0   0     0   0   0     0   0   0     0   0   0     0   0   0     0   0   0     0   0   0     0   0   0     0   0   0     0   0   0     0   0   0     0   0   0     0   0   0     0   0   0     0   0   0     0   0   0     0   0   0     0   0   0     0   0   0     0   0   0     0   0   0     0   0   0     0   0   0     0   0   0     0   0   0     0   0   0     0   0   0     0   0   0     0   0   0     0   0   0     0   0   0     0   0   0     0   0   0     0   0   0  
