P3
50 50
255
 203 205 204   208 211 210     0   0   0     0   0   0     0   0   0     0   0   0     0   0   0     0   0   0     0   0   0     0   0   0     0   0   0     0   0   0     0   0   0     0   0   0     0   0   0     0   0   0     0   0   0     0   0   0     0   0   0     0   0   0     0   0   0     0   0   0     0   0   0     0   0   0     0   0   0     0   0   0     0   0   0     0   0   0     0   0   0     0   0   0     0   0   0     0   0   0     0   0   0     0   0   0     0   0   0     0   0   0     0   0   0     0   0   0     0   0   0     0   0   0     0   0   0     0   0   0     0   0   0     0   0   0     0   0   0     0   0   0     0   0   0     0   0   0   208 204 203   210 206 205  
 211 211 211   215 217 217   216 219 219     0   0   0     0   0   0     0   0   0     0   0   0     0   0   0     0   0   0     0   0   0     0   0   0     0   0   0     0   0   0     0   0   0     0   0   0     0   0   0     0   0   0     0   0   0     0   0   0     0   0   0     0   0   0     0   0   0     0   0   0     0   0   0     0   0   0     0   0   0     0   0   0     0   0   0     0   0   0     0   0   0     0   0   0     0   0   0     0   0   0     0   0   0     0   0   0     0   0   0     0   0   0     0   0   0     0   0   0     0   0   0     0   0   0     0   0   0     0   0   0     0   0   0     0   0   0     0   0   0     0   0   0   205 201 200   206 202 201   208 204 203  
 212 213 215   217 219 221   217 221 221   213 216 213     0   0   0     0   0   0     0   0   0     0   0   0     0   0   0     0   0   0     0   0   0     0   0   0     0   0   0     0   0   0     0   0   0     0   0   0     0   0   0     0   0   0     0   0   0     0   0   0     0   0   0     0   0   0     0   0   0     0   0   0     0   0   0     0   0   0     0   0   0     0   0   0     0   0   0     0   0   0     0   0   0     0   0   0     0   0   0     0   0   0     0   0   0   214 213 211   215 214 212   214 213 211   214 213 211   211 210 208   209 208 206   207 206 204   208 207 205   207 206 204   206 205 203   204 203 201   203 202 200   202 201 199   203 202 200   204 203 201  
   0   0   0     0   0   0   216 219 219   215 215 213   213 214 209     0   0   0     0   0   0     0   0   0     0   0   0     0   0   0     0   0   0     0   0   0     0   0   0     0   0   0     0   0   0     0   0   0     0   0   0     0   0   0     0   0   0     0   0   0     0   0   0     0   0   0     0   0   0     0   0   0     0   0   0     0   0   0     0   0   0     0   0   0     0   0   0     0   0   0     0   0   0     0   0   0     0   0   0     0   0   0     0   0   0   214 213 211   214 213 211   215 214 212   215 215 213   213 212 210   208 207 204   205 204 202   206 205 203   205 203 201   204 203 201   203 202 200   202 201 199   202 201 199   203 202 200   203 202 200  
   0   0   0     0   0   0   223 224 225   225 225 223   220 221 216   217 218 213     0   0   0     0   0   0     0   0   0     0   0   0     0   0   0     0   0   0     0   0   0     0   0   0     0   0   0     0   0   0     0   0   0     0   0   0     0   0   0     0   0   0     0   0   0     0   0   0     0   0   0     0   0   0     0   0   0     0   0   0     0   0   0     0   0   0     0   0   0     0   0   0     0   0   0     0   0   0     0   0   0     0   0   0   213 212 210   216 215 213   218 217 215   215 214 212   211 210 208   207 206 204   205 204 202   204 203 201   204 203 201   200 199 197   200 199 197   202 201 199   203 202 200   203 202 200   201 200 197   199 198 196  
   0   0   0     0   0   0     0   0   0   223 224 222   220 221 216   218 219 214   215 216 211     0   0   0     0   0   0     0   0   0     0   0   0     0   0   0     0   0   0     0   0   0     0   0   0     0   0   0     0   0   0     0   0   0     0   0   0     0   0   0     0   0   0     0   0   0     0   0   0     0   0   0     0   0   0     0   0   0     0   0   0     0   0   0     0   0   0     0   0   0     0   0   0     0   0   0     0   0   0   209 208 206   210 209 207   213 212 210   215 215 213   214 213 211   211 210 208   207 206 204   205 204 202   204 203 201   205 204 202   201 200 198   201 200 198   202 201 199   203 202 200   203 202 200   201 201 198   201 200 198  
   0   0   0     0   0   0     0   0   0   221 221 220   219 220 215   218 219 214   216 217 212   213 214 209   209 209 205     0   0   0     0   0   0     0   0   0     0   0   0     0   0   0     0   0   0     0   0   0     0   0   0     0   0   0     0   0   0     0   0   0     0   0   0     0   0   0     0   0   0     0   0   0     0   0   0     0   0   0     0   0   0     0   0   0     0   0   0     0   0   0     0   0   0     0   0   0   210 209 207   209 208 206   210 209 207   212 211 209   214 213 211   214 213 211   211 210 208   208 207 205   206 205 203   205 204 202   205 204 202   203 202 201   202 202 200   202 202 200   202 202 200   202 202 200   202 202 200   202 202 200  
   0   0   0     0   0   0     0   0   0   218 219 215   217 218 213   216 217 212   216 217 212   213 214 209   210 209 205   209 208 204     0   0   0     0   0   0     0   0   0     0   0   0     0   0   0     0   0   0     0   0   0     0   0   0     0   0   0     0   0   0     0   0   0     0   0   0     0   0   0     0   0   0     0   0   0     0   0   0     0   0   0     0   0   0     0   0   0     0   0   0     0   0   0     0   0   0   214 213 211   212 211 209   213 212 210   214 213 211   215 214 212   214 213 211   211 211 208   208 207 205   207 206 204   205 205 203   205 204 202   203 203 201   203 203 201   202 202 200   201 201 199   201 201 199   202 202 200   202 202 200  
   0   0   0     0   0   0     0   0   0     0   0   0   213 214 209   213 214 209   213 214 209   211 212 207   208 208 203   208 207 203   203 202 198     0   0   0     0   0   0     0   0   0     0   0   0     0   0   0     0   0   0     0   0   0     0   0   0     0   0   0     0   0   0     0   0   0     0   0   0     0   0   0     0   0   0     0   0   0     0   0   0     0   0   0     0   0   0     0   0   0     0   0   0   218 217 215   215 214 212   214 213 211   215 214 212   216 215 213   215 215 213   215 214 212   212 211 210   210 209 207   208 207 205   207 206 204   207 206 204   205 205 202   203 203 201   201 201 199   200 200 198   200 200 198   200 200 199   202 202 200  
   0   0   0     0   0   0     0   0   0     0   0   0   208 209 204   208 209 204   209 210 205   207 208 203   205 205 200   206 205 201   201 200 196   202 200 197     0   0   0     0   0   0     0   0   0     0   0   0     0   0   0     0   0   0     0   0   0     0   0   0     0   0   0     0   0   0     0   0   0     0   0   0     0   0   0     0   0   0     0   0   0     0   0   0     0   0   0     0   0   0   223 222 219   219 218 216   215 214 212   214 213 211   215 214 212   216 215 213   215 215 213   215 214 212   213 212 211   212 211 209   210 209 207   209 208 205   208 207 205   206 206 203   204 204 202   203 203 201   201 201 199   201 201 199   201 201 199   202 202 200  
   0   0   0     0   0   0     0   0   0     0   0   0     0   0   0   202 203 198   203 204 199   202 203 198   202 201 197   204 203 199   200 199 195   201 200 196   202 198 195     0   0   0     0   0   0     0   0   0     0   0   0     0   0   0     0   0   0     0   0   0     0   0   0     0   0   0     0   0   0     0   0   0     0   0   0     0   0   0     0   0   0     0   0   0     0   0   0   224 223 226   225 224 224   221 220 218   217 216 214   217 215 214   218 217 215   219 218 216   217 216 214   216 215 213   215 214 212   213 212 210   212 211 209   210 210 208   210 209 207   207 206 205   206 206 204   205 205 203   204 204 202   203 203 201   203 203 201   203 203 201  
   0   0   0     0   0   0     0   0   0     0   0   0     0   0   0   200 199 197   201 200 198   200 199 197   200 199 197   203 202 198   200 199 195   200 200 195   200 198 194   200 197 194     0   0   0     0   0   0     0   0   0     0   0   0     0   0   0     0   0   0     0   0   0     0   0   0     0   0   0     0   0   0     0   0   0     0   0   0     0   0   0     0   0   0     0   0   0   233 231 234   229 228 228   225 224 222   221 220 218   220 220 218   222 221 219   223 222 220   221 220 218   216 215 213   215 214 212   214 213 211   213 212 210   212 210 209   211 210 208   208 208 206   208 208 206   207 207 205   206 206 204   206 206 204   204 204 202   204 204 202  
   0   0   0     0   0   0     0   0   0     0   0   0     0   0   0   204 200 201   202 198 199   203 199 199   204 200 199   206 202 201   203 202 199   199 198 196   198 198 194   199 200 195   201 202 196   201 202 196     0   0   0     0   0   0     0   0   0     0   0   0     0   0   0     0   0   0     0   0   0     0   0   0     0   0   0     0   0   0     0   0   0     0   0   0   228 228 228   232 231 232   233 230 232   229 225 226   225 221 222   223 219 220   223 219 220   221 219 220   218 216 217   216 214 215   216 215 215   215 215 215   214 214 214   212 212 212   211 211 211   210 210 208   209 209 207   208 208 206   207 207 205   206 206 204   205 205 203   204 204 202  
   0   0   0     0   0   0     0   0   0     0   0   0     0   0   0     0   0   0   202 197 200   203 199 200   204 200 200   205 201 202   204 203 201   201 200 198   199 200 195   200 200 195   201 202 196   201 202 196   199 199 195   197 197 196     0   0   0     0   0   0     0   0   0     0   0   0     0   0   0     0   0   0     0   0   0     0   0   0     0   0   0   229 229 229   229 229 229   229 227 228   233 229 229   229 225 226   225 221 222   223 219 220   223 219 220   219 217 218   217 215 216   216 214 215   216 215 215   216 216 216   213 213 213   212 212 212   211 211 211   210 210 208   209 209 207   208 208 206   207 207 205   206 206 204   205 205 203   204 204 202  
   0   0   0     0   0   0     0   0   0     0   0   0     0   0   0     0   0   0   199 197 199   200 198 199   200 199 198   201 200 198   205 204 202   202 201 199   201 200 196   200 200 195   201 200 196   200 201 196   198 199 195   198 198 197   199 199 199   202 202 202     0   0   0     0   0   0     0   0   0     0   0   0     0   0   0     0   0   0   225 225 225   229 229 229   229 229 229   228 228 228   228 226 227   228 224 225   226 222 223   224 220 221   223 219 220   218 216 217   215 214 215   216 214 215   217 216 217   216 216 216   213 213 213   211 211 211   211 211 211   210 210 209   209 209 207   208 208 206   207 207 205   206 206 204   205 205 203   205 205 203  
   0   0   0     0   0   0     0   0   0     0   0   0     0   0   0     0   0   0   199 197 199   199 197 198   199 198 196   200 199 197   203 202 200   201 200 198   200 199 195   199 198 194   199 198 194   197 198 193   197 197 195   197 197 197   200 200 200   203 203 203   205 205 205   209 209 209     0   0   0     0   0   0     0   0   0     0   0   0   219 219 219   224 224 224   228 228 228   231 229 230   228 224 225   228 224 225   228 224 225   226 222 223   223 219 220   218 216 217   215 213 214   216 214 215   216 215 216   216 216 216   213 213 213   211 211 211   211 211 211   211 211 210   210 210 208   208 208 206   207 207 205   206 206 204   205 205 203   205 205 203  
   0   0   0     0   0   0     0   0   0     0   0   0     0   0   0     0   0   0   198 198 198   197 197 197   198 197 196   198 197 195   201 200 198   200 199 197   198 197 195   196 195 192   196 195 191   196 195 191   196 195 192   196 196 195   200 200 200   204 204 204   206 206 206   210 210 210   213 213 213   216 216 216     0   0   0   215 215 215   218 218 218   221 221 221   223 223 223   224 224 224   224 222 223   228 224 225   229 225 226   226 222 223   222 218 219   217 215 216   215 213 214   215 213 214   216 215 215   215 215 215   214 214 214   212 212 212   212 212 212   212 212 211   211 211 209   209 209 207   207 207 205   206 206 204   206 206 204   207 207 205  
   0   0   0     0   0   0     0   0   0     0   0   0     0   0   0     0   0   0     0   0   0   197 197 197   197 196 195   197 196 194   198 197 195   198 197 195   197 196 194   195 193 190   194 193 189   195 194 190   196 195 193   196 196 195   200 200 200   204 204 204   208 208 208   211 211 211   213 213 213   213 213 213   214 214 214   217 217 217   221 221 221   221 221 221   218 218 218   215 213 214   224 220 221   226 221 222   227 223 224   224 220 221   219 215 216   214 212 213   213 211 212   214 212 213   215 214 214   215 215 215   214 214 214   213 213 213   213 213 213   213 213 211   212 212 210   210 210 208   208 208 205   207 207 205   208 208 205   208 208 206  
   0   0   0     0   0   0     0   0   0     0   0   0     0   0   0     0   0   0     0   0   0   197 199 196   196 196 194   196 196 194   196 195 193   197 196 194   197 196 194   195 193 191   194 193 191   198 194 193   197 197 195   198 198 196   203 203 201   207 207 204   209 209 207   210 210 208   212 212 210   213 213 210   214 214 212   216 216 214   218 218 216   219 219 217   215 215 213   212 212 210   218 217 215   222 218 217   224 220 219   220 216 215   215 211 210   211 210 208   210 209 207   212 211 209   214 213 211   215 215 213   214 214 212   214 214 212   215 215 213   215 215 213   213 213 211   211 211 209   209 209 207   208 208 206   209 209 207   210 210 208  
   0   0   0     0   0   0     0   0   0     0   0   0     0   0   0     0   0   0     0   0   0   197 199 196   196 196 194   195 195 193   196 195 193   197 196 194   198 197 195   196 195 192   195 194 192   197 196 194   200 199 197   201 201 199   205 205 203   209 209 207   209 209 207   209 209 207   210 210 208   215 215 213   216 216 214   213 213 211   211 211 210   214 214 212   215 215 214   218 217 215   217 213 212   220 216 215   220 216 215   216 212 211   212 208 207   208 207 205   208 207 206   211 210 208   213 212 210   214 214 212   214 214 212   214 214 212   216 216 214   216 216 214   214 214 212   212 212 209   209 209 207   209 209 207   210 210 208   210 210 208  
   0   0   0     0   0   0     0   0   0     0   0   0     0   0   0     0   0   0     0   0   0   196 198 195   194 195 192   195 195 193   197 197 195   198 198 196   198 198 196   198 198 195   200 200 198   200 200 200   198 198 197   201 201 199   206 206 204   208 208 206   209 209 207   211 211 208   212 212 210   215 215 213   215 215 213   215 215 213   217 217 215   214 214 212   211 211 209   214 214 212   215 214 212   214 210 209   214 210 209   215 210 210   215 211 210   211 209 208   208 207 205   210 209 207   212 211 209   212 212 210   213 213 211   215 215 212   217 217 215   215 215 213   213 213 211   212 212 210   211 211 209   211 211 209   212 212 210   212 212 210  
   0   0   0     0   0   0     0   0   0     0   0   0     0   0   0     0   0   0     0   0   0   198 200 197   195 196 193   196 196 194   196 196 194   196 196 194   196 196 194   197 197 195   200 200 198   200 200 200   199 199 199   205 205 203   207 207 205   209 209 207   209 209 207   211 211 208   213 213 211   214 214 212   213 213 211   215 215 213   217 217 215   214 214 212   211 211 209   214 214 212   216 212 211   213 209 208   212 208 207   213 209 208   213 209 208   210 209 207   208 207 205   210 209 207   211 210 209   212 212 210   213 213 211   213 213 211   216 216 214   216 216 213   214 214 212   212 212 210   210 210 209   210 210 208   210 210 209   212 212 210  
   0   0   0     0   0   0     0   0   0     0   0   0     0   0   0     0   0   0     0   0   0   201 201 199   197 197 196   197 197 195   196 198 195   195 197 195   196 198 197   199 201 200   199 203 202   198 202 201   200 202 200   207 208 204   209 210 205   210 211 206   210 211 206   211 211 206   213 214 209   212 213 208   213 214 209   216 217 212   218 219 214   215 216 211   212 213 208   213 214 209   214 212 209   212 208 205   211 207 204   210 206 203   211 207 204   209 208 204   208 207 203   210 209 205   210 211 206   212 213 208   212 213 208   213 215 210   216 217 212   217 218 215   216 216 214   213 213 211   210 210 208   209 209 207   210 210 208   211 211 209  
   0   0   0     0   0   0     0   0   0     0   0   0     0   0   0     0   0   0     0   0   0     0   0   0   198 198 196   197 197 195   200 202 199   200 201 199   203 206 205   205 209 208   203 209 207   199 204 203   199 203 201   206 207 203   208 209 204   212 213 208   213 214 209   211 212 207   212 213 208   212 213 208   214 215 210   218 219 214   219 220 215   217 218 213   214 215 210   214 213 209   214 210 207   212 208 205   209 205 202   208 204 201   209 205 202   208 207 203   208 207 203   210 209 205   210 211 206   212 213 208   212 213 208   212 213 208   215 216 211   218 219 216   217 217 215   213 213 211   209 209 207   208 208 206   209 209 207   211 211 209  
   0   0   0     0   0   0     0   0   0     0   0   0     0   0   0     0   0   0     0   0   0     0   0   0   198 198 195   198 198 196   204 206 203   204 209 206   211 216 214   213 219 218   207 215 214   201 209 209   201 206 204   204 205 201   207 208 203   212 213 208   214 216 211   211 212 207   211 212 207   212 213 208   217 217 212   220 221 216   220 221 216   219 220 215   216 217 212   214 215 210   211 210 206   211 207 204   209 205 202   207 203 200   207 203 200   207 206 202   208 207 203   210 209 205   210 211 206   211 212 207   211 212 207   211 212 207   214 215 210   218 218 215   218 218 216   214 214 212   209 209 207   208 208 206   209 209 207   210 210 208  
   0   0   0     0   0   0     0   0   0     0   0   0     0   0   0     0   0   0     0   0   0     0   0   0   200 199 197   200 200 198   207 209 206   208 213 210   213 221 218   214 223 222   208 218 216   206 216 215   210 217 214   207 209 205   207 208 203   213 214 209   215 217 212   211 212 207   211 212 207   214 215 210   219 220 215   222 223 218   219 220 215   218 219 214   216 217 212   214 213 209   212 208 205   212 208 205   210 206 203   208 204 201   207 203 200   207 206 202   209 208 204   210 209 205   210 210 205   211 212 207   210 211 206   211 212 207   213 214 209   217 217 214   217 217 215   214 214 212   210 210 208   209 209 207   209 209 207   210 210 208  
   0   0   0     0   0   0     0   0   0     0   0   0     0   0   0     0   0   0     0   0   0     0   0   0   201 201 198   202 204 201   205 209 208   207 212 210   211 219 216   210 220 218   205 217 215   212 224 222   222 231 227   215 218 214   210 211 206   212 213 208   213 214 209   210 211 206   213 214 209   216 217 212   220 222 217   222 222 217   217 218 213   216 217 212   215 216 211   212 213 208   210 209 205   213 209 206   212 208 205   210 206 202   208 204 201   207 206 202   209 208 204   210 209 205   210 210 205   210 211 206   210 211 206   210 211 206   212 213 208   216 216 213   216 216 214   214 214 212   210 210 209   210 210 208   209 209 207   210 210 208  
   0   0   0     0   0   0     0   0   0     0   0   0     0   0   0     0   0   0     0   0   0     0   0   0   204 203 199   206 206 203   206 208 205   205 210 206   208 214 210   206 214 211   204 215 211   218 229 225   233 240 235   226 225 220   215 213 208   212 211 206   211 210 206   209 210 205   214 215 213   216 218 215   219 222 219   219 221 218   214 216 211   214 215 210   213 214 208   211 210 205   209 208 204   213 209 206   214 210 207   211 207 204   209 205 202   207 206 202   209 208 204   210 209 205   210 210 205   210 210 208   210 210 208   210 210 208   212 212 210   215 215 213   215 215 213   214 214 212   212 212 210   211 211 209   209 209 207   209 209 207  
   0   0   0     0   0   0     0   0   0     0   0   0     0   0   0     0   0   0     0   0   0   205 204 199   206 205 200   205 204 200   206 207 202   203 204 199   205 209 203   211 218 211   220 227 220   232 242 234   243 245 238   233 227 218   219 212 203   213 208 202   210 209 205   212 212 211   210 213 212   210 215 215   212 218 218   213 217 216   213 218 213   215 217 211   215 215 208   214 214 206   214 213 208   212 211 207   210 209 205   206 205 201   204 203 199   205 204 202   207 206 205   210 209 207   211 210 208   208 207 205   208 207 205   213 212 210   216 214 214   212 212 212   211 211 211   211 211 211   212 212 212   212 212 212   212 212 212   212 212 212  
   0   0   0     0   0   0     0   0   0     0   0   0     0   0   0     0   0   0     0   0   0   203 202 197   204 203 198   202 201 196   205 204 199   203 203 197   208 209 203   215 218 211   221 226 219   234 239 232   243 241 232   231 221 211   220 209 200   215 208 202   213 210 205   213 213 212   210 213 213   208 213 215   210 216 216   211 217 215   214 218 214   217 218 213   219 216 210   219 216 209   217 216 211   215 214 210   211 210 206   207 206 202   204 203 199   206 205 203   208 207 205   211 210 208   212 210 210   209 207 208   209 207 208   212 211 211   215 213 214   211 211 211   210 210 210   211 211 211   211 211 211   211 211 211   212 212 212   212 212 212  
   0   0   0     0   0   0     0   0   0     0   0   0     0   0   0     0   0   0     0   0   0   203 201 196   203 200 195   201 198 193   205 202 197   203 203 197   207 208 202   211 213 207   214 219 212   224 228 221   231 229 221   224 213 204   216 206 196   216 209 202   214 211 206   214 214 212   211 214 214   208 213 214   209 215 215   211 217 215   214 218 214   218 219 213   219 219 210   221 218 211   220 219 214   217 216 212   213 212 208   207 206 202   205 204 200   207 206 204   209 208 206   212 211 209   213 211 211   211 209 210   210 208 209   211 209 210   212 210 211   211 210 210   210 210 210   210 210 210   210 210 210   211 211 211   212 212 212   212 212 212  
   0   0   0     0   0   0     0   0   0     0   0   0     0   0   0     0   0   0     0   0   0   205 202 197   203 200 195   200 197 192   204 201 196   205 202 197   205 205 199   205 207 200   207 209 203   210 213 206   216 214 206   217 207 198   213 204 196   216 208 202   215 212 207   214 215 213   212 215 215   210 215 215   211 217 217   213 217 216   216 218 215   218 219 214   218 218 211   220 217 210   218 217 212   216 215 211   211 210 206   207 206 202   206 205 201   209 208 206   211 210 208   212 211 209   214 212 212   212 210 211   210 208 209   211 209 210   211 209 210   210 210 210   211 211 211   211 211 211   211 211 211   212 212 212   213 213 213   214 214 214  
   0   0   0     0   0   0     0   0   0     0   0   0     0   0   0     0   0   0     0   0   0   208 204 201   206 201 198   202 197 194   202 197 194   203 200 196   203 203 198   202 203 198   203 205 200   204 206 201   209 206 200   213 204 194   212 202 193   214 209 203   215 212 207   214 215 213   214 217 216   214 218 218   215 219 220   215 219 218   215 219 215   216 218 212   215 216 208   214 214 206   213 212 207   211 210 206   209 208 204   206 206 201   207 206 202   210 209 207   212 211 209   213 212 210   214 212 212   212 210 211   210 208 209   211 209 210   211 209 210   212 211 212   212 212 212   212 212 212   212 212 212   214 214 214   215 215 215   217 217 217  
   0   0   0     0   0   0     0   0   0     0   0   0     0   0   0     0   0   0     0   0   0   210 205 202   206 201 198   203 198 195   199 194 191   203 199 196   204 202 198   204 204 199   207 208 203   208 210 205   211 208 202   212 204 195   211 204 195   214 209 202   213 210 205   214 215 211   216 219 217   216 220 221   217 221 220   216 221 217   217 218 215   215 216 211   212 212 207   211 210 205   209 208 204   209 208 204   209 208 204   207 206 202   208 207 203   211 210 208   212 211 209   213 212 210   214 212 212   211 209 210   209 207 208   210 208 209   211 209 210   212 212 212   212 212 212   212 212 212   212 212 212   214 214 214   215 215 215   218 218 218  
   0   0   0     0   0   0     0   0   0     0   0   0     0   0   0     0   0   0   209 205 202   209 204 201   206 198 196   203 195 193   197 192 189   202 198 195   203 201 197   203 203 198   207 208 203   209 211 206   212 210 204   214 206 198   213 205 197   214 209 202   211 208 203   213 214 210   219 221 218   218 221 220   217 221 220   218 220 217   216 218 214   214 215 210   211 211 206   210 209 204   208 207 203   209 208 204   210 209 205   209 208 204   209 208 204   210 209 207   212 211 209   213 212 210   213 211 212   210 208 209   208 206 207   211 208 210   213 211 212   212 212 212   211 211 211   210 210 210   210 210 210   212 212 212   215 215 215   217 217 217  
   0   0   0     0   0   0     0   0   0     0   0   0     0   0   0     0   0   0   207 203 200   207 202 199   203 196 194   200 192 190   196 191 188   202 197 195   202 199 196   200 200 195   204 204 199   206 208 203   208 208 201   215 209 201   212 207 199   213 210 202   208 207 202   213 213 209   220 221 219   219 221 219   218 220 219   217 219 216   216 217 214   214 215 210   211 211 206   210 209 204   210 209 205   211 210 206   212 211 207   210 209 205   209 208 204   209 208 206   211 210 207   213 212 210   212 211 210   209 207 208   208 206 207   211 209 210   214 212 213   211 211 211   210 210 210   209 209 209   208 208 208   211 211 211   214 214 214   216 216 216  
   0   0   0     0   0   0     0   0   0     0   0   0     0   0   0     0   0   0   201 196 193   201 196 193   197 192 190   197 192 189   197 192 189   201 197 194   202 200 196   200 200 195   202 204 199   210 212 206   219 218 212   218 215 207   211 207 198   211 208 200   211 210 205   215 214 209   217 218 213   217 218 215   218 218 216   218 218 216   216 217 214   215 215 210   212 211 207   211 210 205   212 211 207   207 206 202   207 206 202   208 207 203   207 206 202   209 208 206   212 211 209   210 209 207   210 209 209   213 211 212   215 213 214   213 211 212   211 209 210   206 206 206   207 207 207   208 208 208   209 209 209   214 214 214   217 217 217   218 218 218  
   0   0   0     0   0   0     0   0   0     0   0   0     0   0   0   192 190 186   198 194 191   199 194 191   196 191 188   197 192 189   199 194 191   200 197 193   201 201 196   202 203 198   207 208 203   215 218 213   220 220 214   213 210 202   209 206 198   212 209 202   210 209 204   212 212 207   216 217 212   216 216 213   216 216 214   216 216 214   216 216 213   216 215 211   214 213 208   213 212 207   212 211 207   208 207 203   208 207 203   209 208 204   208 207 203   209 208 206   212 210 209   211 210 208   211 209 209   212 210 211   213 211 212   211 209 210   208 206 207   206 205 205   207 207 207   208 208 208   208 208 208   212 212 212   215 215 215   216 216 216  
   0   0   0     0   0   0     0   0   0     0   0   0     0   0   0   189 189 187   193 192 190   195 192 191   194 190 189   195 191 190   200 196 195   198 197 195   199 198 196   202 204 201   208 213 209   217 222 218   220 224 217   213 214 206   210 210 203   214 214 206   210 209 204   209 208 203   213 212 208   213 214 209   214 215 210   216 215 211   217 216 212   217 216 212   216 215 211   216 215 211   212 211 207   210 209 205   211 210 206   211 210 206   210 209 205   210 209 207   212 211 209   212 211 209   212 210 210   212 210 211   212 210 211   210 208 209   207 205 206   205 205 205   208 208 208   208 208 208   207 207 207   210 210 210   213 213 213   213 213 213  
   0   0   0     0   0   0     0   0   0     0   0   0   190 190 188   189 189 187   191 190 188   193 192 190   192 191 189   192 191 189   197 196 194   194 194 192   195 196 193   201 205 201   211 217 213   220 226 222   226 230 224   224 225 218   214 214 206   215 215 207   209 209 204   207 206 201   209 208 204   212 212 207   214 215 210   216 215 211   217 216 212   217 216 212   217 216 212   216 215 211   213 212 208   212 211 207   214 213 209   214 213 209   212 211 207   211 210 208   211 211 208   213 212 210   212 210 210   212 210 211   213 211 212   211 209 210   208 206 207   208 207 207   210 210 210   209 209 209   207 207 207   210 210 210   212 212 212   211 211 211  
   0   0   0     0   0   0     0   0   0     0   0   0   191 193 190   190 192 189   191 192 189   193 193 191   192 192 190   191 191 189   191 191 189   190 191 188   193 196 193   204 209 205   220 226 221   230 238 233   236 242 235   229 231 224   210 211 203   207 208 200   208 207 202   207 206 201   207 206 201   213 212 207   215 214 209   216 215 211   217 216 212   217 216 214   216 215 213   216 215 213   214 213 209   216 215 211   217 216 212   216 215 211   215 214 210   214 213 211   212 211 209   213 212 210   212 210 210   213 211 212   215 213 214   214 212 213   213 211 212   211 210 210   211 211 211   211 211 211   208 208 208   209 209 209   210 210 210   210 210 210  
   0   0   0     0   0   0     0   0   0   191 195 192   193 198 194   192 197 193   193 195 192   195 196 193   195 195 193   192 192 190   187 187 185   187 190 187   194 200 196   209 215 211   226 235 230   239 250 243   243 251 243   227 229 221   203 204 196   201 202 194   206 205 200   207 206 201   208 207 202   212 211 206   215 214 209   216 215 211   217 216 212   217 216 214   216 215 213   216 215 213   217 216 212   219 218 214   219 218 214   218 217 213   218 217 213   217 216 214   214 213 211   214 213 211   213 211 211   214 212 213   215 213 214   215 214 215   215 213 214   211 211 211   211 211 211   209 209 209   207 207 207   208 208 208   210 210 210   208 208 208  
   0   0   0     0   0   0     0   0   0   194 198 195   195 201 197   195 201 197   195 199 195   198 200 197   197 199 196   192 194 191   186 188 185   190 193 189   197 202 198   209 217 212   223 234 228   237 248 241   241 249 242   226 228 222   205 206 200   204 205 199   208 208 200   208 208 201   210 209 204   212 210 205   215 212 207   216 212 209   218 215 212   218 217 215   219 218 215   219 218 216   220 219 215   223 222 218   222 221 217   219 218 214   220 219 215   219 219 217   215 215 213   215 214 212   213 211 212   213 211 212   214 212 213   214 212 213   213 211 212   209 208 209   209 209 209   208 208 208   205 205 205   206 206 206   208 208 208   207 207 207  
   0   0   0     0   0   0   194 196 195   195 199 196   198 203 199   199 204 200   197 202 198   200 202 199   199 201 198   193 195 191   189 191 188   193 195 192   199 203 199   208 213 209   219 225 221   228 236 231   237 242 236   232 232 227   213 212 207   214 212 207   212 211 206   208 207 202   211 210 206   211 208 205   212 208 205   215 211 208   218 215 213   219 218 216   220 220 218   221 220 216   222 221 217   225 224 219   222 221 217   219 218 214     0   0   0     0   0   0     0   0   0   216 214 214   213 211 212   213 211 212   213 211 212   212 210 210   211 209 210   207 206 207   207 207 207   206 206 206   204 204 204   205 205 205   206 206 206   205 205 205  
   0   0   0     0   0   0   193 197 196   192 197 193   197 202 196   200 204 199   201 202 197   202 204 199   199 200 195   198 199 194   194 195 190   195 194 190   197 196 192   200 199 195   206 205 201   215 214 210   226 224 221   242 237 234   236 231 228   220 215 212   213 207 207   214 210 210   213 209 210   213 209 210   215 211 212   215 213 214   219 218 216   222 222 219   221 222 217   220 221 216   225 226 218   222 223 215     0   0   0     0   0   0     0   0   0     0   0   0     0   0   0     0   0   0     0   0   0   215 210 214   213 211 214   211 209 212   210 208 209   210 209 208   207 207 205   204 204 202   203 203 201   205 205 203   206 206 204   206 206 204  
   0   0   0   184 190 187   178 183 181   190 192 190   200 202 197   202 204 199   200 201 196   201 202 197   198 199 194   198 199 194   194 193 189   196 194 190   198 194 191   200 195 192   205 200 197   212 207 204   220 214 212   232 224 222   230 222 220   221 212 213   214 208 210   215 210 212   212 207 211   212 207 211   214 209 213   215 213 214   220 218 218   222 223 219   222 223 218   220 221 215     0   0   0     0   0   0     0   0   0     0   0   0     0   0   0     0   0   0     0   0   0     0   0   0     0   0   0     0   0   0     0   0   0   212 210 213   210 208 209   210 209 208   207 207 205   205 205 203   204 204 202   205 205 203   206 206 204   206 206 204  
   0   0   0   198 203 200   182 188 185   190 195 189   200 202 197   201 203 198   199 201 196   200 201 196   197 197 193   198 197 193   194 193 189   195 193 190     0   0   0     0   0   0     0   0   0     0   0   0   208 202 199   216 208 206   218 212 209   215 210 207   215 209 209   215 209 212   210 205 209   211 206 210   214 209 213   215 213 214   220 219 216   223 222 218     0   0   0     0   0   0     0   0   0     0   0   0     0   0   0     0   0   0     0   0   0     0   0   0     0   0   0     0   0   0     0   0   0     0   0   0     0   0   0     0   0   0     0   0   0   209 209 207   207 207 205   205 205 203   204 204 202   206 206 204   206 206 204   206 206 204  
 198 203 199   202 207 204   186 191 188   189 191 187   196 198 193   199 201 196   200 201 196   201 202 197   198 198 194     0   0   0     0   0   0     0   0   0     0   0   0     0   0   0     0   0   0     0   0   0     0   0   0     0   0   0     0   0   0     0   0   0     0   0   0     0   0   0   209 204 208   211 206 210   214 209 213   214 212 213     0   0   0     0   0   0     0   0   0     0   0   0     0   0   0     0   0   0     0   0   0     0   0   0     0   0   0     0   0   0     0   0   0     0   0   0     0   0   0     0   0   0     0   0   0     0   0   0     0   0   0     0   0   0     0   0   0   205 205 203   204 204 202   206 206 204   206 206 204   205 205 203  
 203 208 202   198 203 198   178 183 179   179 182 177   190 191 186   197 198 193   201 202 197     0   0   0     0   0   0     0   0   0     0   0   0     0   0   0     0   0   0     0   0   0     0   0   0     0   0   0     0   0   0     0   0   0     0   0   0     0   0   0     0   0   0     0   0   0     0   0   0     0   0   0     0   0   0     0   0   0     0   0   0     0   0   0     0   0   0     0   0   0     0   0   0     0   0   0     0   0   0     0   0   0     0   0   0     0   0   0     0   0   0     0   0   0     0   0   0     0   0   0     0   0   0     0   0   0     0   0   0     0   0   0     0   0   0     0   0   0     0   0   0   205 205 203   205 205 203   204 204 202  
 222 224 219   216 221 215   194 197 194   178 179 175     0   0   0     0   0   0     0   0   0     0   0   0     0   0   0     0   0   0     0   0   0     0   0   0     0   0   0     0   0   0     0   0   0     0   0   0     0   0   0     0   0   0     0   0   0     0   0   0     0   0   0     0   0   0     0   0   0     0   0   0     0   0   0     0   0   0     0   0   0     0   0   0     0   0   0     0   0   0     0   0   0     0   0   0     0   0   0     0   0   0     0   0   0     0   0   0     0   0   0     0   0   0     0   0   0     0   0   0     0   0   0     0   0   0     0   0   0     0   0   0     0   0   0     0   0   0     0   0   0     0   0   0   203 203 201   202 202 200  
