P3
50 50
255
 168 168 168   168 168 168   168 168 166   168 168 166   168 168 168   168 168 170   168 168 170   168 167 172   168 167 173   168 167 173   172 171 179   172 171 179   172 171 177   172 171 177   172 171 176   172 171 176   172 172 174   172 172 174   174 175 179   174 175 179   174 175 179   173 174 178   173 174 178   173 174 178   173 174 176   173 174 176   174 175 177   175 176 178   176 178 177   177 179 178   177 179 178   177 179 178   176 178 177   175 176 178   176 177 179   175 176 180   174 175 179   173 174 178   172 173 177   172 173 177   172 173 177   172 173 177   175 176 180   175 176 180   176 177 181   177 178 182   178 179 183   179 180 184   179 180 184   179 180 182  
 168 168 168   168 168 168   168 168 166   168 168 166   168 168 168   168 168 170   169 169 171   169 168 173   169 168 174   169 168 174   170 170 178   170 170 178   170 170 176   172 171 177   173 172 177   173 172 177   173 173 176   174 174 176   173 174 178   173 174 178   173 174 178   173 174 178   173 174 178   173 174 178   173 174 176   173 174 176   175 176 178   176 177 179   177 179 178   178 180 179   178 181 180   178 180 179   177 179 178   176 178 177   176 176 178   175 176 179   175 175 179   174 175 178   173 174 178   175 175 179   175 175 179   175 175 179   175 176 179   176 177 180   178 178 182   180 181 184   181 182 185   181 182 185   182 182 186   182 182 185  
   0   0   0   168 168 168   168 170 167   168 170 167   168 170 169   168 169 171   169 170 172   169 170 174   170 171 176   170 171 176   169 169 177   169 169 177   170 171 176   171 172 177   173 174 178   174 175 179   175 176 178   175 176 178   174 175 179   174 175 179   174 175 179   174 175 179   174 175 179   174 175 179   174 175 177   174 175 177   177 178 180   178 179 181   179 181 180   180 182 181   181 183 182   180 182 181   179 181 180   179 181 180   178 178 180   177 177 179   176 176 178   176 176 178   175 175 177   176 176 178   176 176 178   176 176 178   176 176 178   178 178 180   181 181 183   184 184 186   186 186 188   186 186 188   185 185 187     0   0   0  
   0   0   0     0   0   0     0   0   0   168 170 167   168 170 169   169 170 172   170 170 173   170 170 175   170 172 177   170 172 177   169 169 177   169 169 177   170 171 176   172 173 178   173 174 178   174 175 179   175 176 178   176 177 179   175 175 180   175 175 180   175 175 180   175 176 180   175 177 180   176 177 181   176 177 179   176 177 179   178 179 180   179 180 182   180 182 181   181 183 182   182 184 183   180 183 182   180 182 180   179 181 180   179 179 181   178 178 180   177 177 179   176 176 178   174 174 176   173 173 176   173 173 176   173 173 176   177 177 179   180 180 182   183 183 185   186 186 188   188 188 190   188 188 190     0   0   0     0   0   0  
   0   0   0     0   0   0     0   0   0   168 170 167   169 171 170   170 171 173   170 171 173   171 172 176   172 173 178   172 173 178   171 171 179   171 171 179   172 173 178   172 173 178   173 174 178   173 174 178   174 175 177   174 175 177   175 176 180   175 176 180   175 176 180   176 177 181   176 177 181   177 178 182   177 178 180   178 179 181   178 179 181   179 180 182   180 182 181   181 183 182   182 184 183   181 183 182   180 182 181   180 182 181   181 181 183   180 180 182   179 179 181   177 177 179   175 175 177   174 174 176   174 174 176   174 174 176   181 181 183   182 182 184   185 185 187   187 187 189   189 189 191   189 189 191     0   0   0     0   0   0  
   0   0   0     0   0   0     0   0   0   168 170 167   169 171 170   170 171 173   171 172 174   172 173 177   173 174 179   173 174 179   173 173 181   173 173 181   173 174 179   173 174 179   173 174 178   172 173 177   172 173 175   172 173 175   173 174 177   173 174 178   174 175 179   174 175 179   175 176 179   176 177 180   176 177 179   177 178 180   178 179 181   179 180 182   180 182 181   181 183 182   181 183 182   181 183 182   180 182 181   179 181 180   181 181 183   180 180 182   180 180 182   179 179 181   178 178 180   178 178 180   178 178 180   179 179 181   183 183 185   184 184 186   185 185 187   187 187 189   188 188 189   189 189 191     0   0   0     0   0   0  
   0   0   0     0   0   0     0   0   0   168 171 171   167 171 171   169 171 173   170 172 176   171 173 177   172 174 179   173 175 179   175 176 180   175 176 180   175 175 180   174 174 179   173 173 177   173 173 177   172 172 175   172 173 175   172 173 175   173 174 177   174 174 176   174 175 178   175 176 177   175 176 177   176 176 178   176 177 178   178 178 180   178 179 180   180 181 180   181 182 182   182 183 183   182 183 182   181 183 182   181 181 181   183 183 182   182 180 180   181 180 180   181 181 181   183 182 182   183 183 182   183 182 182   184 183 183   185 184 184   186 186 186   187 187 186   186 186 187   187 187 186     0   0   0     0   0   0     0   0   0  
   0   0   0     0   0   0     0   0   0   167 171 173   166 172 173   167 172 175   169 173 176   170 174 177   171 175 178   172 176 179   175 176 180   175 176 180   176 175 180   176 175 180   175 174 179   175 174 179   176 174 179   176 175 178   176 176 177   177 177 178   178 178 178   178 178 179   177 177 177   177 177 177   178 178 178   179 179 179   180 180 180   179 179 179   180 180 180   182 182 182   185 185 185   187 187 187   186 186 186   184 184 184   187 186 183   187 183 181   186 184 181   189 187 184   188 187 184   185 184 181   184 183 180   185 184 181   187 186 183   191 190 187   190 190 188   187 187 186   187 187 185     0   0   0     0   0   0     0   0   0  
   0   0   0     0   0   0     0   0   0   165 170 173   166 170 173   167 171 174   167 171 174   169 173 176   172 173 177   172 173 177   174 175 179   174 175 179   175 174 179   175 174 179   175 174 179   175 174 179   176 174 179   176 174 179   175 175 175   176 176 176   177 177 177   177 177 177   176 176 176   176 176 176   177 177 177   178 178 178   180 180 180   180 180 180   180 180 180   183 183 183   186 186 186   188 188 188   188 188 188   188 188 188   190 189 185   193 191 187   198 196 193   202 200 196   197 196 192   190 189 185   188 187 183   189 188 184   191 190 186   192 191 187   192 191 188   189 188 185   188 188 185     0   0   0     0   0   0     0   0   0  
   0   0   0     0   0   0     0   0   0     0   0   0   165 169 172   166 170 173   167 171 174   168 172 175   171 172 176   172 173 177   173 174 178   173 174 178   174 173 178   174 173 178   174 173 178   174 173 178   175 173 178   176 174 179   175 175 175   176 176 176   177 177 177   177 177 177   176 176 176   176 176 176   177 177 177   178 178 178   181 181 181   182 182 182   183 183 183   185 185 185   188 188 188   191 191 191   192 192 192   192 192 192   201 202 197   204 203 199   209 210 205   215 214 210   213 212 208   206 204 201   201 200 196   201 200 196   196 195 191   196 194 191   195 194 190   193 192 188   192 191 189     0   0   0     0   0   0     0   0   0  
   0   0   0     0   0   0     0   0   0     0   0   0   164 168 171   165 169 172   167 168 172   169 170 174   170 171 175   170 171 175   172 171 176   173 172 177   173 172 177   173 172 177   174 173 178   174 173 178   174 173 178   174 173 178   175 175 175   176 176 176   177 177 177   177 177 177   176 176 176   176 176 176   177 177 177   178 178 178   181 181 181   182 182 182   184 184 184   186 186 186   189 189 189   192 192 192   195 195 195   197 197 197   207 208 203   204 205 200   205 207 202   213 214 209   217 218 213   214 215 210   209 210 205   206 207 202   202 201 197   200 199 195   200 196 193   199 195 192   197 193 190     0   0   0     0   0   0     0   0   0  
   0   0   0     0   0   0     0   0   0     0   0   0   163 167 169   165 167 170   167 168 171   168 169 172   169 170 173   170 170 174   171 170 174   172 171 175   172 171 175   173 172 176   173 172 176   174 173 177   174 173 177   174 174 176   176 176 176   177 177 177   178 178 178   178 178 178   177 177 177   177 177 177   178 178 178   179 179 179   180 180 180   182 182 182   184 184 184   186 186 186   189 189 189   192 192 192   197 197 197   200 201 201   207 210 207   203 206 201   203 206 202   212 214 210   220 221 217   219 220 216   215 216 211   211 212 207   208 207 203   206 201 198   203 200 196   204 199 196   203 198 195     0   0   0     0   0   0     0   0   0  
   0   0   0     0   0   0     0   0   0     0   0   0   165 166 168   166 166 168   166 167 169   168 168 170   169 169 171   170 170 172   171 171 173   171 171 173   171 171 173   172 172 174   173 173 175   173 173 175   174 174 176   174 174 176   178 178 178   179 179 179   180 180 180   180 180 180   179 179 179   179 179 179   180 180 180   181 181 181   179 179 179   182 182 182   184 184 184   186 186 186   188 188 188   192 192 192   198 198 198   202 204 203   203 208 204   202 207 203   206 211 207   215 219 215   220 222 219   217 219 216   214 215 210   213 213 209   211 210 206   208 204 201   206 202 199   208 203 200     0   0   0     0   0   0     0   0   0     0   0   0  
   0   0   0     0   0   0     0   0   0     0   0   0   162 163 165   163 163 165   163 163 165   164 164 166   165 165 167   165 165 167   164 164 166   166 166 168   169 169 171   172 172 174   175 175 177   175 175 177   173 173 175   172 172 174   177 177 177   180 180 180   181 181 181   181 181 181   180 180 180   179 179 179   180 180 180   182 182 182   180 180 180   182 182 182   183 183 183   185 185 185   186 186 186   190 190 190   196 196 196   201 202 201   204 208 207   203 209 206   206 210 208   210 214 212   215 217 214   216 218 215   215 216 213   216 215 212   213 212 208   207 203 201   205 200 196   206 201 197     0   0   0     0   0   0     0   0   0     0   0   0  
   0   0   0     0   0   0     0   0   0     0   0   0   162 160 163   162 160 163   162 162 164   162 162 164   162 162 164   162 162 164   162 162 164   163 163 165   165 165 167   169 169 171   173 173 175   175 175 177   175 175 177   174 174 176   179 179 179   181 181 181   183 183 183   182 182 182   180 180 180   178 178 178   178 178 178   178 178 178   179 179 179   181 181 181   183 183 183   184 184 184   185 185 185   190 190 190   197 197 197   201 203 202   205 209 208   206 210 209   209 212 212   215 217 216   219 221 218   220 222 219   219 219 217   216 216 214   212 211 207   208 204 201   206 202 198   209 204 200     0   0   0     0   0   0     0   0   0     0   0   0  
   0   0   0     0   0   0     0   0   0     0   0   0   163 159 160   163 159 160   162 160 161   162 160 161   162 160 161   162 160 161   161 161 161   161 161 161   162 162 162   166 166 166   170 170 170   174 174 174   177 177 177   177 177 177   180 180 180   181 181 181   183 183 183   182 182 182   180 180 180   177 177 177   175 175 175   175 175 175   177 177 177   180 180 180   182 182 182   184 184 184   186 186 186   190 190 190   197 197 197   203 203 203   205 206 208   209 210 212   216 218 217   223 225 224   226 228 227   225 225 225   220 220 218   216 216 214   213 212 208   211 207 204   209 206 201   213 208 204     0   0   0     0   0   0     0   0   0     0   0   0  
   0   0   0     0   0   0     0   0   0     0   0   0   163 159 160   163 159 160   161 159 160   161 159 160   162 160 161   162 160 161   160 159 160   160 160 160   162 162 162   166 166 166   171 171 171   175 175 175   177 178 177   177 178 177   178 178 178   179 179 179   180 180 180   180 180 180   179 179 179   177 177 177   175 175 175   173 173 173   174 174 174   177 177 177   180 180 180   183 183 183   185 185 185   190 190 190   197 197 197   202 202 202   206 206 208   211 210 213   217 218 218   224 223 224   226 226 226   225 224 225   221 221 219   218 217 216   217 216 212   212 211 207   210 208 203     0   0   0     0   0   0     0   0   0     0   0   0     0   0   0  
   0   0   0     0   0   0     0   0   0   164 158 160   163 159 160   163 159 160   164 160 161   164 160 161   162 160 161   162 160 161   161 159 160   162 160 161   164 164 164   168 168 168   172 172 172   175 175 175   173 175 174   173 175 174   174 174 174   174 174 174   174 174 174   175 175 175   176 176 176   176 176 176   174 174 174   173 173 173   172 172 172   175 175 175   179 179 179   182 182 182   185 185 185   189 189 189   195 195 195   200 200 200   206 205 208   210 208 211   215 214 216   219 217 220   220 218 219   221 219 220   221 220 218   221 220 218   218 217 213   213 212 208   209 208 203     0   0   0     0   0   0     0   0   0     0   0   0     0   0   0  
   0   0   0     0   0   0     0   0   0   165 159 160   164 159 160   164 159 160   165 160 162   165 160 162   164 160 162   164 160 162   164 162 163   163 161 162   163 163 163   165 165 165   167 167 167   169 169 169   168 170 169   167 169 168   169 169 169   167 167 167   166 166 166   167 167 167   169 169 169   170 170 170   170 170 170   169 169 169   170 170 170   173 173 173   177 177 177   180 180 180   182 182 182   186 186 186   192 192 192   197 197 197   205 202 206   209 205 208   213 209 212   215 211 215   215 213 214   217 215 216   219 218 216   221 220 218   217 216 212   214 213 209   210 210 204     0   0   0     0   0   0     0   0   0     0   0   0     0   0   0  
   0   0   0     0   0   0     0   0   0   164 160 161   165 161 162   165 161 162   163 161 162   163 161 162   164 162 163   164 162 163   167 165 166   164 164 164   161 161 161   160 160 160   162 162 162   164 164 164   164 166 165   164 166 165   166 166 164   164 163 161   161 160 158   161 160 159   163 162 160   165 163 164   165 164 163   164 163 163   169 167 168   172 172 172   176 176 176   179 179 179   181 181 181   185 185 185   190 190 190   194 194 194   201 201 203   206 204 207   210 208 211   213 211 214   213 213 213   214 214 214   217 217 215   220 219 217   218 217 214   216 215 211     0   0   0     0   0   0     0   0   0     0   0   0     0   0   0     0   0   0  
   0   0   0     0   0   0     0   0   0   164 164 164   164 164 164   164 164 164   164 164 164   164 164 164   165 165 165   165 165 165   165 165 165   164 166 165   163 165 164   162 164 163   162 164 163   161 163 162   161 163 162   162 162 160   160 159 155   164 160 157   162 158 155   158 154 151   159 155 152   165 161 159   168 164 160   166 162 160   165 161 160   168 167 165   174 172 173   180 180 180   184 184 186   187 188 190   191 192 194   193 194 196   194 199 199   199 203 204   204 209 209   207 210 212   209 210 212   209 210 212   210 212 211   212 212 212   216 216 216   212 212 210     0   0   0     0   0   0     0   0   0     0   0   0     0   0   0     0   0   0  
   0   0   0     0   0   0     0   0   0   163 165 164   162 164 163   162 164 163   163 165 164   164 166 165   164 166 165   165 167 166   169 171 170   168 170 169   165 167 166   162 164 163   161 163 162   161 162 161   161 162 161   162 162 161   164 161 158   166 162 158   164 160 156   160 155 151   160 155 152   163 159 155   165 160 157   164 159 156   170 166 165   173 170 169   176 174 175   180 178 179   182 182 183   184 185 186   187 188 189   189 190 191   190 193 193   193 197 197   197 202 202   201 205 205   204 207 208   208 208 210   210 212 210   212 214 213   216 216 215     0   0   0     0   0   0     0   0   0     0   0   0     0   0   0     0   0   0     0   0   0  
   0   0   0     0   0   0     0   0   0   164 166 165   164 166 165   163 165 164   163 165 164   164 166 165   164 166 165   164 166 165   168 170 169   166 168 167   165 167 166   164 166 165   163 165 164   164 166 165   164 166 165   165 165 164   161 160 157   163 159 157   161 159 155   161 157 155   160 157 154   164 160 158   165 162 161   165 162 161   170 169 167   171 170 168   174 172 173   176 174 175   176 176 176   178 178 178   181 181 181   183 184 183   186 187 186   188 189 189   191 193 192   196 197 196   200 201 200   205 205 204   209 209 207   212 212 210   215 215 213     0   0   0     0   0   0     0   0   0     0   0   0     0   0   0     0   0   0     0   0   0  
   0   0   0     0   0   0   164 166 165   164 166 165   162 165 163   161 163 162   161 163 162   161 163 162   161 163 162   161 163 162   161 163 162   162 164 163   163 165 164   164 166 165   165 167 165   164 166 165   163 166 165   163 165 164   158 158 157   160 157 157   158 158 155   162 159 159   162 162 159   165 163 163   166 166 165   168 168 167   173 172 170   174 173 171   176 175 174   177 176 175   178 177 176   179 179 177   182 182 180   186 183 182   187 184 183   187 185 184   187 187 185   191 190 189   195 194 193   201 198 196   203 203 199   206 205 202   210 209 206     0   0   0     0   0   0     0   0   0     0   0   0     0   0   0     0   0   0     0   0   0  
   0   0   0     0   0   0   159 161 160   158 160 160   157 159 158   156 158 157   156 158 157   156 158 157   156 158 157   156 158 157   158 160 159   159 161 160   161 163 162   162 164 163   161 163 162   160 162 161   158 160 159   157 159 158   162 162 162   161 160 162   161 161 160   164 164 164   166 167 166   167 167 167   168 169 169   172 172 172   176 176 174   178 178 176   180 179 178   182 181 179   183 182 179   184 181 180   187 183 180   190 185 182   190 185 182   189 183 183   189 183 183   191 185 185   194 190 187   197 193 190   199 195 192   199 196 193     0   0   0     0   0   0     0   0   0     0   0   0     0   0   0     0   0   0     0   0   0     0   0   0  
   0   0   0     0   0   0   148 150 149   148 150 149   148 150 149   148 150 149   149 152 150   151 153 152   153 155 154   153 155 154   157 159 158   155 157 157   155 157 156   154 156 155   154 156 155   155 157 156   156 158 157   156 158 158   162 163 165   160 161 165   162 163 165   167 168 170   168 172 173   170 171 173   170 175 173   176 179 178   178 181 178   181 182 180   185 185 180   186 185 181   185 185 180   187 183 180   187 184 179   189 184 181   193 185 183   192 184 182   191 183 181   193 185 183   194 189 185   197 192 188   197 192 188   196 191 187     0   0   0     0   0   0     0   0   0     0   0   0     0   0   0     0   0   0     0   0   0     0   0   0  
   0   0   0     0   0   0     0   0   0   139 141 140   140 142 141   143 145 144   145 148 147   148 150 149   149 151 150   151 153 152   153 155 154   151 153 152   149 151 150   148 150 149   148 150 149   152 154 153   155 158 157   158 159 161   157 159 162   157 159 163   159 163 166   166 170 173   169 174 175   172 176 177   176 181 180   181 186 185   185 190 187   189 192 189   192 194 190   193 194 190   193 192 188   193 189 186   192 187 184   194 186 183   194 186 184   193 183 182   191 183 181   193 185 183   196 188 185   198 190 187   195 190 186   193 188 184     0   0   0     0   0   0     0   0   0     0   0   0     0   0   0     0   0   0     0   0   0     0   0   0  
   0   0   0     0   0   0     0   0   0   132 134 133   132 134 133   135 137 136   137 139 138   138 140 139   141 143 142   144 146 145   146 148 147   145 147 146   145 147 146   144 146 145   143 145 144   145 147 146   149 151 150   152 153 155   152 154 158   154 157 162   159 163 166   163 167 170   166 171 174   172 177 180   179 186 186   184 192 191   190 198 195   195 200 198   198 202 198   200 201 199   198 198 195   196 194 191   195 190 187   195 188 186   195 187 185   193 184 183   191 183 181   193 185 183   196 189 186   198 191 188   194 189 185   192 187 183     0   0   0     0   0   0     0   0   0     0   0   0     0   0   0     0   0   0     0   0   0     0   0   0  
   0   0   0     0   0   0     0   0   0     0   0   0   124 126 125   123 125 124   129 131 130   136 138 137   135 137 136   129 131 130   137 139 138   137 139 138   137 139 138   137 139 138   138 140 139   140 142 141   143 145 144   146 147 149   147 148 152   151 152 157   154 158 160   160 164 165   165 170 171   171 179 180   180 189 188   186 196 195   190 200 197   194 202 200   198 204 201   200 204 202   200 200 199   197 195 196   196 192 191   196 190 190   192 185 185   191 184 184   191 185 184   194 188 187   196 192 189   198 194 191   196 192 189   194 190 187     0   0   0     0   0   0     0   0   0     0   0   0     0   0   0     0   0   0     0   0   0     0   0   0  
   0   0   0     0   0   0     0   0   0     0   0   0     0   0   0   125 127 126   144 146 145   158 160 159   145 147 146   121 123 122   134 136 135   135 137 136   136 138 137   136 138 137   135 137 136   136 138 137   137 139 138   140 141 141   142 142 145   146 146 149   151 152 154   154 158 159   160 166 166   167 176 175   177 187 186   184 194 193   188 199 195   191 202 198   195 204 201   198 204 204   199 201 200   196 196 198   195 193 194   196 192 193   197 193 194   197 193 192   195 194 192   198 196 194   199 198 196   202 198 194   198 197 193   196 194 191     0   0   0     0   0   0     0   0   0     0   0   0     0   0   0     0   0   0     0   0   0     0   0   0  
   0   0   0     0   0   0     0   0   0     0   0   0     0   0   0     0   0   0   143 145 144   154 156 155   145 147 146   125 127 126   129 131 130   131 133 132   133 135 134   134 136 134   134 136 135   134 136 135   135 137 136   137 137 137   142 140 141   146 144 145   149 151 150   152 156 155   157 163 161   162 172 169   170 180 179   176 188 186   183 195 193   186 198 196   190 201 200   193 202 204   194 199 200   194 196 200   194 194 196   193 193 195   195 195 195   195 195 195   196 197 196   198 199 198   199 199 199   201 200 198   199 199 197   198 198 196     0   0   0     0   0   0     0   0   0     0   0   0     0   0   0     0   0   0     0   0   0     0   0   0  
   0   0   0     0   0   0     0   0   0     0   0   0     0   0   0     0   0   0   123 125 124   128 130 129   132 133 133   130 132 130   121 123 122   124 126 125   128 130 129   130 133 132   133 135 134   133 135 134   134 135 135   135 135 135   140 137 138   146 142 142   149 149 148   151 155 153   154 160 158   156 167 163   162 174 172   167 179 177   173 188 186   177 191 189   183 195 195   187 197 198   189 195 198   189 193 197   190 191 196   189 191 195   187 189 191   188 191 190   188 192 192   191 193 193   193 195 195   196 196 197   199 199 198     0   0   0     0   0   0     0   0   0     0   0   0     0   0   0     0   0   0     0   0   0     0   0   0     0   0   0  
   0   0   0     0   0   0     0   0   0     0   0   0     0   0   0     0   0   0     0   0   0   128 130 129   127 129 128   127 129 128   122 124 123   125 127 126   129 131 130   132 133 132   132 134 133   132 133 134   132 134 133   133 133 133   134 131 131   139 137 135   144 144 142   148 150 147   149 155 153   150 160 157   155 166 163   157 170 168   164 178 176   168 181 180   175 186 185   179 189 189   181 188 191   183 187 191   182 186 190   182 186 188   186 190 191   186 191 191   185 191 191   185 190 191   187 191 192   190 192 194   193 196 195     0   0   0     0   0   0     0   0   0     0   0   0     0   0   0     0   0   0     0   0   0     0   0   0     0   0   0  
   0   0   0     0   0   0     0   0   0     0   0   0     0   0   0     0   0   0     0   0   0     0   0   0   125 126 125   127 127 127   125 125 125   125 126 126   127 128 129   131 130 132   133 134 135   135 133 137   132 133 134   131 131 133   131 132 132   134 135 134   137 140 138   141 145 143   145 150 146   146 153 149   147 154 150   148 154 153   156 162 161   163 169 168   168 175 171   170 174 172   172 175 174   176 177 176   175 177 176   173 174 173   178 180 179   179 184 183   181 185 185   182 186 186   181 187 186   183 189 188   186 192 191     0   0   0     0   0   0     0   0   0     0   0   0     0   0   0     0   0   0     0   0   0     0   0   0     0   0   0  
   0   0   0     0   0   0     0   0   0     0   0   0     0   0   0     0   0   0     0   0   0     0   0   0     0   0   0   130 130 130   127 127 127   125 125 125   125 123 126   126 124 127   129 128 132   131 129 134   132 130 135   130 130 132   127 131 130   131 137 135   137 141 140   139 143 142   139 144 140   142 147 143   149 151 148   152 154 152   152 153 150   156 157 155   159 160 155   158 159 154   159 158 154   162 161 157   164 163 159   164 163 159   166 166 164   169 171 168   171 175 174   174 178 177   174 180 178   176 183 180   179 187 186     0   0   0     0   0   0     0   0   0     0   0   0     0   0   0     0   0   0     0   0   0     0   0   0     0   0   0  
   0   0   0     0   0   0     0   0   0     0   0   0     0   0   0     0   0   0     0   0   0     0   0   0     0   0   0   131 131 131   130 130 130   126 126 126   124 122 125   122 120 123   124 122 124   127 124 127   129 127 129   129 129 131   128 132 131   127 133 131   130 134 133   134 137 137   138 142 141   143 147 146   149 151 148   150 152 149   151 153 150   149 151 148   148 149 144   147 148 143   147 146 142   145 144 140   148 147 143   153 152 149   153 153 151   157 157 157   162 164 163   165 167 166   166 170 169   169 173 172   172 178 176     0   0   0     0   0   0     0   0   0     0   0   0     0   0   0     0   0   0     0   0   0     0   0   0     0   0   0  
   0   0   0     0   0   0     0   0   0     0   0   0     0   0   0     0   0   0     0   0   0     0   0   0     0   0   0     0   0   0   127 127 127   125 125 125   123 121 122   120 119 121   120 119 119   122 120 122   124 122 122   124 124 124   126 129 128   123 128 127   124 128 127   132 136 135   142 146 145   147 150 149   145 147 145   140 142 140   151 153 150   147 149 146   145 146 142   145 145 141   143 143 139   140 140 135   142 142 138   147 146 144   148 148 146   152 152 152   157 158 158   160 161 161   160 163 162   162 165 164   164 170 168     0   0   0     0   0   0     0   0   0     0   0   0     0   0   0     0   0   0     0   0   0     0   0   0     0   0   0  
   0   0   0     0   0   0     0   0   0     0   0   0     0   0   0     0   0   0     0   0   0     0   0   0     0   0   0   129 129 129   121 121 121   121 121 121   121 120 119   119 118 117   118 117 115   117 115 115   117 116 114   116 116 115   116 118 117   124 128 129   136 140 139   142 146 145   143 145 144   140 142 141   140 142 141   141 143 142   144 146 143   144 146 143   144 144 142   142 142 140   141 142 137   141 142 137   142 143 138   143 143 141   144 143 142   149 147 148   152 152 152   155 155 155   153 155 154   154 156 155   154 158 157   155 159 158     0   0   0     0   0   0     0   0   0     0   0   0     0   0   0     0   0   0     0   0   0     0   0   0  
   0   0   0     0   0   0     0   0   0     0   0   0     0   0   0     0   0   0     0   0   0     0   0   0   131 131 131   126 126 126   118 118 118   119 119 119   120 119 117   118 117 115   115 113 110   113 112 109   113 112 109   114 114 112   114 116 115   131 133 134   149 151 152   152 154 155   143 145 144   135 137 136   137 139 138   144 145 145   141 143 141   147 149 147   146 147 144   138 139 136   135 136 133   140 142 138   141 141 139   137 137 135   137 135 136   143 139 142   145 144 145   147 146 147   145 146 146   144 145 144   144 146 144   145 147 145   153 158 155     0   0   0     0   0   0     0   0   0     0   0   0     0   0   0     0   0   0     0   0   0  
   0   0   0     0   0   0     0   0   0     0   0   0     0   0   0     0   0   0     0   0   0     0   0   0   130 130 130   123 123 123   121 121 121   122 122 122   122 121 119   119 118 116   115 114 110   114 113 109   116 114 111   118 117 115   127 127 127   135 136 138   146 147 149   152 153 155   150 152 151   145 147 146   140 142 142   138 140 140   152 154 153   160 162 161   155 157 154   138 140 137   132 134 131   140 142 139   141 141 139   130 130 130   133 131 134   139 134 138   142 140 141   143 141 142   141 141 141   139 139 139   138 140 137   139 141 138   140 145 141     0   0   0     0   0   0     0   0   0     0   0   0     0   0   0     0   0   0     0   0   0  
   0   0   0     0   0   0     0   0   0     0   0   0     0   0   0     0   0   0     0   0   0   137 138 140   134 134 134   130 130 130   129 129 129   126 126 126   123 121 120   119 118 115   117 115 112   117 116 112   119 118 114   121 120 118   128 128 128   132 132 134   136 137 139   142 142 144   144 145 147   144 146 148   143 145 144   141 143 142   147 149 147   152 154 153   149 152 150   137 139 138   132 134 131   136 138 135   136 138 135   130 130 130   133 132 134   132 130 135   131 130 132   133 131 133   137 135 136   139 139 137   136 137 132   134 134 129   136 138 133   151 153 150     0   0   0     0   0   0     0   0   0     0   0   0     0   0   0     0   0   0  
   0   0   0     0   0   0     0   0   0     0   0   0     0   0   0     0   0   0   143 144 146   142 143 145   140 140 140   139 139 139   132 132 132   131 131 131   131 130 128   128 127 125   125 124 121   122 121 118   120 119 116   119 118 117   124 124 125   127 127 130   132 132 135   137 138 140   140 141 143   141 141 143   139 140 140   138 139 139   141 143 142   145 147 146   145 147 146   139 141 140   136 138 136   134 136 134   130 133 129   124 126 125   127 127 130   132 130 135   136 136 138   140 138 141   139 138 136   136 135 133   131 132 127   129 129 124   129 130 125   142 144 139   152 157 153     0   0   0     0   0   0     0   0   0     0   0   0     0   0   0  
   0   0   0     0   0   0     0   0   0     0   0   0     0   0   0   145 146 148   143 145 145   145 146 147   145 145 145   144 144 144   141 141 141   140 140 140   140 139 138   137 136 135   133 132 130   127 125 125   121 120 118   118 116 117   125 125 127   128 127 132   133 132 137   136 135 140   136 136 138     0   0   0     0   0   0     0   0   0     0   0   0     0   0   0   139 141 140   139 141 140   133 137 136   125 129 128   121 126 122   121 124 123   122 125 128   129 130 135   136 137 140   140 141 143   138 139 137   133 134 130   129 128 124   127 126 121   127 128 122   138 139 134   147 149 145   151 153 152     0   0   0     0   0   0     0   0   0     0   0   0  
   0   0   0     0   0   0     0   0   0     0   0   0   145 146 144   143 145 145   143 145 142   146 148 147   148 148 148   147 147 147   150 150 150   148 148 148   145 143 144   140 138 140   133 131 132   127 125 127   122 120 121     0   0   0     0   0   0     0   0   0     0   0   0     0   0   0     0   0   0     0   0   0     0   0   0     0   0   0     0   0   0     0   0   0     0   0   0     0   0   0     0   0   0     0   0   0     0   0   0     0   0   0   122 127 131   125 130 134   130 133 136   133 134 136   131 133 130   128 129 124   125 124 119   123 123 116   129 130 122   136 136 131   143 145 140   149 150 149   153 156 155     0   0   0     0   0   0     0   0   0  
   0   0   0     0   0   0     0   0   0   139 141 138   141 143 140   141 143 140   144 146 143   149 152 149   152 152 152   151 151 151   155 155 155   151 151 151   146 144 147     0   0   0     0   0   0     0   0   0     0   0   0     0   0   0     0   0   0     0   0   0     0   0   0     0   0   0     0   0   0     0   0   0     0   0   0     0   0   0     0   0   0     0   0   0     0   0   0     0   0   0     0   0   0     0   0   0     0   0   0     0   0   0     0   0   0     0   0   0     0   0   0   126 130 131   124 126 123   121 123 118   118 119 113   119 119 111   126 126 118   130 130 125   137 138 133   145 145 143   152 153 155   156 157 161     0   0   0     0   0   0  
   0   0   0     0   0   0     0   0   0   139 141 136   141 143 138   141 143 138   144 146 143   150 152 149   152 152 152   149 149 149     0   0   0     0   0   0     0   0   0     0   0   0     0   0   0     0   0   0     0   0   0     0   0   0     0   0   0     0   0   0     0   0   0     0   0   0     0   0   0     0   0   0     0   0   0     0   0   0     0   0   0     0   0   0     0   0   0     0   0   0     0   0   0     0   0   0     0   0   0     0   0   0     0   0   0     0   0   0     0   0   0     0   0   0     0   0   0   118 119 114   118 119 113   124 123 116   124 121 114   124 122 117   129 127 124   139 137 135   147 147 149   151 150 155     0   0   0     0   0   0  
   0   0   0     0   0   0   141 142 138   142 144 141   141 143 141   141 143 141   143 145 143   146 148 148     0   0   0     0   0   0     0   0   0     0   0   0     0   0   0     0   0   0     0   0   0     0   0   0     0   0   0     0   0   0     0   0   0     0   0   0     0   0   0     0   0   0     0   0   0     0   0   0     0   0   0     0   0   0     0   0   0     0   0   0     0   0   0     0   0   0     0   0   0     0   0   0     0   0   0     0   0   0     0   0   0     0   0   0     0   0   0     0   0   0     0   0   0     0   0   0     0   0   0   130 130 125   123 122 118   124 123 118   128 127 124   136 135 134   144 142 145   146 145 149   143 142 147     0   0   0  
   0   0   0   144 148 142   143 145 143   142 144 144   140 142 142     0   0   0     0   0   0     0   0   0     0   0   0     0   0   0     0   0   0     0   0   0     0   0   0     0   0   0     0   0   0     0   0   0     0   0   0     0   0   0     0   0   0     0   0   0     0   0   0     0   0   0     0   0   0     0   0   0     0   0   0     0   0   0     0   0   0     0   0   0     0   0   0     0   0   0     0   0   0     0   0   0     0   0   0     0   0   0     0   0   0     0   0   0     0   0   0     0   0   0     0   0   0     0   0   0     0   0   0     0   0   0     0   0   0   136 136 135   140 138 138   143 141 142   148 145 146   150 147 149   151 148 150   148 148 147  
 140 145 139   145 150 145   142 144 143     0   0   0     0   0   0     0   0   0     0   0   0     0   0   0     0   0   0     0   0   0     0   0   0     0   0   0     0   0   0     0   0   0     0   0   0     0   0   0     0   0   0     0   0   0     0   0   0     0   0   0     0   0   0     0   0   0     0   0   0     0   0   0     0   0   0     0   0   0     0   0   0     0   0   0     0   0   0     0   0   0     0   0   0     0   0   0     0   0   0     0   0   0     0   0   0     0   0   0     0   0   0     0   0   0     0   0   0     0   0   0     0   0   0     0   0   0     0   0   0     0   0   0     0   0   0   154 152 153   154 151 152   153 150 151   153 149 150   151 150 148  
 137 142 136   140 145 141   139 141 140     0   0   0     0   0   0     0   0   0     0   0   0     0   0   0     0   0   0     0   0   0     0   0   0     0   0   0     0   0   0     0   0   0     0   0   0     0   0   0     0   0   0     0   0   0     0   0   0     0   0   0     0   0   0     0   0   0     0   0   0     0   0   0     0   0   0     0   0   0     0   0   0     0   0   0     0   0   0     0   0   0     0   0   0     0   0   0     0   0   0     0   0   0     0   0   0     0   0   0     0   0   0     0   0   0     0   0   0     0   0   0     0   0   0     0   0   0     0   0   0     0   0   0     0   0   0     0   0   0     0   0   0   156 154 154   157 153 154   155 154 152  
