P3
59 50
255
   0   0   0     0   0   0     0   0   0     0   0   0     0   0   0     0   0   0     0   0   0     0   0   0     0   0   0   118 127 134   120 129 136     0   0   0     0   0   0     0   0   0     0   0   0     0   0   0     0   0   0     0   0   0     0   0   0     0   0   0     0   0   0     0   0   0     0   0   0     0   0   0     0   0   0     0   0   0     0   0   0     0   0   0     0   0   0     0   0   0     0   0   0     0   0   0     0   0   0     0   0   0     0   0   0     0   0   0     0   0   0     0   0   0     0   0   0     0   0   0     0   0   0     0   0   0     0   0   0     0   0   0     0   0   0     0   0   0     0   0   0     0   0   0     0   0   0     0   0   0     0   0   0     0   0   0     0   0   0     0   0   0     0   0   0     0   0   0     0   0   0   146 146 150   146 145 150  
   0   0   0     0   0   0     0   0   0     0   0   0     0   0   0     0   0   0     0   0   0     0   0   0     0   0   0   118 127 134   121 130 136   122 131 139     0   0   0     0   0   0     0   0   0     0   0   0     0   0   0     0   0   0     0   0   0     0   0   0     0   0   0     0   0   0     0   0   0     0   0   0     0   0   0     0   0   0     0   0   0     0   0   0     0   0   0     0   0   0     0   0   0     0   0   0     0   0   0     0   0   0     0   0   0     0   0   0     0   0   0     0   0   0     0   0   0     0   0   0     0   0   0     0   0   0     0   0   0     0   0   0     0   0   0     0   0   0     0   0   0     0   0   0     0   0   0     0   0   0     0   0   0     0   0   0     0   0   0     0   0   0     0   0   0     0   0   0   147 149 155   146 146 151   147 146 151  
   0   0   0     0   0   0     0   0   0     0   0   0     0   0   0     0   0   0     0   0   0     0   0   0   120 127 135   118 127 134   121 130 137   122 131 138   121 130 139     0   0   0     0   0   0     0   0   0     0   0   0     0   0   0     0   0   0     0   0   0     0   0   0     0   0   0     0   0   0     0   0   0     0   0   0     0   0   0     0   0   0     0   0   0     0   0   0     0   0   0     0   0   0     0   0   0     0   0   0     0   0   0     0   0   0     0   0   0     0   0   0     0   0   0     0   0   0     0   0   0     0   0   0     0   0   0     0   0   0     0   0   0     0   0   0     0   0   0     0   0   0     0   0   0     0   0   0     0   0   0     0   0   0     0   0   0     0   0   0     0   0   0     0   0   0     0   0   0   147 149 155   147 147 152   149 148 153  
   0   0   0     0   0   0     0   0   0     0   0   0     0   0   0     0   0   0   125 132 140   123 131 138   120 127 135   119 126 134   122 130 137   124 131 139   122 130 139   121 131 141     0   0   0     0   0   0     0   0   0     0   0   0     0   0   0     0   0   0     0   0   0     0   0   0     0   0   0     0   0   0     0   0   0     0   0   0     0   0   0     0   0   0     0   0   0     0   0   0     0   0   0     0   0   0     0   0   0     0   0   0     0   0   0     0   0   0     0   0   0     0   0   0     0   0   0     0   0   0     0   0   0     0   0   0     0   0   0     0   0   0     0   0   0     0   0   0     0   0   0     0   0   0     0   0   0     0   0   0     0   0   0     0   0   0     0   0   0     0   0   0     0   0   0   147 151 159   145 149 154   147 148 153   150 151 155  
   0   0   0     0   0   0     0   0   0     0   0   0     0   0   0   127 136 143   126 135 142   122 130 138   121 128 136   122 126 135   122 126 135   126 129 138   122 128 136   123 131 139   125 134 141     0   0   0     0   0   0     0   0   0     0   0   0     0   0   0     0   0   0     0   0   0     0   0   0     0   0   0     0   0   0     0   0   0     0   0   0     0   0   0     0   0   0     0   0   0     0   0   0     0   0   0     0   0   0     0   0   0     0   0   0     0   0   0     0   0   0     0   0   0     0   0   0     0   0   0     0   0   0     0   0   0     0   0   0     0   0   0     0   0   0     0   0   0     0   0   0     0   0   0     0   0   0     0   0   0     0   0   0     0   0   0     0   0   0   145 153 156   147 152 156   145 150 154   144 149 153   146 150 153   149 153 156  
   0   0   0     0   0   0     0   0   0     0   0   0     0   0   0   125 136 142   125 135 141   121 129 137   122 126 135   122 125 134   123 125 134   126 127 137   122 128 136   123 132 139   125 134 141   124 133 140     0   0   0     0   0   0     0   0   0     0   0   0     0   0   0     0   0   0     0   0   0     0   0   0     0   0   0     0   0   0     0   0   0     0   0   0     0   0   0     0   0   0     0   0   0     0   0   0     0   0   0     0   0   0     0   0   0     0   0   0     0   0   0     0   0   0     0   0   0     0   0   0     0   0   0     0   0   0     0   0   0     0   0   0     0   0   0     0   0   0     0   0   0     0   0   0     0   0   0     0   0   0     0   0   0     0   0   0   151 153 159   149 154 157   149 154 157   147 152 155   146 151 154   146 151 154   149 154 157  
   0   0   0     0   0   0     0   0   0     0   0   0   126 137 143   124 135 141   124 135 141   121 130 137   120 127 135   121 125 134   122 124 133   125 126 136   123 129 137   124 132 139   126 135 142   125 134 141   127 134 142     0   0   0     0   0   0     0   0   0     0   0   0     0   0   0     0   0   0     0   0   0     0   0   0     0   0   0     0   0   0     0   0   0     0   0   0     0   0   0     0   0   0     0   0   0     0   0   0     0   0   0     0   0   0     0   0   0     0   0   0     0   0   0     0   0   0     0   0   0     0   0   0     0   0   0     0   0   0     0   0   0     0   0   0     0   0   0     0   0   0     0   0   0     0   0   0     0   0   0   156 155 166   157 156 166   154 156 162   152 157 161   152 157 161   149 154 158   148 153 157   148 153 157   149 154 158  
   0   0   0     0   0   0     0   0   0     0   0   0   126 137 143   125 135 142   123 133 140   121 128 136   120 127 135   121 125 134   121 123 132   124 125 135   124 130 138   126 134 142   127 136 143   126 134 141   128 135 143   130 137 145     0   0   0     0   0   0     0   0   0     0   0   0     0   0   0     0   0   0     0   0   0     0   0   0     0   0   0     0   0   0     0   0   0     0   0   0     0   0   0     0   0   0     0   0   0     0   0   0     0   0   0     0   0   0     0   0   0     0   0   0     0   0   0     0   0   0     0   0   0     0   0   0     0   0   0     0   0   0     0   0   0     0   0   0     0   0   0     0   0   0   158 161 168   158 158 168   157 157 167   158 157 168   156 159 166   154 159 163   152 157 161   149 154 158   148 153 157   148 153 157   148 153 157  
   0   0   0     0   0   0     0   0   0   128 139 145   127 138 144   124 135 141   122 133 139   119 129 136   120 127 135   122 126 135   121 124 133   123 127 136   125 131 140   127 136 143   127 136 143   126 135 142   130 137 145   131 138 146   129 136 144     0   0   0     0   0   0     0   0   0     0   0   0     0   0   0     0   0   0     0   0   0     0   0   0     0   0   0     0   0   0     0   0   0     0   0   0     0   0   0     0   0   0     0   0   0     0   0   0     0   0   0     0   0   0     0   0   0     0   0   0     0   0   0     0   0   0     0   0   0     0   0   0     0   0   0     0   0   0     0   0   0     0   0   0   161 165 171   159 162 169   158 158 166   157 157 166   158 157 167   156 158 166   154 159 165   152 157 163   149 154 160   148 153 159   147 152 158   146 151 157  
   0   0   0     0   0   0     0   0   0   128 139 145   127 138 144   124 135 141   121 132 138   119 129 136   121 128 136   123 127 136   122 126 135   125 129 138   127 133 142   128 137 144   128 137 144   127 136 143   131 138 146   132 139 147   129 136 144   130 134 143     0   0   0     0   0   0     0   0   0     0   0   0     0   0   0     0   0   0     0   0   0     0   0   0     0   0   0     0   0   0     0   0   0     0   0   0     0   0   0     0   0   0     0   0   0     0   0   0     0   0   0     0   0   0     0   0   0     0   0   0     0   0   0     0   0   0     0   0   0     0   0   0     0   0   0   166 171 175   166 171 177   163 167 174   160 163 170   160 160 168   158 157 166   158 157 167   157 159 167   153 158 164   151 156 162   149 154 160   149 154 160   147 152 158   146 151 157  
   0   0   0     0   0   0   127 135 143   127 136 143   125 136 142   122 133 139   120 131 137   120 129 136   123 130 138   125 129 138   126 129 138   128 132 141   130 136 144   129 138 145   128 137 144   128 137 144   132 139 147   132 139 147   129 136 144   129 133 142   130 134 143     0   0   0     0   0   0     0   0   0     0   0   0     0   0   0     0   0   0     0   0   0     0   0   0     0   0   0     0   0   0     0   0   0     0   0   0     0   0   0     0   0   0     0   0   0     0   0   0     0   0   0     0   0   0     0   0   0     0   0   0     0   0   0     0   0   0   160 164 167   165 170 174   168 173 177   169 174 178   166 169 175   161 164 171   161 161 169   160 160 168   161 160 168   158 160 169   154 158 167   151 155 164   150 154 163   150 154 163   149 153 162   147 151 160  
   0   0   0     0   0   0   125 134 141   126 135 142   123 134 140   122 133 139   120 131 137   120 129 136   122 131 138   125 132 140   127 131 140   130 134 143   131 137 145   130 139 146   129 138 145   129 137 145   133 140 148   132 140 147   129 136 144   129 133 142   131 135 143   133 137 146     0   0   0     0   0   0     0   0   0     0   0   0     0   0   0     0   0   0     0   0   0     0   0   0     0   0   0     0   0   0     0   0   0     0   0   0     0   0   0     0   0   0     0   0   0     0   0   0     0   0   0   162 161 166   160 160 165   159 160 164   159 162 165   162 167 169   166 171 175   169 174 178   170 175 179   166 169 176   162 165 172   163 163 171   162 162 170   163 162 170   159 161 170   154 158 167   151 155 164   150 154 163   152 156 165   151 155 163   149 153 162  
   0   0   0   125 131 139   123 132 139   124 133 140   122 133 139   122 133 139   122 133 139   122 131 138   123 132 139   125 132 140   128 134 142   132 136 145   131 137 145   130 139 146   130 139 146   131 139 146   132 139 147   133 140 148   133 140 148   132 136 145   130 134 143   131 135 144   132 135 144   130 133 142   129 132 141   131 134 140   132 135 140   133 137 143     0   0   0     0   0   0     0   0   0     0   0   0     0   0   0     0   0   0     0   0   0   164 166 171   163 164 168   163 164 166   167 167 169   173 173 175   167 167 169   161 162 164   160 164 166   164 169 172   165 170 173   165 170 173   166 171 175   166 170 174   163 166 171   164 165 170   165 165 171   164 163 171   161 163 171   155 159 168   150 154 163   150 153 162   152 156 165   152 156 165   150 154 163  
   0   0   0   125 129 138   124 130 139   124 133 140   122 133 139   122 133 139   122 133 139   123 132 139   124 133 140   126 133 141   129 135 143   132 137 146   130 139 146   130 139 146   130 139 146   131 140 147   132 139 147   133 140 148   133 140 148   132 136 145   130 134 143   131 135 144   132 135 144   130 133 142   130 133 142   131 134 142   132 135 141   134 137 144   136 141 147   140 145 153   145 152 160   153 160 168   157 164 172   158 165 173   161 166 172   163 167 173   162 164 169   163 164 166   167 167 169   175 175 177   169 169 171   164 165 167   162 165 168   164 168 171   164 169 172   163 168 171   165 170 174   165 168 173   162 165 170   163 164 169   164 164 170   163 162 170   160 162 170   154 158 167   150 154 163   150 153 162   152 156 165   152 156 165   150 154 163  
 125 128 137   123 127 136   123 129 137   123 132 139   122 133 139   122 133 139   122 133 139   123 134 140   123 134 140   126 135 142   128 136 143   131 138 146   130 139 146   130 139 146   131 140 147   131 140 147   132 139 147   133 140 148   133 140 148   132 136 145   130 134 143   131 135 144   132 135 144   130 133 142   130 133 142   133 135 142   135 137 142   135 138 145   137 142 148   141 145 154   147 152 161   153 160 168   157 164 172   158 165 173   161 166 172   163 168 172   163 167 170   164 166 168   167 168 170   177 177 179   171 172 174   167 168 170   165 168 170   165 169 170   162 167 170   161 166 169   164 169 172   164 167 172   161 164 169   162 163 168   162 162 168   161 161 166   157 160 166   153 158 164   150 155 161   150 155 161   152 157 163   151 156 162   150 155 161  
 124 127 136   123 126 135   121 127 135   123 130 138   123 132 139   122 133 139   122 133 139   123 134 140   124 135 141   127 136 143   128 137 144   131 138 146   131 139 147   131 140 147   131 140 147   131 140 147   132 139 147   132 139 147   132 139 147   133 137 146   130 134 143   130 134 143   130 134 143   129 132 141   130 133 142   133 135 144   136 137 143   137 139 146   139 143 149   142 146 155   148 153 162   153 160 168   158 165 173   158 165 173   162 167 173   165 169 175   165 169 173   166 168 170   169 170 172   175 175 177   172 172 174   170 171 173   167 170 172   166 170 171   163 168 171   161 166 169   163 168 171   163 166 171   159 162 167   160 161 166   160 160 165   159 159 164   156 158 164   151 156 162   149 154 160   149 154 160   151 156 162   151 156 162   150 155 161  
 124 127 136   122 126 135   120 126 135   121 129 137   121 132 138   121 132 138   122 133 139   123 134 140   125 136 142   127 136 143   128 137 144   130 137 145   130 139 146   131 140 147   131 140 147   130 139 146   131 138 146   131 138 146   131 138 146   133 137 146   130 134 143   129 133 142   130 133 142   129 132 141   130 133 142   133 135 142   136 137 142   138 140 146   140 143 150   142 146 155   148 153 161   152 159 167   157 164 172   158 165 173   160 166 172   166 171 174   168 172 175   168 170 172   169 170 172   170 170 170   170 170 171   169 170 172   168 171 173   167 171 172   165 171 171   163 169 170   162 167 170   162 166 169   158 162 165   158 159 164   158 158 164   157 157 162   153 155 160   150 155 159   149 154 158   149 154 158   150 155 159   150 155 160   150 155 159  
 126 127 137   123 126 135   121 125 134   121 128 136   121 130 137   120 131 137   122 133 139   123 134 140   125 136 142   127 136 143   128 137 144   130 137 145   130 138 145   130 139 146   130 139 146   130 138 145   130 137 145   130 137 145   130 137 145   132 136 144   129 133 142   128 132 141   129 132 141   128 131 140   129 132 141   132 134 143   136 137 143   138 139 146   140 142 149   142 146 155   147 152 160   151 158 166   156 163 171   156 163 171   158 165 171   163 170 175   167 172 175   168 170 172   168 169 171   166 166 166   167 167 168   168 169 171   167 170 172   168 172 173   166 172 172   164 170 171   161 166 169   161 165 168   157 161 164   157 158 163   157 157 163   155 155 161   150 152 157   148 153 157   148 153 157   148 153 157   150 155 159   150 155 159   151 156 160  
 128 129 139   123 126 135   120 125 134   119 128 135   119 130 136   119 130 136   121 132 138   122 133 139   124 135 141   127 136 143   128 137 144   128 137 144   129 138 145   129 138 145   129 138 145   129 137 145   129 136 144   129 136 144   129 136 144   131 134 144   128 132 140   127 131 140   128 131 140   127 130 139   128 131 140   132 134 140   135 136 141   138 138 145   139 142 149   141 145 154   146 151 159   150 157 165   153 160 168   152 159 167   154 161 167   161 168 171   165 170 173   164 168 170   166 167 169   165 165 165   166 166 166   167 169 168   166 170 170   166 170 171   166 172 172   164 170 171   161 166 169   161 165 168   157 161 164   157 158 162   157 157 162   155 155 160   149 152 155   147 152 155   148 153 156   148 153 156   149 154 157   150 155 158   151 156 159  
 128 131 140   123 127 136   121 125 134   120 127 135   121 128 136   120 129 136   121 130 137   122 131 138   125 134 141   127 136 143   127 136 143   127 136 143   128 137 144   129 138 147   129 138 147   128 137 146   129 136 146   128 135 145   128 135 145   131 134 146   127 131 142   126 130 141   127 129 141   126 128 140   127 129 141   130 133 142   132 135 142   135 138 145   139 142 149   141 145 154   143 150 158   149 156 164   150 158 165   150 157 165   152 158 165   160 165 171   163 168 171   162 166 169   163 164 166   164 165 167   165 166 168   166 167 169   165 168 169   164 168 171   164 169 172   163 168 171   161 166 169   161 165 168   157 161 164   157 158 162   155 157 161   154 155 160   148 150 155   146 151 155   148 153 157   148 153 157   149 154 158   150 155 159   151 156 160  
 125 131 141   124 128 139   121 125 136   122 124 136   123 126 135   124 127 136   127 130 139   127 130 140   125 132 140   125 134 141   126 136 142   126 137 143   129 139 147   130 140 149   130 139 148   130 139 148   129 138 147   128 137 146   128 137 146   129 136 146   128 135 145   126 133 143   125 131 141   126 130 141   126 130 141   127 131 142   127 134 143   129 136 144   133 139 148   137 144 152   140 147 155   143 150 158   146 152 159   152 157 162   156 161 167   158 160 167   157 160 165   158 161 166   163 164 169   160 161 165   162 166 169   166 170 173   166 170 173   165 169 172   165 169 172   165 168 173   164 167 172   161 165 170   159 162 167   158 161 166   154 157 162   150 153 158   149 152 157   150 153 158   150 153 158   150 153 158   150 153 158   150 153 158   150 153 158  
 125 131 141   125 129 140   124 126 138   123 125 137   126 126 136   127 127 137   129 130 140   127 131 140   128 132 141   127 134 142   126 136 142   125 137 144   127 138 148   129 139 149   129 137 148   129 137 148   129 137 148   128 136 147   128 136 147   129 135 147   128 134 145   127 133 145   127 131 143   127 131 143   127 131 143   126 133 144   127 136 145   128 137 145   131 140 147   135 144 151   139 147 155   142 149 157   147 153 159   150 155 161   153 156 163   156 160 166   159 162 167   159 162 167   158 161 166   157 160 165   161 164 169   165 168 173   165 168 173   164 167 172   164 167 172   165 168 173   163 166 171   161 163 168   159 162 167   157 159 164   153 156 161   150 153 158   149 152 159   149 152 159   149 152 159   149 152 159   150 153 160   150 154 160   152 155 162  
 125 131 142   126 130 141   126 129 139   126 129 138   128 128 138   128 129 139   129 132 141   128 132 141   127 134 142   126 135 142   125 137 143   125 138 144   126 137 145   127 137 147   128 136 147   129 137 148   129 137 148   130 138 149   130 138 149   128 134 146   127 133 145   127 133 145   127 132 144   128 132 144   129 133 145   129 133 145   128 135 145   129 135 144   131 138 146   134 141 149   139 146 154   142 149 157   146 152 159   147 152 158   148 153 159   155 160 165   160 165 169   159 164 168   156 159 164   158 161 166   161 164 169   164 167 172   164 167 172   164 167 172   164 167 172   164 167 172   163 166 171   160 163 168   157 160 165   156 159 164   153 156 161   150 153 158   149 152 159   149 152 159   148 151 158   149 152 159   150 153 160   152 155 162   155 158 165  
 126 132 142   128 132 143   129 132 141   129 132 141   130 130 140   130 131 141   130 133 142   129 133 142   128 135 143   127 136 143   127 136 143   126 138 145   125 136 146   126 136 146   128 136 147   128 136 147   130 138 149   130 138 149   131 139 150   128 134 146   127 133 145   126 132 144   127 132 144   129 133 145   130 134 146   130 135 147   129 136 146   128 135 143   130 137 145   132 139 147   137 144 152   141 148 156   145 150 157   146 151 157   149 154 160   155 160 166   160 165 169   159 164 168   157 162 166   159 162 167   161 165 170   164 167 172   165 168 173   165 168 173   165 168 173   164 167 172   162 165 170   159 162 167   156 159 164   154 157 162   152 155 160   150 153 158   150 153 159   149 152 159   148 151 158   148 151 158   152 155 162   154 157 164   157 160 167  
 126 132 140   128 132 141   129 132 141   129 132 141   129 132 141   129 132 141   130 133 142   130 134 143   128 135 143   127 136 143   127 136 143   127 138 144   126 136 144   125 135 145   127 135 146   128 136 147   130 138 149   130 138 149   131 139 150   128 134 146   127 133 145   126 132 144   127 132 144   129 133 145   130 134 146   130 135 146   130 134 145   130 134 143   130 134 143   133 137 146   137 141 150   141 145 154   141 147 153   144 150 157   150 157 163   153 161 166   156 164 167   157 165 168   162 167 171   162 165 170   162 165 170   164 167 172   165 169 174   167 170 175   167 170 175   165 168 173   162 165 170   157 160 165   154 157 162   153 156 161   151 154 159   150 153 158   150 153 160   150 153 160   149 152 159   150 153 160   153 156 163   156 159 166   159 162 169  
 126 132 140   127 131 140   128 131 140   129 132 141   129 132 141   130 132 141   131 134 143   128 135 143   128 135 143   127 136 143   127 136 143   126 137 144   125 135 144   125 135 145   127 135 146   128 136 147   129 137 148   130 138 149   130 138 149   128 134 146   127 133 145   127 133 145   127 132 144   128 132 144   129 133 145   129 133 145   129 133 144   129 133 142   130 134 143   131 135 144   135 139 148   138 142 151   138 144 151   142 149 155   149 156 162   152 160 165   154 162 165   157 165 168   162 170 174   162 167 171   163 166 171   164 167 172   166 169 174   168 171 176   168 171 176   165 168 173   161 164 169   156 159 164   152 155 160   151 154 159   150 154 159   150 153 158   151 154 161   152 155 162   152 155 162   152 156 162   155 158 165   157 160 167   160 163 170  
 127 132 139   126 130 139   125 129 138   126 130 139   127 131 140   128 132 141   130 134 143   128 135 144   128 135 145   127 136 145   126 135 144   126 135 144   126 135 145   126 136 145   127 136 145   128 137 146   129 138 147   129 138 147   129 138 147   129 136 146   128 135 145   127 134 144   127 131 142   127 131 142   127 131 142   128 131 143   128 130 142   129 131 141   130 133 142   132 135 144   134 137 146   135 139 148   138 144 151   141 148 154   143 152 157   147 156 161   152 162 164   157 167 169   160 170 172   162 167 171   162 165 170   163 166 171   165 168 173   168 171 176   167 170 175   165 168 173   161 164 169   155 158 163   151 154 159   150 153 158   150 153 158   150 153 158   152 155 161   154 157 164   154 157 164   155 158 165   157 160 167   159 162 169   159 162 169  
 127 132 139   125 129 138   124 128 137   125 129 138   126 130 139   128 132 141   130 134 143   128 134 144   127 134 144   126 135 144   126 135 144   126 135 144   126 135 145   126 136 145   127 136 145   128 137 146   128 137 146   128 137 146   129 138 147   129 136 146   128 135 145   126 133 143   125 131 141   126 130 141   126 130 141   128 130 142   129 129 141   129 131 141   130 133 142   132 135 144   133 136 145   133 137 146   138 144 151   138 145 151   137 146 151   144 153 157   152 162 164   155 166 168   157 167 169   162 167 171   161 164 169   162 165 170   164 167 172   167 170 175   166 169 174   164 167 172   160 163 168   154 157 162   150 153 158   149 152 157   150 153 158   150 153 158   153 156 162   155 158 165   156 159 166   157 160 167   158 161 168   159 162 169   159 162 169  
   0   0   0   127 130 137   126 130 137   127 132 138   127 134 142   128 135 144   130 137 147   130 137 147   130 137 147   128 134 146   127 133 145   128 135 147   127 137 146   127 137 146   129 138 147   130 139 148   129 138 147   128 137 146   127 136 145   129 136 146   128 135 145   127 134 144   127 131 142   127 131 142   127 131 142   128 131 142   128 129 141   128 130 140   127 130 139   128 131 140   130 133 142   134 138 147   135 141 148   138 144 151   140 149 154   143 153 157   151 161 163   157 167 169   160 170 172   162 167 171   163 166 171   164 167 172   165 169 174   166 169 174   165 168 173   163 166 171   159 162 167   155 158 163   153 156 161   151 154 159   149 152 157   151 154 159   155 158 164   157 160 167   159 162 169   160 163 170   161 164 171   161 164 171   161 164 171  
   0   0   0   127 130 137   127 131 138   128 133 139   128 135 143   128 135 144   130 137 147   130 138 148   130 137 147   128 134 146   128 134 146   129 135 147   128 136 146   128 138 147   129 138 147   130 139 148   130 139 148   128 137 146   128 137 146   129 136 146   127 134 144   126 133 143   126 131 142   126 130 141   127 131 142   127 130 141   127 129 141   127 130 140   127 130 139   127 130 139   130 133 142   133 137 146   134 140 147   137 144 149   138 147 152   142 152 156   150 160 162   156 166 168   158 168 170   161 166 170   163 166 171   164 167 172   165 168 173   164 167 172   162 165 170   160 163 168   156 159 164   152 156 161   152 155 160   152 155 160   151 154 159   154 157 162   156 159 166   158 161 168   159 162 169   161 164 171   162 165 172   162 165 172   162 165 172  
   0   0   0   128 131 136   128 132 138   129 134 140   128 135 143   128 137 145   129 138 147   130 138 148   129 137 148   129 135 147   128 134 146   130 134 148   128 136 146   128 139 145   129 138 145   130 139 146   130 139 146   129 138 145   128 137 144   128 135 143   127 134 142   125 132 140   125 130 139   126 130 139   126 130 139   125 130 139   125 129 140   125 129 138   125 129 138   125 129 138   128 132 141   132 136 145   132 138 145   135 142 149   139 146 152   143 150 156   149 157 160   155 163 166   156 164 167   160 165 169   162 165 170   164 167 172   163 166 171   161 164 169   159 162 167   156 159 164   152 155 160   150 153 158   151 154 159   152 155 160   152 156 161   156 159 164   157 160 166   158 161 168   160 163 170   161 164 171   163 166 173   163 166 173   163 166 173  
   0   0   0   127 130 135   127 131 137   126 133 139   126 135 142   127 136 144   129 138 147   130 138 148   129 137 148   129 135 147   129 134 147   131 135 149   128 137 146   127 138 144   129 138 145   130 139 146   130 139 146   129 138 145   129 138 145   127 134 142   125 133 140   125 132 140   125 130 138   125 129 138   125 129 138   125 129 139   125 129 140   125 129 138   124 128 137   125 129 138   128 132 141   132 136 145   132 138 145   135 142 149   140 147 153   144 152 157   151 159 162   154 162 165   156 161 165   159 162 167   161 164 169   163 166 171   161 165 170   158 161 166   155 158 163   153 156 161   151 154 159   149 152 157   151 154 159   152 155 160   152 156 161   155 158 163   157 160 166   158 161 168   160 163 170   162 165 172   164 167 174   164 167 174   164 167 174  
   0   0   0   126 129 134   126 130 136   125 132 138   126 135 142   126 136 143   128 138 147   129 138 148   129 137 148   129 135 149   128 134 148   130 134 148   127 135 146   127 138 144   129 138 145   130 139 146   130 139 146   130 139 146   129 138 145   127 134 142   125 133 140   125 132 140   125 130 138   125 129 138   125 129 138   124 129 138   122 129 139   122 129 137   122 129 137   122 129 137   125 132 140   130 137 145   134 140 147   140 145 151   146 151 157   150 155 161   155 160 164   157 162 166   156 161 165   157 160 165   160 162 167   161 164 169   159 162 167   155 158 163   153 156 161   153 156 161   152 155 160   151 154 159   152 155 160   152 155 160   151 154 159   153 156 161   156 159 165   158 161 168   160 163 170   162 165 172   164 167 174   165 168 175   165 168 175  
   0   0   0   128 130 135   126 130 136   125 132 138   126 135 142   127 136 144   128 138 147   129 137 148   128 136 147   128 134 148   128 133 147   130 134 148   127 135 145   126 137 143   128 137 144   129 138 145   130 139 146   129 138 145   129 138 145   127 134 142   125 133 140   125 132 140   125 130 138   125 129 138   125 129 138   125 130 139   122 129 139   123 130 138   122 129 137   122 129 137   125 132 140   130 137 145   135 141 147   142 147 153   149 154 160   153 158 163   158 163 167   158 163 167   156 159 164   156 159 164   158 161 166   159 162 167   156 159 164   152 155 160   152 155 160   154 157 162   153 156 161   152 155 160   153 156 161   153 156 161   151 154 159   152 155 160   156 159 165   158 161 168   160 163 170   162 165 172   164 167 174   165 168 175   165 168 175  
   0   0   0     0   0   0   126 133 137   127 134 139   127 136 143   127 137 144   127 137 146   128 136 147   128 136 147   127 133 147   127 132 146   130 133 147   126 134 144   125 136 142   127 136 143   128 137 144   129 138 145   129 138 145   129 138 145   127 134 142   126 133 141   125 132 140   125 130 138   125 129 138   126 130 139   123 130 139   122 131 140   122 131 138   122 131 138   122 131 138   125 133 141   130 137 145   136 141 148   143 148 154   151 154 161   156 159 166   160 163 168   160 162 167   156 159 164   156 159 164   157 160 165   157 160 165   154 157 162   151 154 159   153 156 161   155 158 163   153 156 161   152 155 160   154 157 162   154 157 162   152 155 160   153 156 161   155 158 165   157 160 167   159 162 169   161 165 171   164 167 174   165 168 175   165 168 175  
   0   0   0     0   0   0   127 134 140   129 136 142   129 138 145   128 138 145   126 136 145   127 136 146   127 135 146   127 133 147   126 132 146   128 132 146   125 133 143   124 134 143   126 135 144   128 137 146   129 138 146   129 138 145   128 137 144   128 135 143   127 134 142   125 132 140   125 130 139   126 130 139   126 130 139   125 130 139   123 131 138   122 131 138   122 131 138   122 131 138   125 133 141   130 137 145   134 141 148   143 148 154   151 156 162   157 160 166   160 163 168   160 162 167   155 158 163   155 158 163   157 160 165   157 160 165   152 155 160   150 153 158   153 156 161   156 159 164   153 155 160   154 155 160   156 157 162   157 158 163   155 156 161   157 158 163   157 157 165   159 159 167   161 161 169   161 165 171   164 167 174   165 168 175   165 168 175  
   0   0   0     0   0   0   126 132 138   126 133 141   127 134 142   127 135 145   126 135 144   126 134 145   125 133 144   125 133 144   124 132 143   124 132 143   125 134 144   125 135 144   127 136 145   128 137 146   128 137 146   127 136 145   126 135 144   128 135 145   126 133 142   127 134 142   128 132 141   126 130 139   125 129 138   126 130 139   123 128 135   122 127 133   122 129 135   124 131 137   126 134 140   130 139 144   135 144 149   141 149 154   147 154 160   153 158 164   158 163 169   160 163 170   158 161 166   153 158 162   156 161 163   157 162 165   155 159 162   152 156 159   155 156 161   157 158 163   160 160 165   160 159 166   161 160 168   163 160 169   162 159 168   163 158 168   162 160 167   162 163 168   164 165 170   166 167 172   169 170 175   168 170 177   168 171 178  
   0   0   0     0   0   0     0   0   0   126 133 141   127 134 144   128 136 146   129 138 147   128 136 147   128 136 147   127 135 146   127 135 146   126 136 146   125 135 145   125 135 145   127 135 146   128 136 147   128 136 147   126 135 145   126 135 144   127 134 144   125 132 141   126 133 141   127 131 140   125 129 138   124 128 137   125 129 138   124 127 134   122 127 133   124 129 136   125 132 138   127 134 140   131 140 145   135 144 149   140 149 154   147 154 160   151 158 164   157 162 168   159 162 169   156 159 166   154 159 163   155 162 165   158 163 166   157 161 165   156 160 163   157 158 163   158 158 163   160 159 165   160 158 166   162 159 168   165 159 169   164 157 168   163 157 166   162 158 165   163 162 168   165 164 170   168 168 173   170 171 176   168 171 177   168 171 178  
   0   0   0     0   0   0     0   0   0   126 133 141   127 134 144   128 136 146   129 138 147   128 136 147   128 136 147   128 136 147   127 135 146   126 136 146   125 135 145   125 135 145   128 136 147   129 137 148   128 136 147   126 135 145   124 133 142   126 133 143   124 130 140   124 131 139   125 130 139   123 127 136   123 127 136   124 128 136   124 127 134   122 127 133   124 129 136   126 133 139   128 135 141   132 141 146   137 146 151   142 152 157   148 155 161   151 157 163   155 160 166   157 160 167   154 159 165   154 162 165   155 163 166   157 165 168   161 167 170   161 166 170   159 162 167   157 160 165   159 160 165   160 159 165   161 160 166   163 160 167   163 159 166   162 157 164   162 158 165   163 162 168   165 166 171   169 170 175   171 172 177   170 172 178   169 172 179  
   0   0   0     0   0   0     0   0   0     0   0   0   128 135 145   127 135 145   126 135 144   126 134 145   126 134 145   126 134 145   125 133 144   124 134 144   124 134 144   125 135 145   128 136 147   129 137 148   128 136 147   126 134 144   123 132 141   126 133 143   124 130 140   124 131 139   125 130 139   123 127 136   123 127 136   124 128 136   124 127 134   122 127 133   125 130 137   126 133 139   130 137 143   133 142 147   139 148 153   144 154 159   149 156 162   151 157 163   155 160 166   156 160 166   153 158 164   156 163 169   156 164 167   159 167 170   164 170 174   166 171 175   162 165 170   159 162 167   160 161 166   160 160 165   163 162 168   166 163 170   165 163 168   162 160 165   160 159 165   163 162 168   166 167 172   170 171 176   172 173 178   170 172 179   169 172 179  
   0   0   0     0   0   0     0   0   0     0   0   0   128 135 145   127 135 145   126 135 144   126 134 145   126 134 145   126 134 145   125 134 145   125 135 145   124 134 144   125 135 145   128 136 147   128 136 147   127 135 146   125 133 143   123 132 141   126 133 143   124 131 140   125 132 140     0   0   0     0   0   0     0   0   0     0   0   0     0   0   0     0   0   0     0   0   0     0   0   0     0   0   0     0   0   0     0   0   0     0   0   0     0   0   0   152 158 164   155 160 166   157 160 167   153 158 164   157 164 170   157 165 171   161 168 174   165 172 178   166 173 179   164 169 172   160 165 168   160 164 167   161 163 167   164 166 168   169 169 171   169 169 171   165 165 167   163 162 166   165 164 169   167 168 173   170 171 176   172 173 178   171 172 177   171 172 177  
   0   0   0     0   0   0     0   0   0     0   0   0     0   0   0   129 136 146   128 137 146   128 136 147   128 136 147   129 137 148   129 137 148   128 138 148   126 136 146   126 136 146   127 135 146   127 135 145   126 134 145   124 133 142   123 132 141   126 133 143   124 131 140     0   0   0     0   0   0     0   0   0     0   0   0     0   0   0     0   0   0     0   0   0     0   0   0     0   0   0     0   0   0     0   0   0     0   0   0     0   0   0     0   0   0     0   0   0     0   0   0   158 161 168   155 160 166   157 164 172   158 166 173   162 169 175   164 171 177   164 171 177   164 169 173   162 167 170   163 167 170   164 166 168   169 169 172   175 175 177   175 175 175   171 171 172   167 166 170   167 166 172   167 168 173   168 170 175   170 171 176   170 171 176   170 171 176  
   0   0   0     0   0   0     0   0   0     0   0   0     0   0   0   129 136 146   128 137 146   128 136 147   129 137 148   129 137 148   129 137 148   129 139 149   127 137 147   126 136 146   127 135 146   125 134 145   125 133 144   124 133 142   124 133 142   125 132 142     0   0   0     0   0   0     0   0   0     0   0   0     0   0   0     0   0   0     0   0   0     0   0   0     0   0   0     0   0   0     0   0   0     0   0   0     0   0   0     0   0   0     0   0   0     0   0   0     0   0   0     0   0   0     0   0   0   157 164 172   160 166 175   162 169 177   162 169 176   161 168 174   163 168 172   163 168 172   165 169 171   165 169 169   170 174 173   180 182 181   181 183 180   176 178 176   169 170 173   167 167 175   167 167 175   167 167 174   168 169 174   169 170 175   169 170 175  
   0   0   0     0   0   0     0   0   0     0   0   0     0   0   0     0   0   0   125 134 143   125 134 144   126 134 145   127 135 146   127 135 146   127 137 147   128 138 148   127 137 147   126 134 145   125 133 144   124 132 143   124 133 142   125 134 143     0   0   0     0   0   0     0   0   0     0   0   0     0   0   0     0   0   0     0   0   0     0   0   0     0   0   0     0   0   0     0   0   0     0   0   0     0   0   0     0   0   0     0   0   0     0   0   0     0   0   0     0   0   0     0   0   0     0   0   0     0   0   0     0   0   0   162 169 177   161 167 174   161 166 172   162 167 171   165 170 172   167 171 172   167 170 170   173 177 176   183 185 182   185 187 184   180 182 180   171 173 176   168 168 176   167 167 175   166 166 173   167 168 173   168 169 174   169 170 175  
   0   0   0     0   0   0     0   0   0     0   0   0     0   0   0     0   0   0   125 134 143   125 134 144   126 134 145   127 135 146   128 136 147   128 138 148   126 136 146   125 135 145   125 133 144   125 133 144   126 134 145   125 134 143     0   0   0     0   0   0     0   0   0     0   0   0     0   0   0     0   0   0     0   0   0     0   0   0     0   0   0     0   0   0     0   0   0     0   0   0     0   0   0     0   0   0     0   0   0     0   0   0     0   0   0     0   0   0     0   0   0     0   0   0     0   0   0     0   0   0     0   0   0     0   0   0     0   0   0   162 167 171   163 168 171   165 169 171   168 172 173   168 172 171   167 171 170   167 172 168   177 181 177   185 187 184   174 176 179   169 169 177   169 169 177   168 168 175   167 168 173   167 168 173   167 168 173  
   0   0   0     0   0   0     0   0   0     0   0   0     0   0   0     0   0   0     0   0   0   125 133 144   126 134 145   127 135 146   127 136 146   127 137 147   126 136 146   125 135 145   125 133 144   125 133 144     0   0   0     0   0   0     0   0   0     0   0   0     0   0   0     0   0   0     0   0   0     0   0   0     0   0   0     0   0   0     0   0   0     0   0   0     0   0   0     0   0   0     0   0   0     0   0   0     0   0   0     0   0   0     0   0   0     0   0   0     0   0   0     0   0   0     0   0   0     0   0   0     0   0   0     0   0   0     0   0   0     0   0   0     0   0   0     0   0   0   169 173 174   172 176 175   174 178 177   173 178 173   180 184 180   185 187 184   173 175 178   169 169 177   169 169 177   168 168 175   168 169 174   166 167 172   165 166 171  
   0   0   0     0   0   0     0   0   0     0   0   0     0   0   0     0   0   0     0   0   0   124 132 143   125 133 144   126 134 145   126 135 145   126 136 146   126 136 146   125 135 145   125 133 144     0   0   0     0   0   0     0   0   0     0   0   0     0   0   0     0   0   0     0   0   0     0   0   0     0   0   0     0   0   0     0   0   0     0   0   0     0   0   0     0   0   0     0   0   0     0   0   0     0   0   0     0   0   0     0   0   0     0   0   0     0   0   0     0   0   0     0   0   0     0   0   0     0   0   0     0   0   0     0   0   0     0   0   0     0   0   0     0   0   0     0   0   0     0   0   0     0   0   0     0   0   0     0   0   0   181 182 180   180 182 180   171 172 175   169 169 177   169 169 177   169 169 176   167 168 173   165 165 170   163 162 167  
   0   0   0     0   0   0     0   0   0     0   0   0     0   0   0     0   0   0     0   0   0     0   0   0   124 132 143   125 133 144   125 133 144   125 135 145   125 135 145   125 135 145     0   0   0     0   0   0     0   0   0     0   0   0     0   0   0     0   0   0     0   0   0     0   0   0     0   0   0     0   0   0     0   0   0     0   0   0     0   0   0     0   0   0     0   0   0     0   0   0     0   0   0     0   0   0     0   0   0     0   0   0     0   0   0     0   0   0     0   0   0     0   0   0     0   0   0     0   0   0     0   0   0     0   0   0     0   0   0     0   0   0     0   0   0     0   0   0     0   0   0     0   0   0     0   0   0     0   0   0     0   0   0     0   0   0     0   0   0     0   0   0   169 169 177   168 169 176   166 167 172   163 163 168   161 160 165  
   0   0   0     0   0   0     0   0   0     0   0   0     0   0   0     0   0   0     0   0   0     0   0   0     0   0   0   124 132 143   125 133 144   125 135 145   125 135 145     0   0   0     0   0   0     0   0   0     0   0   0     0   0   0     0   0   0     0   0   0     0   0   0     0   0   0     0   0   0     0   0   0     0   0   0     0   0   0     0   0   0     0   0   0     0   0   0     0   0   0     0   0   0     0   0   0     0   0   0     0   0   0     0   0   0     0   0   0     0   0   0     0   0   0     0   0   0     0   0   0     0   0   0     0   0   0     0   0   0     0   0   0     0   0   0     0   0   0     0   0   0     0   0   0     0   0   0     0   0   0     0   0   0     0   0   0     0   0   0     0   0   0     0   0   0     0   0   0   165 166 171   161 161 166   159 158 163  
   0   0   0     0   0   0     0   0   0     0   0   0     0   0   0     0   0   0     0   0   0     0   0   0     0   0   0   124 132 143   125 133 144   124 134 144     0   0   0     0   0   0     0   0   0     0   0   0     0   0   0     0   0   0     0   0   0     0   0   0     0   0   0     0   0   0     0   0   0     0   0   0     0   0   0     0   0   0     0   0   0     0   0   0     0   0   0     0   0   0     0   0   0     0   0   0     0   0   0     0   0   0     0   0   0     0   0   0     0   0   0     0   0   0     0   0   0     0   0   0     0   0   0     0   0   0     0   0   0     0   0   0     0   0   0     0   0   0     0   0   0     0   0   0     0   0   0     0   0   0     0   0   0     0   0   0     0   0   0     0   0   0     0   0   0     0   0   0     0   0   0   161 161 166   160 159 164  
