P3
60 50
255
  37  34  33    37  34  33     0   0   0     0   0   0     0   0   0     0   0   0     0   0   0     0   0   0     0   0   0     0   0   0     0   0   0     0   0   0     0   0   0     0   0   0     0   0   0     0   0   0     0   0   0     0   0   0     0   0   0     0   0   0     0   0   0     0   0   0     0   0   0     0   0   0     0   0   0     0   0   0     0   0   0     0   0   0     0   0   0     0   0   0     0   0   0     0   0   0     0   0   0     0   0   0     0   0   0     0   0   0     0   0   0     0   0   0     0   0   0     0   0   0     0   0   0     0   0   0     0   0   0     0   0   0     0   0   0     0   0   0     0   0   0     0   0   0    32  27  24    29  24  24     0   0   0     0   0   0     0   0   0     0   0   0     0   0   0     0   0   0     0   0   0     0   0   0     0   0   0     0   0   0  
  30  31  29    33  32  30    35  34  32     0   0   0     0   0   0     0   0   0     0   0   0     0   0   0     0   0   0     0   0   0     0   0   0     0   0   0     0   0   0     0   0   0     0   0   0     0   0   0     0   0   0     0   0   0     0   0   0     0   0   0     0   0   0     0   0   0     0   0   0     0   0   0     0   0   0     0   0   0     0   0   0     0   0   0     0   0   0     0   0   0     0   0   0     0   0   0     0   0   0     0   0   0     0   0   0     0   0   0     0   0   0     0   0   0     0   0   0     0   0   0     0   0   0     0   0   0     0   0   0     0   0   0     0   0   0     0   0   0     0   0   0    34  29  29    29  26  26    26  26  24     0   0   0     0   0   0     0   0   0     0   0   0     0   0   0     0   0   0     0   0   0     0   0   0     0   0   0     0   0   0  
   0   0   0    29  30  27    32  32  30     0   0   0     0   0   0     0   0   0     0   0   0     0   0   0     0   0   0     0   0   0     0   0   0     0   0   0     0   0   0     0   0   0     0   0   0     0   0   0     0   0   0     0   0   0     0   0   0     0   0   0     0   0   0     0   0   0     0   0   0     0   0   0     0   0   0     0   0   0     0   0   0     0   0   0     0   0   0     0   0   0     0   0   0     0   0   0     0   0   0     0   0   0     0   0   0     0   0   0     0   0   0     0   0   0     0   0   0     0   0   0     0   0   0     0   0   0     0   0   0     0   0   0     0   0   0    38  29  32    36  31  31    32  29  30    28  29  28    26  30  27    27  32  28     0   0   0     0   0   0     0   0   0     0   0   0     0   0   0     0   0   0     0   0   0     0   0   0     0   0   0  
   0   0   0     0   0   0     0   0   0    34  33  29    36  35  31    38  34  31    41  36  32    44  39  35    50  42  40     0   0   0     0   0   0     0   0   0     0   0   0     0   0   0     0   0   0     0   0   0     0   0   0     0   0   0     0   0   0     0   0   0     0   0   0     0   0   0     0   0   0     0   0   0     0   0   0     0   0   0     0   0   0     0   0   0     0   0   0     0   0   0     0   0   0     0   0   0     0   0   0     0   0   0     0   0   0     0   0   0     0   0   0     0   0   0     0   0   0     0   0   0     0   0   0     0   0   0     0   0   0     0   0   0    39  28  31    38  29  33    35  30  34    32  30  31    29  31  30    28  33  29    30  37  30    33  40  32    37  43  36     0   0   0     0   0   0     0   0   0     0   0   0     0   0   0     0   0   0     0   0   0  
   0   0   0     0   0   0     0   0   0    35  34  30    39  36  33    41  36  33    43  38  34    49  41  38    53  45  42    55  47  44    56  47  42    54  44  39    57  47  42    60  47  44    62  48  44    62  48  45    61  47  44     0   0   0     0   0   0     0   0   0     0   0   0     0   0   0     0   0   0     0   0   0     0   0   0     0   0   0     0   0   0     0   0   0     0   0   0     0   0   0     0   0   0     0   0   0     0   0   0     0   0   0     0   0   0     0   0   0     0   0   0     0   0   0     0   0   0     0   0   0     0   0   0     0   0   0    46  31  28    43  29  29    38  27  31    36  30  34    35  30  34    33  31  32    31  33  30    32  34  29    34  39  32    36  41  34    43  47  38     0   0   0     0   0   0     0   0   0     0   0   0     0   0   0     0   0   0     0   0   0  
   0   0   0     0   0   0     0   0   0    37  36  32    43  40  35    44  39  35    45  40  34    50  43  37    54  47  41    58  49  44    59  50  43    59  50  43    62  51  47    62  51  47    62  51  47    61  50  46    59  48  44    56  45  41    54  43  39    52  41  37    53  42  38    52  41  37    51  40  36     0   0   0     0   0   0     0   0   0     0   0   0     0   0   0     0   0   0     0   0   0     0   0   0     0   0   0     0   0   0     0   0   0     0   0   0     0   0   0     0   0   0     0   0   0     0   0   0     0   0   0    46  35  33    44  33  33    42  31  29    39  29  28    35  29  31    35  30  34    36  32  33    35  33  34    37  35  33    39  39  34    42  42  36    45  45  38    48  48  38    52  49  40     0   0   0     0   0   0     0   0   0     0   0   0     0   0   0     0   0   0  
   0   0   0     0   0   0     0   0   0    41  36  33    47  42  38    48  42  38    51  43  37    52  45  39    56  47  41    59  50  44    60  52  44    62  53  46    62  51  47    62  51  48    61  50  47    60  49  45    58  47  44    55  45  41    54  43  40    53  42  38    53  42  38    52  40  37    50  39  35    49  38  35    50  39  35    49  38  35    47  36  32    44  35  30     0   0   0     0   0   0     0   0   0     0   0   0     0   0   0     0   0   0     0   0   0     0   0   0     0   0   0     0   0   0     0   0   0    43  35  34    42  35  33    41  33  35    39  32  31    37  31  32    35  31  32    37  32  35    40  36  36    42  37  36    44  40  37    48  43  39    52  47  41    56  49  43    54  48  39    57  50  41     0   0   0     0   0   0     0   0   0     0   0   0     0   0   0     0   0   0  
   0   0   0     0   0   0     0   0   0    43  38  35    48  41  38    50  42  39    52  45  39    53  46  40    56  47  40    57  48  41    59  50  41    61  52  45    59  48  44    58  47  45    57  46  44    56  45  43    55  44  42    54  43  41    53  42  40    52  41  39    51  40  38    50  39  37    48  37  35    47  36  34    48  37  35    49  38  36    48  37  35    46  36  33    49  41  33    48  41  31    48  41  33    47  40  32    45  40  33    45  40  34     0   0   0     0   0   0     0   0   0    43  39  37    41  37  35    39  35  36    40  36  36    39  35  37    38  35  35    37  34  35    35  33  34    37  35  36    42  38  37    46  40  39    50  42  40    54  44  41    59  48  43    62  49  44    63  50  42    65  52  44     0   0   0     0   0   0     0   0   0     0   0   0     0   0   0     0   0   0  
   0   0   0     0   0   0     0   0   0    44  36  34    46  38  36    49  42  37    53  44  37    54  45  38    53  45  36    53  44  35    54  45  36    56  47  40    54  44  41    53  43  41    52  42  41    50  40  39    49  39  38    48  38  37    47  37  36    47  37  36    47  37  36    46  36  34    44  34  32    44  33  32    46  35  34    47  37  35    47  37  35    47  37  35    46  37  31    47  38  30    47  40  32    48  40  33    45  40  34    45  40  34    43  40  35    42  38  35    42  40  36    40  38  36    38  36  34    36  35  36    37  37  37    37  37  38    37  36  38    37  36  36    38  37  37    41  39  38    46  42  40    51  44  42    55  45  43    59  46  43    64  48  43    67  50  44    71  52  46    71  54  47     0   0   0     0   0   0     0   0   0     0   0   0     0   0   0     0   0   0  
   0   0   0     0   0   0     0   0   0    44  35  36    45  37  35    48  40  38    52  42  39    53  43  41    52  43  38    50  41  36    50  41  36    51  41  39    52  42  41    51  41  40    48  40  38    47  37  36    44  36  34    44  34  33    42  34  32    42  32  31    44  36  34    43  33  32    41  33  31    42  32  31    43  35  33    46  36  35    46  38  36    47  37  35    45  36  29    47  38  31    48  39  32    49  42  34    47  42  36    46  41  37    44  40  37    41  40  38    40  39  37    37  37  35    36  36  36    35  35  35    36  38  37    37  39  38    37  39  38    38  38  38    44  43  40    49  46  42    55  47  44    58  49  45    63  49  47    65  50  46    70  52  47    72  54  49    72  53  49    72  53  49    70  52  50     0   0   0     0   0   0     0   0   0     0   0   0     0   0   0  
   0   0   0     0   0   0     0   0   0    44  37  44    46  36  44    48  39  44    50  39  45    52  41  47    52  42  48    52  41  47    49  41  46    49  40  45    47  38  39    46  37  38    42  36  36    42  33  34    39  33  33    41  32  33    39  34  31    42  34  32    42  37  34    43  35  33    40  35  32    42  34  32    40  35  31    43  35  32    43  38  34    46  39  33    49  39  30    50  37  29    47  36  30    45  36  29    44  37  31    43  40  35    43  42  40    43  43  43    40  40  40    39  41  40    38  40  39    37  39  38    37  37  37    39  39  37    41  41  39    47  43  40    54  46  38    58  47  38    60  50  41    65  52  44    67  52  45    70  52  48    70  52  48    69  51  49    71  53  53    66  50  50    60  46  46     0   0   0     0   0   0     0   0   0     0   0   0     0   0   0  
   0   0   0     0   0   0     0   0   0    42  38  47    45  39  46    45  38  46    47  38  47    47  39  47    47  39  47    46  38  46    45  37  48    44  38  45    42  36  38    42  36  36    42  35  35    40  34  34    39  33  33    39  33  33    38  33  30    38  33  30    39  34  31    39  34  31    40  35  32    40  35  32    41  36  32    43  38  34    45  40  36    48  41  35    49  39  31    50  38  30    48  37  31    46  37  32    43  38  34    43  39  36    42  41  39    42  42  42    41  42  41    41  42  41    41  42  41    41  41  41    42  41  38    45  43  41    48  46  42    53  47  41    61  51  42    64  51  40    66  53  42    68  54  46    69  54  47    71  54  50    70  53  50    68  52  52    60  45  45    55  42  42    48  37  38     0   0   0     0   0   0     0   0   0     0   0   0     0   0   0  
   0   0   0     0   0   0     0   0   0    42  42  48    45  44  49    45  42  48    44  41  47    43  40  46    42  39  46    41  38  45    40  37  46    41  37  44    40  35  36    40  34  34    41  35  35    40  34  34    40  34  34    39  33  33    37  32  29    36  31  28    37  32  29    38  33  30    39  34  31    40  35  32    42  37  33    44  39  35    45  40  36    47  41  36    45  37  30    45  37  31    45  38  31    45  39  34    44  40  36    45  41  38    44  43  41    45  44  42    43  43  42    44  44  43    46  45  43    48  45  43    50  45  42    53  47  44    56  50  46    60  52  47    63  53  44    66  53  45    69  56  47    70  56  50    69  55  49    67  52  48    64  50  48    62  47  47    54  41  41    48  37  38    40  30  32     0   0   0     0   0   0     0   0   0     0   0   0     0   0   0  
   0   0   0     0   0   0     0   0   0    44  47  52    46  48  52    46  47  51    44  45  49    43  43  47    40  41  46    39  39  45    38  38  44    38  37  42    36  32  33    37  31  31    38  32  32    38  32  32    38  32  32    37  31  31    35  30  27    34  29  26    36  31  28    36  31  28    37  32  29    38  33  30    40  35  31    41  36  32    42  37  33    42  37  33    41  36  31    41  37  32    42  38  33    44  40  35    43  41  38    45  43  39    44  43  41    44  43  41    44  43  41    47  44  41    50  47  44    53  47  44    56  48  45    59  49  45    62  52  49    65  54  49    64  52  45    67  54  47    70  57  50    70  56  52    67  53  50    61  47  46    53  41  39    49  36  36    46  35  36    40  31  33    31  24  27    24  18  22     0   0   0     0   0   0     0   0   0     0   0   0  
   0   0   0     0   0   0     0   0   0    48  51  56    48  52  55    49  50  54    47  48  52    45  46  50    43  44  49    39  42  47    37  40  45    38  39  43    35  31  32    36  30  30    36  30  30    36  30  30    36  30  30    35  29  29    35  30  27    34  29  26    35  30  27    36  31  28    37  32  29    39  34  31    40  35  31    40  35  31    40  35  31    39  36  31    42  40  35    43  42  37    44  44  38    46  44  39    46  44  41    44  43  39    42  41  39    43  39  38    47  44  41    52  47  44    55  48  45    59  49  47    62  51  47    65  52  49    68  56  50    71  57  52    69  54  51    69  56  54    71  57  54    69  55  54    61  50  48    53  40  40    43  33  31    38  28  28    31  22  25    26  20  22    21  16  20    17  15  18     0   0   0     0   0   0     0   0   0     0   0   0  
   0   0   0     0   0   0     0   0   0     0   0   0    49  50  54    50  49  54    49  48  53    48  47  52    45  44  49    41  42  46    39  40  45    38  37  42    34  30  31    35  29  29    35  29  29    34  28  28    34  28  28    34  28  28    34  29  26    35  30  27    35  30  27    36  31  28    38  33  30    40  35  32    42  37  33    43  38  34    43  38  34    42  39  34    42  43  38    44  45  40    46  48  43    49  50  45    49  50  45    50  48  45    48  46  43    48  44  40    55  47  44    58  48  46    62  51  47    66  52  49    69  54  49    72  54  50    74  57  50    76  58  54    73  59  58    70  58  58    65  54  52    59  47  47    50  40  39    42  32  33    34  25  26    29  22  22    21  15  17    19  15  16    17  15  18    16  16  18     0   0   0     0   0   0     0   0   0     0   0   0  
   0   0   0     0   0   0     0   0   0     0   0   0     0   0   0    52  48  53    51  48  52    49  46  51    47  44  49    44  41  46    38  37  43    37  34  39    35  30  31    35  29  29    33  27  27    32  26  26    33  27  27    33  27  27    35  30  27    36  31  28    35  30  27    36  31  28    39  34  31    41  36  33    43  38  34    45  40  36    46  41  37    46  42  39    42  43  38    43  45  42    48  49  44    52  53  48    54  54  49    56  55  50    57  53  50    57  52  47    60  51  48    64  53  48    68  55  51    71  56  53    74  56  52    76  57  53    77  58  52    77  59  55    73  59  59    66  54  55    57  46  46    48  38  40    40  30  32    32  23  25    27  21  22    26  20  20    21  18  19    19  17  18    19  19  20    20  20  22    20  21  22     0   0   0     0   0   0     0   0   0  
   0   0   0     0   0   0     0   0   0     0   0   0     0   0   0     0   0   0    53  46  50    51  43  48    46  40  47    44  38  44    39  34  40    37  31  35    36  30  32    35  29  29    33  27  27    32  26  26    33  27  27    35  29  29    37  32  29    39  34  31    37  32  29    38  33  30    40  35  32    41  36  33    43  38  34    45  40  36    49  44  40    51  47  43    50  51  46    51  52  49    53  54  49    55  55  51    58  56  51    61  57  52    62  56  51    64  56  50    68  58  53    71  59  53    75  61  55    77  62  57    79  61  57    79  60  56    77  59  54    74  58  54    64  52  52    54  45  46    45  36  38    39  30  33    32  24  27    25  19  21    24  19  21    27  23  24    21  19  20    20  18  19    20  19  20    23  23  23    22  23  22     0   0   0     0   0   0     0   0   0  
   0   0   0     0   0   0     0   0   0     0   0   0     0   0   0     0   0   0     0   0   0    50  40  46    47  39  45    45  36  42    41  32  40    37  31  35    36  30  32    35  29  29    34  28  28    33  27  27    34  28  28    35  29  29    37  32  29    38  33  30    37  32  29    39  34  30    40  35  33    42  37  34    44  39  35    47  42  38    51  46  42    53  50  45    54  53  49    54  53  50    57  55  50    59  55  52    63  57  51    66  58  54    67  59  52    69  59  53    73  60  53    76  62  55    78  63  58    79  64  59    78  63  59    76  58  55    70  54  51    66  52  50    51  41  41    42  35  37    35  28  31    32  25  27    26  21  21    22  18  18    21  20  18    25  23  21    23  22  21    23  22  20    25  24  23    29  27  26    29  26  23     0   0   0     0   0   0     0   0   0  
   0   0   0     0   0   0     0   0   0     0   0   0     0   0   0     0   0   0     0   0   0     0   0   0    46  37  42    42  36  40    38  31  38    36  30  34    34  28  30    34  28  28    34  28  28    34  28  28    34  28  28    35  29  29    36  31  28    37  32  29    38  33  30    41  36  33    44  39  36    47  42  39    49  44  39    52  47  42    55  50  47    58  54  49    59  56  51    59  56  51    60  55  51    64  57  51    67  58  53    70  59  53    72  62  56    75  63  55    75  60  53    77  62  55    79  64  59    78  63  58    73  59  56    67  52  50    60  46  43    53  42  40    42  33  33    34  28  30    30  24  26    28  24  25    26  22  21    23  19  18    22  21  19    26  25  23    26  25  23    29  26  23    32  29  26    35  31  28    35  30  27    35  28  26     0   0   0     0   0   0  
   0   0   0     0   0   0     0   0   0     0   0   0     0   0   0     0   0   0     0   0   0     0   0   0     0   0   0     0   0   0    34  30  36    32  27  31    32  26  28    32  26  26    32  26  26    33  27  27    34  28  28    35  29  29    36  31  28    37  32  29    41  36  33    44  39  36    48  43  40    51  46  43    54  49  45    56  51  47    60  55  51    63  57  53    63  55  52    63  56  50    65  56  51    67  56  50    71  58  52    74  61  53    76  63  55    79  64  57    76  61  54    77  62  55    76  63  57    73  60  55    65  54  51    57  47  44    49  39  37    42  35  33    37  31  31    31  27  28    29  25  24    27  26  24    25  24  22    23  22  20    23  22  18    27  26  22    30  26  23    34  31  26    38  33  29    40  32  29    41  32  27    43  31  29     0   0   0     0   0   0  
   0   0   0     0   0   0     0   0   0     0   0   0     0   0   0     0   0   0     0   0   0     0   0   0     0   0   0     0   0   0     0   0   0    27  25  28    31  27  28    32  26  26    32  26  26    32  26  26    34  28  28    36  31  31    39  34  31    40  35  32    46  41  38    49  44  41    53  48  45    56  51  48    59  54  50    62  57  53    65  60  56    68  61  57    67  57  52    69  56  52    70  58  51    73  59  52    76  60  53    79  61  55    79  64  55    80  65  56    78  63  55    76  61  54    72  59  53    66  55  51    58  48  46    49  42  40    43  36  34    38  32  32    33  30  28    30  26  27    27  26  25    29  28  26    29  29  26    27  26  23    28  27  22    31  30  25    35  32  26    40  35  31    44  37  31    44  35  29    45  33  29    50  35  31    51  35  30     0   0   0  
   0   0   0     0   0   0     0   0   0     0   0   0     0   0   0     0   0   0     0   0   0     0   0   0     0   0   0     0   0   0     0   0   0     0   0   0    32  29  30    33  28  29    32  27  28    33  28  27    35  30  30    39  33  33    44  39  36    46  41  38    50  45  42    54  48  45    58  52  49    62  55  52    64  58  54    66  60  55    68  62  57    71  63  59    71  59  54    74  59  53    76  61  54    79  63  55    80  65  56    82  65  57    81  65  57    81  65  58    76  62  54    72  59  52    65  54  49    58  47  44    49  43  40    42  36  35    36  32  32    34  30  30    33  32  30    31  30  28    31  30  28    35  34  31    36  36  31    35  35  30    37  35  29    40  37  32    41  36  29    47  40  34    50  41  33    49  37  30    50  35  29    56  39  33    59  40  33     0   0   0  
   0   0   0     0   0   0     0   0   0     0   0   0     0   0   0     0   0   0     0   0   0     0   0   0     0   0   0     0   0   0     0   0   0     0   0   0     0   0   0    33  32  33    31  30  32    31  30  30    34  32  32    40  36  37    46  40  40    49  44  41    56  49  46    61  51  49    64  55  53    67  57  53    67  56  53    68  57  51    70  59  53    72  59  52    74  60  52    75  61  53    77  63  55    77  65  56    77  66  56    76  66  56    73  65  55    72  63  55    62  55  48    58  51  45    52  46  41    46  40  37    41  36  33    38  32  32    37  31  33    37  31  33    32  31  29    33  33  31    37  36  33    42  39  35    43  41  35    44  41  33    47  41  32    50  42  34    49  40  31    56  44  36    58  47  36    57  43  33    57  42  32    60  45  36    62  44  35     0   0   0  
   0   0   0     0   0   0     0   0   0     0   0   0     0   0   0     0   0   0     0   0   0     0   0   0     0   0   0     0   0   0     0   0   0     0   0   0     0   0   0     0   0   0    32  33  35    34  34  35    38  36  37    45  41  42    52  46  46    57  49  47    61  51  49    63  53  51    67  56  52    71  57  54    70  56  51    72  57  52    74  58  51    76  59  53    77  63  54    77  64  55    78  67  58    78  69  59    75  69  57    70  66  55    65  62  53    63  59  52    50  49  44    48  47  42    46  42  39    42  38  35    40  34  34    39  33  33    40  31  34    39  33  35    36  35  33    37  37  33    40  39  34    44  41  36    46  42  33    49  41  34    54  44  34    57  45  36    58  44  34    63  49  39    66  52  39    66  50  38    63  49  38    64  50  40    64  49  39    61  47  39  
   0   0   0     0   0   0     0   0   0     0   0   0     0   0   0     0   0   0     0   0   0     0   0   0     0   0   0     0   0   0     0   0   0     0   0   0     0   0   0     0   0   0     0   0   0    41  38  39    46  44  43    53  49  48    60  55  52    65  57  55    63  53  51    65  55  53    68  57  53    72  59  53    73  58  51    75  60  53    79  62  55    81  64  57    78  63  56    78  65  57    77  67  59    75  66  58    71  64  54    63  59  50    56  53  44    53  50  43    44  43  38    43  42  37    42  41  37    41  37  34    41  35  35    40  34  34    39  33  33    38  34  33    42  41  37    42  43  38    43  42  37    45  42  37    46  42  33    52  43  36    57  47  37    62  49  40    64  50  39    71  54  44    74  57  47    73  55  45    71  54  44    71  54  44    69  52  44    64  49  42  
   0   0   0     0   0   0     0   0   0     0   0   0     0   0   0     0   0   0     0   0   0     0   0   0     0   0   0     0   0   0     0   0   0     0   0   0     0   0   0     0   0   0    45  43  41    50  45  44    54  50  48    60  54  51    66  58  55    70  60  57    67  56  54    69  57  53    71  58  52    74  59  54    76  61  55    79  63  56    82  65  58    80  65  59    77  64  59    74  63  58    70  61  57    65  58  53    58  53  48    53  48  42    47  44  38    44  42  37    39  38  33    39  38  34    40  39  35    40  39  35    41  37  36    42  37  36    41  36  35    41  37  35    45  44  40    46  46  41    50  47  42    51  46  40    53  46  38    56  47  40    60  49  40    64  50  41    70  53  43    76  58  48    79  61  51    78  57  48    75  56  47    74  55  46    72  52  46    66  50  43  
   0   0   0     0   0   0     0   0   0     0   0   0     0   0   0     0   0   0     0   0   0     0   0   0     0   0   0     0   0   0     0   0   0     0   0   0     0   0   0    54  48  46    55  50  47    58  52  49    61  54  51    65  56  52    67  58  54    69  59  55    71  59  54    72  59  53    73  59  54    76  61  56    80  64  57    81  64  57    81  64  57    78  63  58    74  64  61    69  60  59    62  55  53    55  48  46    48  44  41    45  42  38    42  41  36    42  41  37    37  36  32    38  37  33    39  38  34    41  40  36    44  40  37    45  41  38    45  41  38    45  41  38    46  45  41    50  48  43    53  50  44    57  52  46    59  52  44    61  51  43    64  51  42    67  51  43    77  59  49    82  63  53    84  63  54    82  59  51    78  56  50    78  56  50    76  54  48    71  52  46  
   0   0   0     0   0   0     0   0   0     0   0   0     0   0   0     0   0   0     0   0   0     0   0   0     0   0   0     0   0   0     0   0   0     0   0   0    60  53  50    62  53  51    63  56  51    65  57  52    66  58  53    68  58  52    68  58  52    69  58  52    73  60  54    73  60  54    75  60  53    77  62  56    81  64  57    80  63  56    77  60  53    72  57  54    66  56  57    61  54  55    53  48  49    46  42  42    42  38  38    41  37  35    39  38  35    40  39  36    38  37  35    39  38  35    40  39  35    42  41  37    44  42  38    46  44  40    49  45  41    50  46  42    49  46  42    52  49  44    54  51  44    59  52  46    60  52  45    64  52  44    67  53  44    71  54  46    80  62  52    85  65  55    86  63  55    81  57  50    78  54  48    78  54  48    76  52  48     0   0   0  
   0   0   0     0   0   0     0   0   0     0   0   0     0   0   0     0   0   0     0   0   0     0   0   0     0   0   0     0   0   0     0   0   0    67  57  54    66  57  52    67  57  53    69  60  53    70  60  54    72  61  55    71  60  54    71  60  54    70  59  53    73  60  54    73  60  54    75  60  53    78  63  56    79  64  57    79  61  57    72  57  50    66  52  49    54  48  50    51  45  49    46  41  45    42  37  41    39  35  36    37  33  34    35  34  32    36  35  33    40  39  37    42  39  38    42  41  37    43  42  38    45  44  39    48  47  42    52  49  44    53  50  45    52  49  44    54  49  45    55  50  44    57  50  42    61  51  42    65  52  44    70  56  47    75  57  49    80  62  52    83  63  54    83  60  52    77  54  48    73  50  44    74  50  46    74  50  46     0   0   0  
   0   0   0     0   0   0     0   0   0     0   0   0     0   0   0     0   0   0     0   0   0     0   0   0     0   0   0     0   0   0    70  60  58    73  62  60    70  59  53    71  60  54    72  62  53    74  61  53    73  60  52    71  58  50    71  58  52    72  59  53    75  62  56    77  64  58    77  64  58    72  59  53    69  56  50    69  54  51    64  51  45    57  47  45    44  38  40    42  40  45    44  39  43    42  37  41    39  35  36    38  35  35    41  36  38    44  40  39    51  47  46    51  46  43    48  44  41    47  43  40    47  44  39    49  46  41    52  49  42    53  50  43    55  50  44    55  50  44    57  50  42    59  50  43    62  52  43    67  54  46    72  58  49    77  59  49    81  63  53    81  61  52    82  59  53    79  56  50    74  52  46    70  49  44    70  49  44     0   0   0  
   0   0   0     0   0   0     0   0   0     0   0   0     0   0   0     0   0   0     0   0   0     0   0   0     0   0   0    70  60  57    72  61  59    73  62  58    75  63  57    75  65  56    78  65  57    77  64  56    76  63  56    75  62  55    75  62  56    74  62  56    74  61  56    76  64  59    75  63  58    71  58  55    65  55  51    65  51  51    58  47  44    52  43  41    42  38  39    42  40  42    45  41  44    45  40  43    44  40  40    45  41  41    49  42  44    52  46  45    53  47  44    53  45  43    50  44  41    49  43  40    50  44  40    51  47  42    52  49  42    55  50  44    57  51  45    59  51  46    61  51  45    62  51  46    66  53  46    70  56  46    74  57  47    75  58  48    78  60  50    78  59  49    77  57  50    74  54  47    69  50  44    67  49  42    66  49  44     0   0   0  
   0   0   0     0   0   0     0   0   0     0   0   0     0   0   0     0   0   0     0   0   0     0   0   0    73  64  61    73  63  61    75  64  62    77  66  62    81  68  62    81  68  60    81  68  60    81  68  60    79  68  62    78  67  61    77  66  60    76  65  60    70  59  55    71  60  57    68  58  55    63  52  51    58  49  47    56  45  46    52  43  41    47  38  38    44  40  40    44  41  41    46  42  42    47  42  42    47  41  41    49  42  41    53  43  43    55  45  44    57  48  46    57  46  45    55  46  43    54  45  42    54  46  40    54  48  42    55  49  43    56  50  44    61  53  47    62  52  48    64  54  47    66  54  47    69  56  47    71  57  48    74  57  47    74  57  47    75  57  47    75  57  47    74  56  48    70  53  45    65  50  43    64  49  42    62  49  43     0   0   0  
   0   0   0     0   0   0     0   0   0     0   0   0     0   0   0     0   0   0     0   0   0    74  65  66    75  67  65    78  68  66    79  69  68    81  70  67    84  70  65    82  69  61    80  69  60    80  69  60    79  68  62    78  67  61    76  66  60    73  63  60    66  56  53    64  56  54    60  51  49    52  43  43    47  41  40    49  40  42    47  41  40    45  38  38    45  42  39    46  42  40    47  43  40    48  43  41    50  43  42    53  43  41    54  43  42    55  42  41    59  49  47    60  47  46    57  47  43    57  46  43    57  47  42    56  48  43    57  49  44    58  49  44    63  54  47    64  53  47    65  55  46    68  55  47    70  56  47    70  56  47    71  56  45    71  56  45    70  55  45    71  56  45    69  55  46    65  54  44    61  50  42    60  50  43    58  50  43     0   0   0  
   0   0   0     0   0   0     0   0   0     0   0   0     0   0   0     0   0   0    74  68  69    75  69  69    79  71  69    81  72  71    83  73  72    82  72  70    81  70  64    80  67  59    76  66  57    75  64  58    76  65  59    74  63  59    70  60  58    66  56  55    62  54  52    61  52  53    53  47  47    46  40  42    44  38  40    48  42  44    49  44  45    49  44  45    48  44  40    48  44  40    49  45  39    54  47  44    58  48  46    61  50  48    63  49  48    62  48  47    63  49  48    63  49  48    62  48  45    62  48  45    59  48  44    59  48  44    59  50  45    60  49  45    64  53  47    66  53  47    66  53  45    66  53  45    67  53  44    67  53  44    67  53  42    67  53  42    67  53  42    67  55  43    64  54  44    61  52  43    58  51  43    55  51  42     0   0   0     0   0   0  
   0   0   0     0   0   0     0   0   0     0   0   0     0   0   0    74  69  73    75  69  71    77  71  73    81  72  73    82  73  74    81  73  71    80  70  68    79  68  62    74  65  56    72  61  55    70  59  54    69  61  54    67  59  54    62  54  52    57  49  47    52  47  44    53  47  47    50  46  45    46  42  43    45  41  42    49  44  48    49  47  50    50  46  47    53  49  44    52  49  42    54  50  41    59  52  46    63  54  49    66  55  51    67  53  50    65  51  48    65  50  47    65  50  47    64  49  46    64  49  46    63  49  46    62  48  45    60  49  45    60  49  45    65  54  48    66  53  47    65  52  44    64  49  42    64  50  41    64  50  41    65  51  40    66  52  41    64  52  40    62  52  40    61  53  42    57  51  41    54  49  41    52  49  40     0   0   0     0   0   0  
   0   0   0     0   0   0     0   0   0     0   0   0    74  73  72    76  72  69    77  71  69    81  72  70    84  73  71    83  72  70    82  68  68    79  66  65    77  68  65    72  63  60    67  59  56    66  57  56    64  57  55    61  54  52    56  48  47    53  45  44    47  41  41    49  43  43    49  43  44    47  42  43    49  44  45    52  47  50    53  48  51    53  48  48    61  54  51    59  53  48    59  52  45    62  52  48    66  55  52    66  55  52    65  52  49    62  49  46    66  52  49    65  51  48    64  51  48    63  51  48    61  50  47    60  50  46    60  49  46    60  49  46    64  53  48    64  51  46    62  50  45    61  49  44    60  47  42    60  47  41    60  48  42    60  48  43    59  49  43    57  48  44    56  49  46    53  47  44    51  46  42    50  47  43     0   0   0     0   0   0  
   0   0   0     0   0   0     0   0   0     0   0   0    74  74  67    78  74  66    81  74  67    84  74  68    86  72  68    85  69  66    84  65  64    80  64  64    77  68  70    68  63  65    63  58  60    62  56  58    59  54  54    53  48  49    50  44  45    51  45  46    49  43  43    48  42  42    49  42  42    51  44  44    55  47  48    58  51  51    61  54  53    64  55  53    68  58  56    66  55  53    64  54  50    66  55  53    69  58  56    69  58  56    66  56  54    63  52  50    66  55  53    65  54  52    63  54  52    62  53  51    61  52  50    60  51  49    59  50  48    59  49  47    61  50  46    61  50  46    60  49  47    59  48  47    58  47  47    56  45  45    55  43  45    53  42  46    56  46  49    54  45  50    52  44  49    50  43  48    49  43  46     0   0   0     0   0   0     0   0   0  
   0   0   0     0   0   0     0   0   0    76  75  69    78  74  68    80  74  67    81  72  67    82  71  67    84  70  66    84  68  65    83  66  64    80  65  65    70  61  64    61  56  60    55  50  54    54  49  53    52  47  50    47  43  46    47  41  43    48  42  44    46  40  41    47  41  43    49  42  43    52  45  45    57  48  49    60  50  52    62  53  53    64  54  53    69  58  56    68  55  54    66  53  52    67  54  53    69  58  56    69  58  56    66  55  53    63  53  50    64  53  51    64  53  51    62  53  51    61  52  50    60  51  48    59  50  47    58  49  46    58  48  46    59  48  44    59  48  44    60  49  47    60  48  48    59  49  50    57  47  48    57  46  50    56  45  51    55  47  52    54  45  51    50  44  48    48  42  47    47  41  44     0   0   0     0   0   0     0   0   0  
   0   0   0     0   0   0     0   0   0    82  75  72    79  70  65    80  71  66    81  70  66    81  70  68    79  68  66    79  65  64    77  63  62    74  61  63    62  55  57    54  49  53    48  43  47    46  41  45    45  40  43    41  36  40    41  35  37    43  37  39    41  35  37    45  39  41    49  43  43    54  48  48    59  50  51    62  53  54    64  55  56    66  56  57    68  56  56    69  55  54    68  54  53    69  55  54    68  57  55    68  57  55    66  55  53    64  53  51    62  51  49    62  51  49    60  50  48    59  49  47    58  48  46    57  47  45    56  46  44    56  46  44    60  49  45    60  49  45    61  50  46    61  50  48    60  50  49    59  49  50    59  49  50    58  47  51    56  47  50    54  45  50    49  43  45    47  41  43     0   0   0     0   0   0     0   0   0     0   0   0  
   0   0   0     0   0   0     0   0   0    89  75  74    81  67  66    82  68  67    84  70  69    82  70  70    79  68  68    74  64  66    69  60  61    65  57  60    56  52  56    48  46  49    43  41  44    41  39  42    41  36  40    38  33  37    37  33  34    39  35  36    39  33  35    44  38  40    50  44  44    55  49  49    58  52  52    60  54  54    65  56  57    68  58  59    70  56  56    70  54  55    69  55  55    69  55  55    69  55  55    68  54  54    67  53  53    65  51  51    62  50  50    62  50  50    61  49  49    60  48  48    58  48  47    57  47  46    56  46  45    56  46  44    60  51  46    60  51  46    61  52  47    61  51  49    60  50  49    59  49  50    58  48  49    58  48  49    57  48  49    55  46  49    52  43  44     0   0   0     0   0   0     0   0   0     0   0   0     0   0   0  
   0   0   0     0   0   0     0   0   0    92  72  75    86  67  70    84  67  70    83  68  70    78  67  70    74  64  67    68  60  64    60  57  60    58  54  59    51  49  53    45  43  47    42  40  43    41  39  43    41  37  41    38  34  38    39  35  36    41  36  38    42  37  38    47  41  43    53  47  47    56  50  51    57  50  51    58  52  53    62  54  55    66  56  57    68  53  54    69  53  55    68  54  55    68  53  54    66  52  53    65  51  52    64  50  51    64  49  50    63  50  51    62  50  51    62  50  50    60  49  49    59  49  48    58  48  47    57  47  46    56  46  45    59  50  45    59  50  43    60  50  45    60  50  45    60  50  48    59  49  48    58  48  47    58  48  49    57  48  48    56  47  48    55  46  46     0   0   0     0   0   0     0   0   0     0   0   0     0   0   0  
   0   0   0     0   0   0    90  70  73    90  69  75    88  68  73    83  65  72    76  62  69    69  58  65    63  56  62    56  53  59    51  52  58    51  52  57    47  46  51    43  41  46    41  39  44    43  41  46    44  42  45    42  40  43    43  38  42    45  40  44    47  43  44    51  47  48    56  50  52    57  51  53    55  49  51    55  49  51    57  51  51    62  53  54    67  52  55    69  53  56    69  53  56    68  52  55    65  50  53    64  49  52    63  48  51    63  48  51    61  49  51    60  48  50    59  47  49    58  46  48    56  46  47    55  45  46    55  45  46    54  44  43    56  47  42    57  48  41    58  49  44    59  50  45    60  50  48    60  50  49    59  51  49    59  51  49    58  50  48    57  49  47     0   0   0     0   0   0     0   0   0     0   0   0     0   0   0     0   0   0  
   0   0   0     0   0   0    83  65  72    82  62  72    80  62  71    74  58  68    66  53  64    58  50  60    54  51  60    51  50  59    47  50  59    46  50  56    43  43  48    42  40  45    42  40  45    42  41  46    45  43  47    45  43  47    47  44  47    49  46  49    54  50  53    55  50  53    55  50  51    54  50  51    54  48  50    54  48  50    55  50  51    59  50  53    65  52  55    66  51  55    66  51  55    66  50  55    63  50  54    61  49  52    61  48  51    61  48  51    55  44  47    54  43  46    53  41  45    51  40  43    50  40  43    51  40  43    51  42  45    52  43  43    53  45  40    53  46  38    56  48  42    56  49  43    58  49  46    58  49  47    58  50  48    58  50  48    59  50  49    60  52  50     0   0   0     0   0   0     0   0   0     0   0   0     0   0   0     0   0   0  
   0   0   0     0   0   0    77  64  73    75  61  71    70  57  69    65  53  67    58  49  62    51  47  61    48  48  60    46  48  61    44  48  60    43  47  56    40  41  46    41  40  45    41  40  45    41  40  45    44  42  47    46  44  49    48  46  49    49  47  50    57  52  56    55  50  54    53  49  50    52  48  49    52  46  48    53  47  49    54  48  50    57  48  51    60  48  52    62  47  52    60  48  52    60  47  51    59  47  51    57  45  49    55  44  48    55  44  48    53  42  46    52  41  45    49  40  43    49  38  42    48  39  42    49  40  43    50  41  44    51  42  43    52  44  41    53  46  40    54  47  41    55  47  44    56  48  46    57  49  47    57  49  47    57  49  47    61  53  51     0   0   0     0   0   0     0   0   0     0   0   0     0   0   0     0   0   0     0   0   0  
   0   0   0     0   0   0    70  63  74    67  60  73    59  54  68    54  51  66    49  48  62    45  45  61    42  45  60    40  44  59    37  44  58    39  43  54    37  37  45    38  37  43    39  38  44    40  39  45    42  41  46    44  43  48    48  46  51    49  47  52    53  51  54    51  49  52    51  46  50    49  44  48    49  44  48    49  44  48    50  46  47    52  46  48    54  44  50    56  43  50    55  44  50    54  44  50    54  43  49    53  42  48    50  42  47    49  41  46    50  42  47    49  41  46    47  41  45    48  39  44    46  40  44    47  41  45    48  42  46    49  43  45    50  45  42    50  45  41    51  46  42    51  46  43    54  46  44    56  47  48    57  48  49    58  49  50     0   0   0     0   0   0     0   0   0     0   0   0     0   0   0     0   0   0     0   0   0     0   0   0  
   0   0   0    65  66  77    61  64  76    59  61  75    50  55  71    48  53  70    44  50  66    40  45  62    37  43  60    35  40  57    33  39  56    35  38  51    36  36  45    37  36  42    37  36  42    39  38  44    41  40  45    44  43  48    47  45  50    48  47  52    50  48  52    48  46  50    48  44  47    46  42  45    45  40  44    46  41  45    47  43  45    48  43  45    51  43  48    53  43  48    52  44  48    51  43  47    50  42  47    49  40  45    46  40  44    45  40  44    46  40  44    45  40  44    44  40  44    45  39  43    43  39  43    44  40  44    45  41  45    46  43  44    49  44  42    49  43  41    49  43  41    49  43  44    52  44  45    54  46  49    57  48  49    58  49  50     0   0   0     0   0   0     0   0   0     0   0   0     0   0   0     0   0   0     0   0   0     0   0   0  
   0   0   0    60  69  81    56  68  82    54  67  82    46  61  77    45  60  77    43  57  73    40  51  68    37  45  63    35  41  60    34  38  57    36  38  53    39  39  49    40  39  45    40  39  45    40  39  45    42  41  47    44  43  49    46  45  50    47  46  51    47  45  50    46  44  49    44  42  45    42  40  43    44  39  43    45  40  44    46  41  45    47  42  46    48  42  46    49  42  46    48  42  46    47  42  46    47  41  45    45  40  44    44  39  43    43  38  42    42  39  42    42  39  42    42  40  43    43  39  43    42  40  43    42  41  44    42  41  44    44  42  44    46  42  42    47  41  42    48  42  43    48  42  45    50  44  47    52  46  50    56  47  51     0   0   0     0   0   0     0   0   0     0   0   0     0   0   0     0   0   0     0   0   0     0   0   0     0   0   0  
  59  70  83    56  70  85    52  70  85    48  70  85    43  65  81    43  65  83    44  62  79    42  56  75    40  50  70    38  45  66    40  42  63    42  43  60    44  44  54    44  44  49    43  42  48    43  42  48    43  42  48    44  43  49    45  44  49    46  45  50    45  42  47    43  41  46    41  40  42    40  38  41    43  38  42    44  39  43    46  41  45    47  42  46    47  42  47    47  42  47    47  42  47    45  42  47    44  41  46    43  40  45    42  39  44    41  38  43    38  36  41    38  37  42    40  38  43    40  39  43    41  39  44    40  41  44    40  41  44    41  41  43    42  40  41    45  40  41    46  40  42    48  42  46    50  44  48    52  45  51     0   0   0     0   0   0     0   0   0     0   0   0     0   0   0     0   0   0     0   0   0     0   0   0     0   0   0     0   0   0  
  54  68  81    51  68  84    45  68  82    42  68  83    40  67  84    42  68  85    45  66  84    45  62  81    44  54  74    44  49  72    46  48  69    48  49  67    48  48  58    47  48  53    47  46  52    45  44  50    44  43  49    44  43  49    45  44  49    45  44  49    43  41  46    42  40  45    41  39  42    40  38  41    43  38  42    44  39  43    46  41  45    48  43  47    49  44  51    49  44  51    48  45  51    48  46  51    47  44  49    46  44  49    44  43  48    44  42  47    37  36  41    37  36  41    38  37  42    39  38  43    39  40  44    40  41  45    39  40  44    40  39  44    39  37  38    43  39  40    46  40  44    49  43  47    51  44  51    52  45  52     0   0   0     0   0   0     0   0   0     0   0   0     0   0   0     0   0   0     0   0   0     0   0   0     0   0   0     0   0   0  
