P3
50 50
255
  68  55  38    69  56  39     0   0   0     0   0   0     0   0   0     0   0   0     0   0   0     0   0   0     0   0   0     0   0   0     0   0   0     0   0   0     0   0   0     0   0   0     0   0   0     0   0   0     0   0   0     0   0   0     0   0   0     0   0   0     0   0   0     0   0   0     0   0   0     0   0   0     0   0   0     0   0   0     0   0   0     0   0   0     0   0   0     0   0   0     0   0   0     0   0   0     0   0   0     0   0   0     0   0   0     0   0   0     0   0   0     0   0   0     0   0   0     0   0   0     0   0   0     0   0   0     0   0   0     0   0   0     0   0   0     0   0   0     0   0   0     0   0   0    57  40  30    56  39  29  
  68  55  37    68  55  37    68  55  38     0   0   0     0   0   0     0   0   0     0   0   0     0   0   0     0   0   0     0   0   0     0   0   0     0   0   0     0   0   0     0   0   0     0   0   0     0   0   0     0   0   0     0   0   0     0   0   0     0   0   0     0   0   0     0   0   0     0   0   0     0   0   0     0   0   0     0   0   0     0   0   0     0   0   0     0   0   0     0   0   0     0   0   0     0   0   0     0   0   0     0   0   0     0   0   0     0   0   0     0   0   0     0   0   0     0   0   0     0   0   0     0   0   0     0   0   0     0   0   0     0   0   0     0   0   0     0   0   0     0   0   0    59  41  31    56  39  30    56  39  30  
   0   0   0    67  54  35    66  53  36    66  53  36    65  52  35    65  52  35    66  53  36    64  51  34    62  49  32     0   0   0     0   0   0     0   0   0     0   0   0     0   0   0     0   0   0     0   0   0     0   0   0     0   0   0     0   0   0     0   0   0     0   0   0     0   0   0     0   0   0     0   0   0     0   0   0     0   0   0     0   0   0     0   0   0     0   0   0     0   0   0     0   0   0     0   0   0     0   0   0     0   0   0     0   0   0     0   0   0     0   0   0     0   0   0     0   0   0     0   0   0     0   0   0     0   0   0     0   0   0     0   0   0     0   0   0     0   0   0    61  43  33    60  42  32    57  40  32     0   0   0  
   0   0   0     0   0   0    64  51  34    64  51  34    64  51  34    64  50  34    67  54  37    65  52  35    62  49  32    60  47  30    58  45  27    57  44  26    56  43  25    55  41  26    50  40  31     0   0   0     0   0   0     0   0   0     0   0   0     0   0   0     0   0   0     0   0   0     0   0   0     0   0   0     0   0   0     0   0   0     0   0   0     0   0   0     0   0   0     0   0   0     0   0   0     0   0   0     0   0   0     0   0   0     0   0   0     0   0   0     0   0   0     0   0   0     0   0   0     0   0   0     0   0   0     0   0   0     0   0   0     0   0   0     0   0   0    59  39  31    61  42  34    58  41  33     0   0   0     0   0   0  
   0   0   0     0   0   0     0   0   0    65  52  35    66  53  36    66  53  36    66  53  36    64  51  34    62  49  32    61  48  31    60  47  28    58  45  26    56  43  24    54  41  25    52  39  31     0   0   0     0   0   0     0   0   0     0   0   0     0   0   0     0   0   0     0   0   0     0   0   0     0   0   0     0   0   0     0   0   0     0   0   0     0   0   0     0   0   0     0   0   0     0   0   0     0   0   0     0   0   0     0   0   0     0   0   0     0   0   0     0   0   0     0   0   0     0   0   0     0   0   0     0   0   0     0   0   0     0   0   0     0   0   0    60  41  34    59  40  33    60  43  35    58  41  33     0   0   0     0   0   0  
   0   0   0     0   0   0     0   0   0     0   0   0    64  52  36    65  52  37    64  51  34    63  50  33    61  48  31    61  48  31    61  48  31    59  46  29    57  44  27    55  41  28    54  41  33    52  38  35     0   0   0     0   0   0     0   0   0     0   0   0     0   0   0     0   0   0     0   0   0     0   0   0     0   0   0     0   0   0     0   0   0     0   0   0     0   0   0     0   0   0     0   0   0     0   0   0     0   0   0     0   0   0     0   0   0     0   0   0     0   0   0     0   0   0     0   0   0     0   0   0     0   0   0     0   0   0     0   0   0    61  42  36    60  41  35    59  40  34    58  41  34     0   0   0     0   0   0     0   0   0  
   0   0   0     0   0   0     0   0   0     0   0   0     0   0   0    62  49  33    62  49  33    61  48  31    60  47  30    60  48  31    60  48  31    60  47  30    57  44  27    55  41  28    55  42  35    53  39  36    50  37  31     0   0   0     0   0   0     0   0   0     0   0   0     0   0   0     0   0   0     0   0   0     0   0   0     0   0   0     0   0   0     0   0   0     0   0   0     0   0   0     0   0   0     0   0   0     0   0   0     0   0   0     0   0   0     0   0   0     0   0   0     0   0   0     0   0   0     0   0   0     0   0   0     0   0   0    55  41  34    58  41  35    57  40  34    56  39  33    55  38  31     0   0   0     0   0   0     0   0   0  
   0   0   0     0   0   0     0   0   0     0   0   0     0   0   0     0   0   0    63  49  36    61  48  33    60  47  31    59  46  30    59  46  30    59  46  30    58  45  28    57  43  30    56  43  37    53  39  37    50  37  31     0   0   0     0   0   0     0   0   0     0   0   0     0   0   0     0   0   0     0   0   0     0   0   0     0   0   0     0   0   0     0   0   0     0   0   0     0   0   0     0   0   0     0   0   0     0   0   0     0   0   0     0   0   0     0   0   0     0   0   0     0   0   0     0   0   0     0   0   0     0   0   0    52  40  34    53  41  35    54  40  35    53  39  33    53  36  32     0   0   0     0   0   0     0   0   0     0   0   0  
   0   0   0     0   0   0     0   0   0     0   0   0     0   0   0     0   0   0     0   0   0    62  48  36    58  45  30    56  43  29    56  43  27    57  44  28    57  44  28    57  43  31    56  43  37    53  39  38    49  36  30    48  35  29     0   0   0     0   0   0     0   0   0     0   0   0     0   0   0     0   0   0     0   0   0     0   0   0     0   0   0     0   0   0     0   0   0     0   0   0     0   0   0     0   0   0     0   0   0     0   0   0     0   0   0     0   0   0     0   0   0     0   0   0     0   0   0     0   0   0    49  40  33    51  40  34    52  41  36    53  39  35    52  38  34    51  36  32     0   0   0     0   0   0     0   0   0     0   0   0  
   0   0   0     0   0   0     0   0   0     0   0   0     0   0   0     0   0   0     0   0   0     0   0   0     0   0   0    55  41  28    55  41  28    55  43  29    56  44  30    57  44  34    54  43  37    51  40  36    47  36  32    45  34  28    46  36  27     0   0   0     0   0   0     0   0   0     0   0   0     0   0   0     0   0   0     0   0   0     0   0   0     0   0   0     0   0   0     0   0   0     0   0   0     0   0   0     0   0   0     0   0   0     0   0   0     0   0   0     0   0   0     0   0   0     0   0   0    48  39  32    48  39  32    49  40  33    51  42  37    52  41  37    51  40  36     0   0   0     0   0   0     0   0   0     0   0   0     0   0   0  
   0   0   0     0   0   0     0   0   0     0   0   0     0   0   0     0   0   0     0   0   0     0   0   0     0   0   0     0   0   0    59  46  37    57  47  38    54  44  35    51  42  35    46  39  33    47  40  34    47  40  34    45  38  30    45  36  29     0   0   0     0   0   0     0   0   0     0   0   0     0   0   0     0   0   0     0   0   0     0   0   0     0   0   0     0   0   0     0   0   0     0   0   0     0   0   0     0   0   0     0   0   0     0   0   0     0   0   0     0   0   0     0   0   0    51  40  34    49  40  33    49  40  35    49  40  35    49  40  35    48  39  34    46  36  34     0   0   0     0   0   0     0   0   0     0   0   0     0   0   0  
   0   0   0     0   0   0     0   0   0     0   0   0     0   0   0     0   0   0     0   0   0     0   0   0     0   0   0     0   0   0     0   0   0    53  42  36    49  40  33    47  38  33    45  40  34    46  41  35    47  41  35    47  40  34    46  37  30    46  37  30     0   0   0     0   0   0     0   0   0     0   0   0     0   0   0     0   0   0     0   0   0     0   0   0     0   0   0     0   0   0     0   0   0     0   0   0     0   0   0     0   0   0     0   0   0     0   0   0     0   0   0    52  39  31    51  41  32    50  39  33    49  40  33    49  40  34    48  41  35    47  40  34     0   0   0     0   0   0     0   0   0     0   0   0     0   0   0     0   0   0  
   0   0   0     0   0   0     0   0   0     0   0   0     0   0   0     0   0   0     0   0   0     0   0   0     0   0   0     0   0   0     0   0   0     0   0   0    49  40  32    47  38  31    46  41  34    47  42  36    49  42  34    48  41  33    47  38  31    47  38  31     0   0   0     0   0   0     0   0   0     0   0   0     0   0   0     0   0   0     0   0   0     0   0   0     0   0   0     0   0   0     0   0   0     0   0   0     0   0   0     0   0   0     0   0   0     0   0   0    54  41  32    54  41  32    51  41  32    51  40  33    49  40  32    50  41  34    49  42  33    48  41  33     0   0   0     0   0   0     0   0   0     0   0   0     0   0   0     0   0   0  
   0   0   0     0   0   0     0   0   0     0   0   0     0   0   0     0   0   0     0   0   0     0   0   0     0   0   0     0   0   0     0   0   0     0   0   0     0   0   0    51  42  35    44  40  31    45  41  33    47  40  32    46  39  31    46  37  29    46  37  29    49  39  29     0   0   0     0   0   0     0   0   0     0   0   0     0   0   0     0   0   0     0   0   0     0   0   0     0   0   0     0   0   0     0   0   0     0   0   0     0   0   0    59  45  34    57  43  32    55  42  31    55  41  32    53  41  32    52  40  31    50  40  31    50  41  32    50  42  31     0   0   0     0   0   0     0   0   0     0   0   0     0   0   0     0   0   0     0   0   0  
   0   0   0     0   0   0     0   0   0     0   0   0     0   0   0     0   0   0     0   0   0     0   0   0     0   0   0     0   0   0     0   0   0     0   0   0     0   0   0     0   0   0    46  39  31    46  39  31    47  40  32    46  39  31    46  37  28    47  38  29    49  39  29    53  40  31     0   0   0     0   0   0     0   0   0     0   0   0     0   0   0     0   0   0     0   0   0     0   0   0     0   0   0     0   0   0     0   0   0    61  45  32    59  45  34    58  44  33    57  43  32    56  42  31    54  42  30    53  40  31    51  41  31    51  41  31    51  43  32     0   0   0     0   0   0     0   0   0     0   0   0     0   0   0     0   0   0     0   0   0  
   0   0   0     0   0   0     0   0   0     0   0   0     0   0   0     0   0   0     0   0   0     0   0   0     0   0   0     0   0   0     0   0   0     0   0   0     0   0   0     0   0   0     0   0   0    47  40  32    48  41  31    48  39  30    47  38  29    48  39  30    50  40  30    54  41  32     0   0   0     0   0   0     0   0   0     0   0   0     0   0   0     0   0   0     0   0   0     0   0   0     0   0   0     0   0   0    60  44  31    60  44  31    60  44  31    60  44  31    57  43  30    57  43  30    54  42  28    54  42  30    53  41  29     0   0   0     0   0   0     0   0   0     0   0   0     0   0   0     0   0   0     0   0   0     0   0   0     0   0   0  
   0   0   0     0   0   0     0   0   0     0   0   0     0   0   0     0   0   0     0   0   0     0   0   0     0   0   0     0   0   0     0   0   0     0   0   0     0   0   0     0   0   0     0   0   0     0   0   0    50  41  32    49  40  31    49  40  30    50  40  31    52  42  32    55  42  33    57  44  35     0   0   0     0   0   0     0   0   0     0   0   0     0   0   0     0   0   0     0   0   0    58  42  30    58  42  30    60  43  31    61  44  32    61  44  32    60  44  32    58  44  30    57  43  30    55  42  28    55  42  28     0   0   0     0   0   0     0   0   0     0   0   0     0   0   0     0   0   0     0   0   0     0   0   0     0   0   0     0   0   0  
   0   0   0     0   0   0     0   0   0     0   0   0     0   0   0     0   0   0     0   0   0     0   0   0     0   0   0     0   0   0     0   0   0     0   0   0     0   0   0     0   0   0     0   0   0     0   0   0     0   0   0    49  40  31    50  40  30    51  41  31    53  41  32    54  41  32    54  41  32    55  42  33     0   0   0     0   0   0     0   0   0     0   0   0     0   0   0    59  42  32    59  42  32    60  43  33    61  44  34    62  45  35    62  45  35    61  44  34    57  43  31    56  42  29     0   0   0     0   0   0     0   0   0     0   0   0     0   0   0     0   0   0     0   0   0     0   0   0     0   0   0     0   0   0     0   0   0     0   0   0  
   0   0   0     0   0   0     0   0   0     0   0   0     0   0   0     0   0   0     0   0   0     0   0   0     0   0   0     0   0   0     0   0   0     0   0   0     0   0   0     0   0   0     0   0   0     0   0   0     0   0   0     0   0   0    51  41  31    51  41  31    53  40  31    53  40  31    53  40  31    53  40  31     0   0   0     0   0   0     0   0   0     0   0   0    56  41  32    56  41  32    59  42  33    60  43  34    60  43  35    61  44  35    61  43  35    59  42  34    58  41  33     0   0   0     0   0   0     0   0   0     0   0   0     0   0   0     0   0   0     0   0   0     0   0   0     0   0   0     0   0   0     0   0   0     0   0   0     0   0   0  
   0   0   0     0   0   0     0   0   0     0   0   0     0   0   0     0   0   0     0   0   0     0   0   0     0   0   0     0   0   0     0   0   0     0   0   0     0   0   0     0   0   0     0   0   0     0   0   0     0   0   0     0   0   0     0   0   0    53  43  33    54  41  32    54  41  32    52  39  30    52  39  30    54  40  31     0   0   0    55  41  32    55  41  32    55  41  32    54  40  31    59  42  34    59  42  35    59  42  34    59  42  35    59  42  34     0   0   0     0   0   0     0   0   0     0   0   0     0   0   0     0   0   0     0   0   0     0   0   0     0   0   0     0   0   0     0   0   0     0   0   0     0   0   0     0   0   0     0   0   0  
   0   0   0     0   0   0     0   0   0     0   0   0     0   0   0     0   0   0     0   0   0     0   0   0     0   0   0     0   0   0     0   0   0     0   0   0     0   0   0     0   0   0     0   0   0     0   0   0     0   0   0     0   0   0     0   0   0    54  41  32    53  40  31    52  39  30    51  38  29    52  39  30    53  40  31    53  40  31    55  41  32    55  41  32    54  40  31    54  40  31    56  41  34    56  41  36    58  41  34     0   0   0     0   0   0     0   0   0     0   0   0     0   0   0     0   0   0     0   0   0     0   0   0     0   0   0     0   0   0     0   0   0     0   0   0     0   0   0     0   0   0     0   0   0     0   0   0     0   0   0  
   0   0   0     0   0   0     0   0   0     0   0   0     0   0   0     0   0   0     0   0   0     0   0   0     0   0   0     0   0   0     0   0   0     0   0   0     0   0   0     0   0   0     0   0   0     0   0   0     0   0   0     0   0   0     0   0   0     0   0   0    51  38  29    51  38  29    52  39  30    52  39  30    53  40  31    54  41  32    55  41  32    55  41  32    54  40  31    54  39  32    54  39  34    53  38  34     0   0   0     0   0   0     0   0   0     0   0   0     0   0   0     0   0   0     0   0   0     0   0   0     0   0   0     0   0   0     0   0   0     0   0   0     0   0   0     0   0   0     0   0   0     0   0   0     0   0   0     0   0   0  
   0   0   0     0   0   0     0   0   0     0   0   0     0   0   0     0   0   0     0   0   0     0   0   0     0   0   0     0   0   0     0   0   0     0   0   0     0   0   0     0   0   0     0   0   0     0   0   0     0   0   0     0   0   0     0   0   0     0   0   0     0   0   0    54  41  32    53  40  31    53  40  31    54  41  32    55  42  33    55  42  34    55  41  34    55  40  33    55  40  34     0   0   0     0   0   0     0   0   0     0   0   0     0   0   0     0   0   0     0   0   0     0   0   0     0   0   0     0   0   0     0   0   0     0   0   0     0   0   0     0   0   0     0   0   0     0   0   0     0   0   0     0   0   0     0   0   0     0   0   0  
   0   0   0     0   0   0     0   0   0     0   0   0     0   0   0     0   0   0     0   0   0     0   0   0     0   0   0     0   0   0     0   0   0     0   0   0     0   0   0     0   0   0     0   0   0     0   0   0     0   0   0     0   0   0     0   0   0     0   0   0     0   0   0     0   0   0    51  40  32    51  40  32    52  40  31    52  39  32    52  38  32    52  37  32    52  37  31     0   0   0     0   0   0     0   0   0     0   0   0     0   0   0     0   0   0     0   0   0     0   0   0     0   0   0     0   0   0     0   0   0     0   0   0     0   0   0     0   0   0     0   0   0     0   0   0     0   0   0     0   0   0     0   0   0     0   0   0     0   0   0  
   0   0   0     0   0   0     0   0   0     0   0   0     0   0   0     0   0   0     0   0   0     0   0   0     0   0   0     0   0   0     0   0   0     0   0   0     0   0   0     0   0   0     0   0   0     0   0   0     0   0   0     0   0   0     0   0   0     0   0   0     0   0   0     0   0   0     0   0   0    50  40  31    52  39  33    51  38  32    51  36  31     0   0   0     0   0   0     0   0   0     0   0   0     0   0   0     0   0   0     0   0   0     0   0   0     0   0   0     0   0   0     0   0   0     0   0   0     0   0   0     0   0   0     0   0   0     0   0   0     0   0   0     0   0   0     0   0   0     0   0   0     0   0   0     0   0   0     0   0   0  
   0   0   0     0   0   0     0   0   0     0   0   0     0   0   0     0   0   0     0   0   0     0   0   0     0   0   0     0   0   0     0   0   0     0   0   0     0   0   0     0   0   0     0   0   0     0   0   0     0   0   0     0   0   0     0   0   0     0   0   0     0   0   0     0   0   0     0   0   0     0   0   0    51  38  32    50  37  31     0   0   0     0   0   0     0   0   0     0   0   0     0   0   0     0   0   0     0   0   0     0   0   0     0   0   0     0   0   0     0   0   0     0   0   0     0   0   0     0   0   0     0   0   0     0   0   0     0   0   0     0   0   0     0   0   0     0   0   0     0   0   0     0   0   0     0   0   0     0   0   0  
   0   0   0     0   0   0     0   0   0     0   0   0     0   0   0     0   0   0     0   0   0     0   0   0     0   0   0     0   0   0     0   0   0     0   0   0     0   0   0     0   0   0     0   0   0     0   0   0     0   0   0     0   0   0     0   0   0     0   0   0     0   0   0     0   0   0     0   0   0    50  40  31    50  38  32    50  37  31    50  37  30     0   0   0     0   0   0     0   0   0     0   0   0     0   0   0     0   0   0     0   0   0     0   0   0     0   0   0     0   0   0     0   0   0     0   0   0     0   0   0     0   0   0     0   0   0     0   0   0     0   0   0     0   0   0     0   0   0     0   0   0     0   0   0     0   0   0     0   0   0  
   0   0   0     0   0   0     0   0   0     0   0   0     0   0   0     0   0   0     0   0   0     0   0   0     0   0   0     0   0   0     0   0   0     0   0   0     0   0   0     0   0   0     0   0   0     0   0   0     0   0   0     0   0   0     0   0   0     0   0   0     0   0   0    52  42  33    50  40  31    50  40  31    49  38  32    49  37  31    49  36  30    49  36  30     0   0   0     0   0   0     0   0   0     0   0   0     0   0   0     0   0   0     0   0   0     0   0   0     0   0   0     0   0   0     0   0   0     0   0   0     0   0   0     0   0   0     0   0   0     0   0   0     0   0   0     0   0   0     0   0   0     0   0   0     0   0   0     0   0   0  
   0   0   0     0   0   0     0   0   0     0   0   0     0   0   0     0   0   0     0   0   0     0   0   0     0   0   0     0   0   0     0   0   0     0   0   0     0   0   0     0   0   0     0   0   0     0   0   0     0   0   0     0   0   0     0   0   0    57  44  35    52  42  33    50  40  31    49  40  31    48  39  30    48  37  31    47  36  30    49  36  30    48  35  29    50  35  30    50  35  30     0   0   0     0   0   0     0   0   0     0   0   0     0   0   0     0   0   0     0   0   0     0   0   0     0   0   0     0   0   0     0   0   0     0   0   0     0   0   0     0   0   0     0   0   0     0   0   0     0   0   0     0   0   0     0   0   0     0   0   0  
   0   0   0     0   0   0     0   0   0     0   0   0     0   0   0     0   0   0     0   0   0     0   0   0     0   0   0     0   0   0     0   0   0     0   0   0     0   0   0     0   0   0     0   0   0     0   0   0     0   0   0    59  45  36    57  44  35    56  43  34    52  42  33    50  40  31    48  39  30    48  39  30    48  37  31    47  36  30    46  35  29    48  35  29    48  35  29    50  35  30    51  36  29     0   0   0     0   0   0     0   0   0     0   0   0     0   0   0     0   0   0     0   0   0     0   0   0     0   0   0     0   0   0     0   0   0     0   0   0     0   0   0     0   0   0     0   0   0     0   0   0     0   0   0     0   0   0     0   0   0  
   0   0   0     0   0   0     0   0   0     0   0   0     0   0   0     0   0   0     0   0   0     0   0   0     0   0   0     0   0   0     0   0   0     0   0   0     0   0   0     0   0   0     0   0   0    64  45  38    61  44  36    58  44  35    57  44  35    56  43  34    52  42  33    50  41  32    48  39  30    48  39  30    47  38  31    47  36  30    47  36  30    49  36  30    49  36  30    49  36  30    52  37  30    52  38  29     0   0   0     0   0   0     0   0   0     0   0   0     0   0   0     0   0   0     0   0   0     0   0   0     0   0   0     0   0   0     0   0   0     0   0   0     0   0   0     0   0   0     0   0   0     0   0   0     0   0   0     0   0   0  
   0   0   0     0   0   0     0   0   0     0   0   0     0   0   0     0   0   0     0   0   0     0   0   0     0   0   0     0   0   0     0   0   0     0   0   0     0   0   0    65  48  38    65  48  40    63  46  38    59  45  36    58  44  35    57  44  35    54  44  34    50  42  33    49  40  31    49  41  32    48  40  30    48  39  32    46  37  30    46  35  29    46  35  29    47  34  28    47  34  28    53  39  30    53  39  30    53  38  30     0   0   0     0   0   0     0   0   0     0   0   0     0   0   0     0   0   0     0   0   0     0   0   0     0   0   0     0   0   0     0   0   0     0   0   0     0   0   0     0   0   0     0   0   0     0   0   0     0   0   0  
   0   0   0     0   0   0     0   0   0     0   0   0     0   0   0     0   0   0     0   0   0     0   0   0     0   0   0     0   0   0     0   0   0    67  49  38    66  48  38    65  48  38    65  48  40    63  46  38    59  45  36    57  43  34    54  43  33    53  43  33    50  41  32    49  40  31    46  39  29    45  38  28    46  37  30    46  37  30    47  36  30    47  36  30    50  37  31    50  37  30    53  39  30    53  39  30    53  39  30    54  40  31    54  40  31     0   0   0     0   0   0     0   0   0     0   0   0     0   0   0     0   0   0     0   0   0     0   0   0     0   0   0     0   0   0     0   0   0     0   0   0     0   0   0     0   0   0     0   0   0  
   0   0   0     0   0   0     0   0   0     0   0   0     0   0   0     0   0   0     0   0   0     0   0   0     0   0   0    74  52  39    70  50  39    69  50  40    70  50  41    69  50  42    65  49  40    63  46  38    57  43  34    55  41  32    51  41  31    51  41  31    49  40  31    48  39  30    42  35  25    42  35  25    44  35  28    44  35  28    46  35  29    48  37  31    50  38  32    52  39  31    53  39  30    53  39  28    53  39  28    54  40  30    54  40  31    54  40  31     0   0   0     0   0   0     0   0   0     0   0   0     0   0   0     0   0   0     0   0   0     0   0   0     0   0   0     0   0   0     0   0   0     0   0   0     0   0   0     0   0   0  
   0   0   0     0   0   0     0   0   0     0   0   0     0   0   0     0   0   0     0   0   0    76  53  39    74  52  39    74  52  41    71  51  42    71  51  42    71  51  44    72  52  45    66  49  41    63  46  38    57  43  34    53  40  31    50  40  30    50  40  30    48  39  30    47  38  29    44  38  28    44  38  28    45  36  29    45  36  29    45  36  29    46  35  29    46  35  29    49  36  28    51  38  29    52  38  27    52  38  27    53  39  28    53  39  30    54  40  31    54  39  32     0   0   0     0   0   0     0   0   0     0   0   0     0   0   0     0   0   0     0   0   0     0   0   0     0   0   0     0   0   0     0   0   0     0   0   0     0   0   0  
   0   0   0     0   0   0     0   0   0     0   0   0     0   0   0    74  53  36    72  51  34    72  51  37    73  51  38    73  51  40    72  49  41    72  49  41    69  49  42    68  48  42    66  49  41    63  46  38    56  42  33    52  39  30    49  39  29    49  39  29    47  38  29    46  39  29    46  39  29    45  38  28    44  37  29    45  36  29    44  35  28    44  35  28    45  34  28    48  35  27    50  37  28    51  37  26    51  37  26    52  38  27    53  39  30    53  39  30    54  40  31    54  40  31    54  39  32     0   0   0     0   0   0     0   0   0     0   0   0     0   0   0     0   0   0     0   0   0     0   0   0     0   0   0     0   0   0     0   0   0  
   0   0   0     0   0   0     0   0   0    71  54  39    70  53  38    70  52  37    69  50  37    69  50  37    69  50  40    69  50  39    68  50  39    67  48  38    64  47  39    64  46  38    65  49  40    63  46  37    57  43  33    53  40  31    49  39  29    48  38  29    45  38  29    44  37  30    42  35  28    42  35  28    41  35  28    42  35  30    43  36  28    44  36  29    45  37  30    47  36  30    49  36  28    50  36  27    51  37  28    51  37  29    52  38  30    53  38  31    53  39  30    53  39  32    52  38  31    52  38  31     0   0   0     0   0   0     0   0   0     0   0   0     0   0   0     0   0   0     0   0   0     0   0   0     0   0   0     0   0   0  
   0   0   0     0   0   0     0   0   0    71  53  41    69  52  41    69  52  41    68  51  42    68  51  42    67  51  41    66  51  40    65  52  38    64  51  37    62  51  38    63  50  38    63  48  36    63  46  36    58  44  33    55  42  33    50  40  30    48  37  30    44  37  30    44  37  31    41  36  31    40  35  30    39  34  29    40  33  30    41  33  29    42  34  30    43  36  30    45  36  30    48  36  30    50  37  30    51  38  31    52  39  32    52  39  32    52  39  33    52  39  32    52  39  33    51  38  32    51  38  32    52  39  33     0   0   0     0   0   0     0   0   0     0   0   0     0   0   0     0   0   0     0   0   0     0   0   0     0   0   0  
   0   0   0     0   0   0     0   0   0    71  53  41    70  53  43    70  53  43    67  50  42    68  50  43    66  52  41    67  53  42    65  53  39    64  52  38    63  52  36    63  50  37    60  46  32    61  43  33    57  43  32    55  41  32    50  40  32    49  38  32    46  39  33    46  39  33    42  37  33    41  36  32    40  35  31    40  35  30    42  34  29    43  35  30    44  37  29    45  37  30    47  37  28    50  37  30    51  38  31    51  38  31    52  39  31    51  38  31    51  38  31    51  38  31    52  39  32    52  39  31    52  39  31    53  40  32     0   0   0     0   0   0     0   0   0     0   0   0     0   0   0     0   0   0     0   0   0     0   0   0  
   0   0   0     0   0   0    71  53  39    71  53  41    70  54  41    70  53  43    69  53  43    71  54  46    69  56  44    71  57  46    69  57  44    69  57  42    67  55  39    67  54  40    62  46  35    62  45  37    58  44  34    56  41  34    52  41  34    51  40  34    48  41  35    48  41  35    45  40  36    44  39  35    43  38  34    42  37  31    44  37  31    44  37  29    45  38  30    47  38  29    48  38  29    50  37  29    51  38  30    51  38  30    51  38  30    51  38  30    50  37  29    50  37  29    54  41  33    53  40  32    52  39  31    52  39  31    53  40  32     0   0   0     0   0   0     0   0   0     0   0   0     0   0   0     0   0   0     0   0   0  
   0   0   0     0   0   0    69  53  38    69  53  40    69  53  40    70  53  43    70  56  45    70  56  45    71  57  44    72  58  45    72  59  43    72  59  43    71  58  42    70  56  43    67  50  40    65  48  40    61  47  38    58  43  36    53  42  36    51  40  34    48  41  35    47  40  34    47  42  36    46  41  35    44  39  33    43  39  30    45  38  30    45  38  28    47  38  29    48  40  29    48  38  28    50  37  28    50  37  28    51  38  29    51  38  29    50  37  28    50  37  28    49  36  27    53  40  31    53  40  31    52  39  30    52  39  30    52  39  30    54  41  32     0   0   0     0   0   0     0   0   0     0   0   0     0   0   0     0   0   0  
   0   0   0     0   0   0    71  55  38    71  55  40    70  55  40    71  56  42    70  56  43    70  56  44    70  55  42    70  55  42    70  56  40    72  56  40    72  58  42    74  57  44    72  55  45    70  52  45    65  50  42    61  46  40    57  45  38    52  41  36    50  41  36    49  41  36    48  42  36    47  41  35    46  40  32    45  40  31    45  38  28    45  38  28    47  39  27    49  39  28    48  38  28    50  37  28    50  37  28    50  38  29    50  37  28    50  37  28    49  35  27    48  35  26    51  38  29    50  38  29    51  38  29    52  39  30    52  39  30    53  40  30    53  40  31     0   0   0     0   0   0     0   0   0     0   0   0     0   0   0  
   0   0   0     0   0   0    73  58  40    73  57  42    71  58  42    72  59  44    72  58  45    71  57  44    72  56  41    71  55  40    72  55  39    74  57  41    76  59  43    78  60  46    74  56  46    73  54  47    69  52  44    65  49  42    60  47  40    56  44  38    53  44  38    52  43  38    50  43  37    49  42  36    47  40  32    46  39  31    45  39  28    46  39  27    47  39  26    48  38  26    49  38  28    50  37  28    50  37  28    50  37  28    50  37  28    49  36  27    48  35  26    48  35  26    49  36  27    50  37  28    51  38  29    52  39  30    52  39  30    52  39  30    52  39  30     0   0   0     0   0   0     0   0   0     0   0   0     0   0   0  
   0   0   0     0   0   0    77  62  43    75  59  43    73  60  44    72  59  43    74  61  46    73  60  45    73  57  42    73  57  42    74  57  41    76  58  42    78  60  43    80  61  46    77  59  48    75  57  48    71  54  45    68  51  43    63  50  42    61  48  42    56  47  40    54  45  39    51  44  37    50  43  36    48  41  33    47  40  32    47  40  28    47  39  28    47  39  27    48  38  27    49  36  27    49  36  27    48  36  26    48  36  26    49  36  27    50  37  28    50  37  28    50  37  28    50  37  28    50  37  28    50  37  28    51  37  28    51  37  28    50  37  28    50  36  27    50  36  27     0   0   0     0   0   0     0   0   0     0   0   0  
   0   0   0     0   0   0    79  64  43    77  62  43    74  61  44    73  60  44    75  62  46    75  62  46    77  61  46    77  60  46    79  60  44    81  60  46    82  61  44    82  61  44    78  59  45    75  57  45    71  55  42    69  52  42    66  52  43    62  49  41    58  48  39    54  45  38    51  44  36    50  43  35    49  42  34    48  41  33    48  39  30    47  39  28    48  38  28    48  38  28    49  36  27    49  36  28    49  36  27    49  36  28    49  36  27    50  37  29    51  38  29    51  38  30    52  39  30    52  39  31    52  39  30    52  39  31    52  39  30    52  39  30    51  38  29    52  37  29    55  40  33     0   0   0     0   0   0     0   0   0  
   0   0   0    82  66  43    80  65  44    76  63  44    74  63  45    74  63  45    76  63  46    77  64  47    81  65  49    83  66  50    85  65  48    85  64  47    85  62  44    84  61  45    77  58  43    76  57  43    73  55  41    71  55  42    67  53  42    64  51  42    58  48  39    55  45  36    52  43  36    51  42  35    50  41  34    49  40  33    48  39  32    48  39  30    49  39  30    49  39  30    50  37  29    49  36  30    49  36  28    49  36  30    49  36  28    50  37  31    51  38  30    51  38  32    52  39  31    52  39  33    53  40  32    53  40  34    53  40  32    54  41  35    54  41  33    55  40  33    55  40  33    57  40  32     0   0   0     0   0   0  
   0   0   0    82  66  43    80  65  44    77  65  43    75  64  44    75  64  45    76  64  46    79  65  48    83  67  50    87  68  53    90  69  51    90  66  50    89  62  45    87  61  44    81  60  42    77  59  42    76  58  42    75  57  42    71  56  43    67  53  42    60  50  40    56  46  37    53  44  37    52  43  36    51  42  36    51  41  35    50  40  34    50  40  34    51  40  34    51  40  34    50  37  32    50  37  32    50  37  31    49  36  31    49  36  31    50  37  31    50  37  32    51  38  32    50  37  32    50  37  32    52  38  33    53  39  34    54  40  35    55  41  36    55  42  36    57  42  37    57  40  33    55  39  30    53  38  30     0   0   0  
   0   0   0    82  66  42    80  65  43    76  64  42    74  63  43    74  63  43    75  64  44    77  64  45    82  67  48    86  67  50    90  67  49    92  66  49    92  64  45    89  63  44    83  62  42    80  62  41    78  61  42    76  59  42    72  58  44    68  54  42    61  51  40    58  48  39    54  45  38    53  44  38    52  43  38    52  43  38    52  41  37    53  42  39    53  42  38    53  42  39    52  38  35    52  38  36    51  37  34    50  36  34    50  36  33    50  36  34    50  36  33    51  37  35    49  35  32    50  36  34    51  37  34    52  38  36    53  39  36    54  40  38    54  40  37    56  41  37    56  39  32    55  38  30    51  36  29    48  36  29  
  83  66  40    80  64  39    77  62  40    74  62  40    71  61  41    71  61  41    72  61  41    74  61  42    77  62  43    81  62  45    86  63  45    90  63  46    92  63  45    91  64  45    85  65  42    81  63  40    77  61  39    75  57  38    70  56  40    66  52  40    60  50  37    57  47  38    52  43  36    51  42  37    51  42  37    51  41  38    51  40  38    51  40  39    54  41  39    54  41  40    53  39  37    52  38  38    51  37  35    50  37  36    50  36  34    50  36  35    50  36  34    51  37  37    49  35  33    49  35  35    50  36  34    51  37  37    52  38  36    52  38  38    53  39  37    54  39  36    57  40  33    55  38  30    50  35  28    46  35  29  
  83  66  40    80  64  39    77  63  37    73  61  39    70  59  37    69  58  38    71  60  40    71  58  39    73  58  39    76  57  40    82  59  41    88  61  44    92  63  45    94  65  47    86  66  41    81  63  39    76  60  35    72  55  35    66  53  36    64  50  37    57  47  35    55  45  36    50  41  34    50  41  36    49  39  37    49  39  37    50  38  38    50  38  38    52  38  38    53  39  39    53  39  39    52  38  38    52  38  38    51  37  37    50  36  36    50  36  36    50  36  36    51  37  37    50  36  36    50  36  36    51  37  37    51  37  37    52  38  38    52  38  38    53  39  39    54  38  38    59  42  35    56  39  31    51  36  29    46  35  29  
