P3
50 71
255
  69  69  67    48  48  46    41  41  41     0   0   0     0   0   0     0   0   0     0   0   0     0   0   0     0   0   0     0   0   0     0   0   0     0   0   0     0   0   0     0   0   0     0   0   0     0   0   0     0   0   0     0   0   0     0   0   0     0   0   0     0   0   0     0   0   0     0   0   0     0   0   0     0   0   0     0   0   0     0   0   0     0   0   0     0   0   0     0   0   0     0   0   0     0   0   0     0   0   0     0   0   0     0   0   0     0   0   0     0   0   0     0   0   0     0   0   0     0   0   0     0   0   0     0   0   0     0   0   0     0   0   0     0   0   0     0   0   0     0   0   0   125 117  78   147 139 102   160 154 121  
  69  67  68    41  41  41    32  32  34    36  36  38     0   0   0     0   0   0     0   0   0     0   0   0     0   0   0     0   0   0     0   0   0     0   0   0     0   0   0     0   0   0     0   0   0     0   0   0     0   0   0     0   0   0     0   0   0     0   0   0     0   0   0     0   0   0     0   0   0     0   0   0     0   0   0     0   0   0     0   0   0     0   0   0     0   0   0     0   0   0     0   0   0     0   0   0     0   0   0     0   0   0     0   0   0     0   0   0     0   0   0     0   0   0     0   0   0     0   0   0     0   0   0     0   0   0     0   0   0     0   0   0     0   0   0     0   0   0     0   0   0   120 112  75   146 138 101   174 169 138  
  79  76  76    54  53  52    37  36  37    29  29  30    35  35  36    40  41  42     0   0   0     0   0   0     0   0   0     0   0   0     0   0   0     0   0   0     0   0   0     0   0   0     0   0   0     0   0   0     0   0   0     0   0   0     0   0   0     0   0   0     0   0   0     0   0   0     0   0   0     0   0   0     0   0   0     0   0   0     0   0   0     0   0   0     0   0   0     0   0   0     0   0   0     0   0   0     0   0   0     0   0   0     0   0   0     0   0   0     0   0   0     0   0   0     0   0   0     0   0   0     0   0   0     0   0   0     0   0   0     0   0   0     0   0   0     0   0   0   118 112  78   116 108  72   155 148 113   179 174 144  
   0   0   0    73  72  68    50  49  48    20  20  19    33  33  31    37  37  35    31  33  29     0   0   0     0   0   0     0   0   0     0   0   0     0   0   0     0   0   0     0   0   0     0   0   0     0   0   0     0   0   0     0   0   0     0   0   0     0   0   0     0   0   0     0   0   0     0   0   0     0   0   0     0   0   0     0   0   0     0   0   0     0   0   0     0   0   0     0   0   0     0   0   0     0   0   0     0   0   0     0   0   0     0   0   0     0   0   0     0   0   0     0   0   0     0   0   0     0   0   0     0   0   0     0   0   0     0   0   0     0   0   0     0   0   0    90  84  59    88  82  49   116 108  72   166 160 126   178 174 145  
   0   0   0    90  87  82    65  64  60    48  47  43    20  21  16    23  24  18    56  59  52    78  81  73     0   0   0     0   0   0     0   0   0     0   0   0     0   0   0     0   0   0     0   0   0     0   0   0     0   0   0     0   0   0     0   0   0     0   0   0     0   0   0     0   0   0     0   0   0     0   0   0     0   0   0     0   0   0     0   0   0     0   0   0     0   0   0     0   0   0     0   0   0     0   0   0     0   0   0     0   0   0     0   0   0     0   0   0     0   0   0     0   0   0     0   0   0     0   0   0     0   0   0     0   0   0     0   0   0    56  56  47    92  89  72    87  81  57    76  70  38   110 104  70   151 146 114   179 175 148  
   0   0   0     0   0   0    80  78  75    70  69  65    31  32  26    35  37  31    54  57  50    66  69  59    81  87  75     0   0   0     0   0   0     0   0   0     0   0   0     0   0   0     0   0   0     0   0   0     0   0   0     0   0   0     0   0   0     0   0   0     0   0   0     0   0   0     0   0   0     0   0   0     0   0   0     0   0   0     0   0   0     0   0   0     0   0   0     0   0   0     0   0   0     0   0   0     0   0   0     0   0   0     0   0   0     0   0   0     0   0   0     0   0   0     0   0   0     0   0   0     0   0   0     0   0   0    37  37  34    53  50  43   107 104  89   105  99  77   109 102  73   150 144 112   166 161 131   195 193 168  
   0   0   0     0   0   0     0   0   0    49  48  47    41  42  38    62  62  58    58  61  54    68  71  63    88  93  83    80  81  74     0   0   0     0   0   0     0   0   0     0   0   0     0   0   0     0   0   0     0   0   0     0   0   0     0   0   0     0   0   0     0   0   0     0   0   0     0   0   0     0   0   0     0   0   0     0   0   0     0   0   0     0   0   0     0   0   0     0   0   0     0   0   0     0   0   0     0   0   0     0   0   0     0   0   0     0   0   0     0   0   0     0   0   0     0   0   0     0   0   0     0   0   0    91  91  89    73  72  68    85  82  75   115 109  95   117 111  89   128 121  93   157 150 121   173 167 139   192 190 168  
   0   0   0     0   0   0     0   0   0    80  77  82    76  75  78    73  74  74    81  83  80    79  84  79    71  76  69   104 104 100    98  86  90    93  79  82     0   0   0     0   0   0     0   0   0     0   0   0     0   0   0     0   0   0     0   0   0     0   0   0     0   0   0     0   0   0     0   0   0     0   0   0     0   0   0     0   0   0     0   0   0     0   0   0     0   0   0     0   0   0     0   0   0     0   0   0     0   0   0     0   0   0     0   0   0     0   0   0     0   0   0     0   0   0     0   0   0     0   0   0   104 106 103   101 101  99   108 107 103   118 114 108   118 112  98   128 122 100   138 131 104   146 140 111   173 168 142   195 193 172  
   0   0   0     0   0   0     0   0   0     0   0   0   100  99 106   102 103 108   113 115 117    77  81  81    86  90  88   194 192 192   206 192 198    46  27  31    23   8   6     0   0   0     0   0   0     0   0   0     0   0   0     0   0   0     0   0   0     0   0   0     0   0   0     0   0   0     0   0   0     0   0   0     0   0   0     0   0   0     0   0   0     0   0   0     0   0   0     0   0   0     0   0   0     0   0   0     0   0   0     0   0   0     0   0   0     0   0   0     0   0   0     0   0   0     0   0   0   102 104  99   101 103 100   101 101  99   113 112 108   111 106 100   112 106  92   132 126 104   154 147 121   156 151 122   172 168 141   205 203 183  
   0   0   0     0   0   0     0   0   0     0   0   0    74  68  78   153 150 158   168 167 173    85  86  90    89  91  92   178 176 177   152 140 144    60  43  45    58  45  39    68  60  48     0   0   0     0   0   0     0   0   0     0   0   0     0   0   0     0   0   0     0   0   0     0   0   0     0   0   0     0   0   0     0   0   0     0   0   0     0   0   0     0   0   0     0   0   0     0   0   0     0   0   0     0   0   0     0   0   0     0   0   0     0   0   0     0   0   0     0   0   0   106 109  98   109 112 103   104 107 101   105 107 103   112 113 108   125 122 118   123 119 110   156 150 136   164 158 138   168 162 136   159 155 128   157 155 130   221 220 200  
   0   0   0     0   0   0     0   0   0     0   0   0     0   0   0   122 112 123   128 120 128   114 109 115   149 147 152   154 152 153    70  67  63    62  58  51    65  63  53    63  62  49    47  48  30     0   0   0     0   0   0     0   0   0     0   0   0     0   0   0     0   0   0     0   0   0     0   0   0     0   0   0     0   0   0     0   0   0     0   0   0     0   0   0     0   0   0     0   0   0     0   0   0     0   0   0     0   0   0     0   0   0     0   0   0     0   0   0    78  85  67    94 101  85   108 114 102   119 125 115   125 131 124   129 132 126   127 122 116   131 122 113   150 144 130   156 151 132   160 158 135   159 157 132   167 168 144   221 223 202  
   0   0   0     0   0   0     0   0   0     0   0   0     0   0   0     0   0   0    88  78  87    98  91  97   127 123 127   110 109 109    61  62  56    52  54  43    56  58  47    57  59  45    45  48  31    42  45  24     0   0   0     0   0   0     0   0   0     0   0   0     0   0   0     0   0   0     0   0   0     0   0   0     0   0   0     0   0   0     0   0   0     0   0   0     0   0   0     0   0   0     0   0   0     0   0   0     0   0   0     0   0   0     0   0   0    72  77  54    73  80  60    72  80  64    86  92  77   109 115 105   121 128 120   123 126 119   127 120 113   128 120 110   129 122 108   159 156 136   174 172 150   156 156 133   183 185 163   236 238 217  
   0   0   0     0   0   0     0   0   0     0   0   0     0   0   0     0   0   0    78  70  75    72  67  69    73  71  70    56  55  52    54  55  49    49  50  41    52  54  43    55  57  43    48  51  34    43  46  25     0   0   0     0   0   0     0   0   0     0   0   0     0   0   0     0   0   0     0   0   0     0   0   0     0   0   0     0   0   0     0   0   0     0   0   0     0   0   0     0   0   0     0   0   0     0   0   0     0   0   0     0   0   0    63  69  43    72  77  54    71  79  58    67  74  58    79  85  71   104 110 100   117 124 116   117 120 113   126 119 111   131 123 112   131 124 108   172 170 149   189 187 164   162 162 138   186 188 166   232 233 214  
   0   0   0     0   0   0     0   0   0     0   0   0     0   0   0     0   0   0     0   0   0    57  55  53    60  59  55    50  51  45    54  55  49    59  60  52    60  62  51    57  59  45    51  53  38    46  49  29    44  49  26     0   0   0     0   0   0     0   0   0     0   0   0     0   0   0     0   0   0     0   0   0     0   0   0     0   0   0     0   0   0     0   0   0     0   0   0     0   0   0     0   0   0     0   0   0     0   0   0    56  62  31    57  63  37    61  66  43    63  69  49    67  72  57    77  83  70    95 101  91   106 111 104   111 113 106   120 113 104   120 113 100   127 121 103   141 139 118   158 156 133   159 159 135   182 184 162   238 239 221  
   0   0   0     0   0   0     0   0   0     0   0   0     0   0   0     0   0   0     0   0   0    72  73  65    68  69  61    70  71  63    63  64  58    82  83  75    80  81  73    62  64  50    51  53  39    47  50  31    42  47  24    43  49  23     0   0   0     0   0   0     0   0   0     0   0   0     0   0   0     0   0   0     0   0   0     0   0   0     0   0   0     0   0   0     0   0   0     0   0   0     0   0   0     0   0   0    53  60  29    54  61  30    58  64  38    54  59  36    55  60  40    62  66  51    72  78  64    86  93  83    99 104  97   112 113 107   110 104  94   113 105  92   128 121 103   119 117  94   136 134 109   164 164 139   183 185 163   240 241 223  
   0   0   0     0   0   0     0   0   0     0   0   0     0   0   0     0   0   0   113 114 106    99 102  91    81  85  71    86  89  77    67  67  59    98  99  92    95  96  88    62  64  51    48  50  36    48  51  32    43  48  26    43  49  23    44  50  22     0   0   0     0   0   0     0   0   0     0   0   0     0   0   0     0   0   0     0   0   0     0   0   0     0   0   0     0   0   0     0   0   0     0   0   0    53  60  26    54  61  30    54  61  30    57  63  37    60  65  42    59  64  44    61  65  50    72  76  62    91  94  85   105 108 101   110 110 102   115 108  96   118 111  95   108 101  82   100  98  75   120 118  93   149 149 125   189 191 169   239 240 222  
   0   0   0     0   0   0     0   0   0     0   0   0     0   0   0     0   0   0    71  74  65    84  88  74    76  80  66    63  67  53    59  60  52    94  95  89    89  90  82    58  60  48    45  47  34    48  51  32    49  54  32    43  49  23    45  51  22    45  51  21     0   0   0     0   0   0     0   0   0     0   0   0     0   0   0     0   0   0     0   0   0     0   0   0     0   0   0     0   0   0    50  57  23    52  59  25    53  60  29    54  61  30    54  60  34    61  66  43    63  68  48    62  66  51    71  76  61    87  90  81    92  95  88    88  88  80    93  87  73   111 104  86   112 106  83   129 127 101   149 148 122   163 163 138   203 206 183   234 235 217  
   0   0   0     0   0   0     0   0   0     0   0   0     0   0   0     0   0   0    35  38  29    65  69  56    74  78  64    65  68  56    55  56  48    59  60  54    44  45  37    47  49  38    47  49  36    41  44  27    51  56  34    44  49  25    46  52  25    46  52  23    43  52  21     0   0   0     0   0   0     0   0   0     0   0   0     0   0   0     0   0   0     0   0   0     0   0   0    45  53  16    46  53  19    48  55  21    52  59  28    54  61  30    61  67  41    61  66  43    62  67  47    66  70  55    69  73  59    66  69  60    58  59  53    53  53  45    66  60  45    83  76  56   117 111  86   139 138 110   147 146 118   168 168 142   209 211 189   242 243 226  
   0   0   0     0   0   0     0   0   0     0   0   0     0   0   0     0   0   0    30  33  25    55  58  49    75  77  67    81  83  74    71  72  65    40  41  35    19  20  12    46  48  37    60  62  49    44  47  30    45  50  29    49  54  31    43  49  23    43  49  21    41  50  19     0   0   0     0   0   0     0   0   0     0   0   0     0   0   0     0   0   0     0   0   0    41  51  13    39  49  12    41  48  14    44  51  17    49  56  25    52  60  28    55  61  35    57  62  39    61  65  46    62  65  51    62  64  51    57  59  51    53  54  48    52  52  42    79  72  55    87  81  58   115 110  84   142 141 112   156 155 126   177 177 150   217 219 197   250 251 235  
   0   0   0     0   0   0     0   0   0     0   0   0     0   0   0    67  72  66    41  43  38    32  34  29    42  43  36    58  59  53    79  79  74    66  67  61    51  52  46    52  54  42    56  58  45    53  56  39    48  53  33    41  46  23    40  46  20    41  47  19    39  48  17    39  48  17     0   0   0     0   0   0     0   0   0     0   0   0     0   0   0    41  51  14    40  50  13    39  49  12    41  48  14    43  50  16    47  54  23    50  57  26    48  53  28    52  57  34    58  61  42    58  60  46    57  59  46    58  59  51    62  63  57    68  66  56    98  92  73    85  80  54    94  89  60   119 117  87   145 144 114   178 178 150   220 222 200   250 251 235  
   0   0   0     0   0   0     0   0   0     0   0   0     0   0   0    75  77  75    46  46  44    23  23  21    20  19  18    35  34  32    60  61  56    86  87  81    91  92  86    57  59  48    36  38  25    44  47  30    45  50  30    39  44  21    40  46  20    40  46  18    38  47  16    39  48  17    39  48  17     0   0   0     0   0   0     0   0   0    38  50  14    40  52  14    42  52  15    43  53  16    43  53  18    43  53  18    46  53  22    48  55  24    51  57  31    55  60  37    58  61  42    55  57  43    51  51  39    53  53  45    61  60  55    71  68  59    99  92  72    89  84  55    95  90  61   109 108  77   129 128  98   167 167 139   218 220 198   253 254 238  
   0   0   0     0   0   0     0   0   0     0   0   0     0   0   0    50  52  51    37  37  38    27  27  30    24  21  25    31  29  30    30  30  28    68  69  64   105 106 100    89  91  81    62  64  51    54  57  40    42  47  27    43  48  25    41  46  22    41  46  21    39  48  19    39  48  17    39  48  17    39  48  17     0   0   0    39  49  15    37  49  13    39  51  13    43  53  15    44  54  17    45  55  20    45  55  20    47  54  23    48  56  25    55  60  34    58  63  40    60  63  44    58  60  46    54  54  42    56  56  48    64  63  58    74  71  62   101  95  73   116 111  81   138 133 103   140 139 108   141 140 110   170 170 142   222 224 202   254 254 239  
   0   0   0     0   0   0     0   0   0     0   0   0     0   0   0    42  44  43    29  29  31    24  22  27    21  18  24    25  24  28    23  23  22    49  50  45    92  93  88    91  93  84    77  79  67    66  70  54    43  48  28    42  48  25    43  48  25    41  49  22    40  49  20    39  49  19    39  48  17    39  49  17    39  48  17    38  49  15    38  50  14    39  51  13    41  51  14    42  52  15    43  53  18    44  54  19    49  56  24    51  58  27    53  58  32    58  62  38    61  64  44    60  62  47    57  58  45    56  57  48    61  60  55    68  65  55    82  76  53   109 103  74   139 134 103   144 142 110   147 146 116   181 181 153   227 229 207   251 252 236  
   0   0   0     0   0   0     0   0   0     0   0   0    46  49  48    33  36  35    26  29  30    26  29  31    30  33  37    30  33  36    17  20  21    31  34  32    67  68  65    72  77  69    82  84  75    79  84  70    44  50  32    36  45  21    39  46  22    38  48  21    40  51  21    39  52  19    39  49  18    36  50  16    39  49  16    40  51  16    36  47  12    36  48  12    38  50  14    39  50  14    40  52  15    43  54  17    47  57  22    51  60  26    52  61  28    56  62  35    58  62  40    57  62  43    56  60  45    56  60  47    59  60  53    62  62  49    67  61  37    83  76  47   121 115  83   148 144 112   157 156 123   186 186 156   228 230 206   251 252 235  
   0   0   0     0   0   0     0   0   0     0   0   0    48  50  49    34  38  37    30  34  35    29  34  35    30  35  38    28  33  36    25  29  30    31  35  34    51  55  53    94  99  93   127 133 123   108 114 100    62  71  52    31  41  17    37  47  22    39  50  20    39  52  22    39  53  20    37  51  16    36  50  15    37  51  15    38  52  16    37  48  14    38  49  14    39  51  15    39  51  15    40  52  14    42  54  16    46  56  19    48  58  21    54  64  30    56  64  34    59  64  39    58  63  41    56  60  43    56  60  46    60  63  52    65  66  52    66  60  36    79  70  41   113 107  75   144 140 105   157 155 121   187 188 157   232 232 208   253 254 237  
   0   0   0     0   0   0     0   0   0     0   0   0     0   0   0    51  53  52    46  48  47    42  45  44    36  40  41    32  36  37    52  56  57    42  46  45    29  33  32    81  86  80   116 122 112    89  95  81    65  74  55    39  49  25    40  50  25    41  52  22    41  52  22    40  51  19    37  51  16    36  50  15    36  50  14    37  51  15    39  50  16    39  50  16    40  52  16    40  52  16    39  51  13    41  53  15    44  54  17    46  56  19    48  58  24    52  62  30    57  63  37    55  60  38    52  56  39    53  57  43    59  62  51    68  69  55    79  73  49    92  83  54   118 112  80   138 133 101   153 150 119   191 192 161   238 238 214   252 254 236  
   0   0   0     0   0   0     0   0   0     0   0   0     0   0   0    69  68  68    64  64  63    71  72  71    62  64  63    52  55  56    70  73  74    55  59  58    39  42  41    49  53  47    57  63  53    44  50  36    43  51  33    54  63  40    42  52  27    42  53  23    41  52  22    40  51  19    37  50  16    37  50  15    36  50  14    36  50  14    38  49  15    39  50  15    40  52  15    39  51  15    40  51  13    41  53  15    45  55  17    47  57  20    45  54  20    50  59  27    56  62  35    55  60  37    51  56  38    53  57  42    62  65  54    73  73  59    88  82  58   101  92  63   124 118  86   140 135 103   155 152 121   197 198 167   241 241 216   247 250 231  
   0   0   0     0   0   0     0   0   0     0   0   0     0   0   0     0   0   0    66  64  62    84  84  82    77  77  75    67  68  66    70  71  72    60  62  61    59  61  60    39  41  36    34  40  30    39  45  31    35  42  24    59  67  44    45  55  30    43  54  24    41  52  22    40  51  19    39  50  16    40  51  17    37  51  15    36  50  14    37  48  14    38  49  15    39  51  15    39  51  15    41  51  14    43  53  16    46  57  17    48  59  20    49  56  22    54  61  28    58  64  36    56  61  38    51  56  36    51  55  39    56  58  46    65  63  48    71  65  41    89  80  51   118 112  80   139 134 102   158 155 124   201 202 171   243 243 220   248 251 233  
   0   0   0     0   0   0     0   0   0     0   0   0     0   0   0     0   0   0     0   0   0    76  73  70    65  64  60    61  61  59    66  68  67    58  60  59    46  49  48    26  28  23    27  31  21    38  42  28    39  46  28    56  64  41    46  55  30    44  53  24    39  50  20    38  49  17    39  50  16    40  52  18    39  52  15    38  50  15    38  49  15    39  50  15    40  51  15    40  50  15    40  50  13    42  52  15    46  55  16    49  57  18    49  56  22    52  60  26    56  61  32    54  58  34    49  52  32    45  48  31    43  46  33    47  45  30    52  46  22    73  63  35   109 103  71   140 135 103   162 159 128   201 202 171   243 242 221   252 254 238  
   0   0   0     0   0   0     0   0   0     0   0   0     0   0   0     0   0   0     0   0   0     0   0   0    52  51  47    57  57  55    66  66  66    64  66  65    35  37  35    29  31  26    31  34  25    27  31  17    44  51  33    50  58  35    47  55  31    44  53  24    39  50  20    38  49  17    40  51  17    41  52  18    41  53  17    40  52  16    41  51  17    42  52  18    42  52  17    41  51  16    40  50  13    41  51  14    45  53  14    47  55  16    52  59  23    54  62  28    59  64  34    58  62  37    54  57  36    48  51  33    43  45  31    43  42  24    54  48  24    74  64  36   113 106  77   147 142 110   167 164 132   200 200 172   241 240 219   252 255 238  
   0   0   0     0   0   0     0   0   0     0   0   0     0   0   0     0   0   0     0   0   0     0   0   0    72  72  67    58  58  56    65  65  65    40  40  40    33  33  33    31  32  27    29  32  23    29  34  19    33  37  20    55  60  38    48  56  32    40  49  20    36  45  16    40  49  18    45  56  22    45  56  22    43  55  19    42  54  18    43  53  19    42  52  18    41  51  16    40  50  15    43  51  14    45  53  16    47  55  16    49  57  18    49  55  19    60  66  32    60  65  34    55  59  32    59  64  41    59  62  42    52  53  37    50  49  31    67  60  37    96  86  59   121 114  85   151 146 116   173 169 140   203 203 175   244 243 222   248 251 234  
   0   0   0     0   0   0     0   0   0     0   0   0     0   0   0     0   0   0     0   0   0     0   0   0     0   0   0    66  68  65    59  59  59    34  34  34    28  28  28    24  25  20    23  26  17    27  30  17    33  37  20    56  61  39    49  56  32    43  51  22    39  48  19    41  51  20    44  54  20    43  53  19    42  53  18    42  54  18    41  49  18    40  49  15    39  48  15    39  48  14    42  50  13    44  52  15    47  54  15    48  55  17    50  56  20    58  64  30    57  62  30    55  59  31    57  60  37    53  56  35    49  50  32    53  52  32    76  68  45   101  91  65   123 116  87   150 145 115   171 167 138   201 201 173   242 241 221   247 250 234  
   0   0   0     0   0   0     0   0   0     0   0   0     0   0   0     0   0   0     0   0   0     0   0   0     0   0   0     0   0   0    50  52  51    29  29  29    25  25  25    21  22  17    23  24  16    28  30  17    34  38  21    57  62  40    52  57  34    48  54  26    43  52  23    44  53  22    43  53  19    41  51  17    41  51  16    44  54  19    41  48  17    40  47  15    40  47  14    40  47  13    41  49  12    44  52  14    47  53  15    49  55  17    50  56  20    55  61  26    55  59  27    57  60  31    57  59  35    48  50  29    44  46  26    55  54  33    74  66  43   100  90  63   121 114  86   150 145 115   173 169 140   204 204 177   246 245 225   251 253 239  
   0   0   0     0   0   0     0   0   0     0   0   0     0   0   0     0   0   0     0   0   0     0   0   0     0   0   0     0   0   0     0   0   0    23  23  23    24  24  24    22  23  18    24  25  17    30  32  19    34  37  20    54  58  36    55  60  37    50  56  28    46  53  25    45  53  22    41  51  17    39  49  15    40  50  15    43  53  18    42  49  18    41  48  17    40  48  15    40  48  14    42  50  13    44  52  13    48  54  15    49  55  16    47  53  15    51  57  21    53  57  24    58  60  32    58  61  35    47  49  27    40  42  21    50  49  28    62  54  31    90  80  53   115 108  80   149 144 115   176 172 144   208 208 182   249 248 228   251 253 240  
   0   0   0     0   0   0     0   0   0     0   0   0     0   0   0     0   0   0     0   0   0     0   0   0     0   0   0     0   0   0     0   0   0    17  17  17    24  24  24    25  26  21    26  27  19    29  31  18    31  34  17    48  50  30    58  63  40    52  58  30    46  52  24    45  52  21    42  52  18    40  50  16    40  50  15    42  52  17    44  51  20    43  50  19    42  49  16    41  48  14    42  50  13    44  52  13    47  54  13    48  55  14    45  51  13    50  56  20    53  57  24    56  59  30    59  62  35    49  52  28    39  41  20    43  41  20    53  45  23    83  73  48   112 105  77   150 145 116   179 175 148   210 210 184   247 246 226   247 249 235  
   0   0   0     0   0   0     0   0   0     0   0   0     0   0   0     0   0   0     0   0   0     0   0   0     0   0   0     0   0   0     0   0   0     0   0   0    26  26  26    26  27  22    26  27  19    30  32  19    31  34  17    46  49  28    60  65  42    52  58  30    44  50  22    44  51  20    43  53  19    42  52  18    41  51  16    41  51  16    44  51  19    43  50  19    41  48  15    40  47  13    42  48  12    43  49  11    45  52  11    46  53  12    47  51  14    54  58  23    52  56  23    50  54  22    57  60  33    53  55  31    44  43  23    40  38  17    51  42  19    80  69  45   110 103  75   149 144 114   179 175 148   211 211 185   248 247 227   247 249 235  
   0   0   0     0   0   0     0   0   0     0   0   0     0   0   0     0   0   0     0   0   0     0   0   0     0   0   0     0   0   0     0   0   0    20  21  20    27  28  28    27  30  26    28  30  24    30  34  24    34  36  23    47  52  34    59  65  45    50  56  34    44  50  25    43  50  22    42  51  20    40  50  17    39  49  16    40  50  16    44  51  17    43  50  16    42  48  15    40  46  12    40  47  10    41  48  10    43  50   9    44  51  10    47  54  15    54  59  24    52  56  23    48  51  20    54  57  30    56  58  34    48  46  27    43  37  17    54  41  20    78  64  41   107  96  68   144 139 109   176 175 146   214 215 192   250 251 236   250 252 244  
   0   0   0     0   0   0     0   0   0     0   0   0     0   0   0     0   0   0     0   0   0     0   0   0     0   0   0     0   0   0    22  24  23    21  24  23    26  29  28    31  36  32    31  35  30    28  33  27    38  42  33    51  57  44    55  61  46    49  57  37    46  54  32    44  52  27    41  50  22    36  45  15    37  46  15    41  51  17    46  53  19    46  52  17    44  50  15    43  49  13    42  50  11    42  50  11    42  52  10    43  53  12    44  52  14    50  57  21    53  58  25    51  55  25    55  56  30    58  58  34    54  51  31    47  40  21    64  46  28    76  57  35    98  86  56   140 136 102   177 176 146   216 219 197   252 254 246   247 250 249  
   0   0   0     0   0   0     0   0   0     0   0   0     0   0   0     0   0   0     0   0   0     0   0   0     0   0   0     0   0   0    23  25  24    24  28  27    30  35  32    33  38  34    27  32  28    24  29  23    38  43  36    57  63  52    56  62  50    50  57  40    43  51  31    41  50  26    41  50  23    39  48  19    39  48  17    41  51  17    44  50  16    43  50  13    43  49  13    44  50  14    43  50  12    43  50  12    41  52  11    41  52  12    41  50  12    48  56  19    53  58  26    52  57  27    58  58  32    60  60  36    55  53  32    48  40  21    61  42  25    73  52  31    96  82  53   144 140 105   184 183 153   215 219 196   248 251 244   247 251 252  
   0   0   0     0   0   0     0   0   0     0   0   0     0   0   0     0   0   0     0   0   0     0   0   0     0   0   0    40  43  38    23  25  22    27  31  30    34  39  36    35  40  36    23  28  24    18  23  16    32  37  30    53  58  48    57  63  51    50  57  41    42  50  29    40  48  24    41  50  23    43  52  21    42  51  20    41  51  16    42  48  14    42  48  12    43  49  13    44  50  14    43  51  12    43  51  12    41  52  12    41  52  12    41  49  12    48  56  19    52  57  25    52  57  25    59  59  33    62  62  36    58  56  33    52  44  23    51  32  15    74  54  33    99  85  57   140 136 101   181 180 150   214 218 195   248 251 242   251 254 255  
   0   0   0     0   0   0     0   0   0     0   0   0     0   0   0     0   0   0     0   0   0     0   0   0    53  55  50    40  42  37    29  31  28    30  35  31    37  42  38    37  42  38    28  33  28    22  27  21    32  37  31    49  55  45    54  60  48    49  56  40    42  49  31    39  47  24    41  50  23    44  53  22    43  52  21    40  50  15    41  47  13    42  48  12    43  49  13    43  49  13    43  51  12    43  51  12    41  51  14    41  51  14    43  51  14    48  56  19    50  55  23    49  54  22    56  56  29    62  62  36    60  58  35    56  48  27    54  35  17    94  74  50   113 100  68   134 130  93   169 168 137   209 213 189   245 248 239   246 250 250  
   0   0   0     0   0   0     0   0   0     0   0   0     0   0   0     0   0   0     0   0   0    52  53  48    57  58  53    46  48  43    41  46  41    35  40  36    33  38  34    34  39  35    33  38  34    30  35  31    35  40  34    45  51  42    48  54  43    47  54  39    43  51  32    39  47  24    40  49  22    43  52  20    43  53  19    39  49  14    42  48  12    42  48  12    42  48  12    42  48  12    41  49  11    42  50  11    40  50  13    40  50  13    43  51  15    48  55  20    49  54  22    47  52  20    54  54  26    60  60  34    60  58  32    56  49  25    69  51  31   115  95  70   125 112  79   133 129  92   168 167 136   208 212 187   243 245 237   245 249 248  
   0   0   0     0   0   0     0   0   0     0   0   0     0   0   0     0   0   0    38  40  35    41  43  38    59  61  56    59  61  56    56  61  55    39  44  38    25  30  26    25  30  26    29  34  30    28  33  29    29  34  29    31  36  29    43  49  39    46  52  38    46  53  35    41  49  26    39  48  21    42  51  20    42  52  18    39  49  14    45  51  15    44  50  14    42  48  12    41  47  11    40  48  11    41  49  12    40  50  13    40  50  14    41  48  14    47  54  20    49  54  22    49  54  22    55  55  27    60  60  32    58  57  29    54  47  21    67  49  27   105  85  60   111  98  64   127 123  85   171 171 137   209 213 187   241 244 234   248 252 251  
   0   0   0     0   0   0     0   0   0     0   0   0     0   0   0    46  48  43    49  51  46    47  49  44    60  62  57    70  72  67    64  69  62    34  39  33    23  28  24    19  24  20    28  33  31    21  26  22    26  31  27    21  26  20    27  32  24    38  45  32    45  51  33    42  50  27    42  51  23    40  50  17    38  48  13    41  51  14    43  49  13    42  48  12    42  48  12    42  48  12    42  50  15    42  49  14    40  50  14    38  48  14    40  48  14    44  51  17    47  52  21    50  55  23    55  56  26    58  58  28    58  57  28    60  52  25    60  42  19    81  61  34    97  84  49   131 128  87   170 170 135   203 207 180   241 244 233   250 254 251  
   0   0   0     0   0   0     0   0   0     0   0   0     0   0   0    54  56  51    46  48  43    42  44  39    48  50  45    58  60  55    69  74  67    43  48  41    32  37  31    27  32  28    28  32  31    24  28  26    28  33  29    22  27  21    26  31  24    40  46  34    42  49  33    37  45  22    41  50  21    44  54  19    39  49  14    39  49  12    42  48  12    42  48  12    42  48  12    43  49  13    43  50  16    43  50  16    40  50  16    38  48  14    41  48  15    43  50  17    47  52  20    50  55  23    55  56  25    57  58  27    59  58  28    63  56  28    57  39  15    74  54  27    95  82  47   132 129  88   167 167 131   202 206 179   244 248 234   250 255 251  
   0   0   0     0   0   0     0   0   0     0   0   0    37  42  36    36  41  35    33  38  32    33  38  31    38  43  37    45  50  44    66  71  64    60  65  58    52  57  51    48  53  49    32  35  34    35  39  38    36  40  39    36  41  37    27  32  26    45  51  39    49  56  40    42  50  27    42  51  23    42  52  19    39  49  12    36  47   7    43  49  13    42  48  12    42  48  14    43  49  15    43  50  17    43  50  17    39  49  15    38  48  14    42  49  18    43  50  19    47  52  20    50  55  23    55  56  24    58  59  27    60  59  28    64  57  28    58  41  15    78  59  29    97  85  47   129 126  83   163 163 124   202 207 177   245 249 235   249 254 250  
   0   0   0     0   0   0     0   0   0    28  33  29    29  34  28    28  33  27    31  36  30    38  43  37    40  45  39    36  41  35    59  64  57    70  75  68    68  73  67    61  66  61    26  30  29    30  34  33    37  41  41    48  53  50    40  45  40    48  54  44    48  55  39    46  54  31    46  55  28    39  49  15    36  46   8    42  53  13    44  50  14    43  49  13    42  48  14    42  48  14    42  49  16    42  49  16    39  49  16    38  48  15    42  49  18    43  50  19    47  52  20    49  54  22    55  56  24    58  59  25    61  61  27    66  60  28    63  46  19    82  63  32    98  86  47   126 123  80   159 159 121   200 205 175   244 248 233   247 252 248  
   0   0   0    29  34  30    31  36  32    33  38  34    27  32  26    23  28  22    34  39  33    48  53  47    44  49  43    29  34  28    58  63  56    72  78  69    77  82  76    67  72  66    29  33  32    33  37  36    54  58  59    78  82  81   102 107 103    80  86  76    52  58  43    42  50  27    47  56  28    42  52  18    39  50  10    48  59  18    46  52  16    44  50  14    42  48  14    42  48  14    42  49  16    42  49  16    39  48  17    38  47  16    43  50  19    44  51  20    46  51  19    49  55  22    55  56  24    59  60  26    63  63  28    68  62  28    63  46  18    77  58  26    91  79  39   122 119  75   156 156 117   195 200 170   242 246 231   250 254 249  
  40  45  41    33  38  34    34  39  35    38  43  39    33  38  32    29  34  28    47  52  46    72  77  71    72  77  71    53  58  52    52  57  50    62  68  58    79  84  78    74  79  73    52  56  55    46  50  49    72  76  77    93  97  96   126 131 127   104 110 100    67  73  59    44  52  29    45  53  25    46  56  21    42  53  13    43  54  12    46  52  16    44  50  14    42  48  14    41  47  13    41  48  15    41  48  16    39  48  18    38  47  17    43  50  19    44  51  20    46  51  19    49  55  21    55  56  24    59  60  26    63  63  27    69  63  27    68  50  21    75  55  24    86  74  34   121 118  73   155 155 115   188 193 162   236 240 225   252 255 250  
  18  23  19    20  25  21    36  41  37    43  48  44    36  41  35    26  31  25    43  45  40    69  71  66    71  73  68    53  55  50    38  43  37    44  49  42    73  78  72    73  78  74    62  67  65    36  40  39    47  51  50    53  57  56    57  62  56    76  82  72    71  78  62    47  55  32    39  48  18    45  55  20    46  57  17    43  54  12    46  54  17    43  50  16    42  48  14    40  47  14    40  47  14    41  48  17    39  48  17    38  47  16    43  50  17    44  51  18    46  52  18    49  55  21    53  57  24    59  60  26    63  65  28    69  65  29    79  64  33    79  62  29    88  78  39   125 122  81   157 157 119   185 188 157   231 235 218   253 255 249  
   0   0   0     0   0   0     0   0   0    36  41  37    32  34  31    21  23  20    46  46  44    65  65  62    43  42  40    43  43  41    39  41  40    29  33  32    40  44  43    60  64  63    56  60  61    34  38  37    30  34  33    47  52  48    65  70  63    76  82  68    79  87  66    60  69  42    41  51  17    48  58  21    56  67  25    47  58  16    49  59  24    40  50  16    36  43  10    37  47  13    40  50  16    37  47  12    39  46  12    42  50  13    44  52  15    45  53  16    47  53  17    50  56  20    53  59  25    57  61  28    59  63  28    64  64  30    78  72  38   100  92  59   109 103  67   124 123  85   151 151 117     0   0   0     0   0   0     0   0   0  
   0   0   0     0   0   0     0   0   0     0   0   0     0   0   0    34  36  33    35  35  33    46  46  44    46  43  41    55  54  52    38  39  41    23  27  28    24  28  29    41  45  46    48  52  53    39  43  42    36  40  39    42  47  41    52  58  48    59  66  50    77  86  65    73  83  56    46  56  22    40  51  12    50  61  19    47  58  16    49  59  24    43  53  19    40  50  16    42  52  17    42  52  17    41  51  13    41  48  10    42  50  11    44  52  13    44  52  13    47  53  15    49  55  19    52  58  24    55  60  27    57  63  30    60  64  30    84  79  47   106 102  67   116 112  77   130 130  96   152 151 120     0   0   0     0   0   0     0   0   0  
   0   0   0     0   0   0     0   0   0     0   0   0     0   0   0     0   0   0    54  55  52    68  68  66    60  59  57    40  40  38    31  32  33    25  29  30    25  29  30    29  33  34    30  34  35    31  35  34    37  41  40    47  52  46    41  47  37    35  41  26    62  70  49    79  88  61    54  63  31    40  50  13    51  62  20    52  63  21    52  62  26    50  60  25    47  57  22    45  55  19    43  53  17    42  53  14    43  51  12    43  51  12    43  51  12    43  51  12    46  52  16    48  54  19    51  57  23    54  59  26    56  61  29    58  62  30    82  77  45   107 102  67   119 115  80   134 132  98     0   0   0     0   0   0     0   0   0     0   0   0  
   0   0   0     0   0   0     0   0   0     0   0   0     0   0   0     0   0   0     0   0   0     0   0   0    74  75  72    39  41  38    23  26  26    29  33  33    32  36  37    25  28  30    16  20  21    20  24  23    37  41  40    53  58  52    54  60  50    30  36  22    45  54  33    71  80  53    58  67  36    44  54  18    47  58  18    47  58  16    54  64  27    55  65  29    52  62  26    44  55  16    40  51  11    41  52  11    45  53  12    44  52  11    43  50  12    43  51  12    45  51  15    47  53  19    49  55  22    52  57  27    54  59  29    56  59  28    75  70  38    99  93  58     0   0   0     0   0   0     0   0   0     0   0   0     0   0   0     0   0   0  
   0   0   0     0   0   0     0   0   0     0   0   0     0   0   0     0   0   0     0   0   0     0   0   0     0   0   0     0   0   0    32  36  35    34  37  37    32  36  37    27  32  32    26  30  31    33  37  38    47  51  50    59  64  57    65  71  61    40  46  32    37  45  26    57  65  41    62  72  42    52  62  27    47  58  18    47  58  17    55  66  26    61  72  33    58  69  29    46  57  15    39  50   8    42  53  11    46  54  13    44  52  11    43  51  12    44  52  13    46  52  18    47  53  19    50  55  24    52  57  27    54  58  31    58  58  30     0   0   0     0   0   0     0   0   0     0   0   0     0   0   0     0   0   0     0   0   0     0   0   0  
   0   0   0     0   0   0     0   0   0     0   0   0     0   0   0     0   0   0     0   0   0     0   0   0     0   0   0     0   0   0     0   0   0    36  38  37    34  35  37    34  35  37    35  36  38    41  41  43    48  51  49    56  58  55    60  63  56    55  59  45    45  49  32    53  58  35    69  75  47    62  69  36    49  57  20    55  63  24    54  65  24    66  77  35    66  77  35    52  63  20    42  53  10    45  56  13    47  56  13    42  50   9    44  52  13    45  53  14    46  52  18    48  54  20    50  55  25    52  57  27     0   0   0     0   0   0     0   0   0     0   0   0     0   0   0     0   0   0     0   0   0     0   0   0     0   0   0     0   0   0  
   0   0   0     0   0   0     0   0   0     0   0   0     0   0   0     0   0   0     0   0   0     0   0   0     0   0   0     0   0   0     0   0   0     0   0   0     0   0   0    32  33  35    28  29  31    25  26  28    35  37  36    44  46  43    53  56  50    58  61  50    51  55  40    54  59  37    70  76  50    61  68  36    45  53  17    50  58  20    52  63  21    67  78  36    72  83  40    60  71  29    49  60  17    48  59  16    47  56  13    40  49   6    45  53  12    45  53  14    47  53  17    48  54  20     0   0   0     0   0   0     0   0   0     0   0   0     0   0   0     0   0   0     0   0   0     0   0   0     0   0   0     0   0   0     0   0   0     0   0   0  
   0   0   0     0   0   0     0   0   0     0   0   0     0   0   0     0   0   0     0   0   0     0   0   0     0   0   0     0   0   0     0   0   0     0   0   0     0   0   0     0   0   0    30  31  33    20  21  23    28  30  29    29  31  28    33  35  30    34  37  27    33  37  22    46  51  30    66  72  47    67  74  43    53  60  27    46  54  17    49  60  18    63  74  31    73  84  41    70  81  38    59  70  27    51  62  19    48  57  14    44  53  10    48  56  15    47  55  16     0   0   0     0   0   0     0   0   0     0   0   0     0   0   0     0   0   0     0   0   0     0   0   0     0   0   0     0   0   0     0   0   0     0   0   0     0   0   0     0   0   0  
   0   0   0     0   0   0     0   0   0     0   0   0     0   0   0     0   0   0     0   0   0     0   0   0     0   0   0     0   0   0     0   0   0     0   0   0     0   0   0     0   0   0     0   0   0    26  26  28    20  21  20    15  16  13    25  26  21    38  40  31    37  40  26    37  41  21    57  61  38    72  77  49    61  67  36    45  52  17    44  55  15    53  63  21    64  75  33    70  82  39    67  78  35    58  69  26    53  62  19    51  60  17    50  58  17     0   0   0     0   0   0     0   0   0     0   0   0     0   0   0     0   0   0     0   0   0     0   0   0     0   0   0     0   0   0     0   0   0     0   0   0     0   0   0     0   0   0     0   0   0  
   0   0   0     0   0   0     0   0   0     0   0   0     0   0   0     0   0   0     0   0   0     0   0   0     0   0   0     0   0   0     0   0   0     0   0   0     0   0   0     0   0   0     0   0   0    26  26  28    14  14  14    10  10   8    32  33  28    51  52  44    52  54  41    43  46  29    55  59  36    68  71  45    59  64  34    43  50  16    43  51  12    44  55  13    55  66  24    69  80  38    72  84  41    64  74  32    59  67  24    57  66  23     0   0   0     0   0   0     0   0   0     0   0   0     0   0   0     0   0   0     0   0   0     0   0   0     0   0   0     0   0   0     0   0   0     0   0   0     0   0   0     0   0   0     0   0   0     0   0   0  
   0   0   0     0   0   0     0   0   0     0   0   0     0   0   0     0   0   0     0   0   0     0   0   0     0   0   0     0   0   0     0   0   0     0   0   0     0   0   0     0   0   0     0   0   0     0   0   0     6   6   6     9   9   7    16  17  12    33  34  28    40  42  29    41  44  27    50  53  32    56  60  35    53  57  30    51  58  25    44  52  15    41  52  12    49  59  20    63  74  32    69  80  38    64  74  33    60  69  26     0   0   0     0   0   0     0   0   0     0   0   0     0   0   0     0   0   0     0   0   0     0   0   0     0   0   0     0   0   0     0   0   0     0   0   0     0   0   0     0   0   0     0   0   0     0   0   0     0   0   0  
   0   0   0     0   0   0     0   0   0     0   0   0     0   0   0     0   0   0     0   0   0     0   0   0     0   0   0     0   0   0     0   0   0     0   0   0     0   0   0     0   0   0     0   0   0     0   0   0     0   0   0    11  11  11     7   7   5    17  18  12    22  24  12    30  33  17    44  47  26    50  54  29    49  53  25    52  59  26    45  52  18    42  52  16    45  55  18    52  63  23    58  69  27    60  71  29    61  71  27     0   0   0     0   0   0     0   0   0     0   0   0     0   0   0     0   0   0     0   0   0     0   0   0     0   0   0     0   0   0     0   0   0     0   0   0     0   0   0     0   0   0     0   0   0     0   0   0     0   0   0  
   0   0   0     0   0   0     0   0   0     0   0   0     0   0   0     0   0   0     0   0   0     0   0   0     0   0   0     0   0   0     0   0   0     0   0   0     0   0   0     0   0   0     0   0   0     0   0   0     0   0   0     0   0   0    11  11   9    14  15  10    11  12   3    16  18   5    38  42  22    52  56  32    49  54  27    46  53  20    43  51  17    45  55  19    44  54  18    42  53  14    48  59  18    57  68  26     0   0   0     0   0   0     0   0   0     0   0   0     0   0   0     0   0   0     0   0   0     0   0   0     0   0   0     0   0   0     0   0   0     0   0   0     0   0   0     0   0   0     0   0   0     0   0   0     0   0   0     0   0   0  
   0   0   0     0   0   0     0   0   0     0   0   0     0   0   0     0   0   0     0   0   0     0   0   0     0   0   0     0   0   0     0   0   0     0   0   0     0   0   0     0   0   0     0   0   0     0   0   0     0   0   0     0   0   0     8   6   6    13  13  10     7   8   2     9  12   1    32  38  20    45  52  28    43  52  23    46  55  22    44  54  20    43  53  19    42  53  19    42  53  17    43  55  16     0   0   0     0   0   0     0   0   0     0   0   0     0   0   0     0   0   0     0   0   0     0   0   0     0   0   0     0   0   0     0   0   0     0   0   0     0   0   0     0   0   0     0   0   0     0   0   0     0   0   0     0   0   0     0   0   0  
   0   0   0     0   0   0     0   0   0     0   0   0     0   0   0     0   0   0     0   0   0     0   0   0     0   0   0     0   0   0     0   0   0     0   0   0     0   0   0     0   0   0     0   0   0     0   0   0     0   0   0     0   0   0     0   0   0    13  13  11     7   7   5     4  10   1    28  35  19    43  53  28    41  54  24    43  57  22    41  50  19    40  49  18    38  49  15    40  52  16     0   0   0     0   0   0     0   0   0     0   0   0     0   0   0     0   0   0     0   0   0     0   0   0     0   0   0     0   0   0     0   0   0     0   0   0     0   0   0     0   0   0     0   0   0     0   0   0     0   0   0     0   0   0     0   0   0     0   0   0  
   0   0   0     0   0   0     0   0   0     0   0   0     0   0   0     0   0   0     0   0   0     0   0   0     0   0   0     0   0   0     0   0   0     0   0   0     0   0   0     0   0   0     0   0   0     0   0   0     0   0   0     0   0   0     0   0   0     0   0   0     8   8   6     2   8   1    24  30  14    45  55  30    46  59  29    41  55  20    39  48  17    38  47  16    38  48  14     0   0   0     0   0   0     0   0   0     0   0   0     0   0   0     0   0   0     0   0   0     0   0   0     0   0   0     0   0   0     0   0   0     0   0   0     0   0   0     0   0   0     0   0   0     0   0   0     0   0   0     0   0   0     0   0   0     0   0   0     0   0   0  
   0   0   0     0   0   0     0   0   0     0   0   0     0   0   0     0   0   0     0   0   0     0   0   0     0   0   0     0   0   0     0   0   0     0   0   0     0   0   0     0   0   0     0   0   0     0   0   0     0   0   0     0   0   0     0   0   0     0   0   0     0   0   0     1   7   1    19  25  10    46  56  32    51  65  35    43  54  21    41  50  20    40  48  17     0   0   0     0   0   0     0   0   0     0   0   0     0   0   0     0   0   0     0   0   0     0   0   0     0   0   0     0   0   0     0   0   0     0   0   0     0   0   0     0   0   0     0   0   0     0   0   0     0   0   0     0   0   0     0   0   0     0   0   0     0   0   0     0   0   0  
   0   0   0     0   0   0     0   0   0     0   0   0     0   0   0     0   0   0     0   0   0     0   0   0     0   0   0     0   0   0     0   0   0     0   0   0     0   0   0     0   0   0     0   0   0     0   0   0     0   0   0     0   0   0     0   0   0     0   0   0     0   0   0     0   0   0    14  20   6    40  50  27    52  65  36    45  56  24    42  51  22    40  47  17     0   0   0     0   0   0     0   0   0     0   0   0     0   0   0     0   0   0     0   0   0     0   0   0     0   0   0     0   0   0     0   0   0     0   0   0     0   0   0     0   0   0     0   0   0     0   0   0     0   0   0     0   0   0     0   0   0     0   0   0     0   0   0     0   0   0  
   0   0   0     0   0   0     0   0   0     0   0   0     0   0   0     0   0   0     0   0   0     0   0   0     0   0   0     0   0   0     0   0   0     0   0   0     0   0   0     0   0   0     0   0   0     0   0   0     0   0   0     0   0   0     0   0   0     0   0   0     0   0   0     0   0   0     7  13   1    29  38  17    47  60  32    46  57  26    41  50  21     0   0   0     0   0   0     0   0   0     0   0   0     0   0   0     0   0   0     0   0   0     0   0   0     0   0   0     0   0   0     0   0   0     0   0   0     0   0   0     0   0   0     0   0   0     0   0   0     0   0   0     0   0   0     0   0   0     0   0   0     0   0   0     0   0   0     0   0   0  
   0   0   0     0   0   0     0   0   0     0   0   0     0   0   0     0   0   0     0   0   0     0   0   0     0   0   0     0   0   0     0   0   0     0   0   0     0   0   0     0   0   0     0   0   0     0   0   0     0   0   0     0   0   0     0   0   0     0   0   0     0   0   0     0   0   0     0   0   0    20  29   9    42  55  29    46  57  27     0   0   0     0   0   0     0   0   0     0   0   0     0   0   0     0   0   0     0   0   0     0   0   0     0   0   0     0   0   0     0   0   0     0   0   0     0   0   0     0   0   0     0   0   0     0   0   0     0   0   0     0   0   0     0   0   0     0   0   0     0   0   0     0   0   0     0   0   0     0   0   0  
   0   0   0     0   0   0     0   0   0     0   0   0     0   0   0     0   0   0     0   0   0     0   0   0     0   0   0     0   0   0     0   0   0     0   0   0     0   0   0     0   0   0     0   0   0     0   0   0     0   0   0     0   0   0     0   0   0     0   0   0     0   0   0     0   0   0     0   0   0     0   0   0    34  47  21     0   0   0     0   0   0     0   0   0     0   0   0     0   0   0     0   0   0     0   0   0     0   0   0     0   0   0     0   0   0     0   0   0     0   0   0     0   0   0     0   0   0     0   0   0     0   0   0     0   0   0     0   0   0     0   0   0     0   0   0     0   0   0     0   0   0     0   0   0     0   0   0     0   0   0  
