P3
50 65
255
 181 181 183   180 180 182     0   0   0     0   0   0     0   0   0     0   0   0     0   0   0     0   0   0     0   0   0     0   0   0     0   0   0     0   0   0     0   0   0     0   0   0     0   0   0     0   0   0     0   0   0     0   0   0     0   0   0     0   0   0     0   0   0     0   0   0     0   0   0     0   0   0     0   0   0     0   0   0     0   0   0     0   0   0     0   0   0     0   0   0     0   0   0     0   0   0     0   0   0     0   0   0     0   0   0     0   0   0     0   0   0     0   0   0     0   0   0     0   0   0     0   0   0     0   0   0     0   0   0     0   0   0     0   0   0     0   0   0     0   0   0   148 151 160   148 151 160   147 150 159  
 182 182 184   180 180 182   179 179 181     0   0   0     0   0   0     0   0   0     0   0   0     0   0   0     0   0   0     0   0   0     0   0   0     0   0   0     0   0   0     0   0   0     0   0   0     0   0   0     0   0   0     0   0   0     0   0   0     0   0   0     0   0   0     0   0   0     0   0   0     0   0   0     0   0   0     0   0   0     0   0   0     0   0   0     0   0   0     0   0   0     0   0   0     0   0   0     0   0   0     0   0   0     0   0   0     0   0   0     0   0   0     0   0   0     0   0   0     0   0   0     0   0   0     0   0   0     0   0   0     0   0   0     0   0   0   147 154 162   147 153 161   147 151 160   148 151 160   148 151 160  
 183 183 185   180 180 182   178 178 180     0   0   0     0   0   0     0   0   0     0   0   0     0   0   0     0   0   0     0   0   0     0   0   0     0   0   0     0   0   0     0   0   0     0   0   0     0   0   0     0   0   0     0   0   0     0   0   0     0   0   0     0   0   0     0   0   0     0   0   0     0   0   0     0   0   0     0   0   0     0   0   0     0   0   0     0   0   0     0   0   0     0   0   0     0   0   0     0   0   0     0   0   0     0   0   0     0   0   0     0   0   0     0   0   0     0   0   0     0   0   0     0   0   0     0   0   0     0   0   0     0   0   0   150 154 163   147 154 162   148 152 161   147 150 159   148 150 160   148 151 160  
 183 183 185   181 181 183   178 178 180   176 176 177   174 174 176     0   0   0     0   0   0     0   0   0     0   0   0     0   0   0     0   0   0     0   0   0     0   0   0     0   0   0     0   0   0     0   0   0     0   0   0     0   0   0     0   0   0     0   0   0     0   0   0     0   0   0     0   0   0     0   0   0     0   0   0     0   0   0     0   0   0     0   0   0     0   0   0     0   0   0     0   0   0     0   0   0     0   0   0     0   0   0     0   0   0     0   0   0     0   0   0     0   0   0     0   0   0     0   0   0     0   0   0     0   0   0     0   0   0   152 156 165   151 155 164   148 155 163   148 152 161   146 150 158   147 150 157   148 151 159  
 180 180 182   178 178 181   175 176 180   173 174 178   173 174 178   173 174 178   174 175 179   173 174 178     0   0   0     0   0   0     0   0   0     0   0   0     0   0   0     0   0   0     0   0   0     0   0   0     0   0   0     0   0   0     0   0   0     0   0   0     0   0   0     0   0   0     0   0   0     0   0   0     0   0   0     0   0   0     0   0   0     0   0   0     0   0   0     0   0   0     0   0   0     0   0   0     0   0   0     0   0   0     0   0   0     0   0   0     0   0   0     0   0   0     0   0   0     0   0   0     0   0   0   157 160 167   156 159 166   155 159 165   152 157 163   152 157 163   151 156 162   148 153 159   147 152 158   146 151 157  
 179 179 181   178 179 181   177 178 182   175 176 180   174 175 179   173 174 178   173 174 178   172 173 177   171 172 176   172 173 177     0   0   0     0   0   0     0   0   0     0   0   0     0   0   0     0   0   0     0   0   0     0   0   0     0   0   0     0   0   0     0   0   0     0   0   0     0   0   0     0   0   0     0   0   0     0   0   0     0   0   0     0   0   0     0   0   0     0   0   0     0   0   0     0   0   0     0   0   0     0   0   0     0   0   0     0   0   0     0   0   0     0   0   0     0   0   0     0   0   0   158 161 168   157 160 167   156 159 166   155 159 165   152 157 163   151 156 162   150 155 160   148 153 157   147 152 156     0   0   0  
 179 179 181   179 179 181   178 179 183   176 177 181   175 176 180   173 174 178   173 174 178   173 174 178   172 173 177   172 173 177   173 174 178   172 173 177   170 171 176     0   0   0     0   0   0     0   0   0     0   0   0     0   0   0     0   0   0     0   0   0     0   0   0     0   0   0     0   0   0     0   0   0     0   0   0     0   0   0     0   0   0     0   0   0     0   0   0     0   0   0     0   0   0     0   0   0     0   0   0     0   0   0     0   0   0     0   0   0     0   0   0     0   0   0     0   0   0   161 161 169   159 162 169   159 162 169   158 161 168   155 159 166   152 157 163   151 156 162   150 155 160   149 154 158   147 152 156     0   0   0  
 180 180 182   178 179 181   176 177 181   174 175 179   174 175 179   174 175 179   174 175 179   174 175 179   173 174 178   174 175 179   174 175 179   173 174 179   171 172 177   172 173 178   170 171 176   168 169 174     0   0   0     0   0   0     0   0   0     0   0   0     0   0   0     0   0   0     0   0   0     0   0   0     0   0   0     0   0   0     0   0   0     0   0   0     0   0   0     0   0   0     0   0   0     0   0   0     0   0   0     0   0   0     0   0   0     0   0   0     0   0   0   166 166 174   165 165 172   163 163 171   161 164 171   163 165 173   161 164 171   158 162 168   155 160 166   153 158 164   150 155 160   149 154 158   148 153 157     0   0   0  
 183 183 185   179 180 182   175 176 178   172 173 177   173 174 178   176 177 181   177 178 181   177 178 180   176 177 179   176 177 179   177 178 182   175 176 180   173 174 178   173 174 178   171 172 177   168 169 174   167 168 173   166 167 172   165 166 173     0   0   0     0   0   0     0   0   0     0   0   0     0   0   0     0   0   0     0   0   0     0   0   0     0   0   0     0   0   0     0   0   0     0   0   0     0   0   0     0   0   0     0   0   0     0   0   0   167 168 173   167 168 173   168 169 174   167 168 173   166 167 172   166 169 174   169 172 177   167 170 175   163 167 171   160 165 169   155 160 164   150 155 159   149 154 158   148 153 157     0   0   0  
 186 186 188   181 182 184   177 178 180   174 175 179   175 176 180   178 179 183   180 180 184   179 180 182   178 179 181   178 179 181   178 179 183   176 177 181   174 175 179   172 173 178   170 171 176   168 169 174   167 168 173   166 167 172   165 165 172   162 163 168   165 166 170     0   0   0     0   0   0     0   0   0     0   0   0     0   0   0     0   0   0     0   0   0     0   0   0     0   0   0     0   0   0   166 167 172   167 168 173   168 169 174   167 168 173   166 167 172   167 168 173   170 171 176   170 171 176   169 170 175   170 173 178   174 177 182   173 176 181   167 171 176   164 169 173   158 163 167   152 157 161   150 155 159   148 153 157     0   0   0  
 187 187 187   185 185 186   183 184 186   181 182 184   180 181 183   180 181 183   180 180 183   179 180 182   178 179 181   178 179 181   178 179 181   176 177 180   173 174 178   172 173 177   170 171 175   168 169 174   167 168 173   166 167 172   163 165 170   161 162 167   165 166 170   165 166 168   166 167 169   165 166 170     0   0   0     0   0   0     0   0   0   163 164 169   165 166 171   166 167 172   165 166 171   165 165 171   166 166 174   165 166 172   164 165 170   163 164 169   166 166 171   169 170 175   170 172 177   171 172 177   173 176 181   178 181 186   176 179 184   169 174 178   167 172 176   160 165 169   152 157 161   150 155 159   148 153 157     0   0   0  
 186 186 186   187 187 188   188 189 191   187 188 190   184 185 187   182 183 185   180 180 183   179 180 182   177 178 180   177 178 180   177 178 180   175 176 179   172 173 177   172 173 177   170 171 175   168 169 174   167 168 173   166 167 172   163 164 169   160 161 166   165 166 170   165 166 168   166 167 169   165 166 170   164 165 169   163 164 168   162 163 167   163 164 169   165 166 171   167 168 173   165 166 171   164 165 171   165 165 173   162 163 169   161 162 167   160 161 166   163 164 169   168 169 174   170 171 176   171 172 177   173 176 181   179 182 187   177 180 185   170 175 179   168 173 177   161 166 170   152 157 161   150 155 159     0   0   0     0   0   0  
 193 193 193   190 190 190   186 188 187   185 186 187   184 185 187   183 184 186   182 183 184   181 183 182   178 181 180   177 179 178   176 177 179   174 175 177   173 174 176   170 171 174   168 169 173   166 167 171   165 165 170   164 165 170   164 165 170   164 165 170   162 163 167   162 163 167   161 162 166   161 162 166   162 163 167   164 165 170   164 165 170   164 165 170   165 165 172   165 165 173   163 163 171   161 161 169   161 161 169   160 161 167   160 161 165   161 162 166   162 163 167   166 167 171   169 170 174   171 172 176   174 178 181   175 179 182   175 179 182   170 174 177   162 167 170   154 159 162   149 154 157   147 152 156     0   0   0     0   0   0  
 191 191 191   188 189 188   186 188 187   185 186 187   184 185 187   183 184 186   181 182 183   180 182 181   178 180 179   177 179 178   176 177 179   175 175 178   173 174 176   170 171 174   168 169 173   166 167 171   165 165 170   164 165 170   164 165 170   164 165 170   162 163 167   162 163 167   162 163 167   162 163 167   162 163 167   163 164 169   163 164 169   165 166 171   166 167 174   166 166 174   164 164 172   162 162 170   162 162 170   161 161 167   160 161 165   161 162 166   162 163 167   166 167 171   168 169 173   170 171 175   172 176 179   172 176 179   171 175 178   166 171 174   160 165 168   153 158 161   149 154 157   146 151 155     0   0   0     0   0   0  
 189 189 189   187 188 187   185 187 186   184 186 185   183 185 184   181 182 184   180 181 182   180 182 181   177 180 178   177 179 178   177 179 178   175 177 177   173 174 176   170 171 173   168 169 171   167 168 172   165 165 170   164 165 169   164 165 169   164 165 169   162 163 167   163 164 168   163 164 168   163 164 169   162 163 168   162 163 168   162 163 169   166 166 174   167 167 175   167 167 175   165 165 173   163 163 171   164 164 173   162 162 168   161 162 166   161 162 166   162 163 167   165 166 170   167 168 172   168 169 173   168 172 175   168 172 175   166 170 173   161 166 169   156 161 164   152 157 159   148 153 156     0   0   0     0   0   0     0   0   0  
 188 188 188   185 186 185   184 186 185   183 185 184   182 184 183   180 181 183   178 180 180   179 181 180   177 179 178   177 179 178   177 179 178   176 178 178   174 175 177   171 172 174   169 170 172   167 168 172   165 166 170   164 165 169   164 165 169   164 165 169   162 163 167   163 164 168   164 165 169   163 164 169   162 163 168   161 162 167   161 162 168   166 166 174   167 167 175   166 166 174   164 164 172   163 163 171   163 163 172   162 163 169   162 163 167   162 163 167   163 164 168   164 165 169   165 165 170   165 166 170   163 167 170   163 167 170   161 165 168   157 162 165   153 158 161   150 155 158     0   0   0     0   0   0     0   0   0     0   0   0  
 188 188 186   186 187 185   184 186 185   182 184 183   181 183 182   179 181 180   177 179 178   177 179 178   177 179 178   177 179 178   178 180 179   176 178 177   174 176 175   171 173 174   170 171 173   168 169 171   165 166 169   164 165 169   163 164 168   163 164 168   162 163 167   163 164 168   164 165 170   163 164 169   162 163 168   161 162 167   161 162 168   165 165 173   165 165 173   164 164 172   162 162 172   161 161 171   162 162 171   163 163 169   163 164 168   163 164 168   163 164 168   163 164 168   163 164 168   162 163 167   160 164 167   159 163 166   157 161 164   154 158 161   150 155 158     0   0   0     0   0   0     0   0   0     0   0   0     0   0   0  
 191 191 189   187 187 185   183 185 184   180 182 181   179 181 180   177 179 178   176 178 177   176 178 177   176 178 177   178 180 179   179 181 180   177 179 178   175 177 176   172 174 175   170 171 173   168 169 171   165 167 169   165 166 170   163 164 168   163 164 168   162 163 167   163 164 168   163 164 169   163 164 169   162 163 168   162 163 168   161 162 168   163 163 171   163 163 171   162 162 170   160 160 170   159 159 169   161 161 170   162 163 169   164 165 169   164 165 169   163 164 168   162 163 167   160 161 165   160 161 165   158 162 165   158 162 165   156 160 163   153 157 161     0   0   0     0   0   0     0   0   0     0   0   0     0   0   0     0   0   0  
 194 194 192   188 189 186   182 184 181   178 181 179   177 179 178   176 178 177   175 178 176   175 177 174   175 178 176   178 180 179   179 181 180   178 180 179   175 177 176   172 174 175   171 172 174   169 170 172   166 167 170   165 166 170   163 164 168   163 164 168   162 163 168   162 163 168   162 163 168   162 163 168   162 163 168   163 163 171   163 163 171   163 163 171   163 163 172   161 161 171   159 159 169   159 159 169   161 161 170   163 164 169   164 165 167   164 165 167   163 164 165   161 162 164   159 160 162   158 159 161   158 162 163   158 162 163     0   0   0     0   0   0     0   0   0     0   0   0     0   0   0     0   0   0     0   0   0     0   0   0  
 195 195 194   189 190 188   182 184 181   178 180 178   176 178 177   176 178 177   175 177 176   175 177 176   175 178 177   178 180 179   179 181 180   178 180 179   175 177 177   172 173 176   171 172 174   169 170 172   166 167 170   165 166 170   163 164 168   163 164 168   162 163 167   162 163 167   161 162 166   161 162 166   162 163 168   164 165 170   165 165 170   164 165 171   163 163 171   162 162 170   160 160 168   160 160 167   162 162 170   163 164 169   164 165 169   164 165 169   163 164 168   161 162 166   158 160 163   155 159 162   158 162 165     0   0   0     0   0   0     0   0   0     0   0   0     0   0   0     0   0   0     0   0   0     0   0   0     0   0   0  
 196 196 194   188 188 186   182 182 180   180 180 178   179 179 177   179 179 179   180 180 181   179 180 182   179 180 182   179 180 184   181 182 186   181 182 186   177 178 182   175 175 180   173 174 178   171 172 176   167 168 172   165 166 170   163 164 168   163 164 168   158 162 163   159 162 163   162 163 165   163 164 166   161 162 166   163 164 168   165 165 170   163 162 168   163 162 168   162 161 167   160 159 165   161 160 166   163 162 168   162 163 168   163 164 169   162 165 170   160 163 168   159 162 167   158 161 166   158 161 166     0   0   0     0   0   0     0   0   0     0   0   0     0   0   0     0   0   0     0   0   0     0   0   0     0   0   0     0   0   0  
 195 195 193   188 188 186   183 183 181   181 181 179   179 179 177   178 178 178   178 179 181   179 180 184   182 183 187   182 183 187   181 182 186   180 182 185   179 180 184   175 176 180   173 174 178   171 172 176   168 169 173   166 167 171   165 166 170   165 166 168   161 163 162   161 163 162   163 165 164   164 165 166   162 163 165   162 163 165   164 165 168   164 163 168   164 163 168   163 162 167   162 161 166   162 161 166   164 163 169   163 163 170   163 163 171   162 165 172   160 163 170   159 162 169   158 161 168     0   0   0     0   0   0     0   0   0     0   0   0     0   0   0     0   0   0     0   0   0     0   0   0     0   0   0     0   0   0     0   0   0  
 193 193 193   188 188 188   184 184 184   181 181 181   179 179 179   178 178 180   179 179 181   181 182 186   186 187 191   185 186 190   182 183 187   180 181 185   181 182 186   175 176 180   172 173 177   170 171 175   168 169 173   167 168 172   166 167 171   166 167 171   161 162 164   162 162 163   165 165 167   165 165 167   162 163 165   162 163 165   163 164 167   163 164 168   165 165 170   165 166 170   164 165 170   163 164 169   164 165 170   163 163 170   164 164 172   162 165 172   160 163 170   159 162 169     0   0   0     0   0   0     0   0   0     0   0   0     0   0   0     0   0   0     0   0   0     0   0   0     0   0   0     0   0   0     0   0   0     0   0   0  
 192 192 192   186 186 186   182 182 182   180 180 180   180 180 182   181 181 183   184 185 187   185 186 190   188 189 193   187 188 192   184 185 189   183 184 188   181 182 186   175 176 180   171 172 176   169 170 174   166 167 171   165 166 170   163 164 168   163 164 168   161 161 163   162 162 163   165 165 167   165 165 167   161 162 164   160 161 163   162 163 166   165 166 170   167 168 172   168 169 173   167 168 173   163 166 171   164 166 171   163 164 171   164 164 172   161 164 171   159 162 169     0   0   0     0   0   0     0   0   0     0   0   0     0   0   0     0   0   0     0   0   0     0   0   0     0   0   0     0   0   0     0   0   0     0   0   0     0   0   0  
 191 191 193   185 185 187   181 181 183   179 179 181   181 180 184   186 185 190   192 191 196   191 192 196   188 190 193   187 188 192   188 189 193   186 187 191   180 181 185   174 175 179   171 172 176   169 169 174   165 166 170   162 163 167   160 161 165   160 161 165   161 161 163   162 161 163   165 163 166   165 164 166   161 161 163   160 161 165   165 166 170   170 171 175   170 172 177   169 172 177   167 170 175   165 169 174   165 168 173   163 164 171   163 163 171   161 164 171     0   0   0     0   0   0     0   0   0     0   0   0     0   0   0     0   0   0     0   0   0     0   0   0     0   0   0     0   0   0     0   0   0     0   0   0     0   0   0     0   0   0  
 191 191 193   186 186 188   182 182 184   180 179 183   182 181 186   190 188 193   196 195 200   196 197 201   190 191 195   188 189 193   190 191 195   188 188 193   178 179 183   172 173 177   170 171 175   168 169 173   164 165 169   162 163 167   160 161 165   161 160 165   162 160 163   162 160 163   164 162 165   164 164 166   162 162 164   163 164 168   168 170 173   175 177 181   174 177 182   171 176 180   168 173 177   165 170 175   166 171 175   162 166 172   163 163 171   160 163 170     0   0   0     0   0   0     0   0   0     0   0   0     0   0   0     0   0   0     0   0   0     0   0   0     0   0   0     0   0   0     0   0   0     0   0   0     0   0   0     0   0   0  
 191 190 195   188 187 192   186 185 190   183 182 188   183 182 188   187 186 192   194 193 199   198 199 203   194 195 199   190 191 195   189 190 194   185 186 190   176 177 181   171 171 176   169 170 174   167 168 172   165 165 170   164 165 169   163 164 168   165 164 169   165 163 166   165 161 165   165 163 166   165 164 168   165 164 169   167 168 172   173 175 179   179 182 187   177 181 186   173 178 182   169 175 179   165 173 176   165 172 178   161 166 172   162 162 170   159 162 169     0   0   0     0   0   0     0   0   0     0   0   0     0   0   0     0   0   0     0   0   0     0   0   0     0   0   0     0   0   0     0   0   0     0   0   0     0   0   0     0   0   0  
 191 190 195   190 189 194   190 189 194   187 186 191   183 182 188   184 183 189   191 191 196   200 201 205   198 200 203   193 193 198   187 189 192   182 183 187   176 177 181   169 170 174   167 168 172   167 168 172   166 167 171   166 167 171   167 168 172   169 168 173   167 164 168   166 162 166   166 164 167   166 165 169   167 166 171   170 171 175   177 179 183   182 186 191   179 184 188   173 180 183   168 176 179   165 174 177   165 173 179   162 166 173   161 161 169   158 161 168   155 158 165     0   0   0     0   0   0     0   0   0     0   0   0     0   0   0     0   0   0     0   0   0     0   0   0     0   0   0     0   0   0     0   0   0     0   0   0     0   0   0  
 194 193 198   192 191 196   190 189 194   187 186 192   186 185 191   186 185 191   186 186 191   189 190 194   189 190 194   186 187 191   182 183 187   178 179 183   177 178 182   175 176 180   170 171 175   167 168 172   167 168 172   165 166 170   164 165 169   168 168 172   169 167 172   168 166 171   168 166 171   168 167 172   171 169 174   172 173 178   175 177 182   179 183 187   178 183 188   177 184 190   175 182 188   167 176 181   158 166 172   157 161 168   158 158 166   154 157 164   154 157 164     0   0   0     0   0   0     0   0   0     0   0   0     0   0   0     0   0   0     0   0   0     0   0   0     0   0   0     0   0   0     0   0   0     0   0   0     0   0   0  
 194 193 198   192 191 196   190 189 194   188 187 192   186 185 191   186 185 191   186 185 191   187 188 192   187 188 192   185 186 190   180 182 185   176 177 181   175 176 180   175 176 180   171 172 176   168 169 173   168 169 173   166 167 171   165 165 170   168 169 173   168 167 172   168 166 171   168 166 171   168 167 172   170 170 174   172 173 178   174 178 182   180 185 189   180 187 192   179 186 192   173 182 187   166 175 180   161 169 175   158 163 169   157 157 165   153 156 163   153 155 163     0   0   0     0   0   0     0   0   0     0   0   0     0   0   0     0   0   0     0   0   0     0   0   0     0   0   0     0   0   0     0   0   0     0   0   0     0   0   0  
 193 193 195   193 193 195   192 191 195   190 188 193   187 186 191   185 184 189   184 184 188   186 187 191   185 186 190   183 184 188   179 179 184   175 175 180   174 175 179   175 175 180   172 173 177   170 171 175   169 170 174   167 168 172   166 167 171   168 169 173   168 167 172   168 167 172   167 167 171   167 168 173   170 171 176   173 174 179   174 178 183   182 187 193   183 189 195   180 187 193   172 179 185   165 172 179   163 171 178   159 163 171   157 157 165   153 156 163   152 155 162     0   0   0     0   0   0     0   0   0     0   0   0     0   0   0     0   0   0     0   0   0     0   0   0     0   0   0     0   0   0     0   0   0     0   0   0     0   0   0  
 193 193 195   193 193 195   193 193 195   191 191 192   187 186 191   185 184 189   183 183 187   184 185 189   184 185 189   181 182 186   178 179 183   175 175 180   174 175 179   175 175 180   174 175 179   172 173 177   171 172 176   170 171 175   168 169 173   168 169 173   168 169 173   168 169 173   166 169 172   166 170 174   169 172 177   172 175 180   176 179 184   183 188 194   181 188 194   177 184 190   171 178 184   165 172 179   163 170 178   158 163 170   156 156 164   153 156 163   152 155 162     0   0   0     0   0   0     0   0   0     0   0   0     0   0   0     0   0   0     0   0   0     0   0   0     0   0   0     0   0   0     0   0   0     0   0   0     0   0   0  
 193 193 193   193 193 193   193 193 193   190 190 190   187 187 189   184 184 186   183 183 186   183 184 188   183 184 188   181 182 186   178 179 183   176 177 181   177 178 182   176 177 181   176 177 181   176 177 181   174 175 179   173 174 178   171 171 176   169 170 174   169 170 174   166 170 173   166 169 174   167 170 175   169 174 178   171 176 180   176 181 185   181 186 192   177 182 188   174 179 185   172 176 184   167 171 180   161 165 174   158 161 169   157 157 165   153 156 163   151 154 161     0   0   0     0   0   0     0   0   0     0   0   0     0   0   0     0   0   0     0   0   0     0   0   0     0   0   0     0   0   0     0   0   0     0   0   0     0   0   0  
 194 194 194   193 193 193   191 191 191   188 188 188   186 186 186   183 183 183   181 182 184   181 182 186   180 181 185   179 180 184   177 178 182   177 178 182   179 180 184   177 178 182   179 180 184   179 180 184   176 177 181   175 176 180   173 175 178   170 171 175   166 170 173   164 169 172   164 169 173   165 170 174   167 172 176   170 175 179   174 179 183   177 182 188   173 178 184   171 176 182   171 174 184   166 170 179   160 164 173   159 160 168   157 157 165   153 156 163   151 154 161   149 152 159     0   0   0     0   0   0     0   0   0     0   0   0     0   0   0     0   0   0     0   0   0     0   0   0     0   0   0     0   0   0     0   0   0     0   0   0  
 195 195 193   192 192 190   190 190 188   187 187 185   184 184 184   183 183 183   180 180 183   177 178 182   177 178 182   177 178 182   176 177 181   177 178 182   180 181 185   178 180 183   181 182 186   182 183 187   179 180 184   178 179 183   176 177 181   170 173 176   162 167 171   159 167 170   159 167 170   160 168 170   163 171 174   167 172 178   170 175 181   173 178 184   174 177 185   173 176 185   170 174 182   165 168 177   161 164 173   160 161 170   158 158 166   153 156 163   152 155 162   149 152 159     0   0   0     0   0   0     0   0   0     0   0   0     0   0   0     0   0   0     0   0   0     0   0   0     0   0   0     0   0   0     0   0   0     0   0   0  
 195 195 193   192 192 192   189 189 189   186 186 186   183 183 183   182 182 182   179 179 182   174 175 179   175 175 180   175 176 180   175 176 180   176 177 181   180 181 185   180 181 185   182 183 187   183 184 188   180 180 185   179 180 184   177 178 182   170 174 177   160 165 168   159 164 167   158 163 166   159 164 167   162 167 171   166 169 174   168 171 176   172 175 180   175 178 184   175 178 185   169 172 179   163 166 173   163 165 172   162 162 170   158 158 166   154 157 164   152 155 162   150 153 160     0   0   0     0   0   0     0   0   0     0   0   0     0   0   0     0   0   0     0   0   0     0   0   0     0   0   0     0   0   0     0   0   0     0   0   0  
 191 192 194   189 190 192   186 187 189   182 183 186   180 181 183   177 177 180   173 174 178   173 174 178   171 172 176   172 173 177   175 176 180   178 179 183   179 180 184   177 178 182   179 181 184   181 182 186   180 182 185   179 180 184   174 175 179   166 168 171   161 162 166   158 159 163   155 156 160   155 156 160   160 161 165   170 170 175   175 176 180   175 176 180   173 175 178   171 170 175   169 168 173   168 167 172   165 165 170   163 164 169   160 163 168   157 160 165   153 155 161   151 151 159   150 150 159     0   0   0     0   0   0     0   0   0     0   0   0     0   0   0     0   0   0     0   0   0     0   0   0     0   0   0     0   0   0     0   0   0  
 192 193 195   189 190 193   185 186 190   181 182 186   179 180 184   176 177 181   173 174 178   173 174 178   172 173 177   173 174 178   176 177 181   178 179 183   179 180 184   178 179 183   179 180 184   180 181 185   178 179 183   176 177 181   171 172 176   164 165 169   158 158 160   155 155 157   153 153 155   152 152 154   156 156 158   163 163 165   169 169 171   173 173 175   171 171 173   167 167 169   165 165 167   165 165 167   163 163 165   162 162 166   160 163 168   158 161 166   154 156 162   153 153 161   153 153 160   156 155 163     0   0   0     0   0   0     0   0   0     0   0   0     0   0   0     0   0   0     0   0   0     0   0   0     0   0   0     0   0   0  
 193 194 196   188 189 192   184 185 189   180 181 185   177 178 182   175 176 180   174 175 179   174 175 179   173 174 178   174 175 179   176 177 181   178 179 183   179 180 184   177 178 182   178 179 183   176 177 181   172 173 177   170 171 175   166 167 171   160 161 165   154 155 157   152 153 155   151 152 154   150 150 152   153 153 154   157 157 159   164 164 166   171 171 173   170 170 171   164 164 166   163 161 164   164 162 165   163 161 165   162 162 167   160 163 168   160 161 166   157 158 163   155 156 161   155 155 162   157 157 165   156 156 164     0   0   0     0   0   0     0   0   0     0   0   0     0   0   0     0   0   0     0   0   0     0   0   0     0   0   0  
 193 194 196   187 188 191   183 184 188   179 180 184   176 177 181   174 175 179   174 175 179   175 176 180   173 174 178   175 176 180   177 178 182   178 179 183   178 179 183   176 177 181   176 177 181   171 172 176   166 167 171   164 165 169   161 162 166   155 156 160   152 153 155   152 153 155   152 153 155   151 152 154   154 154 156   157 157 159   163 163 165   170 170 172   168 168 171   164 164 166   163 161 164   164 162 165   165 163 166   163 163 167   162 163 168   161 162 167   159 160 165   158 159 164   158 158 165   159 159 167   158 158 166   155 155 163     0   0   0     0   0   0     0   0   0     0   0   0     0   0   0     0   0   0     0   0   0     0   0   0  
 192 193 195   185 186 189   182 183 187   180 181 185   175 176 180   174 175 179   175 177 180   175 176 180   174 175 179   175 176 180   177 178 182   177 178 182   177 178 182   175 176 180   172 173 177   167 168 172   161 162 166   159 160 164   156 157 161   151 152 156   147 151 152   148 152 153   150 153 154   152 153 155   154 155 157   158 158 160   161 161 163   166 166 168   168 166 169   164 162 165   164 159 163   166 161 166   167 164 167   166 165 169   164 165 169   162 163 167   161 162 166   161 162 167   160 161 166   160 161 166   159 159 167   156 156 164   155 155 163     0   0   0     0   0   0     0   0   0     0   0   0     0   0   0     0   0   0     0   0   0  
 190 191 193   184 185 187   182 183 187   181 182 186   176 177 181   175 176 180   176 177 181   175 176 180   174 175 179   175 176 180   176 177 181   175 177 180   175 176 180   171 172 176   169 170 174   163 164 168   158 159 163   155 156 160   152 153 157   147 148 152   143 147 148   145 148 150   146 150 151   148 150 152   151 152 154   155 155 157   157 157 160   161 161 163   165 164 166   164 162 165   165 160 164   166 161 166   169 164 168   169 166 171   166 165 170   164 165 169   163 164 168   163 164 169   162 163 168   161 162 167   161 162 167   158 158 166   156 156 164     0   0   0     0   0   0     0   0   0     0   0   0     0   0   0     0   0   0     0   0   0  
 188 189 193   182 183 187   182 183 187   183 184 188   178 179 183   176 177 181   177 178 182   174 175 179   174 175 179   175 176 180   176 177 181   175 175 180   173 174 178   168 169 173   166 167 171   161 162 166   155 156 160   153 154 158   150 151 155   145 146 150   144 148 149   144 150 150   145 149 150   146 148 150   149 150 152   151 152 154   156 156 158   162 161 163   168 166 169   169 167 170   170 165 169   173 167 171   175 169 173   172 169 172   169 167 170   166 166 168   165 165 170   165 166 170   162 165 168   159 162 167   160 163 168   157 160 165   155 158 165   154 155 164     0   0   0     0   0   0     0   0   0     0   0   0     0   0   0     0   0   0  
 187 188 192   181 182 186   183 184 188   184 185 189   179 180 184   177 178 182   178 179 183   174 175 179   173 174 178   174 175 179   175 176 180   174 175 179   172 173 177   167 168 172   164 165 169   159 160 164   154 155 159   152 153 157   149 150 154   143 144 148   148 152 153   148 153 154   148 152 153   148 150 151   149 150 152   151 152 154   156 156 158   164 163 166   172 170 173   175 173 176   177 172 176   179 173 177   181 176 180   176 171 175   170 168 171   168 166 169   167 167 169   166 167 170   162 165 168   158 162 165   161 164 169   158 161 167   155 158 165   155 156 165   153 153 163     0   0   0     0   0   0     0   0   0     0   0   0     0   0   0  
 186 189 193   183 186 189   184 185 189   184 185 189   181 182 186   180 179 184   179 179 183   177 178 182   177 178 182   176 177 181   174 175 179   172 173 177   170 171 175   165 166 170   161 162 166   155 157 160   151 152 156   149 150 154   149 150 154   149 150 154   146 150 151   150 153 155   150 154 155   148 150 152   150 151 153   158 158 160   165 165 167   171 171 173   176 175 178   182 179 183   176 171 175   178 173 177   183 178 182   179 174 176   172 168 169   166 164 165   167 167 169   167 168 170   164 167 170   162 167 170   161 166 170   166 171 175   158 162 169   151 151 161   154 154 164   153 151 162     0   0   0     0   0   0     0   0   0     0   0   0  
 186 189 193   183 186 189   183 184 188   183 184 188   180 181 185   179 178 183   178 177 182   176 177 181   175 176 180   175 176 180   173 174 178   170 171 175   169 170 174   164 165 169   161 162 166   157 157 162   152 153 157   151 152 156   150 151 155   151 152 156   152 153 155   151 156 156   154 156 158   154 155 157   157 159 160   165 165 167   169 169 171   170 170 172   183 182 184   193 191 194   185 184 187   182 180 183   180 176 180   179 174 176   176 170 172   173 169 170   169 168 169   166 168 168   161 166 166   161 166 169   173 178 182   171 176 181   162 167 173   154 157 166   156 156 166   152 150 161   144 145 154     0   0   0     0   0   0     0   0   0  
 185 189 192   182 185 188   182 183 187   182 181 186   179 178 183   178 178 180   177 177 180   174 175 179   174 175 179   173 174 178   172 173 177   169 170 174   168 169 173   163 164 168   161 162 166   158 159 163   154 155 159   153 154 158   152 153 157   152 153 157   154 155 157   155 155 157   156 156 158   160 160 162   166 166 168   173 173 175   177 177 179   182 182 184   191 191 193   195 195 197   186 186 188   186 184 187   186 184 186   180 176 176   177 171 171   174 170 169   170 169 169   166 167 168   163 166 168   165 169 172   173 181 184   165 172 176   157 162 168   152 156 164   150 150 160   145 144 154   141 142 151   143 147 154     0   0   0     0   0   0  
 185 189 192   182 185 188   181 182 186   180 180 184   177 176 181   175 175 177   175 175 178   173 174 178   173 174 178   173 174 178   171 172 176   169 170 174   168 169 173   164 165 169   162 163 167   159 161 164   156 157 161   154 155 159   152 153 157   151 152 156   156 156 158   155 153 156   157 156 158   163 163 165   171 171 173   177 177 179   181 181 183   192 192 194   202 202 204   200 200 202   190 191 193   187 188 190   185 185 186   178 174 174   176 168 166   172 167 167   168 167 165   164 166 165   165 170 170   170 179 178   173 181 183   158 166 169   152 158 164   153 156 165   148 150 160   145 145 155   144 145 154   143 147 154   143 148 154   141 146 152  
 184 189 192   180 183 187   179 180 184   178 178 181   175 175 177   173 173 175   174 174 176   173 174 178   173 174 178   173 174 178   172 173 177   170 171 175   169 170 174   166 167 171   164 165 169   161 162 166   158 159 163   155 156 160   153 154 158   153 152 157   162 159 163   162 157 160   162 158 162   168 165 168   176 174 177   181 179 182   180 180 182   190 190 192   210 211 213   212 213 215   202 203 205   186 190 191   172 174 175   176 169 170   177 167 166   171 166 163   166 164 162   162 164 163   164 170 169   171 180 179   178 186 188   162 170 174   157 163 169   159 162 170   155 155 165   151 149 162   149 150 159   144 148 154   143 148 154   141 146 152  
 184 188 191   179 182 186   178 179 183   176 176 179   173 173 175   171 171 173   172 172 175   172 173 177   173 174 178   172 173 177   172 173 177   170 170 175   169 170 174   167 168 172   165 166 170   163 164 168   160 161 165   159 160 164   159 160 164   160 159 164   172 167 171   170 164 168   170 164 168   173 168 172   179 176 179   182 180 183   181 181 183   192 193 195   212 212 215   205 209 210   194 198 199   182 188 188   171 175 174   177 172 172   180 170 169   174 167 165   168 165 163   163 165 162   161 167 164   164 172 171   173 183 184   161 170 172   156 163 168   154 159 167   149 153 161   147 147 159   146 147 156   144 148 154   143 148 154   141 146 152  
   0   0   0     0   0   0   176 177 181   174 175 177   171 171 173   169 169 171   170 170 173   171 172 176   171 172 176   171 172 176   170 171 175   169 170 174   168 169 173   167 168 172   166 167 171   164 165 169   163 164 168   165 166 170   167 168 172   171 170 175   178 172 176   177 168 173   175 168 172   174 169 173   177 172 176   178 176 179   181 180 182   195 196 198   205 208 210   190 194 195   180 186 186   177 186 185   175 181 180   179 174 172   179 169 167   178 170 168   175 172 169   169 171 169   161 167 166   157 166 165   160 170 172   155 164 168   152 158 164   150 153 161   148 148 158   146 144 157   143 144 155     0   0   0     0   0   0     0   0   0  
   0   0   0     0   0   0     0   0   0   172 173 177   169 170 172   168 169 171   169 169 171   170 170 172   170 170 172   170 171 173   169 170 172   168 169 173   167 168 172   165 168 172   164 168 171   162 166 169   163 167 171   167 171 174   171 176 179   177 179 183   176 174 179   176 169 176   174 168 173   171 166 170   172 167 171   175 170 174   175 173 174   187 188 188   203 205 204   190 193 192   182 188 188   177 186 185   172 178 177   172 170 169   174 165 166   175 172 170   179 178 177   175 178 177   165 170 170   155 164 163   156 164 166   155 163 165   153 160 164   151 156 161   151 154 161     0   0   0     0   0   0     0   0   0     0   0   0     0   0   0  
   0   0   0     0   0   0     0   0   0     0   0   0   168 169 174   167 168 173   168 168 172   173 171 174   173 171 174   171 171 173   168 168 170   166 167 169   165 168 169   167 171 174   163 170 172   168 176 178   173 183 184   170 180 182   172 183 185   180 190 192   178 178 186   176 175 182   173 171 177   170 166 170   169 164 168   170 166 167   174 170 169   183 180 179   191 190 188   196 196 194   187 191 190   174 180 179   166 171 171   158 159 161   169 168 173   182 181 186   176 177 181   170 173 176   166 171 173   162 167 170   157 162 165   151 156 159   149 154 157   150 155 159     0   0   0     0   0   0     0   0   0     0   0   0     0   0   0     0   0   0  
   0   0   0     0   0   0     0   0   0     0   0   0     0   0   0   165 168 173   168 168 172   170 168 170   172 170 171   172 172 172   169 170 170   166 169 168   164 168 169   165 170 172   160 168 170   169 180 181   184 196 196   184 197 198   177 191 192   172 183 185   178 182 189   176 175 183   170 169 175   165 163 167   164 160 161   166 160 160   167 161 160   169 165 162   173 171 167   173 173 171   167 169 168   158 163 162   153 159 159   152 157 159   165 166 171   174 177 182   173 176 181   169 172 177   166 169 173   163 167 170   159 164 167   154 159 162   153 158 161     0   0   0     0   0   0     0   0   0     0   0   0     0   0   0     0   0   0     0   0   0  
   0   0   0     0   0   0     0   0   0     0   0   0     0   0   0     0   0   0   167 168 171   168 167 169   172 170 171   173 173 173   172 172 174   168 170 171   165 169 170   165 170 172   164 172 174   179 187 190   192 202 204   190 200 202   180 191 193   172 182 184   178 180 187   173 173 180   166 164 171   162 158 164   162 157 161   163 159 160   166 161 160   167 163 160   166 164 161   162 162 160   157 160 159   153 158 157   153 158 160   155 157 162   160 161 166   167 170 175   172 175 180   168 171 176   163 166 171   162 165 170   160 165 168     0   0   0     0   0   0     0   0   0     0   0   0     0   0   0     0   0   0     0   0   0     0   0   0     0   0   0  
   0   0   0     0   0   0     0   0   0     0   0   0     0   0   0     0   0   0     0   0   0   168 168 169   170 170 170   172 172 172   171 172 174   169 171 173   168 172 173   168 172 174   173 178 181   190 195 199   192 198 202   181 189 192   178 185 189   182 187 191   173 175 182   168 168 175   162 161 166   159 157 161   162 158 162   167 163 164   170 166 165   171 169 167   167 166 165   162 164 161   159 163 162   159 164 163   161 167 167   157 161 163   156 157 162   161 164 169   169 172 177   167 170 175   160 163 168   162 164 169     0   0   0     0   0   0     0   0   0     0   0   0     0   0   0     0   0   0     0   0   0     0   0   0     0   0   0     0   0   0  
   0   0   0     0   0   0     0   0   0     0   0   0     0   0   0     0   0   0     0   0   0     0   0   0   170 170 173   170 171 173   170 171 173   171 171 174   173 174 178   172 173 177   176 180 183   190 193 198   191 194 199   183 186 191   182 185 190   186 189 194   172 172 177   166 165 171   161 160 166   161 160 165   164 163 166   168 166 167   169 167 168   168 166 167   165 164 165   163 163 163   161 162 164   160 164 165   160 165 166   158 160 165   155 156 161   157 160 165   165 167 172   163 166 171   158 161 166     0   0   0     0   0   0     0   0   0     0   0   0     0   0   0     0   0   0     0   0   0     0   0   0     0   0   0     0   0   0     0   0   0  
   0   0   0     0   0   0     0   0   0     0   0   0     0   0   0     0   0   0     0   0   0     0   0   0     0   0   0   172 173 175   171 172 174   171 172 175   174 175 179   173 174 178   174 175 179   184 185 190   193 192 198   193 192 198   189 188 194   180 179 185   170 169 175   166 165 171   163 162 168   165 163 168   168 166 169   169 167 168   168 166 167   166 165 166   165 165 165   164 166 165   162 166 167   161 165 166   159 164 165   159 161 164   157 158 163   157 160 165   159 162 167     0   0   0     0   0   0     0   0   0     0   0   0     0   0   0     0   0   0     0   0   0     0   0   0     0   0   0     0   0   0     0   0   0     0   0   0     0   0   0  
   0   0   0     0   0   0     0   0   0     0   0   0     0   0   0     0   0   0     0   0   0     0   0   0     0   0   0     0   0   0   174 178 181   172 175 178   172 173 177   172 172 177   172 171 176   180 178 185   186 183 191   188 185 192   182 179 186   169 166 173   164 163 168   162 161 166   164 163 168   168 167 172   172 171 176   171 171 173   170 170 172   170 170 172   168 168 170   168 169 171   166 170 171   165 169 170   162 166 169   160 161 165   161 162 166   159 162 167     0   0   0     0   0   0     0   0   0     0   0   0     0   0   0     0   0   0     0   0   0     0   0   0     0   0   0     0   0   0     0   0   0     0   0   0     0   0   0     0   0   0  
   0   0   0     0   0   0     0   0   0     0   0   0     0   0   0     0   0   0     0   0   0     0   0   0     0   0   0     0   0   0     0   0   0   172 176 179   169 171 175   171 170 175   174 173 178   181 178 185   177 173 180   172 167 174   169 164 171   165 160 166   157 155 160   156 156 161   162 161 166   170 169 174   175 174 179   176 176 178   173 173 175   169 169 171   166 167 169   166 167 169   165 169 170   163 167 169   161 165 168   159 161 165     0   0   0     0   0   0     0   0   0     0   0   0     0   0   0     0   0   0     0   0   0     0   0   0     0   0   0     0   0   0     0   0   0     0   0   0     0   0   0     0   0   0     0   0   0     0   0   0  
   0   0   0     0   0   0     0   0   0     0   0   0     0   0   0     0   0   0     0   0   0     0   0   0     0   0   0     0   0   0     0   0   0     0   0   0   171 173 178   172 171 177   171 170 176   169 166 173   167 164 170   167 162 169   165 158 165   161 156 162   159 158 162   157 156 158   162 162 164   172 172 176   177 178 182   177 178 182   175 177 180   174 177 180   172 176 179   170 174 177   168 172 175   166 170 173   166 170 173     0   0   0     0   0   0     0   0   0     0   0   0     0   0   0     0   0   0     0   0   0     0   0   0     0   0   0     0   0   0     0   0   0     0   0   0     0   0   0     0   0   0     0   0   0     0   0   0     0   0   0  
   0   0   0     0   0   0     0   0   0     0   0   0     0   0   0     0   0   0     0   0   0     0   0   0     0   0   0     0   0   0     0   0   0     0   0   0     0   0   0   170 171 176   169 168 174   167 166 172   166 163 170   166 162 169   165 160 166   162 157 163   159 158 161   157 156 158   161 161 163   170 170 174   175 177 180   174 176 180   172 175 179   172 175 180   171 174 179   170 174 177   168 172 175     0   0   0     0   0   0     0   0   0     0   0   0     0   0   0     0   0   0     0   0   0     0   0   0     0   0   0     0   0   0     0   0   0     0   0   0     0   0   0     0   0   0     0   0   0     0   0   0     0   0   0     0   0   0     0   0   0  
   0   0   0     0   0   0     0   0   0     0   0   0     0   0   0     0   0   0     0   0   0     0   0   0     0   0   0     0   0   0     0   0   0     0   0   0     0   0   0     0   0   0   166 167 172   165 164 170   165 163 169   166 163 168   166 161 166   163 158 164   159 158 160   157 156 157   161 161 163   168 169 172   173 174 178   170 173 178   169 174 179   170 175 181   169 174 180     0   0   0     0   0   0     0   0   0     0   0   0     0   0   0     0   0   0     0   0   0     0   0   0     0   0   0     0   0   0     0   0   0     0   0   0     0   0   0     0   0   0     0   0   0     0   0   0     0   0   0     0   0   0     0   0   0     0   0   0     0   0   0  
   0   0   0     0   0   0     0   0   0     0   0   0     0   0   0     0   0   0     0   0   0     0   0   0     0   0   0     0   0   0     0   0   0     0   0   0     0   0   0     0   0   0     0   0   0     0   0   0     0   0   0   164 163 168   162 161 166   160 158 161   159 157 158   157 156 157   161 161 163   167 168 172   169 173 176   167 172 176   167 172 177   169 174 180     0   0   0     0   0   0     0   0   0     0   0   0     0   0   0     0   0   0     0   0   0     0   0   0     0   0   0     0   0   0     0   0   0     0   0   0     0   0   0     0   0   0     0   0   0     0   0   0     0   0   0     0   0   0     0   0   0     0   0   0     0   0   0     0   0   0  
   0   0   0     0   0   0     0   0   0     0   0   0     0   0   0     0   0   0     0   0   0     0   0   0     0   0   0     0   0   0     0   0   0     0   0   0     0   0   0     0   0   0     0   0   0     0   0   0     0   0   0     0   0   0     0   0   0     0   0   0     0   0   0     0   0   0     0   0   0   167 168 172   168 171 176   167 172 178     0   0   0     0   0   0     0   0   0     0   0   0     0   0   0     0   0   0     0   0   0     0   0   0     0   0   0     0   0   0     0   0   0     0   0   0     0   0   0     0   0   0     0   0   0     0   0   0     0   0   0     0   0   0     0   0   0     0   0   0     0   0   0     0   0   0     0   0   0     0   0   0  
