P3
63 50
255
   0   0   0     0   0   0     0   0   0     0   0   0     0   0   0     0   0   0     0   0   0     0   0   0     0   0   0     0   0   0     0   0   0     0   0   0     0   0   0    93 105 131    89 103 129    86 102 127    88 104 129    91 107 132    91 107 132    86 102 127    82  98 123    82  96 122    81  95 121    81  91 116    78  89 111    79  85 107    76  83 101    76  81  99    75  81  97    79  82  97    80  83  98    80  83  98    82  85 100    84  87 102    88  91 106    88  94 110    90  96 110    91  99 113    92 100 112    92 102 113    92 104 114    91 104 118    87 104 117    87 103 119    84 103 119    81 100 120    77  99 120    72  94 118    67  91 115    63  89 114    62  88 113    62  89 116    63  89 114    68  89 116    69  89 114    71  88 114    70  87 113    72  86 113    72  86 113    74  85 113    74  85 113    73  84 112    74  85 113  
   0   0   0     0   0   0     0   0   0     0   0   0     0   0   0     0   0   0     0   0   0     0   0   0     0   0   0     0   0   0     0   0   0     0   0   0     0   0   0    90 105 128    88 103 128    87 103 128    89 105 130    92 107 132    92 107 132    88 104 128    85  99 124    84  98 123    84  96 119    82  92 116    80  88 111    78  85 104    75  82 100    75  80  96    73  79  95    79  82  97    79  82  97    80  83  98    80  84  99    83  87 102    84  90 105    87  93 110    87  95 111    84  94 110    84  95 111    85  98 113    86  99 115    85  99 116    83  99 116    81  99 118    79  99 120    75  97 119    72  95 118    67  91 115    62  88 114    60  86 112    58  85 113    58  85 113    60  86 113    65  90 113    67  90 113    68  89 113    71  89 114    72  89 115    73  90 115    75  89 115    75  90 116    75  89 116    74  89 115  
   0   0   0     0   0   0     0   0   0     0   0   0     0   0   0     0   0   0     0   0   0     0   0   0     0   0   0     0   0   0     0   0   0     0   0   0    83  95 117    86 101 124    85 100 123    84 100 125    86 102 126    89 104 127    89 104 127    86 101 124    84  97 120    80  92 115    81  90 112    78  88 109    77  85 105    76  82 101    75  80  98    76  79  96    76  79  95    77  80  95    77  80  95    78  81  96    78  83  98    80  86 102    82  88 105    85  91 109    84  94 112    79  93 113    78  94 116    79  96 117    81  98 119    80  98 121    79  98 121    77  99 121    76  99 123    70  93 118    67  92 118    63  90 116    60  87 114    57  86 113    55  85 113    55  85 113    57  84 111    62  88 111    62  88 110    65  88 111    66  89 112    69  90 113    71  90 114    72  90 115    73  91 115    76  93 118     0   0   0  
   0   0   0     0   0   0     0   0   0     0   0   0     0   0   0     0   0   0     0   0   0     0   0   0     0   0   0     0   0   0     0   0   0    80  92 114    84  95 119    80  95 118    81  96 119    81  96 120    82  98 121    86  98 122    85  97 120    81  94 117    81  92 113    76  85 105    76  84 103    75  82 101    74  81  97    73  78  95    73  77  92    75  77  92    74  76  91    71  74  89    72  75  90    71  76  92    72  78  94    74  81  98    76  84 103    79  87 106    78  90 111    75  91 118    74  92 121    75  95 123    77  97 125    77  98 127    76  99 126    76  99 126    74 100 126    68  93 120    67  92 121    63  90 119    61  88 116    59  87 115    58  85 114    58  85 114    58  85 112    60  87 108    60  87 106    61  88 107    63  88 108    66  88 110    67  89 111    68  90 112    68  90 112    74  94 116     0   0   0  
   0   0   0     0   0   0     0   0   0     0   0   0     0   0   0     0   0   0     0   0   0     0   0   0     0   0   0     0   0   0    75  86 106    78  90 112    81  93 117    78  93 116    79  94 117    80  95 118    83  95 117    82  94 116    81  92 113    81  89 110    80  88 107    79  87 105    79  85 101    76  82  98    72  78  92    71  74  89    68  72  85    68  70  83    67  69  82    65  68  83    65  68  83    64  70  86    65  72  90    68  75  94    71  79  98    73  84 104    72  87 110    70  87 117    69  89 122    71  91 124    71  94 126    75  95 128    74  97 128    74  97 128    74  97 128    70  93 124    69  93 121    67  93 120    65  92 119    64  90 118    63  89 117    63  89 117    63  89 115    63  88 110    64  89 109    64  89 109    64  89 109    67  89 110    67  89 110    68  89 110    67  89 110     0   0   0     0   0   0  
   0   0   0     0   0   0     0   0   0     0   0   0     0   0   0     0   0   0     0   0   0     0   0   0     0   0   0    67  78  97    69  82 102    72  84 106    73  85 107    78  89 112    79  91 112    80  92 113    81  92 111    81  89 109    79  86 105    77  84 103    78  82 101    77  83  97    77  81  93    73  77  89    69  73  85    65  67  80    62  64  76    59  62  74    59  60  72    58  61  74    58  61  75    58  64  79    59  67  84    64  71  90    68  76  97    70  81 103    69  83 109    68  84 117    68  86 122    70  89 122    72  92 124    75  94 126    75  96 127    75  96 127    75  96 124    74  93 123    74  94 121    73  93 118    72  92 117    71  91 116    71  91 115    70  90 114    70  90 114    67  89 110    67  89 110    67  89 110    67  88 109    67  87 109    66  86 108    68  85 108    66  86 107     0   0   0     0   0   0  
   0   0   0     0   0   0     0   0   0     0   0   0     0   0   0     0   0   0     0   0   0     0   0   0    61  72  90    64  75  93    65  78  97    68  80  99    68  81 100    75  86 108    76  87 107    77  87 107    78  85 104    76  83 102    76  80  99    74  79  97    75  78  94    71  75  87    69  73  84    67  71  81    63  67  77    61  62  74    58  60  71    56  58  69    55  57  69    55  57  70    55  59  71    55  61  77    56  63  81    60  67  86    64  72  93    67  78 100    66  79 104    69  83 112    70  84 116    73  88 119    76  91 120    77  92 122    79  95 122    80  95 123    81  95 121    79  94 119    79  93 117    79  94 116    78  93 115    79  92 114    78  92 112    78  91 110    77  91 110    73  87 110    71  87 110    69  86 108    68  85 107    67  83 106    66  82 105    66  82 105     0   0   0     0   0   0     0   0   0  
   0   0   0     0   0   0     0   0   0     0   0   0     0   0   0     0   0   0     0   0   0    63  72  86    64  75  89    64  74  90    66  76  92    69  79  96    72  82  99    72  82 101    73  83 101    72  79  98    70  76  93    71  75  93    74  77  93    73  76  92    70  72  86    66  70  81    65  69  78    64  67  76    62  65  74    61  61  71    59  59  69    57  57  67    55  56  67    54  56  68    56  59  72    56  60  76    54  61  78    57  64  82    63  71  91    65  74  96    64  74  98    67  77 102    70  80 105    75  84 111    79  88 114    80  90 115    82  92 117    85  94 118    86  94 118    87  96 117    88  97 116    89  97 116    89  97 114    89  96 113    87  95 111    86  93 110    85  91 110    80  90 113    78  89 114    75  88 113    73  86 110    71  84 109    70  83 107    70  83 108     0   0   0     0   0   0     0   0   0  
   0   0   0     0   0   0     0   0   0     0   0   0     0   0   0    66  66  76    63  68  78    64  69  80    62  70  81    63  70  83    65  73  87    69  76  93    73  81  97    66  74  90    68  75  91    66  72  89    65  69  84    65  68  84    68  70  84    69  69  83    64  66  79    63  67  78    62  66  75    60  65  71    58  62  69    57  59  67    55  57  65    56  56  65    55  55  65    53  53  66    55  56  70    55  58  73    53  59  75    56  61  80    62  69  88    65  72  92    65  72  92    66  74  94    71  78  98    77  83 105    82  88 108    85  90 111    87  93 113    88  94 113    90  95 115    92  98 115    92  99 115    94  98 115    94  98 113    94  98 113    92  95 111    90  94 109    89  92 111    86  92 117    82  92 118    80  89 118    78  89 115    76  87 114    75  87 112     0   0   0     0   0   0     0   0   0     0   0   0  
   0   0   0     0   0   0     0   0   0     0   0   0    68  61  68    69  68  73    67  69  74    65  68  75    64  69  75    65  69  78    65  72  82    68  74  86    70  76  89    64  70  84    67  70  85    65  68  83    63  65  78    63  65  78    68  67  81    67  66  80    63  63  75    58  62  73    57  61  70    55  59  68    53  58  64    53  56  63    52  55  62    54  54  62    55  55  63    52  52  62    55  55  67    54  56  69    54  57  72    57  60  77    62  67  86    66  71  90    66  71  90    67  73  89    72  78  92    80  83  98    86  89 104    89  92 107    92  95 112    92  96 113    94  98 115    93  96 111    94  97 112    95  98 113    95  98 115    96  97 115    95  98 114    94  96 113    91  96 115    88  95 121    85  94 123    83  94 122    82  93 120    79  92 119    78  92 118     0   0   0     0   0   0     0   0   0     0   0   0  
   0   0   0     0   0   0     0   0   0    67  57  65    70  63  67    71  66  69    69  67  67    69  69  70    68  69  72    69  69  74    68  71  77    67  69  78    65  69  80    64  67  79    65  67  80    63  65  78    59  61  74    62  61  75    65  63  76    64  62  75    59  59  71    52  57  67    49  57  65    47  54  62    48  53  62    49  53  59    50  53  60    53  53  61    54  54  62    52  52  62    55  55  67    57  57  69    55  57  70    59  61  76    65  68  85    69  72  89    68  71  88    71  75  87    75  79  91    80  86  98    85  91 103    88  94 106    91  97 111    93  99 113    95 101 115    97 103 119    97 103 119    97 103 120    96 101 120    97 100 120    94  99 118    94  96 117    90  96 118    87  97 124    84  98 127    82  97 126    81  96 125    79  96 124     0   0   0     0   0   0     0   0   0     0   0   0     0   0   0  
   0   0   0     0   0   0    69  62  69    70  60  68    75  66  71    71  65  64    69  64  62    67  64  62    66  65  64    67  65  69    66  66  70    63  63  70    59  61  70    60  62  72    61  63  74    58  60  72    55  55  68    56  54  67    58  56  69    57  55  68    52  52  63    46  53  63    44  53  62    43  50  58    42  49  57    45  50  56    47  50  57    52  52  60    53  53  61    53  53  63    56  56  65    58  58  70    58  58  71    62  61  76    68  71  85    72  74  91    71  74  88    77  82  93    78  86  95    82  90 100    86  93 103    89  95 107    90  99 111    95 101 116    96 104 120   103 110 127   103 110 129   101 110 129   100 108 128    97 105 127    94 101 125    91  98 123    89  97 123    85 100 127    83 101 129    80 101 131    80 102 129    79 101 130     0   0   0     0   0   0     0   0   0     0   0   0     0   0   0  
   0   0   0    67  60  67    69  61  68    69  59  67    74  65  70    72  64  62    68  62  59    64  59  57    62  58  57    62  59  61    61  60  64    60  59  65    57  57  65    59  59  69    58  59  70    56  56  68    51  51  63    51  50  63    52  51  64    52  50  61    46  46  56    43  50  60    41  50  59    40  49  56    40  47  54    43  48  54    46  49  55    51  52  58    54  53  60    56  55  62    59  58  65    61  60  69    61  60  72    65  65  78    71  73  86    75  77  92    74  77  91    81  88  98    82  91  99    85  93 103    87  95 106    88  96 109    90 100 114    95 102 120    96 106 125    99 109 129    99 109 131    98 110 133    97 110 132    95 107 133    93 105 132    91 103 130    89 102 130    84 103 132    82 104 134    81 105 135    81 105 134     0   0   0     0   0   0     0   0   0     0   0   0     0   0   0     0   0   0  
  57  50  53    62  53  59    64  55  61    66  56  62    68  59  64    67  58  60    65  56  58    61  55  58    58  53  56    58  53  59    55  53  61    54  53  62    52  53  64    52  54  65    50  54  65    50  51  63    47  48  61    45  47  59    45  46  58    45  46  56    42  45  55    41  47  57    40  47  57    39  46  54    40  46  52    44  46  51    49  49  54    54  55  58    59  58  62    61  59  63    63  61  66    64  63  70    65  64  73    68  68  80    70  72  85    75  77  92    76  79  94    83  89 100    84  92 102    86  94 109    88  95 114    88  96 119    90  97 122    91 100 126    92 102 128    92 104 129    93 106 131    97 111 134    97 112 135    96 111 137    94 109 136    92 108 135    89 107 136    84 107 137    82 107 137    82 107 135    82 107 135     0   0   0     0   0   0     0   0   0     0   0   0     0   0   0     0   0   0  
  54  43  47    56  45  51    59  48  54    60  51  56    62  53  58    62  53  58    59  53  57    58  51  58    55  50  56    51  48  57    49  48  56    48  48  58    46  48  60    45  49  61    44  48  59    43  47  58    42  46  57    41  45  56    41  45  54    43  46  55    43  47  56    41  45  54    41  45  54    42  45  52    42  45  50    46  46  48    50  50  50    56  54  55    59  57  58    65  63  64    66  64  67    67  66  71    68  68  76    70  70  82    72  74  87    75  78  93    78  81  96    80  86 100    81  89 102    84  91 110    86  92 116    86  93 122    87  93 127    87  96 129    88  99 129    91 102 130    93 107 133    95 111 134    97 113 136    95 113 137    94 111 137    91 111 138    89 110 139    88 111 142    86 112 139    85 109 137    87 108 135     0   0   0     0   0   0     0   0   0     0   0   0     0   0   0     0   0   0  
  50  41  44    52  43  48    55  46  51    57  48  53    59  50  55    59  53  57    58  52  56    56  49  56    53  48  54    49  46  55    47  46  54    45  45  55    43  46  55    42  44  55    41  43  54    39  41  52    38  40  49    38  40  49    40  42  49    44  44  52    44  47  54    42  45  52    43  46  51    46  47  52    48  47  52    50  49  51    54  51  52    59  55  56    62  58  57    69  65  66    69  67  70    69  68  73    70  70  78    72  72  82    73  75  88    76  79  94    79  82  97    78  84  98    80  86 100    81  88 107    83  89 113    84  91 120    86  92 124    86  95 128    87  98 128    93 104 132    93 107 133    95 111 134    96 112 134    95 113 137    94 111 137    92 112 139    92 113 142    92 116 144    90 114 142    91 112 141    91 112 139    92 112 137     0   0   0     0   0   0     0   0   0     0   0   0     0   0   0  
  49  41  44    51  43  47    53  45  49    56  48  53    56  50  55    59  54  58    58  53  57    55  50  57    50  48  55    48  47  55    47  45  54    45  45  55    42  44  54    40  42  51    38  40  49    36  38  47    36  35  43    37  37  44    40  39  44    44  42  47    46  44  49    47  45  49    49  47  51    53  50  52    56  52  55    59  55  55    61  57  56    65  61  59    67  63  61    70  66  65    69  67  68    70  69  74    70  70  77    71  71  81    72  74  87    74  77  92    77  80  95    76  82  94    78  84  98    79  86 105    81  87 111    82  89 118    85  91 122    87  95 126    89  98 128    94 106 132    93 108 131    94 111 131    95 112 132    94 112 134    95 112 138    95 114 141    96 115 145    98 118 147    97 117 144    96 116 143    96 116 140    96 115 138     0   0   0     0   0   0     0   0   0     0   0   0     0   0   0  
  46  40  42    48  42  44    50  44  46    52  47  51    54  49  53    56  51  57    55  50  56    52  48  55    49  46  53    46  45  53    45  44  52    43  43  53    42  42  51    41  41  50    39  40  46    38  38  45    38  36  42    38  37  41    42  39  41    45  42  44    48  43  45    52  45  46    55  47  48    59  51  50    62  54  53    64  56  54    66  60  57    69  63  60    71  65  62    71  66  64    70  67  68    70  68  72    69  70  75    70  70  80    70  72  85    73  76  90    75  78  93    74  80  92    75  81  95    76  83 102    78  84 108    80  86 115    83  90 119    85  94 123    88  98 126    94 106 131    95 108 131    95 111 131    96 113 132    96 113 136    97 114 139    99 116 144   100 118 147   101 120 146   100 119 144    99 118 143   100 118 142    99 116 141     0   0   0     0   0   0     0   0   0     0   0   0     0   0   0  
  42  38  38    45  40  41    47  42  43    49  45  47    51  46  50    52  47  53    51  46  52    47  44  51    46  42  50    42  41  50    41  41  48    40  40  49    40  40  47    40  39  47    39  38  44    40  38  43    40  38  42    43  40  41    47  41  42    49  43  44    52  45  44    59  49  48    63  50  47    65  52  50    66  54  51    65  55  51    67  58  54    70  61  57    71  63  60    71  66  63    71  67  68    70  68  71    69  70  75    69  69  77    69  71  83    71  75  87    74  78  91    71  77  89    72  78  92    74  80  98    75  81 104    78  84 111    81  88 116    84  94 121    88  98 125    93 105 128    95 108 127    96 111 130    97 114 132    98 114 137    98 115 140   100 117 145   101 118 146   101 119 143   101 117 142   100 117 142   100 116 141    99 115 140    96 112 137     0   0   0     0   0   0     0   0   0     0   0   0  
   0   0   0    45  41  42    47  43  44    49  45  46    51  47  48    50  45  49    49  44  50    48  43  49    44  41  48    43  40  47    41  40  46    41  40  48    40  41  46    38  37  43    38  37  42    41  39  42    44  41  42    48  42  42    51  45  43    54  47  45    57  48  46    69  55  52    71  56  52    71  57  52    72  57  52    69  57  51    69  58  52    70  61  56    71  63  60    72  67  64    72  68  69    71  69  72    69  70  75    70  70  78    69  72  81    71  75  86    74  78  90    74  78  90    74  80  94    76  81 100    78  83 105    80  86 112    84  89 118    87  95 123    90 100 125    93 104 124    95 108 125    96 112 128    99 115 131    99 116 136   100 116 141   100 117 143   101 118 144   100 116 141   100 116 139   100 116 141   100 116 141    99 115 140    95 113 137     0   0   0     0   0   0     0   0   0     0   0   0  
   0   0   0    42  38  37    43  39  38    44  40  39    45  41  42    49  42  46    48  43  46    47  42  45    44  42  47    43  41  46    41  40  45    40  39  45    40  39  44    41  39  44    42  40  43    46  41  45    46  42  43    48  42  42    52  44  42    57  47  45    60  49  45    68  53  48    71  54  47    72  55  48    72  57  50    73  60  54    73  62  56    74  65  60    74  66  63    73  69  66    74  70  72    74  72  74    70  71  76    68  68  76    67  70  79    73  75  87    77  81  92    74  78  90    75  78  93    75  80  99    78  83 105    82  88 112    88  94 120    92  99 125    94 105 127    93 104 122    94 107 123    95 111 126    98 114 130    98 114 134    98 114 137   100 116 142   101 117 143    99 115 140    98 114 137    95 113 137    94 112 136    94 111 137    93 110 136    91 108 136     0   0   0     0   0   0     0   0   0  
   0   0   0    40  35  34    41  37  35    43  39  37    46  40  39    45  38  40    46  39  41    47  40  42    46  41  44    46  41  44    43  41  45    43  40  45    41  40  42    42  40  43    43  41  42    46  42  43    47  43  42    51  43  41    53  46  42    58  50  44    61  51  46    71  53  49    73  54  49    73  56  50    73  58  54    74  61  56    74  63  60    75  65  63    72  67  64    69  65  64    69  67  68    70  70  72    68  69  73    67  67  75    68  70  78    73  75  84    78  80  91    76  80  92    76  79  94    77  81 100    80  85 105    85  89 113    89  95 118    92 100 123    95 103 124    95 107 123    97 109 123    99 112 127    97 113 128    95 110 129    93 109 132    93 109 135    93 109 135    98 115 139    96 114 137    95 112 137    93 112 136    93 111 137    90 110 136    87 107 135     0   0   0     0   0   0     0   0   0  
   0   0   0    39  34  31    41  36  33    45  39  36    48  41  39    48  39  38    50  40  40    52  42  42    52  44  46    53  45  47    50  44  47    49  43  46    46  43  45    45  42  44    45  43  44    49  45  45    49  45  44    52  45  43    55  47  44    59  51  47    63  53  48    71  54  51    73  54  51    73  56  53    73  58  56    73  61  58    73  63  61    72  66  63    72  67  65    71  68  68    71  70  71    71  71  74    69  70  74    69  70  76    71  71  79    75  75  83    77  79  88    76  79  91    77  80  95    79  82  99    82  86 106    85  90 111    89  94 115    91  98 118    92 101 119    92 104 118    94 106 118    96 110 122    96 111 125    94 109 128    92 107 130    91 107 133    91 106 134    94 112 137    93 112 136    92 110 136    90 110 136    89 109 136    86 107 135    83 104 133     0   0   0     0   0   0     0   0   0  
   0   0   0    40  33  30    43  35  33    48  39  37    50  41  39    56  43  41    58  45  42    58  47  46    58  49  48    57  49  48    53  47  48    52  45  46    49  45  45    48  44  45    49  45  46    50  46  45    50  47  45    52  47  44    53  48  44    57  51  47    61  51  49    66  52  50    68  51  51    69  53  52    70  56  55    68  58  56    68  59  60    67  63  61    66  63  63    70  69  70    69  70  72    70  71  75    69  70  74    70  71  76    71  72  77    75  74  81    76  76  85    77  79  90    78  80  95    80  83 100    84  87 106    85  90 110    89  94 114    89  96 115    89  98 114    86  98 111    89 101 111    91 105 115    93 107 118    91 106 123    91 106 127    90 106 132    90 106 134    88 107 133    86 106 133    85 105 132    82 105 133    81 104 132    80 102 132    77  99 130    74  96 126     0   0   0     0   0   0  
   0   0   0    45  36  34    47  38  37    52  42  41    54  44  42    63  49  44    64  49  45    64  51  45    62  51  47    60  50  48    57  49  47    52  46  46    50  44  44    51  47  48    52  48  49    52  48  47    51  47  46    51  46  43    52  47  44    54  49  45    59  51  48    63  49  49    64  50  50    65  51  51    64  52  54    63  54  55    63  57  59    61  59  60    60  60  62    61  62  63    62  63  65    63  65  68    65  66  70    68  69  74    72  73  78    75  74  80    76  76  84    80  81  93    81  83  98    84  87 104    88  91 109    88  93 113    90  95 115    89  96 114    88  97 112    88  98 110    88 101 110    88 102 111    88 102 113    85 101 117    85 100 121    85 101 127    85 102 130    81 102 129    78 102 130    77 100 128    75  99 127    75  98 129    74  97 128    73  96 127    71  94 125     0   0   0     0   0   0  
   0   0   0    52  40  40    53  41  41    56  44  44    58  47  45    68  53  48    68  53  46    68  53  48    66  52  49    62  52  50    59  51  48    56  51  48    55  50  47    53  49  48    53  49  48    53  49  48    51  47  46    50  46  43    50  46  43    52  48  45    54  49  46    60  48  50    63  48  51    62  50  52    62  51  55    60  54  56    60  55  59    59  57  60    59  58  63    57  58  62    56  60  63    60  61  65    63  64  68    68  69  73    72  73  77    75  74  79    75  76  81    79  79  90    79  82  96    83  86 102    87  89 108    87  92 111    87  92 112    85  92 110    83  93 106    86  97 107    85  99 107    84  97 107    82  97 108    79  94 111    79  94 115    81  95 122    80  97 125    80 101 130    75 100 129    72  97 127    71  96 125    71  96 127    72  97 128    72  97 128    72  95 126     0   0   0     0   0   0  
   0   0   0    55  43  41    57  45  43    59  47  45    62  47  44    70  54  48    73  55  50    71  56  51    71  57  51    67  56  51    65  54  52    62  54  50    61  55  52    57  51  48    55  51  47    53  50  46    52  48  45    50  47  43    50  46  43    50  46  43    51  47  44    58  49  47    60  49  48    60  50  51    59  51  51    58  53  53    58  54  54    58  56  58    58  57  58    60  60  62    61  61  63    62  62  64    65  66  69    70  68  73    72  71  75    74  73  77    75  73  79    75  75  84    75  77  88    78  81  92    81  84  98    84  87 103    83  88 106    81  88 104    79  88 103    81  93 106    80  94 106    79  94 107    76  93 109    74  92 111    75  92 116    76  94 120    77  95 123    78  99 127    75  97 124    72  95 122    70  93 120    71  94 120    73  95 122    74  95 125    75  95 123     0   0   0     0   0   0  
   0   0   0    56  43  38    59  46  41    62  48  44    65  50  45    71  53  49    74  56  52    77  60  56    76  61  56    72  58  53    67  55  50    63  53  49    62  54  50    62  53  49    59  53  48    56  52  46    55  52  46    54  52  47    51  50  45    49  48  43    47  46  41    53  49  45    56  49  45    56  50  47    55  50  46    55  50  46    56  51  48    58  54  52    59  56  54    62  59  59    65  62  62    67  65  66    68  67  69    70  68  71    70  68  71    72  70  73    73  72  77    72  73  78    73  75  81    74  77  85    77  80  90    80  84  95    80  86  99    78  86 100    76  87 101    78  90 106    76  91 107    75  92 111    74  92 113    72  92 115    71  92 116    70  92 117    70  92 117    73  93 118    74  93 116    73  92 115    72  91 114    73  90 114    73  90 114    75  91 115    75  91 115     0   0   0     0   0   0  
   0   0   0    57  44  38    60  47  41    63  49  44    65  50  45    73  55  49    75  58  51    78  60  55    76  61  55    74  59  54    69  56  50    65  54  49    63  54  48    62  53  48    60  53  47    57  52  48    55  53  47    55  53  48    52  50  45    49  48  44    46  45  40    48  45  40    50  45  41    50  47  42    51  47  43    52  47  44    55  50  47    57  53  52    60  56  54    58  55  56    62  60  60    66  64  67    70  68  70    69  68  72    67  66  70    66  65  69    65  64  69    67  68  73    70  72  79    75  78  86    78  81  90    77  81  92    74  80  92    74  82  95    71  83  97    74  86 102    72  86 103    71  87 106    71  88 108    68  87 110    66  87 111    65  86 110    64  85 109    69  87 110    70  88 110    71  88 111    72  88 111    73  89 112    74  90 113    75  90 113    75  90 113     0   0   0     0   0   0  
   0   0   0    59  46  40    62  49  43    65  52  46    68  53  48    71  54  47    74  55  49    75  58  51    77  60  53    77  59  55    74  59  54    72  59  53    69  59  52    64  53  49    62  53  48    60  52  49    58  53  49    57  52  48    54  51  46    51  47  44    48  44  41    45  41  38    46  43  38    47  44  39    48  45  40    49  45  42    51  47  44    55  51  50    55  54  52    51  49  50    56  54  55    62  60  63    65  65  67    66  65  70    65  64  69    65  64  69    63  64  69    61  64  71    66  69  76    72  75  84    73  77  88    70  76  88    70  76  88    71  79  92    73  83  95    69  81  95    69  82  98    70  83 100    68  83 102    66  83 103    64  81 102    61  79 100    60  78  99    64  82 104    66  84 106    69  85 108    72  88 111    74  90 113    76  92 115    77  92 115    77  92 115     0   0   0     0   0   0  
   0   0   0     0   0   0    62  48  45    66  52  49    68  53  48    72  55  47    74  55  48    75  56  49    76  59  51    78  61  54    76  61  54    74  59  54    73  59  54    65  54  50    62  53  48    61  51  49    59  51  48    58  49  48    54  49  46    51  45  45    48  44  41    46  42  39    47  43  40    47  43  40    45  44  40    45  44  42    46  45  43    49  47  48    51  49  49    52  50  53    53  53  55    57  56  61    59  57  62    59  58  64    59  60  65    60  61  66    61  62  68     0   0   0    62  65  74    65  69  80    66  70  81    63  69  81    65  72  84    69  77  89    74  83  95    68  77  91    67  79  92    67  79  94    66  79  94    66  79  95    63  79  94    62  77  96    61  76  95    64  81 101    66  83 103    70  85 106    74  89 110    77  92 113    79  94 115    80  95 116    81  96 117     0   0   0     0   0   0  
   0   0   0     0   0   0    62  48  45    65  52  49    69  54  49    76  59  50    76  58  47    75  57  49    77  58  50    77  60  52    76  59  52    72  57  51    70  55  50    67  53  50    63  52  48    60  49  47    57  47  45    56  46  45    54  45  44    52  43  44    48  42  42    47  43  40    46  43  41    45  44  41    44  43  40    43  42  41    44  43  41    45  44  46    48  46  47    53  53  55    53  53  55    54  54  58    54  54  58    52  53  58    53  54  59     0   0   0     0   0   0     0   0   0     0   0   0    58  62  73    58  63  73    58  64  75    60  67  78    64  72  82    67  75  85    65  72  85    64  73  85    64  73  85    62  74  87    63  75  88    64  75  89    66  77  92    65  77  93    66  80  98    66  83 100    70  85 105    74  89 107    78  93 113    81  96 114    84  98 119    85 100 118     0   0   0     0   0   0  
   0   0   0     0   0   0    62  48  45    65  51  48    68  53  48    77  59  49    76  57  45    74  56  46    75  57  47    76  59  51    77  60  52    72  57  50    70  55  49    69  55  51    64  52  48    59  48  46    56  45  43    54  43  43    53  43  42    52  42  43    51  42  43    46  42  41    45  44  42    45  44  42    44  43  41    43  41  42    44  42  43    46  46  48    48  48  50    49  49  51    50  50  52    51  52  56    52  53  57    52  53  58     0   0   0     0   0   0     0   0   0     0   0   0     0   0   0    51  58  68    52  59  68    54  61  71    56  63  72    56  63  73    56  63  72    62  68  79    61  69  79    60  68  78    60  69  80    62  70  81    64  74  84    68  77  88    68  79  91    68  80  97    68  82  99    71  84 102    74  87 104    78  91 109    83  96 113    86  99 117    88 101 118     0   0   0     0   0   0  
   0   0   0     0   0   0    60  48  45    61  50  47    64  51  45    72  55  45    72  55  42    72  54  44    72  55  45    72  55  47    73  56  48    69  54  47    69  54  47    66  53  47    63  50  45    59  46  43    53  42  39    52  41  39    51  40  38    51  40  40    50  41  40    47  42  40    45  42  40    44  43  40    44  43  40    44  42  41    45  43  42    46  45  46    46  45  46    46  46  48    46  46  48    47  47  51    48  48  52     0   0   0     0   0   0     0   0   0     0   0   0     0   0   0     0   0   0     0   0   0    48  54  60    49  53  63    51  57  63    53  58  67    56  61  68    57  62  71    58  63  73    61  66  75    61  68  77    63  68  77    63  71  79    67  72  81    65  75  84    71  80  96    69  82  98    71  84 100    74  87 103    79  91 108    83  95 111    85  97 114    85  98 114     0   0   0     0   0   0  
   0   0   0     0   0   0    57  46  44    59  48  46    62  48  45    69  52  44    69  52  42    69  52  42    69  52  42    69  52  44    66  52  43    66  51  44    66  51  44    64  51  45    62  49  43    58  44  41    55  41  38    51  40  36    50  39  37    51  40  38    50  40  38    46  41  38    45  41  38    45  41  38    44  43  39    44  43  41    44  43  41    44  42  43    45  43  44    45  43  46    44  44  46     0   0   0     0   0   0     0   0   0     0   0   0     0   0   0     0   0   0     0   0   0     0   0   0     0   0   0     0   0   0    46  49  56    48  53  57    53  56  63    55  60  66    57  62  68    59  64  70    62  67  73    64  69  75    65  70  76    65  70  76    66  71  77    65  72  80    72  82  94    71  83  97    73  85 101    76  88 102    79  91 107    81  93 107    82  95 111    84  98 111     0   0   0     0   0   0  
   0   0   0     0   0   0    54  44  42    57  46  44    59  46  43    64  49  42    64  49  41    64  49  41    64  49  41    64  49  41    64  49  41    64  49  42    63  50  42    62  49  41    59  47  39    55  44  38    52  41  35    50  39  33    50  39  34    49  40  34    50  41  36    44  39  34    45  40  35    45  40  36    45  42  37    45  41  38    45  41  38    45  41  39    45  41  40    45  41  42     0   0   0     0   0   0     0   0   0     0   0   0     0   0   0     0   0   0     0   0   0     0   0   0     0   0   0     0   0   0     0   0   0    46  47  52    46  50  53    52  53  58    53  56  61    59  62  67    61  64  69    64  67  72    65  68  73    65  68  73    66  69  74    67  70  75    67  71  80    68  76  87    70  80  92    75  84  99    78  88 100    77  89 102    79  91 103    83  95 109    87  99 111     0   0   0     0   0   0  
   0   0   0     0   0   0     0   0   0    53  42  40    54  43  40    58  46  39    58  46  37    60  45  39    59  47  38    60  46  38    59  47  38    60  48  39    60  48  39    58  46  38    56  46  37    53  44  34    51  42  32    50  39  32    49  40  30    49  40  30    49  40  32    45  38  31    43  38  31    44  39  34    45  40  35    45  40  35    44  40  36    45  39  36    43  39  37     0   0   0     0   0   0     0   0   0     0   0   0     0   0   0     0   0   0     0   0   0     0   0   0     0   0   0     0   0   0     0   0   0     0   0   0     0   0   0    47  48  51    51  52  55    53  54  57    60  61  65    60  63  68    63  65  70    64  66  71    63  66  71    64  67  72    65  69  74    67  72  78    63  70  81    67  76  88    73  82  94    75  85  96    75  85  96    76  87  98    81  93 104    86  98 109     0   0   0     0   0   0  
   0   0   0     0   0   0     0   0   0     0   0   0    51  41  39    54  43  38    54  44  36    56  44  38    55  45  37    56  44  37    56  46  37    56  46  37    56  46  37    54  45  34    53  45  34    52  44  33    50  42  31    49  41  31    48  40  28    48  40  28    48  40  28    47  38  30    46  38  30    46  38  31    46  39  32    46  39  33    45  39  34     0   0   0     0   0   0     0   0   0     0   0   0     0   0   0     0   0   0     0   0   0     0   0   0     0   0   0     0   0   0     0   0   0     0   0   0     0   0   0     0   0   0     0   0   0     0   0   0    52  51  53    53  53  55    58  58  60    59  60  63    60  61  65    61  62  66    60  63  68    62  65  70    64  67  72    65  70  76    64  71  81    67  75  86    71  79  90    71  80  90    70  80  90    70  80  90    72  85  94    76  89  98     0   0   0     0   0   0  
   0   0   0     0   0   0     0   0   0     0   0   0    47  37  36    49  39  36    49  40  35    50  41  35    50  41  34    51  41  35    52  43  35    52  43  34    52  43  35    51  42  31    50  43  31    50  43  30    48  42  28    47  41  28    47  40  26    47  40  26    48  40  27    48  39  30    47  38  29    47  37  28    44  36  27    45  36  30     0   0   0     0   0   0     0   0   0     0   0   0     0   0   0     0   0   0     0   0   0     0   0   0     0   0   0     0   0   0     0   0   0     0   0   0     0   0   0     0   0   0     0   0   0     0   0   0     0   0   0    51  49  51    51  51  52    53  53  55    55  55  57    55  56  60    56  57  61    56  59  64    58  61  66    61  65  70    63  68  74    63  71  81    63  71  82    65  73  84    65  73  84    65  75  85    65  75  85    66  76  86    67  78  88     0   0   0     0   0   0  
   0   0   0     0   0   0     0   0   0     0   0   0     0   0   0    46  36  34    46  36  34    46  37  32    47  38  33    48  39  32    49  40  33    49  40  33    49  40  31    48  41  31    48  41  31    48  42  30    48  42  30    47  41  27    47  41  27    46  40  26    46  40  28    50  41  32    49  39  30    46  36  27    45  35  26     0   0   0     0   0   0     0   0   0     0   0   0     0   0   0     0   0   0     0   0   0     0   0   0     0   0   0     0   0   0     0   0   0     0   0   0     0   0   0     0   0   0     0   0   0     0   0   0     0   0   0     0   0   0     0   0   0    51  49  50    51  49  52    51  51  53    53  52  57    53  54  58    55  56  61    58  59  64    60  63  68    62  67  73    59  64  73    57  65  75    58  65  75    60  68  79    63  71  82    65  75  85    66  76  86    66  76  86     0   0   0     0   0   0  
   0   0   0     0   0   0     0   0   0     0   0   0     0   0   0     0   0   0    45  36  31    46  37  32    46  37  32    46  37  32    46  37  32    46  39  33    46  39  31    49  42  34    47  41  33    46  42  33    46  42  33    46  42  33    47  42  34    48  44  35    49  43  35    48  39  32    48  39  32    48  39  32     0   0   0     0   0   0     0   0   0     0   0   0     0   0   0     0   0   0     0   0   0     0   0   0     0   0   0     0   0   0     0   0   0     0   0   0     0   0   0     0   0   0     0   0   0     0   0   0     0   0   0     0   0   0     0   0   0     0   0   0    50  44  46    50  44  48    51  46  49    53  48  54    54  52  57    57  55  60    58  57  62    60  59  65    59  60  65    59  59  67    60  62  71    62  66  74    64  68  79    63  69  80    62  71  80    62  72  82    63  73  83     0   0   0     0   0   0  
   0   0   0     0   0   0     0   0   0     0   0   0     0   0   0     0   0   0     0   0   0    45  36  31    45  37  32    45  37  32    45  38  32    45  38  32    44  38  32    44  38  33    43  38  33    42  37  32    42  37  32    42  38  32    43  38  33    44  39  34    44  39  33    48  41  35    49  40  33     0   0   0     0   0   0     0   0   0     0   0   0     0   0   0     0   0   0     0   0   0     0   0   0     0   0   0     0   0   0     0   0   0     0   0   0     0   0   0     0   0   0     0   0   0     0   0   0     0   0   0     0   0   0     0   0   0     0   0   0     0   0   0     0   0   0    47  41  45    47  42  46    49  44  50    49  47  52    51  49  54    52  51  56    53  51  58    53  52  58    55  55  63    58  58  66    59  62  71    61  65  74    62  66  77    61  68  78    61  69  80    61  71  82     0   0   0     0   0   0  
   0   0   0     0   0   0     0   0   0     0   0   0     0   0   0     0   0   0     0   0   0     0   0   0    44  36  33    44  36  33    44  37  34    44  37  34    43  38  34    40  35  31    40  36  31    39  35  31    38  35  30    39  36  31    39  36  31    40  37  32    41  37  32    46  40  35     0   0   0     0   0   0     0   0   0     0   0   0     0   0   0     0   0   0     0   0   0     0   0   0     0   0   0     0   0   0     0   0   0     0   0   0     0   0   0     0   0   0     0   0   0     0   0   0     0   0   0     0   0   0     0   0   0     0   0   0     0   0   0     0   0   0     0   0   0     0   0   0    45  41  45    46  42  48    46  44  49    47  46  51    49  48  53    50  49  55    50  49  55    51  51  59    54  54  62    57  58  68    57  60  71    58  62  74    57  63  75    58  65  78    58  67  80     0   0   0     0   0   0  
   0   0   0     0   0   0     0   0   0     0   0   0     0   0   0     0   0   0     0   0   0     0   0   0     0   0   0    42  36  33    41  36  33    41  36  33    41  37  34    38  34  30    38  34  30    38  34  30    36  35  30    36  35  30    36  35  30    37  36  32    40  37  32     0   0   0     0   0   0     0   0   0     0   0   0     0   0   0     0   0   0     0   0   0     0   0   0     0   0   0     0   0   0     0   0   0     0   0   0     0   0   0     0   0   0     0   0   0     0   0   0     0   0   0     0   0   0     0   0   0     0   0   0     0   0   0     0   0   0     0   0   0     0   0   0     0   0   0    41  40  41    42  40  43    42  42  45    45  43  48    46  47  51    48  49  53    49  50  55    51  50  59    53  53  62    55  55  67    55  56  68    54  58  70    51  57  69    52  58  72    52  60  73     0   0   0     0   0   0  
   0   0   0     0   0   0     0   0   0     0   0   0     0   0   0     0   0   0     0   0   0     0   0   0     0   0   0    40  35  32    41  36  33    40  36  33    40  36  33    39  35  32    39  35  32    36  35  31    36  35  31    36  35  31    37  36  32    38  37  33     0   0   0     0   0   0     0   0   0     0   0   0     0   0   0     0   0   0     0   0   0     0   0   0     0   0   0     0   0   0     0   0   0     0   0   0     0   0   0     0   0   0     0   0   0     0   0   0     0   0   0     0   0   0     0   0   0     0   0   0     0   0   0     0   0   0     0   0   0     0   0   0     0   0   0     0   0   0     0   0   0    37  37  39    38  38  40    39  40  44    42  43  47    45  46  50    47  48  53    52  51  59    54  52  63    55  55  67    56  56  68    53  55  68    50  54  66    50  53  68    49  55  69     0   0   0     0   0   0  
   0   0   0     0   0   0     0   0   0     0   0   0     0   0   0     0   0   0     0   0   0     0   0   0     0   0   0     0   0   0    39  35  34    39  35  34    39  35  34    37  36  34    37  36  34    36  35  33    36  35  33    37  36  34    37  36  34     0   0   0     0   0   0     0   0   0     0   0   0     0   0   0     0   0   0     0   0   0     0   0   0     0   0   0     0   0   0     0   0   0     0   0   0     0   0   0     0   0   0     0   0   0     0   0   0     0   0   0     0   0   0     0   0   0     0   0   0     0   0   0     0   0   0     0   0   0     0   0   0     0   0   0     0   0   0     0   0   0     0   0   0     0   0   0    35  36  38    37  38  40    39  40  42    40  44  47    44  45  49    51  50  58    53  52  60    55  55  65    55  55  67    53  55  68    51  55  67    51  55  67    51  55  67     0   0   0     0   0   0  
   0   0   0     0   0   0     0   0   0     0   0   0     0   0   0     0   0   0     0   0   0     0   0   0     0   0   0     0   0   0     0   0   0    39  35  34    39  35  34    37  35  34    36  35  33    35  35  33    35  35  33    35  35  33     0   0   0     0   0   0     0   0   0     0   0   0     0   0   0     0   0   0     0   0   0     0   0   0     0   0   0     0   0   0     0   0   0     0   0   0     0   0   0     0   0   0     0   0   0     0   0   0     0   0   0     0   0   0     0   0   0     0   0   0     0   0   0     0   0   0     0   0   0     0   0   0     0   0   0     0   0   0     0   0   0     0   0   0     0   0   0     0   0   0    36  36  38    36  37  40    39  40  42    40  43  46    43  44  48    50  49  55    52  50  58    54  53  63    54  54  64    55  55  66    53  55  67    53  55  67    52  56  68     0   0   0     0   0   0  
   0   0   0     0   0   0     0   0   0     0   0   0     0   0   0     0   0   0     0   0   0     0   0   0     0   0   0     0   0   0     0   0   0     0   0   0    39  35  34    39  35  34    39  35  34    37  34  33    36  35  33     0   0   0     0   0   0     0   0   0     0   0   0     0   0   0     0   0   0     0   0   0     0   0   0     0   0   0     0   0   0     0   0   0     0   0   0     0   0   0     0   0   0     0   0   0     0   0   0     0   0   0     0   0   0     0   0   0     0   0   0     0   0   0     0   0   0     0   0   0     0   0   0     0   0   0     0   0   0     0   0   0     0   0   0     0   0   0     0   0   0     0   0   0     0   0   0     0   0   0     0   0   0     0   0   0     0   0   0     0   0   0    53  51  57    55  53  60    55  54  63    56  55  64    54  55  66    54  55  66    52  55  65    50  52  64     0   0   0  
   0   0   0     0   0   0     0   0   0     0   0   0     0   0   0     0   0   0     0   0   0     0   0   0     0   0   0     0   0   0     0   0   0     0   0   0     0   0   0    41  37  34    40  35  33    40  35  33     0   0   0     0   0   0     0   0   0     0   0   0     0   0   0     0   0   0     0   0   0     0   0   0     0   0   0     0   0   0     0   0   0     0   0   0     0   0   0     0   0   0     0   0   0     0   0   0     0   0   0     0   0   0     0   0   0     0   0   0     0   0   0     0   0   0     0   0   0     0   0   0     0   0   0     0   0   0     0   0   0     0   0   0     0   0   0     0   0   0     0   0   0     0   0   0     0   0   0     0   0   0     0   0   0     0   0   0     0   0   0     0   0   0     0   0   0     0   0   0     0   0   0     0   0   0     0   0   0     0   0   0    56  57  65    55  56  66    56  56  64  
   0   0   0     0   0   0     0   0   0     0   0   0     0   0   0     0   0   0     0   0   0     0   0   0     0   0   0     0   0   0     0   0   0     0   0   0     0   0   0    44  36  34    42  37  34     0   0   0     0   0   0     0   0   0     0   0   0     0   0   0     0   0   0     0   0   0     0   0   0     0   0   0     0   0   0     0   0   0     0   0   0     0   0   0     0   0   0     0   0   0     0   0   0     0   0   0     0   0   0     0   0   0     0   0   0     0   0   0     0   0   0     0   0   0     0   0   0     0   0   0     0   0   0     0   0   0     0   0   0     0   0   0     0   0   0     0   0   0     0   0   0     0   0   0     0   0   0     0   0   0     0   0   0     0   0   0     0   0   0     0   0   0     0   0   0     0   0   0     0   0   0     0   0   0     0   0   0     0   0   0     0   0   0    60  59  66    61  59  66  
