P3
50 69
255
   0   0   0     0   0   0     0   0   0     0   0   0     0   0   0     0   0   0     0   0   0     0   0   0     0   0   0     0   0   0     0   0   0     0   0   0     0   0   0     0   0   0     0   0   0     0   0   0     0   0   0     0   0   0     0   0   0     0   0   0     0   0   0     0   0   0     0   0   0     0   0   0     0   0   0     0   0   0     0   0   0     0   0   0     0   0   0     0   0   0     0   0   0     0   0   0     0   0   0     0   0   0     0   0   0    76  60  59    74  60  56     0   0   0     0   0   0     0   0   0     0   0   0     0   0   0     0   0   0     0   0   0     0   0   0     0   0   0     0   0   0     0   0   0     0   0   0     0   0   0  
   0   0   0     0   0   0     0   0   0     0   0   0     0   0   0     0   0   0     0   0   0     0   0   0     0   0   0     0   0   0     0   0   0     0   0   0     0   0   0     0   0   0     0   0   0     0   0   0     0   0   0     0   0   0     0   0   0     0   0   0     0   0   0     0   0   0     0   0   0     0   0   0     0   0   0     0   0   0     0   0   0     0   0   0     0   0   0     0   0   0     0   0   0     0   0   0     0   0   0    74  61  59    76  60  60    78  60  60    77  60  59    74  61  57    70  58  52     0   0   0     0   0   0     0   0   0     0   0   0     0   0   0     0   0   0     0   0   0     0   0   0     0   0   0     0   0   0     0   0   0  
   0   0   0     0   0   0     0   0   0     0   0   0     0   0   0     0   0   0     0   0   0     0   0   0     0   0   0     0   0   0     0   0   0     0   0   0     0   0   0     0   0   0     0   0   0     0   0   0     0   0   0     0   0   0     0   0   0     0   0   0     0   0   0     0   0   0     0   0   0     0   0   0     0   0   0     0   0   0     0   0   0     0   0   0     0   0   0     0   0   0     0   0   0    66  56  52    71  59  55    75  60  59    78  60  60    78  58  59    76  60  57    73  61  55    70  58  52    70  59  53    73  62  56     0   0   0     0   0   0     0   0   0     0   0   0     0   0   0     0   0   0     0   0   0     0   0   0     0   0   0  
   0   0   0     0   0   0     0   0   0     0   0   0     0   0   0     0   0   0     0   0   0     0   0   0     0   0   0     0   0   0     0   0   0     0   0   0     0   0   0     0   0   0     0   0   0     0   0   0     0   0   0     0   0   0     0   0   0     0   0   0     0   0   0     0   0   0     0   0   0     0   0   0     0   0   0     0   0   0     0   0   0     0   0   0     0   0   0    60  53  45    62  55  49    66  56  51    71  58  55    74  59  58    77  59  59    77  57  58    76  58  58    72  60  55    69  58  54    69  58  54    72  61  57    72  60  57    70  59  55     0   0   0     0   0   0     0   0   0     0   0   0     0   0   0     0   0   0     0   0   0  
   0   0   0     0   0   0     0   0   0     0   0   0     0   0   0     0   0   0     0   0   0     0   0   0     0   0   0    70  53  46    71  52  46    71  52  46    70  51  45    67  49  42    63  46  36    59  45  34    58  45  34    60  48  36    57  46  34    56  46  36     0   0   0     0   0   0     0   0   0     0   0   0     0   0   0     0   0   0     0   0   0    61  51  44    58  50  43    60  53  45    61  54  48    64  56  51    70  58  54    73  58  57    77  58  59    78  56  58    75  57  57    71  59  55    68  57  53    69  58  54    70  59  55    70  59  55    68  57  54    65  55  52    64  54  52     0   0   0     0   0   0     0   0   0     0   0   0     0   0   0  
   0   0   0     0   0   0     0   0   0    65  51  43    65  52  44    66  51  44    67  52  45    67  52  45    67  52  45    69  53  46    72  53  49    72  51  47    71  52  46    68  50  43    66  48  38    63  46  36    60  47  33    61  49  36    57  46  35    56  46  36    57  47  38    56  47  38    55  45  39    56  42  36    59  43  36    61  46  41    63  51  45    61  51  44    58  50  43    59  54  46    61  54  48    65  55  51    70  57  54    75  58  57    77  57  58    78  56  58    75  56  57    71  58  57    68  57  55    68  57  55    68  57  55    68  57  55    67  55  54    65  54  53    63  53  52    63  53  52    61  52  53     0   0   0     0   0   0     0   0   0  
   0   0   0     0   0   0    65  52  44    63  50  42    63  50  42    66  51  44    67  52  45    66  51  44    67  52  45    69  52  45    71  52  48    72  51  47    71  52  45    69  51  42    68  50  40    65  49  36    64  48  35    62  49  35    58  47  35    57  47  35    57  47  37    57  48  39    57  47  40    58  45  38    61  44  37    62  47  42    64  52  46    61  52  45    58  53  45    60  56  47    61  54  48    64  56  51    69  58  54    75  58  57    77  57  58    78  56  58    74  56  56    69  57  55    67  56  54    67  56  54    66  55  53    65  54  53    65  53  53    64  54  53    63  53  52    62  52  53    60  50  52    59  50  51     0   0   0     0   0   0  
  61  51  42    62  52  43    60  50  41    60  47  39    62  49  41    66  51  44    65  50  44    65  50  43    67  50  44    69  52  45    69  50  46    70  49  45    71  50  45    70  50  44    69  51  41    67  51  38    65  50  35    63  50  35    58  47  35    57  47  37    58  48  39    58  48  40    57  47  41    60  45  38    63  46  39    64  49  44    65  53  47    63  53  46    61  53  45    62  57  49    61  54  48    65  56  51    70  58  54    75  59  58    79  57  59    79  55  58    75  55  56    69  55  55    67  55  55    66  54  54    65  53  53    64  52  52    64  52  54    64  53  55    63  53  54    61  50  54    60  49  53    59  50  53    59  50  53    59  50  53  
  60  51  42    59  50  41    57  48  39    57  47  38    60  48  40    64  51  43    65  50  44    65  50  43    66  50  43    69  52  45    68  49  45    68  49  45    70  51  44    70  52  42    70  52  42    68  52  39    66  51  35    64  50  36    61  48  36    59  46  37    60  47  39    60  48  42    60  48  42    63  47  40    64  47  40    64  49  44    66  54  48    64  54  47    63  54  47    65  57  49    63  54  47    65  56  49    70  58  53    75  59  56    78  58  57    78  57  56    74  56  57    68  55  55    67  55  55    66  54  54    64  52  52    63  51  51    63  52  53    63  53  54    63  53  54    61  51  52    59  50  50    58  49  50    59  50  50    59  50  51  
   0   0   0    60  51  42    60  51  42    60  51  42    61  51  42    60  50  41    62  49  41    64  49  42    66  50  43    69  50  44    69  51  47    70  52  47    70  53  46    70  53  43    69  52  42    67  51  38    67  51  38    66  50  38    62  47  36    60  46  37    63  45  41    64  45  44    63  45  43    64  45  42    60  45  38    60  45  38    63  48  41    67  54  46    69  55  48    69  56  48    69  56  48    69  56  50    71  57  52    72  57  52    73  55  51    72  54  50    71  56  54    70  57  58    66  55  56    63  51  53    62  52  53    62  52  53    65  55  54    63  53  52    62  54  52    62  54  52    59  50  51    58  49  50    57  50  50    58  52  52  
   0   0   0     0   0   0    59  52  42    60  51  42    59  50  41    60  50  41    61  50  41    63  49  42    66  50  43    68  51  44    67  49  45    65  51  43    66  52  43    67  51  41    67  50  40    66  50  37    66  50  37    66  49  39    63  46  38    62  45  38    64  45  41    65  45  44    64  45  44    62  46  42    60  45  38    60  45  38    63  48  41    68  53  46    70  55  48    70  55  48    70  55  48    71  56  49    72  57  50    72  57  50    71  56  49    71  56  49    69  56  52    68  56  57    66  53  56    64  52  54    63  53  54    63  53  54    65  55  54    63  54  52    62  54  52    61  53  51    59  51  49    58  50  48    57  51  48    58  53  50  
   0   0   0     0   0   0     0   0   0    59  51  41    59  50  41    59  49  40    60  49  40    62  48  41    65  49  42    67  50  43    64  47  40    65  48  41    66  49  41    67  50  40    66  49  39    66  49  39    65  48  38    65  48  38    62  46  37    62  45  38    63  45  41    64  45  44    63  45  44    62  46  42    61  46  39    61  46  39    64  49  42    68  53  46    70  55  48    70  55  48    70  55  48    71  56  49    72  57  50    72  57  50    71  56  49    71  56  49    69  55  51    67  54  55    65  53  55    65  53  55    64  54  53    64  54  53    64  54  53    62  53  51    61  53  51    61  53  51    58  50  48    55  50  47    55  50  48    57  52  49  
   0   0   0     0   0   0     0   0   0     0   0   0    58  49  40    59  49  40    59  49  40    61  49  41    63  49  42    67  50  43    63  46  39    63  46  39    66  49  41    66  49  40    66  49  39    66  49  39    65  48  38    65  48  39    62  46  38    62  45  38    63  45  41    64  46  45    64  46  45    61  45  41    62  47  40    62  47  40    65  50  42    67  52  45    69  54  47    70  55  48    71  56  49    71  56  49    72  57  50    72  57  50    71  56  49    71  56  49    68  55  51    65  53  54    65  54  55    66  54  56    65  55  54    65  55  54    64  54  53    61  52  51    61  53  51    60  52  50    57  50  48    55  50  47    55  50  47    57  52  49  
   0   0   0     0   0   0     0   0   0     0   0   0     0   0   0    57  48  39    58  48  39    60  48  40    62  49  40    64  49  42    63  46  39    64  47  40    66  49  42    67  50  42    67  50  42    66  49  41    65  48  40    64  47  39    60  45  37    59  44  39    61  46  43    62  47  45    62  46  45    61  46  41    62  47  40    64  49  42    66  51  43    68  53  46    69  54  47    70  55  48    72  57  50    72  57  50    72  57  50    71  56  49    72  57  50    72  57  50    69  57  52    65  55  53    65  55  55    67  57  56    66  56  55    64  55  54    63  55  53    61  52  51    60  52  50    60  52  50    57  50  47    54  49  46    55  50  47    56  51  48  
   0   0   0     0   0   0     0   0   0     0   0   0     0   0   0     0   0   0    57  48  39    59  49  40    61  49  40    63  50  42    62  47  40    65  48  41    67  50  43    67  50  42    67  50  42    66  49  41    65  48  40    63  46  38    60  44  37    59  44  39    60  45  42    62  47  45    62  46  45    61  46  41    63  48  41    65  50  43    66  51  44    67  52  45    68  53  46    70  55  48    73  58  51    72  57  50    72  57  50    71  56  49    72  57  50    72  57  50    70  58  53    67  57  55    67  57  56    67  57  56    67  57  56    64  55  54    63  55  53    61  52  51    60  52  50    60  52  50    57  50  47    54  49  46    55  50  47    56  51  48  
   0   0   0     0   0   0     0   0   0     0   0   0     0   0   0     0   0   0     0   0   0    58  47  41    59  48  42    62  49  43    63  48  41    65  48  41    66  49  42    66  49  42    65  48  41    62  47  40    62  47  40    61  46  39    58  43  38    59  44  39    59  45  42    61  47  44    61  47  44    61  46  42    63  48  41    66  51  44    67  52  45    67  52  45    68  53  45    70  55  48    73  58  51    72  57  50    72  57  50    71  56  49    72  57  50    72  57  50    72  59  54    70  60  57    69  59  58    68  58  57    65  57  55    64  55  54    63  55  53    60  54  51    59  54  51    58  52  52    56  50  50    55  49  49    55  49  49    57  51  51  
   0   0   0     0   0   0     0   0   0     0   0   0     0   0   0     0   0   0     0   0   0     0   0   0    59  48  42    62  49  43    63  48  41    65  48  41    66  49  42    65  48  41    64  47  40    61  46  39    60  45  38    60  45  39    58  43  38    57  44  38    59  45  42    61  47  44    61  48  43    61  46  40    63  48  41    67  52  45    68  53  45    67  52  45    68  53  45    70  55  48    73  58  51    73  58  50    72  57  50    71  56  49    72  57  50    73  58  51    72  60  54    72  62  59    70  60  59    68  58  57    65  57  55    64  55  54    63  55  53    60  54  51    59  54  51    59  53  53    56  50  50    55  49  49    55  50  50    57  51  51  
   0   0   0     0   0   0     0   0   0     0   0   0     0   0   0     0   0   0     0   0   0     0   0   0     0   0   0    62  49  43    61  46  39    64  47  40    66  49  42    66  49  42    65  48  41    61  46  41    60  46  40    59  46  41    59  45  42    58  44  41    60  46  43    60  50  45    60  48  44    60  46  41    64  49  43    68  53  46    67  52  45    69  54  47    70  55  49    70  55  48    79  64  57    76  61  54    73  58  51    71  56  49    72  57  50    73  58  51    73  61  55    70  62  58    65  57  54    63  55  52    63  55  52    63  55  52    64  56  54    62  56  55    60  54  54    57  51  51    54  49  49    54  50  51    56  52  53    59  55  56  
   0   0   0     0   0   0     0   0   0     0   0   0     0   0   0     0   0   0     0   0   0     0   0   0     0   0   0     0   0   0    64  47  39    65  48  40    65  48  41    64  47  40    63  46  39    61  46  41    59  45  40    59  45  42    59  45  42    56  45  41    58  47  43    60  49  45    59  48  43    58  46  38    64  49  42    68  53  46    68  53  46    70  55  48    72  57  50    72  57  50    79  64  57    77  62  55    75  60  53    73  58  51    73  58  51    73  58  51    72  61  55    69  61  57    65  57  54    63  55  52    63  55  52    63  55  52    63  55  53    60  53  53    57  51  51    55  49  49    54  48  48    54  50  51    55  51  52    58  54  55  
   0   0   0     0   0   0     0   0   0     0   0   0     0   0   0     0   0   0     0   0   0     0   0   0     0   0   0     0   0   0     0   0   0    65  48  40    64  47  40    61  45  40    60  45  40    59  44  41    58  44  41    58  44  43    56  45  43    56  45  43    57  46  42    59  50  44    58  48  42    59  47  39    64  49  42    68  53  46    68  53  46    71  56  49    73  58  51    74  59  52    79  64  57    78  63  55    77  62  55    75  60  53    74  59  52    74  59  52    71  59  53    68  60  54    65  57  51    63  56  50    62  57  53    60  55  52    60  55  52    55  50  49    54  48  48    53  49  50    53  49  50    54  50  51    55  50  54    57  52  56  
   0   0   0     0   0   0     0   0   0     0   0   0     0   0   0     0   0   0     0   0   0     0   0   0     0   0   0     0   0   0     0   0   0     0   0   0    63  46  39    60  44  39    58  43  38    58  43  40    58  44  41    57  44  43    56  45  43    54  44  42    56  47  42    59  50  44    59  49  42    60  48  40    65  51  44    68  53  46    69  54  47    72  57  50    75  60  53    76  61  54    79  64  57    79  64  57    79  64  57    77  62  56    76  61  54    74  59  52    70  59  51    66  58  52    64  57  51    63  56  50    62  57  53    60  55  52    58  53  50    53  48  47    53  47  47    52  48  49    54  50  51    56  52  53    56  51  54    57  52  56  
   0   0   0     0   0   0     0   0   0     0   0   0     0   0   0     0   0   0     0   0   0     0   0   0     0   0   0     0   0   0     0   0   0     0   0   0     0   0   0    59  43  38    58  43  40    57  43  42    57  43  42    57  44  44    56  45  43    54  44  42    57  48  43    59  52  45    59  51  43    61  49  41    66  52  44    70  55  48    70  55  48    73  58  51    77  62  55    78  63  56    79  64  57    79  64  57    80  65  58    79  64  57    77  62  55    75  60  53    71  59  52    66  58  50    63  56  50    63  56  50    61  56  52    59  54  50    58  53  50    53  48  47    52  48  47    54  50  51    55  51  53    55  53  56    55  54  57    56  54  57  
   0   0   0     0   0   0     0   0   0     0   0   0     0   0   0     0   0   0     0   0   0     0   0   0     0   0   0     0   0   0     0   0   0     0   0   0     0   0   0    60  44  39    59  44  41    58  44  43    57  44  43    56  44  44    55  45  43    55  45  43    56  49  43    60  53  46    60  52  44    63  51  44    69  54  47    71  56  49    71  56  49    74  59  52    78  63  56    79  64  57    80  65  58    80  65  58    80  65  58    79  64  57    77  62  55    75  60  53    71  59  52    66  58  50    62  56  49    61  54  48    59  54  50    59  54  50    58  53  50    54  50  48    53  49  48    54  50  51    55  52  54    56  54  57    56  54  57    57  55  58  
   0   0   0     0   0   0     0   0   0     0   0   0     0   0   0     0   0   0     0   0   0     0   0   0     0   0   0     0   0   0     0   0   0     0   0   0     0   0   0     0   0   0    60  45  42    58  44  43    57  44  44    56  44  44    56  45  45    56  46  44    57  50  44    61  54  47    61  53  45    65  53  45    70  56  49    73  58  51    72  57  50    74  59  52    78  63  56    79  64  57    80  65  58    80  65  58    80  65  58    78  63  56    77  62  55    76  61  54    72  60  52    66  58  50    60  55  48    57  52  46    58  53  47    58  53  49    58  53  50    55  51  49    54  50  49    54  50  51    55  51  53    55  53  56    55  54  57    56  54  57  
   0   0   0     0   0   0     0   0   0     0   0   0     0   0   0     0   0   0     0   0   0     0   0   0     0   0   0     0   0   0     0   0   0     0   0   0     0   0   0     0   0   0     0   0   0    60  44  44    58  44  43    58  45  44    57  46  44    56  46  44    59  50  45    61  54  48    61  53  47    66  54  47    72  58  51    73  58  51    72  57  50    74  60  51    78  64  55    79  65  56    81  67  58    79  66  58    79  66  58    77  64  56    76  63  57    75  62  56    71  61  55    65  58  52    60  54  50    56  51  47    56  51  47    57  52  48    58  53  50    56  51  50    54  50  49    54  50  51    54  50  51    54  51  52    54  52  53    56  54  55  
   0   0   0     0   0   0     0   0   0     0   0   0     0   0   0     0   0   0     0   0   0     0   0   0     0   0   0     0   0   0     0   0   0     0   0   0     0   0   0     0   0   0     0   0   0     0   0   0    61  46  41    61  47  44    60  47  44    60  49  45    61  52  47    61  54  48    63  55  49    67  54  49    74  56  50    79  60  53    80  63  55    82  65  55    83  68  57    85  71  60    78  66  54    77  67  57    77  67  58    75  66  58    74  65  60    73  65  62    72  64  61    66  59  57    59  54  51    54  49  46    52  47  44    51  46  44    53  47  47    54  48  48    54  48  48    54  48  48    54  48  48    55  49  50    55  50  52    56  50  52  
   0   0   0     0   0   0     0   0   0     0   0   0     0   0   0     0   0   0     0   0   0     0   0   0     0   0   0     0   0   0     0   0   0     0   0   0     0   0   0     0   0   0     0   0   0     0   0   0    62  45  39    60  45  40    60  45  42    60  49  45    61  52  47    62  53  49    63  54  50    68  55  50    75  59  52    79  62  54    81  64  55    81  66  54    81  67  54    83  71  57    78  68  56    76  67  55    75  67  57    73  66  58    73  66  60    71  66  62    69  63  61    63  57  57    58  52  52    54  48  48    51  45  45    50  44  44    51  45  45    53  47  47    54  48  48    54  48  48    55  49  49    56  50  50    56  50  50    57  51  51  
   0   0   0     0   0   0     0   0   0     0   0   0     0   0   0     0   0   0     0   0   0     0   0   0     0   0   0     0   0   0     0   0   0     0   0   0     0   0   0     0   0   0     0   0   0     0   0   0     0   0   0    58  43  38    59  45  41    62  48  45    62  51  47    62  53  48    63  55  49    69  57  52    76  59  55    80  63  56    80  66  57    81  68  56    80  69  57    81  71  59    80  71  59    76  68  55    74  65  55    73  65  57    74  67  61    73  65  62    68  60  59    60  54  54    57  51  51    54  48  48    51  45  45    50  44  44    49  43  43    52  46  46    54  48  48    54  48  48    55  49  49    57  51  51    57  51  51    57  51  51  
   0   0   0     0   0   0     0   0   0     0   0   0     0   0   0     0   0   0     0   0   0     0   0   0     0   0   0     0   0   0     0   0   0     0   0   0     0   0   0     0   0   0     0   0   0     0   0   0     0   0   0     0   0   0    59  45  41    61  49  46    61  52  47    62  53  48    63  55  50    68  58  52    74  61  55    77  64  56    80  66  58    81  69  59    80  70  59    82  72  60    81  73  60    76  68  55    73  65  54    73  65  55    74  67  59    72  64  59    66  59  56    59  53  52    57  51  51    55  49  49    53  47  47    50  44  44    49  43  43    51  45  45    53  47  47    55  49  49    56  50  50    58  52  52    58  52  52    58  52  52  
   0   0   0     0   0   0     0   0   0     0   0   0     0   0   0     0   0   0     0   0   0     0   0   0     0   0   0     0   0   0     0   0   0     0   0   0     0   0   0     0   0   0     0   0   0     0   0   0     0   0   0     0   0   0     0   0   0    64  51  44    62  51  47    62  54  48    64  57  51    68  59  54    71  60  56    74  63  57    78  68  59    81  72  62    83  75  64    83  75  64    82  74  63    76  69  57    72  66  54    72  65  55    73  66  56    69  63  55    64  58  53    59  53  52    57  51  51    56  50  50    54  48  48    51  45  45    50  44  44    50  44  44    53  47  47    55  49  49    57  51  51    59  53  53    59  53  53    59  53  53  
   0   0   0     0   0   0     0   0   0     0   0   0     0   0   0     0   0   0     0   0   0     0   0   0     0   0   0     0   0   0     0   0   0     0   0   0     0   0   0     0   0   0     0   0   0     0   0   0     0   0   0     0   0   0     0   0   0    64  51  45    62  51  47    62  54  49    66  59  53    68  61  55    69  62  56    71  64  58    76  69  61    80  73  64    82  75  65    82  74  63    82  74  63    78  70  59    74  68  56    73  66  55    71  64  54    68  61  51    63  57  50    59  53  52    57  51  51    55  49  49    54  48  48    51  45  45    50  44  44    50  45  45    52  46  46    55  49  49    58  52  52    60  54  54    60  54  54    60  54  54  
   0   0   0     0   0   0     0   0   0     0   0   0     0   0   0     0   0   0     0   0   0     0   0   0     0   0   0     0   0   0     0   0   0     0   0   0     0   0   0     0   0   0     0   0   0     0   0   0     0   0   0     0   0   0     0   0   0     0   0   0    62  51  45    64  53  47    68  60  53    71  64  58    72  64  61    72  64  61    76  69  63    79  72  65    79  72  64    77  70  60    79  72  62    78  71  60    77  71  59    75  67  56    70  62  51    67  59  48    62  56  49    58  52  51    56  50  50    53  47  47    52  46  46    50  44  44    50  44  44    50  44  44    52  46  46    55  49  49    58  52  52    61  55  55    61  55  55    61  55  55  
   0   0   0     0   0   0     0   0   0     0   0   0     0   0   0     0   0   0     0   0   0     0   0   0     0   0   0     0   0   0     0   0   0     0   0   0     0   0   0     0   0   0     0   0   0     0   0   0     0   0   0     0   0   0     0   0   0    66  53  47    62  51  45    64  54  47    70  61  54    74  66  60    72  67  63    72  67  63    74  69  64    76  71  65    75  70  62    72  68  59    77  70  60    79  72  62    78  72  60    75  67  56    69  61  50    66  58  47    61  55  46    57  51  49    55  48  48    51  45  45    50  44  44    49  43  43    49  43  43    50  44  44    52  46  46    55  49  49    60  53  53    62  56  56    62  56  56    61  55  55  
   0   0   0     0   0   0     0   0   0     0   0   0     0   0   0     0   0   0     0   0   0     0   0   0     0   0   0     0   0   0     0   0   0     0   0   0     0   0   0     0   0   0     0   0   0     0   0   0     0   0   0    67  49  45    67  51  46    68  53  48    68  55  47    70  58  50    72  63  55    74  67  60    72  67  63    73  68  64    75  70  65    76  71  65    75  70  64    73  68  62    76  69  61    78  70  62    76  69  59    72  65  54    71  63  52    68  59  47    64  55  48    59  52  50    54  48  48    52  46  46    51  45  45    50  44  44    52  46  46    54  48  48    54  48  48    54  48  48    57  51  51    62  56  56    63  57  57    62  56  56  
   0   0   0     0   0   0     0   0   0     0   0   0     0   0   0     0   0   0     0   0   0     0   0   0     0   0   0     0   0   0     0   0   0     0   0   0     0   0   0     0   0   0     0   0   0     0   0   0    64  46  42    67  49  45    68  52  47    69  54  49    69  56  48    71  59  51    72  63  55    74  66  60    71  66  62    71  66  62    73  68  64    75  70  64    73  68  62    74  67  61    74  67  61    75  69  60    73  66  57    70  62  52    69  61  50    65  58  45    60  54  46    56  50  48    52  46  46    51  45  45    50  44  44    48  42  42    50  44  44    52  46  46    53  47  47    53  47  47    57  51  51    61  55  55    63  57  57    62  56  56  
   0   0   0     0   0   0     0   0   0     0   0   0     0   0   0     0   0   0     0   0   0     0   0   0     0   0   0     0   0   0     0   0   0     0   0   0     0   0   0     0   0   0    62  49  43    64  49  44    65  49  44    67  49  45    69  53  47    71  56  49    71  58  50    72  60  51    72  62  53    73  64  56    73  64  59    73  64  59    74  65  61    76  66  64    75  65  62    73  63  61    73  63  61    73  65  59    70  63  55    66  60  50    65  58  48    63  57  45    58  52  43    53  47  45    50  43  43    49  43  43    48  42  42    46  40  40    48  42  42    50  44  44    51  45  45    53  47  47    56  50  50    61  55  55    63  57  57    63  57  57  
   0   0   0     0   0   0     0   0   0     0   0   0     0   0   0     0   0   0     0   0   0     0   0   0     0   0   0     0   0   0     0   0   0     0   0   0     0   0   0    60  50  44    64  52  46    67  52  47    67  51  46    68  50  46    70  54  48    72  57  50    72  59  51    72  60  51    72  62  53    73  63  54    72  61  55    72  61  55    73  62  58    75  64  61    72  62  61    70  60  58    72  62  60    72  63  60    68  61  54    65  57  50    63  56  46    61  54  44    56  50  43    52  46  45    48  42  42    49  43  43    48  42  42    46  40  40    48  42  42    50  44  44    51  45  45    52  46  46    56  50  50    60  54  54    62  55  55    63  57  57  
   0   0   0     0   0   0     0   0   0     0   0   0     0   0   0     0   0   0     0   0   0     0   0   0     0   0   0     0   0   0     0   0   0    53  45  40    56  46  42    60  47  43    63  49  46    66  51  46    66  50  45    69  52  45    72  55  48    75  58  51    73  59  50    73  59  50    74  61  52    74  61  52    73  60  52    73  60  52    74  61  56    74  62  59    71  61  58    70  58  58    71  61  60    70  60  59    68  58  55    63  55  50    62  55  47    60  53  45    56  50  45    51  46  44    49  43  43    49  43  43    49  43  43    47  41  41    48  42  42    50  44  44    51  45  45    53  47  47    56  50  50    58  52  52    60  54  54    63  57  57  
   0   0   0     0   0   0     0   0   0     0   0   0     0   0   0     0   0   0     0   0   0     0   0   0     0   0   0    53  42  36    50  41  36    50  43  37    52  43  38    54  44  39    59  45  42    62  47  42    64  49  43    69  52  45    72  55  48    74  57  50    72  58  49    73  59  50    74  61  52    75  61  52    75  61  52    74  60  51    75  60  54    76  61  57    73  60  58    69  57  57    70  58  58    69  59  58    66  56  54    61  53  48    60  53  47    58  51  43    54  48  43    50  45  43    49  43  43    50  44  44    49  43  43    48  42  42    48  42  42    50  44  44    52  46  46    54  48  48    56  50  50    58  52  52    59  53  53    62  56  56  
   0   0   0     0   0   0     0   0   0     0   0   0     0   0   0     0   0   0     0   0   0     0   0   0    54  40  35    53  42  36    51  44  38    51  43  39    53  43  38    56  43  39    58  44  41    61  46  41    64  48  43    70  53  46    72  55  48    72  55  48    71  57  48    72  58  50    75  61  52    77  61  51    78  60  50    78  59  52    78  60  55    77  60  58    75  58  59    71  57  57    68  56  58    67  55  57    63  53  52    58  49  47    57  49  46    54  49  43    51  46  43    49  44  42    48  42  42    49  43  43    49  43  43    47  41  41    48  42  42    51  45  45    54  48  48    56  50  50    57  51  51    57  51  51    58  52  52    61  55  55  
   0   0   0     0   0   0     0   0   0     0   0   0     0   0   0     0   0   0    54  40  37    54  40  36    55  42  35    54  43  39    56  47  42    56  46  42    57  46  41    58  46  40    62  47  42    63  48  43    66  50  43    71  54  47    72  55  48    70  55  48    70  56  47    71  58  49    75  61  52    77  61  51    78  61  51    77  60  52    78  61  55    78  61  60    75  58  59    71  57  57    66  54  56    65  54  55    61  51  50    56  47  45    55  47  44    54  47  41    51  44  39    50  42  39    49  41  39    48  43  40    48  43  40    46  41  38    47  41  40    51  45  45    55  49  49    57  51  51    57  50  50    57  51  51    58  52  52    61  55  55  
   0   0   0     0   0   0     0   0   0     0   0   0     0   0   0    57  43  42    55  41  40    53  39  37    53  39  35    55  41  38    57  43  40    60  45  40    59  44  39    59  44  39    65  50  44    69  54  47    68  53  46    68  54  46    68  54  45    68  54  45    70  56  47    71  57  48    73  60  51    74  60  51    75  60  53    76  61  54    77  62  57    75  60  58    71  57  57    67  55  55    69  57  57    64  53  52    58  48  47    54  44  42    53  43  41    53  44  39    53  43  39    51  40  36    50  39  37    48  40  37    48  40  37    49  41  38    49  44  40    52  48  45    54  50  47    54  49  46    55  49  47    58  49  50    60  51  52    63  53  54  
   0   0   0     0   0   0     0   0   0    55  39  41    57  41  42    57  43  43    55  41  40    54  40  38    53  39  36    55  42  36    58  43  38    62  45  38    61  44  37    60  44  37    66  49  42    68  53  46    67  52  45    67  53  44    67  53  44    67  53  44    68  55  46    70  56  47    72  59  50    73  60  52    75  62  54    75  62  56    75  62  57    73  59  57    69  56  56    66  54  54    67  55  55    63  52  52    58  48  47    55  45  43    53  43  41    53  44  39    55  43  38    54  41  35    52  40  35    50  41  36    51  42  37    50  43  38    50  45  41    52  48  44    54  50  47    55  50  47    56  51  49    60  52  53    62  53  54    65  55  56  
   0   0   0     0   0   0     0   0   0    55  39  40    56  40  41    56  42  42    55  40  40    54  40  38    54  40  37    56  41  36    60  43  36    61  44  36    61  44  36    60  44  36    65  48  41    66  51  44    65  50  44    65  50  43    64  50  43    65  52  44    67  54  46    69  56  48    71  58  50    73  60  52    75  62  54    76  63  57    75  60  58    73  59  58    67  55  55    64  52  52    65  53  53    63  51  51    59  49  48    56  46  44    54  44  42    53  44  39    54  42  39    55  41  38    55  41  38    53  42  38    52  43  38    51  45  40    51  46  42    52  47  44    53  49  46    55  51  48    58  53  51    62  55  55    65  55  57    65  56  57  
   0   0   0     0   0   0     0   0   0    56  40  41    56  40  40    55  41  40    55  40  38    54  41  36    54  41  35    55  42  34    58  44  35    60  43  35    60  43  35    61  44  36    64  47  39    64  49  42    65  50  43    65  50  43    64  50  43    65  52  44    67  54  46    70  56  48    72  59  51    74  61  53    75  62  54    75  62  56    74  61  56    72  58  56    66  54  53    63  51  51    63  51  51    62  50  50    60  50  49    57  47  46    55  45  43    53  44  39    54  42  39    56  41  38    55  41  38    55  41  38    54  43  39    53  44  40    52  45  42    50  46  43    52  48  45    55  51  48    59  54  52    62  56  56    64  58  58    66  57  58  
   0   0   0     0   0   0     0   0   0    56  40  40    56  40  40    55  41  38    55  42  36    56  43  36    55  42  34    56  42  33    60  43  34    59  42  32    61  44  35    60  45  37    61  47  38    63  48  41    64  50  42    64  51  43    65  52  45    66  53  47    68  55  49    70  57  53    71  60  55    73  61  53    74  61  53    74  61  55    73  59  57    71  57  56    65  53  52    62  50  50    62  50  50    62  50  50    60  50  49    58  48  46    56  46  44    55  46  41    55  43  39    57  40  38    56  40  38    56  42  39    54  43  41    53  43  41    51  45  41    49  45  42    51  47  44    54  50  47    58  54  51    62  57  54    63  58  55    64  59  56  
   0   0   0     0   0   0     0   0   0    57  41  41    56  41  38    55  42  36    56  42  35    57  44  36    57  44  35    56  44  32    59  44  34    59  42  32    61  44  34    61  46  37    61  47  38    62  47  40    64  50  42    64  51  43    65  52  45    66  53  47    68  54  51    71  58  55    72  61  57    72  60  54    73  60  52    73  60  54    72  59  54    70  56  54    65  53  52    62  50  50    63  51  51    62  50  50    61  51  50    59  49  47    57  47  45    56  47  42    57  44  41    57  41  38    57  41  39    58  43  40    57  43  42    54  44  42    53  45  42    51  45  43    52  48  45    54  50  47    57  53  50    60  56  53    62  58  55    64  59  56  
   0   0   0     0   0   0     0   0   0    58  43  40    57  42  37    55  42  36    56  43  36    59  46  37    58  45  36    57  45  33    59  46  34    57  43  31    60  46  35    62  48  38    61  47  38    60  47  39    63  50  42    63  50  44    64  50  46    65  51  48    65  54  52    68  57  56    71  60  58    70  58  53    71  58  50    72  59  53    72  58  55    70  56  55    65  53  52    63  51  51    64  52  52    62  51  50    61  51  50    59  49  47    58  48  46    58  49  44    59  46  43    61  42  43    62  43  44    60  44  44    60  46  45    57  47  45    56  47  44    54  48  45    55  50  46    55  51  48    57  53  51    60  56  53    64  59  56    66  61  58  
   0   0   0     0   0   0    58  43  39    59  44  39    57  42  35    55  42  34    57  44  36    60  47  38    59  47  36    57  45  33    59  46  33    57  43  31    60  46  35    63  49  39    61  47  38    60  47  39    63  50  43    62  49  43    62  48  44    64  50  47    64  53  51    67  56  55    70  58  57    69  57  52    70  57  49    71  58  52    72  58  53    70  56  54    66  53  53    63  51  51    65  53  53    63  52  51    61  51  50    59  49  47    59  49  47    59  50  45    61  48  45    63  44  44    64  45  45    62  46  46    62  48  47    59  49  47    57  48  46    57  51  47    57  52  48    56  52  49    58  54  51    62  57  54    65  60  57    67  62  59  
   0   0   0     0   0   0    58  43  38    59  44  39    58  43  36    57  44  36    57  44  35    58  45  36    59  45  37    60  47  38    58  44  33    60  46  35    62  48  37    62  49  39    61  48  39    61  48  40    61  48  40    63  49  45    61  49  46    63  52  49    67  55  55    69  57  57    69  58  57    70  58  53    73  60  52    70  57  51    70  56  53    70  56  55    65  53  52    67  54  54    65  53  53    62  50  50    59  49  48    58  48  46    59  49  47    60  51  46    63  50  47    66  47  48    65  46  48    63  47  48    63  49  49    60  49  49    60  51  48    57  52  48    57  52  48    57  52  48    58  53  50    62  56  52    66  58  55    68  60  57  
   0   0   0     0   0   0    58  43  37    59  44  37    58  43  36    57  44  35    57  44  35    58  45  36    59  45  37    60  47  38    58  44  33    59  45  34    61  47  37    61  48  39    62  49  40    62  49  41    62  49  44    63  49  46    61  50  47    64  53  51    67  55  55    69  57  57    68  56  55    69  57  52    72  59  51    70  57  51    68  55  50    69  55  53    65  52  52    66  54  54    65  53  53    63  52  51    60  50  49    58  48  46    59  49  47    60  51  46    63  50  47    65  47  48    65  46  48    64  48  49    63  49  49    60  49  49    60  51  48    60  54  50    60  55  51    59  54  50    62  54  51    64  56  53    65  57  54    66  58  55  
   0   0   0     0   0   0    58  43  35    59  45  35    59  45  36    57  44  35    57  44  35    58  45  37    59  45  38    60  47  39    59  45  36    59  45  36    59  46  37    60  47  39    62  49  41    63  50  44    63  51  46    62  51  47    63  52  49    65  54  52    66  56  54    67  57  55    66  55  54    68  55  51    71  58  50    69  56  50    68  54  51    69  55  54    64  52  51    66  54  54    66  54  54    64  53  52    61  51  50    59  49  47    59  49  47    61  52  47    62  50  49    64  47  48    65  47  49    64  48  49    64  50  50    62  50  50    61  52  50    63  55  53    64  56  53    64  56  53    65  55  52    66  56  51    67  55  52    68  57  53  
   0   0   0     0   0   0    58  44  35    60  45  37    60  46  37    58  45  36    57  44  35    58  45  37    59  45  39    60  47  39    59  44  37    59  44  37    58  45  37    59  46  38    62  49  42    64  51  45    64  52  46    62  51  47    63  52  50    65  54  52    65  55  53    65  55  53    64  54  52    65  54  50    69  57  49    68  55  49    67  53  48    68  54  52    64  51  51    66  54  54    67  55  55    65  54  53    62  52  51    60  50  48    60  50  48    61  52  47    63  51  50    64  48  49    64  48  49    64  50  50    62  50  50    62  52  51    62  54  52    64  56  53    65  57  54    66  56  54    67  56  54    69  57  53    70  57  54    71  57  54  
   0   0   0     0   0   0    59  45  34    60  46  35    60  46  35    58  45  36    58  45  36    58  45  38    59  45  41    59  45  42    58  45  39    58  45  39    58  44  40    59  45  42    61  47  44    61  50  46    62  50  47    62  51  47    63  53  48    64  55  50    64  55  50    63  54  49    64  54  49    66  54  48    69  57  49    67  54  48    67  53  50    68  54  53    64  51  51    66  54  54    68  56  56    66  54  54    62  52  51    60  50  48    60  50  48    61  52  47    62  50  49    63  49  50    64  49  52    63  51  53    63  51  51    63  53  52    63  55  53    64  55  53    66  56  54    68  57  53    70  58  54    73  58  55    74  59  55    74  59  56  
   0   0   0    60  45  34    61  47  36    62  48  37    61  47  36    59  46  37    58  45  37    58  45  40    59  45  43    59  45  44    58  44  41    58  44  41    58  44  41    59  45  42    59  45  42    58  47  43    59  48  44    61  50  46    61  51  47    61  52  47    61  52  47    61  52  47    63  54  48    65  55  46    69  56  48    67  54  48    67  53  48    69  55  53    65  52  52    66  54  54    68  56  56    66  54  54    62  52  51    60  50  48    59  49  47    60  51  46    61  50  49    62  50  51    62  50  52    62  52  53    63  53  52    64  55  53    64  56  54    65  55  53    66  56  54    68  57  53    72  58  55    76  59  57    77  59  57    77  59  57  
  62  45  35    62  47  34    62  48  35    62  48  36    61  47  36    59  46  37    58  45  37    58  45  40    59  45  43    59  45  44    57  43  42    57  43  42    58  44  43    56  45  43    56  45  43    56  45  41    56  45  41    60  49  45    60  50  44    59  50  43    58  49  42    60  51  44    64  54  48    67  54  47    69  57  49    68  54  49    67  53  50    69  55  54    65  52  52    67  54  54    68  56  56    66  54  54    62  52  51    60  50  48    59  49  47    60  51  46    60  50  48    61  51  51    62  52  53    63  53  54    64  54  53    64  56  54    65  57  55    66  57  55    68  58  56    70  59  55    74  59  56    77  58  56    76  57  54    77  56  53  
  65  47  37    64  48  35    64  49  37    62  48  37    62  48  39    59  46  38    58  45  39    57  45  40    57  45  43    57  46  44    55  44  42    55  44  42    57  46  44    56  45  43    54  44  42    53  44  39    54  45  40    59  50  45    58  50  45    56  49  43    56  49  43    58  51  45    64  56  51    65  55  49    68  57  51    66  55  51    66  55  51    68  57  55    66  54  53    68  56  56    68  56  56    66  54  54    62  51  51    59  49  47    59  49  47    59  49  47    60  50  49    61  51  52    60  52  53    62  53  54    63  54  55    64  56  54    66  58  56    67  59  57    69  59  57    71  60  58    73  59  56    75  58  56    73  56  53    73  55  51  
   0   0   0     0   0   0    67  50  41    65  50  41    61  46  39    57  44  36    54  43  37    55  45  40    55  46  41    54  46  43    54  47  44    52  47  43    51  46  42    50  45  41    50  45  41    51  46  42    51  46  42    54  49  45    55  50  46    58  53  49    58  53  49    57  52  48    56  51  47    59  50  48    61  50  48    61  50  48    65  53  52    67  55  55    66  54  54    64  52  52    65  53  53    65  53  53    65  52  52    65  51  51    64  50  50    63  49  49    60  49  50    59  51  53    59  53  55    62  56  58    63  57  59    64  58  58    64  58  58    66  61  59    69  61  59    68  60  58    69  59  57     0   0   0     0   0   0     0   0   0  
   0   0   0     0   0   0     0   0   0    63  48  40    59  46  38    55  44  38    54  43  37    54  45  38    54  46  40    52  47  41    52  49  44    50  48  43    50  47  42    50  47  42    50  47  42    51  48  43    52  49  45    53  49  46    53  49  46    53  49  46    54  50  47    55  51  48    56  52  49    59  52  50    60  50  49    61  51  50    63  53  52    66  56  55    65  54  53    64  52  52    65  53  53    65  53  53    66  52  52    65  51  51    64  50  50    64  50  50    60  50  50    58  53  53    59  55  56    62  58  59    63  59  60    64  59  60    64  58  58    66  61  59    66  61  58     0   0   0     0   0   0     0   0   0     0   0   0     0   0   0  
   0   0   0     0   0   0     0   0   0    61  45  38    58  45  37    54  43  37    53  42  37    54  45  40    53  45  40    53  46  40    52  47  43    50  48  43    50  47  42    50  48  43    52  49  44    53  50  45    54  51  46    54  51  46    52  48  45    51  47  44    52  48  45    55  51  48    58  54  51    60  52  50    61  51  49    61  51  49    62  52  51    64  54  52    64  53  51    63  52  50    65  54  52    65  53  52    66  52  51    65  51  50    65  51  50    64  50  49    60  50  50    58  53  53    60  56  57    63  59  60    66  60  60    65  60  60    65  59  59    67  59  58     0   0   0     0   0   0     0   0   0     0   0   0     0   0   0     0   0   0  
   0   0   0     0   0   0     0   0   0     0   0   0    57  44  36    53  42  36    53  42  37    54  45  40    53  45  40    53  46  40    52  47  43    51  48  43    51  48  43    52  49  44    54  51  46    55  52  47    55  52  47    54  51  46    53  49  45    53  49  46    54  50  47    56  52  50    59  55  51    60  53  50    61  51  49    61  51  49    62  52  50    62  52  50    63  52  50    63  52  50    65  54  52    65  53  51    66  52  51    65  51  50    65  51  50    64  50  49    61  51  50    59  54  54    61  57  58    64  60  61    67  61  61    66  60  60    65  59  59     0   0   0     0   0   0     0   0   0     0   0   0     0   0   0     0   0   0     0   0   0  
   0   0   0     0   0   0     0   0   0     0   0   0     0   0   0    53  42  38    53  42  38    54  45  40    53  45  41    52  44  41    52  47  44    52  47  44    53  48  44    54  49  45    56  51  47    57  52  48    57  52  48    56  51  47    57  52  48    59  54  50    60  55  51    60  55  50    59  54  50    60  53  50    62  53  48    62  53  48    61  52  47    61  52  47    62  51  47    62  51  47    64  53  49    63  52  48    65  51  48    65  51  48    65  51  48    64  50  47    61  51  50    59  54  53    62  56  56    65  59  59    66  60  60     0   0   0     0   0   0     0   0   0     0   0   0     0   0   0     0   0   0     0   0   0     0   0   0     0   0   0  
   0   0   0     0   0   0     0   0   0     0   0   0     0   0   0     0   0   0     0   0   0    55  46  41    53  45  42    52  44  41    52  47  44    52  47  44    53  48  44    54  49  45    56  51  47    57  52  48    57  52  48    57  52  48    59  54  50    61  56  52    62  57  53    60  55  51    59  54  50    60  54  48    62  53  48    62  53  48    60  51  46    59  50  45    60  50  45    62  51  47    62  51  47    62  50  47    64  50  47    64  50  47    64  50  47    64  50  47    61  52  48    59  55  53    61  55  55    64  58  58     0   0   0     0   0   0     0   0   0     0   0   0     0   0   0     0   0   0     0   0   0     0   0   0     0   0   0     0   0   0  
   0   0   0     0   0   0     0   0   0     0   0   0     0   0   0     0   0   0     0   0   0     0   0   0    54  46  44    53  45  43    53  48  45    53  48  45    53  48  45    54  49  45    55  50  47    56  51  48    57  52  49    59  54  50    60  55  50    60  55  51    59  54  50    59  54  50    59  53  49    61  53  48    63  54  47    62  53  46    60  51  44    58  49  42    59  49  42    61  50  44    61  50  44    61  50  44    63  50  44    63  50  44    63  50  44    63  50  44    61  51  48    62  55  53    61  56  53     0   0   0     0   0   0     0   0   0     0   0   0     0   0   0     0   0   0     0   0   0     0   0   0     0   0   0     0   0   0     0   0   0  
   0   0   0     0   0   0     0   0   0     0   0   0     0   0   0     0   0   0     0   0   0     0   0   0     0   0   0    53  45  43    53  48  45    53  48  45    53  48  45    53  48  45    54  49  46    56  51  48    58  53  50    61  56  52    58  53  50    57  52  48    56  51  47    56  51  47    59  53  48    61  53  46    63  54  47    63  54  47    59  50  43    58  49  42    58  48  42    61  50  44    60  49  43    61  49  43    62  49  43    63  50  44    63  50  44    63  50  44    61  51  48     0   0   0     0   0   0     0   0   0     0   0   0     0   0   0     0   0   0     0   0   0     0   0   0     0   0   0     0   0   0     0   0   0     0   0   0     0   0   0  
   0   0   0     0   0   0     0   0   0     0   0   0     0   0   0     0   0   0     0   0   0     0   0   0     0   0   0     0   0   0    55  46  47    55  46  47    56  47  48    57  48  47    58  50  48    59  51  49    60  52  50    64  56  53    61  54  49    60  53  47    60  53  47    60  53  47    61  54  48    62  54  47    61  52  45    59  50  43    57  48  40    56  47  40    57  47  40    59  48  42    59  48  42    60  48  42    62  49  43    63  50  44     0   0   0     0   0   0     0   0   0     0   0   0     0   0   0     0   0   0     0   0   0     0   0   0     0   0   0     0   0   0     0   0   0     0   0   0     0   0   0     0   0   0     0   0   0     0   0   0  
   0   0   0     0   0   0     0   0   0     0   0   0     0   0   0     0   0   0     0   0   0     0   0   0     0   0   0     0   0   0     0   0   0    55  46  47    56  47  48    57  48  47    58  50  48    59  51  49    60  52  50    64  56  53    62  55  50    61  54  48    60  53  47    60  53  47    60  53  47    62  54  47    61  52  45    59  50  43    57  48  40    56  47  40     0   0   0     0   0   0     0   0   0     0   0   0     0   0   0     0   0   0     0   0   0     0   0   0     0   0   0     0   0   0     0   0   0     0   0   0     0   0   0     0   0   0     0   0   0     0   0   0     0   0   0     0   0   0     0   0   0     0   0   0     0   0   0     0   0   0  
   0   0   0     0   0   0     0   0   0     0   0   0     0   0   0     0   0   0     0   0   0     0   0   0     0   0   0     0   0   0     0   0   0     0   0   0     0   0   0    58  49  50    59  50  51    59  51  49    61  53  51    65  57  54    63  56  51    62  55  49    60  53  45    59  52  44    59  52  44     0   0   0     0   0   0     0   0   0     0   0   0     0   0   0     0   0   0     0   0   0     0   0   0     0   0   0     0   0   0     0   0   0     0   0   0     0   0   0     0   0   0     0   0   0     0   0   0     0   0   0     0   0   0     0   0   0     0   0   0     0   0   0     0   0   0     0   0   0     0   0   0     0   0   0     0   0   0     0   0   0  
   0   0   0     0   0   0     0   0   0     0   0   0     0   0   0     0   0   0     0   0   0     0   0   0     0   0   0     0   0   0     0   0   0     0   0   0     0   0   0     0   0   0    59  50  51    59  51  49    61  53  51     0   0   0     0   0   0     0   0   0     0   0   0     0   0   0     0   0   0     0   0   0     0   0   0     0   0   0     0   0   0     0   0   0     0   0   0     0   0   0     0   0   0     0   0   0     0   0   0     0   0   0     0   0   0     0   0   0     0   0   0     0   0   0     0   0   0     0   0   0     0   0   0     0   0   0     0   0   0     0   0   0     0   0   0     0   0   0     0   0   0     0   0   0     0   0   0     0   0   0  
