P3
50 64
255
   0   0   0     0   0   0     0   0   0     0   0   0     0   0   0     0   0   0     0   0   0     0   0   0     0   0   0     0   0   0     0   0   0     0   0   0     0   0   0     0   0   0   138 143  59     0   0   0     0   0   0     0   0   0     0   0   0     0   0   0     0   0   0     0   0   0     0   0   0     0   0   0     0   0   0     0   0   0     0   0   0     0   0   0     0   0   0     0   0   0     0   0   0     0   0   0     0   0   0     0   0   0     0   0   0     0   0   0     0   0   0     0   0   0     0   0   0     0   0   0     0   0   0     0   0   0     0   0   0     0   0   0     0   0   0     0   0   0     0   0   0     0   0   0     0   0   0     0   0   0  
   0   0   0     0   0   0     0   0   0     0   0   0     0   0   0     0   0   0     0   0   0     0   0   0     0   0   0     0   0   0     0   0   0     0   0   0     0   0   0   139 144  64   134 139  59   131 136  54   130 137  58     0   0   0     0   0   0     0   0   0     0   0   0     0   0   0     0   0   0     0   0   0     0   0   0     0   0   0     0   0   0     0   0   0     0   0   0     0   0   0     0   0   0     0   0   0     0   0   0     0   0   0     0   0   0     0   0   0     0   0   0     0   0   0     0   0   0     0   0   0     0   0   0     0   0   0     0   0   0     0   0   0     0   0   0     0   0   0     0   0   0     0   0   0     0   0   0     0   0   0  
   0   0   0     0   0   0     0   0   0     0   0   0     0   0   0     0   0   0     0   0   0     0   0   0     0   0   0     0   0   0     0   0   0     0   0   0   137 141  64   132 138  61   125 133  55   123 130  53   123 130  54   122 130  56   118 126  53     0   0   0     0   0   0     0   0   0     0   0   0     0   0   0     0   0   0     0   0   0     0   0   0     0   0   0     0   0   0     0   0   0     0   0   0     0   0   0     0   0   0     0   0   0     0   0   0     0   0   0     0   0   0     0   0   0     0   0   0     0   0   0     0   0   0     0   0   0     0   0   0     0   0   0     0   0   0     0   0   0     0   0   0     0   0   0     0   0   0     0   0   0  
   0   0   0     0   0   0     0   0   0     0   0   0     0   0   0     0   0   0     0   0   0     0   0   0     0   0   0     0   0   0     0   0   0   133 137  61   130 134  58   125 131  54   118 124  49   114 120  46   114 120  48   112 120  47   110 117  45   107 114  44   105 112  42     0   0   0     0   0   0     0   0   0     0   0   0     0   0   0     0   0   0     0   0   0     0   0   0     0   0   0     0   0   0     0   0   0     0   0   0     0   0   0     0   0   0     0   0   0     0   0   0     0   0   0     0   0   0     0   0   0     0   0   0     0   0   0     0   0   0     0   0   0     0   0   0     0   0   0     0   0   0     0   0   0     0   0   0     0   0   0  
   0   0   0     0   0   0     0   0   0     0   0   0     0   0   0     0   0   0     0   0   0     0   0   0     0   0   0     0   0   0   124 129  52   120 125  49   116 123  47   112 118  44   106 112  40   103 109  37   102 109  37   101 108  39   100 107  39    98 105  37    97 104  36    97 104  37    99 105  40     0   0   0     0   0   0     0   0   0     0   0   0     0   0   0     0   0   0     0   0   0     0   0   0     0   0   0     0   0   0     0   0   0     0   0   0     0   0   0     0   0   0     0   0   0     0   0   0     0   0   0     0   0   0     0   0   0     0   0   0     0   0   0     0   0   0     0   0   0     0   0   0     0   0   0     0   0   0     0   0   0  
   0   0   0     0   0   0     0   0   0     0   0   0     0   0   0     0   0   0     0   0   0     0   0   0     0   0   0   118 121  40   111 115  36   107 112  35   103 110  34   100 106  32    94 100  28    92  98  26    92  99  29    92  99  31    92  99  31    91  98  30    90  97  30    91  97  33    94 100  37    95 101  39    95 101  41     0   0   0     0   0   0     0   0   0     0   0   0     0   0   0     0   0   0     0   0   0     0   0   0     0   0   0     0   0   0     0   0   0     0   0   0     0   0   0     0   0   0     0   0   0     0   0   0     0   0   0     0   0   0     0   0   0     0   0   0     0   0   0     0   0   0     0   0   0     0   0   0     0   0   0  
   0   0   0     0   0   0     0   0   0     0   0   0     0   0   0     0   0   0     0   0   0     0   0   0   108 112  27   107 111  27   103 108  26   100 105  26    97 104  27    96 102  27    91  97  23    88  96  23    89  96  26    89  97  29    89  98  30    88  97  30    87  96  31    87  96  32    91  99  38    86  94  34    88  96  37    92 100  41    92 101  43    97 105  49   103 110  56   106 113  60   101 110  64   106 117  77   121 130  98   140 148 123   162 169 151   184 191 175   203 211 196     0   0   0     0   0   0     0   0   0     0   0   0     0   0   0     0   0   0     0   0   0     0   0   0     0   0   0     0   0   0     0   0   0     0   0   0     0   0   0  
   0   0   0     0   0   0     0   0   0     0   0   0     0   0   0     0   0   0     0   0   0   103 108  19   101 105  20    99 104  22   102 107  27    99 105  25    97 104  27    98 102  28    95  98  27    92  98  26    93  99  30    93  99  34    94 100  35    93  99  37    91  97  37    90  97  39    92 100  44    88  95  42    92 100  49    98 106  57   101 109  63   115 123  78   130 139  96   137 145 104   149 159 125   157 167 139   173 181 158   186 193 176   196 202 188   207 213 201   215 221 208   225 229 215   230 236 222     0   0   0     0   0   0     0   0   0     0   0   0     0   0   0     0   0   0     0   0   0     0   0   0     0   0   0     0   0   0     0   0   0  
   0   0   0     0   0   0     0   0   0     0   0   0     0   0   0     0   0   0   107 108  28   102 106  25   100 105  25   103 109  31   105 112  35    99 105  29    93  96  24    97  99  29    93  95  26    96  95  28    95  95  31    92  93  34    90  93  36    86  89  34    91  93  44    92  96  50    89  94  52   108 114  77   141 148 115   137 146 115   140 149 123   147 157 133   148 157 135   152 164 144   160 170 155   168 179 165   180 187 175   194 198 187   204 206 194   213 215 201   225 226 211   231 230 213   236 235 217   242 240 222     0   0   0     0   0   0     0   0   0     0   0   0     0   0   0     0   0   0     0   0   0     0   0   0     0   0   0     0   0   0  
   0   0   0     0   0   0     0   0   0     0   0   0     0   0   0   107 108  32   110 113  37   110 115  40   108 114  40   110 116  44   105 111  39   101 106  37    97 100  31    98  99  31    94  93  26    96  94  27    92  90  29    89  88  32    87  87  34    83  83  32    81  83  37    82  85  44    88  93  58   133 140 108   172 181 154   162 172 148   154 163 145   149 160 145   143 155 142   147 159 148   159 170 162   168 178 170   180 187 178   194 198 187   203 205 192   213 214 198   227 225 207   234 230 211   239 234 215   244 239 219   243 240 221   244 241 224     0   0   0     0   0   0     0   0   0     0   0   0     0   0   0     0   0   0     0   0   0     0   0   0  
   0   0   0     0   0   0     0   0   0     0   0   0   122 123  53   119 121  51   115 119  50   114 118  52   112 117  51   107 114  47   107 113  47   104 108  42   104 105  40    99  99  34    95  94  29    94  91  24    84  83  22    75  74  20    73  73  21    69  68  20    65  67  20    66  70  28    83  88  50   137 142 109   180 186 157   171 178 155   157 167 146   152 164 145   149 161 144   154 167 150   160 170 157   168 178 165   179 186 173   192 197 182   202 204 188   213 212 194   224 223 203   232 229 210   236 231 214   240 234 219   238 235 220   238 235 221   238 236 223   239 238 226     0   0   0     0   0   0     0   0   0     0   0   0     0   0   0     0   0   0  
   0   0   0     0   0   0     0   0   0   116 119  55   118 119  59   114 116  56   111 115  57   120 124  66   127 132  76   127 132  76   116 121  63   105 111  51   108 111  49    99  99  36    97  96  31    90  89  22    81  80  18    68  67  14    65  65  15    63  65  16    61  64  19    64  67  25    84  89  51   130 136 102   174 181 152   169 178 151   157 168 145   154 166 145   155 166 148   164 175 158   160 170 154   168 178 161   178 186 168   190 196 177   198 202 182   207 209 188   220 218 199   226 223 206   230 225 210   232 228 215   232 228 217   230 227 216   231 228 219   231 230 219   231 231 219     0   0   0     0   0   0     0   0   0     0   0   0     0   0   0  
   0   0   0     0   0   0     0   0   0   119 125  72   127 129  80   137 139  92   151 154 109   172 176 132   188 194 150   196 202 157   134 137  90   108 111  60   111 113  56   100 101  39    99  99  32    90  90  21    82  81  19    71  70  19    66  67  18    69  72  24    73  76  31    76  79  39    92  97  59   140 145 112   186 192 164   180 189 163   166 174 152   159 168 148   157 166 148   163 172 155   163 171 153   170 178 159   177 185 165   187 193 173   195 197 179   204 203 185   212 210 193   215 211 198   219 215 203   223 219 209   223 218 212   222 219 213   224 221 215   221 220 211   220 220 210   220 220 210   220 220 210     0   0   0     0   0   0     0   0   0  
   0   0   0     0   0   0   162 170 125   179 183 145   188 192 159   201 204 173   215 218 188   224 227 198   231 234 204   237 240 208   157 159 121   110 112  67   110 112  59   100 103  41   101 102  35    90  92  20    84  84  21    70  71  20    67  69  21    70  72  25    76  79  35    80  83  43    91  95  58   137 142 109   186 192 164   184 189 167   168 176 156   163 170 155   158 166 152   162 168 154   165 171 155   171 178 160   177 183 165   186 189 172   191 192 176   196 197 181   204 202 189   204 202 190   208 205 195   212 209 201   213 210 205   213 210 206   214 211 207   211 211 203   210 210 200   210 210 200   209 209 199   210 210 201     0   0   0     0   0   0  
 198 205 174   208 215 187   219 224 199   226 230 211   227 228 214   229 230 217   231 233 220   224 226 212   220 222 206   229 231 210   179 179 153   110 111  74   108 110  62   101 103  43   105 106  39    93  95  20    88  89  23    75  77  24    74  76  28    70  73  28    75  78  36    81  84  45    89  93  58   127 132 101   177 181 157   180 183 164   171 175 162   171 174 166   167 170 164   167 169 164   167 170 161   173 176 165   178 180 169   183 185 174   187 187 177   190 190 180   196 196 187   195 193 186   200 197 191   201 200 195   202 201 197   203 202 198   204 203 200   203 202 197   201 202 194   200 201 193   199 200 192   198 199 192   198 199 193   199 200 194  
 218 224 210   218 224 212   218 223 214   221 224 220   217 217 216   216 216 216   221 221 220   217 217 214   222 222 215   243 244 231   193 192 170   110 111  77   107 109  64   102 103  46   106 109  41    94  98  22    93  96  29    87  90  37    87  90  42    80  83  38    81  84  41    88  91  51    97 100  66   132 136 108   181 184 162   185 187 174   178 179 172   178 179 176   172 173 175   169 169 171   169 170 167   175 176 171   178 178 174   183 182 178   184 183 178   187 186 181   192 191 186   190 189 185   194 193 189   197 196 192   197 196 192   197 196 192   198 197 193   198 198 193   197 198 190   195 196 188   192 193 187   191 192 186   191 192 186   191 192 187  
   0   0   0   211 213 218   213 214 221   216 215 223   216 214 225   216 215 223   218 217 223   221 219 222   225 222 220   231 229 218   216 214 194   129 129  96   108 109  64   106 109  51    95 100  31    97 104  28    93  98  30    95  98  45    97 100  52    93  96  51    91  97  53    95  99  61    96  99  66   126 128 102   188 189 171   186 186 177   172 171 169   176 173 177   170 167 177   175 172 181   175 172 177   181 176 180   184 180 184   183 181 184   184 182 183   185 183 184   186 184 184   187 187 185   188 188 185   190 190 188   189 190 185   187 188 183   189 188 184   188 188 183   187 188 183   186 187 182   185 187 182   185 186 181   184 185 180   183 183 181  
   0   0   0     0   0   0   217 217 227   218 217 226   218 217 225   219 218 224   224 222 226   225 222 221   225 222 214   228 224 210   225 223 199   139 139 103   107 109  63   109 112  56   106 111  46   105 111  40    98 104  40    96 100  50    97 100  54    97 100  57    97 102  61    96 101  62    88  92  59   114 117  89   182 184 162   192 192 180   183 182 179   185 183 186   177 174 182   185 179 189   179 174 180   181 176 182   184 179 185   185 182 186   188 186 189   190 188 191   188 188 190   185 185 185   186 186 185   189 189 187   188 189 184   185 185 180   187 187 181   186 187 182   186 187 182   185 186 181   182 183 178   181 181 178   178 178 176   178 178 176  
   0   0   0     0   0   0   223 221 223   225 224 223   226 222 219   226 223 218   231 228 218   231 228 213   226 224 204   225 221 195   205 202 169   142 142 100   109 111  62   109 113  59   111 117  57   108 114  52   103 111  55   100 105  61    98 103  62   100 105  64   102 107  67    95  99  60    78  82  46   117 119  87   189 189 164   200 198 179   190 187 176   185 181 176   176 172 170   184 178 180   184 178 178   183 177 177   183 177 177   184 179 180   184 182 183   185 183 184   185 185 185   184 185 184   184 185 183   186 188 185   186 187 182   183 184 179   184 185 179   185 186 180   183 185 182   181 183 179   177 179 176   175 177 175   171 173 172     0   0   0  
   0   0   0     0   0   0     0   0   0   226 224 203   217 215 190   202 201 173   189 187 156   173 170 135   153 151 111   142 139  96   160 158 110   134 134  84   112 113  62   108 112  60   105 112  60   104 110  59   110 115  70   108 113  75   106 110  75   105 109  72   101 105  68    87  92  52    71  76  36   103 106  68   164 165 131   170 171 141   168 167 143   174 172 152   177 174 158   192 187 173   193 187 173   190 183 172   189 183 173   188 185 175   184 184 176   182 183 177   181 183 178   183 185 182   184 185 183   186 188 185   184 186 182   182 183 178   183 184 179   182 183 180   180 182 179   178 180 177   175 177 175   172 174 173   170 172 171     0   0   0  
   0   0   0     0   0   0     0   0   0   166 165 112   148 149  91   141 140  82   137 137  76   133 133  70   127 126  62   123 122  57   136 135  71   129 129  70   112 114  59   108 111  62   107 113  69   107 112  72   113 119  85   115 119  91   112 116  87   105 110  79    93  98  62    79  84  43    68  74  29    98 102  55   144 147 100   145 147 100   147 148 105   160 159 119   165 163 124   174 172 134   188 183 151   187 183 153   191 188 161   194 194 169   193 192 172   190 191 175   188 190 178   182 186 178   182 187 180   185 188 184   184 186 183   181 183 180   183 183 181   180 181 180   177 179 178   177 179 178   175 176 176   174 175 177   172 173 175     0   0   0  
   0   0   0     0   0   0     0   0   0     0   0   0   132 135  49   129 132  45   131 134  45   137 138  50   142 142  54   145 144  60   142 143  66   133 133  65   116 118  60   113 116  70   117 121  85   115 120  90   116 120  98   118 121 102   114 118  96   105 110  80    88  92  56    73  79  36    71  77  27   112 118  63   152 158  99   149 153  92   155 159  95   164 165 104   157 158  98   156 155  98   165 162 111   168 164 118   178 176 133   185 184 147   184 188 154   188 192 165   189 195 175   181 188 175   182 187 179   183 188 184   184 185 185   180 181 183   182 182 184   179 180 180   176 178 177   176 178 177   175 177 177   175 176 178   174 175 177     0   0   0  
   0   0   0     0   0   0     0   0   0     0   0   0   138 142  30   135 139  26   137 140  27   138 141  29   141 143  35   145 146  45   146 147  55   137 138  62   128 130  71   122 124  81   121 124  96   119 122 104   115 119 106   114 118 105   111 114  97   102 106  81    87  91  57    75  80  36    77  82  27   117 122  59   155 160  89   156 160  83   169 174  94   178 183 102   173 177  95   169 172  95   152 152  82   155 154  90   163 164 104   168 170 118   167 173 128   176 182 147   183 190 163   180 187 169   180 186 177   182 187 182   182 183 185   179 180 184   179 180 185   178 179 181   177 178 180   176 177 179   175 177 179   175 176 178     0   0   0     0   0   0  
   0   0   0     0   0   0     0   0   0     0   0   0     0   0   0   131 138   8   132 138  13   131 137  18   134 138  26   138 142  41   132 135  49   136 137  67   141 142  89   126 130  92   116 120  96   118 122 107   114 117 109   110 113 107   105 109  97    99 103  82    88  91  59    79  84  39    81  87  28   125 131  61   160 167  89   158 163  79   166 173  84   172 178  89   166 172  82   164 168  81   162 164  81   161 163  84   165 168  93   163 168  99   158 166 106   169 177 127   181 189 149   181 187 157   180 185 165   182 185 173   179 182 177   177 178 178   177 178 181   178 179 184   178 179 184   177 178 183   175 177 182   175 176 181     0   0   0     0   0   0  
   0   0   0     0   0   0     0   0   0     0   0   0     0   0   0   126 136   2   130 139  16   132 140  30   135 141  47   141 145  67   137 139  76   135 138  88   140 143 105   128 131 103   121 124 103   121 125 108   110 114 105   107 112 109   101 105  98    96  99  81   100 103  73    90  95  50    98 103  43   137 142  70   158 163  84   162 168  82   165 171  83   170 176  89   166 172  86   160 166  78   156 163  70   160 166  74   162 170  80   164 174  87   160 170  90   157 166  96   159 167 106   150 157 108   157 164 127   175 179 154   187 189 173   183 185 176   179 180 178   179 177 185   178 176 190   179 178 192   176 175 188   174 174 185     0   0   0     0   0   0  
   0   0   0     0   0   0     0   0   0     0   0   0     0   0   0     0   0   0   135 145  24   135 143  39   134 142  55   137 142  73   134 138  85   131 134  94   133 136 104   122 126 100   118 121  99   119 124 104   108 112 100   105 110 105   105 108  99   103 108  87   105 111  76    95 101  51   103 108  44   142 146  71   161 166  83   163 169  81   165 171  81   171 177  89   168 176  89   165 174  85   161 171  75   165 175  78   164 174  78   165 175  81   162 172  83   158 167  85   157 165  90   153 162  98   153 159 108   147 152 112   165 168 139   180 184 163   179 181 168   177 177 179   176 174 187   176 176 188   177 177 189   176 176 187     0   0   0     0   0   0  
   0   0   0     0   0   0     0   0   0     0   0   0     0   0   0     0   0   0   142 152  34   140 148  46   135 142  57   136 141  73   134 139  84   130 133  91   129 132  98   119 123  95   117 121  96   119 123 100   108 114  96   107 113  99   108 113  95   107 112  83   107 112  70   104 109  52   118 124  54   148 153  74   162 166  80   161 166  76   162 168  76   168 175  82   168 175  84   168 174  84   165 173  79   171 178  83   167 174  80   165 173  81   165 174  85   159 167  83   154 162  83   156 164  93   155 161 100   138 142  92   149 152 110   162 166 130   173 175 149   177 178 166   175 175 174   175 175 178   179 178 183     0   0   0     0   0   0     0   0   0  
   0   0   0     0   0   0     0   0   0     0   0   0     0   0   0     0   0   0     0   0   0   143 151  50   138 146  59   137 143  72   137 142  84   133 138  90   131 135  96   123 129  94   121 126  94   120 125  95   113 117  92   113 119  96   107 115  84   103 110  70   104 111  58   113 119  54   140 146  69   162 167  81   168 173  81   166 172  76   166 172  76   169 176  80   167 174  78   167 174  79   164 171  78   170 177  84   165 172  79   164 171  78   168 176  85   162 171  83   154 162  78   157 165  86   167 174 102   158 164  99   152 156  99   141 145  95   158 161 119   176 179 153   176 178 166   176 177 171   178 179 177     0   0   0     0   0   0     0   0   0  
   0   0   0     0   0   0     0   0   0     0   0   0     0   0   0     0   0   0     0   0   0     0   0   0   141 149  62   140 146  73   135 141  80   136 141  88   136 140  93   129 134  92   124 129  89   120 124  87   115 121  84   115 123  84   109 117  72   106 115  61   110 119  53   124 132  56   153 160  73   172 178  83   175 181  81   172 179  76   172 180  77   172 180  78   166 174  73   165 173  74   166 171  79   173 178  87   168 173  81   165 170  78   170 175  83   166 171  79   158 164  74   165 171  84   183 188 107   172 179 102   157 163  91   138 143  77   141 145  87   163 167 130   178 179 162   180 179 170     0   0   0     0   0   0     0   0   0     0   0   0  
   0   0   0     0   0   0     0   0   0     0   0   0     0   0   0     0   0   0     0   0   0     0   0   0   145 152  63   142 149  70   132 139  70   138 143  83   138 143  87   131 137  85   124 131  80   119 126  74   116 124  72   115 124  70   113 122  63   120 130  62   128 136  59   137 144  59   154 160  67   163 170  70   165 172  66   163 171  62   165 173  64   164 173  66   157 166  60   158 165  62   169 173  78   175 179  85   170 175  80   166 172  76   167 173  75   164 170  72   162 168  72   172 178  83   187 194 102   165 171  85   156 162  78   156 163  84   133 139  68   142 145 100   173 175 153     0   0   0     0   0   0     0   0   0     0   0   0     0   0   0  
   0   0   0     0   0   0     0   0   0     0   0   0     0   0   0     0   0   0     0   0   0     0   0   0     0   0   0   143 150  63   137 144  66   144 151  80   142 149  81   134 140  75   126 133  68   124 130  66   123 132  67   119 129  60   119 130  55   135 144  64   144 152  65   147 155  60   150 157  56   152 159  52   152 158  48   148 156  44   152 160  49   155 163  52   152 161  51   156 164  57   162 166  65   168 170  71   167 170  70   162 167  66   159 164  62   160 165  63   163 168  66   171 176  75   185 191  92   163 168  74   157 162  71   174 178  92   142 145  68   122 124  76     0   0   0     0   0   0     0   0   0     0   0   0     0   0   0     0   0   0  
   0   0   0     0   0   0     0   0   0     0   0   0     0   0   0     0   0   0     0   0   0     0   0   0     0   0   0     0   0   0   142 151  62   150 158  74   146 155  75   136 144  67   129 137  60   130 138  60   133 143  63   126 138  54   125 136  49   141 150  60   152 159  62   151 159  57   148 156  47   150 157  46   149 156  42   145 154  39   151 160  45   158 166  53   159 168  55   167 175  64   150 155  48   156 160  54   159 162  55   157 162  54   151 157  49   155 161  53   163 169  63   165 171  66   180 187  84   174 180  82   164 169  74   177 182  89   152 156  72     0   0   0     0   0   0     0   0   0     0   0   0     0   0   0     0   0   0     0   0   0  
   0   0   0     0   0   0     0   0   0     0   0   0     0   0   0     0   0   0     0   0   0     0   0   0     0   0   0     0   0   0     0   0   0   143 151  56   142 151  59   133 143  52   133 142  51   146 155  64   153 163  71   150 161  66   137 147  50   133 144  42   144 151  48   150 157  49   148 155  43   142 148  33   138 143  27   140 147  31   144 151  35   144 153  37   148 158  43   152 161  46   148 155  41   150 155  40   152 156  43   148 152  39   154 158  47   156 163  51   148 155  45   160 166  59   167 172  69   163 168  70   164 170  75     0   0   0     0   0   0     0   0   0     0   0   0     0   0   0     0   0   0     0   0   0     0   0   0     0   0   0  
   0   0   0     0   0   0     0   0   0     0   0   0     0   0   0     0   0   0     0   0   0     0   0   0     0   0   0     0   0   0     0   0   0   143 152  49   144 155  53   139 150  48   138 149  47   144 155  53   145 156  54   144 155  52   137 148  44   137 146  39   142 150  41   146 153  42   147 154  41   147 153  37   143 148  30   142 150  31   140 148  32   138 147  30   142 152  36   147 157  40   147 155  36   149 154  34   150 155  36   147 152  35   156 160  47   162 169  57   154 160  51   152 158  51   154 159  56   150 154  57     0   0   0     0   0   0     0   0   0     0   0   0     0   0   0     0   0   0     0   0   0     0   0   0     0   0   0     0   0   0  
   0   0   0     0   0   0     0   0   0     0   0   0     0   0   0     0   0   0     0   0   0     0   0   0     0   0   0     0   0   0     0   0   0     0   0   0   148 157  50   146 155  48   144 153  46   142 152  44   139 148  41   141 150  43   143 152  43   143 151  42   142 150  39   144 151  38   149 153  40   156 160  47   153 158  45   152 156  43   145 153  39   141 150  35   146 155  42   154 163  49   148 156  35   150 155  35   149 154  35   143 150  33   150 157  43   162 169  57   159 165  57   153 160  55   150 156  55     0   0   0     0   0   0     0   0   0     0   0   0     0   0   0     0   0   0     0   0   0     0   0   0     0   0   0     0   0   0     0   0   0  
   0   0   0     0   0   0     0   0   0     0   0   0     0   0   0     0   0   0     0   0   0     0   0   0     0   0   0     0   0   0     0   0   0     0   0   0     0   0   0   146 156  44   142 152  40   140 150  39   138 147  36   142 151  42   144 153  42   145 153  42   144 150  40   147 153  41   153 157  46   155 159  48   152 156  45   153 157  46   148 155  43   144 152  40   149 159  46   158 166  54   149 156  40   153 158  40   148 154  38   140 147  33   142 149  37   151 157  49   153 160  55   154 161  57     0   0   0     0   0   0     0   0   0     0   0   0     0   0   0     0   0   0     0   0   0     0   0   0     0   0   0     0   0   0     0   0   0     0   0   0  
   0   0   0     0   0   0     0   0   0     0   0   0     0   0   0     0   0   0     0   0   0     0   0   0     0   0   0     0   0   0     0   0   0     0   0   0     0   0   0     0   0   0   139 147  38   141 149  38   141 150  38   143 151  40   141 148  37   141 147  37   144 148  38   149 152  43   153 155  46   147 148  41   142 144  37   145 149  39   145 149  39   140 147  36   143 153  41   149 157  46   144 150  40   148 154  44   146 152  43   140 146  38   136 143  37   137 144  40   140 147  45     0   0   0     0   0   0     0   0   0     0   0   0     0   0   0     0   0   0     0   0   0     0   0   0     0   0   0     0   0   0     0   0   0     0   0   0     0   0   0  
   0   0   0     0   0   0     0   0   0     0   0   0     0   0   0     0   0   0     0   0   0     0   0   0     0   0   0     0   0   0     0   0   0     0   0   0     0   0   0     0   0   0   136 144  35   141 149  40   141 149  40   139 147  36   136 142  32   135 141  33   141 144  37   145 147  42   147 148  44   146 146  42   142 143  39   145 148  43   144 151  45   141 148  41   140 149  40   141 150  43   136 143  39   143 148  46   143 148  46   141 147  46   135 141  41   129 135  37     0   0   0     0   0   0     0   0   0     0   0   0     0   0   0     0   0   0     0   0   0     0   0   0     0   0   0     0   0   0     0   0   0     0   0   0     0   0   0     0   0   0  
   0   0   0     0   0   0     0   0   0     0   0   0     0   0   0     0   0   0     0   0   0     0   0   0     0   0   0     0   0   0     0   0   0     0   0   0     0   0   0     0   0   0     0   0   0   141 148  44   139 146  39   137 143  35   137 141  33   138 141  36   141 142  38   143 144  42   145 143  42   148 148  47   145 146  44   146 149  46   149 152  49   146 152  47   144 153  46   141 150  45   135 140  43   140 145  51   140 145  51   142 147  53   137 142  48     0   0   0     0   0   0     0   0   0     0   0   0     0   0   0     0   0   0     0   0   0     0   0   0     0   0   0     0   0   0     0   0   0     0   0   0     0   0   0     0   0   0     0   0   0  
   0   0   0     0   0   0     0   0   0     0   0   0     0   0   0     0   0   0     0   0   0     0   0   0     0   0   0     0   0   0     0   0   0     0   0   0     0   0   0     0   0   0     0   0   0   140 147  43   135 142  37   135 141  35   140 144  39   143 146  41   143 146  43   142 143  41   142 142  42   145 145  47   140 141  43   139 141  42   142 147  47   143 149  48   144 150  48   141 147  47   138 143  50   142 147  55   141 146  54   144 149  57   137 142  50   124 131  38     0   0   0     0   0   0     0   0   0     0   0   0     0   0   0     0   0   0     0   0   0     0   0   0     0   0   0     0   0   0     0   0   0     0   0   0     0   0   0     0   0   0  
   0   0   0     0   0   0     0   0   0     0   0   0     0   0   0     0   0   0     0   0   0     0   0   0     0   0   0     0   0   0     0   0   0     0   0   0     0   0   0     0   0   0     0   0   0   141 146  44   137 142  39   135 140  37   135 140  37   144 149  46   152 157  55   145 147  47   139 141  42   145 147  50   139 143  46   137 141  46   140 144  49   137 141  46   137 141  46   138 142  47   136 140  45   139 143  48   143 147  52   141 146  51   136 141  47   135 140  46     0   0   0     0   0   0     0   0   0     0   0   0     0   0   0     0   0   0     0   0   0     0   0   0     0   0   0     0   0   0     0   0   0     0   0   0     0   0   0     0   0   0  
   0   0   0     0   0   0     0   0   0     0   0   0     0   0   0     0   0   0     0   0   0     0   0   0     0   0   0     0   0   0     0   0   0     0   0   0     0   0   0     0   0   0   135 140  38   139 144  42   137 142  40   134 139  36   134 139  36   139 144  41   143 148  46   136 141  39   136 141  41   141 146  48   138 141  46   138 142  48   143 147  53   142 145  53   142 145  54   142 146  52   136 140  45   141 145  48   144 148  51   144 150  53   142 148  52   134 139  45   130 136  42     0   0   0     0   0   0     0   0   0     0   0   0     0   0   0     0   0   0     0   0   0     0   0   0     0   0   0     0   0   0     0   0   0     0   0   0     0   0   0  
   0   0   0     0   0   0     0   0   0     0   0   0     0   0   0     0   0   0     0   0   0     0   0   0     0   0   0     0   0   0     0   0   0     0   0   0     0   0   0     0   0   0   127 134  31   134 141  38   134 141  38   132 137  33   132 137  33   133 138  35   133 138  36   129 134  32   132 137  37   138 142  44   135 139  44   138 142  47   142 145  52   141 145  51   140 144  50   137 141  47   130 135  39   137 143  45   142 148  50   144 150  53   147 153  57   138 143  48   128 133  40   143 148  54     0   0   0     0   0   0     0   0   0     0   0   0     0   0   0     0   0   0     0   0   0     0   0   0     0   0   0     0   0   0     0   0   0     0   0   0  
   0   0   0     0   0   0     0   0   0     0   0   0     0   0   0     0   0   0     0   0   0     0   0   0     0   0   0     0   0   0     0   0   0     0   0   0     0   0   0     0   0   0   121 128  25   126 133  30   127 134  31   127 132  28   126 131  28   127 132  29   129 134  33   127 132  30   129 134  34   133 138  38   131 135  38   133 137  40   136 140  45   134 138  43   131 136  41   126 130  35   120 126  28   134 140  42   138 144  46   140 146  49   147 153  57   142 147  53   130 135  41   135 140  46   139 144  52     0   0   0     0   0   0     0   0   0     0   0   0     0   0   0     0   0   0     0   0   0     0   0   0     0   0   0     0   0   0     0   0   0  
   0   0   0     0   0   0     0   0   0     0   0   0     0   0   0     0   0   0     0   0   0     0   0   0     0   0   0     0   0   0     0   0   0     0   0   0     0   0   0     0   0   0   115 121  21   118 124  24   118 124  21   120 125  22   119 124  21   122 127  24   130 135  33   128 133  31   125 130  29   126 131  31   125 129  32   128 132  35   129 133  38   128 132  37   128 132  37   123 126  31   119 125  27   134 140  42   138 144  46   135 141  44   141 147  51   143 149  53   134 140  44   130 134  40   133 136  44     0   0   0     0   0   0     0   0   0     0   0   0     0   0   0     0   0   0     0   0   0     0   0   0     0   0   0     0   0   0     0   0   0  
   0   0   0     0   0   0     0   0   0     0   0   0     0   0   0     0   0   0     0   0   0     0   0   0     0   0   0     0   0   0     0   0   0     0   0   0     0   0   0     0   0   0   111 117  17   112 118  18   112 117  17   115 120  17   114 119  16   117 122  20   128 133  31   126 131  29   121 126  25   120 125  25   120 125  25   123 127  30   124 128  32   128 132  37   131 135  40   126 132  36   122 128  32   134 140  44   135 141  45   129 135  39   132 137  42   136 142  46   132 137  43   127 130  38   128 131  40   124 127  38     0   0   0     0   0   0     0   0   0     0   0   0     0   0   0     0   0   0     0   0   0     0   0   0     0   0   0     0   0   0  
   0   0   0     0   0   0     0   0   0     0   0   0     0   0   0     0   0   0     0   0   0     0   0   0     0   0   0     0   0   0     0   0   0     0   0   0     0   0   0     0   0   0   106 112  16   110 116  20   111 117  18   111 117  17   112 118  18   113 119  19   120 126  26   120 126  26   117 123  24   117 123  25   116 122  24   118 124  28   118 124  28   123 128  34   130 135  41   128 133  39   115 120  26   121 128  33   123 130  35   121 126  32   120 125  31   123 128  34   122 127  35   118 121  31   117 120  32   116 118  34   114 113  31     0   0   0     0   0   0     0   0   0     0   0   0     0   0   0     0   0   0     0   0   0     0   0   0     0   0   0  
   0   0   0     0   0   0     0   0   0     0   0   0     0   0   0     0   0   0     0   0   0     0   0   0     0   0   0     0   0   0     0   0   0     0   0   0     0   0   0   107 112  18   104 109  15   110 115  21   113 119  22   110 116  18   113 119  21   111 117  19   113 119  21   113 119  21   115 121  25   117 123  27   116 122  26   115 120  26   114 119  25   119 124  30   126 131  37   124 129  37   104 110  20   105 111  21   110 117  24   113 119  27   113 118  26   112 117  27   112 116  29   108 111  25   106 108  25   105 106  28   101 102  26    99  99  26     0   0   0     0   0   0     0   0   0     0   0   0     0   0   0     0   0   0     0   0   0     0   0   0  
   0   0   0     0   0   0     0   0   0     0   0   0     0   0   0     0   0   0     0   0   0     0   0   0     0   0   0     0   0   0     0   0   0     0   0   0     0   0   0   106 113  20   107 114  21   106 113  20   106 112  19   109 114  20   110 115  21   106 111  17   110 115  20   116 121  27   115 120  26   121 126  33   121 126  34   117 122  29   115 120  27   118 123  32   119 124  34   116 121  31    99 105  17    98 104  18    96 102  16    94 100  14    96 102  16   102 106  22   103 107  24   100 103  23   100 102  25    96  97  27    97  98  32    95  94  31     0   0   0     0   0   0     0   0   0     0   0   0     0   0   0     0   0   0     0   0   0     0   0   0  
   0   0   0     0   0   0     0   0   0     0   0   0     0   0   0     0   0   0     0   0   0     0   0   0     0   0   0     0   0   0     0   0   0     0   0   0     0   0   0   104 110  22   106 112  24   105 111  23   103 109  20   104 109  19   106 111  21   103 108  18   107 112  22   114 119  29   113 118  29   105 109  22   105 109  22   102 107  19    99 103  15    99 103  16   100 105  18   100 104  19    99 104  20    95 100  18    90  95  13    86  91  10    87  92  12    89  94  14    94  98  22    96 100  27    88  90  23    93  94  34    93  94  38    88  88  37    98  98  53     0   0   0     0   0   0     0   0   0     0   0   0     0   0   0     0   0   0     0   0   0  
   0   0   0     0   0   0     0   0   0     0   0   0     0   0   0     0   0   0     0   0   0     0   0   0     0   0   0     0   0   0     0   0   0     0   0   0    98 103  19   100 105  21   101 106  22   101 106  22    98 103  19    97 101  17    98 102  18    97 101  17   101 105  22   107 110  29   107 110  29    98 102  21    99 102  22   100 104  22    96  99  18    93  96  15    93  96  15    95  98  19    97 100  24    91  95  19    87  91  15    84  88  12    85  89  14    86  89  18    86  89  21    88  91  28    90  93  37    87  89  39    74  75  32    89  91  52   137 140 106     0   0   0     0   0   0     0   0   0     0   0   0     0   0   0     0   0   0     0   0   0  
   0   0   0     0   0   0     0   0   0     0   0   0     0   0   0     0   0   0     0   0   0     0   0   0     0   0   0     0   0   0     0   0   0    90  94  16    92  97  17    93  98  18    93  98  18    92  97  17    90  95  15    89  93  13    90  93  14    89  92  15    92  95  18    96  99  22    96  99  22    88  91  14    89  92  14    91  94  17    87  90  13    84  87  10    83  86   9    82  84   9    79  82   9    75  78   7    74  77   7    75  78   9    75  80  12    75  80  14    74  79  18    79  83  29    84  89  42    74  79  38    81  84  52   127 130 103   178 181 159   192 196 179     0   0   0     0   0   0     0   0   0     0   0   0     0   0   0     0   0   0  
   0   0   0     0   0   0     0   0   0     0   0   0     0   0   0     0   0   0     0   0   0     0   0   0     0   0   0     0   0   0    83  89  15    83  89  14    83  90  13    82  89  12    81  88  11    80  87  10    82  86  11    82  86  13    81  84  13    81  84  13    82  85  14    83  85  15    81  84  13    80  83  12    80  83  12    79  83   9    78  82   8    79  83   9    77  81   7    71  75   3    74  75   9    73  73   9    72  74   9    71  75  11    72  76  14    72  75  18    70  76  23    71  77  30    72  78  39    87  92  62   132 137 115   176 181 165   187 193 182   185 189 180     0   0   0     0   0   0     0   0   0     0   0   0     0   0   0     0   0   0  
   0   0   0     0   0   0     0   0   0     0   0   0     0   0   0     0   0   0     0   0   0     0   0   0     0   0   0    81  87  17    78  84  14    77  83  10    76  82  10    75  81   9    74  80   6    74  80   6    75  80   9    77  80  12    75  78  11    75  78  11    75  78  11    74  77  10    72  75   8    74  77  10    75  78   9    73  76   7    73  76   7    76  79  10    74  77   8    68  71   4    75  75  13    74  74  14    72  73  13    69  72  13    69  74  17    72  77  24    73  80  33    76  84  44    99 105  75   140 148 126   173 181 166   182 189 183   183 190 188   185 190 185     0   0   0     0   0   0     0   0   0     0   0   0     0   0   0     0   0   0  
   0   0   0     0   0   0     0   0   0     0   0   0     0   0   0     0   0   0     0   0   0     0   0   0    74  79  13    75  80  13    71  76   9    71  77   7    71  77   7    71  77   7    72  78   8    73  79   9    74  78  10    73  75  11    71  73  10    72  74  11    73  75  10    70  72   7    69  71   6    66  68   3    66  68   3    66  68   3    65  68   1    66  69   2    66  69   2    63  65   1    68  68   8    68  67  10    66  67  10    65  67  12    73  78  24    89  93  44   102 108  66   123 131  96   153 163 136   179 187 171   178 188 181   173 182 183   181 190 194   186 191 189   183 185 182     0   0   0     0   0   0     0   0   0     0   0   0     0   0   0  
   0   0   0     0   0   0     0   0   0     0   0   0     0   0   0     0   0   0     0   0   0    76  77  17    70  72  10    69  71   8    69  71   6    69  71   6    70  72   6    71  74   7    74  77  10    77  80  13    76  78  13    70  72  10    69  70  10    72  73  13    73  74  14    70  71  11    69  70  10    70  70  12    74  75  17    77  78  19    73  74  16    73  74  16    74  75  17    76  76  22    76  78  30    78  80  35    79  82  38    83  88  45   101 106  66   129 135  99   155 161 130   183 190 167   184 192 175   175 182 173   175 184 182   187 195 199   183 189 196   181 184 185   179 181 178     0   0   0     0   0   0     0   0   0     0   0   0     0   0   0  
   0   0   0     0   0   0     0   0   0     0   0   0     0   0   0     0   0   0    84  81  25    80  78  21    77  75  18    77  75  18    75  73  14    75  72  13    77  75  14    77  75  14    73  72   8    70  69   5    70  69   7    69  70   7    66  67   6    69  69   9    70  71  13    68  69  12    71  72  16    71  71  18    70  70  20    71  70  22    75  74  28    80  79  34    83  82  38    83  83  44    73  79  47    79  88  62    96 104  81   124 132 111   157 164 146   179 183 169   181 184 174   180 183 176   182 184 180   183 184 185   184 185 189   185 186 190   183 183 187   183 183 184   182 182 182   179 179 182     0   0   0     0   0   0     0   0   0     0   0   0  
   0   0   0     0   0   0     0   0   0     0   0   0     0   0   0   100  96  48    95  91  43    93  89  40    92  89  38    92  89  38    83  80  29    82  79  26    83  80  26    84  81  26    81  78  23    80  77  22    82  82  24    84  86  28    78  81  24    77  80  25    76  79  26    76  77  28    79  81  33    81  82  37    81  82  40    81  82  42    80  80  43    83  83  48    90  90  58    96  98  69   135 144 123   145 156 141   159 169 157   169 177 168   175 182 175   173 177 176   170 173 173   178 179 181   181 180 185   183 182 187   186 185 190   189 188 192   187 185 188   184 182 184   183 181 182   179 179 180     0   0   0     0   0   0     0   0   0     0   0   0  
   0   0   0     0   0   0     0   0   0     0   0   0   107 108  68   100 102  62    97  98  58    96  97  56    95  96  54    94  95  53    93  94  51    89  90  46    89  90  45    88  90  43    87  89  42    87  89  42    89  91  44    84  89  41    80  86  37    80  86  39    82  88  45    87  92  51    94  99  59    98 102  64   105 109  76   118 121  90   128 131 103   140 143 116   156 159 132   169 173 149   174 183 167   177 187 176   177 187 177   175 183 176   174 180 176   175 179 178   174 177 179   176 177 181   180 179 184   183 182 187   187 186 191   191 190 194   190 188 191   184 183 185   181 181 183   177 177 182     0   0   0     0   0   0     0   0   0     0   0   0  
   0   0   0     0   0   0     0   0   0   201 204 178   189 192 163   170 173 142   152 155 124   135 138 107   119 123  90   107 111  78   107 110  77   102 106  72    98 102  67    96 100  65    94  98  63    96 100  63    98 105  66    99 107  69   101 109  72   106 114  79   116 123  90   127 133 101   136 143 112   152 158 129   165 171 145   177 182 159   186 191 170   191 196 176   193 198 178   194 201 184   174 183 172   168 178 169   161 171 163   159 166 161   165 171 169   176 180 182   179 182 185   176 177 181   180 179 184   183 182 187   187 186 191   190 189 192   189 187 190   183 182 184   179 178 183   175 174 179   170 170 176     0   0   0     0   0   0     0   0   0  
   0   0   0     0   0   0   228 228 222   229 232 219   227 231 214   223 228 208   219 224 204   213 218 198   205 210 190   198 203 183   187 192 170   181 186 164   177 182 160   173 178 156   169 174 152   171 176 153   173 179 156   176 185 161   180 190 166   186 196 172   195 204 183   203 212 191   208 217 198   202 211 193   198 206 191   198 206 191   196 204 191   192 200 187   182 190 178   173 180 171   174 184 177   170 179 174   168 177 174   171 178 177   173 178 181   172 176 179   172 174 179   178 179 184   180 180 185   183 182 187   185 184 189   187 186 189   186 184 187   180 178 183   177 176 182   172 173 179   168 168 176     0   0   0     0   0   0     0   0   0  
   0   0   0   212 212 213   210 211 211   216 220 216   221 227 217   224 230 220   227 233 223   229 235 225   228 234 224   227 233 223   227 233 221   222 228 216   218 224 212   214 220 208   209 215 203   209 215 201   209 215 202   204 214 200   205 215 202   204 215 201   205 215 204   206 216 205   205 215 205   202 212 203   196 206 198   189 199 191   186 196 188   186 196 188   181 191 185   175 184 179   174 183 180   168 177 176   168 176 177   173 179 182   174 179 183   169 173 178   170 172 177   178 179 184   180 180 185   181 180 185   183 183 185   184 184 185   182 180 182   177 176 181   174 173 181   169 169 178   166 166 174   162 162 171   157 159 168     0   0   0  
 220 220 223   215 216 221   221 222 227   220 223 225   220 224 221   221 226 222   219 224 220   216 221 217   216 221 217   219 224 220   222 227 223   218 223 219   216 221 217   213 218 215   209 214 210   208 213 207   208 213 208   205 211 207   205 211 206   199 205 201   197 203 199   198 204 200   196 202 199   205 211 209   205 211 209   196 202 202   191 197 197   188 194 194   185 191 191   181 187 187   170 178 180   162 170 173   160 167 172   163 168 174   166 171 177   170 173 180   174 176 184   176 176 184   178 178 184   179 178 184   181 180 185   183 182 184   180 178 180   175 174 180   171 171 183   167 167 179   162 163 175   158 161 171   156 158 167   154 157 166  
 214 215 219   216 216 222   218 219 225   222 223 227   225 226 228   224 225 227   219 220 222   216 217 219   218 219 221   224 225 227   217 218 220   215 215 218   215 216 218   214 215 217   210 211 213   209 210 212   207 211 212   205 209 210   205 209 210   201 205 206   203 206 208   209 213 214   211 215 216   203 207 208   200 204 205   198 202 204   193 197 200   188 192 195   184 188 191   180 185 188   174 182 186   172 179 185   171 178 184   170 175 183   166 170 179   168 171 180   173 175 183   174 174 182   176 175 182   178 177 182   180 180 182   182 181 183   179 178 180   173 173 181   170 170 182   167 167 179   161 162 174   157 159 171   155 157 167   154 157 166  
