P3
50 64
255
  26  28  27    27  29  28    30  30  30    30  30  30    29  29  29    30  29  27    31  29  28    38  34  33    39  34  31    41  36  33    45  37  35    49  41  39    51  45  42    50  47  42    50  47  40    50  47  42    49  45  42    49  45  44    48  44  44    47  43  44    46  41  45    46  41  44    46  42  43    44  40  40    44  40  39    46  42  39    46  42  39    46  42  39    48  44  41    51  47  44    52  48  45    50  47  44    50  46  43    48  44  41    47  43  40    46  42  39    45  40  38    43  39  36    41  37  34    41  37  36    41  35  37    40  35  37    40  34  36    37  33  34    36  32  33    33  32  30    33  32  30    32  32  30    31  32  28    29  31  26  
  25  27  26    26  28  27    29  29  29    30  30  30    30  30  30    30  29  27    32  30  28    37  33  32    38  34  31    41  36  33    45  37  35    49  41  39    52  44  42    51  45  41    49  46  39    49  46  41    48  45  40    48  44  42    47  43  43    47  43  44    46  41  45    46  41  44    46  42  43    44  40  40    45  41  40    46  42  39    47  43  40    47  43  40    48  44  41    50  46  43    51  47  44    50  45  43    49  45  42    49  45  42    48  44  41    48  44  41    47  43  40    46  42  39    44  40  37    44  40  37    44  38  38    43  37  39    42  36  38    40  35  36    38  34  35    35  34  32    34  33  31    32  32  30    31  32  28    29  31  26  
  24  26  25    26  27  26    28  28  28    29  29  29    30  30  30    30  29  27    32  30  28    37  33  32    38  34  31    41  36  33    45  37  35    48  41  38    50  43  40    47  44  38    47  44  37    47  44  39    47  44  39    47  43  41    46  42  43    46  42  43    46  42  43    45  42  43    45  41  42    45  41  41    46  42  41    46  42  39    47  43  40    48  45  40    48  45  40    49  46  41    49  46  41    49  45  40    48  45  40    49  46  41    49  46  41    49  46  41    49  45  40    48  45  40    48  45  40    48  44  41    47  41  41    45  40  41    45  39  39    42  37  36    40  36  35    37  36  34    35  35  32    33  34  29    31  32  27     0   0   0  
  22  24  23    24  25  25    27  27  27    29  29  29    29  29  29    30  29  27    31  30  28    36  32  31    37  33  30    40  35  32    45  37  35    47  40  37    50  42  39    47  41  36    45  42  35    45  42  37    45  42  37    46  42  40    46  42  42    46  42  43    46  42  43    45  42  43    45  41  42    45  42  41    47  43  42    47  43  40    47  43  40    49  46  41    48  45  40    48  45  40    47  44  39    47  44  39    48  45  40    49  46  41    50  47  42    50  47  42    50  47  42    50  47  42    50  47  42    50  46  43    49  43  43    48  42  43    46  41  41    43  40  38    41  37  36    38  37  35    36  35  33    34  35  30     0   0   0     0   0   0  
  21  23  22    23  24  23    26  26  26    28  28  28    28  28  28    30  29  27    30  28  26    34  30  29    36  31  29    39  34  31    44  36  34    46  38  36    47  41  38    44  40  34    43  40  31    44  41  34    44  41  36    45  41  38    45  41  39    46  42  43    46  42  43    45  40  41    45  41  40    47  43  41    48  44  41    47  43  40    47  43  40    50  45  40    49  44  38    49  44  38    48  43  37    48  43  37    49  44  38    50  45  39    50  45  39    51  46  40    51  46  40    51  46  40    52  47  40    52  47  43    48  44  41    47  43  42    45  42  41    41  41  38    40  39  37    39  38  34    38  37  33     0   0   0     0   0   0     0   0   0  
  21  23  22    23  24  23    26  26  26    27  27  27    27  27  27    28  27  25    29  27  25    32  28  27    35  30  28    38  33  30    43  35  33    45  37  35    46  38  36    43  37  32    42  39  30    42  39  32    43  40  36    45  41  38    45  42  40    46  42  43    46  42  43    45  40  41    45  41  40    48  44  42    50  46  43    48  44  41    46  42  39    49  44  39    49  44  38    50  45  39    50  45  39    50  45  39    49  44  38    50  45  39    51  46  40    51  46  40    51  46  40    52  47  41    52  47  41    52  47  43    47  43  40    46  43  42    44  43  41    42  41  39    41  40  38    41  40  36     0   0   0     0   0   0     0   0   0     0   0   0  
  22  24  23    23  25  24    26  26  26    26  26  26    26  26  26    27  26  24    27  25  23    30  26  25    33  28  26    37  32  29    41  33  31    43  35  33    43  37  34    41  38  31    41  38  29    42  39  32    43  40  34    45  41  37    45  42  40    46  42  41    46  42  43    44  40  40    45  41  40    49  45  42    51  47  44    49  45  42    46  43  37    48  43  37    49  44  38    51  46  40    52  47  41    50  45  40    50  45  39    52  47  41    53  48  42    53  48  42    53  48  42    53  48  42    52  47  41    52  47  43    47  43  40    45  44  42    45  44  42    44  43  41    44  43  41     0   0   0     0   0   0     0   0   0     0   0   0     0   0   0  
  22  24  23    23  25  24    26  26  26    26  26  26    25  25  25    26  25  23    26  24  22    29  25  24    32  27  25    36  31  28    41  33  31    42  34  32    42  36  33    40  37  31    41  38  31    42  39  32    43  40  35    45  41  37    45  42  39    48  42  42    47  41  41    44  40  39    45  41  39    49  45  42    51  47  44    49  45  42    46  42  38    47  42  37    49  44  38    52  47  41    53  48  42    52  47  40    51  46  40    53  48  42    57  50  44    57  50  44    56  49  43    56  49  43    55  48  42    55  47  44    48  44  41    48  44  43    48  44  43    48  44  43     0   0   0     0   0   0     0   0   0     0   0   0     0   0   0     0   0   0  
  25  27  26    23  25  24    22  24  23    22  22  21    24  24  22    27  26  24    28  26  23    28  24  21    32  27  24    37  32  29    39  34  31    41  35  32    42  35  32    40  36  32    38  37  32    40  37  32    41  38  33    44  39  35    47  42  38    49  44  41    50  45  42    49  44  40    48  43  40    47  44  39    47  44  39    46  45  40    47  46  41    49  46  41    47  44  38    49  46  39    53  49  40    55  50  42    56  49  40    55  49  39    57  48  41    56  47  40    56  47  41    57  46  42    58  45  43    57  46  44    53  45  42    51  46  42    51  46  42     0   0   0     0   0   0     0   0   0     0   0   0     0   0   0     0   0   0     0   0   0  
  24  26  25    23  25  24    22  24  23    23  23  21    24  24  22    26  25  23    27  25  23    28  24  21    32  27  24    36  31  28    39  34  31    41  35  32    41  35  31    40  36  32    38  37  32    41  38  33    42  39  34    45  40  36    48  41  38    50  42  39    52  44  41    50  43  40    48  43  39    47  44  39    47  44  39    46  45  40    47  45  40    48  45  40    47  44  37    49  46  39    52  48  39    55  50  40    55  48  38    56  48  38    57  48  39    57  46  40    57  45  41    59  45  42    59  43  43    58  44  43    53  45  42    52  47  43    53  45  42     0   0   0     0   0   0     0   0   0     0   0   0     0   0   0     0   0   0     0   0   0  
  22  24  23    22  24  22    23  23  21    24  24  22    24  24  22    26  25  23    26  24  22    28  24  21    32  27  24    36  31  28    41  33  30    42  34  31    41  34  31    40  36  31    39  38  33    42  39  34    44  40  36    46  41  37    48  41  38    49  41  38    51  43  40    50  43  40    48  43  39    47  44  39    47  44  39    46  45  40    46  45  40    47  44  39    47  44  37    48  45  38    51  47  38    52  48  38    54  47  37    56  48  38    57  48  39    57  46  40    57  45  41    59  45  42    58  44  42    56  45  43    51  46  42    51  48  43     0   0   0     0   0   0     0   0   0     0   0   0     0   0   0     0   0   0     0   0   0     0   0   0  
  21  23  22    21  23  22    24  24  22    24  24  22    25  25  23    26  25  23    26  24  22    28  24  21    32  27  24    37  32  29    41  33  30    42  34  30    40  34  30    40  36  31    39  38  33    43  40  35    46  42  37    47  42  38    48  41  37    48  40  37    50  42  39    49  42  39    48  43  39    47  44  39    47  44  39    45  44  39    45  44  39    46  43  38    47  44  37    48  45  38    50  46  37    51  47  37    53  46  36    56  47  38    56  47  38    57  46  40    56  45  40    58  44  41    57  43  41    55  44  42    50  45  41     0   0   0     0   0   0     0   0   0     0   0   0     0   0   0     0   0   0     0   0   0     0   0   0     0   0   0  
  21  23  20    21  23  20    24  24  22    25  25  23    26  25  23    27  26  22    27  25  22    30  26  23    34  29  25    38  33  29    42  34  31    42  34  31    41  35  31    40  37  32    40  39  34    44  41  36    45  42  37    46  41  37    47  40  36    47  39  36    50  42  39    49  42  39    48  43  39    47  44  39    47  44  39    45  44  39    45  44  39    46  43  38    47  44  37    47  44  37    49  45  36    50  45  35    52  45  35    55  46  37    56  47  38    55  46  39    54  45  38    55  44  40    53  42  40    52  42  40     0   0   0     0   0   0     0   0   0     0   0   0     0   0   0     0   0   0     0   0   0     0   0   0     0   0   0     0   0   0  
  22  24  21    22  24  21    24  24  22    25  25  23    27  26  24    28  27  23    31  27  24    33  28  25    36  31  27    39  34  31    43  35  32    44  36  33    43  36  33    42  39  34    41  40  35    44  41  36    44  40  36    45  40  36    46  39  36    46  38  35    49  41  38    49  41  38    48  43  39    47  44  39    47  44  39    44  43  38    45  43  38    47  44  39    48  45  40    48  45  38    48  43  37    49  44  35    52  45  36    54  45  36    55  46  39    54  45  38    53  43  39    53  42  39    52  41  39     0   0   0     0   0   0     0   0   0     0   0   0     0   0   0     0   0   0     0   0   0     0   0   0     0   0   0     0   0   0     0   0   0  
  24  24  22    24  24  22    23  23  21    24  24  20    27  26  22    31  27  24    33  29  25    35  31  26    38  33  29    43  36  33    45  37  34    46  38  34    46  38  32    44  40  35    41  40  35    43  40  35    43  39  35    44  39  35    45  38  35    46  38  35    48  40  37    49  41  38    48  43  39    47  44  39    47  44  39    44  43  38    44  42  37    47  43  39    48  45  40    48  45  38    48  43  37    48  44  35    50  46  37    52  46  38    53  46  38    53  44  37    52  43  38    51  41  38     0   0   0     0   0   0     0   0   0     0   0   0     0   0   0     0   0   0     0   0   0     0   0   0     0   0   0     0   0   0     0   0   0     0   0   0  
  25  25  23    24  24  22    23  23  21    24  24  20    28  27  23    32  28  25    35  30  27    37  32  28    40  33  30    44  37  34    46  38  35    47  39  35    47  39  33    45  41  36    42  41  36    42  39  34    41  38  33    43  38  34    45  38  35    46  38  35    48  40  37    49  41  38    48  43  39    47  44  39    47  44  39    44  43  38    44  42  37    47  43  40    49  45  41    49  46  41    48  43  37    47  43  36    50  46  37    52  46  38    52  45  37    52  43  38    50  41  37    50  40  38     0   0   0     0   0   0     0   0   0     0   0   0     0   0   0     0   0   0     0   0   0     0   0   0     0   0   0     0   0   0     0   0   0     0   0   0  
  26  27  22    28  28  24    28  27  23    27  26  22    29  29  24    33  30  25    34  30  25    40  35  31    44  37  32    47  40  34    48  39  34    49  40  35    50  42  37    46  42  37    42  41  36    44  41  36    43  40  35    44  39  35    44  37  34    44  36  33    42  34  31    45  38  35    47  42  38    47  44  39    46  43  38    44  43  38    45  43  39    49  45  42    50  45  41    51  46  42    50  45  39    49  44  37    48  44  35    48  44  35    46  42  33    46  39  33    46  39  34     0   0   0     0   0   0     0   0   0     0   0   0     0   0   0     0   0   0     0   0   0     0   0   0     0   0   0     0   0   0     0   0   0     0   0   0     0   0   0  
  26  27  22    28  29  24    28  27  23    28  27  23    32  29  26    34  31  26    36  31  27    41  35  31    45  38  33    48  41  35    49  40  35    49  40  35    50  42  37    47  43  38    44  43  38    45  42  37    44  40  35    44  39  35    44  37  34    45  37  34    43  35  32    45  38  35    47  42  38    46  43  38    46  43  38    44  43  38    46  44  40    48  44  41    49  44  41    49  44  40    49  44  39    48  43  37    47  43  35    47  43  34    45  40  34    46  39  33    46  38  36     0   0   0     0   0   0     0   0   0     0   0   0     0   0   0     0   0   0     0   0   0     0   0   0     0   0   0     0   0   0     0   0   0     0   0   0     0   0   0  
  27  26  22    29  28  24    29  28  24    30  28  23    34  31  26    36  33  28    37  32  27    42  36  30    46  39  33    49  41  36    50  41  36    50  40  35    51  41  36    48  43  38    45  44  39    46  43  38    45  41  36    44  39  35    44  36  33    44  36  33    44  36  33    45  38  35    46  41  37    45  42  37    45  42  37    45  44  39    46  44  40    48  43  40    47  42  39    46  41  37    46  41  37    46  41  35    47  42  36    46  41  35    45  40  34    44  39  33    44  39  35     0   0   0     0   0   0     0   0   0     0   0   0     0   0   0     0   0   0     0   0   0     0   0   0     0   0   0     0   0   0     0   0   0     0   0   0     0   0   0  
  28  27  23    30  29  25    30  29  25    31  29  24    34  32  27    38  33  29    39  33  29    44  37  31    48  39  34    50  41  36    50  41  36    49  40  34    50  40  35    47  42  37    44  43  38    45  42  37    43  39  35    43  38  34    43  36  32    42  34  31    45  37  34    45  38  35    46  41  37    45  41  36    45  42  37    45  44  39    48  44  42    47  41  41    45  40  38    44  39  36    44  39  35    45  40  35    46  41  35    45  40  34    44  39  33    43  38  34     0   0   0     0   0   0     0   0   0     0   0   0     0   0   0     0   0   0     0   0   0     0   0   0     0   0   0     0   0   0     0   0   0     0   0   0     0   0   0     0   0   0  
  29  28  24    31  30  25    32  29  24    32  29  24    35  32  27    38  33  29    39  33  29    44  37  31    48  39  34    50  41  36    50  39  33    49  38  32    48  38  31    45  40  33    41  40  35    42  39  34    41  37  33    41  36  32    40  33  30    41  33  30    45  37  34    45  38  35    46  41  37    45  41  36    45  42  37    45  44  39    46  44  40    45  40  39    44  39  37    44  39  36    44  39  35    45  40  35    46  41  35    44  40  33    43  40  33    42  39  34     0   0   0     0   0   0     0   0   0     0   0   0     0   0   0     0   0   0     0   0   0     0   0   0     0   0   0     0   0   0     0   0   0     0   0   0     0   0   0     0   0   0  
  30  29  25    32  30  26    33  30  25    32  29  24    34  32  27    37  32  28    38  32  28    43  36  30    47  38  33    49  40  35    49  38  32    47  35  30    46  36  30    42  37  32    39  38  33    40  37  32    40  36  32    40  35  31    40  33  30    41  33  30    44  36  33    45  38  35    46  41  37    45  42  37    45  42  37    45  44  39    47  42  40    45  39  39    45  40  37    45  40  37    45  40  36    45  40  35    46  41  35    42  39  32    42  39  32     0   0   0     0   0   0     0   0   0     0   0   0     0   0   0     0   0   0     0   0   0     0   0   0     0   0   0     0   0   0     0   0   0     0   0   0     0   0   0     0   0   0     0   0   0  
  32  31  26    33  32  27    33  30  25    32  29  24    34  31  26    36  31  25    36  31  25    41  34  28    45  37  30    48  39  32    47  36  30    45  34  28    43  33  27    41  36  29    38  37  32    40  37  32    40  37  32    41  36  32    42  35  32    43  35  32    43  35  32    45  38  35    47  42  38    46  43  38    46  43  38    44  43  38    44  42  38    44  39  38    45  40  37    46  41  38    47  42  38    47  42  37    46  43  36    41  38  31    41  38  31     0   0   0     0   0   0     0   0   0     0   0   0     0   0   0     0   0   0     0   0   0     0   0   0     0   0   0     0   0   0     0   0   0     0   0   0     0   0   0     0   0   0     0   0   0  
  32  31  27    33  31  28    33  29  26    31  27  24    33  29  25    35  30  26    35  30  26    41  33  29    45  36  31    47  38  33    46  35  31    43  32  28    41  31  27    40  34  30    40  37  32    41  36  32    41  36  32    43  37  33    44  36  33    44  36  33    42  34  31    46  39  33    48  42  36    48  43  37    47  42  36    46  43  36    45  42  37    44  40  38    45  40  38    46  42  39    47  44  39    47  44  38    46  43  36    41  38  31    42  37  31     0   0   0     0   0   0     0   0   0     0   0   0     0   0   0     0   0   0     0   0   0     0   0   0     0   0   0     0   0   0     0   0   0     0   0   0     0   0   0     0   0   0     0   0   0  
  33  29  28    33  29  28    32  28  27    31  26  25    32  27  24    35  30  27    37  32  29    40  32  29    40  33  30    41  33  30    42  32  30    42  32  30    41  31  29    38  30  27    39  31  29    41  33  31    42  35  32    45  36  33    45  35  31    45  36  31    46  37  32    47  38  31    48  40  33    48  41  31    48  41  31    48  42  30    45  41  32    43  41  37    41  40  36    41  40  36    42  41  36    45  42  37    47  44  39    46  41  35     0   0   0     0   0   0     0   0   0     0   0   0     0   0   0     0   0   0     0   0   0     0   0   0     0   0   0     0   0   0     0   0   0     0   0   0     0   0   0     0   0   0     0   0   0     0   0   0  
  34  30  31    34  30  30    32  28  29    31  26  26    32  26  26    34  28  28    36  30  29    39  31  29    40  32  30    41  33  31    42  32  31    42  32  30    41  31  29    40  30  29    41  31  30    43  33  32    45  35  33    46  36  34    46  37  32    46  37  32    47  38  31    48  39  32    50  41  32    50  42  31    50  42  31    50  42  29    46  41  32    42  42  37    40  41  36    41  40  36    42  41  36    45  41  36    47  43  38    47  41  35     0   0   0     0   0   0     0   0   0     0   0   0     0   0   0     0   0   0     0   0   0     0   0   0     0   0   0     0   0   0     0   0   0     0   0   0     0   0   0     0   0   0     0   0   0     0   0   0  
  35  31  32    34  30  30    33  29  28    31  26  26    31  25  25    33  27  27    35  28  28    38  30  28    39  30  29    40  32  30    41  31  29    42  32  30    41  31  29    42  32  30    43  33  32    45  35  34    46  36  35    47  37  35    47  38  33    47  38  33    49  40  33    49  40  33    51  42  33    52  43  33    51  43  32    51  43  32    47  42  33    43  41  36    41  40  36    41  40  36    41  40  35    44  41  36    46  42  37    47  40  35    47  40  34     0   0   0     0   0   0     0   0   0     0   0   0     0   0   0     0   0   0     0   0   0     0   0   0     0   0   0     0   0   0     0   0   0     0   0   0     0   0   0     0   0   0     0   0   0  
  35  31  32    35  30  31    33  29  28    31  26  26    30  24  24    32  26  26    34  27  27    38  30  28    38  30  28    39  31  29    41  31  29    42  32  30    42  32  30    43  33  32    45  35  34    47  37  36    48  38  37    49  39  37    48  39  35    48  39  34    50  41  34    51  42  35    52  43  34    52  43  34    52  44  33    51  43  32    48  42  34    44  40  36    42  38  35    42  38  35    42  39  34    44  39  35    46  40  36    48  40  35    49  40  35    48  39  34     0   0   0     0   0   0     0   0   0     0   0   0     0   0   0     0   0   0     0   0   0     0   0   0     0   0   0     0   0   0     0   0   0     0   0   0     0   0   0     0   0   0  
  34  30  29    34  30  29    33  29  28    31  26  26    30  24  24    31  26  23    33  27  25    37  29  27    38  30  27    39  31  28    41  31  29    42  32  30    44  34  32    45  36  34    46  38  36    47  39  37    48  40  38    49  41  38    48  41  36    48  41  35    50  43  35    50  43  35    52  45  36    52  45  35    51  44  34    50  43  33    47  41  34    44  39  36    42  38  35    42  37  34    42  37  33    45  37  34    46  38  35    47  40  35    49  40  35    48  39  34    48  37  32     0   0   0     0   0   0     0   0   0     0   0   0     0   0   0     0   0   0     0   0   0     0   0   0     0   0   0     0   0   0     0   0   0     0   0   0     0   0   0  
  32  28  27    33  29  28    33  29  28    31  26  26    31  25  25    31  26  23    33  27  25    37  29  27    38  30  27    39  31  28    42  32  30    43  33  31    46  36  34    46  37  35    47  39  37    48  40  38    49  41  39    50  42  39    49  42  36    49  42  36    50  43  37    50  43  35    51  44  36    51  44  35    50  43  33    49  42  32    47  41  34    44  39  35    42  37  34    41  36  33    43  35  32    44  36  33    45  36  34    47  38  34    48  39  34    49  38  34    48  37  32    49  36  30     0   0   0     0   0   0     0   0   0     0   0   0     0   0   0     0   0   0     0   0   0     0   0   0     0   0   0     0   0   0     0   0   0     0   0   0  
  31  27  26    32  28  27    33  29  28    32  27  25    31  26  23    32  27  24    34  28  25    38  30  27    38  30  27    39  31  28    42  32  30    45  35  32    47  38  34    47  39  37    48  40  38    49  41  39    50  42  40    50  42  39    49  41  38    49  42  36    49  42  36    50  43  36    50  43  35    50  43  35    49  42  34    48  41  33    47  39  34    46  38  35    44  36  34    43  35  33    43  35  32    43  35  32    45  35  33    47  38  34    49  38  34    48  37  33    48  37  32    49  36  30    48  35  29     0   0   0     0   0   0     0   0   0     0   0   0     0   0   0     0   0   0     0   0   0     0   0   0     0   0   0     0   0   0     0   0   0  
  30  26  25    31  27  26    32  28  27    32  27  25    32  27  24    32  27  24    35  29  26    38  30  27    38  30  27    39  31  28    42  32  30    46  36  33    48  39  35    48  40  38    48  40  38    49  41  39    50  42  40    50  42  39    49  41  38    49  41  38    49  42  36    49  42  36    50  43  36    49  42  34    48  41  33    47  40  32    46  39  33    46  38  35    44  36  34    43  35  33    42  34  31    42  34  31    44  34  32    47  37  33    48  37  33    48  37  33    47  36  31    49  36  30    47  34  28     0   0   0     0   0   0     0   0   0     0   0   0     0   0   0     0   0   0     0   0   0     0   0   0     0   0   0     0   0   0     0   0   0  
  27  23  20    27  23  20    29  25  22    30  25  23    32  27  24    33  28  24    35  29  25    39  31  28    39  32  26    39  32  26    41  32  27    44  35  30    49  40  35    49  41  37    48  43  40    49  44  40    49  44  40    48  43  39    49  44  40    50  45  41    50  45  41    49  44  38    47  42  36    44  39  33    42  37  31    43  38  32    44  38  33    44  36  33    42  34  32    41  33  31    40  32  29    41  33  30    43  33  31    44  34  30    44  35  30    45  36  31    44  34  29    44  33  27    45  34  28    45  36  29     0   0   0     0   0   0     0   0   0     0   0   0     0   0   0     0   0   0     0   0   0     0   0   0     0   0   0     0   0   0  
  27  23  20    27  23  20    29  25  22    30  25  23    32  27  24    32  27  23    34  28  25    39  31  28    39  32  26    39  32  26    41  32  27    44  35  30    49  40  35    48  40  37    47  42  39    48  43  39    47  42  38    46  41  37    47  42  38    48  43  39    48  43  39    48  43  38    46  41  35    43  38  32    41  36  30    41  36  30    43  37  33    42  34  32    40  32  30    39  31  29    39  31  28    39  31  28    40  31  29    42  32  28    43  34  29    44  35  30    43  34  29    43  33  26    44  33  27    44  35  28    42  35  29     0   0   0     0   0   0     0   0   0     0   0   0     0   0   0     0   0   0     0   0   0     0   0   0     0   0   0  
  26  22  19    26  22  19    28  24  21    29  25  21    31  26  22    32  27  23    33  28  23    38  31  25    39  32  25    40  33  27    41  32  27    44  35  29    47  39  33    45  40  35    45  40  36    46  41  37    45  40  35    44  39  35    44  39  35    45  40  36    46  41  37    46  41  37    45  40  36    41  36  32    40  35  31    40  35  31    40  35  31    37  32  29    36  31  28    35  30  27    35  30  26    35  30  26    37  30  27    39  31  26    40  33  27    42  35  29    40  34  27    40  33  25    40  33  25    41  34  26    41  34  28    41  34  28     0   0   0     0   0   0     0   0   0     0   0   0     0   0   0     0   0   0     0   0   0     0   0   0  
  25  21  18    26  22  19    27  23  20    28  24  20    30  25  21    31  26  22    33  27  23    37  30  24    39  32  26    40  33  27    42  33  28    44  35  29    47  39  32    44  38  34    44  39  35    45  40  36    44  39  35    43  38  34    43  38  34    44  39  35    45  40  36    45  40  36    44  39  35    41  36  32    40  35  31    40  35  31    39  34  31    36  31  28    36  31  28    35  30  27    35  30  26    35  30  26    35  30  26    35  30  25    39  32  26    40  33  27    38  33  26    38  34  25    37  33  24    39  33  27    40  32  29    42  32  29    43  34  29     0   0   0     0   0   0     0   0   0     0   0   0     0   0   0     0   0   0     0   0   0  
  24  20  17    25  21  18    27  24  19    28  24  20    30  25  21    30  25  21    32  26  22    36  29  23    39  32  26    41  34  28    43  34  27    43  35  27    46  38  30    45  39  32    44  41  36    44  41  36    43  40  35    42  39  34    41  38  33    42  39  34    43  39  36    44  40  37    44  40  37    41  37  35    40  36  33    40  36  33    38  34  31    35  31  28    35  31  28    35  31  28    35  32  27    34  31  26    34  31  26    32  29  23    34  31  24    37  34  27    37  34  26    37  34  25    36  33  24    37  32  26    41  31  29    42  32  30    45  35  29    47  37  29     0   0   0     0   0   0     0   0   0     0   0   0     0   0   0     0   0   0  
  24  20  17    24  21  17    26  23  18    27  23  19    29  24  20    30  25  21    31  26  21    36  29  23    39  32  26    42  35  29    43  34  27    44  35  28    45  37  31    44  39  34    44  41  36    44  41  36    43  40  35    42  39  34    41  38  33    42  39  34    42  38  35    43  39  36    44  40  37    41  37  35    40  36  33    40  36  33    38  34  31    35  31  28    35  31  28    35  31  28    35  32  27    34  31  26    34  31  26    32  29  23    34  31  24    37  34  27    35  35  27    35  35  25    34  34  24    37  34  27    42  32  30    44  32  32    46  35  31    48  38  30     0   0   0     0   0   0     0   0   0     0   0   0     0   0   0     0   0   0  
  23  20  15    24  21  16    25  22  17    26  22  18    28  23  19    29  24  18    30  25  18    35  28  22    39  32  24    42  35  27    44  35  28    44  35  28    44  36  29    43  38  31    43  40  34    43  40  35    41  38  33    40  37  32    40  36  32    40  36  33    40  36  33    41  37  35    43  39  36    41  36  33    39  35  32    38  34  31    37  34  30    32  31  27    33  32  28    33  32  28    32  31  26    32  30  25    31  30  25    30  30  22    32  32  24    35  35  27    35  37  28    35  37  26    34  36  25    37  34  27    43  33  31    47  33  32    49  36  31    50  38  30    52  39  30     0   0   0     0   0   0     0   0   0     0   0   0     0   0   0  
  23  19  16    23  19  16    25  21  18    26  22  19    28  23  19    29  24  20    30  24  21    35  27  23    39  32  26    43  34  27    44  35  28    45  34  28    45  35  29    42  36  30    42  39  34    42  39  34    40  37  32    40  35  31    39  34  30    40  35  31    39  34  30    41  36  33    42  37  34    40  36  32    37  33  32    37  33  32    35  31  30    33  29  26    34  30  27    34  30  27    34  30  27    32  29  24    31  28  23    32  29  24    34  32  25    38  35  28    39  36  29    39  36  28    38  35  26    39  34  28    44  33  29    48  35  30    50  37  30    52  39  30    52  40  28     0   0   0     0   0   0     0   0   0     0   0   0     0   0   0  
  21  20  18    21  20  18    22  21  19    23  20  19    24  20  17    25  20  17    27  21  17    33  25  22    37  27  25    42  31  27    42  31  27    42  31  27    42  32  27    40  33  28    38  35  28    40  35  29    41  37  28    44  37  30    44  37  31    45  38  32    42  35  29    41  33  30    41  33  31    38  32  31    37  31  33    35  30  34    34  29  30    32  26  26    31  25  25    31  26  23    34  26  24    35  27  25    37  29  26    38  28  26    39  29  27    40  30  28    40  30  25    40  31  26    42  33  28    45  36  29    47  37  28    47  37  27    48  38  28    48  38  26    48  38  26    48  38  26     0   0   0     0   0   0     0   0   0     0   0   0  
  21  19  20    21  19  20    21  19  20    23  20  19    24  20  19    25  20  17    27  21  18    33  25  23    37  27  25    41  30  28    43  29  26    43  29  26    43  30  27    40  33  28    38  35  28    39  35  26    41  36  27    44  36  28    45  35  29    45  36  29    43  34  29    42  32  30    41  32  32    38  31  33    36  30  34    34  29  34    32  27  30    32  25  26    32  23  24    32  23  24    34  24  23    35  25  24    36  26  25    37  25  25    38  27  25    39  28  26    39  28  26    42  29  27    44  30  27    47  34  28    46  36  26    46  36  24    47  37  25    47  37  25    47  37  25    48  38  26     0   0   0     0   0   0     0   0   0     0   0   0  
  20  18  19    20  18  18    21  20  18    22  19  18    24  20  19    25  20  17    26  21  18    32  24  22    36  26  24    39  29  27    40  29  27    40  29  26    40  30  26    38  32  27    37  34  27    38  34  25    40  35  26    42  35  27    43  35  28    44  35  28    43  34  29    41  33  28    40  32  29    36  30  29    33  27  29    31  26  30    30  25  29    30  24  26    29  23  23    28  22  22    31  22  23    31  22  23    33  24  24    33  23  22    35  25  24    36  26  25    37  27  25    38  28  26    41  30  28    44  33  29    43  34  25    44  36  25    44  36  25    45  37  25    45  37  26    45  37  26    45  37  25     0   0   0     0   0   0     0   0   0  
  19  17  18    19  17  18    20  19  17    22  19  18    23  19  18    25  20  17    26  21  18    31  23  21    34  25  23    37  27  25    38  27  25    38  27  25    38  28  25    36  30  25    35  32  25    37  32  26    38  33  24    41  34  26    42  33  26    42  33  26    42  33  28    41  32  30    38  30  29    34  27  29    31  25  27    28  23  27    28  23  27    28  22  25    27  21  23    26  20  20    26  20  20    29  20  21    31  22  23    30  21  21    32  22  21    34  24  23    34  24  23    36  26  25    37  27  26    40  30  28    41  32  25    41  32  23    42  33  24    42  33  24    42  33  24    43  34  25    43  34  25     0   0   0     0   0   0     0   0   0  
  18  16  17    18  16  17    20  19  17    21  18  17    23  19  18    25  19  19    26  19  19    29  21  19    32  23  21    34  24  23    34  24  23    35  24  22    36  26  24    35  28  25    33  30  23    35  30  24    36  30  24    39  32  26    40  31  25    40  31  24    41  32  27    39  30  26    36  28  26    32  26  25    29  23  25    26  21  25    25  20  24    26  21  25    24  19  23    23  19  20    23  19  20    24  20  21    26  21  22    25  19  21    27  21  21    29  23  23    32  23  24    33  24  24    34  26  24    36  28  25    37  30  22    37  30  20    38  31  21    38  31  21    38  31  21    39  32  22    39  32  22    39  32  22     0   0   0     0   0   0  
  17  15  16    17  16  15    19  18  16    21  18  17    23  19  18    25  19  19    26  19  18    28  20  18    30  20  19    31  21  20    31  21  20    31  21  20    33  23  21    31  25  22    31  28  23    32  27  23    33  28  22    36  29  23    37  29  22    38  29  24    39  30  25    37  28  25    34  26  25    30  23  25    27  21  23    24  19  23    24  20  23    23  21  24    21  19  22    22  17  21    22  17  21    22  18  19    23  19  20    23  19  20    26  20  22    28  22  24    29  23  23    30  23  23    32  23  24    33  25  23    34  27  21    34  27  21    35  28  22    35  28  22    35  28  22    35  28  22    35  29  23    36  29  23     0   0   0     0   0   0  
  16  15  13    18  16  14    21  17  16    22  18  17    23  19  18    24  18  18    24  18  18    24  18  18    27  19  20    28  19  20    28  19  20    28  19  20    30  21  21    28  23  20    27  26  21    29  26  21    31  26  21    34  27  21    34  27  21    35  28  22    36  29  23    35  27  24    33  25  23    29  22  22    25  21  22    22  20  23    21  19  23    21  20  25    19  18  23    19  17  20    19  17  20    19  17  20    20  18  21    20  19  22    24  21  22    27  23  24    27  23  24    27  23  24    26  22  23    27  23  22    28  25  20    28  25  18    29  26  19    29  26  19    30  27  20    30  27  20    29  26  19    29  26  19    30  27  20     0   0   0  
  16  15  13    17  15  13    20  16  15    20  17  15    23  19  18    24  18  18    24  18  18    23  17  17    26  18  19    27  18  19    26  17  18    26  17  18    28  20  21    27  22  22    25  24  20    28  24  21    28  25  20    32  26  21    33  26  20    34  27  21    34  26  23    34  25  23    31  24  23    27  22  23    25  21  22    22  20  23    21  19  23    21  20  25    19  18  23    18  17  22    19  17  20    19  17  20    20  18  21    21  19  22    23  21  24    27  23  24    27  23  24    26  22  23    25  21  22    25  21  20    27  23  20    27  24  19    27  24  19    28  25  20    28  25  20    28  25  20    27  24  19    26  23  18    27  24  19     0   0   0  
  18  14  13    18  14  13    20  16  15    22  18  17    23  19  18    22  18  17    21  17  16    22  16  16    22  16  17    22  16  18    22  16  18    22  16  18    22  16  17    22  17  17    22  21  17    27  23  20    30  26  21    32  27  23    33  26  22    33  25  22    33  25  22    31  24  21    29  24  21    26  21  20    24  20  21    21  19  22    19  18  21    18  17  22    18  17  22    18  17  22    18  18  20    18  18  20    19  17  20    20  18  20    20  18  21    20  18  19    21  18  19    22  18  19    22  18  19    22  18  17    22  18  15    23  19  16    25  21  18    25  22  19    25  21  18    25  21  18    25  20  18    25  21  18    25  21  18    27  23  20  
  19  15  14    18  14  13    20  16  15    22  18  17    23  19  18    22  18  17    21  17  16    22  16  16    22  16  17    22  16  18    22  16  18    22  16  18    22  17  18    20  18  19    21  20  18    26  22  21    29  25  21    31  26  23    32  25  21    32  24  21    32  24  21    30  23  20    28  22  21    25  20  21    23  19  20    20  18  21    19  18  21    18  17  22    18  17  22    18  17  22    18  18  20    18  18  20    19  17  20    20  18  20    20  18  21    20  18  19    21  18  19    22  18  19    22  18  19    22  18  17    23  19  16    24  20  17    26  22  19    26  22  19    26  22  19    25  21  18    24  20  17    23  19  16    24  20  17    25  21  18  
   0   0   0     0   0   0    20  16  15    21  17  16    23  19  18    22  18  19    20  16  17    20  16  17    20  16  17    20  16  17    20  15  19    20  15  19    20  16  18    19  17  18    19  19  19    23  21  22    27  23  22    29  24  21    30  23  20    30  22  19    31  23  20    29  22  19    27  22  19    25  20  19    20  18  19    18  18  20    18  18  20    17  17  19    17  17  19    17  17  19    18  16  17    18  16  17    18  16  17    21  17  18    22  18  19    22  18  17    22  18  17    22  18  17    22  18  17    22  18  17    24  20  17    24  20  17    26  22  19    26  22  19    26  22  19    25  21  18    24  20  17    22  18  15     0   0   0     0   0   0  
   0   0   0     0   0   0     0   0   0    20  17  15    22  18  17    21  17  18    20  15  17    19  15  16    19  15  16    19  14  18    19  14  18    19  14  18    18  15  18    17  16  19    18  18  18    21  19  20    24  21  22    27  23  21    29  21  19    29  21  18    29  21  18    28  21  18    25  21  19    22  19  20    20  18  19    18  18  20    18  18  20    18  18  20    18  18  20    19  17  18    19  17  18    19  17  18    20  17  18    21  17  18    21  17  16    21  17  16    21  17  16    21  17  16    21  17  16    21  17  14    23  19  16    24  20  17    25  21  18    25  21  18    25  21  18    24  20  17    23  19  16     0   0   0     0   0   0     0   0   0  
   0   0   0     0   0   0     0   0   0     0   0   0     0   0   0    21  17  18    19  15  16    18  14  15    16  14  16    16  14  17    16  14  17    16  14  19    16  14  18    17  16  18    18  18  20    20  18  19    23  20  20    25  21  19    25  21  18    26  21  18    26  21  18    25  20  18    24  20  17    21  19  17    19  17  18    18  18  20    17  17  19    19  17  18    19  17  18    19  18  16    19  18  16    21  17  16    21  17  16    22  18  17    23  18  15    23  18  15    23  18  15    23  18  15    23  18  14    23  18  14    24  19  15    24  19  15    25  20  16    25  20  16    25  20  16     0   0   0     0   0   0     0   0   0     0   0   0     0   0   0  
   0   0   0     0   0   0     0   0   0     0   0   0     0   0   0     0   0   0    19  15  16    18  14  15    16  14  16    16  14  17    16  14  19    16  14  19    16  14  19    17  16  19    18  18  20    20  18  21    21  19  19    24  20  19    25  20  17    25  20  17    26  21  18    25  20  17    24  20  18    21  18  19    20  18  19    18  18  20    18  18  20    20  18  19    20  19  17    20  19  17    22  18  17    22  18  17    22  18  17    23  18  16    23  18  15    23  18  15    23  18  15    23  18  14    23  18  14    23  18  14    24  19  15     0   0   0     0   0   0     0   0   0     0   0   0     0   0   0     0   0   0     0   0   0     0   0   0     0   0   0  
   0   0   0     0   0   0     0   0   0     0   0   0     0   0   0     0   0   0     0   0   0    16  14  17    16  14  17    16  14  17    16  14  19    16  14  19    16  14  19    17  16  21    18  18  20    20  18  21    21  18  19    23  19  18    24  20  17    25  20  17    25  20  17    25  20  17    24  20  17    21  20  17    20  18  19    19  19  19    19  18  18    22  20  18    23  19  18    23  19  18    23  19  16    23  19  16    24  19  16    24  19  15    24  19  15    26  18  15    26  18  14     0   0   0     0   0   0     0   0   0     0   0   0     0   0   0     0   0   0     0   0   0     0   0   0     0   0   0     0   0   0     0   0   0     0   0   0     0   0   0  
   0   0   0     0   0   0     0   0   0     0   0   0     0   0   0     0   0   0     0   0   0     0   0   0     0   0   0    17  15  18    17  15  18    17  15  18    17  15  18    18  16  19    19  17  20    20  18  19    21  18  18    23  19  18    24  20  17    24  20  17    24  20  17    24  20  17    23  20  18    21  19  19    20  18  19    19  19  19    20  20  19    23  21  19    24  20  19    24  20  19    24  20  17    24  20  17    25  20  17    25  20  16    25  20  16     0   0   0     0   0   0     0   0   0     0   0   0     0   0   0     0   0   0     0   0   0     0   0   0     0   0   0     0   0   0     0   0   0     0   0   0     0   0   0     0   0   0     0   0   0  
   0   0   0     0   0   0     0   0   0     0   0   0     0   0   0     0   0   0     0   0   0     0   0   0     0   0   0     0   0   0    17  15  16    18  16  17    21  19  20    19  17  16    21  17  16    22  18  17    23  20  18    22  21  17    21  20  17    20  19  17    22  21  19    22  21  19    21  21  20    20  20  20    19  19  19    18  20  19    19  19  18    22  19  17    24  20  17    25  21  18    25  21  18    25  20  18    24  20  17    23  19  16     0   0   0     0   0   0     0   0   0     0   0   0     0   0   0     0   0   0     0   0   0     0   0   0     0   0   0     0   0   0     0   0   0     0   0   0     0   0   0     0   0   0     0   0   0     0   0   0  
   0   0   0     0   0   0     0   0   0     0   0   0     0   0   0     0   0   0     0   0   0     0   0   0     0   0   0     0   0   0     0   0   0    18  17  15    20  19  17    20  17  15    21  17  14    22  18  15    22  19  16    21  20  16    21  20  17    21  20  18    22  22  20    22  22  20    21  21  21    20  20  20    20  20  20    19  21  20    20  20  19    22  20  17    24  20  17    25  21  18    26  22  19    25  21  18     0   0   0     0   0   0     0   0   0     0   0   0     0   0   0     0   0   0     0   0   0     0   0   0     0   0   0     0   0   0     0   0   0     0   0   0     0   0   0     0   0   0     0   0   0     0   0   0     0   0   0     0   0   0  
   0   0   0     0   0   0     0   0   0     0   0   0     0   0   0     0   0   0     0   0   0     0   0   0     0   0   0     0   0   0     0   0   0     0   0   0     0   0   0    22  18  16    22  18  15    22  18  15    22  18  15    21  20  16    21  20  17    22  21  19    22  22  20    22  22  21    22  22  22    21  21  21    21  21  21    21  21  21    21  20  18    23  21  17    25  20  18    26  22  19    26  22  19     0   0   0     0   0   0     0   0   0     0   0   0     0   0   0     0   0   0     0   0   0     0   0   0     0   0   0     0   0   0     0   0   0     0   0   0     0   0   0     0   0   0     0   0   0     0   0   0     0   0   0     0   0   0     0   0   0  
   0   0   0     0   0   0     0   0   0     0   0   0     0   0   0     0   0   0     0   0   0     0   0   0     0   0   0     0   0   0     0   0   0     0   0   0     0   0   0     0   0   0     0   0   0    22  18  15    22  18  15    21  20  16    22  20  18    22  21  19    21  21  19    21  21  20    21  21  21    20  20  20    20  20  20    20  20  20    22  20  20    25  21  19    25  21  18    26  22  19     0   0   0     0   0   0     0   0   0     0   0   0     0   0   0     0   0   0     0   0   0     0   0   0     0   0   0     0   0   0     0   0   0     0   0   0     0   0   0     0   0   0     0   0   0     0   0   0     0   0   0     0   0   0     0   0   0     0   0   0  
   0   0   0     0   0   0     0   0   0     0   0   0     0   0   0     0   0   0     0   0   0     0   0   0     0   0   0     0   0   0     0   0   0     0   0   0     0   0   0     0   0   0     0   0   0     0   0   0     0   0   0    24  20  17    22  20  18    22  21  19    20  19  17    20  19  18    20  20  20    20  20  20    20  20  20    20  20  20    22  20  18    26  21  18    26  21  18     0   0   0     0   0   0     0   0   0     0   0   0     0   0   0     0   0   0     0   0   0     0   0   0     0   0   0     0   0   0     0   0   0     0   0   0     0   0   0     0   0   0     0   0   0     0   0   0     0   0   0     0   0   0     0   0   0     0   0   0     0   0   0  
   0   0   0     0   0   0     0   0   0     0   0   0     0   0   0     0   0   0     0   0   0     0   0   0     0   0   0     0   0   0     0   0   0     0   0   0     0   0   0     0   0   0     0   0   0     0   0   0     0   0   0     0   0   0     0   0   0    21  20  18    20  19  17    20  19  17    20  20  20    20  20  20    20  20  20    20  20  20    23  21  21    26  22  20     0   0   0     0   0   0     0   0   0     0   0   0     0   0   0     0   0   0     0   0   0     0   0   0     0   0   0     0   0   0     0   0   0     0   0   0     0   0   0     0   0   0     0   0   0     0   0   0     0   0   0     0   0   0     0   0   0     0   0   0     0   0   0     0   0   0  
   0   0   0     0   0   0     0   0   0     0   0   0     0   0   0     0   0   0     0   0   0     0   0   0     0   0   0     0   0   0     0   0   0     0   0   0     0   0   0     0   0   0     0   0   0     0   0   0     0   0   0     0   0   0     0   0   0     0   0   0     0   0   0    22  20  20    22  20  21    22  21  22    22  22  22    22  22  22     0   0   0     0   0   0     0   0   0     0   0   0     0   0   0     0   0   0     0   0   0     0   0   0     0   0   0     0   0   0     0   0   0     0   0   0     0   0   0     0   0   0     0   0   0     0   0   0     0   0   0     0   0   0     0   0   0     0   0   0     0   0   0     0   0   0     0   0   0     0   0   0  
   0   0   0     0   0   0     0   0   0     0   0   0     0   0   0     0   0   0     0   0   0     0   0   0     0   0   0     0   0   0     0   0   0     0   0   0     0   0   0     0   0   0     0   0   0     0   0   0     0   0   0     0   0   0     0   0   0     0   0   0     0   0   0     0   0   0     0   0   0    23  23  23    24  24  24     0   0   0     0   0   0     0   0   0     0   0   0     0   0   0     0   0   0     0   0   0     0   0   0     0   0   0     0   0   0     0   0   0     0   0   0     0   0   0     0   0   0     0   0   0     0   0   0     0   0   0     0   0   0     0   0   0     0   0   0     0   0   0     0   0   0     0   0   0     0   0   0     0   0   0  
