P3
50 66
255
  63  48  41    62  47  40    62  47  40     0   0   0     0   0   0     0   0   0     0   0   0     0   0   0     0   0   0     0   0   0     0   0   0     0   0   0     0   0   0     0   0   0     0   0   0     0   0   0     0   0   0     0   0   0     0   0   0     0   0   0     0   0   0     0   0   0     0   0   0     0   0   0     0   0   0     0   0   0     0   0   0     0   0   0     0   0   0     0   0   0     0   0   0     0   0   0     0   0   0     0   0   0     0   0   0     0   0   0     0   0   0     0   0   0     0   0   0     0   0   0     0   0   0     0   0   0     0   0   0     0   0   0     0   0   0     0   0   0     0   0   0    82  66  53    75  61  52    69  56  48  
  63  48  41    62  47  40    62  47  40    63  48  41    64  48  41     0   0   0     0   0   0     0   0   0     0   0   0     0   0   0     0   0   0     0   0   0     0   0   0     0   0   0     0   0   0     0   0   0     0   0   0     0   0   0     0   0   0     0   0   0     0   0   0     0   0   0     0   0   0     0   0   0     0   0   0     0   0   0     0   0   0     0   0   0     0   0   0     0   0   0     0   0   0     0   0   0     0   0   0     0   0   0     0   0   0     0   0   0     0   0   0     0   0   0     0   0   0     0   0   0     0   0   0     0   0   0     0   0   0     0   0   0     0   0   0     0   0   0     0   0   0    82  66  56    75  61  52    69  56  50  
  63  48  41    62  47  40    64  47  40    65  48  41    66  49  42    65  50  45    60  49  45     0   0   0     0   0   0     0   0   0     0   0   0     0   0   0     0   0   0     0   0   0     0   0   0     0   0   0     0   0   0     0   0   0     0   0   0     0   0   0     0   0   0     0   0   0     0   0   0     0   0   0     0   0   0     0   0   0     0   0   0     0   0   0     0   0   0     0   0   0     0   0   0     0   0   0     0   0   0     0   0   0     0   0   0     0   0   0     0   0   0     0   0   0     0   0   0     0   0   0     0   0   0     0   0   0     0   0   0     0   0   0     0   0   0    88  71  56    90  73  60    85  68  58    76  62  53     0   0   0  
  67  51  44    67  50  43    67  50  43    67  50  43    67  50  43    65  50  43    62  50  44    60  50  45    62  50  44     0   0   0     0   0   0     0   0   0     0   0   0     0   0   0     0   0   0     0   0   0     0   0   0     0   0   0     0   0   0     0   0   0     0   0   0     0   0   0     0   0   0     0   0   0     0   0   0     0   0   0     0   0   0     0   0   0     0   0   0     0   0   0     0   0   0     0   0   0     0   0   0     0   0   0     0   0   0     0   0   0     0   0   0     0   0   0     0   0   0     0   0   0     0   0   0     0   0   0    89  67  52    89  70  55    90  70  56    86  68  55    83  68  55    81  64  54     0   0   0     0   0   0  
   0   0   0    69  52  45    69  52  45    69  52  45    69  52  45    69  52  45    64  51  45    64  51  43    64  51  43    63  50  42    63  49  40     0   0   0     0   0   0     0   0   0     0   0   0     0   0   0     0   0   0     0   0   0     0   0   0     0   0   0     0   0   0     0   0   0     0   0   0     0   0   0     0   0   0     0   0   0     0   0   0     0   0   0     0   0   0     0   0   0     0   0   0     0   0   0     0   0   0     0   0   0     0   0   0     0   0   0     0   0   0     0   0   0     0   0   0     0   0   0    93  71  57    88  69  54    87  68  53    89  72  56    89  71  57    85  69  54    80  63  53     0   0   0     0   0   0     0   0   0  
   0   0   0    69  52  45    70  51  45    71  52  46    72  53  47    72  55  48    68  53  46    68  53  46    67  52  45    65  51  42    64  50  41    65  51  42    67  53  42     0   0   0     0   0   0     0   0   0     0   0   0     0   0   0     0   0   0     0   0   0     0   0   0     0   0   0     0   0   0     0   0   0     0   0   0     0   0   0     0   0   0     0   0   0     0   0   0     0   0   0     0   0   0     0   0   0     0   0   0     0   0   0     0   0   0     0   0   0     0   0   0    88  68  57    91  69  56    91  72  58    91  72  57    88  69  54    87  68  53    88  71  55    88  70  56    84  68  53     0   0   0     0   0   0     0   0   0     0   0   0  
   0   0   0     0   0   0    70  51  45    72  53  47    74  55  49    75  56  50    71  54  47    70  54  47    71  53  45    68  53  44    67  52  43    67  52  43    70  55  44    72  57  46    71  56  45    72  57  46     0   0   0     0   0   0     0   0   0     0   0   0     0   0   0     0   0   0     0   0   0     0   0   0     0   0   0     0   0   0     0   0   0     0   0   0     0   0   0     0   0   0     0   0   0     0   0   0     0   0   0    64  49  44    70  53  45    75  57  50    83  64  57    88  69  60    87  67  56    89  70  56    89  70  56    86  68  53    85  68  53    87  69  54    85  69  55     0   0   0     0   0   0     0   0   0     0   0   0     0   0   0  
   0   0   0     0   0   0    71  52  46    72  53  47    75  54  49    76  56  50    73  54  47    72  54  47    72  53  46    71  53  45    70  52  44    71  54  46    73  56  46    76  59  49    75  58  48    76  59  49    77  61  48    78  62  49    78  61  49    76  59  47    74  56  42    71  55  42     0   0   0     0   0   0     0   0   0     0   0   0     0   0   0    56  46  44    54  44  43    53  43  42    55  44  42    56  45  43    59  45  42    62  47  43    68  50  45    73  56  49    80  61  54    85  67  57    84  64  53    87  68  54    87  69  55    84  66  52    84  66  52    85  67  53     0   0   0     0   0   0     0   0   0     0   0   0     0   0   0     0   0   0  
   0   0   0     0   0   0     0   0   0    72  51  46    73  52  47    73  52  47    72  52  45    72  52  44    72  52  45    71  52  45    70  52  45    72  53  46    75  57  49    77  59  51    79  61  51    80  62  52    81  63  51    81  64  51    81  62  49    78  60  46    75  57  43    72  54  42    69  54  47    65  53  47    61  50  46    59  48  44    57  47  45    56  46  44    55  45  44    53  43  42    51  41  38    53  42  41    57  43  40    59  45  42    65  46  42    69  52  45    75  56  50    78  60  52    80  61  50    84  66  51    85  66  52    82  64  50    81  64  50     0   0   0     0   0   0     0   0   0     0   0   0     0   0   0     0   0   0     0   0   0  
   0   0   0     0   0   0     0   0   0    71  52  46    70  51  45    70  51  44    70  52  42    70  52  42    71  51  42    71  51  42    72  52  43    74  54  45    77  57  50    80  60  51    82  62  53    83  63  54    84  64  54    84  64  53    82  62  51    79  59  48    76  56  45    73  55  44    69  54  47    66  53  47    63  49  46    59  48  46    59  48  46    57  47  46    56  44  44    54  44  43    51  39  39    53  42  40    58  44  41    61  46  41    65  48  41    69  50  43    72  53  46    76  56  47    79  59  48    82  63  49    84  65  51    82  63  49     0   0   0     0   0   0     0   0   0     0   0   0     0   0   0     0   0   0     0   0   0     0   0   0  
   0   0   0     0   0   0     0   0   0     0   0   0    70  53  46    69  52  44    69  54  40    69  54  40    69  52  39    70  51  39    71  51  39    76  54  43    82  57  49    86  60  54    88  62  55    88  62  55    88  62  56    85  60  55    83  59  54    80  57  52    76  55  49    73  54  48    71  53  49    67  53  49    63  49  48    60  46  45    58  44  44    55  43  45    56  41  44    54  42  44    57  43  43    56  42  41    57  42  37    63  46  39    69  51  41    74  54  43    75  56  41    77  55  41    79  55  45    83  56  47    82  58  48     0   0   0     0   0   0     0   0   0     0   0   0     0   0   0     0   0   0     0   0   0     0   0   0     0   0   0  
   0   0   0     0   0   0     0   0   0     0   0   0    68  53  46    65  51  43    62  49  36    63  50  35    65  49  37    67  49  37    68  48  37    73  50  40    77  53  44    82  56  49    83  57  50    83  57  50    83  56  52    81  56  52    79  55  51    75  54  49    73  52  47    70  52  45    66  49  47    63  49  46    63  49  48    60  47  45    58  44  47    55  41  44    53  39  43    52  38  40    54  39  42    53  39  38    59  40  37    64  45  38    70  50  40    74  54  40    77  55  39    77  54  38    83  56  47    85  58  51     0   0   0     0   0   0     0   0   0     0   0   0     0   0   0     0   0   0     0   0   0     0   0   0     0   0   0     0   0   0  
   0   0   0     0   0   0     0   0   0     0   0   0     0   0   0    63  49  42    60  47  37    61  48  37    64  49  39    66  49  40    68  48  40    71  50  42    74  53  45    78  54  48    78  53  49    78  53  49    79  54  50    78  55  51    77  55  50    74  54  49    73  53  47    70  53  46    62  48  45    60  48  44    60  47  46    56  46  44    55  43  45    52  40  42    50  38  42    49  37  39    51  36  38    52  38  37    59  41  39    65  46  40    71  51  42    76  54  41    78  55  41    78  55  41    85  58  49     0   0   0     0   0   0     0   0   0     0   0   0     0   0   0     0   0   0     0   0   0     0   0   0     0   0   0     0   0   0     0   0   0  
   0   0   0     0   0   0     0   0   0     0   0   0     0   0   0    63  50  43    60  48  41    62  49  42    63  50  43    65  49  43    65  49  42    68  50  43    71  51  45    74  52  47    72  51  47    73  51  46    74  52  47    75  55  49    75  55  49    73  55  49    72  55  48    70  54  47    60  48  45    57  48  43    54  44  42    50  42  40    49  39  40    49  38  40    49  39  41    50  38  40    50  36  36    53  39  38    60  42  40    66  47  41    72  52  44    76  54  42    79  55  42    80  54  42     0   0   0     0   0   0     0   0   0     0   0   0     0   0   0     0   0   0     0   0   0     0   0   0     0   0   0     0   0   0     0   0   0     0   0   0  
   0   0   0     0   0   0     0   0   0     0   0   0     0   0   0     0   0   0    59  48  44    59  48  44    61  47  46    60  46  43    59  45  42    60  45  40    65  47  45    68  49  45    65  47  43    66  48  44    68  49  45    69  52  45    70  53  46    70  53  46    69  52  45    65  52  46    60  49  45    55  47  44    51  43  41    47  39  37    45  36  37    46  37  38    49  39  40    51  41  42    50  38  38    55  41  40    60  45  42    67  48  42    71  51  44    75  52  44    79  55  43    81  57  45    87  62  55     0   0   0     0   0   0     0   0   0     0   0   0     0   0   0     0   0   0     0   0   0     0   0   0     0   0   0     0   0   0     0   0   0  
   0   0   0     0   0   0     0   0   0     0   0   0     0   0   0     0   0   0    60  49  47    58  48  46    57  45  45    55  44  42    53  42  40    56  42  39    58  44  43    62  47  44    60  45  42    61  46  41    63  48  43    64  49  44    65  50  43    65  50  43    65  50  43    61  50  44    57  48  43    52  47  43    49  44  41    46  41  38    44  38  38    44  38  38    48  39  40    49  40  41    50  38  38    56  42  41    60  45  42    66  47  43    68  47  42    73  50  42    77  53  43    80  56  46    83  61  53    82  62  55     0   0   0     0   0   0     0   0   0     0   0   0     0   0   0     0   0   0     0   0   0     0   0   0     0   0   0     0   0   0  
   0   0   0     0   0   0     0   0   0     0   0   0     0   0   0     0   0   0     0   0   0    58  48  48    57  45  45    54  43  43    52  41  41    53  43  41    55  45  43    59  45  44    59  46  42    59  46  43    60  48  42    62  48  43    63  49  42    64  49  43    62  49  41    60  49  43    53  45  40    50  45  41    48  43  40    47  42  39    46  40  39    45  40  39    47  39  39    47  38  39    49  39  38    53  42  40    59  44  43    62  45  41    65  45  41    70  48  42    75  52  45    78  55  48    78  58  51    77  58  51     0   0   0     0   0   0     0   0   0     0   0   0     0   0   0     0   0   0     0   0   0     0   0   0     0   0   0     0   0   0  
   0   0   0     0   0   0     0   0   0     0   0   0     0   0   0     0   0   0     0   0   0    57  47  47    55  45  46    54  44  43    54  44  43    56  46  44    56  46  44    56  45  43    58  47  43    57  46  42    56  45  39    57  45  39    59  46  40    59  46  40    58  45  37    55  44  38    50  42  39    48  43  40    47  42  39    46  41  38    46  41  38    46  41  38    46  41  38    48  41  39    49  40  38    52  41  39    55  43  41    59  44  41    64  45  42    68  48  44    73  51  47    76  54  49    77  59  52    74  57  50    73  55  49     0   0   0     0   0   0     0   0   0     0   0   0     0   0   0     0   0   0     0   0   0     0   0   0     0   0   0  
   0   0   0     0   0   0     0   0   0     0   0   0     0   0   0     0   0   0     0   0   0     0   0   0    55  45  45    55  45  44    56  46  45    57  47  45    55  47  44    54  46  41    58  48  44    56  46  42    55  44  39    54  43  39    56  42  36    55  42  36    53  39  33    51  37  33    49  40  37    48  41  38    46  41  38    46  41  38    46  41  38    46  41  38    47  42  39    47  42  39    46  38  36    49  39  37    52  42  40    56  44  40    59  44  41    62  46  41    66  47  44    68  49  45    73  55  50    70  55  49    70  54  49    70  54  47     0   0   0     0   0   0     0   0   0     0   0   0     0   0   0     0   0   0     0   0   0     0   0   0  
   0   0   0     0   0   0     0   0   0     0   0   0     0   0   0     0   0   0     0   0   0     0   0   0    58  47  43    57  48  43    58  49  44    57  48  43    55  48  42    53  46  40    59  50  45    57  48  43    56  45  41    55  44  40    56  43  37    56  41  36    54  39  34    51  37  34    49  37  37    47  39  37    47  39  37    45  40  37    46  41  38    46  41  38    47  42  39    48  43  40    45  40  36    50  42  39    53  44  42    55  45  43    57  46  42    59  45  42    61  46  43    62  47  42    67  52  47    68  53  48    68  53  48    67  54  48    68  55  47     0   0   0     0   0   0     0   0   0     0   0   0     0   0   0     0   0   0     0   0   0  
   0   0   0     0   0   0     0   0   0     0   0   0     0   0   0     0   0   0     0   0   0     0   0   0     0   0   0    59  48  42    59  50  43    58  49  42    55  48  40    53  46  38    57  48  41    56  47  40    55  44  40    55  44  40    57  43  40    58  43  40    58  40  38    55  40  37    51  37  37    48  38  39    48  38  37    47  39  37    45  40  37    46  41  38    46  43  38    46  43  38    44  41  36    47  42  38    50  45  41    53  46  43    54  45  43    55  44  43    56  45  43    59  45  42    64  50  47    65  51  48    67  54  48    65  54  48    64  53  47    63  52  46     0   0   0     0   0   0     0   0   0     0   0   0     0   0   0     0   0   0  
   0   0   0     0   0   0     0   0   0     0   0   0     0   0   0     0   0   0     0   0   0     0   0   0     0   0   0    62  52  43    61  52  42    60  51  43    57  50  41    56  48  40    56  47  40    55  46  38    55  43  40    56  42  40    58  43  41    61  42  41    61  41  40    58  40  40    51  37  37    49  37  39    49  37  37    48  38  37    47  39  37    45  40  37    45  42  37    45  42  37    43  40  35    45  42  37    47  43  39    49  44  40    50  43  40    52  42  40    53  43  41    56  45  43    60  49  45    63  50  47    65  54  48    65  54  49    64  53  47    62  50  45    60  50  44     0   0   0     0   0   0     0   0   0     0   0   0     0   0   0  
   0   0   0     0   0   0     0   0   0     0   0   0     0   0   0     0   0   0     0   0   0     0   0   0     0   0   0     0   0   0    66  55  45    65  54  45    63  52  43    62  51  43    62  51  43    60  49  41    59  47  42    60  46  42    62  47  44    62  46  43    63  44  44    60  42  42    53  38  39    50  38  40    49  37  37    47  37  36    46  38  36    45  39  36    44  40  36    44  40  36    46  42  38    47  43  39    48  44  39    50  43  40    50  43  40    53  44  42    55  46  44    58  48  45    59  48  44    62  51  46    67  55  50    67  55  50    65  53  47    62  50  44    61  49  43     0   0   0     0   0   0     0   0   0     0   0   0     0   0   0  
   0   0   0     0   0   0     0   0   0     0   0   0     0   0   0     0   0   0     0   0   0     0   0   0     0   0   0     0   0   0    73  55  49    72  54  46    70  52  45    68  51  43    70  53  45    68  50  43    65  49  42    62  47  41    61  47  42    58  46  41    57  45  41    54  42  41    52  41  40    50  39  39    49  38  39    47  38  38    47  39  39    47  39  40    46  38  39    45  37  39    47  39  39    49  40  40    50  41  39    52  42  40    55  43  41    57  44  41    60  46  42    61  47  41    64  51  45    65  52  44    67  53  45    67  53  45    66  52  44    64  50  43    63  49  42    63  48  43     0   0   0     0   0   0     0   0   0     0   0   0  
   0   0   0     0   0   0     0   0   0     0   0   0     0   0   0     0   0   0     0   0   0     0   0   0     0   0   0     0   0   0     0   0   0    77  53  49    74  50  45    73  48  41    72  49  43    68  48  41    65  46  39    61  46  39    58  47  41    55  48  40    52  47  41    50  44  41    49  41  38    47  39  37    46  37  38    45  36  37    46  37  40    46  37  40    45  36  41    44  35  38    48  37  41    48  38  39    52  38  38    54  40  39    59  42  42    62  45  41    65  47  43    67  49  42    68  51  43    66  52  41    68  51  41    67  50  40    67  50  42    66  49  41    66  49  42    66  49  42    64  45  41     0   0   0     0   0   0     0   0   0  
   0   0   0     0   0   0     0   0   0     0   0   0     0   0   0     0   0   0     0   0   0     0   0   0     0   0   0     0   0   0     0   0   0    77  56  53    73  52  47    72  49  43    66  45  40    64  45  39    62  45  38    59  47  41    57  48  41    54  48  42    51  46  42    49  44  40    49  41  38    47  39  36    45  37  35    43  38  35    43  37  37    44  38  38    43  37  39    44  35  38    47  36  40    48  38  39    51  37  37    53  39  38    59  41  40    63  45  41    68  49  45    70  51  44    69  50  43    67  50  40    68  50  40    67  49  39    67  48  41    67  48  41    67  48  42    68  49  43     0   0   0     0   0   0     0   0   0     0   0   0  
   0   0   0     0   0   0     0   0   0     0   0   0     0   0   0     0   0   0     0   0   0     0   0   0     0   0   0     0   0   0     0   0   0    75  59  57    72  54  51    70  51  48    65  47  43    63  46  42    59  46  43    56  45  42    55  46  42    51  46  42    47  44  39    45  42  37    47  43  39    45  41  37    44  39  35    43  39  35    44  38  37    44  39  38    43  38  39    43  37  37    46  37  38    47  37  35    48  35  35    50  36  35    56  38  36    60  42  40    66  45  42    69  48  43    69  49  42    68  49  40    67  49  40    66  48  39    67  47  41    67  48  41    68  49  43     0   0   0     0   0   0     0   0   0     0   0   0     0   0   0  
   0   0   0     0   0   0     0   0   0     0   0   0     0   0   0     0   0   0     0   0   0     0   0   0     0   0   0     0   0   0    78  65  69    75  62  63    71  56  57    69  53  54    65  52  50    62  49  48    58  47  46    54  45  43    51  44  43    48  43  41    44  41  39    42  39  37    45  42  38    43  40  35    42  39  34    41  38  33    42  38  35    42  38  35    41  37  36    41  36  34    45  38  37    45  36  35    47  35  34    49  35  34    53  37  34    57  39  37    62  42  38    65  44  40    69  47  41    69  47  41    69  49  42    69  49  42    70  49  44    70  49  44     0   0   0     0   0   0     0   0   0     0   0   0     0   0   0     0   0   0  
   0   0   0     0   0   0     0   0   0     0   0   0     0   0   0     0   0   0     0   0   0     0   0   0     0   0   0     0   0   0    76  67  73    73  63  67    70  57  62    66  54  58    65  54  57    61  51  53    56  47  49    51  44  44    47  43  44    45  42  42    42  40  40    40  40  38    42  40  36    40  38  33    38  37  32    38  36  31    38  37  32    39  37  32    38  36  33    39  35  32    41  36  33    43  35  32    46  35  33    50  35  35    53  38  35    57  39  37    60  41  39    63  42  39    68  44  40    69  45  40    71  48  43    73  50  45    73  52  48     0   0   0     0   0   0     0   0   0     0   0   0     0   0   0     0   0   0     0   0   0  
   0   0   0     0   0   0     0   0   0     0   0   0     0   0   0     0   0   0     0   0   0     0   0   0     0   0   0     0   0   0    74  69  76    70  65  71    67  60  67    63  56  62    64  57  63    59  53  57    54  48  52    48  44  45    45  43  44    44  42  43    43  43  43    43  43  41    43  42  38    41  40  35    39  38  33    39  38  33    39  38  33    40  39  34    39  38  34    38  37  33    38  35  30    40  35  31    45  35  33    49  38  36    54  40  39    58  42  42    62  44  44    64  44  42    65  44  41    67  46  43    73  49  47    74  53  49     0   0   0     0   0   0     0   0   0     0   0   0     0   0   0     0   0   0     0   0   0     0   0   0  
   0   0   0     0   0   0     0   0   0     0   0   0     0   0   0     0   0   0     0   0   0     0   0   0     0   0   0     0   0   0    67  65  76    65  64  72    63  60  69    63  58  65    61  56  63    59  54  60    56  51  57    54  49  53    50  48  51    47  45  48    44  42  43    41  40  38    47  43  40    45  41  38    40  39  35    37  36  32    36  35  31    35  34  30    36  35  30    37  36  31    40  36  33    41  36  33    43  35  33    46  36  35    49  37  37    55  41  41    59  45  45    62  46  47    67  47  48    68  48  47    71  50  49    72  52  51     0   0   0     0   0   0     0   0   0     0   0   0     0   0   0     0   0   0     0   0   0     0   0   0  
   0   0   0     0   0   0     0   0   0     0   0   0     0   0   0     0   0   0     0   0   0     0   0   0     0   0   0     0   0   0    65  67  80    64  65  76    63  61  73    61  58  68    60  57  67    59  54  62    55  51  58    53  49  55    50  47  50    48  45  48    45  42  43    45  41  41    46  42  41    44  40  37    42  38  36    38  36  33    36  35  32    36  35  31    36  35  31    36  35  31    38  37  33    39  36  33    40  36  34    44  37  38    48  40  41    53  43  45    57  46  50    61  47  51    64  50  51    67  50  52    68  51  53     0   0   0     0   0   0     0   0   0     0   0   0     0   0   0     0   0   0     0   0   0     0   0   0     0   0   0  
   0   0   0     0   0   0     0   0   0     0   0   0     0   0   0     0   0   0     0   0   0     0   0   0     0   0   0     0   0   0    66  70  82    64  67  79    63  64  76    62  61  72    61  59  70    58  56  65    55  52  60    52  50  55    52  47  51    51  46  49    49  45  46    48  43  45    48  41  43    47  39  41    45  37  39    42  37  36    39  37  35    37  36  33    37  36  33    37  37  34    38  38  36    39  38  37    39  39  38    43  40  42    48  42  45    53  46  50    58  49  56    60  51  57    64  53  58    66  53  57     0   0   0     0   0   0     0   0   0     0   0   0     0   0   0     0   0   0     0   0   0     0   0   0     0   0   0     0   0   0  
   0   0   0     0   0   0     0   0   0     0   0   0     0   0   0     0   0   0     0   0   0     0   0   0     0   0   0    67  73  85    67  71  83    65  69  80    63  65  77    63  63  75    63  60  72    59  58  66    56  53  62    55  50  56    54  48  52    53  48  49    52  47  47    53  45  46    51  40  46    50  40  45    49  38  43    46  38  40    43  39  39    40  38  38    40  38  38    39  39  38    40  40  39    40  41  40    40  41  42    43  42  46    47  45  50    52  48  55    56  52  61    58  54  62    64  56  63     0   0   0     0   0   0     0   0   0     0   0   0     0   0   0     0   0   0     0   0   0     0   0   0     0   0   0     0   0   0     0   0   0  
   0   0   0     0   0   0     0   0   0     0   0   0     0   0   0     0   0   0     0   0   0     0   0   0     0   0   0    69  75  87    69  73  85    66  70  82    64  66  79    62  64  76    65  63  75    62  61  69    60  55  65    59  54  59    58  52  56    57  51  51    57  49  48    57  47  48    55  43  49    54  42  50    54  42  50    52  42  47    48  43  46    46  42  44    44  42  44    43  43  43    44  45  44    44  44  46    44  44  48    46  47  52    48  48  55    52  52  61    57  55  65    59  57  67     0   0   0     0   0   0     0   0   0     0   0   0     0   0   0     0   0   0     0   0   0     0   0   0     0   0   0     0   0   0     0   0   0     0   0   0  
   0   0   0     0   0   0     0   0   0     0   0   0     0   0   0     0   0   0     0   0   0     0   0   0     0   0   0    69  77  88    68  74  86    67  71  83    65  67  80    63  65  77    65  63  76    63  62  70    64  58  68    62  57  63    62  56  58    62  53  54    61  51  50    59  49  50    60  44  54    60  44  55    58  45  55    57  46  54    55  46  51    51  46  50    49  47  50    47  47  49    48  49  51    46  50  51    46  50  53    47  50  55    49  52  61    52  54  66    57  57  69     0   0   0     0   0   0     0   0   0     0   0   0     0   0   0     0   0   0     0   0   0     0   0   0     0   0   0     0   0   0     0   0   0     0   0   0     0   0   0  
   0   0   0     0   0   0     0   0   0     0   0   0     0   0   0     0   0   0     0   0   0     0   0   0    73  81  95    71  78  93    70  75  90    69  73  86    68  70  83    66  68  81    68  66  79    65  63  74    64  61  70    65  60  66    65  59  63    65  56  61    63  54  57    62  52  57    61  50  59    61  48  61    60  50  60    58  50  59    57  50  57    54  50  56    51  50  56    50  49  55    51  51  56    49  52  57    50  52  58    51  53  61    53  55  65    55  57  69    58  59  72    60  61  74     0   0   0     0   0   0     0   0   0     0   0   0     0   0   0     0   0   0     0   0   0     0   0   0     0   0   0     0   0   0     0   0   0     0   0   0  
   0   0   0     0   0   0     0   0   0     0   0   0     0   0   0     0   0   0     0   0   0     0   0   0    78  83 102    76  81 100    76  79  97    74  77  93    74  76  91    73  75  89    74  73  86    72  70  82    69  66  76    67  63  71    68  62  70    68  62  69    67  61  68    66  60  67    63  58  67    63  58  68    62  57  67    60  56  65    59  55  63    57  54  62    55  53  63    54  53  62    57  55  65    57  56  65    58  58  67    60  60  70    62  62  74    64  64  76    66  66  78    65  66  79    66  67  84     0   0   0     0   0   0     0   0   0     0   0   0     0   0   0     0   0   0     0   0   0     0   0   0     0   0   0     0   0   0     0   0   0  
   0   0   0     0   0   0     0   0   0     0   0   0     0   0   0     0   0   0     0   0   0    80  85 105    79  84 104    77  82 102    77  80  99    76  79  96    76  78  93    75  77  92    79  78  92    77  76  88    73  71  82    70  68  77    70  66  75    69  65  73    67  63  70    66  62  69    66  63  72    66  63  72    64  61  70    62  59  68    60  58  68    60  58  68    59  57  68    59  57  68    63  63  74    63  63  74    64  64  76    66  66  77    68  67  80    69  68  81    69  70  83    69  71  84    67  69  86    68  70  87     0   0   0     0   0   0     0   0   0     0   0   0     0   0   0     0   0   0     0   0   0     0   0   0     0   0   0     0   0   0  
   0   0   0     0   0   0     0   0   0     0   0   0     0   0   0     0   0   0    83  88 110    83  88 108    81  86 106    80  85 105    81  84 103    79  82 100    79  80  97    79  81  96    82  81  97    80  79  93    77  74  87    74  73  83    74  70  81    72  69  79    70  67  76    69  66  74    72  69  77    69  67  76    68  64  75    65  63  73    64  62  73    64  62  73    64  62  74    64  64  76    66  66  78    67  67  79    68  68  80    68  67  81    69  68  82    68  70  83    69  71  84    69  72  87    69  74  92    69  74  92    69  74  92     0   0   0     0   0   0     0   0   0     0   0   0     0   0   0     0   0   0     0   0   0     0   0   0     0   0   0  
   0   0   0     0   0   0     0   0   0     0   0   0     0   0   0     0   0   0    84  89 111    84  89 111    83  88 108    82  87 107    82  85 104    81  84 103    80  83 100    80  83  98    79  81  96    77  79  92    77  77  89    75  75  85    76  74  85    75  73  84    74  72  83    72  70  81    72  70  81    71  69  80    69  67  80    67  65  78    66  64  77    66  66  78    67  67  79    68  67  81    68  67  81    66  68  81    67  69  82    67  69  84    68  70  85    69  71  86    69  71  86    69  72  89    70  77  96    70  77  96    69  76  95    69  74  93     0   0   0     0   0   0     0   0   0     0   0   0     0   0   0     0   0   0     0   0   0     0   0   0  
   0   0   0     0   0   0     0   0   0     0   0   0     0   0   0    84  91 117    84  90 114    84  89 111    84  89 111    83  88 108    83  86 107    82  86 105    82  85 104    81  84 101    78  80  97    77  79  94    77  77  91    77  78  90    78  79  91    79  78  89    77  76  89    76  75  88    73  71  85    71  71  84    71  70  83    69  70  82    68  68  83    69  69  83    69  69  83    68  70  84    69  71  85    69  71  87    70  72  88    71  73  88    71  74  89    71  75  91    72  76  93    71  77  94    70  77 100    69  78 100    70  76  99    69  76  96    69  74  95     0   0   0     0   0   0     0   0   0     0   0   0     0   0   0     0   0   0     0   0   0  
   0   0   0     0   0   0     0   0   0     0   0   0     0   0   0    84  92 118    84  90 114    84  90 113    84  89 111    83  88 109    82  87 108    81  86 106    83  85 105    82  85 103    80  83 101    79  82  98    79  81  97    79  81  95    80  82  96    80  81  94    79  79  94    77  77  91    73  73  88    72  74  88    73  74  88    72  74  88    72  73  90    71  73  88    70  72  88    69  72  88    71  74  90    71  74  91    72  75  93    72  76  94    73  77  95    74  79  97    74  79  99    74  81  99    69  77 101    68  78 102    70  78 102    70  78 100    70  76  99    68  74  95     0   0   0     0   0   0     0   0   0     0   0   0     0   0   0     0   0   0  
   0   0   0     0   0   0     0   0   0     0   0   0    80  90 115    81  91 116    83  89 113    84  90 114    84  90 113    84  90 112    84  89 111    82  87 109    82  86 108    81  85 105    81  85 105    80  85 103    80  84 102    80  83 100    80  83  99    79  82  96    78  80  97    77  80  94    75  77  94    75  78  94    75  78  94    75  78  94    74  77  95    72  77  93    71  76  94    70  75  93    71  75  94    70  75  93    71  75  95    70  77  95    72  79  98    73  80  99    73  79 100    72  80 100    66  75 102    63  75 101    66  75 100    68  78 100    69  77 100    66  72  95    66  71  91     0   0   0     0   0   0     0   0   0     0   0   0     0   0   0  
   0   0   0     0   0   0     0   0   0    79  89 114    79  89 114    79  89 114    81  89 112    83  89 113    83  89 113    83  89 113    84  88 113    82  87 109    81  86 108    80  85 107    78  83 105    78  83 103    77  82 102    77  82 101    77  82 101    76  82  98    78  81 100    78  81  98    76  79  98    76  79  98    76  79  98    74  79  98    74  79  98    73  78  97    72  77  97    71  76  96    72  77  97    70  77  96    69  75  97    70  76  98    72  78 100    71  79 100    72  78 100    70  78 101    66  76 103    62  74 100    63  73 100    66  76 101    68  76  99    65  71  93    65  70  92    68  73  93     0   0   0     0   0   0     0   0   0     0   0   0  
   0   0   0     0   0   0     0   0   0    77  89 113    77  89 113    79  89 114    80  87 113    82  88 114    82  88 114    83  89 113    82  88 112    81  87 111    79  85 109    78  84 106    76  82 104    76  82 104    76  82 104    76  83 102    76  83 102    77  84 102    78  83 103    78  83 102    75  80 100    75  80 100    75  80 100    74  81 100    73  80  99    72  79  98    71  77  99    71  77  99    72  78 100    70  78  99    69  77 100    69  77 100    69  78 101    68  79 101    69  77 100    66  76 101    64  76 102    62  74 100    63  73 100    65  74 100    66  74  97    64  70  92    65  70  92    66  71  91    64  67  86     0   0   0     0   0   0     0   0   0  
   0   0   0     0   0   0    77  89 113    77  89 113    78  90 114    79  89 114    80  87 113    82  88 114    82  88 114    83  89 115    83  89 114    81  87 112    81  86 111    80  86 110    80  86 110    79  86 108    79  86 108    79  86 108    79  85 107    78  85 105    77  84 106    77  85 104    75  80 103    74  81 101    74  80 103    74  81 103    74  80 102    73  80 102    72  78 101    70  78 102    72  80 104    70  79 102    68  77 101    67  78 101    67  78 101    66  77 102    65  75 101    63  74 100    62  73 100    62  73 100    63  72  98    64  71  97    64  70  94    65  70  92    64  68  88    65  68  87    65  68  87    63  65  84     0   0   0     0   0   0  
   0   0   0    78  90 114    78  90 114    79  91 115    79  91 115    81  91 116    81  88 114    82  88 114    84  90 116    84  90 116    84  90 116    84  90 116    82  88 114    82  88 113    81  89 112    80  88 111    80  88 111    79  87 110    78  86 109    77  85 107    76  84 107    75  83 105    75  81 105    76  82 105    75  82 106    75  83 106    74  82 105    73  81 104    72  80 104    72  79 105    72  81 106    69  79 104    67  77 102    67  77 102    66  77 103    65  77 103    63  75 101    62  74 100    61  71  98    62  72  99    64  71  97    63  69  94    63  68  91    65  68  90    64  66  86    63  64  83    61  62  81    59  60  78    56  57  75     0   0   0  
  78  90 114    78  90 114    78  90 114    78  90 114    78  90 114    80  90 115    80  87 115    81  86 115    83  88 117    83  88 117    83  90 116    82  89 115    81  88 114    81  87 113    80  87 112    79  86 112    79  86 111    78  85 110    76  85 109    75  85 109    74  84 108    74  83 108    75  82 105    75  83 106    75  83 106    75  83 106    75  82 107    74  81 106    71  80 105    71  80 105    70  80 107    69  79 105    66  78 103    66  77 103    65  77 103    65  77 103    63  74 102    61  72 100    59  69  96    63  71  99    65  71  97    61  67  91    61  66  88    64  66  87    64  65  85    62  61  80    57  56  75    56  56  72    55  54  71    52  54  70  
  77  89 115    76  88 112    76  88 114    77  89 113    77  89 115    79  89 116    78  85 113    79  86 114    81  86 115    81  88 116    82  89 115    81  88 114    80  87 113    79  86 112    80  87 113    80  87 113    80  87 113    80  87 113    78  88 113    78  89 111    77  87 112    77  88 111    73  84 106    73  84 106    76  84 107    73  84 106    75  82 108    72  82 107    71  81 106    70  80 105    70  80 107    67  79 105    66  78 104    65  77 103    65  77 103    65  77 103    63  75 101    62  74 100    58  68  95    64  71  97    63  71  94    60  66  88    60  65  85    64  66  87    63  64  84    59  60  78    58  59  77    57  59  74    55  57  72    52  54  69  
   0   0   0     0   0   0     0   0   0    76  88 114    76  87 115    76  87 115    79  88 117    77  86 115    77  84 112    74  84 111    76  86 113    77  87 114    78  88 113    78  88 113    75  86 108    76  87 109    77  88 110    77  88 110    76  87 109    76  87 107    77  88 110    78  89 111    76  87 109    74  86 110    74  84 109    72  84 108    72  82 107    70  82 106    70  82 106    70  82 106    68  80 104    65  80 103    63  78 101    63  78 101    63  78 101    63  78 101    61  76  99    62  74  98    57  68  90    58  69  91    59  70  90    60  68  89    58  66  85    58  65  84    59  64  83    59  65  81    53  56  73     0   0   0     0   0   0     0   0   0  
   0   0   0     0   0   0     0   0   0     0   0   0    76  87 115    77  88 116    78  87 115    77  86 115    75  85 112    75  85 112    76  86 113    77  87 114    78  88 113    77  87 112    74  84 107    75  85 108    75  87 109    76  87 109    75  87 107    75  87 107    77  88 108    78  89 109    77  89 113    76  88 112    75  87 111    74  85 110    73  85 109    72  84 108    72  84 108    72  84 108    66  80 104    65  79 102    64  78 101    63  78 101    63  78 101    63  77 100    61  75  99    61  73  95    61  71  93    60  71  91    60  70  90    58  69  89    58  66  85    57  65  84    57  64  82    57  64  82    52  58  74     0   0   0     0   0   0     0   0   0  
   0   0   0     0   0   0     0   0   0     0   0   0     0   0   0    78  89 117    78  88 115    77  87 114    76  86 113    77  87 114    78  88 115    78  88 115    77  87 112    76  86 111    73  83 108    74  84 109    75  86 108    76  87 109    75  86 107    75  86 106    77  88 108    78  89 110    77  87 112    76  86 111    75  85 110    74  84 109    73  83 108    73  83 108    73  84 108    72  84 108    69  80 105    68  80 104    67  78 103    66  78 102    67  78 102    66  78 102    64  75  99    62  73  95    62  73  95    61  72  92    58  69  89     0   0   0     0   0   0     0   0   0     0   0   0     0   0   0     0   0   0     0   0   0     0   0   0     0   0   0  
   0   0   0     0   0   0     0   0   0     0   0   0     0   0   0     0   0   0    78  88 115    77  87 114    77  87 114    77  87 114    78  88 115    78  88 115    76  86 111    74  84 109    72  82 107    73  83 108    74  85 109    74  85 107    74  85 107    74  85 107    75  86 108    77  88 110    77  85 110    75  83 109    75  82 108    74  81 107    73  81 107    73  81 107    73  81 107    72  82 107    73  80 106    70  80 105    71  79 104    69  80 104    71  79 104     0   0   0     0   0   0     0   0   0     0   0   0     0   0   0     0   0   0     0   0   0     0   0   0     0   0   0     0   0   0     0   0   0     0   0   0     0   0   0     0   0   0     0   0   0  
   0   0   0     0   0   0     0   0   0     0   0   0     0   0   0     0   0   0     0   0   0    78  88 115    76  86 113    76  86 113    77  87 114    77  87 114    76  86 111    75  85 110    72  82 107    73  83 108    74  84 109    74  84 109    73  84 106    73  84 106    74  85 107    75  86 108    77  84 110    76  83 109    75  82 108    75  82 108    75  82 108    75  82 108    75  82 108    74  82 108    74  81 107    73  80 106    73  80 106    73  80 106     0   0   0     0   0   0     0   0   0     0   0   0     0   0   0     0   0   0     0   0   0     0   0   0     0   0   0     0   0   0     0   0   0     0   0   0     0   0   0     0   0   0     0   0   0     0   0   0  
   0   0   0     0   0   0     0   0   0     0   0   0     0   0   0     0   0   0     0   0   0     0   0   0     0   0   0    75  85 112    76  86 113    76  86 113    76  86 113    75  85 112    73  83 110    74  84 111    75  85 110    74  84 109    72  82 107    72  82 107    72  82 107    73  83 108    74  82 108    74  82 108    74  81 107    73  80 106    73  80 106    74  81 107    74  81 107    74  81 107    73  79 105    73  79 105    73  79 105     0   0   0     0   0   0     0   0   0     0   0   0     0   0   0     0   0   0     0   0   0     0   0   0     0   0   0     0   0   0     0   0   0     0   0   0     0   0   0     0   0   0     0   0   0     0   0   0     0   0   0  
   0   0   0     0   0   0     0   0   0     0   0   0     0   0   0     0   0   0     0   0   0     0   0   0     0   0   0     0   0   0    75  85 112    75  85 113    75  85 113    75  85 113    74  84 111    74  84 111    75  85 110    74  84 109    72  82 107    71  81 106    71  81 106    71  81 107    72  80 106    72  80 105    70  78 104    70  78 103    70  77 103    70  77 103    71  78 104    71  78 104    71  77 103    71  77 103    72  77 103     0   0   0     0   0   0     0   0   0     0   0   0     0   0   0     0   0   0     0   0   0     0   0   0     0   0   0     0   0   0     0   0   0     0   0   0     0   0   0     0   0   0     0   0   0     0   0   0     0   0   0  
   0   0   0     0   0   0     0   0   0     0   0   0     0   0   0     0   0   0     0   0   0     0   0   0     0   0   0     0   0   0     0   0   0    75  85 112    75  85 112    75  85 112    75  85 112    75  85 112    74  84 111    73  83 110    72  82 109    72  82 109    71  81 109    71  80 108    73  83 109    71  81 106    69  79 104    68  78 103    68  76 102    69  76 102    69  76 102    70  77 103    70  76 102    70  76 102     0   0   0     0   0   0     0   0   0     0   0   0     0   0   0     0   0   0     0   0   0     0   0   0     0   0   0     0   0   0     0   0   0     0   0   0     0   0   0     0   0   0     0   0   0     0   0   0     0   0   0     0   0   0  
   0   0   0     0   0   0     0   0   0     0   0   0     0   0   0     0   0   0     0   0   0     0   0   0     0   0   0     0   0   0     0   0   0     0   0   0    75  85 112    75  85 112    75  84 113    75  84 113    74  83 112    73  82 110    72  81 110    72  81 110    71  80 110    71  80 109    70  81 107    69  80 105    68  80 104    68  79 104    67  78 103    68  77 103    68  77 103    68  78 103    70  77 103     0   0   0     0   0   0     0   0   0     0   0   0     0   0   0     0   0   0     0   0   0     0   0   0     0   0   0     0   0   0     0   0   0     0   0   0     0   0   0     0   0   0     0   0   0     0   0   0     0   0   0     0   0   0     0   0   0  
   0   0   0     0   0   0     0   0   0     0   0   0     0   0   0     0   0   0     0   0   0     0   0   0     0   0   0     0   0   0     0   0   0     0   0   0     0   0   0    75  85 112    74  83 112    74  83 112    73  82 111    72  81 110    71  80 109    71  80 109    70  79 110    69  80 108    65  79 105    65  80 103    66  81 104    68  80 104    68  80 104    68  80 104    68  78 103    68  78 103     0   0   0     0   0   0     0   0   0     0   0   0     0   0   0     0   0   0     0   0   0     0   0   0     0   0   0     0   0   0     0   0   0     0   0   0     0   0   0     0   0   0     0   0   0     0   0   0     0   0   0     0   0   0     0   0   0     0   0   0  
   0   0   0     0   0   0     0   0   0     0   0   0     0   0   0     0   0   0     0   0   0     0   0   0     0   0   0     0   0   0     0   0   0     0   0   0     0   0   0     0   0   0    73  82 111    72  81 110    72  81 112    71  80 111    70  79 110    70  79 110    69  78 111    68  79 109    64  80 105    64  80 103    65  81 104    66  81 104    66  81 104    66  81 104    67  79 103     0   0   0     0   0   0     0   0   0     0   0   0     0   0   0     0   0   0     0   0   0     0   0   0     0   0   0     0   0   0     0   0   0     0   0   0     0   0   0     0   0   0     0   0   0     0   0   0     0   0   0     0   0   0     0   0   0     0   0   0     0   0   0  
   0   0   0     0   0   0     0   0   0     0   0   0     0   0   0     0   0   0     0   0   0     0   0   0     0   0   0     0   0   0     0   0   0     0   0   0     0   0   0     0   0   0     0   0   0     0   0   0    72  81 112    71  81 111    71  80 111    70  79 111    70  78 111    68  79 109    66  83 107    64  83 105    65  81 104    64  81 104    64  80 103    64  80 103     0   0   0     0   0   0     0   0   0     0   0   0     0   0   0     0   0   0     0   0   0     0   0   0     0   0   0     0   0   0     0   0   0     0   0   0     0   0   0     0   0   0     0   0   0     0   0   0     0   0   0     0   0   0     0   0   0     0   0   0     0   0   0     0   0   0  
   0   0   0     0   0   0     0   0   0     0   0   0     0   0   0     0   0   0     0   0   0     0   0   0     0   0   0     0   0   0     0   0   0     0   0   0     0   0   0     0   0   0     0   0   0     0   0   0     0   0   0     0   0   0    73  82 114    72  81 113    72  81 113    70  81 110    68  85 110    65  85 107    64  82 105    63  81 104    63  79 103    63  79 102     0   0   0     0   0   0     0   0   0     0   0   0     0   0   0     0   0   0     0   0   0     0   0   0     0   0   0     0   0   0     0   0   0     0   0   0     0   0   0     0   0   0     0   0   0     0   0   0     0   0   0     0   0   0     0   0   0     0   0   0     0   0   0     0   0   0  
   0   0   0     0   0   0     0   0   0     0   0   0     0   0   0     0   0   0     0   0   0     0   0   0     0   0   0     0   0   0     0   0   0     0   0   0     0   0   0     0   0   0     0   0   0     0   0   0     0   0   0     0   0   0     0   0   0     0   0   0    71  82 108    71  83 109    68  84 110    67  83 109    65  82 107    64  80 106    65  79 106     0   0   0     0   0   0     0   0   0     0   0   0     0   0   0     0   0   0     0   0   0     0   0   0     0   0   0     0   0   0     0   0   0     0   0   0     0   0   0     0   0   0     0   0   0     0   0   0     0   0   0     0   0   0     0   0   0     0   0   0     0   0   0     0   0   0     0   0   0  
   0   0   0     0   0   0     0   0   0     0   0   0     0   0   0     0   0   0     0   0   0     0   0   0     0   0   0     0   0   0     0   0   0     0   0   0     0   0   0     0   0   0     0   0   0     0   0   0     0   0   0     0   0   0     0   0   0     0   0   0     0   0   0     0   0   0    70  84 111    68  83 112    67  82 111    66  81 109     0   0   0     0   0   0     0   0   0     0   0   0     0   0   0     0   0   0     0   0   0     0   0   0     0   0   0     0   0   0     0   0   0     0   0   0     0   0   0     0   0   0     0   0   0     0   0   0     0   0   0     0   0   0     0   0   0     0   0   0     0   0   0     0   0   0     0   0   0     0   0   0  
   0   0   0     0   0   0     0   0   0     0   0   0     0   0   0     0   0   0     0   0   0     0   0   0     0   0   0     0   0   0     0   0   0     0   0   0     0   0   0     0   0   0     0   0   0     0   0   0     0   0   0     0   0   0     0   0   0     0   0   0     0   0   0     0   0   0     0   0   0     0   0   0    70  84 111     0   0   0     0   0   0     0   0   0     0   0   0     0   0   0     0   0   0     0   0   0     0   0   0     0   0   0     0   0   0     0   0   0     0   0   0     0   0   0     0   0   0     0   0   0     0   0   0     0   0   0     0   0   0     0   0   0     0   0   0     0   0   0     0   0   0     0   0   0     0   0   0     0   0   0  
