P3
65 50
255
   0   0   0     0   0   0     0   0   0     0   0   0     0   0   0     0   0   0     0   0   0     0   0   0     0   0   0     0   0   0     0   0   0     0   0   0     0   0   0     0   0   0     0   0   0    59  65  79    63  65  77    68  66  79    72  66  76    74  67  74    74  64  72    72  63  68    69  63  67    70  64  68    70  68  71    73  71  76    73  74  78    73  76  83    71  78  86    73  79  89    72  79  93    71  79  94    70  79  96    69  80  98    67  82 103    63  80 108    59  80 111    57  79 110    55  78 109    54  79 109    56  81 111    59  86 115    62  89 118    59  89 115    62  92 118    66  98 122    70 102 127    72 106 128    73 108 130    73 109 131    76 108 129    87 112 134    87 109 130    85 107 131    83 109 134    81 111 137    77 111 138    72 109 138    67 106 135    65 106 138    59 100 132    54  90 124    48  84 118    45  78 111    41  74 107  
   0   0   0     0   0   0     0   0   0     0   0   0     0   0   0     0   0   0     0   0   0     0   0   0     0   0   0     0   0   0     0   0   0     0   0   0     0   0   0     0   0   0     0   0   0    61  67  79    64  65  77    68  65  76    71  65  75    70  64  71    73  64  72    74  66  71    73  68  72    73  68  72    71  69  73    70  69  74    69  70  74    70  73  80    70  74  83    69  76  86    67  75  88    66  73  89    64  73  90    64  73  92    62  74  96    56  73  98    56  74 103    56  76 104    57  77 105    59  79 106    60  82 109    64  86 113    66  91 116    72  97 121    72  99 123    76 102 126    77 106 129    77 106 129    75 106 127    73 103 126    72 102 123    76 101 125    76  99 124    73  98 125    71  98 126    68  99 128    65  99 128    60  97 127    55  94 126    52  93 125    51  90 123    48  84 118    47  80 115    46  78 111    43  73 105  
   0   0   0     0   0   0     0   0   0     0   0   0     0   0   0     0   0   0     0   0   0     0   0   0     0   0   0     0   0   0     0   0   0     0   0   0     0   0   0     0   0   0    62  68  78    64  66  77    65  65  74    67  64  72    70  65  71    70  64  71    72  66  72    74  68  74    74  70  76    74  70  76    71  69  74    68  68  72    66  67  71    66  69  76    66  70  79    66  71  82    63  70  84    61  67  83    58  66  84    58  65  85    57  66  88    54  67  89    56  70  94    60  74  98    64  79 102    67  83 106    69  86 109    72  91 113    74  94 115    80 100 123    78  99 122    77  98 121    74  98 120    71  94 116    66  91 112    62  87 110    59  85 108    61  87 114    60  86 115    57  85 116    55  85 115    52  85 117    49  84 116    47  83 116    44  81 115    42  79 113    42  80 113    45  81 114    49  81 115    50  79 112     0   0   0  
   0   0   0     0   0   0     0   0   0     0   0   0     0   0   0     0   0   0     0   0   0     0   0   0     0   0   0     0   0   0     0   0   0     0   0   0     0   0   0     0   0   0    66  67  74    68  65  73    68  66  72    69  65  70    70  65  70    72  67  73    70  67  73    71  68  73    69  68  73    68  67  72    67  66  71    65  66  71    64  65  70    63  66  73    63  67  76    63  67  79    60  66  80    57  63  80    55  62  80    55  61  83    56  63  85    57  65  86    61  71  90    67  77  95    73  83 101    75  87 106    78  90 109    80  94 114    81  95 115    86 100 122    81  97 118    76  91 113    67  86 106    62  80 100    57  76  96    55  73  96    51  72  97    46  71 102    43  71 104    41  70 104    39  70 103    36  69 104    36  70 104    36  71 105    36  71 106    38  73 106    43  77 110    50  82 113    57  85 116     0   0   0     0   0   0  
   0   0   0     0   0   0     0   0   0     0   0   0     0   0   0     0   0   0     0   0   0     0   0   0     0   0   0     0   0   0     0   0   0     0   0   0     0   0   0    73  67  75    75  69  76    75  69  74    74  70  72    74  69  71    74  70  72    72  70  75    70  69  74    68  67  72    65  64  69    64  63  68    63  64  68    63  64  69    61  64  69    62  65  74    62  64  76    60  64  76    58  61  78    55  60  79    56  61  81    58  64  86    60  67  87    62  69  88    67  74  91    72  80  96    78  85 101    79  89 106    82  91 108    81  92 110    82  93 111    83  94 114    77  89 109    70  83 102    61  74  96    54  69  90    50  65  86    48  64  87    47  65  90    35  58  90    32  58  95    29  57  94    28  57  91    27  57  91    29  60  94    35  65  99    38  69 100    47  78 109    53  82 113    63  88 118     0   0   0     0   0   0     0   0   0  
   0   0   0     0   0   0     0   0   0     0   0   0     0   0   0     0   0   0     0   0   0     0   0   0     0   0   0     0   0   0     0   0   0     0   0   0     0   0   0    81  68  75    81  70  74    80  71  72    76  71  68    74  71  67    73  72  69    70  69  74    68  69  74    66  67  71    64  65  69    62  63  67    59  63  66    58  61  66    58  61  66    59  63  72    58  62  73    57  61  73    55  58  75    54  59  78    57  62  82    63  68  90    67  72  92    67  74  90    70  78  91    74  81  97    77  84 100    76  86 103    76  85 103    76  84 104    77  85 104    68  79  99    65  76  97    60  72  94    54  66  90    49  61  85    46  58  82    44  56  82    41  57  83    32  52  85    30  52  89    28  52  88    27  51  85    29  52  86    35  59  90    44  68  99    51  75 105    62  85 113    69  89 116    78  95 119     0   0   0     0   0   0     0   0   0  
   0   0   0     0   0   0     0   0   0     0   0   0     0   0   0     0   0   0     0   0   0     0   0   0     0   0   0     0   0   0     0   0   0     0   0   0     0   0   0    85  68  73    83  70  72    81  71  70    76  71  68    73  70  65    71  70  66    67  66  71    66  67  72    65  66  70    63  65  69    60  64  67    58  62  65    56  60  65    55  58  65    56  60  69    55  59  70    53  58  70    53  57  73    54  59  78    60  65  85    66  71  93    69  76  96    67  76  93    68  78  94    70  80  97    70  80  98    69  80  99    68  80  98    67  78  99    67  79  99    60  73  95    58  71  94    57  70  95    52  67  93    51  63  90    45  60  87    43  55  83    40  54  83    35  50  82    34  52  83    35  52  84    35  53  83    40  57  87    47  65  93    58  76 101    66  84 107    77  90 114    81  94 115     0   0   0     0   0   0     0   0   0     0   0   0  
   0   0   0     0   0   0     0   0   0     0   0   0     0   0   0     0   0   0     0   0   0     0   0   0     0   0   0     0   0   0     0   0   0     0   0   0     0   0   0    87  71  73    86  72  72    82  72  71    78  73  70    76  73  69    73  72  69    65  65  70    65  66  71    62  65  70    62  65  70    61  64  69    60  63  68    58  63  69    57  62  68    56  60  70    53  58  70    52  58  71    53  59  75    58  63  82    62  68  89    66  71  94    67  74  96    64  76  94    61  76  93    59  73  91    59  74  91    60  74  94    59  74  94    59  73  95    56  72  94    55  70  94    55  70  95    55  70  96    53  69  95    51  65  93    46  61  90    42  57  87    40  54  83    37  49  78    40  51  79    44  55  82    49  60  85    55  66  91    64  75  96    74  84 104    80  90 108    84  91 109     0   0   0     0   0   0     0   0   0     0   0   0     0   0   0  
   0   0   0     0   0   0     0   0   0     0   0   0     0   0   0     0   0   0     0   0   0     0   0   0     0   0   0     0   0   0     0   0   0     0   0   0    90  72  74    87  72  73    85  72  72    81  72  72    76  72  70    74  72  70    71  71  70    65  65  70    65  65  72    64  65  70    65  66  71    63  65  70    62  65  70    60  65  71    60  65  71    55  61  72    54  60  72    53  59  73    52  59  75    55  61  81    56  63  84    58  63  88    55  65  88    55  69  89    51  69  88    50  67  86    50  68  87    52  68  90    52  70  91    54  70  94    53  70  94    53  70  95    53  70  95    53  70  96    51  68  94    49  65  94    46  62  90    42  58  87    42  56  84    47  53  80    51  55  80    54  57  81    58  62  83    63  67  88    70  75  92    79  83 101    84  88 104     0   0   0     0   0   0     0   0   0     0   0   0     0   0   0     0   0   0  
   0   0   0     0   0   0     0   0   0     0   0   0     0   0   0     0   0   0     0   0   0     0   0   0     0   0   0     0   0   0     0   0   0     0   0   0    86  75  73    84  74  73    81  72  73    77  71  71    74  70  71    70  70  70    70  69  74    69  68  74    68  68  76    68  69  74    67  68  73    66  67  72    63  66  71    61  66  72    60  64  73    54  61  71    52  60  71    51  59  72    51  60  77    51  59  78    49  60  80    50  58  81    46  58  80    45  60  81    42  60  78    43  60  80    43  61  81    48  65  85    50  68  90    53  69  92    53  71  93    57  73  96    55  73  95    54  70  95    51  69  93    49  65  91    46  62  88    43  59  85    44  56  82    51  55  80    55  56  77    58  59  80    61  62  82    66  67  85    71  72  90    78  80  95     0   0   0     0   0   0     0   0   0     0   0   0     0   0   0     0   0   0     0   0   0  
   0   0   0     0   0   0     0   0   0     0   0   0     0   0   0     0   0   0     0   0   0     0   0   0     0   0   0     0   0   0     0   0   0     0   0   0    81  74  71    77  73  70    74  71  70    72  70  71    70  70  72    69  68  73    69  68  74    73  72  80    72  71  79    71  70  78    68  68  76    65  65  73    61  64  71    57  60  69    55  59  69    50  57  67    48  56  67    48  57  69    47  57  73    46  57  75    45  58  77    44  55  78    41  54  75    41  56  74    40  57  73    42  57  76    45  61  79    51  66  85    54  71  91    58  73  94    58  75  94    59  74  94    57  73  93    54  69  89    49  66  86    47  61  82    43  57  78    41  55  76    43  54  75    50  54  76    54  56  77    58  59  80    61  62  82    64  67  84    69  72  89     0   0   0     0   0   0     0   0   0     0   0   0     0   0   0     0   0   0     0   0   0     0   0   0  
   0   0   0     0   0   0     0   0   0     0   0   0     0   0   0     0   0   0     0   0   0     0   0   0     0   0   0     0   0   0     0   0   0     0   0   0    75  73  69    72  72  70    70  70  70    69  69  72    68  70  74    70  70  76    71  70  78    75  73  82    75  72  80    72  69  78    68  67  75    63  63  71    57  60  67    53  56  65    49  56  64    45  52  62    43  51  62    41  51  63    39  51  67    39  52  69    38  52  71    38  50  74    34  49  70    41  54  71    41  56  71    45  58  74    50  62  78    54  67  83    58  71  87    59  72  88    60  73  89    56  69  85    54  67  82    50  63  78    45  58  73    42  54  70    40  52  68    39  50  66    41  49  67    47  49  70    50  51  72    54  55  76    56  60  79    60  64  83    64  70  87     0   0   0     0   0   0     0   0   0     0   0   0     0   0   0     0   0   0     0   0   0     0   0   0  
   0   0   0     0   0   0     0   0   0     0   0   0     0   0   0     0   0   0     0   0   0     0   0   0     0   0   0     0   0   0     0   0   0    73  74  69    72  73  69    70  72  70    68  71  72    69  71  75    70  72  78    71  73  81    74  74  83    74  72  80    73  70  79    70  68  77    67  66  74    62  62  70    56  59  66    51  55  64    47  54  62    41  49  58    38  47  58    35  46  58    33  46  60    32  47  63    31  46  64    29  45  66    29  44  63    39  51  67    41  53  66    44  55  69    49  59  72    52  62  75    55  64  77    54  63  76    52  61  74    51  60  74    48  57  70    44  53  65    41  50  62    39  47  59    38  46  58    38  46  58    40  46  61    39  43  63    42  46  66    46  51  71    49  56  75    53  61  80     0   0   0     0   0   0     0   0   0     0   0   0     0   0   0     0   0   0     0   0   0     0   0   0     0   0   0  
   0   0   0     0   0   0     0   0   0     0   0   0     0   0   0     0   0   0     0   0   0     0   0   0     0   0   0     0   0   0     0   0   0    71  71  71    70  71  73    69  71  74    69  71  75    69  72  78    70  73  81    71  74  83    73  75  84    71  71  79    69  69  75    65  65  73    60  62  69    56  60  66    50  56  62    46  52  59    42  51  58    37  47  54    34  46  55    31  44  53    27  42  51    22  38  49    20  38  49    21  39  51    24  41  51    35  44  56    39  47  57    44  49  61    49  52  65    52  55  66    51  53  65    50  50  63    47  48  61    47  46  60    46  45  58    44  44  57    42  42  55    39  40  54    40  41  54    40  43  56    41  45  60    34  42  60    36  45  64    39  50  68    41  54  73     0   0   0     0   0   0     0   0   0     0   0   0     0   0   0     0   0   0     0   0   0     0   0   0     0   0   0     0   0   0  
   0   0   0     0   0   0     0   0   0     0   0   0     0   0   0     0   0   0     0   0   0     0   0   0     0   0   0     0   0   0    76  71  75    72  70  74    71  70  76    69  69  77    69  69  77    68  71  80    69  72  81    68  72  81    69  73  82    68  71  78    64  67  74    58  61  68    53  57  66    48  54  62    44  51  59    40  49  56    38  47  54    33  43  52    30  43  51    28  41  49    23  38  45    17  34  41    16  35  42    19  36  44    23  37  46    31  40  49    34  41  51    41  43  55    43  45  58    47  47  59    47  45  58    46  42  57    45  41  56    45  38  54    43  39  54    44  40  55    42  40  54    40  39  55    39  41  56    41  43  58    40  46  62    35  47  63    34  49  66    35  52  70    37  55  77     0   0   0     0   0   0     0   0   0     0   0   0     0   0   0     0   0   0     0   0   0     0   0   0     0   0   0     0   0   0  
   0   0   0     0   0   0     0   0   0     0   0   0     0   0   0     0   0   0     0   0   0     0   0   0     0   0   0    73  68  72    74  69  73    73  71  76    71  70  75    69  70  75    69  70  75    66  69  76    66  69  76    65  69  77    65  69  77    64  68  77    59  64  73    54  58  67    49  53  64    43  50  60    39  46  56    34  44  53    32  41  51    27  37  48    25  38  47    23  35  44    19  32  42    16  29  39    14  30  41    18  32  43    20  34  45    27  39  51    29  39  51    31  38  52    32  39  53    35  39  56    37  39  57    40  40  58    41  40  58    39  37  58    41  39  60    42  40  62    41  43  63    40  44  63    39  45  64    41  47  67    40  49  68    40  53  73    38  53  75    37  53  76    38  56  80    40  60  87     0   0   0     0   0   0     0   0   0     0   0   0     0   0   0     0   0   0     0   0   0     0   0   0     0   0   0  
   0   0   0     0   0   0     0   0   0     0   0   0     0   0   0     0   0   0     0   0   0     0   0   0    73  67  67    73  67  69    73  68  71    72  70  75    71  69  74    69  68  74    66  67  72    64  64  72    62  64  71    60  63  72    60  63  72    59  63  75    54  62  72    53  58  70    47  53  66    43  50  62    38  44  56    31  39  51    28  35  49    23  32  45    21  30  43    19  28  41    15  26  39    14  25  40    15  26  41    17  28  43    18  30  45    24  37  53    23  36  53    25  35  54    26  35  54    29  37  57    31  39  59    35  41  62    38  42  64    39  43  67    40  45  68    42  48  71    42  50  73    42  51  74    43  52  75    42  54  78    43  56  79    45  57  82    42  56  82    40  56  81    42  59  85    44  63  93     0   0   0     0   0   0     0   0   0     0   0   0     0   0   0     0   0   0     0   0   0     0   0   0     0   0   0  
   0   0   0     0   0   0     0   0   0     0   0   0     0   0   0     0   0   0     0   0   0    73  65  63    73  66  65    72  66  68    71  67  68    70  66  70    67  65  69    64  63  69    61  61  66    58  58  66    56  56  64    53  56  63    51  55  64    50  56  68    48  56  67    48  55  68    45  53  65    42  50  63    36  44  57    28  36  49    23  31  45    20  27  43    18  25  41    15  22  38    14  22  37    16  23  41    18  25  42    20  27  45    18  29  45    21  34  52    20  35  55    22  35  58    23  37  59    28  39  62    31  43  66    37  46  70    39  48  72    42  50  77    43  53  79    45  54  80    45  56  82    44  57  83    45  58  84    45  60  86    46  61  87    46  60  87    47  60  87    46  61  88    49  65  93    52  69 100     0   0   0     0   0   0     0   0   0     0   0   0     0   0   0     0   0   0     0   0   0     0   0   0     0   0   0  
   0   0   0     0   0   0     0   0   0     0   0   0     0   0   0     0   0   0    71  61  58    71  62  61    71  63  61    67  61  63    65  61  62    62  57  61    59  57  60    55  54  60    52  51  57    49  49  57    46  46  54    43  46  53    41  45  54    39  47  57    36  46  55    35  45  56    34  43  53    32  40  51    28  36  48    23  30  42    20  26  38    18  24  39    15  21  36    13  19  34    15  18  34    17  21  38    21  25  40    22  26  43    21  27  45    22  34  53    22  35  57    26  39  62    30  43  67    36  48  72    40  52  76    43  55  79    45  57  81    48  59  85    48  60  86    49  61  87    47  61  87    46  60  87    47  61  88    48  64  90    50  65  92    53  66  92    57  67  94    61  72  99    65  76 105    67  80 108    69  82 110     0   0   0     0   0   0     0   0   0     0   0   0     0   0   0     0   0   0     0   0   0     0   0   0  
   0   0   0     0   0   0     0   0   0     0   0   0     0   0   0    69  59  57    68  60  57    69  61  59    67  61  61    63  57  59    59  55  56    54  51  54    51  50  55    48  47  53    45  45  50    41  41  50    39  39  47    35  38  45    34  39  45    30  40  47    27  38  44    24  35  41    21  32  38    21  30  37    19  28  35    18  25  35    16  23  33    17  24  34    14  21  31    14  18  30    15  19  31    20  22  35    23  25  38    25  27  40    24  27  42    29  37  56    29  40  61    35  46  68    41  52  74    47  58  80    52  63  85    55  66  88    56  67  89    57  67  92    55  67  92    55  67  92    53  65  90    52  64  91    52  64  91    53  68  94    57  69  96    65  72  98    72  78 102    78  85 111    83  90 116    86  93 119    87  95 121     0   0   0     0   0   0     0   0   0     0   0   0     0   0   0     0   0   0     0   0   0     0   0   0  
   0   0   0     0   0   0     0   0   0     0   0   0    65  55  54    64  54  54    62  54  52    62  53  54    59  53  53    57  51  53    54  49  53    47  44  49    44  44  49    44  43  49    40  41  49    38  39  49    35  38  47    33  36  45    31  36  42    24  33  38    21  32  36    19  29  33    19  28  32    18  27  31    17  26  30    17  24  32    16  23  31    18  22  31    18  22  31    19  22  31    21  24  33    26  26  38    31  31  43    38  38  49    41  40  54    46  49  68    49  53  73    55  61  80    59  66  85    62  70  91    63  71  92    64  72  93    65  73  94    62  70  93    61  72  94    62  73  95    63  73  95    63  73  95    64  75  96    66  76 100    70  78 100    77  82 103    85  86 107    93  93 114    96  97 118    98  98 119    98 100 121   103 104 124     0   0   0     0   0   0     0   0   0     0   0   0     0   0   0     0   0   0     0   0   0  
   0   0   0     0   0   0     0   0   0    61  52  51    58  50  49    55  47  48    52  46  46    50  45  45    48  44  46    46  42  46    42  40  46    42  41  46    41  42  48    38  39  47    35  38  45    32  36  45    28  33  42    26  29  39    23  28  38    17  26  31    16  25  28    15  24  27    14  24  26    14  24  26    16  23  26    15  22  27    16  22  27    20  24  31    21  26  32    24  26  33    27  29  36    33  33  43    40  39  49    47  45  56    51  50  63    54  55  71    57  59  76    63  65  84    66  70  88    68  73  91    68  75  92    69  75  94    70  76  95    67  74  93    67  75  94    68  76  96    69  77  96    70  78  98    73  81 101    77  85 105    81  87 108    89  91 110    94  95 112   101 100 118   104 103 120   105 104 121   106 104 120   109 107 122     0   0   0     0   0   0     0   0   0     0   0   0     0   0   0     0   0   0     0   0   0  
   0   0   0     0   0   0    52  47  45    55  48  49    50  45  46    46  41  44    42  39  41    41  38  40    39  37  41    37  36  41    35  34  41    38  37  44    36  38  46    33  37  45    30  35  45    27  32  43    21  29  39    20  25  36    17  23  34    13  20  27    14  21  26    14  21  25    14  21  25    14  20  25    16  21  26    16  21  26    17  22  27    22  25  33    25  28  36    32  32  41    37  37  46    43  41  53    49  47  59    55  53  65    59  57  71    62  60  76    65  63  79    69  68  86    71  72  90    71  74  91    70  76  92    70  76  93    70  77  95    71  78  96    71  79  97    73  80  98    73  81  98    74  81 100    77  84 103    82  89 108    86  91 111    98 100 116   102 103 117   106 107 121   108 109 122   110 108 122   110 109 122   112 111 124     0   0   0     0   0   0     0   0   0     0   0   0     0   0   0     0   0   0     0   0   0  
   0   0   0    43  41  41    42  40  40    45  42  44    41  39  41    38  35  40    34  33  37    34  33  37    33  33  38    33  32  40    31  33  42    29  31  40    28  32  42    25  31  41    23  30  41    21  29  40    17  26  38    16  23  35    14  22  34    14  19  30    15  20  29    17  20  30    16  19  29    15  17  28    15  18  28    17  20  30    18  21  32    24  24  37    29  30  42    38  38  52    44  43  57    48  47  62    52  50  65    55  54  69    58  57  73    64  60  79    66  63  81    69  67  87    69  70  90    68  71  90    67  73  91    67  73  91    67  75  93    70  77  96    69  79  97    71  79  98    71  82  99    75  82 103    78  85 106    82  90 110    86  92 111    94 100 115    96 102 116    99 104 118   101 105 118   104 106 119   105 108 120   107 110 121   108 111 121     0   0   0     0   0   0     0   0   0     0   0   0     0   0   0     0   0   0  
  38  37  37    36  36  36    35  35  37    35  33  38    32  30  35    30  28  33    28  29  34    29  30  35    27  30  37    27  30  39    26  30  39    23  27  38    20  26  38    18  26  37    16  26  38    16  26  38    15  24  39    14  23  38    15  22  38    16  19  34    19  21  35    21  23  37    19  22  36    18  19  34    18  19  34    19  21  38    22  24  41    29  27  45    35  34  52    44  42  63    49  48  68    51  49  69    53  51  71    56  54  74    59  57  77    67  64  86    69  67  88    70  70  92    71  73  94    69  74  94    68  74  94    68  76  96    67  77  97    67  78  98    68  81  99    71  83 102    74  85 107    76  87 109    80  90 112    84  94 116    86  97 116    90 101 119    91 103 117    94 103 118    95 105 117    98 106 119    99 107 120   100 108 121   100 110 122     0   0   0     0   0   0     0   0   0     0   0   0     0   0   0     0   0   0  
   0   0   0    32  33  35    33  34  38    30  29  34    29  28  34    28  27  33    27  27  35    28  28  36    26  29  38    25  28  37    23  27  38    25  30  42    23  30  41    20  28  41    17  26  41    17  26  41    15  27  43    16  28  44    18  27  44    20  23  42    26  25  45    30  28  50    29  28  50    27  25  48    28  27  49    32  30  52    35  34  56    37  35  60    42  40  65    49  47  71    51  49  73    52  49  76    54  52  79    61  59  85    67  65  92    75  74  98    76  77 101    77  80 103    76  82 104    75  84 105    73  85 105    73  86 108    73  88 109    70  86 107    72  88 109    75  90 112    77  92 115    77  92 115    79  92 116    80  92 117    81  93 116    85 100 119    85 101 117    84 100 116    84 100 115    87 101 117    87 102 115    88 103 116    86 103 116     0   0   0     0   0   0     0   0   0     0   0   0     0   0   0     0   0   0  
   0   0   0     0   0   0    33  32  36    27  28  32    27  29  33    27  29  33    27  29  34    27  30  35    26  29  34    26  28  34    24  27  35    33  36  44    30  36  44    28  33  43    26  33  44    24  34  45    25  33  47    25  35  48    27  35  49    29  33  50    33  34  53    38  37  58    36  38  59    35  37  59    36  37  60    39  41  64    42  44  68    42  46  71    45  50  75    49  54  79    50  55  79    51  56  82    54  61  87    63  70  95    70  77 101    79  85 111    82  88 113    82  90 116    82  92 118    80  94 118    79  95 119    79  97 120    78  97 121    75  95 119    75  97 120    76  96 121    74  94 119    72  91 117    72  89 115    69  87 113    67  86 110    72  91 114    70  90 111    69  89 110    70  89 110    70  90 110    70  91 110    70  91 110    68  90 110     0   0   0     0   0   0     0   0   0     0   0   0     0   0   0     0   0   0  
   0   0   0     0   0   0     0   0   0    24  25  27    24  28  30    27  30  32    29  31  34    31  31  32    31  31  32    32  32  33    33  33  35    38  38  41    37  38  42    38  39  45    39  41  48    40  45  55    42  48  57    43  49  60    43  48  59    45  48  60    46  49  63    49  50  67    48  51  69    46  51  71    46  51  72    46  52  74    46  53  77    50  58  84    52  62  87    55  66  90    57  70  93    60  74  95    64  80 100    71  87 107    77  93 112    83  97 120    87 101 125    88 103 128    85 102 127    85 104 128    86 107 131    84 107 131    79 104 128    76 101 125    75 102 125    71  97 122    63  89 115    60  85 112    60  84 111    57  80 107    51  74 101    56  78 106    55  80 104    57  81 107    59  84 109    60  85 112    61  87 113    61  88 114    61  88 114     0   0   0     0   0   0     0   0   0     0   0   0     0   0   0     0   0   0  
   0   0   0     0   0   0     0   0   0     0   0   0    27  28  32    32  31  34    35  34  37    38  36  36    40  37  38    42  39  40    44  40  42    44  40  43    43  40  43    45  42  48    48  46  53    52  51  62    55  56  65    57  58  70    56  58  71    56  56  69    57  57  70    58  57  73    57  57  74    54  56  76    55  57  78    56  59  82    56  62  84    57  64  89    60  67  92    64  73  96    67  79  99    71  83 104    77  91 108    84  98 115    89 103 120    90 103 126    92 107 129    93 109 132    90 107 130    89 108 130    89 110 134    87 110 133    82 108 130    75 101 125    72  99 122    65  92 115    56  83 108    52  76 103    48  73  99    46  68  95    41  63  90    45  67  94    44  69  93    48  70  97    49  74 100    51  76 102    53  78 104    54  79 105    53  80 105     0   0   0     0   0   0     0   0   0     0   0   0     0   0   0     0   0   0  
   0   0   0     0   0   0     0   0   0     0   0   0     0   0   0    38  34  38    42  37  41    44  39  41    48  40  43    51  43  45    53  45  47    55  46  51    53  46  53    54  47  55    57  52  61    59  57  67    62  60  72    63  61  75    62  61  75    64  62  76    64  62  76    62  59  76    60  57  74    59  56  75    59  57  78    61  62  83    63  64  88    67  69  93    69  72  95    71  77  99    77  83 103    81  89 108    88  96 114    93 101 119    96 106 123    97 108 128    96 109 128    96 109 128    92 107 126    89 106 126    86 105 125    82 103 124    78 101 122    69  94 116    64  91 112    57  81 105    50  74  98    45  68  93    42  64  90    39  60  87    36  58  82    37  57  82    37  58  82    40  60  84    41  62  86    43  64  88    45  65  89    44  66  89    45  67  88     0   0   0     0   0   0     0   0   0     0   0   0     0   0   0     0   0   0  
   0   0   0     0   0   0     0   0   0     0   0   0     0   0   0     0   0   0     0   0   0    48  39  44    51  40  46    54  43  49    56  45  51    60  49  57    59  49  57    60  50  59    60  52  63    63  57  69    63  59  73    64  60  75    64  60  75    68  64  79    66  62  77    63  59  76    60  56  73    59  54  74    60  57  78    65  63  83    68  65  87    78  75  97    78  76  98    80  80 101    83  84 104    88  89 109    93  94 112    97  98 116    95 101 117   100 107 124    96 107 124    94 104 122    90 103 119     0   0   0    77  94 112    72  90 110    69  90 109    62  84 104    54  79  99    49  70  93    43  64  87    38  60  83    34  54  79    31  51  76    30  50  75    29  47  69    30  48  70    32  50  70    35  53  73    39  55  75    40  56  76    41  57  75    42  59  76     0   0   0     0   0   0     0   0   0     0   0   0     0   0   0     0   0   0  
   0   0   0     0   0   0     0   0   0     0   0   0     0   0   0     0   0   0     0   0   0     0   0   0    52  42  47    54  44  50    56  46  51    60  49  57    59  50  57    60  51  61    61  54  65    64  58  72    65  62  76    66  63  78    66  64  78    68  65  80    68  64  80    66  62  79    63  60  77    64  60  79    67  65  83    73  71  89    77  75  93    85  82 102    85  82 100    86  84 104    88  87 105    93  92 110    96  95 111    98  97 113    95  97 112    98 104 120    93 103 117     0   0   0     0   0   0     0   0   0     0   0   0    67  84 100    65  84 101    59  80  96    52  73  91    45  65  85    41  60  81    35  55  75    29  46  70    24  42  65    24  41  64    24  40  59    26  40  58    28  43  58    32  46  62    36  48  64    38  50  65    40  52  67    41  53  65     0   0   0     0   0   0     0   0   0     0   0   0     0   0   0     0   0   0  
   0   0   0     0   0   0     0   0   0     0   0   0     0   0   0     0   0   0     0   0   0     0   0   0     0   0   0    56  48  53    58  50  55    61  53  60    60  54  61    60  55  65    62  58  67    64  62  75    65  65  78    66  67  80    66  67  80    65  64  80    65  65  81    65  65  81    65  66  81    69  68  84    74  74  90    81  81  97    86  86 102    85  86 102    85  86 101    86  87 103    89  90 105    94  95 110    96  97 112    97  97 113    93  96 109    93  99 112     0   0   0     0   0   0     0   0   0     0   0   0     0   0   0    65  82  96    65  83  98    61  79  94    54  72  88    47  65  82    45  61  81    39  55  75    30  46  67    26  40  62    26  40  60    29  40  56    31  41  53    31  41  54    32  42  55    34  43  54    34  43  54    36  42  53    35  41  51     0   0   0     0   0   0     0   0   0     0   0   0     0   0   0     0   0   0  
   0   0   0     0   0   0     0   0   0     0   0   0     0   0   0     0   0   0     0   0   0     0   0   0     0   0   0     0   0   0    52  49  54    55  52  58    57  55  61    58  57  65    58  60  67    59  62  73    58  64  74    59  66  77    60  68  80    60  66  80    62  68  82    63  69  83    64  70  84    70  77  89    78  84  96    81  88 100    80  86  98    76  82  96    79  85  99    83  89 103    85  91 105    87  92 108    88  93 109    90  96 111    92  99 111     0   0   0     0   0   0     0   0   0     0   0   0     0   0   0     0   0   0     0   0   0    66  83  96    61  77  91    55  71  86    47  63  79    43  56  74    37  50  68    31  45  62    28  39  60    27  37  55    35  42  55    34  42  51    35  40  50    34  39  48    32  38  45    31  37  44    33  36  42    33  37  43     0   0   0     0   0   0     0   0   0     0   0   0     0   0   0     0   0   0  
   0   0   0     0   0   0     0   0   0     0   0   0     0   0   0     0   0   0     0   0   0     0   0   0     0   0   0     0   0   0     0   0   0    51  52  57    52  55  60    53  58  64    53  60  68    53  62  71    54  64  74    54  66  78    55  67  79    58  69  82    61  73  85    65  74  87    65  76  89    73  82  93    77  89  99    77  90  99    72  85  94    73  84  97    75  87  99    77  89 101    79  91 105    81  93 107    83  94 111     0   0   0     0   0   0     0   0   0     0   0   0     0   0   0     0   0   0     0   0   0     0   0   0     0   0   0     0   0   0    59  75  88    56  70  83    47  61  74    40  52  66    34  46  62    32  41  58    30  37  55    29  35  49    35  39  48    36  39  45    35  38  43    32  35  40    32  33  38    32  33  37    34  35  39    37  36  41     0   0   0     0   0   0     0   0   0     0   0   0     0   0   0     0   0   0  
   0   0   0     0   0   0     0   0   0     0   0   0     0   0   0     0   0   0     0   0   0     0   0   0     0   0   0     0   0   0     0   0   0     0   0   0    49  54  57    49  55  62    49  58  65    47  60  69    47  61  70    50  64  75    51  65  76    57  71  82    60  74  85    64  77  86    65  79  88    70  83  92    72  86  95    70  84  93    66  80  89    63  80  90    63  80  90    63  80  93    67  83  98    72  88 104     0   0   0     0   0   0     0   0   0     0   0   0     0   0   0     0   0   0     0   0   0     0   0   0     0   0   0     0   0   0     0   0   0    53  70  80    49  63  74    42  54  66    36  46  58    32  39  55    31  37  50    31  34  49    31  33  44    36  37  42    35  36  39    33  34  37    31  32  35    31  30  34    31  31  33    34  34  36    37  35  38     0   0   0     0   0   0     0   0   0     0   0   0     0   0   0     0   0   0  
   0   0   0     0   0   0     0   0   0     0   0   0     0   0   0     0   0   0     0   0   0     0   0   0     0   0   0     0   0   0     0   0   0     0   0   0    44  48  53    44  50  58    43  52  59    41  53  63    41  54  63    43  56  68    45  58  69    53  66  78    55  66  77    56  68  77    56  70  79    57  71  80    58  72  81    58  72  81    56  73  81    51  68  78    48  66  78    48  66  80    52  70  86     0   0   0     0   0   0     0   0   0     0   0   0     0   0   0     0   0   0     0   0   0     0   0   0     0   0   0     0   0   0     0   0   0     0   0   0     0   0   0    37  49  61    33  43  54    28  37  49    28  33  45    29  32  44    30  31  44    32  31  41    34  32  37    34  33  33    32  31  33    30  30  31    29  29  30    30  30  31    35  33  35    37  35  38     0   0   0     0   0   0     0   0   0     0   0   0     0   0   0     0   0   0  
   0   0   0     0   0   0     0   0   0     0   0   0     0   0   0     0   0   0     0   0   0     0   0   0     0   0   0     0   0   0     0   0   0     0   0   0    41  43  49    40  44  53    38  44  52    35  43  54    34  45  55    36  46  60    38  49  61    45  54  67    44  53  64    43  52  63    43  54  64    42  54  63    41  55  64    44  58  67    46  62  71    49  64  76    45  62  76     0   0   0     0   0   0     0   0   0     0   0   0     0   0   0     0   0   0     0   0   0     0   0   0     0   0   0     0   0   0     0   0   0     0   0   0     0   0   0     0   0   0     0   0   0     0   0   0    23  33  43    22  29  40    25  29  39    27  28  39    30  29  40    31  29  36    33  30  32    33  31  29    32  30  30    31  30  29    30  28  29    31  29  30    33  31  34    35  33  36    34  33  38     0   0   0     0   0   0     0   0   0     0   0   0     0   0   0  
   0   0   0     0   0   0     0   0   0     0   0   0     0   0   0     0   0   0     0   0   0     0   0   0     0   0   0     0   0   0     0   0   0     0   0   0    40  38  47    39  38  48    34  37  46    31  35  47    29  36  47    30  37  53    32  39  53    34  39  53    33  38  50    33  38  50    33  41  52    32  40  51    30  39  50    33  44  55    37  50  61    42  54  68     0   0   0     0   0   0     0   0   0     0   0   0     0   0   0     0   0   0     0   0   0     0   0   0     0   0   0     0   0   0     0   0   0     0   0   0     0   0   0     0   0   0     0   0   0     0   0   0     0   0   0    19  27  38    20  26  36    25  26  35    27  26  35    27  25  34    28  24  30    31  27  28    31  27  25    32  28  26    32  28  26    29  28  27    28  26  27    28  28  30    30  29  31    30  29  34     0   0   0     0   0   0     0   0   0     0   0   0     0   0   0  
   0   0   0     0   0   0     0   0   0     0   0   0     0   0   0     0   0   0     0   0   0     0   0   0     0   0   0     0   0   0     0   0   0     0   0   0    43  38  45    39  36  43    35  34  42    31  31  41    28  30  42    30  32  45    31  33  45    28  29  41    26  30  39    29  31  43    32  36  47    31  35  46    26  33  43    27  35  47    32  42  53     0   0   0     0   0   0     0   0   0     0   0   0     0   0   0     0   0   0     0   0   0     0   0   0     0   0   0     0   0   0     0   0   0     0   0   0     0   0   0     0   0   0     0   0   0     0   0   0     0   0   0     0   0   0     0   0   0    22  26  37    25  25  35    26  24  35    26  23  32    24  21  28    25  23  28    27  25  27    29  27  28    29  27  28    28  26  27    26  24  25    25  25  27    25  24  29    27  26  31     0   0   0     0   0   0     0   0   0     0   0   0     0   0   0  
   0   0   0     0   0   0     0   0   0     0   0   0     0   0   0     0   0   0     0   0   0     0   0   0     0   0   0     0   0   0     0   0   0     0   0   0    40  34  35    37  31  33    36  30  34    35  30  34    34  29  34    33  28  33    29  27  31    32  29  34    31  29  34    30  29  35    30  31  36    29  32  37    28  32  36    24  31  36     0   0   0     0   0   0     0   0   0     0   0   0     0   0   0     0   0   0     0   0   0     0   0   0     0   0   0     0   0   0     0   0   0     0   0   0     0   0   0     0   0   0     0   0   0     0   0   0     0   0   0     0   0   0     0   0   0     0   0   0    22  24  37    20  22  35    21  20  34    20  19  33    19  18  32    18  18  30    20  20  32    23  21  32    24  24  32    25  24  31    24  24  29    24  23  28    23  22  27    27  24  29    26  24  28     0   0   0     0   0   0     0   0   0     0   0   0  
   0   0   0     0   0   0     0   0   0     0   0   0     0   0   0     0   0   0     0   0   0     0   0   0     0   0   0     0   0   0     0   0   0     0   0   0    41  34  32    38  30  31    35  30  30    36  28  30    33  28  29    31  25  27    29  25  26    28  26  29    28  26  29    26  26  28    25  26  28    26  27  31    24  28  31     0   0   0     0   0   0     0   0   0     0   0   0     0   0   0     0   0   0     0   0   0     0   0   0     0   0   0     0   0   0     0   0   0     0   0   0     0   0   0     0   0   0     0   0   0     0   0   0     0   0   0     0   0   0     0   0   0     0   0   0     0   0   0     0   0   0    20  22  37    20  21  36    20  21  36    20  22  37    19  19  37    19  21  36    21  20  33    20  20  32    21  20  30    21  21  27    22  21  27    21  20  25    23  21  24    23  20  24     0   0   0     0   0   0     0   0   0     0   0   0  
   0   0   0     0   0   0     0   0   0     0   0   0     0   0   0     0   0   0     0   0   0     0   0   0     0   0   0     0   0   0     0   0   0     0   0   0    40  35  32    36  31  31    33  30  29    32  28  29    29  26  27    27  24  25    25  23  24    27  25  28    25  23  26    22  22  24    22  22  24    22  23  27     0   0   0     0   0   0     0   0   0     0   0   0     0   0   0     0   0   0     0   0   0     0   0   0     0   0   0     0   0   0     0   0   0     0   0   0     0   0   0     0   0   0     0   0   0     0   0   0     0   0   0     0   0   0     0   0   0     0   0   0     0   0   0     0   0   0     0   0   0     0   0   0    23  25  38    23  25  39    24  26  41    28  27  43    27  26  41    26  25  39    24  24  36    23  23  33    23  23  30    24  23  29    24  23  28    23  21  25    23  21  24    23  21  24     0   0   0     0   0   0     0   0   0  
   0   0   0     0   0   0     0   0   0     0   0   0     0   0   0     0   0   0     0   0   0     0   0   0     0   0   0     0   0   0     0   0   0     0   0   0    37  35  31    33  31  29    30  29  27    27  27  27    26  25  25    23  22  22    21  20  21    25  22  26    22  21  23    20  20  21    19  19  21     0   0   0     0   0   0     0   0   0     0   0   0     0   0   0     0   0   0     0   0   0     0   0   0     0   0   0     0   0   0     0   0   0     0   0   0     0   0   0     0   0   0     0   0   0     0   0   0     0   0   0     0   0   0     0   0   0     0   0   0     0   0   0     0   0   0     0   0   0     0   0   0     0   0   0    30  32  44    31  33  45    32  34  48    38  37  51    37  36  50    37  36  50    35  35  47    32  32  42    30  30  38    27  27  33    25  26  30    25  23  28    25  23  28    25  23  26     0   0   0     0   0   0     0   0   0  
   0   0   0     0   0   0     0   0   0     0   0   0     0   0   0     0   0   0     0   0   0     0   0   0     0   0   0     0   0   0     0   0   0     0   0   0    33  34  29    30  30  28    26  28  25    24  26  25    23  25  24    20  22  21    18  20  19    20  18  21    19  17  20    17  15  18     0   0   0     0   0   0     0   0   0     0   0   0     0   0   0     0   0   0     0   0   0     0   0   0     0   0   0     0   0   0     0   0   0     0   0   0     0   0   0     0   0   0     0   0   0     0   0   0     0   0   0     0   0   0     0   0   0     0   0   0     0   0   0     0   0   0     0   0   0     0   0   0     0   0   0     0   0   0     0   0   0    46  48  60    48  49  62    47  46  60    47  47  59    47  47  59    45  45  55    41  41  49    36  36  44    32  32  37    29  29  34    26  25  30    26  25  30    27  25  28     0   0   0     0   0   0     0   0   0  
   0   0   0     0   0   0     0   0   0     0   0   0     0   0   0     0   0   0     0   0   0     0   0   0     0   0   0     0   0   0     0   0   0     0   0   0    32  33  28    29  29  27    25  27  24    24  26  23    20  25  21    18  22  21    18  20  19    19  17  20    18  16  19     0   0   0     0   0   0     0   0   0     0   0   0     0   0   0     0   0   0     0   0   0     0   0   0     0   0   0     0   0   0     0   0   0     0   0   0     0   0   0     0   0   0     0   0   0     0   0   0     0   0   0     0   0   0     0   0   0     0   0   0     0   0   0     0   0   0     0   0   0     0   0   0     0   0   0     0   0   0     0   0   0     0   0   0     0   0   0    63  63  73    60  58  70    58  55  68    55  54  66    50  50  60    46  46  54    41  41  49    37  38  43    35  35  40    29  30  34    29  30  34    29  29  31    32  30  33     0   0   0     0   0   0  
   0   0   0     0   0   0     0   0   0     0   0   0     0   0   0     0   0   0     0   0   0     0   0   0     0   0   0     0   0   0     0   0   0     0   0   0    31  32  27    27  29  26    25  27  24    21  26  22    20  25  21    18  23  21    18  21  20    20  18  21     0   0   0     0   0   0     0   0   0     0   0   0     0   0   0     0   0   0     0   0   0     0   0   0     0   0   0     0   0   0     0   0   0     0   0   0     0   0   0     0   0   0     0   0   0     0   0   0     0   0   0     0   0   0     0   0   0     0   0   0     0   0   0     0   0   0     0   0   0     0   0   0     0   0   0     0   0   0     0   0   0     0   0   0     0   0   0     0   0   0    69  69  79    66  65  75    64  62  72    61  59  69    54  54  63    49  49  57    44  45  52    41  42  47    40  41  46    34  36  39    34  35  39    35  35  37    37  37  39     0   0   0     0   0   0  
   0   0   0     0   0   0     0   0   0     0   0   0     0   0   0     0   0   0     0   0   0     0   0   0     0   0   0     0   0   0     0   0   0     0   0   0     0   0   0     0   0   0    26  28  25    24  27  24    23  26  23    23  26  23    24  25  25     0   0   0     0   0   0     0   0   0     0   0   0     0   0   0     0   0   0     0   0   0     0   0   0     0   0   0     0   0   0     0   0   0     0   0   0     0   0   0     0   0   0     0   0   0     0   0   0     0   0   0     0   0   0     0   0   0     0   0   0     0   0   0     0   0   0     0   0   0     0   0   0     0   0   0     0   0   0     0   0   0     0   0   0     0   0   0     0   0   0     0   0   0     0   0   0     0   0   0     0   0   0     0   0   0     0   0   0     0   0   0    45  48  55    42  45  50    40  43  48    37  40  44    38  41  44    40  41  43    42  42  44    46  43  44     0   0   0  
   0   0   0     0   0   0     0   0   0     0   0   0     0   0   0     0   0   0     0   0   0     0   0   0     0   0   0     0   0   0     0   0   0     0   0   0     0   0   0     0   0   0     0   0   0    29  30  28    29  30  27    29  30  27     0   0   0     0   0   0     0   0   0     0   0   0     0   0   0     0   0   0     0   0   0     0   0   0     0   0   0     0   0   0     0   0   0     0   0   0     0   0   0     0   0   0     0   0   0     0   0   0     0   0   0     0   0   0     0   0   0     0   0   0     0   0   0     0   0   0     0   0   0     0   0   0     0   0   0     0   0   0     0   0   0     0   0   0     0   0   0     0   0   0     0   0   0     0   0   0     0   0   0     0   0   0     0   0   0     0   0   0     0   0   0     0   0   0     0   0   0     0   0   0     0   0   0     0   0   0     0   0   0     0   0   0    43  43  45    46  44  45    51  47  46  
   0   0   0     0   0   0     0   0   0     0   0   0     0   0   0     0   0   0     0   0   0     0   0   0     0   0   0     0   0   0     0   0   0     0   0   0     0   0   0     0   0   0     0   0   0    36  33  32    36  33  32     0   0   0     0   0   0     0   0   0     0   0   0     0   0   0     0   0   0     0   0   0     0   0   0     0   0   0     0   0   0     0   0   0     0   0   0     0   0   0     0   0   0     0   0   0     0   0   0     0   0   0     0   0   0     0   0   0     0   0   0     0   0   0     0   0   0     0   0   0     0   0   0     0   0   0     0   0   0     0   0   0     0   0   0     0   0   0     0   0   0     0   0   0     0   0   0     0   0   0     0   0   0     0   0   0     0   0   0     0   0   0     0   0   0     0   0   0     0   0   0     0   0   0     0   0   0     0   0   0     0   0   0     0   0   0     0   0   0    47  45  46    53  47  47  
