P3
50 70
255
   0   0   0     0   0   0     0   0   0     0   0   0     0   0   0     0   0   0     0   0   0     0   0   0     0   0   0     0   0   0     0   0   0     0   0   0     0   0   0     0   0   0     0   0   0     0   0   0     0   0   0     0   0   0     0   0   0     0   0   0     0   0   0     0   0   0     0   0   0     0   0   0     0   0   0    96 104 123     0   0   0     0   0   0     0   0   0     0   0   0     0   0   0     0   0   0     0   0   0     0   0   0     0   0   0     0   0   0     0   0   0     0   0   0     0   0   0     0   0   0     0   0   0     0   0   0     0   0   0     0   0   0     0   0   0     0   0   0     0   0   0     0   0   0     0   0   0     0   0   0  
   0   0   0     0   0   0     0   0   0     0   0   0     0   0   0     0   0   0     0   0   0     0   0   0     0   0   0     0   0   0     0   0   0     0   0   0     0   0   0     0   0   0     0   0   0     0   0   0     0   0   0     0   0   0     0   0   0     0   0   0     0   0   0     0   0   0     0   0   0     0   0   0    90  98 117    95 103 122    93 102 120     0   0   0     0   0   0     0   0   0     0   0   0     0   0   0     0   0   0     0   0   0     0   0   0     0   0   0     0   0   0     0   0   0     0   0   0     0   0   0     0   0   0     0   0   0     0   0   0     0   0   0     0   0   0     0   0   0     0   0   0     0   0   0     0   0   0     0   0   0  
   0   0   0     0   0   0     0   0   0     0   0   0     0   0   0     0   0   0     0   0   0     0   0   0     0   0   0     0   0   0     0   0   0     0   0   0     0   0   0     0   0   0     0   0   0     0   0   0     0   0   0     0   0   0     0   0   0     0   0   0     0   0   0     0   0   0     0   0   0    88  95 113    92  99 117    94 101 119    93 100 118    92  99 117     0   0   0     0   0   0     0   0   0     0   0   0     0   0   0     0   0   0     0   0   0     0   0   0     0   0   0     0   0   0     0   0   0     0   0   0     0   0   0     0   0   0     0   0   0     0   0   0     0   0   0     0   0   0     0   0   0     0   0   0     0   0   0     0   0   0  
   0   0   0     0   0   0     0   0   0     0   0   0     0   0   0     0   0   0     0   0   0     0   0   0     0   0   0     0   0   0     0   0   0     0   0   0     0   0   0     0   0   0     0   0   0     0   0   0     0   0   0     0   0   0     0   0   0     0   0   0     0   0   0     0   0   0    85  94 110    89  95 114    94  99 118    95 100 119    93 100 118    93 100 118    92  99 117     0   0   0     0   0   0     0   0   0     0   0   0     0   0   0     0   0   0     0   0   0     0   0   0     0   0   0     0   0   0     0   0   0     0   0   0     0   0   0     0   0   0     0   0   0     0   0   0     0   0   0     0   0   0     0   0   0     0   0   0     0   0   0  
   0   0   0     0   0   0     0   0   0     0   0   0     0   0   0     0   0   0     0   0   0     0   0   0     0   0   0     0   0   0     0   0   0     0   0   0     0   0   0     0   0   0     0   0   0     0   0   0     0   0   0     0   0   0     0   0   0     0   0   0     0   0   0     0   0   0    85  94 108    90  97 113    97 100 117    98 101 118    95 102 118    96 103 119    95 102 120     0   0   0     0   0   0     0   0   0     0   0   0     0   0   0     0   0   0     0   0   0     0   0   0     0   0   0     0   0   0     0   0   0     0   0   0     0   0   0     0   0   0     0   0   0     0   0   0     0   0   0     0   0   0     0   0   0     0   0   0     0   0   0  
   0   0   0     0   0   0     0   0   0     0   0   0     0   0   0     0   0   0     0   0   0     0   0   0     0   0   0     0   0   0     0   0   0     0   0   0     0   0   0     0   0   0     0   0   0     0   0   0     0   0   0     0   0   0     0   0   0     0   0   0     0   0   0    79  90 100    84  96 106    92  97 111    99 100 117    99 102 119    99 103 120    99 106 122    97 104 121    92  99 117     0   0   0     0   0   0     0   0   0     0   0   0     0   0   0     0   0   0     0   0   0     0   0   0     0   0   0     0   0   0     0   0   0     0   0   0     0   0   0     0   0   0     0   0   0     0   0   0     0   0   0     0   0   0     0   0   0     0   0   0  
   0   0   0     0   0   0     0   0   0     0   0   0     0   0   0     0   0   0     0   0   0     0   0   0     0   0   0     0   0   0     0   0   0     0   0   0     0   0   0     0   0   0     0   0   0     0   0   0     0   0   0     0   0   0     0   0   0     0   0   0    73  83  90    80  91 100    85  97 106    92  97 110    99  99 114   100 102 117   100 104 119   101 107 123    97 104 120    91  98 114    86  93 111     0   0   0     0   0   0     0   0   0     0   0   0     0   0   0     0   0   0     0   0   0     0   0   0     0   0   0     0   0   0     0   0   0     0   0   0     0   0   0     0   0   0     0   0   0     0   0   0     0   0   0     0   0   0     0   0   0  
   0   0   0     0   0   0     0   0   0     0   0   0     0   0   0     0   0   0     0   0   0     0   0   0     0   0   0     0   0   0     0   0   0     0   0   0     0   0   0     0   0   0     0   0   0     0   0   0     0   0   0     0   0   0     0   0   0    70  79  86    73  83  93    80  91 100    86  97 108    91  96 110    96  97 114    99 100 118   100 104 121   100 106 122    96 103 119    90  96 114    85  92 110    84  91 109     0   0   0     0   0   0     0   0   0     0   0   0     0   0   0     0   0   0     0   0   0     0   0   0     0   0   0     0   0   0     0   0   0     0   0   0     0   0   0     0   0   0     0   0   0     0   0   0     0   0   0     0   0   0  
   0   0   0     0   0   0     0   0   0     0   0   0     0   0   0     0   0   0     0   0   0     0   0   0     0   0   0     0   0   0     0   0   0     0   0   0     0   0   0     0   0   0     0   0   0     0   0   0     0   0   0     0   0   0    67  73  83    72  80  91    75  85  98    80  90 105    87  97 114    93 100 118    99 102 121   101 104 123    98 103 122    97 102 121    97 102 122    98 103 123    88  93 113    83  88 108    78  83 103     0   0   0     0   0   0     0   0   0     0   0   0     0   0   0     0   0   0     0   0   0     0   0   0     0   0   0     0   0   0     0   0   0     0   0   0     0   0   0     0   0   0     0   0   0     0   0   0     0   0   0  
   0   0   0     0   0   0     0   0   0     0   0   0     0   0   0     0   0   0     0   0   0     0   0   0     0   0   0     0   0   0     0   0   0     0   0   0     0   0   0     0   0   0     0   0   0     0   0   0     0   0   0    60  62  70    64  70  81    70  78  91    74  83  98    79  89 106    86  95 114    92 100 119    97 102 122    99 104 124    99 104 124    98 103 123    97 102 122    98 103 123    90  95 115    85  90 110    78  83 103    70  75  95     0   0   0     0   0   0     0   0   0     0   0   0     0   0   0     0   0   0     0   0   0     0   0   0     0   0   0     0   0   0     0   0   0     0   0   0     0   0   0     0   0   0     0   0   0     0   0   0  
   0   0   0     0   0   0     0   0   0     0   0   0     0   0   0     0   0   0     0   0   0     0   0   0     0   0   0     0   0   0     0   0   0     0   0   0     0   0   0     0   0   0     0   0   0     0   0   0     0   0   0    57  59  68    61  67  78    67  75  88    72  81  97    78  88 105    85  94 113    93 100 118    98 103 122    99 104 123   100 105 124    98 103 122    97 102 121    97 102 121    92  97 117    87  92 111    78  83 102    69  74  93     0   0   0     0   0   0     0   0   0     0   0   0     0   0   0     0   0   0     0   0   0     0   0   0     0   0   0     0   0   0     0   0   0     0   0   0     0   0   0     0   0   0     0   0   0     0   0   0  
   0   0   0     0   0   0     0   0   0     0   0   0     0   0   0     0   0   0     0   0   0     0   0   0     0   0   0     0   0   0     0   0   0     0   0   0     0   0   0     0   0   0     0   0   0     0   0   0    55  55  60    56  58  65    61  65  75    67  72  84    72  80  94    78  88 103    84  95 111    93 100 118    97 102 121    99 104 123   100 105 124    99 104 123    97 102 121    96 101 120    92  97 116    85  90 109    76  81 100    67  72  91    59  64  83     0   0   0     0   0   0     0   0   0     0   0   0     0   0   0     0   0   0     0   0   0     0   0   0     0   0   0     0   0   0     0   0   0     0   0   0     0   0   0     0   0   0     0   0   0  
   0   0   0     0   0   0     0   0   0     0   0   0     0   0   0     0   0   0     0   0   0     0   0   0     0   0   0     0   0   0     0   0   0     0   0   0     0   0   0     0   0   0     0   0   0    53  49  51    55  53  59    57  58  65    60  63  74    65  71  83    72  80  93    79  87 103    86  94 109    93  99 115    98 101 118    99 102 119   101 104 121   101 104 121    98 101 118    96  99 116    92  95 112    85  88 105    76  79  96    67  70  87    60  63  80    53  56  73     0   0   0     0   0   0     0   0   0     0   0   0     0   0   0     0   0   0     0   0   0     0   0   0     0   0   0     0   0   0     0   0   0     0   0   0     0   0   0     0   0   0  
   0   0   0     0   0   0     0   0   0     0   0   0     0   0   0     0   0   0     0   0   0     0   0   0     0   0   0     0   0   0     0   0   0     0   0   0     0   0   0    56  48  45    52  46  46    53  49  50    55  53  57    58  57  64    60  62  71    65  69  80    71  78  90    79  87 100    85  92 107    91  97 113    95  98 115    97 100 117    99 102 119   100 103 120    97 100 117    93  96 113    89  92 109    83  86 103    75  78  95    68  71  88    60  63  80    54  57  74    47  51  67     0   0   0     0   0   0     0   0   0     0   0   0     0   0   0     0   0   0     0   0   0     0   0   0     0   0   0     0   0   0     0   0   0     0   0   0     0   0   0  
   0   0   0     0   0   0     0   0   0     0   0   0     0   0   0     0   0   0     0   0   0     0   0   0     0   0   0     0   0   0     0   0   0    59  48  42    59  48  45    56  48  46    54  45  46    53  47  49    54  52  56    57  57  64    58  60  69    63  67  78    71  75  88    77  83  97    83  89 103    90  94 109    93  96 111    95  98 113    97 101 116    99 102 117    95  98 113    91  94 109    86  89 104    81  84  99    76  79  94    70  73  88    63  66  81    57  60  75    52  55  69    47  49  62    43  46  58     0   0   0     0   0   0     0   0   0     0   0   0     0   0   0     0   0   0     0   0   0     0   0   0     0   0   0     0   0   0     0   0   0  
   0   0   0     0   0   0     0   0   0     0   0   0     0   0   0     0   0   0     0   0   0     0   0   0     0   0   0    68  54  45    63  50  42    60  49  43    60  49  45    58  47  45    54  46  44    53  47  47    56  52  54    57  56  61    58  58  65    62  65  74    70  73  85    77  81  93    82  86  98    89  93 105    92  96 108    93  97 109    96 101 112    98 102 114    94  98 110    89  93 105    84  88 100    81  85  97    77  81  93    72  76  88    66  70  82    59  63  75    57  59  72    55  57  68    45  48  57    41  44  51    47  50  56     0   0   0     0   0   0     0   0   0     0   0   0     0   0   0     0   0   0     0   0   0     0   0   0     0   0   0  
   0   0   0     0   0   0     0   0   0     0   0   0     0   0   0     0   0   0     0   0   0    64  51  43    65  52  43    67  52  45    62  49  43    60  48  42    59  48  44    57  47  45    54  46  44    54  48  48    57  53  56    59  58  63    60  59  67    63  63  72    65  68  78    73  75  87    82  84  96    87  89 102    92  94 107    95  97 110    94  96 109    94  96 109    91  93 106    87  89 102    85  87 100    83  85  98    79  81  94    76  77  91    72  74  87    63  65  78    54  56  67    53  52  61    51  50  57    49  48  54    51  50  56    54  53  59    56  55  61     0   0   0     0   0   0     0   0   0     0   0   0     0   0   0     0   0   0     0   0   0  
   0   0   0     0   0   0     0   0   0     0   0   0     0   0   0    57  48  43    58  49  44    61  49  42    63  50  41    64  50  41    63  50  42    61  49  43    60  49  45    58  47  45    55  45  43    56  48  47    58  52  55    60  57  61    60  59  65    63  62  69    66  67  75    72  75  84    80  82  93    87  89 101    92  94 106    94  96 108    93  95 107    92  94 106    90  92 104    85  87  99    84  86  98    82  84  96    79  81  93    76  77  90    71  73  85    63  65  77    57  57  66    55  54  61    52  51  57    51  50  55    52  51  56    54  53  58    54  53  58    54  53  58    54  53  59     0   0   0     0   0   0     0   0   0     0   0   0     0   0   0  
   0   0   0     0   0   0     0   0   0    51  46  43    55  47  44    56  47  42    57  48  42    59  47  40    60  48  39    61  48  40    64  51  45    62  50  44    61  50  45    59  48  46    55  45  44    55  46  47    57  52  52    61  56  59    61  58  63    62  61  67    65  65  73    72  72  80    78  78  87    84  86  95    89  92 102    92  95 104    90  94 103    90  93 102    87  90  99    83  86  95    82  85  94    81  84  93    78  81  90    75  77  86    71  74  83    64  67  76    60  59  69    59  56  64    56  52  60    54  52  57    54  52  57    55  53  56    55  53  57    53  52  57    53  52  58    53  52  60    53  51  63     0   0   0     0   0   0     0   0   0  
   0   0   0     0   0   0    49  44  41    50  45  42    51  46  43    54  46  43    56  47  42    58  47  41    60  48  40    61  48  40    64  51  43    62  50  44    61  50  44    59  49  44    54  44  42    54  46  44    57  49  50    60  55  57    60  57  60    62  60  64    64  63  70    69  68  76    75  74  82    79  81  88    84  87  95    87  90  99    87  90  99    87  90  99    86  88  97    82  85  94    81  84  93    80  83  92    78  81  90    75  77  86    72  75  84    67  69  78    63  62  70    63  59  66    61  56  62    57  55  60    57  55  58    55  53  56    54  52  55    52  52  54    52  51  56    52  51  57    52  51  60    54  52  63     0   0   0     0   0   0  
  49  44  41    49  44  42    49  45  44    49  44  42    50  45  42    53  45  42    57  47  42    60  49  43    63  50  43    65  52  44    64  51  43    63  50  42    63  50  44    60  48  44    54  44  42    53  45  43    56  48  50    61  55  57    62  56  60    63  58  64    63  60  67    67  64  71    72  70  78    74  74  82    77  79  87    81  84  91    82  86  92    85  88  95    84  87  94    81  84  91    80  83  90    80  84  90    79  82  89    76  78  86    74  77  84    69  72  79    67  66  73    68  62  69    66  58  66    63  58  64    62  57  61    59  54  57    56  52  54    54  51  55    53  51  56    52  51  56    52  51  57    53  52  59    54  53  63    56  54  65  
  49  44  41    50  45  43    50  46  45    49  45  42    50  45  42    54  46  43    57  50  43    62  52  45    66  53  46    68  55  47    63  50  42    63  50  43    64  51  45    61  50  45    57  46  42    56  46  44    58  50  49    61  55  56    62  56  60    63  58  62    62  60  65    65  62  69    69  67  74    70  70  77    72  74  82    76  79  86    78  81  88    81  84  91    80  83  90    78  81  88    78  81  88    80  83  90    79  82  89    76  78  86    74  77  84    71  74  81    70  68  76    70  64  72    68  61  69    67  60  67    65  60  64    62  57  60    58  54  55    55  53  55    54  52  55    53  53  55    52  51  56    54  53  58    55  54  60    56  55  63  
   0   0   0    50  46  43    51  47  46    52  48  45    53  48  45    57  49  46    61  50  48    63  52  47    67  54  47    68  55  47    65  52  44    65  51  44    67  54  48    64  52  48    60  49  47    59  49  48    61  52  51    64  55  57    63  56  60    64  58  62    63  58  64    65  61  67    67  65  71    68  69  74    72  74  79    76  77  82    77  78  83    79  80  85    77  78  83    74  75  80    77  78  83    80  81  86    79  80  85    76  76  81    75  76  81    73  74  79    72  69  77    72  65  76    71  64  73    70  63  70    69  63  67    64  59  62    60  56  57    56  54  55    55  53  56    54  54  56    53  52  57    54  53  59    55  54  60    56  55  61  
   0   0   0     0   0   0    52  47  45    56  49  47    58  50  47    60  50  48    63  51  47    66  53  46    68  53  46    69  55  46    67  53  44    66  53  45    68  55  47    68  55  47    65  52  46    63  52  48    65  54  52    65  55  53    65  55  56    64  58  59    64  58  62    66  61  65    67  64  69    69  68  73    74  72  77    76  75  81    76  75  81    76  75  82    73  73  81    70  70  78    75  75  83    78  78  86    77  77  85    73  74  80    73  74  79    72  73  78    71  69  75    73  67  74    72  65  73    72  65  72    70  64  69    66  61  64    61  57  58    57  55  56    56  54  55    55  53  56    55  53  56    56  54  59    57  55  60    58  56  61  
   0   0   0     0   0   0    56  46  45    56  45  44    60  47  46    65  50  47    68  52  47    71  54  47    73  55  46    75  57  47    76  59  49    73  56  45    73  57  44    74  58  45    70  53  43    68  54  43    69  56  47    66  53  46    65  53  50    64  54  53    65  56  57    65  60  60    67  62  65    69  63  66    72  66  69    72  67  73    70  65  73    67  64  76    69  68  80    74  73  86    76  75  89    74  73  86    75  73  85    76  75  84    79  76  83    78  75  82    77  71  77    77  67  75    78  68  75    76  70  74    73  67  72    67  62  66    62  58  62    56  54  57    55  53  56    55  53  56    59  53  57    62  56  60    63  55  60    63  53  61  
   0   0   0     0   0   0     0   0   0    59  46  45    63  48  45    69  51  47    71  54  47    74  55  47    75  56  45    76  58  46    77  61  48    74  58  44    75  59  44    76  58  44    73  55  41    71  55  42    71  56  44    68  54  44    67  54  47    65  54  50    66  56  54    66  58  57    67  61  61    68  60  61    71  62  64    69  64  68    66  61  70    63  61  73    65  64  77    69  69  84    73  72  88    72  70  86    73  71  84    75  72  82    77  74  81    76  74  79    77  71  77    79  70  75    80  70  75    78  72  76    74  69  73    69  65  69    64  62  65    59  57  60    57  55  58    58  53  57    60  55  59    65  57  62    66  57  62    65  54  60  
   0   0   0     0   0   0     0   0   0    64  48  48    66  50  50    71  53  51    73  55  50    76  57  50    77  58  49    79  61  49    79  63  50    77  60  48    78  60  48    78  60  47    76  58  44    75  57  43    75  57  45    71  56  46    68  55  47    66  55  49    65  56  51    65  57  55    67  58  58    66  56  57    67  58  60    65  59  63    63  56  64    61  56  67    61  59  72    64  64  77    69  68  82    68  67  81    70  68  81    72  69  80    75  72  79    75  73  78    77  71  76    80  73  77    82  73  78    79  73  77    76  71  74    71  67  71    67  65  68    64  62  65    60  58  61    60  55  59    62  57  61    68  61  65    69  60  65    66  57  62  
   0   0   0     0   0   0     0   0   0     0   0   0    69  54  51    72  57  52    75  58  51    77  59  52    79  61  52    81  63  51    80  64  51    80  64  51    81  63  51    81  63  50    79  61  47    78  60  46    77  59  45    75  57  46    71  56  47    68  55  47    66  55  49    65  55  51    65  56  54    63  55  53    63  54  55    61  55  57    58  54  58    56  54  62    57  57  68    60  60  72    65  65  77    66  65  77    68  66  78    71  68  76    74  72  77    74  72  75    78  72  76    81  74  78    81  74  78    80  74  78    77  72  76    74  70  73    70  68  71    68  66  69    64  62  65    63  58  62    65  60  64    71  65  69    72  64  68    69  60  65  
   0   0   0     0   0   0     0   0   0     0   0   0    72  56  56    74  59  56    77  60  55    79  62  54    80  63  54    83  66  56    83  65  55    84  65  55    85  65  54    84  65  52    83  64  50    82  63  49    79  60  46    77  59  46    74  56  46    70  56  47    67  54  45    65  55  46    65  55  49    62  54  51    62  53  54    59  53  55    57  52  56    56  52  58    56  55  62    58  58  67    62  62  72    64  63  73    67  66  75    70  68  75    74  72  77    76  74  77    80  75  77    82  74  79    81  74  78    79  73  77    77  72  76    75  70  74    72  70  73    71  69  72    68  66  69    67  62  66    68  63  67    73  67  71    75  66  71    73  64  69  
   0   0   0     0   0   0     0   0   0     0   0   0     0   0   0    76  61  56    77  62  55    79  63  55    82  65  55    85  68  58    84  66  56    86  68  58    87  67  56    86  67  53    86  67  53    86  64  51    81  60  47    78  59  45    76  57  45    72  55  45    68  54  43    66  54  45    65  54  47    63  53  50    61  53  51    57  51  51    54  51  52    53  52  56    54  54  59    55  55  63    59  59  67    62  62  70    67  66  73    70  68  74    73  71  74    76  74  75    80  75  77    82  75  79    81  74  78    79  73  77    77  72  76    75  73  75    74  72  75    73  71  74    71  69  72    69  67  70    71  66  70    74  68  72    76  68  73    77  68  73  
   0   0   0     0   0   0     0   0   0     0   0   0     0   0   0    77  64  58    78  63  57    79  64  56    81  67  57    85  69  59    84  66  56    88  70  60    89  69  58    88  67  55    90  68  55    87  65  52    83  61  47    79  58  44    75  56  42    72  56  43    68  54  41    68  54  43    66  55  45    63  53  47    60  52  50    56  51  48    55  49  50    54  50  55    54  52  57    53  54  59    56  57  62    60  61  66    65  64  69    68  66  71    72  69  73    76  74  75    81  77  79    84  76  81    82  75  79    80  74  78    78  73  77    76  74  77    76  75  78    74  74  76    74  72  75    73  71  74    74  68  72    74  68  72    77  69  73    81  72  77  
   0   0   0     0   0   0     0   0   0     0   0   0     0   0   0     0   0   0    77  64  55    78  65  56    80  68  57    84  70  59    83  66  56    89  70  60    90  70  59    89  67  55    91  69  56    87  65  52    83  61  47    80  58  44    76  56  42    73  55  41    70  54  41    68  54  41    66  55  44    63  53  47    59  51  48    54  49  46    52  48  48    51  50  52    51  52  54    52  53  57    53  54  58    58  59  63    64  63  67    67  65  68    71  69  72    75  73  74    81  76  78    84  78  82    82  76  80    80  75  79    77  75  78    78  76  79    78  78  80    74  74  76    74  74  76    76  74  77    73  70  73    73  67  71    76  70  74    82  74  79  
   0   0   0     0   0   0     0   0   0     0   0   0     0   0   0     0   0   0    80  67  60    81  68  59    80  68  57    83  71  59    87  70  60    89  71  60    91  72  60    92  70  58    90  68  55    87  65  51    85  63  49    83  61  47    78  58  45    75  57  43    73  57  44    70  54  42    66  52  42    62  52  46    59  51  48    54  49  46    52  46  47    52  49  51    50  50  52    49  50  52    55  56  58    61  61  63    63  63  65    65  63  66    72  70  71    78  76  77    81  77  79    83  77  81    81  75  79    79  74  78    77  75  78    77  76  78    77  77  79    76  76  77    75  75  77    76  74  77    75  72  75    77  71  75    78  72  76    81  75  79  
   0   0   0     0   0   0     0   0   0     0   0   0     0   0   0     0   0   0     0   0   0    80  70  60    80  70  58    84  72  60    87  70  60    89  71  60    89  71  59    89  70  57    88  66  53    85  63  49    84  62  48    81  61  47    77  58  44    74  56  44    72  56  43    69  53  42    65  51  42    60  50  44    55  47  45    51  46  43    50  46  46    50  49  49    50  50  52    50  51  53    52  53  55    58  59  61    63  63  65    66  64  65    72  70  71    76  74  75    78  75  77    82  77  81    81  75  79    79  74  78    77  75  78    76  76  78    77  77  79    76  76  78    76  76  78    76  76  78    76  73  77    77  72  76    77  72  75    80  74  78  
   0   0   0     0   0   0     0   0   0     0   0   0     0   0   0     0   0   0     0   0   0    81  72  62    80  73  60    84  74  62    86  72  61    88  71  60    88  71  59    86  68  55    85  66  52    82  63  49    80  61  47    79  60  46    76  57  45    73  55  45    70  53  43    67  50  43    63  49  42    57  46  43    52  43  44    48  42  42    49  44  44    51  48  49    52  51  53    51  52  54    50  50  53    57  58  60    64  64  66    68  66  69    72  70  74    74  72  75    78  73  77    83  77  81    81  75  79    79  74  78    77  75  78    76  76  78    76  77  79    76  77  79    78  78  80    78  78  80    78  75  78    77  72  76    77  71  75    77  71  75  
   0   0   0     0   0   0     0   0   0     0   0   0     0   0   0     0   0   0     0   0   0    83  75  64    82  74  61    84  76  63    87  75  63    87  73  61    87  72  59    86  70  55    83  65  51    81  63  49    80  61  47    80  61  48    76  58  47    71  54  46    69  53  45    64  49  43    61  47  44    55  43  42    50  41  42    47  41  41    46  43  42    48  47  48    50  50  52    51  52  54    51  52  54    57  57  59    63  63  65    68  66  69    72  70  74    76  74  77    78  76  79    82  77  81    80  75  79    77  75  78    76  76  78    75  76  78    76  77  79    77  78  80    78  79  81    80  80  82    77  77  79    76  73  76    75  70  73    75  69  73  
   0   0   0     0   0   0     0   0   0     0   0   0     0   0   0     0   0   0     0   0   0    82  75  64    81  75  61    84  76  63    86  77  62    87  75  60    86  73  60    85  70  55    84  66  52    82  64  50    80  62  48    79  61  50    76  57  49    71  54  47    69  51  47    64  48  46    59  45  45    54  43  44    50  41  44    47  41  43    47  41  44    49  45  49    50  49  51    49  50  52    56  57  59    58  58  61    63  62  67    68  66  71    72  69  76    78  75  82    83  80  84    82  77  81    81  76  80    78  76  79    76  76  78    76  76  78    76  77  79    77  78  80    78  79  81    80  80  82    77  77  79    76  72  76    73  68  72    73  68  72  
   0   0   0     0   0   0     0   0   0     0   0   0     0   0   0     0   0   0     0   0   0    81  75  63    80  74  61    82  76  62    84  77  61    84  75  60    84  73  59    83  71  55    83  67  52    81  65  50    80  63  51    79  61  52    74  57  50    68  53  48    65  51  48    61  47  46    57  44  45    53  42  45    50  41  44    47  41  43    46  43  44    48  47  50    49  50  52    50  51  53    58  59  61    59  60  62    64  63  68    69  67  73    74  71  78    80  78  85    85  81  88    83  78  83    80  77  80    78  76  79    77  77  79    77  77  79    77  78  80    78  79  80    78  79  81    79  79  81    76  75  78    73  71  74    73  68  72    73  68  72  
   0   0   0     0   0   0     0   0   0     0   0   0     0   0   0     0   0   0     0   0   0    80  73  62    77  73  61    79  74  60    81  74  58    82  73  57    81  71  54    80  68  52    79  66  50    80  64  51    79  63  50    76  59  50    72  54  49    66  51  48    62  47  47    58  44  45    54  40  44    51  40  45    48  39  44    46  40  44    48  42  46    51  48  51    53  52  54    53  54  56    57  58  62    58  59  63    65  64  70    71  69  76    75  72  79    80  77  86    85  81  88    84  79  84    81  78  81    79  77  80    78  78  80    78  78  80    78  79  81    77  78  80    78  79  81    77  77  79    74  74  76    72  70  73    72  68  72    73  68  72  
   0   0   0     0   0   0     0   0   0     0   0   0     0   0   0     0   0   0    80  72  63    79  72  61    76  72  60    79  73  61    78  72  59    78  69  57    78  68  55    78  66  52    78  64  51    79  63  50    78  62  50    75  58  49    69  53  47    64  49  46    59  46  45    53  42  42    49  39  41    46  39  43    45  38  45    44  39  43    47  43  46    51  50  53    54  55  57    56  57  59    54  55  59    57  57  62    67  66  72    73  72  78    74  73  79    78  76  82    83  80  87    83  81  85    81  79  82    80  78  81    79  79  81    79  79  81    79  80  82    77  78  81    77  78  80    76  76  78    73  73  75    71  69  72    70  69  72    72  70  73  
   0   0   0     0   0   0     0   0   0     0   0   0     0   0   0     0   0   0    83  72  63    79  70  62    76  68  61    74  67  59    78  71  63    78  69  61    78  67  58    77  63  53    78  62  49    77  59  47    77  57  46    74  55  45    70  53  45    64  51  45    58  48  46    52  44  43    45  40  42    41  39  43    41  40  45    42  41  46    46  45  50    49  49  54    52  53  57    55  56  60    60  61  65    63  64  68    68  69  73    71  72  76    76  76  80    81  80  85    83  82  87    83  82  87    80  79  84    77  76  81    78  77  82    79  78  83    80  79  84    80  79  84    81  80  85    77  76  81    70  69  74    66  65  70    63  62  67    63  61  66  
   0   0   0     0   0   0     0   0   0     0   0   0     0   0   0     0   0   0    83  70  63    79  69  63    76  68  61    75  68  60    77  70  64    77  67  62    77  65  58    76  62  54    77  60  50    76  58  46    77  57  45    75  56  45    70  53  44    64  51  45    57  49  44    50  46  43    45  42  42    41  40  42    41  42  46    42  43  47    45  46  50    49  50  54    53  54  58    56  57  61    60  61  65    64  65  69    68  69  73    71  72  76    75  77  80    79  80  84    83  83  87    84  83  88    81  80  85    79  78  83    79  78  83    80  79  84    80  79  84    79  78  83    80  79  84    76  75  80    69  68  73    65  64  69    63  62  67    62  61  66  
   0   0   0     0   0   0     0   0   0     0   0   0     0   0   0     0   0   0    82  70  61    78  69  60    76  69  60    76  69  63    76  66  64    75  65  63    76  64  58    75  61  53    77  59  49    77  57  46    75  56  45    74  56  45    70  53  44    63  50  44    57  49  44    52  45  44    46  42  44    42  41  45    43  42  47    44  43  48    47  46  51    51  50  55    55  54  59    58  57  62    62  61  66    66  65  70    70  69  74    73  72  77    76  75  80    79  78  83    83  82  86    85  83  86    82  81  83    81  79  82    81  79  82    82  80  83    81  79  82    80  77  81    80  78  81    76  74  77    69  67  70    66  64  67    64  62  65    62  60  63  
   0   0   0     0   0   0     0   0   0     0   0   0     0   0   0     0   0   0    82  70  61    79  69  60    77  68  60    76  69  61    76  67  62    75  65  60    76  64  57    76  62  53    76  59  51    76  58  48    76  57  45    73  56  45    67  52  43    62  49  43    57  48  43    53  45  44    49  44  44    46  43  45    44  43  48    45  44  49    47  46  51    51  50  55    56  55  60    59  58  63    63  62  67    67  66  71    71  70  75    73  72  77    76  75  80    78  77  82    81  80  85    84  82  85    81  80  82    81  79  82    81  79  82    80  79  82    80  78  81    78  76  79    79  77  80    75  73  76    68  66  69    65  63  66    63  61  64    62  60  63  
   0   0   0     0   0   0     0   0   0     0   0   0     0   0   0     0   0   0    83  69  61    80  68  60    77  68  59    77  68  61    76  67  62    77  65  61    78  64  59    79  62  56    77  60  52    77  59  49    76  58  48    73  55  45    67  50  41    60  47  41    57  46  42    53  45  44    49  44  45    46  44  46    44  44  46    45  45  47    47  47  49    52  52  54    57  57  59    60  60  62    64  64  66    68  68  70    72  72  74    74  74  76    76  76  78    77  77  79    80  79  81    82  80  83    80  78  81    79  77  80    79  77  80    78  76  79    76  74  77    75  74  77    77  75  78    74  72  75    67  65  68    64  62  65    62  60  63    61  59  62  
   0   0   0     0   0   0     0   0   0     0   0   0     0   0   0     0   0   0     0   0   0    81  69  61    78  68  59    76  67  58    76  67  60    77  65  61    78  65  58    77  63  55    78  61  53    78  60  50    76  58  48    71  54  45    64  48  41    59  46  40    55  44  40    54  44  42    51  45  44    47  44  45    45  45  47    45  45  47    47  47  49    52  52  54    57  57  59    61  61  63    65  65  67    69  69  71    73  73  75    75  75  77    75  75  77    76  76  78    78  77  80    80  78  81    79  77  80    79  77  80    78  76  79    76  74  77    73  71  74    74  72  75    76  74  77    72  70  73    66  64  67    63  61  64    62  60  63    60  58  61  
   0   0   0     0   0   0     0   0   0     0   0   0     0   0   0     0   0   0     0   0   0    82  69  60    80  66  57    76  66  57    76  65  59    76  64  59    77  63  58    78  61  55    77  60  52    76  59  49    74  57  48    69  52  44    63  47  40    57  44  38    54  43  39    53  43  41    52  45  44    48  44  45    46  44  45    46  44  45    48  46  47    52  50  51    57  55  56    62  59  61    67  65  66    71  69  70    75  73  74    76  74  75    76  74  75    76  74  75    78  76  76    81  77  78    80  76  77    81  77  78    80  76  77    77  73  74    74  70  71    75  71  72    77  73  74    73  69  70    68  64  65    65  61  62    63  59  60    62  58  59  
   0   0   0     0   0   0     0   0   0     0   0   0     0   0   0     0   0   0     0   0   0     0   0   0    80  67  58    77  64  56    76  63  57    74  63  57    76  62  55    75  60  53    76  59  51    75  58  48    73  56  47    68  52  44    61  47  41    54  43  37    52  43  38    53  43  41    52  45  42    49  45  43    46  44  45    45  43  44    47  45  46    52  50  51    57  55  56    62  59  61    68  66  67    72  70  71    75  73  74    76  74  75    76  74  75    76  74  75    77  75  76    81  77  78    81  77  78    81  77  78    81  77  78    78  74  75    74  70  71    74  70  71    76  72  73    73  69  70    67  63  64    64  60  61    63  59  60    62  58  59  
   0   0   0     0   0   0     0   0   0     0   0   0     0   0   0     0   0   0     0   0   0     0   0   0     0   0   0    80  65  58    76  63  57    77  64  58    77  62  56    76  61  54    75  60  53    71  57  48    66  52  43    64  49  42    62  49  43    59  46  40    55  44  40    53  43  41    54  45  43    52  45  45    48  44  45    51  47  48    55  51  52    52  48  49    53  49  50    63  59  60    68  64  65    73  69  70    76  72  73    75  71  71    74  70  71    76  72  73    78  73  74    78  72  72    79  73  73    79  73  73    77  71  71    75  70  70    75  69  69    75  69  69    73  67  67    71  65  65    68  62  62    66  60  60    62  56  56    58  52  52  
   0   0   0     0   0   0     0   0   0     0   0   0     0   0   0     0   0   0     0   0   0     0   0   0     0   0   0    80  63  55    76  61  54    76  62  56    76  61  54    74  59  52    74  59  52    69  55  47    65  50  42    62  48  40    61  48  41    57  46  40    55  44  40    53  44  40    54  45  43    52  45  44    49  45  46    52  48  49    56  52  53    55  51  52    56  52  53    64  60  61    70  66  67    74  70  71    77  73  74    76  71  72    75  71  72    77  73  74    78  74  73    78  72  72    78  72  72    78  72  72    76  70  70    75  69  69    75  69  69    75  69  69    73  67  67    69  63  63    65  59  59    64  58  58    61  56  56    60  54  54  
   0   0   0     0   0   0     0   0   0     0   0   0     0   0   0     0   0   0     0   0   0     0   0   0     0   0   0     0   0   0    74  59  52    75  60  53    73  58  51    72  57  50    71  56  49    67  52  45    62  47  40    60  47  41    59  46  40    56  45  39    54  43  39    54  44  40    55  47  43    53  46  45    51  45  45    54  48  48    58  52  52    58  52  52    60  54  54    68  62  62    71  65  65    75  69  69    78  72  72    77  71  71    76  70  70    78  72  72    80  73  73    80  71  71    78  70  68    77  69  67    77  69  67    76  68  66    76  68  66    77  69  67    74  66  64    69  60  59    65  57  55    64  56  54    63  55  53    63  55  53  
   0   0   0     0   0   0     0   0   0     0   0   0     0   0   0     0   0   0     0   0   0     0   0   0     0   0   0     0   0   0    75  58  50    73  58  50    71  56  49    69  54  47    69  54  47    64  49  42    59  46  39    58  45  39    56  45  39    55  44  38    54  43  39    54  44  40    56  47  43    55  46  44    52  46  46    55  49  49    59  53  53    61  55  55    64  58  58    70  64  64    70  64  64    73  67  67    76  70  70    76  70  70    75  69  69    76  70  70    78  72  70    79  71  69    76  68  66    75  67  65    75  67  65    76  68  66    76  68  66    75  67  65    72  64  62    68  59  58    65  57  55    64  56  54    62  54  52    61  53  51  
   0   0   0     0   0   0     0   0   0     0   0   0     0   0   0     0   0   0     0   0   0     0   0   0     0   0   0     0   0   0     0   0   0    73  56  49    69  54  47    66  51  44    66  51  44    62  49  42    57  44  38    56  44  38    55  44  39    54  43  39    53  42  38    54  43  39    56  45  42    55  46  44    55  47  45    57  49  47    61  53  51    64  56  54    68  60  58    72  64  62    70  62  60    72  65  62    75  67  65    75  67  65    75  67  65    76  68  66    77  68  66    78  68  67    75  65  63    74  64  62    75  65  63    76  66  64    76  66  64    73  63  61    71  61  59    69  59  57    68  58  56    66  56  54    62  52  50    58  48  46  
   0   0   0     0   0   0     0   0   0     0   0   0     0   0   0     0   0   0     0   0   0     0   0   0     0   0   0     0   0   0     0   0   0     0   0   0    67  52  45    64  49  42    64  49  42    59  47  40    55  43  37    54  43  37    54  43  38    53  42  38    52  41  37    53  42  38    55  45  40    54  46  42    55  47  45    56  48  46    60  52  50    64  56  54    68  60  58    71  63  61    68  60  58    70  61  60    72  64  62    73  65  63    73  65  63    73  65  63    74  66  63    76  66  64    73  63  61    73  63  61    75  65  63    75  65  64    74  64  62    70  60  58    69  59  57    69  59  57    69  59  57    67  57  55    61  51  49    57  47  45  
   0   0   0     0   0   0     0   0   0     0   0   0     0   0   0     0   0   0     0   0   0     0   0   0     0   0   0     0   0   0     0   0   0     0   0   0    66  52  43    62  49  41    61  48  40    59  45  39    55  42  37    54  43  39    54  43  39    53  42  38    52  41  37    52  41  37    54  43  38    55  45  42    55  47  45    56  48  46    58  50  48    63  55  53    66  58  56    68  60  58    67  59  57    68  60  58    70  62  60    72  64  62    73  65  63    73  65  63    73  64  62    74  64  62    71  61  60    73  63  61    76  66  64    75  65  63    73  63  61    71  61  59    70  60  58    68  58  56    68  58  55    66  56  54    62  52  50    59  49  47  
   0   0   0     0   0   0     0   0   0     0   0   0     0   0   0     0   0   0     0   0   0     0   0   0     0   0   0     0   0   0     0   0   0     0   0   0     0   0   0    61  48  40    61  48  42    58  44  39    55  41  38    54  43  39    54  43  39    53  42  38    51  40  36    51  40  34    53  43  36    53  45  39    54  46  43    55  47  44    57  49  46    62  54  51    65  57  54    66  58  55    68  60  57    68  60  57    70  62  60    72  64  62    73  65  63    73  65  63    73  63  62    73  63  61    71  61  59    73  63  61    76  66  64    76  66  64    72  62  60    72  62  60    70  60  59    67  57  56    65  55  55    65  55  54    63  53  52    61  51  50  
   0   0   0     0   0   0     0   0   0     0   0   0     0   0   0     0   0   0     0   0   0     0   0   0     0   0   0     0   0   0     0   0   0     0   0   0    62  52  43    58  48  41    56  45  41    55  44  40    54  43  41    53  42  40    52  41  37    51  40  36    51  40  34    52  42  33    53  44  35    52  45  36    53  49  39    58  51  45    61  54  48    63  56  50    65  57  52    67  58  53    65  56  51    71  60  57    72  61  59    72  61  59    74  63  61    75  64  62    75  63  62    74  62  62    73  61  61    76  64  64    78  66  66    76  64  64    72  60  61    71  61  62    72  62  63    71  61  62    69  59  60    65  56  57    62  53  54    60  51  52  
   0   0   0     0   0   0     0   0   0     0   0   0     0   0   0     0   0   0     0   0   0     0   0   0     0   0   0     0   0   0     0   0   0    63  55  44    60  51  42    56  47  40    54  45  40    54  43  41    53  42  40    51  40  38    50  39  36    50  39  33    50  40  31    51  41  32    53  44  33    54  47  36    55  51  40    59  52  44    61  54  46    62  55  47    63  55  48    66  57  50    66  55  51    71  60  56    72  61  57    72  61  58    74  63  61    75  64  62    75  63  62    74  62  62    74  62  62    75  63  63    76  64  64    75  63  63    73  61  62    72  61  63    72  62  63    71  61  62    68  58  61    65  56  59    62  53  56    60  51  54  
   0   0   0     0   0   0     0   0   0     0   0   0     0   0   0     0   0   0     0   0   0     0   0   0     0   0   0     0   0   0    64  54  44    62  52  43    60  49  42    56  46  41    54  43  39    53  42  40    51  40  38    49  38  36    49  38  35    49  38  34    50  39  33    52  42  33    53  44  33    56  49  38    59  52  42    60  53  45    60  52  45    61  52  45    62  53  46    65  56  49    65  54  50    71  60  56    72  61  57    72  61  58    74  63  61    75  64  62    74  63  60    74  63  61    75  64  62    75  64  62    74  63  61    73  61  61    74  62  62    72  62  61    71  61  62    70  60  61    68  58  59    65  56  57    62  53  55    60  51  52  
   0   0   0     0   0   0     0   0   0     0   0   0     0   0   0     0   0   0     0   0   0     0   0   0     0   0   0    70  58  46    63  53  43    60  50  41    59  49  40    56  45  38    53  42  38    51  40  36    49  38  36    49  38  35    49  38  34    50  39  33    52  42  33    53  43  34    55  45  35    58  48  39    58  51  41    59  52  44    59  52  44    61  52  45    62  53  46    66  57  49    65  54  50    70  59  55    72  61  57    73  62  59    74  63  61    75  64  62    73  62  60    73  62  60    75  64  62    75  64  62    72  61  59    72  61  60    75  64  63    72  62  61    71  61  60    70  60  59    67  57  58    64  55  56    62  53  54    61  52  53  
   0   0   0     0   0   0     0   0   0     0   0   0     0   0   0     0   0   0     0   0   0     0   0   0    66  54  42    65  53  41    62  52  42    60  50  40    58  48  39    56  45  38    52  41  37    50  39  35    49  38  34    50  39  35    50  40  35    52  41  35    54  44  35    55  45  35    56  46  36    57  47  38    58  49  40    59  50  43    59  50  43    61  52  45    64  55  48    67  58  51    63  54  49    69  60  55    73  62  58    74  61  59    76  62  61    76  62  61    74  61  59    73  62  58    75  64  60    74  63  59    72  61  57    71  61  56    75  64  61    72  62  60    70  60  58    69  59  57    66  57  55    64  56  54    62  54  52    62  54  52  
   0   0   0     0   0   0     0   0   0     0   0   0     0   0   0     0   0   0     0   0   0     0   0   0    63  51  39    61  49  37    63  50  41    60  50  41    59  49  40    56  45  38    53  42  36    50  39  33    50  38  35    51  40  35    52  40  35    54  43  37    55  45  36    55  45  35    55  45  35    55  45  36    57  48  39    59  50  43    59  50  43    61  52  45    63  54  47    66  57  50    62  53  48    68  59  54    73  62  58    74  61  59    76  62  61    76  62  60    73  60  56    73  62  56    74  63  58    74  63  59    73  62  58    73  62  58    74  63  59    72  62  57    70  60  58    68  58  56    65  56  54    64  56  53    63  55  53    62  54  52  
   0   0   0     0   0   0     0   0   0     0   0   0     0   0   0     0   0   0     0   0   0    66  52  43    65  51  42    62  48  39    65  50  43    63  50  42    62  49  41    59  46  38    56  43  37    53  40  34    52  39  33    53  40  34    53  41  35    54  44  35    54  44  35    54  44  35    53  43  34    56  46  37    59  49  40    60  51  44    61  52  45    61  52  45    61  53  45    62  55  47    62  53  48    68  59  54    73  62  58    74  61  59    76  62  61    76  60  60    73  60  58    72  61  56    73  62  55    74  63  57    75  64  58    74  63  57    72  61  56    70  60  56    69  60  55    68  59  54    65  56  54    64  56  53    63  55  52    63  55  52  
   0   0   0     0   0   0     0   0   0     0   0   0     0   0   0     0   0   0    69  55  45    68  54  45    67  53  44    64  50  41    65  50  43    65  50  43    63  49  42    60  47  39    56  43  35    54  41  33    52  39  31    53  40  32    52  41  33    53  43  34    53  43  34    52  42  33    52  42  33    56  46  37    60  50  41    61  52  45    62  53  45    61  52  45    59  52  44    59  52  44    61  53  48    68  59  54    73  62  58    74  61  59    77  61  61     0   0   0     0   0   0    74  62  56    72  61  55    74  63  57    76  65  59    75  64  58    71  60  54    70  60  55    69  60  55    67  58  53    65  56  52    63  55  52    63  55  52    63  55  52  
   0   0   0     0   0   0     0   0   0     0   0   0     0   0   0    65  51  42    66  51  42    68  54  45    68  54  45    66  52  43    66  49  42    66  49  42    64  48  41    61  47  38    58  44  35    56  42  33    56  41  34    57  44  35    55  44  34    55  45  35    56  46  37    54  44  35    53  43  34    55  43  34    57  44  36    60  49  43    64  53  47    62  53  46    60  52  44    60  53  45    64  55  50    67  57  52    71  60  56     0   0   0     0   0   0     0   0   0     0   0   0     0   0   0     0   0   0    70  59  53    74  63  57    74  63  57    72  61  55    68  58  53    67  58  53    68  59  54    67  59  54    66  58  55    63  56  52    63  55  52  
   0   0   0     0   0   0     0   0   0     0   0   0    67  53  44    65  51  42    66  51  42    68  54  45    68  54  45    67  53  44    67  50  43    67  50  43    66  49  42    62  47  39    59  45  36    57  43  34    56  42  33    58  45  36    56  45  35    55  45  35    56  46  37    55  45  36    53  43  34    54  42  34    57  44  36    59  48  42    63  52  46    62  53  46    58  51  43    60  53  45    64  55  50     0   0   0     0   0   0     0   0   0     0   0   0     0   0   0     0   0   0     0   0   0     0   0   0     0   0   0     0   0   0    73  62  56    71  60  54    67  57  52    67  58  53    67  58  53    66  58  53    65  57  54    63  55  52    62  54  51  
   0   0   0     0   0   0     0   0   0    67  54  46    66  53  45    66  51  44    66  51  44    68  53  46    68  53  46    67  52  45    69  52  45    70  50  45    69  50  44    66  48  41    62  45  37    58  44  33    56  43  32    58  46  34    56  45  35    56  46  36    56  46  37    55  45  37    54  44  35    54  42  34    57  42  35    60  47  41    62  51  45    60  51  44    58  50  43     0   0   0     0   0   0     0   0   0     0   0   0     0   0   0     0   0   0     0   0   0     0   0   0     0   0   0     0   0   0     0   0   0     0   0   0     0   0   0     0   0   0    66  56  53    65  55  53    66  56  54    65  55  53    64  56  54    62  54  52    61  53  51  
   0   0   0    62  50  41    65  52  44    65  53  45    66  53  45    66  51  44    67  52  45    68  53  46    68  53  46     0   0   0     0   0   0     0   0   0     0   0   0     0   0   0     0   0   0     0   0   0     0   0   0     0   0   0     0   0   0     0   0   0    57  47  38    56  46  37    54  45  36    55  42  34    57  42  35    60  47  41    63  51  45     0   0   0     0   0   0     0   0   0     0   0   0     0   0   0     0   0   0     0   0   0     0   0   0     0   0   0     0   0   0     0   0   0     0   0   0     0   0   0     0   0   0     0   0   0     0   0   0     0   0   0     0   0   0    64  54  52    63  53  52    62  54  52    60  52  50    60  52  50  
  59  49  40    62  51  42    66  53  45     0   0   0     0   0   0     0   0   0     0   0   0     0   0   0     0   0   0     0   0   0     0   0   0     0   0   0     0   0   0     0   0   0     0   0   0     0   0   0     0   0   0     0   0   0     0   0   0     0   0   0     0   0   0     0   0   0     0   0   0     0   0   0     0   0   0     0   0   0     0   0   0     0   0   0     0   0   0     0   0   0     0   0   0     0   0   0     0   0   0     0   0   0     0   0   0     0   0   0     0   0   0     0   0   0     0   0   0     0   0   0     0   0   0     0   0   0     0   0   0     0   0   0     0   0   0     0   0   0     0   0   0    60  51  52    59  50  51    59  50  51  
  60  50  41    63  52  43     0   0   0     0   0   0     0   0   0     0   0   0     0   0   0     0   0   0     0   0   0     0   0   0     0   0   0     0   0   0     0   0   0     0   0   0     0   0   0     0   0   0     0   0   0     0   0   0     0   0   0     0   0   0     0   0   0     0   0   0     0   0   0     0   0   0     0   0   0     0   0   0     0   0   0     0   0   0     0   0   0     0   0   0     0   0   0     0   0   0     0   0   0     0   0   0     0   0   0     0   0   0     0   0   0     0   0   0     0   0   0     0   0   0     0   0   0     0   0   0     0   0   0     0   0   0     0   0   0     0   0   0     0   0   0     0   0   0    59  50  51    59  50  51  
