P3
63 50
255
  29  23  23    28  22  22     0   0   0     0   0   0     0   0   0     0   0   0     0   0   0     0   0   0     0   0   0     0   0   0     0   0   0     0   0   0     0   0   0     0   0   0     0   0   0     0   0   0     0   0   0     0   0   0     0   0   0     0   0   0     0   0   0     0   0   0     0   0   0     0   0   0     0   0   0     0   0   0     0   0   0     0   0   0     0   0   0     0   0   0     0   0   0     0   0   0     0   0   0     0   0   0     0   0   0     0   0   0     0   0   0     0   0   0     0   0   0     0   0   0     0   0   0     0   0   0     0   0   0     0   0   0     0   0   0     0   0   0     0   0   0     0   0   0    63  52  46    64  53  47     0   0   0     0   0   0     0   0   0     0   0   0     0   0   0     0   0   0     0   0   0     0   0   0     0   0   0     0   0   0     0   0   0     0   0   0     0   0   0  
  31  26  25    31  25  24    31  25  25     0   0   0     0   0   0     0   0   0     0   0   0     0   0   0     0   0   0     0   0   0     0   0   0     0   0   0     0   0   0     0   0   0     0   0   0     0   0   0     0   0   0     0   0   0     0   0   0     0   0   0     0   0   0     0   0   0     0   0   0     0   0   0     0   0   0     0   0   0     0   0   0     0   0   0     0   0   0     0   0   0     0   0   0     0   0   0     0   0   0     0   0   0     0   0   0     0   0   0     0   0   0     0   0   0     0   0   0     0   0   0     0   0   0     0   0   0     0   0   0     0   0   0     0   0   0     0   0   0     0   0   0    59  50  43    62  50  45    63  52  46     0   0   0     0   0   0     0   0   0     0   0   0     0   0   0     0   0   0     0   0   0     0   0   0     0   0   0     0   0   0     0   0   0     0   0   0     0   0   0  
   0   0   0    33  28  25    33  27  27    33  27  27    33  27  27    33  27  27    33  28  25    33  26  24    32  25  23     0   0   0     0   0   0     0   0   0     0   0   0     0   0   0     0   0   0     0   0   0     0   0   0     0   0   0     0   0   0     0   0   0     0   0   0     0   0   0     0   0   0     0   0   0     0   0   0     0   0   0     0   0   0     0   0   0     0   0   0     0   0   0     0   0   0     0   0   0     0   0   0     0   0   0     0   0   0     0   0   0     0   0   0     0   0   0     0   0   0     0   0   0     0   0   0     0   0   0     0   0   0     0   0   0     0   0   0     0   0   0    56  47  42    58  49  44    61  50  44    64  53  47    65  54  48     0   0   0     0   0   0     0   0   0     0   0   0     0   0   0     0   0   0     0   0   0     0   0   0     0   0   0     0   0   0     0   0   0     0   0   0  
   0   0   0     0   0   0    34  27  26    33  26  24    31  26  24    34  28  26    35  28  25    36  27  25    36  27  25    36  26  24    36  27  25    36  26  24    37  27  23    37  28  24    42  32  27     0   0   0     0   0   0     0   0   0     0   0   0     0   0   0     0   0   0     0   0   0     0   0   0     0   0   0     0   0   0     0   0   0     0   0   0     0   0   0     0   0   0     0   0   0     0   0   0     0   0   0     0   0   0     0   0   0     0   0   0     0   0   0     0   0   0     0   0   0     0   0   0     0   0   0     0   0   0     0   0   0     0   0   0     0   0   0     0   0   0    55  45  43    55  46  43    57  47  44    60  49  45    62  51  46    63  52  48    64  53  48    64  53  49     0   0   0     0   0   0     0   0   0     0   0   0     0   0   0     0   0   0     0   0   0     0   0   0     0   0   0     0   0   0  
   0   0   0     0   0   0    35  27  25    33  25  23    31  26  23    36  28  26    39  30  28    40  30  28    40  30  28    40  30  28    40  30  28    39  29  27    39  30  25    39  30  25    42  31  27     0   0   0     0   0   0     0   0   0     0   0   0     0   0   0     0   0   0     0   0   0     0   0   0     0   0   0     0   0   0     0   0   0     0   0   0     0   0   0     0   0   0     0   0   0     0   0   0     0   0   0     0   0   0     0   0   0     0   0   0     0   0   0     0   0   0     0   0   0     0   0   0     0   0   0     0   0   0     0   0   0     0   0   0     0   0   0    53  43  41    55  45  43    55  45  43    56  46  44    58  47  43    59  48  44    60  49  45    61  50  46    62  51  47     0   0   0     0   0   0     0   0   0     0   0   0     0   0   0     0   0   0     0   0   0     0   0   0     0   0   0     0   0   0  
   0   0   0     0   0   0     0   0   0    33  25  23    34  26  24    36  28  26    42  32  30    43  32  28    43  32  28    43  32  28    43  32  28    43  32  28    43  32  28    43  32  28    41  30  26    42  31  27     0   0   0     0   0   0     0   0   0     0   0   0     0   0   0     0   0   0     0   0   0     0   0   0     0   0   0     0   0   0     0   0   0     0   0   0     0   0   0     0   0   0     0   0   0     0   0   0     0   0   0     0   0   0     0   0   0     0   0   0     0   0   0     0   0   0     0   0   0     0   0   0     0   0   0     0   0   0     0   0   0    52  42  40    53  43  41    54  44  42    56  46  44    56  46  44    57  46  44    57  46  44    58  47  45    60  49  47    62  51  49    63  52  48     0   0   0     0   0   0     0   0   0     0   0   0     0   0   0     0   0   0     0   0   0     0   0   0     0   0   0  
   0   0   0     0   0   0     0   0   0    34  26  24    34  26  24    38  28  26    43  32  28    43  32  27    43  32  27    43  32  27    44  33  28    45  33  28    44  33  28    44  33  28    42  31  27    42  31  27    42  31  27     0   0   0     0   0   0     0   0   0     0   0   0     0   0   0     0   0   0     0   0   0     0   0   0     0   0   0     0   0   0     0   0   0     0   0   0     0   0   0     0   0   0     0   0   0     0   0   0     0   0   0     0   0   0     0   0   0     0   0   0     0   0   0     0   0   0     0   0   0     0   0   0     0   0   0    53  43  41    52  42  41    53  43  41    54  44  42    59  49  47    58  48  46    58  46  45    58  46  45    59  47  46    60  49  47    63  51  50    65  52  50     0   0   0     0   0   0     0   0   0     0   0   0     0   0   0     0   0   0     0   0   0     0   0   0     0   0   0  
   0   0   0     0   0   0     0   0   0    34  26  23    35  27  25    38  28  26    42  31  27    44  31  25    44  31  25    45  32  26    45  32  26    46  33  27    44  33  27    44  33  27    45  34  30    45  34  30    45  34  30     0   0   0     0   0   0     0   0   0     0   0   0     0   0   0     0   0   0     0   0   0     0   0   0     0   0   0     0   0   0     0   0   0     0   0   0     0   0   0     0   0   0     0   0   0     0   0   0     0   0   0     0   0   0     0   0   0     0   0   0     0   0   0     0   0   0     0   0   0     0   0   0    55  47  44    55  45  43    55  45  43    55  45  43    56  46  44    57  47  46    57  47  46    57  45  45    56  44  44    57  45  45    59  47  47    61  49  49    63  49  49     0   0   0     0   0   0     0   0   0     0   0   0     0   0   0     0   0   0     0   0   0     0   0   0     0   0   0  
   0   0   0     0   0   0     0   0   0     0   0   0    35  27  24    39  29  27    41  30  26    44  30  25    44  31  25    45  32  25    45  32  26    45  33  27    46  34  28    46  34  28    48  37  32    47  36  31    47  36  32    46  35  31     0   0   0     0   0   0     0   0   0     0   0   0     0   0   0     0   0   0     0   0   0     0   0   0     0   0   0     0   0   0     0   0   0     0   0   0     0   0   0     0   0   0     0   0   0     0   0   0     0   0   0     0   0   0     0   0   0     0   0   0     0   0   0     0   0   0    53  45  42    55  47  44    57  47  45    55  45  44    56  46  45    57  47  45    55  45  43    55  45  44    56  44  44    55  44  44    56  44  44    57  45  45    57  46  46    60  46  46     0   0   0     0   0   0     0   0   0     0   0   0     0   0   0     0   0   0     0   0   0     0   0   0     0   0   0  
   0   0   0     0   0   0     0   0   0     0   0   0    33  28  24    38  30  27    42  31  27    44  30  27    43  32  26    45  32  26    46  33  27    47  34  28    47  34  28    48  35  27    50  40  31    50  39  33    49  38  32    49  37  31    46  35  29     0   0   0     0   0   0     0   0   0     0   0   0     0   0   0     0   0   0     0   0   0     0   0   0     0   0   0     0   0   0     0   0   0     0   0   0     0   0   0     0   0   0     0   0   0     0   0   0     0   0   0     0   0   0     0   0   0     0   0   0    51  41  39    53  45  42    57  47  45    57  47  45    57  47  45    58  48  47    58  48  47    55  45  44    56  46  45    58  46  46    58  46  46    59  47  47    59  47  47    58  46  46    60  46  46    63  45  45     0   0   0     0   0   0     0   0   0     0   0   0     0   0   0     0   0   0     0   0   0     0   0   0  
   0   0   0     0   0   0     0   0   0     0   0   0     0   0   0    33  28  25    39  29  28    41  30  28    41  32  27    44  33  29    46  35  29    47  36  30    47  37  28    47  37  27    51  38  29    52  39  30    53  40  31    54  39  32    51  38  30     0   0   0     0   0   0     0   0   0     0   0   0     0   0   0     0   0   0     0   0   0     0   0   0     0   0   0     0   0   0     0   0   0     0   0   0     0   0   0     0   0   0     0   0   0     0   0   0     0   0   0     0   0   0     0   0   0    49  39  37    52  41  39    52  42  40    54  43  41    53  42  40    54  43  41    56  45  43    57  46  44    57  46  44    56  45  43    56  45  43    56  45  43    56  45  43    57  46  44    58  47  45    58  47  45    59  46  43     0   0   0     0   0   0     0   0   0     0   0   0     0   0   0     0   0   0     0   0   0     0   0   0  
   0   0   0     0   0   0     0   0   0     0   0   0     0   0   0    32  28  27    38  30  28    40  30  29    42  33  28    43  34  29    46  35  29    47  37  28    48  38  28    49  39  29    56  43  31    56  43  31    56  42  33    56  42  33    56  41  32    54  40  31     0   0   0     0   0   0     0   0   0     0   0   0     0   0   0     0   0   0     0   0   0     0   0   0     0   0   0     0   0   0     0   0   0     0   0   0     0   0   0     0   0   0     0   0   0     0   0   0     0   0   0    42  37  32    47  37  35    50  39  37    51  40  38    51  40  38    51  40  38    52  41  39    53  42  40    55  44  42    55  45  43    56  45  43    57  46  44    57  46  44    57  46  45    58  47  45    58  47  45    58  47  45    56  45  41     0   0   0     0   0   0     0   0   0     0   0   0     0   0   0     0   0   0     0   0   0     0   0   0  
   0   0   0     0   0   0     0   0   0     0   0   0     0   0   0    32  28  27    39  31  29    40  30  29    42  33  29    44  35  30    47  36  30    49  39  30    51  41  31    52  41  31    57  45  33    57  44  33    57  43  32    57  43  32    58  41  33    59  42  34     0   0   0     0   0   0     0   0   0     0   0   0     0   0   0     0   0   0     0   0   0     0   0   0     0   0   0     0   0   0     0   0   0     0   0   0     0   0   0     0   0   0     0   0   0     0   0   0    37  34  30    40  35  31    46  36  34    48  37  35    49  38  36    49  38  36    49  38  36    49  38  36    51  40  38    52  41  39    55  44  42    56  45  43    57  46  44    58  47  45    59  48  46    58  47  45    57  46  44    56  45  43    55  44  40     0   0   0     0   0   0     0   0   0     0   0   0     0   0   0     0   0   0     0   0   0     0   0   0  
   0   0   0     0   0   0     0   0   0     0   0   0     0   0   0     0   0   0    38  30  28    40  30  29    41  31  29    43  34  29    47  36  30    50  40  30    53  41  32    55  42  33    56  44  32    57  43  32    57  43  32    59  43  32    59  42  33    61  44  36    62  44  37     0   0   0     0   0   0     0   0   0     0   0   0     0   0   0     0   0   0     0   0   0     0   0   0     0   0   0     0   0   0     0   0   0     0   0   0     0   0   0    34  33  30    35  32  30    38  34  32    40  35  32    43  34  32    46  35  34    46  36  35    46  36  35    46  36  34    46  36  34    47  36  35    48  38  36    52  41  40    53  42  41    55  45  43    56  46  44    56  46  45    56  46  44    54  43  42    53  42  41    53  43  40    54  43  40     0   0   0     0   0   0     0   0   0     0   0   0     0   0   0     0   0   0     0   0   0  
   0   0   0     0   0   0     0   0   0     0   0   0     0   0   0     0   0   0    37  29  27    39  29  28    40  30  28    42  33  28    46  35  29    49  39  30    55  42  33    57  44  35    59  45  34    59  46  34    62  46  35    64  47  37    65  48  38    68  50  40    69  51  42    68  51  44     0   0   0     0   0   0     0   0   0     0   0   0     0   0   0     0   0   0     0   0   0     0   0   0     0   0   0     0   0   0     0   0   0    36  34  35    37  33  32    37  33  32    39  35  34    41  35  35    42  34  32    44  34  33    45  35  34    45  35  34    44  34  33    44  34  33    45  35  34    46  36  35    48  38  37    49  39  38    50  40  39    51  41  40    52  42  41    51  41  40    50  40  39    50  40  39    52  42  40    52  42  40     0   0   0     0   0   0     0   0   0     0   0   0     0   0   0     0   0   0     0   0   0  
   0   0   0     0   0   0     0   0   0     0   0   0     0   0   0     0   0   0     0   0   0    37  29  27    38  28  26    40  31  26    45  34  28    49  39  30    55  42  33    57  45  33    61  47  34    62  48  35    67  51  38    69  53  40    72  54  42    74  56  46    74  56  46    74  56  46     0   0   0     0   0   0     0   0   0     0   0   0     0   0   0     0   0   0     0   0   0     0   0   0     0   0   0     0   0   0    40  36  37    39  35  36    38  34  35    37  33  34    38  34  35    40  34  36    42  33  34    43  34  35    44  35  36    43  34  35    42  33  34    42  33  34    43  34  35    44  35  36    45  36  37    46  37  38    46  37  38    46  37  38    47  38  39    47  38  39    47  38  39    47  39  37    49  41  38    51  41  39     0   0   0     0   0   0     0   0   0     0   0   0     0   0   0     0   0   0     0   0   0  
   0   0   0     0   0   0     0   0   0     0   0   0     0   0   0     0   0   0     0   0   0    37  29  27    39  29  27    41  31  26    44  33  27    48  38  29    55  42  31    57  46  33    62  48  35    66  50  37    69  53  40    73  55  42    75  56  44    77  57  45    78  57  45    77  58  46    68  56  41     0   0   0     0   0   0     0   0   0     0   0   0     0   0   0     0   0   0     0   0   0    44  35  36    43  36  37    43  36  38    41  36  37    38  34  35    37  33  34    36  32  32    36  32  33    39  33  33    41  33  34    42  33  35    41  33  34    40  32  34    40  32  34    41  33  35    42  34  35    42  34  35    42  34  35    42  33  35    42  33  35    42  34  35    42  34  35    44  35  37    45  37  37    47  39  37     0   0   0     0   0   0     0   0   0     0   0   0     0   0   0     0   0   0     0   0   0     0   0   0  
   0   0   0     0   0   0     0   0   0     0   0   0     0   0   0     0   0   0     0   0   0     0   0   0    42  32  30    42  33  28    45  34  28    49  39  30    56  44  32    60  47  36    69  54  40    72  55  41    74  57  42    76  57  43    77  57  43    79  57  44    81  59  46    80  61  47    71  57  41    72  59  43     0   0   0     0   0   0     0   0   0     0   0   0     0   0   0    54  44  42    50  39  40    49  40  41    48  39  41    45  37  40    41  35  36    39  33  34    35  31  30    34  30  29    38  32  34    38  32  34    38  32  34    38  32  34    38  32  34    38  32  34    38  32  34    38  32  34    38  32  34    37  31  33    35  29  31    35  29  31    36  30  32    38  32  34    40  34  36    41  35  36    42  35  34     0   0   0     0   0   0     0   0   0     0   0   0     0   0   0     0   0   0     0   0   0     0   0   0  
   0   0   0     0   0   0     0   0   0     0   0   0     0   0   0     0   0   0     0   0   0     0   0   0     0   0   0    42  33  28    45  34  28    49  39  30    56  44  32    61  47  36    68  52  37    71  52  38    72  55  40    75  56  41    77  55  41    80  57  43    82  59  45    82  61  47    76  59  43    76  60  45     0   0   0     0   0   0     0   0   0     0   0   0    59  44  40    58  45  43    56  43  43    54  43  43    52  42  42    49  40  42    45  39  37    42  37  35    38  34  32    37  33  32    40  36  37    40  35  38    40  34  38    39  33  37    38  33  36    37  32  35    36  31  34    36  31  34    35  30  33    34  28  32    32  27  30    32  26  30    32  26  30    32  27  31    34  28  32    35  29  31    36  30  30     0   0   0     0   0   0     0   0   0     0   0   0     0   0   0     0   0   0     0   0   0     0   0   0  
   0   0   0     0   0   0     0   0   0     0   0   0     0   0   0     0   0   0     0   0   0     0   0   0     0   0   0    42  33  28    45  34  28    51  38  29    56  44  32    63  47  34    65  49  34    68  50  36    71  52  37    75  53  39    77  54  40    79  56  42    81  58  44    82  60  46    79  63  47    79  63  48    79  63  49     0   0   0    70  54  44    66  49  42    64  47  43    62  48  45    62  47  47    60  47  47    57  46  45    54  44  44    50  43  41    46  41  38    42  39  34    41  37  34    43  39  40    42  37  41    41  36  40    40  35  39    39  34  38    38  33  37    37  32  36    37  32  36    34  29  33    33  28  32    32  27  31    31  26  30    30  25  29    30  25  29    30  25  29    30  26  27     0   0   0     0   0   0     0   0   0     0   0   0     0   0   0     0   0   0     0   0   0     0   0   0     0   0   0  
   0   0   0     0   0   0     0   0   0     0   0   0     0   0   0     0   0   0     0   0   0     0   0   0     0   0   0     0   0   0    44  33  27    51  38  29    56  44  32    63  47  34    65  49  34    68  51  35    72  53  36    76  55  38    78  55  39    80  57  41    84  58  43    84  61  47    82  63  48    81  63  49    81  63  51    78  60  50    75  57  47    72  53  47    70  51  47    68  50  48    68  50  50    66  50  50    61  50  48    58  48  46    55  48  44    50  45  41    47  45  37    43  43  38    42  40  41    41  39  42    40  38  41    39  37  40    38  36  39    37  35  38    36  34  37    35  33  36    33  31  34    33  31  34    32  30  33    30  28  31    29  27  30    28  26  29    28  26  29    29  25  26     0   0   0     0   0   0     0   0   0     0   0   0     0   0   0     0   0   0     0   0   0     0   0   0     0   0   0  
   0   0   0     0   0   0     0   0   0     0   0   0     0   0   0     0   0   0     0   0   0     0   0   0     0   0   0     0   0   0    43  34  27    50  37  28    56  44  32    63  47  34    67  51  35    71  52  37    74  55  38    78  57  40    80  57  40    83  57  42    85  59  44    86  62  48    83  64  49    80  63  49    80  62  50    79  60  51    78  58  51    77  56  51    74  55  51    73  54  50    73  55  53    70  54  53    68  54  53    64  54  51    61  54  48    57  52  45    52  52  43    51  50  45    47  45  46    47  45  48    44  42  46    42  40  44    41  38  42    38  36  40    36  34  38    35  34  37    34  32  36    34  32  36    33  31  35    32  30  34    31  29  33    29  27  31    28  26  30     0   0   0     0   0   0     0   0   0     0   0   0     0   0   0     0   0   0     0   0   0     0   0   0     0   0   0     0   0   0  
   0   0   0     0   0   0     0   0   0     0   0   0     0   0   0     0   0   0     0   0   0     0   0   0     0   0   0     0   0   0     0   0   0    50  37  29    56  44  33    62  47  35    66  50  35    69  51  37    72  53  37    76  54  39    78  55  40    80  55  41    83  57  43    84  59  46    82  62  49    80  62  50    80  61  52    80  60  53    80  61  54    79  59  55    77  57  54    75  57  53    77  59  56    75  60  56    74  60  56    71  59  54    68  60  51    64  59  49    61  58  48    59  56  51    57  53  53    55  51  56    52  48  53    48  44  50    44  41  45    41  37  43    38  34  39    36  33  38    34  32  36    34  32  37    34  32  36    33  31  36    32  30  34    31  29  34    29  27  31     0   0   0     0   0   0     0   0   0     0   0   0     0   0   0     0   0   0     0   0   0     0   0   0     0   0   0     0   0   0  
   0   0   0     0   0   0     0   0   0     0   0   0     0   0   0     0   0   0     0   0   0     0   0   0     0   0   0     0   0   0     0   0   0     0   0   0    52  38  33    58  43  38    62  44  38    65  46  40    68  49  40    71  51  42    72  51  41    76  52  43    78  55  43    77  56  46    77  60  51    76  61  54    77  60  56    77  61  57    77  62  58    77  62  57    76  61  56    75  61  56    76  62  57    76  61  55    75  60  54    75  60  53    74  62  53    74  62  53    73  61  52    71  59  53    65  55  55    63  54  58    60  51  55    57  48  54    52  44  48    48  40  45    42  36  39    40  35  39    40  37  38    37  33  38    33  31  33    31  30  33    30  29  30    30  30  32    30  29  30     0   0   0     0   0   0     0   0   0     0   0   0     0   0   0     0   0   0     0   0   0     0   0   0     0   0   0     0   0   0  
   0   0   0     0   0   0     0   0   0     0   0   0     0   0   0     0   0   0     0   0   0     0   0   0     0   0   0     0   0   0     0   0   0     0   0   0    49  35  35    56  40  41    57  41  41    62  44  44    65  47  43    68  49  45    69  50  43    72  52  45    73  55  45    75  56  49    74  56  52    73  57  57    74  60  57    75  61  58    75  64  60    76  65  60    76  65  59    76  65  59    78  65  57    78  64  57    78  64  55    79  64  56    81  64  57    82  64  57    80  63  53    79  61  55    72  59  58    69  57  59    66  54  56    62  50  54    57  46  50    54  43  47    50  42  44    47  41  44    43  39  40    40  36  37    34  32  33    32  30  31    31  31  31    32  32  32     0   0   0     0   0   0     0   0   0     0   0   0     0   0   0     0   0   0     0   0   0     0   0   0     0   0   0     0   0   0     0   0   0  
   0   0   0     0   0   0     0   0   0     0   0   0     0   0   0     0   0   0     0   0   0     0   0   0     0   0   0     0   0   0     0   0   0     0   0   0     0   0   0    52  37  38    54  39  39    59  42  42    62  45  41    64  47  43    67  50  42    70  51  44    71  54  44    73  56  48    72  54  49    73  55  53    73  58  53    75  60  55    76  63  57    78  65  59    77  66  60    77  66  60    77  67  58    79  66  58    80  65  58    82  67  60    85  68  61    85  66  60    83  64  57    80  62  58    78  64  63    73  61  63    68  58  59    65  55  55    60  50  52    58  49  50    55  49  51    55  49  51    45  41  42    42  38  40    37  35  38    35  33  36    34  34  36    35  35  37     0   0   0     0   0   0     0   0   0     0   0   0     0   0   0     0   0   0     0   0   0     0   0   0     0   0   0     0   0   0     0   0   0  
   0   0   0     0   0   0     0   0   0     0   0   0     0   0   0     0   0   0     0   0   0     0   0   0     0   0   0     0   0   0     0   0   0     0   0   0     0   0   0    47  34  34    51  38  36    53  39  38    57  44  38    61  47  41    63  50  40    67  51  43    68  54  43    71  55  46    71  54  47    72  54  49    72  57  50    74  59  53    75  62  55    75  63  56    74  64  57    75  64  57    76  65  57    76  66  58    80  66  59    83  68  64    84  69  65    86  67  64    82  65  61    80  62  61    79  66  65    76  65  64    74  64  63    71  62  62    68  59  59    64  55  56    61  55  56    59  53  55    50  46  48    48  43  47    42  40  43    40  38  42    39  39  42    39  38  43    38  37  43     0   0   0     0   0   0     0   0   0     0   0   0     0   0   0     0   0   0     0   0   0     0   0   0     0   0   0     0   0   0  
   0   0   0     0   0   0     0   0   0     0   0   0     0   0   0     0   0   0     0   0   0     0   0   0     0   0   0     0   0   0     0   0   0     0   0   0     0   0   0    43  32  31    47  36  34    49  39  37    53  43  37    58  46  40    61  50  40    65  51  42    67  55  43    71  57  46    73  56  47    74  56  48    75  58  49    76  60  52    75  62  53    76  63  55    74  64  55    74  64  55    78  67  61    78  67  62    82  68  64    84  70  68    86  71  69    87  70  70    85  68  67    82  66  66    78  67  65    78  68  66    77  69  66    76  68  65    73  65  63    69  60  61    63  57  58    60  54  56    56  51  55    54  49  54    48  46  50    46  44  50    44  43  49    43  42  49    42  41  48    40  39  46     0   0   0     0   0   0     0   0   0     0   0   0     0   0   0     0   0   0     0   0   0     0   0   0     0   0   0  
   0   0   0     0   0   0     0   0   0     0   0   0     0   0   0     0   0   0     0   0   0     0   0   0     0   0   0     0   0   0     0   0   0     0   0   0     0   0   0    40  31  29    44  35  33    48  38  36    52  43  36    57  46  40    60  50  40    63  52  43    68  55  44    71  57  46    74  57  45    76  57  46    77  59  48    78  61  52    78  64  54    79  65  56    78  66  58    79  67  58    80  69  63    80  69  65    81  69  66    83  69  69    85  71  72    87  71  73    85  69  73    84  68  71    78  68  65    78  70  65    76  70  66    75  69  65    72  66  63    67  60  61    61  57  56    59  55  56    57  52  56    55  50  57    51  49  54    50  47  54    49  47  55    48  46  56    46  44  54    44  43  51    44  44  49     0   0   0     0   0   0     0   0   0     0   0   0     0   0   0     0   0   0     0   0   0     0   0   0  
   0   0   0     0   0   0     0   0   0     0   0   0     0   0   0     0   0   0     0   0   0     0   0   0     0   0   0     0   0   0     0   0   0     0   0   0     0   0   0    37  32  29    42  37  33    47  39  36    52  43  36    56  47  40    60  50  40    65  52  43    68  56  44    72  58  45    75  57  43    78  59  45    80  61  47    82  64  52    83  67  57    84  69  60    84  70  62    84  72  65    79  68  64    78  67  65    78  66  66    79  67  69    81  69  73    84  69  76    84  69  76    83  68  73    79  71  68    76  71  65    74  69  65    71  66  62    68  63  60    65  59  59    61  57  56    60  55  59    56  51  55    55  50  56    52  49  56    52  49  58    53  50  60    53  49  61    50  49  59    49  47  57    46  45  53    46  45  51     0   0   0     0   0   0     0   0   0     0   0   0     0   0   0     0   0   0     0   0   0  
   0   0   0     0   0   0     0   0   0     0   0   0     0   0   0     0   0   0     0   0   0     0   0   0     0   0   0     0   0   0     0   0   0     0   0   0     0   0   0    33  28  25    43  38  34    48  39  37    54  44  38    57  48  41    61  51  41    65  52  43    67  55  43    72  56  43    80  61  47    84  62  49    85  66  52    87  69  57    88  71  61    86  72  63    83  70  62    83  70  64    78  67  63    78  67  65    77  67  68    78  66  70    78  65  72    78  65  74    78  65  74    78  65  72    74  69  66    72  69  62    70  67  62    68  65  60    66  62  59    64  60  59    63  59  58    62  57  61    58  55  59    58  56  61    58  55  62    58  55  64    57  54  65    56  53  64    55  51  65    54  51  62    50  49  57    49  48  54    48  49  54     0   0   0     0   0   0     0   0   0     0   0   0     0   0   0     0   0   0  
   0   0   0     0   0   0     0   0   0     0   0   0     0   0   0     0   0   0     0   0   0     0   0   0     0   0   0     0   0   0     0   0   0     0   0   0    33  29  26    33  29  26    39  34  30    44  36  33    50  41  34    57  45  39    62  49  40    67  51  43    71  54  44    75  55  44    83  60  48    86  62  50    88  66  53    89  69  58    89  71  61    88  70  63    84  69  62    82  68  65    78  67  65    78  66  66    77  67  68    76  65  71    76  64  70    75  63  72    75  62  72    74  63  70    72  67  65    69  67  62    68  65  60    67  64  61    66  63  60    67  63  63    66  63  64    67  63  67    65  63  68    65  63  68    65  62  69    64  61  70    63  60  69    62  59  70    60  57  68    60  57  68    56  55  63    55  54  61    53  54  60    53  53  59     0   0   0     0   0   0     0   0   0     0   0   0     0   0   0  
   0   0   0     0   0   0     0   0   0     0   0   0     0   0   0     0   0   0     0   0   0     0   0   0     0   0   0     0   0   0     0   0   0     0   0   0    34  30  27    35  31  28    37  32  28    42  34  31    50  40  33    58  44  38    64  47  39    70  49  43    75  52  44    79  54  45    85  60  49    87  62  51    88  65  54    90  68  59    89  70  60    87  70  62    83  68  61    81  67  64    78  67  65    77  67  67    76  66  67    76  65  71    75  64  70    74  63  71    74  62  72    72  62  70    68  64  64    65  64  61    64  63  60    63  62  61    64  62  62    66  64  66    68  66  68    70  68  71    70  68  73    70  68  73    70  67  74    70  67  75    69  66  75    68  65  75    67  64  74    67  64  74    62  61  69    60  60  68    58  58  66    56  56  64    55  55  63     0   0   0     0   0   0     0   0   0     0   0   0  
   0   0   0     0   0   0     0   0   0     0   0   0     0   0   0     0   0   0     0   0   0     0   0   0     0   0   0     0   0   0     0   0   0     0   0   0    35  30  28    35  32  29    38  33  29    45  35  33    53  40  34    60  43  39    67  45  39    72  46  41    77  49  42    80  50  45    85  57  48    86  60  51    87  63  53    88  65  57    86  66  57    84  67  59    80  65  58    77  63  60    73  63  61    73  63  64    73  63  65    73  63  68    73  64  69    73  63  71    73  63  72    72  64  71    67  64  65    64  64  63    63  63  62    62  61  63    63  62  64    65  64  67    68  66  69    70  68  72    70  68  73    70  69  74    72  69  75    72  69  76    73  70  77    73  70  77    72  69  77    72  69  78    66  66  74    64  64  73    60  60  70    58  58  68    56  56  64    54  54  62     0   0   0     0   0   0     0   0   0  
   0   0   0     0   0   0     0   0   0     0   0   0     0   0   0     0   0   0     0   0   0     0   0   0     0   0   0     0   0   0     0   0   0     0   0   0    36  32  29    37  32  29    42  35  32    48  37  35    56  41  36    63  42  39    68  43  38    73  44  40    78  45  40    80  47  42    84  54  46    85  56  48    86  59  52    85  60  53    82  62  55    79  62  55    75  60  55    72  58  55    68  58  56    68  58  59    68  59  60    69  60  63    70  61  66    71  61  69    71  61  69    70  63  70    67  65  68    66  66  67    64  64  66    64  64  66    65  65  67    66  66  68    69  67  72    70  68  73    72  70  75    73  71  76    74  71  78    75  72  79    76  73  80    76  73  80    76  73  80    75  74  80    70  70  79    68  68  78    64  64  74    61  61  71    59  59  67    57  57  65    56  54  63     0   0   0     0   0   0  
   0   0   0     0   0   0     0   0   0     0   0   0     0   0   0     0   0   0     0   0   0     0   0   0     0   0   0     0   0   0     0   0   0     0   0   0    37  33  30    38  33  30    42  34  31    47  36  34    56  38  34    64  40  38    69  41  37    73  42  39    77  43  39    79  45  41    81  50  45    82  53  47    82  56  49    82  57  50    79  59  52    76  57  51    70  56  51    67  54  51    65  55  53    64  55  56    64  55  56    64  56  59    64  57  62    64  57  63    64  57  64    64  58  64    62  60  65    61  60  65    62  60  65    63  62  67    64  63  68    66  64  69    67  66  71    68  67  72    73  71  76    73  71  76    74  72  77    74  72  77    74  72  77    74  72  77    72  70  75    72  70  76    71  71  79    66  69  78    64  64  74    61  61  71    59  59  67    57  57  65    56  55  63    54  53  61     0   0   0  
   0   0   0     0   0   0     0   0   0     0   0   0     0   0   0     0   0   0     0   0   0     0   0   0     0   0   0     0   0   0     0   0   0     0   0   0    38  32  29    40  31  29    41  31  29    45  34  32    52  35  34    58  38  36    63  40  37    68  41  40    72  43  41    73  45  42    77  49  46    77  50  48    77  52  50    77  54  51    75  54  53    71  54  53    66  52  50    63  52  51    62  52  52    61  53  54    61  53  55    61  53  55    60  53  58    61  54  58    61  53  60    60  53  60    57  55  60    57  55  60    57  56  60    59  57  62    60  59  63    62  60  65    64  63  68    64  63  68    69  68  73    69  68  73    70  68  73    70  67  73    70  67  73    69  66  72    68  65  70    68  64  72    69  67  76    65  64  75    63  60  72    61  58  70    58  55  67    55  53  65    53  52  60    53  49  59    51  47  57  
   0   0   0     0   0   0     0   0   0     0   0   0     0   0   0     0   0   0     0   0   0     0   0   0     0   0   0     0   0   0     0   0   0    46  33  28    42  31  28    41  30  28    44  32  32    45  33  33    48  35  34    52  36  36    55  39  38    59  41  40    62  44  41    63  45  43    68  46  47    69  47  49    68  49  51    68  50  52    66  51  53    64  51  52    61  51  51    60  50  51    58  51  52    57  52  53    57  52  53    57  52  53    59  51  56    60  52  57    61  53  58    60  54  58    59  56  59    57  55  58    56  54  57    56  54  57    57  55  58    59  57  61    62  60  65    63  61  66    64  62  67    64  62  68    67  62  69    68  63  70    68  63  70    67  62  69    67  62  69    66  60  70    65  60  72    64  59  73    63  58  72    62  57  71    59  54  68    55  50  64    53  48  61    52  46  59     0   0   0  
   0   0   0     0   0   0     0   0   0     0   0   0     0   0   0     0   0   0     0   0   0     0   0   0     0   0   0     0   0   0    49  34  27    49  34  29    44  33  29    42  31  29    42  32  31    43  31  31    44  32  32    45  33  33    48  36  34    51  37  36    53  38  35    54  39  39    60  43  44    61  44  46    59  46  48    60  47  49    58  48  49    58  48  49    55  49  50    54  49  50    53  50  51    52  50  51    52  50  52    52  50  52    53  50  53    54  51  54    56  51  55    57  51  56    58  55  60    57  55  59    56  54  58    56  54  58    57  55  59    59  57  62    60  58  63    62  59  65    63  61  67    64  61  68    65  61  68    65  61  70    64  61  69    64  60  69    63  60  68    62  58  67    58  54  65    58  54  66    57  53  65    56  52  64    54  50  62    51  47  59    49  46  57     0   0   0     0   0   0  
   0   0   0     0   0   0     0   0   0     0   0   0     0   0   0     0   0   0     0   0   0     0   0   0     0   0   0    52  33  26    48  33  26    47  32  29    42  31  27    41  30  28    39  29  28    40  30  29    40  30  29    42  30  30    43  32  30    45  34  32    47  36  32    48  37  35    51  38  38    52  39  41    51  41  42    52  42  43    50  44  44    50  46  45    48  46  47    48  48  48    49  51  50    49  51  50    49  50  52    50  51  53    51  52  54    53  53  55    55  54  57    55  54  57    58  56  61    57  55  60    57  55  60    57  55  60    58  56  61    59  56  63    60  57  64    61  58  65    63  60  67    63  60  69    63  60  69    63  60  69    62  59  68    61  58  67    60  57  66    60  57  66    54  51  62    53  50  61    51  49  60    50  47  58    47  45  56    46  43  54     0   0   0     0   0   0     0   0   0  
   0   0   0     0   0   0     0   0   0     0   0   0     0   0   0     0   0   0     0   0   0     0   0   0    53  35  25    52  33  26    48  33  26    47  32  29    42  31  27    40  29  27    37  27  26    36  28  26    37  29  27    39  30  29    41  31  29    44  34  32    45  35  33    46  36  34    44  36  34    44  36  37    43  37  37    44  39  39    44  43  41    44  44  42    45  47  46    45  47  46    46  50  49    47  51  50    47  51  52    49  53  54    50  54  55    54  55  57    56  57  59    57  58  60    56  55  60    57  54  61    57  54  61    58  55  62    58  55  62    59  56  63    59  56  63    59  57  66    62  59  67    62  59  68    62  59  68    61  58  69    61  58  69    59  57  68    59  56  67    57  54  66    53  51  62    52  50  61    49  49  59    47  45  56    43  43  53     0   0   0     0   0   0     0   0   0     0   0   0  
   0   0   0     0   0   0     0   0   0     0   0   0     0   0   0     0   0   0     0   0   0    57  37  30    54  35  28    52  34  28    49  34  29    47  33  30    43  32  28    40  30  28    35  27  24    34  27  25    35  28  25    36  29  26    38  30  27    41  31  29    41  34  31    42  35  33    39  34  31    40  34  34    40  35  35    40  37  36    40  40  39    43  43  41    44  46  45    45  48  47    46  52  51    46  52  51    46  51  52    48  51  52    49  52  54    50  53  55    51  54  56    53  54  58    53  52  58    54  51  59    55  52  60    55  52  60    55  52  60    56  53  62    55  53  62    55  53  62    56  53  63    56  53  64    56  53  64    56  53  65    56  53  65    55  53  64    54  52  63    53  51  63    50  50  60    48  49  59    45  46  56    41  42  52     0   0   0     0   0   0     0   0   0     0   0   0     0   0   0  
   0   0   0     0   0   0     0   0   0     0   0   0     0   0   0     0   0   0    58  38  32    56  36  31    53  34  29    50  32  28    47  32  28    44  31  28    40  30  26    37  29  25    35  28  25    34  29  25    34  29  25    34  29  25    34  29  25    36  30  26    36  31  27    37  32  29    39  32  31    40  32  33    39  34  36    40  36  37    41  40  40    44  43  43    46  47  46    47  48  48    48  51  52    48  50  52    47  49  51    47  48  50    47  47  51    46  46  51    46  46  50    47  45  51    51  48  55    51  48  57    52  49  58    52  49  58    52  49  58    52  49  58    51  49  59    50  48  59    49  47  58    50  48  59    50  48  60    51  49  62    51  49  62    50  49  62    50  49  61    49  49  61    45  47  56    43  46  55     0   0   0     0   0   0     0   0   0     0   0   0     0   0   0     0   0   0     0   0   0  
   0   0   0     0   0   0     0   0   0     0   0   0     0   0   0    56  36  28    55  35  31    52  33  31    50  31  29    47  31  28    44  30  27    41  30  26    38  29  24    35  28  22    32  27  21    32  27  22    32  29  24    32  29  24    33  28  25    34  29  25    35  30  27    38  31  29    40  31  32    41  31  34    41  33  35    42  35  37    42  37  39    46  43  44    49  47  49    52  51  53    50  48  51    49  47  50    48  46  50    47  45  49    47  43  49    46  42  48    47  41  48    47  41  49    48  45  52    48  46  55    48  45  54    47  44  53    47  44  53    45  42  51    43  41  52    42  40  51    43  43  53    44  43  53    44  43  55    45  45  57    46  46  58    45  46  58    44  46  58    43  45  57    37  40  49     0   0   0     0   0   0     0   0   0     0   0   0     0   0   0     0   0   0     0   0   0     0   0   0  
   0   0   0     0   0   0     0   0   0     0   0   0    57  38  31    56  37  31    56  38  34    51  35  34    48  33  30    44  30  27    41  30  26    38  29  24    35  28  22    31  26  20    32  27  21    33  28  22    33  30  25    33  28  24    33  28  25    33  28  25    35  30  27    39  30  31    41  30  34    43  31  35    42  31  35    43  32  36    44  35  38    45  39  41    49  44  48    53  48  52    52  47  51    51  46  50    50  45  51    49  43  50    49  42  49    50  41  49    51  41  49    51  41  50    49  44  51    46  43  52    46  43  52    44  41  50    43  40  49    41  38  47    38  37  45    37  35  46    38  38  48    38  38  48    39  39  49    41  41  53    41  43  55    42  44  56    42  44  56    41  44  53     0   0   0     0   0   0     0   0   0     0   0   0     0   0   0     0   0   0     0   0   0     0   0   0     0   0   0  
   0   0   0     0   0   0     0   0   0    58  41  34    55  39  32    53  36  32    49  34  31    45  31  31    39  28  26    36  26  24    35  25  23    34  27  24    32  27  21    30  27  20    31  28  21    32  29  22    34  29  25    34  29  25    33  28  25    36  28  26    37  28  29    39  30  31    43  32  36    44  32  36    44  33  39    44  33  39    44  35  40    47  38  43    49  43  47    52  46  50    53  46  53    53  46  53    52  45  52    53  43  51    53  43  52    53  41  51    53  41  51    53  41  51    49  42  50    47  42  49    44  41  48    42  39  46    41  38  45    39  36  45    36  35  43    36  35  43    35  35  43    36  36  46    36  39  48    38  41  50    39  43  52    41  45  54    42  46  55     0   0   0     0   0   0     0   0   0     0   0   0     0   0   0     0   0   0     0   0   0     0   0   0     0   0   0     0   0   0  
   0   0   0     0   0   0    58  43  40    56  39  35    51  36  32    47  33  30    38  25  24    34  23  24    31  21  20    28  20  18    29  22  18    29  25  20    30  27  20    30  28  20    29  26  19    30  27  20    33  28  23    34  29  25    36  28  26    38  29  27    40  31  32    43  33  34    45  35  39    47  36  41    45  37  42    45  38  42    44  40  43    46  41  45    49  45  49    51  47  51    53  48  54    53  48  54    53  47  55    55  46  54    55  46  55    54  44  53    53  43  52    52  43  52    49  42  50    47  42  49    44  41  48    42  39  45    40  37  44    39  36  43    37  36  42    37  36  43    38  38  45    38  39  47    40  43  50    41  45  53    41  46  54    42  46  55     0   0   0     0   0   0     0   0   0     0   0   0     0   0   0     0   0   0     0   0   0     0   0   0     0   0   0     0   0   0     0   0   0  
   0   0   0    57  43  42    55  41  40    52  38  36    47  33  31    42  30  28    36  26  26    32  24  26    28  22  22    26  21  19    27  23  18    27  25  20    27  26  18    26  26  18    28  25  18    29  26  19    32  27  21    35  28  25    38  29  27    41  30  29    44  33  34    46  35  38    43  35  38    44  37  41    43  39  43    44  40  44    43  42  44    44  44  46    47  46  51    49  49  53    52  52  56    52  52  56    53  51  58    54  51  57    54  50  57    53  47  55    52  46  53    51  45  52    49  44  50    48  43  49    44  42  47    42  40  45    42  40  45    41  39  45    40  39  45    40  40  46    40  42  47    42  45  51    44  49  54    45  50  56    44  49  55     0   0   0     0   0   0     0   0   0     0   0   0     0   0   0     0   0   0     0   0   0     0   0   0     0   0   0     0   0   0     0   0   0     0   0   0  
  54  41  43    53  40  42    52  39  39    50  37  37    44  31  31    38  28  27    35  28  30    31  27  28    27  25  24    26  24  22    26  25  20    25  25  20    25  25  17    24  24  16    29  26  18    30  27  19    33  28  22    36  28  25    38  28  26    40  28  28    43  31  33    45  33  37    38  33  35    38  37  39    39  39  41    41  40  43    41  43  45    42  45  47    44  48  51    47  51  54    51  55  58    51  55  58    52  54  60    52  54  59    52  52  58    51  49  55    49  47  53    48  44  51    47  42  48    46  41  46    43  41  45    42  40  43    42  40  43    42  40  45    42  41  46    42  43  48    41  45  49    45  48  53    48  53  57    49  54  58     0   0   0     0   0   0     0   0   0     0   0   0     0   0   0     0   0   0     0   0   0     0   0   0     0   0   0     0   0   0     0   0   0     0   0   0     0   0   0  
  53  41  43    51  39  41    51  39  39    49  37  37    44  32  32    38  28  29    28  24  25    25  23  26    24  23  21    24  23  21    25  26  20    25  26  20    25  25  17    24  24  16    32  29  20    34  30  21    35  30  24    38  28  26    38  28  26    39  27  27    43  28  31    42  31  35    36  34  35    36  37  39    38  42  43    40  44  45    41  47  47    44  49  49    45  52  54    48  55  58    50  58  60    50  58  60    52  57  61    53  56  61    51  54  59    50  51  56    48  47  53    47  44  51    44  42  45    45  40  44    42  40  43    41  39  42    41  39  42    42  40  43    42  43  47    44  45  49    44  48  51    48  52  55    52  57  61    54  59  62     0   0   0     0   0   0     0   0   0     0   0   0     0   0   0     0   0   0     0   0   0     0   0   0     0   0   0     0   0   0     0   0   0     0   0   0     0   0   0  
