P3
50 71
255
   0   0   0     0   0   0     0   0   0     0   0   0     0   0   0     0   0   0     0   0   0     0   0   0     0   0   0     0   0   0     0   0   0     0   0   0     0   0   0     0   0   0     0   0   0     0   0   0     0   0   0     0   0   0     0   0   0     0   0   0     0   0   0     0   0   0     0   0   0     0   0   0     0   0   0     0   0   0     0   0   0     0   0   0     0   0   0     0   0   0     0   0   0     0   0   0     0   0   0     0   0   0     0   0   0     0   0   0   130 130 130     0   0   0     0   0   0     0   0   0     0   0   0     0   0   0     0   0   0     0   0   0     0   0   0     0   0   0     0   0   0     0   0   0     0   0   0     0   0   0  
   0   0   0     0   0   0     0   0   0     0   0   0     0   0   0     0   0   0     0   0   0     0   0   0     0   0   0     0   0   0     0   0   0     0   0   0     0   0   0     0   0   0     0   0   0     0   0   0     0   0   0     0   0   0     0   0   0     0   0   0     0   0   0     0   0   0     0   0   0     0   0   0     0   0   0     0   0   0     0   0   0     0   0   0     0   0   0     0   0   0     0   0   0     0   0   0     0   0   0     0   0   0   126 126 126   128 128 128   129 129 129   131 131 131     0   0   0     0   0   0     0   0   0     0   0   0     0   0   0     0   0   0     0   0   0     0   0   0     0   0   0     0   0   0     0   0   0     0   0   0  
   0   0   0     0   0   0     0   0   0     0   0   0     0   0   0     0   0   0     0   0   0     0   0   0     0   0   0     0   0   0     0   0   0     0   0   0     0   0   0     0   0   0     0   0   0     0   0   0     0   0   0     0   0   0     0   0   0     0   0   0     0   0   0     0   0   0     0   0   0     0   0   0     0   0   0     0   0   0     0   0   0     0   0   0     0   0   0     0   0   0     0   0   0     0   0   0     0   0   0   127 129 126   125 127 124   127 129 126   130 131 131   132 134 134   134 135 137   136 137 139     0   0   0     0   0   0     0   0   0     0   0   0     0   0   0     0   0   0     0   0   0     0   0   0     0   0   0     0   0   0  
   0   0   0     0   0   0     0   0   0     0   0   0     0   0   0     0   0   0     0   0   0     0   0   0     0   0   0     0   0   0     0   0   0     0   0   0     0   0   0     0   0   0     0   0   0     0   0   0     0   0   0     0   0   0     0   0   0     0   0   0     0   0   0     0   0   0     0   0   0     0   0   0     0   0   0     0   0   0     0   0   0     0   0   0     0   0   0     0   0   0     0   0   0     0   0   0   127 129 128   130 132 130   129 131 128   130 132 129   133 136 133   136 137 138   137 138 140   140 141 143   142 143 145     0   0   0     0   0   0     0   0   0     0   0   0     0   0   0     0   0   0     0   0   0     0   0   0     0   0   0  
   0   0   0     0   0   0     0   0   0     0   0   0     0   0   0     0   0   0     0   0   0     0   0   0     0   0   0     0   0   0     0   0   0     0   0   0     0   0   0     0   0   0     0   0   0     0   0   0     0   0   0     0   0   0     0   0   0     0   0   0     0   0   0     0   0   0     0   0   0     0   0   0     0   0   0     0   0   0     0   0   0     0   0   0     0   0   0     0   0   0   126 128 127   120 123 122   122 124 123   128 130 128   130 132 127   133 135 133   139 141 141   142 143 145   142 143 147   146 147 151   148 149 153   145 147 150     0   0   0     0   0   0     0   0   0     0   0   0     0   0   0     0   0   0     0   0   0     0   0   0  
   0   0   0     0   0   0     0   0   0     0   0   0     0   0   0     0   0   0     0   0   0     0   0   0     0   0   0     0   0   0     0   0   0     0   0   0     0   0   0     0   0   0     0   0   0     0   0   0     0   0   0     0   0   0     0   0   0     0   0   0     0   0   0     0   0   0     0   0   0     0   0   0     0   0   0     0   0   0     0   0   0     0   0   0     0   0   0   120 122 121   121 123 122   121 123 122   117 119 117   122 124 119   126 128 123   134 136 133   144 146 144   148 149 150   147 148 151   150 152 155   150 151 155   147 148 152   146 148 148     0   0   0     0   0   0     0   0   0     0   0   0     0   0   0     0   0   0     0   0   0  
   0   0   0     0   0   0     0   0   0     0   0   0     0   0   0     0   0   0     0   0   0     0   0   0     0   0   0   164 169 172   164 168 171   163 167 169   165 166 168   163 161 164   162 160 163   163 159 160   162 158 159     0   0   0     0   0   0     0   0   0     0   0   0     0   0   0     0   0   0     0   0   0     0   0   0     0   0   0     0   0   0     0   0   0   126 128 127   123 125 124   121 123 122   117 119 118   115 117 116   119 122 119   124 126 121   134 136 134   148 150 150   150 151 153   146 147 151   149 149 154   144 146 149   142 143 146   142 143 145   142 144 144     0   0   0     0   0   0     0   0   0     0   0   0     0   0   0     0   0   0  
   0   0   0     0   0   0     0   0   0   168 170 167   168 170 167   168 170 167   168 170 170   167 171 173   165 170 173   165 169 172   164 168 171   165 166 168   165 166 168   163 161 164   162 160 161   163 159 159   162 158 157   163 159 158   164 160 159   164 160 159   165 165 165   163 165 164   164 166 165     0   0   0     0   0   0     0   0   0   139 141 140   133 135 134   126 128 127   124 126 125   117 119 118   111 112 111   116 118 117   122 124 122   126 126 124   137 137 136   151 151 152   151 151 153   143 143 147   143 144 148   136 138 141   132 136 137   134 138 138   137 140 137   136 138 133   137 138 133     0   0   0     0   0   0     0   0   0     0   0   0  
   0   0   0     0   0   0     0   0   0   169 169 169   169 169 169   169 169 169   168 169 169   167 168 171   165 166 170   165 166 170   169 169 172   165 165 167   163 163 164   164 162 163   164 163 161   163 162 160   162 161 159   163 161 158   165 160 158   164 163 159   166 166 164   165 167 166   165 167 166   163 165 164   156 158 158   149 149 149   142 142 142   133 133 133   127 127 127   124 122 123   122 120 121   119 117 118   116 114 115   117 115 116   126 124 125   137 133 134   146 142 144   155 150 154   152 150 154   150 149 154   143 147 148   136 143 143   135 143 141   134 139 136   135 137 132   141 140 136   141 141 136     0   0   0     0   0   0     0   0   0  
   0   0   0     0   0   0   168 168 168   169 169 169   169 169 169   169 169 169   169 169 170   168 169 172   166 167 171   166 167 169   171 171 173   166 166 168   164 164 164   165 164 163   165 164 162   164 163 159   163 162 158   164 163 159   165 164 160   164 165 160   165 167 164   165 167 165   164 166 165   161 163 162   155 157 156   148 148 148   141 141 141   131 131 131   127 125 126   124 122 123   123 121 122   121 119 120   118 116 117   120 118 119   125 124 124   133 129 130   145 138 141   156 148 153   159 154 159   164 163 168   160 166 166   150 160 158   148 158 154   145 153 146   142 145 139   144 140 135   140 138 133   140 143 137     0   0   0     0   0   0  
 168 170 169   168 170 169   168 170 169   167 169 168   167 169 168   167 169 168   167 169 168   168 168 170   166 166 168   167 167 169   171 171 172   167 167 167   167 167 167   167 167 167   167 167 167   166 166 164   166 166 164   166 166 164   167 167 165   167 167 165   165 167 166   164 165 165   162 164 163   159 161 160   153 155 153   147 147 147   140 140 140   130 130 130   126 124 125   124 122 123   124 122 123   123 121 122   121 119 120   122 121 122   124 122 123   129 125 126   142 135 138   156 149 153   173 168 173   198 196 202   188 195 195   174 184 182   168 178 174   162 168 164   155 157 152   150 147 142   141 139 134   138 138 135   138 138 136   135 135 133  
 168 170 169   168 170 169   168 170 169   167 169 168   167 169 168   167 169 168   167 168 168   167 167 167   166 166 166   166 166 166   170 170 170   168 168 168   170 170 170   171 171 171   170 170 170   170 170 170   170 170 168   169 170 167   168 170 167   168 170 169   166 168 167   163 165 164   160 162 161   156 158 157   150 152 151   145 145 145   139 139 139   131 131 131   127 125 126   124 122 123   125 123 124   125 123 124   123 121 122   123 122 122   123 121 122   128 124 125   139 133 135   154 148 152   186 183 187   233 232 237   212 218 218   191 201 199   178 188 183   169 175 169   164 165 160   160 157 152   151 148 145   141 141 139   137 137 135   132 132 132  
 167 171 170   166 170 169   166 170 169   165 169 168   165 169 168   165 169 168   166 167 167   169 166 167   168 165 166   167 165 166   170 168 169   170 168 169   172 172 172   174 175 175   174 176 175   173 175 174   173 174 175   172 173 175   170 171 173   170 172 171   167 169 168   163 165 164   158 160 159   153 155 154   148 150 149   144 144 144   139 139 139   133 133 133   128 127 127   125 123 124   125 123 124   125 124 125   124 122 123   122 122 122   124 123 124   128 124 125   134 128 130   147 141 145   183 180 185   238 239 243   214 220 220   189 199 197   171 181 177   161 168 164   162 163 158   167 164 159   161 157 156   151 149 151   146 144 147   138 134 138  
 167 171 170   167 170 170   166 170 169   165 169 168   165 169 168   164 168 167   166 167 166   169 166 165   168 165 163   169 165 164   171 169 170   171 170 171   176 176 176   178 180 179   178 180 179   177 178 180   174 178 179   172 177 177   168 175 175   168 172 173   167 169 167   161 163 162   155 157 156   149 151 150   144 146 145   141 141 141   138 138 138   134 134 134   129 128 128   125 123 124   126 124 125   127 125 125   126 124 125   124 124 124   127 127 127   128 126 127   128 124 126   135 129 133   164 161 165   208 209 213   193 199 199   170 179 177   154 164 160   148 155 149   154 156 150   165 162 157   166 162 160   161 159 161   157 155 158     0   0   0  
 166 172 172   166 172 172   166 172 172   164 170 170   163 169 169   163 169 169   166 168 166   171 168 165   171 167 165   172 168 167   173 172 170   175 174 172   181 181 181   183 183 185   181 182 184   178 182 185   175 180 183   172 177 180   168 173 177   166 171 174   163 166 167   158 160 159   151 153 152   145 147 146   140 142 141   138 138 138   135 135 135   132 132 132   128 126 127   125 123 124   127 125 126   129 127 128   129 127 128   127 127 127   130 130 130   131 129 129   129 125 126   133 127 131   145 142 146   165 166 170   166 172 172   152 160 159   146 153 151   145 148 145   151 150 147   163 158 154   165 161 159   166 165 167     0   0   0     0   0   0  
 167 173 173   166 172 172   166 172 172   164 170 170   163 169 169   163 169 169   165 167 166   173 170 167   173 169 168   174 170 169   176 175 173   178 177 176   185 185 185   185 186 187   181 185 186   179 184 187   175 181 184   171 179 182   167 175 178   166 171 174   161 164 165   156 158 157   148 150 149   141 143 142   137 139 138   135 135 135   133 133 133   131 131 131   127 125 126   125 123 124   128 126 127   131 129 130   132 131 131   129 130 130   132 134 133   133 131 132   133 128 130   136 131 135   136 133 138   138 138 142   149 155 155   142 150 149   143 151 147   146 150 145   151 151 147   162 157 153   163 159 157     0   0   0     0   0   0     0   0   0  
 167 173 173   165 171 171   163 169 169   161 167 167   161 167 167   161 167 167   163 165 164   168 166 164   172 168 167   173 169 168   172 170 171   177 175 177   184 184 186   180 181 184   178 182 185   174 179 182   172 177 181   169 177 180   161 171 173   159 167 169   153 157 158   154 156 155   149 151 150   141 143 142   133 135 135   130 130 130   128 128 128   128 128 128   126 125 126   126 124 125   133 131 132   135 133 134   135 134 134   132 133 133   128 130 129   128 126 127   130 126 128   131 126 130   134 131 135   140 141 145   140 144 145   146 152 151   146 153 151   143 146 144   153 152 148   179 171 169     0   0   0     0   0   0     0   0   0     0   0   0  
 166 172 172   165 171 171   164 170 170   162 168 168   161 167 167   161 167 167   163 165 166   168 165 165   172 168 167   172 170 171   172 170 171   174 174 175   180 181 183   181 184 187   182 186 189   175 180 184   171 177 180   167 175 178   157 166 168   154 162 164   153 157 157   151 153 152   145 147 146   138 140 139   132 134 133   129 129 129   127 127 127   127 127 127   124 122 123   124 122 123   131 129 130   135 133 134   136 135 135   134 135 135   131 133 132   132 132 132   133 130 132   131 128 131   132 131 135   139 140 144   141 146 147   147 154 153   148 156 152   149 152 147   166 165 161     0   0   0     0   0   0     0   0   0     0   0   0     0   0   0  
 166 170 173   166 170 173   166 170 173   164 168 171   163 167 170   162 166 169   163 164 166   167 166 169   171 169 172   171 171 173   171 171 173   173 173 175   176 177 179   179 182 185   181 185 188   174 179 182   170 175 178   166 171 174   156 163 165   154 159 162   153 156 157   148 150 149   141 143 142   136 138 137   132 134 133   129 129 129   127 127 127   127 127 127   122 120 121   123 121 122   130 128 130   136 135 136   137 136 137   135 137 136   136 138 137   139 139 139   138 135 137   135 130 134   134 131 135   138 139 143   147 151 152   151 157 157   151 156 154   146 147 145     0   0   0     0   0   0     0   0   0     0   0   0     0   0   0     0   0   0  
 165 169 172   165 169 172   166 170 173   165 169 172   164 168 171   162 166 169   164 164 168   168 167 171   171 171 173   172 173 175   171 172 174   171 172 174   173 174 176   172 175 178   174 178 181   168 173 176   165 170 173   164 169 172   158 163 166   155 161 161   153 157 156   147 148 148   139 141 140   136 138 137   134 136 135   132 132 132   129 129 129   126 126 126   123 121 122   127 124 125   134 132 133   140 138 139   138 137 137   136 138 137   139 142 142   145 147 146   142 142 142   136 134 137   134 132 137   136 137 141   143 148 148   148 154 153   150 155 152     0   0   0     0   0   0     0   0   0     0   0   0     0   0   0     0   0   0     0   0   0  
 166 167 171   166 167 171   167 168 172   167 168 172   165 166 170   164 165 169   164 165 169   168 169 174   170 171 176   172 173 177   172 173 177   169 173 176   169 173 176   167 171 174   167 171 174   163 167 168   161 165 166   160 164 165   154 158 159   153 157 158   154 156 155   145 148 147   139 141 140   137 139 138   137 139 138   136 136 136   131 131 131   126 126 126   126 124 125   133 131 132   137 135 136   142 140 141   139 138 138   135 138 137   141 145 144   148 149 149   146 143 145   141 136 140   137 134 139   134 135 139   133 137 138   136 142 141     0   0   0     0   0   0     0   0   0     0   0   0     0   0   0     0   0   0     0   0   0     0   0   0  
 165 166 170   165 166 170   166 167 171   165 166 170   164 165 169   164 165 169   163 165 169   165 168 173   166 169 174   168 171 176   168 172 175   168 172 175   167 171 174   164 168 171   164 168 171   157 162 162   154 158 159   152 156 157   145 149 150   143 147 148   148 150 149   142 144 143   138 140 139   136 138 137   137 139 138   137 137 137   134 134 134   127 127 127   129 127 128   137 135 136   137 135 136   142 140 141   140 139 139   135 138 138   140 144 143   147 149 148   145 145 145   143 141 144   138 137 141   133 134 138   132 137 137     0   0   0     0   0   0     0   0   0     0   0   0     0   0   0     0   0   0     0   0   0     0   0   0     0   0   0  
 166 165 170   165 165 170   165 164 169   164 163 168   164 163 168   164 163 168   164 165 170   163 167 172   162 167 173   163 168 174   164 169 173   164 168 173   164 167 172   162 166 169   160 164 167   153 157 158   148 152 152   146 148 147   139 141 140   136 138 137   140 142 141   137 139 138   134 136 135   133 135 134   133 135 134   136 136 136   134 134 134   128 128 128   130 129 130   137 135 136   132 130 131   139 137 138   141 140 141   136 138 138   139 143 142   144 146 145   146 143 145   147 142 146   141 138 143   133 133 137     0   0   0     0   0   0     0   0   0     0   0   0     0   0   0     0   0   0     0   0   0     0   0   0     0   0   0     0   0   0  
 166 165 170   165 164 169   164 163 168   163 162 167   163 162 167   164 163 168   164 164 170   160 164 169   159 164 168   160 165 169   161 166 170   163 166 171   163 166 170   158 162 165   156 160 161   149 153 154   144 148 148   143 145 144   135 137 136   133 135 134   133 135 134   133 135 134   132 134 133   130 131 131   130 132 131   133 133 133   134 134 134   130 130 130   130 130 130   134 134 134   126 126 126   135 135 135   142 142 142   138 139 138   139 142 141   143 143 143   143 143 145   146 144 148   142 140 145     0   0   0     0   0   0     0   0   0     0   0   0     0   0   0     0   0   0     0   0   0     0   0   0     0   0   0     0   0   0     0   0   0  
 165 164 170   165 164 170   166 163 170   166 163 170   168 163 170   168 163 170   163 161 168   159 160 165   163 164 169   165 166 170   165 166 170   163 164 168   162 163 166   158 159 161   153 154 156   148 149 150   145 147 145   143 145 144   139 141 140   135 137 136   136 138 137   129 131 130   125 127 126   125 127 126   129 132 130   131 132 134   129 130 132   127 128 130   128 129 130   132 131 135   128 127 132   123 122 127   126 126 129   134 133 134   139 137 138   140 138 141   138 136 141   137 136 143   135 135 143     0   0   0     0   0   0     0   0   0     0   0   0     0   0   0     0   0   0     0   0   0     0   0   0     0   0   0     0   0   0     0   0   0  
 164 163 169   164 163 169   165 162 169   166 162 169   167 162 169   167 162 169   164 162 168   162 162 167   163 164 168   165 166 170   165 166 170   162 163 166   159 160 162   155 156 158   150 151 153   146 148 147   143 145 144   143 145 144   140 142 141   136 138 137   135 137 137   130 132 131   126 128 127   126 128 127   130 132 132   132 133 135   131 132 134   132 133 135   132 133 136   132 133 137   126 127 131   120 122 125   122 123 126   131 128 129   136 132 133   134 132 135   129 129 134   128 129 135     0   0   0     0   0   0     0   0   0     0   0   0     0   0   0     0   0   0     0   0   0     0   0   0     0   0   0     0   0   0     0   0   0     0   0   0  
 164 163 169   164 163 169   165 162 169   166 162 169   167 162 169   167 162 169   165 163 169   165 165 170   163 164 168   164 165 169   164 165 169   160 161 165   155 156 158   151 152 155   147 148 150   143 145 144   141 143 142   141 143 142   138 141 140   135 137 136   135 137 137   130 132 131   127 129 128   127 129 128   132 134 132   133 134 136   133 135 136   135 136 138   135 135 139   134 135 139   127 128 132   122 123 127   123 123 127   129 125 129   133 127 131   130 126 132   125 123 130   122 122 130     0   0   0     0   0   0     0   0   0     0   0   0     0   0   0     0   0   0     0   0   0     0   0   0     0   0   0     0   0   0     0   0   0     0   0   0  
 164 163 169   164 163 169   165 162 169   165 162 169   167 162 169   167 162 169   166 163 170   166 166 170   162 163 167   162 163 167   164 165 169   160 161 165   154 155 157   150 151 153   146 147 149   142 144 143   139 141 140   139 141 140   136 138 137   132 134 133   134 136 134   130 132 131   127 129 128   127 129 128   131 133 132   132 133 135   133 134 135   133 134 136   135 135 139   134 135 139   129 130 134   126 127 131   127 127 132   131 127 131   133 128 132   129 127 132   124 123 128     0   0   0     0   0   0     0   0   0     0   0   0     0   0   0     0   0   0     0   0   0     0   0   0     0   0   0     0   0   0     0   0   0     0   0   0     0   0   0  
 164 163 168   164 163 168   165 163 168   165 163 168   165 163 168   165 163 168   165 163 168   164 164 168   161 161 166   161 162 166   163 164 168   161 162 165   156 157 159   151 152 155   147 148 150   141 143 142   137 139 138   135 137 136   131 133 132   127 129 128   130 132 131   127 129 128   125 127 126   125 127 125   127 129 128   129 130 132   130 131 133   133 134 136   135 135 139   133 134 138   130 131 135   128 129 133   129 129 133   130 129 132   134 129 133   129 127 132   125 123 128     0   0   0     0   0   0     0   0   0     0   0   0     0   0   0     0   0   0     0   0   0     0   0   0     0   0   0     0   0   0     0   0   0     0   0   0     0   0   0  
 165 164 169   165 164 169   165 164 169   165 164 169   166 164 169   166 164 169   164 164 168   162 163 167   160 161 165   161 162 166   162 163 167   160 161 164   157 158 160   152 153 155   146 147 149   140 142 142   136 138 137   134 136 135   129 131 130   125 127 126   126 128 127   124 126 125   122 124 123   120 122 121   122 124 123   123 124 126   126 127 129   132 133 135   135 136 140   133 134 138   129 130 134   128 129 133   128 128 133   129 128 131   133 128 132   129 127 132     0   0   0     0   0   0     0   0   0     0   0   0     0   0   0     0   0   0     0   0   0     0   0   0     0   0   0     0   0   0     0   0   0     0   0   0     0   0   0     0   0   0  
 165 166 170   165 165 170   166 165 170   166 165 170   166 165 170   167 165 170   165 164 169   162 162 166   161 162 166   161 162 166   160 161 165   158 159 163   157 158 160   151 152 154   144 145 147   139 141 139   135 137 136   133 135 134   129 131 130   125 127 126   122 124 123   120 122 121   118 120 119   116 118 117   116 118 117   117 118 120   120 121 123   129 130 132   133 134 137   131 132 136   128 129 133   129 130 134   130 130 135   130 129 132   134 129 133   132 129 134     0   0   0     0   0   0     0   0   0     0   0   0     0   0   0     0   0   0     0   0   0     0   0   0     0   0   0     0   0   0     0   0   0     0   0   0     0   0   0     0   0   0  
 165 166 170   165 165 170   166 165 170   166 165 170   166 165 170   167 165 170   165 164 169   163 164 168   163 164 168   162 163 167   159 159 164   155 157 160   155 156 158   149 150 152   143 144 146   138 139 139   135 137 135   134 136 135   130 132 131   126 128 127   120 122 121   118 120 119   116 118 117   113 115 114   112 114 113   113 114 116   116 117 119   123 124 126   129 130 133   129 130 134   129 130 134   133 134 138   135 135 140   134 132 136   135 133 136     0   0   0     0   0   0     0   0   0     0   0   0     0   0   0     0   0   0     0   0   0     0   0   0     0   0   0     0   0   0     0   0   0     0   0   0     0   0   0     0   0   0     0   0   0  
 167 168 172   167 167 172   167 166 171   166 165 170   165 164 169   165 164 169   164 164 168   162 163 167   161 162 166   159 160 164   158 159 163   157 158 161   156 157 159   153 154 156   151 152 154   140 142 141   137 139 138   137 139 138   127 128 128   127 129 128   118 120 119   116 118 117   114 116 115   113 115 114   114 116 115   116 117 119   119 120 122   125 126 128   128 129 132   131 132 136   128 129 133   126 127 131   134 134 138   143 142 145   140 138 140     0   0   0     0   0   0     0   0   0     0   0   0     0   0   0     0   0   0     0   0   0     0   0   0     0   0   0     0   0   0     0   0   0     0   0   0     0   0   0     0   0   0     0   0   0  
 167 168 172   167 168 172   168 167 172   166 165 170   166 165 170   165 164 169   164 164 169   163 164 168   161 162 166   160 161 165   159 160 164   157 158 161   156 157 159   152 153 155   148 149 151   139 141 140   136 138 137   135 137 136   126 128 127   127 129 129   122 124 123   120 122 121   119 121 120   117 119 118   117 119 118   118 119 121   118 119 121   119 120 122   121 122 125   124 126 129   126 127 131   129 130 134   137 138 142   148 149 151     0   0   0     0   0   0     0   0   0     0   0   0     0   0   0     0   0   0     0   0   0     0   0   0     0   0   0     0   0   0     0   0   0     0   0   0     0   0   0     0   0   0     0   0   0     0   0   0  
 168 169 171   168 169 170   167 168 170   166 167 169   165 166 168   165 166 168   164 165 168   163 164 168   162 163 167   161 162 166   160 161 165   158 159 162   157 158 160   150 151 153   145 146 148   138 140 139   134 136 135   131 133 132   125 127 126   127 129 129   123 125 124   122 124 123   121 123 122   119 121 120   118 120 119   118 119 121   118 119 121   117 118 120   116 117 120   119 119 124   123 124 128   128 129 133   135 136 140   144 144 147     0   0   0     0   0   0     0   0   0     0   0   0     0   0   0     0   0   0     0   0   0     0   0   0     0   0   0     0   0   0     0   0   0     0   0   0     0   0   0     0   0   0     0   0   0     0   0   0  
 168 169 171   168 169 170   167 168 170   166 167 169   165 166 168   165 166 168   165 165 168   164 165 169   163 164 168   163 164 168   161 162 166   159 160 163   158 159 161   151 152 153   144 145 147   137 139 139   133 135 134   128 130 129   123 126 125   126 128 127   119 121 120   119 121 120   119 121 120   119 121 120   119 121 120   118 119 121   118 119 121   118 119 121   116 116 120   117 118 122   121 122 126   123 124 128   125 126 130   128 128 130     0   0   0     0   0   0     0   0   0     0   0   0     0   0   0     0   0   0     0   0   0     0   0   0     0   0   0     0   0   0     0   0   0     0   0   0     0   0   0     0   0   0     0   0   0     0   0   0  
 167 168 170   167 168 170   166 167 169   165 166 168   164 165 167   164 165 167   164 165 167   164 165 169   164 165 169   164 165 169   162 163 167   159 160 164   158 159 161   153 154 156   145 146 148   137 139 139   132 134 133   126 128 127   123 125 124   123 125 124   119 121 120   119 121 120   121 123 122   121 123 122   122 124 123   122 123 125   121 122 124   118 119 121   116 116 120   116 117 121   120 121 125   120 121 125   118 119 123   117 117 120     0   0   0     0   0   0     0   0   0     0   0   0     0   0   0     0   0   0     0   0   0     0   0   0     0   0   0     0   0   0     0   0   0     0   0   0     0   0   0     0   0   0     0   0   0     0   0   0  
 166 167 169   165 166 168   165 166 168   164 165 167   163 164 166   162 163 165   162 163 166   164 165 169   164 165 169   164 165 169   163 164 168   160 161 164   158 159 161   156 156 158   145 146 148   137 139 138   132 134 133   127 129 128   126 128 127   123 125 124   123 125 124   123 125 124   124 126 125   124 126 125   125 127 126   126 127 129   123 124 126   115 116 118   115 116 119   115 116 120   118 119 123   121 122 126   119 120 124   119 119 122   119 119 121     0   0   0     0   0   0     0   0   0     0   0   0     0   0   0     0   0   0     0   0   0     0   0   0     0   0   0     0   0   0     0   0   0     0   0   0     0   0   0     0   0   0     0   0   0  
 164 165 167   164 165 167   163 164 166   162 163 165   161 162 164   159 163 164   159 162 164   164 165 169   164 165 169   164 165 169   163 164 168   159 160 164   157 158 160   157 158 160   142 144 146   134 136 135   132 134 133   131 133 132   132 134 133   126 128 128   128 130 129   127 129 128   125 127 126   124 126 125   125 127 126   126 127 129   123 124 126   116 117 119   115 116 120   112 113 117   115 115 120   121 122 126   123 124 128   123 124 126   124 124 126     0   0   0     0   0   0     0   0   0     0   0   0     0   0   0     0   0   0     0   0   0     0   0   0     0   0   0     0   0   0     0   0   0     0   0   0     0   0   0     0   0   0     0   0   0  
 163 164 166   163 164 165   162 163 165   161 162 164   160 161 163   158 162 163   159 162 165   164 165 169   164 165 170   164 165 170   163 164 169   159 160 164   157 158 161   156 157 159   141 141 144   132 134 133   132 134 133   133 135 134   135 138 137   130 132 130   130 132 131   127 129 128   124 126 125   121 123 122   121 123 122   122 123 125   121 122 124   120 121 123   117 118 121   110 110 115   110 112 115   119 120 124   124 125 129   122 123 127   123 124 126     0   0   0     0   0   0     0   0   0     0   0   0     0   0   0     0   0   0     0   0   0     0   0   0     0   0   0     0   0   0     0   0   0     0   0   0     0   0   0     0   0   0     0   0   0  
 166 167 171   165 165 170   164 165 169   161 162 166   160 161 165   159 160 164   158 159 164   161 161 169   163 163 170   163 163 171   164 164 172   163 164 169   157 158 163   150 151 153   143 143 145   136 138 137   133 135 133   134 136 133   132 135 131   130 132 131   131 133 132   122 123 125   120 121 123   120 121 123   116 117 119   117 118 120   120 122 124   119 120 122   114 115 117   111 112 114   112 113 115   118 119 121   123 125 128   124 128 131   115 123 125     0   0   0     0   0   0     0   0   0     0   0   0     0   0   0     0   0   0     0   0   0     0   0   0     0   0   0     0   0   0     0   0   0     0   0   0     0   0   0     0   0   0     0   0   0  
 165 166 170   164 165 169   163 164 168   161 162 166   160 161 165   159 160 164   160 161 167   163 163 172   161 161 171   159 159 169   159 159 167   159 159 166   155 156 161   149 150 153   143 143 145   136 138 137   133 135 133   133 135 132   131 133 131   129 131 128   126 128 127   118 119 121   117 118 120   119 120 122   116 117 119   118 119 121   121 122 124   118 119 121   112 113 115   109 110 112   111 112 114   116 117 119   118 120 122   119 126 128   126 136 138     0   0   0     0   0   0     0   0   0     0   0   0     0   0   0     0   0   0     0   0   0     0   0   0     0   0   0     0   0   0     0   0   0     0   0   0     0   0   0     0   0   0     0   0   0  
 163 164 168   163 164 168   162 163 167   161 162 166   160 161 165   159 160 164   161 161 167   165 165 174   161 161 170   155 155 163   154 154 162   155 156 163   154 155 159   149 150 153   143 144 146   137 139 137   133 135 133   132 134 131   130 131 128   128 130 129   121 122 124   115 116 118   115 116 118   117 118 120   117 118 120   119 120 122   122 123 125   118 119 121   112 113 115   111 112 114   115 116 118   120 121 123   120 123 125   124 129 133   136 143 147     0   0   0     0   0   0     0   0   0     0   0   0     0   0   0     0   0   0     0   0   0     0   0   0     0   0   0     0   0   0     0   0   0     0   0   0     0   0   0     0   0   0     0   0   0  
 162 163 167   161 162 166   161 162 166   160 161 165   160 161 165   159 160 164   160 161 167   164 164 173   161 161 169   155 155 163   154 154 162   155 155 160   154 155 159   149 150 152   143 144 146   137 139 138   132 134 133   131 133 130   128 131 127   126 128 125   122 123 123   117 118 120   117 118 120   119 120 122   119 120 122   121 122 124   123 124 126   119 120 122   116 116 118   117 118 120   124 125 127   128 129 131   127 130 131   130 135 137   133 141 144   127 135 138     0   0   0     0   0   0     0   0   0     0   0   0     0   0   0     0   0   0     0   0   0     0   0   0     0   0   0     0   0   0     0   0   0     0   0   0     0   0   0     0   0   0  
 161 162 166   160 162 165   160 161 165   159 160 164   159 160 164   159 160 164   158 159 165   160 160 168   159 159 167   156 156 164   154 155 160   155 155 160   153 154 158   148 149 151   143 144 146   137 139 139   133 135 134   130 132 131   128 130 128   127 129 128   127 128 129   123 124 126   121 122 124   122 123 125   121 122 124   122 123 125   122 123 125   121 122 124   119 120 122   121 122 124   126 127 129   128 129 130   125 128 130   128 133 136   123 130 133   119 124 128     0   0   0     0   0   0     0   0   0     0   0   0     0   0   0     0   0   0     0   0   0     0   0   0     0   0   0     0   0   0     0   0   0     0   0   0     0   0   0     0   0   0  
 161 162 166   160 162 165   160 161 165   158 159 163   158 159 163   157 158 162   156 157 161   155 156 162   156 156 164   153 154 159   150 151 156   150 152 155   150 151 155   146 147 150   143 144 146   139 140 139   134 136 135   131 133 132   128 131 128   128 130 129   131 132 134   127 128 130   124 125 127   122 123 125   122 123 125   121 122 124   120 121 123   121 122 124   120 121 123   120 121 123   119 120 122   116 117 119   112 114 116   113 118 120   111 119 122   116 121 125     0   0   0     0   0   0     0   0   0     0   0   0     0   0   0     0   0   0     0   0   0     0   0   0     0   0   0     0   0   0     0   0   0     0   0   0     0   0   0     0   0   0  
 159 163 166   159 163 165   158 162 165   156 160 163   154 158 161   154 158 161   153 156 159   153 154 159   151 152 157   145 146 150   141 142 146   142 143 147   144 145 148   143 144 146   142 143 145   139 142 140   135 137 136   132 134 133   130 132 131   130 132 131   130 131 133   127 128 130   124 125 127   121 122 124   120 121 123   118 119 121   116 117 119   118 119 121   119 120 122   117 118 120   110 111 113   105 106 108   100 103 104    98 103 105   102 107 110   107 112 115   105 110 113     0   0   0     0   0   0     0   0   0     0   0   0     0   0   0     0   0   0     0   0   0     0   0   0     0   0   0     0   0   0     0   0   0     0   0   0     0   0   0  
 160 164 167   159 163 165   158 162 165   156 160 162   154 158 161   153 157 160   152 155 158   151 152 156   147 148 152   139 140 144   133 134 138   135 136 140   139 140 142   142 143 145   142 143 145   139 142 141   136 138 137   132 134 133   131 133 132   131 133 132   128 129 131   126 127 129   122 123 125   119 120 122   119 120 122   117 118 119   113 114 116   113 114 116   116 117 119   115 116 118   107 108 110   101 102 104    98  99 101    92  95  98    94  99 102    94  99 102    91  96  99   102 106 109     0   0   0     0   0   0     0   0   0     0   0   0     0   0   0     0   0   0     0   0   0     0   0   0     0   0   0     0   0   0     0   0   0     0   0   0  
 161 164 168   158 162 165   158 162 165   156 161 163   151 155 158   147 151 154   146 149 152   147 148 151   141 142 144   132 133 135   128 129 131   127 128 130   125 126 128   129 131 131   134 137 136   134 137 135   130 133 132   132 134 133   134 135 135   131 133 132   129 130 132   125 126 128   123 124 126   121 121 123   116 117 119   114 115 117   113 114 116   110 111 113   111 112 114   114 115 117   115 116 118   111 112 114   105 106 108    99 102 105    98 102 105    91  95  98    90  93  95   103 104 106   113 113 115     0   0   0     0   0   0     0   0   0     0   0   0     0   0   0     0   0   0     0   0   0     0   0   0     0   0   0     0   0   0     0   0   0  
 161 165 168   158 162 165   158 162 165   157 161 164   152 156 159   147 151 154   146 149 152   145 146 148   139 140 142   133 134 136   131 132 134   130 131 133   128 129 131   125 127 127   128 129 129   130 132 131   128 130 129   130 132 131   132 134 133   130 132 131   128 129 131   125 127 129   124 125 127   119 120 122   114 115 117   115 116 118   118 119 121   117 118 120   113 114 116   113 114 116   115 116 118   116 117 119   114 115 117   107 110 112    99 103 106    97 101 104   103 106 109   111 112 114   114 114 116   114 114 116     0   0   0     0   0   0     0   0   0     0   0   0     0   0   0     0   0   0     0   0   0     0   0   0     0   0   0     0   0   0  
 162 166 169   159 163 165   159 163 166   157 161 165   152 156 159   148 152 155   145 149 151   143 145 145   137 139 138   134 136 135   133 135 134   130 132 131   125 127 126   120 122 121   122 124 123   125 127 126   126 128 127   130 132 131   131 133 132   129 131 130   127 128 130   127 128 130   125 126 128   118 119 121   112 113 115   117 118 120   122 123 125   117 118 120   107 108 110   103 104 106   108 109 111   113 115 116   115 116 118   113 114 116   104 105 107   105 106 108   117 117 119   118 118 120   113 112 113   117 114 115   116 112 113     0   0   0     0   0   0     0   0   0     0   0   0     0   0   0     0   0   0     0   0   0     0   0   0     0   0   0  
 162 166 169   159 163 165   159 163 166   158 162 165   153 157 160   148 152 154   146 150 150   142 144 143   136 138 137   134 136 135   134 135 134   128 130 129   122 124 123   120 122 121   122 124 123   125 127 126   129 131 130   132 134 133   132 134 133   130 132 131   129 130 132   126 127 129   123 124 126   118 119 121   115 116 118   119 120 122   123 124 126   116 117 119   105 106 108    99 100 102   105 107 109   113 114 116   116 117 119   112 113 115   106 107 109   108 109 111   116 117 119   118 118 120   115 113 114   114 112 113   119 115 116   111 107 107   107 101 101     0   0   0     0   0   0     0   0   0     0   0   0     0   0   0     0   0   0     0   0   0  
 162 167 169   159 164 167   159 164 167   157 162 166   152 157 160   148 153 155   146 150 150   142 144 142   136 138 135   136 138 135   137 139 137   131 133 132   128 130 129   126 128 127   126 128 127   128 130 129   133 135 134   136 138 137   135 136 136   132 134 133   132 133 135   124 125 127   120 121 123   120 120 123   121 122 124   122 123 125   124 125 127   121 122 124   111 112 114   108 109 111   112 113 115   117 118 121   119 120 122   113 113 116   114 114 116   113 113 115   112 111 113   117 115 118   120 117 119   115 110 112   123 117 119   120 115 116   121 115 115   121 113 113     0   0   0     0   0   0     0   0   0     0   0   0     0   0   0     0   0   0  
 162 167 170   159 164 167   159 164 167   158 163 166   153 158 161   148 153 156   145 151 150   140 143 141   136 138 135   137 139 136   137 139 139   134 136 135   136 138 137   133 135 134   129 131 130   129 131 130   135 137 136   137 139 138   135 137 136   134 136 135   132 133 135   123 124 126   119 120 122   121 122 124   124 125 127   124 125 127   123 124 126   120 121 123   114 115 117   111 112 114   113 114 116   115 116 118   115 116 118   113 113 116   118 118 120   115 115 117   109 108 111   116 114 117   124 120 122   118 114 115   119 113 115   122 116 117   125 119 119   126 118 118   124 115 116     0   0   0     0   0   0     0   0   0     0   0   0     0   0   0  
 163 168 171   160 165 168   160 165 168   158 163 166   153 158 161   149 154 157   147 150 150   141 143 141   135 137 134   134 136 133   130 132 129   128 130 127   134 136 135   133 135 134   126 128 127   126 128 127   132 134 133   135 137 136   133 136 135   134 136 135   130 131 133   123 124 126   121 122 124   122 123 125   124 125 127   125 126 128   124 125 127   119 120 122   116 117 119   112 113 115   110 111 113   109 110 112   110 111 113   113 114 116   115 115 117   113 113 115   111 111 113   115 113 114   120 116 117   121 117 118   120 114 114   123 116 116   127 118 119   129 120 121   129 120 121   139 130 129     0   0   0     0   0   0     0   0   0     0   0   0  
 163 168 171   160 165 168   160 165 168   158 163 166   153 158 161   149 154 157   147 150 151   142 144 142   134 136 133   129 131 128   121 123 120   117 119 118   125 127 126   128 130 129   123 125 124   121 123 123   129 131 130   132 135 134   130 134 133   131 135 134   127 129 128   124 125 127   123 124 126   122 123 125   122 123 127   125 126 130   128 129 133   125 126 130   123 124 128   118 119 121   113 114 116   111 112 115   114 116 116   115 116 115   108 108 108   107 107 107   113 113 113   113 111 112   112 110 111   121 117 118   130 126 127   130 126 127   130 126 127   135 131 132   139 135 136   141 136 136   146 146 148     0   0   0     0   0   0     0   0   0  
 166 167 171   165 167 170   165 166 170   161 162 166   156 157 161   152 153 157   147 148 149   139 141 140   133 133 133   125 125 126   120 120 122   117 115 118   120 119 123   128 128 133   125 125 128   125 125 128   131 133 135   131 136 136   127 133 132   129 136 134   125 129 127   122 124 124   122 123 125   123 124 128   124 125 130   125 126 131   128 129 134   128 129 134   126 126 131   120 121 125   114 116 118   112 113 114   112 114 113   112 112 112   109 107 108   109 107 108   113 111 112   112 112 112   116 116 116   127 127 127   124 124 124   130 130 132   140 141 143   138 139 143   136 137 141   144 145 150   147 152 157   147 157 165     0   0   0     0   0   0  
 167 168 172   166 167 171   165 166 170   161 162 166   155 156 160   151 152 156   146 147 151   138 139 140   128 129 130   120 120 123   121 119 122   118 116 120   121 119 124   126 125 130   127 126 131   129 131 133   134 138 139   131 137 137   128 136 134   134 140 138   127 132 128   125 127 127   126 127 129   128 129 133   127 128 133   125 125 133   126 126 133   127 127 135   126 126 132   121 122 126   116 117 119   114 115 116   114 116 114   115 116 114   114 113 111   115 114 112   117 117 115   115 115 115   116 116 116   125 125 125   123 124 126   129 131 134   138 142 145   137 141 145   134 139 143   141 146 150   146 152 158   148 158 167   150 160 169   148 159 165  
 167 168 172   167 168 172   165 166 170   160 161 165   154 155 159   149 151 154   144 145 149   137 138 140   127 127 129   118 118 120   120 118 121   119 117 120   123 121 124   125 125 127   127 127 129   133 135 136   138 140 142   134 139 139   130 138 138   137 143 143   132 135 134   130 132 131   132 133 136   134 135 140   132 133 138   126 126 134   124 124 132   126 126 134   125 126 132   122 123 128   118 119 122   115 117 118   116 117 117   120 120 118   121 120 118   122 121 119   123 122 120   118 118 118   117 117 119   122 123 125   123 124 126   128 130 133   138 142 145   138 142 145   135 139 142   140 144 147   142 148 153   149 156 165   154 161 171   152 161 168  
 168 169 173   167 168 172   165 166 170   160 161 165   154 155 159   149 149 154   144 145 148   138 139 141   130 130 132   120 120 123   119 119 121   119 117 120   127 125 128   127 126 128   127 127 129   133 134 135   139 141 142   138 143 143   135 143 142   137 144 144   139 142 142   136 138 138   137 138 140   139 140 143   135 136 141   128 129 134   124 124 132   124 124 131   124 125 130   123 124 128   121 122 124   119 120 121   119 121 120   122 122 120   124 123 121   126 125 123   127 126 125   122 122 122   119 120 121   122 124 125   123 124 126   127 129 131   136 140 143   136 140 143   132 136 139   135 139 142   137 141 146   147 151 159   154 158 167   153 160 166  
   0   0   0     0   0   0   165 166 170   160 161 165   154 155 159   149 150 154   145 146 149   140 141 143   136 137 139   127 127 129   119 119 122   118 117 119   128 126 129   132 130 133   128 128 130   131 132 134   139 141 143   143 148 148   140 148 147   138 144 144   144 148 147   141 142 142   139 140 142   139 140 143   135 136 141   129 131 136   125 126 131   121 122 127   123 124 129   124 125 129   123 124 126   121 122 123   121 123 122   122 122 122   124 124 124   127 127 127   127 127 127   125 125 125   122 123 124   124 126 128   123 124 126   125 126 128   134 135 137   132 136 138   128 132 135   128 132 135   129 133 136     0   0   0     0   0   0     0   0   0  
   0   0   0     0   0   0     0   0   0   161 162 166   155 156 160   151 152 156   146 147 150   143 144 146   139 140 142   130 131 133   121 121 123   116 115 117   123 121 124   131 129 132   130 128 131   128 128 130   135 137 138   143 147 148   143 148 148   138 144 144   144 147 147   141 143 143   140 141 143   137 138 142   132 133 137   128 129 134   124 125 130   118 119 124   122 123 127   124 125 129   124 125 127   123 124 125   123 125 124   122 123 122   124 124 124   129 129 129   128 128 128   126 126 126   125 125 127   126 127 129   126 127 129   124 125 127   130 131 133   128 131 133   123 127 130   122 125 129     0   0   0     0   0   0     0   0   0     0   0   0  
   0   0   0     0   0   0     0   0   0     0   0   0   157 158 162   152 153 157   148 150 153   142 146 149   137 138 141   128 129 131   122 122 122   114 113 113   113 111 112   122 120 121   124 122 123   121 121 121   124 127 127   131 135 136   135 139 142   133 138 141   136 140 141   138 139 142   139 140 144   136 137 141   128 129 133   123 124 128   120 121 125   116 117 121   120 121 125   124 126 129   125 126 130   125 125 129   124 125 127   125 125 126   128 128 128   130 131 133   128 129 131   127 128 130   126 127 129   127 128 130   128 129 131   125 126 127   128 129 131   126 127 129   121 122 124     0   0   0     0   0   0     0   0   0     0   0   0     0   0   0  
   0   0   0     0   0   0     0   0   0     0   0   0     0   0   0     0   0   0   149 151 155   142 146 149   131 135 137   125 126 128   123 123 123   112 111 112   104 102 103   112 110 111   116 114 115   114 114 114   115 115 115   119 121 123   124 128 131   128 132 135   131 132 134   135 136 139   140 141 145   135 136 140   125 126 130   118 119 123   116 117 121   114 115 119   119 120 124   124 124 129   125 126 130   125 126 129   125 126 128   127 127 128   132 132 132   132 133 135   129 130 132   127 128 130   127 128 130   127 128 130   131 132 134   126 127 129   127 128 130   125 126 128     0   0   0     0   0   0     0   0   0     0   0   0     0   0   0     0   0   0  
   0   0   0     0   0   0     0   0   0     0   0   0     0   0   0     0   0   0     0   0   0   140 143 148   131 135 138   125 127 129   119 119 119   112 112 111   104 103 101   104 103 101   109 108 106   116 116 116   119 119 120   120 121 124   121 124 128   125 129 134   133 134 138   133 134 138   133 134 138   132 133 137   129 130 134   122 123 125   118 120 121   120 121 123   120 120 124   124 125 129   130 131 135   133 134 138   131 132 136   130 132 134   130 131 133   129 130 132   127 128 130   125 126 128   125 126 128   129 130 132   132 133 135   127 128 130   126 127 129     0   0   0     0   0   0     0   0   0     0   0   0     0   0   0     0   0   0     0   0   0  
   0   0   0     0   0   0     0   0   0     0   0   0     0   0   0     0   0   0     0   0   0     0   0   0   134 139 142   128 132 134   125 127 126   119 119 118   114 113 111   107 106 104   112 111 109   120 120 120   125 125 126   125 126 129   126 129 133   130 134 139   133 134 138   132 133 137   131 132 136   131 132 136   128 129 131   124 124 127   120 121 123   121 122 124   122 123 125   126 127 131   133 134 138   137 138 142   137 138 142   132 133 136   128 129 131   129 130 132   131 132 134   128 129 131   125 126 128   129 129 132   132 132 134     0   0   0     0   0   0     0   0   0     0   0   0     0   0   0     0   0   0     0   0   0     0   0   0     0   0   0  
   0   0   0     0   0   0     0   0   0     0   0   0     0   0   0     0   0   0     0   0   0     0   0   0     0   0   0     0   0   0   127 128 130   122 122 121   116 115 112   106 105 101   112 111 109   124 124 125   129 129 131   128 129 133   130 131 136   134 134 142   132 133 138   130 131 136   129 130 134   128 129 131   127 128 130   126 127 129   123 125 124   122 123 124   122 123 125   126 127 129   133 134 138   138 140 144   140 141 146   133 136 140   125 130 133   127 131 134   134 137 140   131 132 134   125 126 127   129 130 132     0   0   0     0   0   0     0   0   0     0   0   0     0   0   0     0   0   0     0   0   0     0   0   0     0   0   0     0   0   0  
   0   0   0     0   0   0     0   0   0     0   0   0     0   0   0     0   0   0     0   0   0     0   0   0     0   0   0     0   0   0     0   0   0   116 118 114   109 109 105   103 102  98   112 111 107   125 125 124   129 129 130   126 127 130   126 127 132   129 130 137   131 132 137   128 129 134   127 128 132   126 127 130   126 127 129   127 129 128   125 127 126   122 124 123   122 123 124   125 127 129   132 133 137   137 138 142   138 139 144   136 140 143   126 130 133   125 129 132   135 138 141   134 135 137   127 128 131     0   0   0     0   0   0     0   0   0     0   0   0     0   0   0     0   0   0     0   0   0     0   0   0     0   0   0     0   0   0     0   0   0  
   0   0   0     0   0   0     0   0   0     0   0   0     0   0   0     0   0   0     0   0   0     0   0   0     0   0   0     0   0   0     0   0   0     0   0   0   107 108 103   105 105 100   115 114 110   127 126 125   130 128 130   125 125 129   122 122 129   124 124 133   129 129 137   128 128 135   126 127 132   125 126 128   125 126 128   127 129 128   127 129 128   125 127 126   125 126 127   128 129 131   134 135 139   137 138 144   138 138 145   139 142 146   129 133 136   125 129 132   133 137 140   134 138 141     0   0   0     0   0   0     0   0   0     0   0   0     0   0   0     0   0   0     0   0   0     0   0   0     0   0   0     0   0   0     0   0   0     0   0   0  
   0   0   0     0   0   0     0   0   0     0   0   0     0   0   0     0   0   0     0   0   0     0   0   0     0   0   0     0   0   0     0   0   0     0   0   0     0   0   0     0   0   0   121 120 115   129 128 125   131 129 130   127 126 130   123 123 130   123 123 131   126 126 134   127 127 134   127 128 132   125 126 129   124 125 127   125 127 126   127 129 128   129 131 130   130 131 132   134 134 137   139 140 144   141 142 147   140 140 148   140 142 148   132 136 139   125 129 132   132 136 139     0   0   0     0   0   0     0   0   0     0   0   0     0   0   0     0   0   0     0   0   0     0   0   0     0   0   0     0   0   0     0   0   0     0   0   0     0   0   0  
   0   0   0     0   0   0     0   0   0     0   0   0     0   0   0     0   0   0     0   0   0     0   0   0     0   0   0     0   0   0     0   0   0     0   0   0     0   0   0     0   0   0     0   0   0     0   0   0     0   0   0     0   0   0     0   0   0     0   0   0   123 123 131   126 127 134   128 129 134   126 127 132   124 125 127   123 125 124   124 126 123   128 130 128   130 131 132   135 136 140   142 143 148     0   0   0     0   0   0     0   0   0     0   0   0     0   0   0     0   0   0     0   0   0     0   0   0     0   0   0     0   0   0     0   0   0     0   0   0     0   0   0     0   0   0     0   0   0     0   0   0     0   0   0     0   0   0     0   0   0  
