P3
56 59
255
   0   0   0     0   0   0     0   0   0     0   0   0     0   0   0     0   0   0   209 207 210   214 212 215     0   0   0     0   0   0     0   0   0     0   0   0     0   0   0     0   0   0     0   0   0     0   0   0     0   0   0     0   0   0     0   0   0     0   0   0     0   0   0     0   0   0     0   0   0     0   0   0     0   0   0     0   0   0     0   0   0     0   0   0     0   0   0     0   0   0     0   0   0     0   0   0     0   0   0     0   0   0     0   0   0     0   0   0     0   0   0     0   0   0     0   0   0     0   0   0     0   0   0     0   0   0     0   0   0     0   0   0     0   0   0     0   0   0     0   0   0     0   0   0     0   0   0     0   0   0     0   0   0     0   0   0     0   0   0     0   0   0   220 218 219   197 195 196  
   0   0   0     0   0   0     0   0   0     0   0   0     0   0   0     0   0   0   212 210 213   192 190 193   180 178 181     0   0   0     0   0   0     0   0   0     0   0   0     0   0   0     0   0   0     0   0   0     0   0   0     0   0   0     0   0   0     0   0   0     0   0   0     0   0   0     0   0   0     0   0   0     0   0   0     0   0   0     0   0   0     0   0   0     0   0   0     0   0   0     0   0   0     0   0   0     0   0   0     0   0   0     0   0   0     0   0   0     0   0   0     0   0   0     0   0   0     0   0   0     0   0   0     0   0   0     0   0   0     0   0   0     0   0   0     0   0   0     0   0   0     0   0   0     0   0   0     0   0   0     0   0   0     0   0   0     0   0   0   211 209 210   208 206 207   183 181 182  
   0   0   0     0   0   0     0   0   0     0   0   0     0   0   0   209 205 209   204 202 205   192 190 193   183 183 185   188 188 190   189 189 191   192 192 194   192 193 195   194 195 197   199 200 202   193 193 195   202 197 201   205 199 203   199 194 198   196 191 195   206 201 205     0   0   0     0   0   0     0   0   0     0   0   0     0   0   0     0   0   0     0   0   0     0   0   0     0   0   0     0   0   0     0   0   0     0   0   0     0   0   0     0   0   0     0   0   0     0   0   0     0   0   0     0   0   0     0   0   0     0   0   0     0   0   0     0   0   0     0   0   0     0   0   0     0   0   0     0   0   0     0   0   0     0   0   0     0   0   0     0   0   0     0   0   0   198 196 197   207 205 206   209 208 209   202 200 201  
   0   0   0     0   0   0     0   0   0   212 209 211   215 212 214   192 191 192   171 171 172   177 176 177   180 180 181   186 186 187   181 181 182   208 208 208   215 215 216   204 204 205   222 222 222   218 218 219   212 207 209   209 204 206   197 194 195   208 205 207   231 228 232     0   0   0     0   0   0     0   0   0     0   0   0     0   0   0     0   0   0     0   0   0     0   0   0     0   0   0     0   0   0     0   0   0     0   0   0     0   0   0     0   0   0     0   0   0     0   0   0     0   0   0     0   0   0     0   0   0     0   0   0     0   0   0     0   0   0     0   0   0     0   0   0     0   0   0     0   0   0     0   0   0     0   0   0     0   0   0   208 208 208   192 191 191   191 190 192   196 195 197   217 217 219   238 238 240  
   0   0   0     0   0   0     0   0   0   180 180 180   178 178 178   178 178 178   185 185 185   204 204 204   242 242 242   218 218 218   193 193 193   231 231 231   239 239 239   201 201 201   204 204 204   205 204 204   203 200 201   203 200 200   196 194 195   212 210 211   242 240 243   239 237 240     0   0   0     0   0   0     0   0   0     0   0   0     0   0   0     0   0   0     0   0   0     0   0   0     0   0   0     0   0   0     0   0   0     0   0   0     0   0   0     0   0   0     0   0   0     0   0   0     0   0   0     0   0   0     0   0   0     0   0   0     0   0   0     0   0   0     0   0   0     0   0   0     0   0   0     0   0   0     0   0   0   203 203 203   189 189 189   186 186 186   190 191 193   185 185 188   193 194 196   203 204 206  
   0   0   0     0   0   0     0   0   0   203 203 203   200 200 200   215 215 215   225 225 225   222 222 222   225 225 225   218 218 218   199 199 199   216 216 216   216 216 216   196 196 196   206 206 206   206 204 205   213 211 212   209 205 206   199 197 200   200 198 201   213 211 214   224 222 225   219 218 223     0   0   0     0   0   0     0   0   0     0   0   0     0   0   0     0   0   0     0   0   0     0   0   0     0   0   0     0   0   0     0   0   0     0   0   0     0   0   0     0   0   0     0   0   0     0   0   0     0   0   0     0   0   0     0   0   0     0   0   0     0   0   0     0   0   0     0   0   0     0   0   0     0   0   0   206 206 206   212 212 212   196 196 196   193 193 193   196 196 196   189 189 189   192 194 195   194 196 198  
   0   0   0     0   0   0   214 214 214   224 224 224   231 231 231   239 239 239   229 229 229   205 205 205   204 204 204   198 198 198   186 186 186   195 195 195   195 195 195   184 184 184   193 193 193   196 194 195   196 194 195   195 191 192   196 194 197   198 196 199   195 193 196   202 200 203   214 214 218   219 219 223     0   0   0     0   0   0     0   0   0     0   0   0     0   0   0     0   0   0     0   0   0     0   0   0     0   0   0     0   0   0     0   0   0     0   0   0     0   0   0     0   0   0     0   0   0     0   0   0     0   0   0     0   0   0     0   0   0     0   0   0     0   0   0     0   0   0     0   0   0   196 194 195   215 215 214   214 213 213   196 196 196   187 187 187   181 181 181   175 175 175   186 187 188   187 188 190  
   0   0   0     0   0   0   216 216 216   248 248 248   253 253 253   236 236 236   205 205 205   185 185 185   188 188 188   170 170 170   163 163 163   182 182 182   191 191 191   183 183 183   184 184 184   192 191 191   203 201 202   199 195 196   202 200 203   212 210 213   207 205 208   193 191 194   186 186 188   188 188 190     0   0   0     0   0   0     0   0   0     0   0   0     0   0   0     0   0   0     0   0   0     0   0   0     0   0   0     0   0   0     0   0   0     0   0   0     0   0   0     0   0   0     0   0   0     0   0   0     0   0   0     0   0   0     0   0   0     0   0   0     0   0   0     0   0   0   199 197 198   199 197 198   187 186 184   191 190 188   187 187 187   189 189 189   179 179 179   172 172 172   182 182 182   177 177 177  
   0   0   0     0   0   0   202 202 202   233 233 233   243 243 243   213 213 213   185 185 185   192 192 192   186 186 186   189 189 189   192 192 192   188 188 188   187 187 187   192 192 192   193 193 193   196 196 196   206 204 206   202 200 202   194 192 195   199 197 200   208 206 209   198 196 199   183 183 185   185 185 187   180 181 184     0   0   0     0   0   0     0   0   0     0   0   0     0   0   0     0   0   0     0   0   0     0   0   0     0   0   0     0   0   0     0   0   0     0   0   0     0   0   0     0   0   0     0   0   0     0   0   0     0   0   0     0   0   0     0   0   0   173 171 172   184 182 183   194 192 193   194 192 193   181 180 178   182 181 179   181 181 179   188 188 186   177 177 177   174 174 174   187 187 187   177 177 177  
   0   0   0     0   0   0   187 187 187   223 223 223   250 250 250   215 215 215   180 180 180   191 191 191   200 200 200   184 184 184   183 183 183   188 188 188   192 192 192   190 190 190   186 186 186   194 194 194   196 194 197   207 205 208   193 191 194   180 178 181   189 187 190   181 179 182   167 167 169   174 174 176   191 192 194   181 182 184     0   0   0     0   0   0     0   0   0     0   0   0     0   0   0     0   0   0     0   0   0     0   0   0     0   0   0     0   0   0     0   0   0     0   0   0     0   0   0     0   0   0     0   0   0     0   0   0     0   0   0   164 162 163   148 146 147   162 161 161   187 185 186   191 189 190   187 185 184   181 180 178   179 178 176   188 187 185   180 180 180   182 182 182   194 194 194   179 179 179  
   0   0   0     0   0   0   201 201 201   221 221 221   244 244 244   232 232 232   201 201 201   187 187 187   189 189 189   192 192 192   187 187 187   205 205 205   235 235 235   219 219 219   184 184 184   180 180 180   200 198 201   201 199 202   196 195 198   189 187 190   187 185 188   189 187 190   182 182 184   174 174 175   176 176 178   181 181 183   185 185 185     0   0   0     0   0   0     0   0   0     0   0   0     0   0   0     0   0   0     0   0   0     0   0   0     0   0   0     0   0   0     0   0   0     0   0   0     0   0   0     0   0   0     0   0   0   201 199 200   210 208 209   208 206 207   198 196 197   196 194 195   203 201 202   226 225 223   208 207 205   203 201 200   212 211 209   209 207 206   192 191 189   187 187 187   198 198 198  
   0   0   0     0   0   0   204 204 204   204 204 204   216 216 216   208 208 208   192 192 192   194 194 194   197 197 197   186 186 186   172 172 172   187 187 187   213 213 213   199 199 199   182 182 182   195 195 195   206 204 207   203 201 204   197 195 198   191 189 192   188 186 189   187 185 188   184 184 185   182 181 183   187 187 188   182 181 183   188 187 187     0   0   0     0   0   0     0   0   0     0   0   0     0   0   0     0   0   0     0   0   0     0   0   0     0   0   0     0   0   0     0   0   0     0   0   0     0   0   0   242 240 241   210 209 210   201 199 200   224 222 223   234 231 232   213 211 212   198 196 197   202 200 201   218 216 214   206 205 202   204 202 200   215 213 211   219 218 216   211 210 208   205 205 205   209 209 208  
   0   0   0   209 209 209   201 201 201   193 193 193   199 199 199   196 196 196   193 193 193   204 204 204   208 208 208   187 187 187   163 163 163   166 166 166   184 184 184   183 183 183   189 189 189   216 216 216   219 217 220   201 199 202   184 182 185   182 180 183   188 186 189   192 190 193   193 191 192   194 192 193   203 201 202   192 190 191   195 193 194   201 199 200     0   0   0     0   0   0     0   0   0     0   0   0     0   0   0     0   0   0     0   0   0     0   0   0     0   0   0     0   0   0     0   0   0   212 210 211   212 210 211   213 211 212   221 219 220   228 226 227   222 220 221   207 205 206   201 199 200   206 204 205   201 197 195   197 193 190   198 194 191   207 203 200   211 210 208   208 207 205   200 199 197   196 195 193  
   0   0   0   211 211 211   200 200 200   190 190 190   195 195 195   192 192 192   186 186 186   193 193 193   199 199 199   192 192 192   182 182 182   181 181 181   191 191 191   195 195 195   199 199 199   209 209 209   208 206 209   195 193 196   188 186 189   194 192 195   202 199 203   198 196 199   191 189 190   188 186 187   185 183 184   188 186 187   200 198 197   204 203 202   196 195 192     0   0   0     0   0   0     0   0   0     0   0   0     0   0   0     0   0   0     0   0   0     0   0   0   216 214 215   218 216 217   215 213 214   213 211 212   215 213 214   234 232 233   250 249 250   240 238 239   205 203 204   192 190 191   204 202 203   211 207 204   212 208 205   214 210 207   217 213 210   219 216 213   217 214 211   209 208 206   202 201 199  
   0   0   0   220 220 220   204 204 204   192 192 192   201 201 201   202 202 202   193 193 193   194 194 194   199 199 199   204 204 204   205 205 205   202 202 202   204 204 204   211 211 211   211 211 211   204 204 204   188 186 189   193 191 194   196 194 197   192 190 193   176 174 177   160 158 161   155 153 154   159 157 157   173 171 172   190 188 189   213 212 210   219 218 216   207 206 202   203 202 198     0   0   0     0   0   0     0   0   0     0   0   0     0   0   0   207 205 206   205 203 204   219 217 218   231 229 230   228 226 227   215 213 214   205 203 204   210 208 210   226 224 225   223 221 222   204 202 203   204 202 203   222 220 221   239 235 232   231 227 224   223 219 216   218 214 211   216 212 209   213 209 206   206 205 203   201 200 198  
   0   0   0   210 210 210   198 198 198   192 191 191   209 209 209   217 217 217   211 211 211   211 211 211   204 204 204   197 197 197   194 194 194   190 190 190   188 188 188   195 195 195   201 201 201   197 197 197   196 194 197   204 202 207   204 202 205   188 186 189   169 167 170   162 160 163   169 167 168   177 175 175   200 199 197   208 207 205   232 228 227   241 237 236   224 220 217   207 203 200     0   0   0     0   0   0     0   0   0     0   0   0   202 200 201   197 195 196   192 190 191   205 203 204   215 213 214   203 201 202   192 190 192   190 187 188   188 186 187   189 187 188   195 193 194   209 207 208   234 232 233   254 253 254   252 248 245   225 221 218   199 195 192   191 188 185   193 190 187   195 191 188   193 192 190   193 192 190  
   0   0   0   194 191 189   190 188 185   188 186 184   207 204 204   213 213 212   210 210 210   213 213 213   210 210 211   197 197 198   202 202 202   199 200 199   189 190 189   193 193 192   196 196 195   193 194 193   182 182 183   191 190 192   195 195 196   190 189 191   187 186 186   195 194 194   203 201 202   202 201 201   193 192 190   188 187 185   204 200 199   217 213 212   208 204 201   194 190 188   195 190 188     0   0   0   198 195 196   190 187 189   189 186 188   188 185 187   186 184 185   195 193 194   197 195 196   182 181 182   188 187 188   170 169 170   169 168 169   189 189 190   201 201 202   198 199 199   208 208 209   228 227 228   218 217 216   196 193 192   170 167 167   164 163 162   173 173 171   180 180 178   183 184 182   187 188 186  
   0   0   0   203 195 191   202 195 192   199 193 190   206 202 200   205 203 201   202 202 202   213 213 213   208 209 211   194 195 197   202 205 204   187 190 189   172 174 171   188 190 187   196 198 194   194 196 193   187 189 186   189 190 188   191 193 191   190 191 189   189 189 187   194 194 192   197 197 195   194 194 192   185 184 182   179 178 176   185 181 180   189 185 184   187 183 182   189 185 184   195 189 189   193 187 188   195 190 193   191 186 190   189 184 188   191 186 190   192 190 193   194 192 195   189 189 191   185 185 187   186 186 188   178 178 180   176 176 178   183 184 186   185 188 189   181 183 185   179 182 183   184 185 187   182 181 183   187 185 187   182 181 183   178 178 179   182 184 184   183 186 186   181 184 183   186 189 188  
   0   0   0   236 227 222   219 211 208   209 201 199   209 205 202   204 200 199   195 195 195   199 199 199   198 199 201   191 192 195   184 187 186   186 188 187   193 195 192   210 212 209   231 231 229   234 234 232   192 194 191   188 190 188   183 185 183   192 194 192   209 209 208   204 204 203   192 191 191   194 192 193   183 181 181   183 182 182   190 186 187   190 186 186   186 181 182   191 187 187   196 191 192   189 183 185   192 187 191   193 188 192   195 192 195   197 194 197   195 193 196   191 189 192   182 182 184   177 177 179   181 181 183   181 181 183   181 182 184   184 185 187   182 183 185   178 180 182   175 179 180   177 178 181   180 180 183   184 182 185   182 182 184   185 185 188   190 191 193   185 187 189   180 185 184   188 192 191  
   0   0   0   244 235 230   220 212 209   209 204 201   210 206 204   205 201 200   195 195 195   192 192 192   178 179 181   185 185 188   176 178 178   202 203 203   228 230 227   233 235 232   248 248 246   246 246 244   208 210 209   211 212 214   199 201 200   202 203 205   222 222 222   211 211 213   190 188 190   195 193 195   183 181 182   187 185 187   194 190 191   192 187 190   190 186 187   201 196 200   203 197 199   189 183 187   189 184 188   193 188 192   195 193 196   196 194 197   192 190 193   187 185 188   183 183 185   181 181 183   178 178 180   182 182 184   184 185 187   186 187 189   188 189 191   191 192 193   186 190 191   183 184 186   181 181 183   182 180 183   182 182 184   192 192 194   197 197 199   185 186 188   177 181 180   187 191 190  
   0   0   0   231 222 217   213 206 203   213 208 205   214 210 209   209 205 204   198 198 198   191 191 194   189 190 192   191 192 194   183 184 186   216 217 219   243 243 243   237 237 237   238 238 236   231 231 231   218 218 220   234 233 238   220 220 222   201 200 205   201 201 203   188 187 192   169 167 170   172 170 175   181 179 182   183 181 186   190 188 191   194 192 197   204 199 203   221 216 222   223 218 222   206 201 205   190 188 191   192 190 193   193 191 194   191 189 192   189 187 190   190 188 191   194 194 196   199 199 201   188 188 190   188 188 190   185 186 188   188 189 191   196 197 199   201 202 204   194 196 198   186 187 189   182 182 184   182 182 184   182 183 185   190 191 193   195 196 198   184 185 187   175 179 178   185 189 188  
   0   0   0   222 214 211   195 190 187   195 190 187   195 191 190   199 197 198   209 209 211   214 214 216   199 200 203   183 184 187   189 190 192   221 222 224   237 237 237   229 229 229   217 217 215   208 207 207   195 195 198   209 208 213   205 203 209   190 189 194   186 184 190   180 179 184   175 173 178   177 175 181   183 181 187   182 180 186   188 186 191   195 193 198   201 197 203   212 207 214   214 210 216   203 199 205   196 195 197   195 193 195   191 190 192   189 187 189   189 188 190   196 194 196   205 205 206   211 211 213   201 201 202   193 193 194   186 187 188   191 191 193   197 198 199   197 198 199   192 192 194   186 187 188   193 193 196   195 195 198   192 193 195   195 196 198   199 200 202   194 195 197   189 192 191   198 199 199  
   0   0   0   213 205 202   189 184 181   192 188 186   191 188 188   204 202 203   227 227 229   240 240 242   224 225 229   180 181 185   185 186 188   201 202 204   202 202 202   202 201 202   192 191 189   190 188 189   189 188 193   186 185 191   188 185 192   189 186 193   185 182 189   181 178 185   181 178 185   181 178 185   184 181 188   182 179 186   190 187 194   196 193 200   191 188 195   193 190 197   198 195 202   196 194 199   197 197 199   194 194 194   190 190 190   188 188 188   191 191 191   197 197 197   205 205 205   209 209 209   202 202 202   190 190 190   185 185 185   192 192 192   197 197 197   195 195 195   194 194 194   197 197 197   199 200 202   204 205 207   200 201 203   197 198 200   202 203 205   204 205 207   203 205 204   209 210 209  
   0   0   0   207 201 197   191 187 184   194 190 189   197 195 196   206 204 205   219 219 221   242 242 246   228 229 233   189 190 194   186 186 190   190 189 193   187 187 188   188 186 189   182 180 181   190 186 189   185 183 188   184 182 188   185 183 189   187 184 191   184 181 188   181 178 185   182 179 186   184 181 188   186 183 190   184 181 188   186 183 190   192 189 196   194 192 198   190 187 194   190 188 195   199 198 203   194 194 196   194 194 194   191 191 191   193 193 193   199 199 199   199 199 199   201 201 201   206 206 206   200 200 200   195 195 195   192 192 192   195 195 195   200 200 200   195 195 195   194 194 194   204 204 204   205 206 208   203 206 207   198 200 201   200 202 203   209 210 212   206 207 209   203 204 203   208 208 208  
   0   0   0   204 199 196   189 185 184   190 186 185   194 192 193   197 196 198   198 199 202   218 219 223   211 212 216   192 193 197   194 193 198   191 190 195   184 182 185   185 183 186   183 179 180   187 182 186   185 183 188   188 185 192   190 187 194   188 185 192   184 181 188   182 179 186   183 180 187   186 183 190   187 184 191   188 185 192   187 184 192   192 189 196   195 192 199   187 184 191   183 182 188   195 193 198   191 191 191   193 193 193   195 195 195   196 196 196   195 195 195   195 195 195   195 195 195   191 191 191   196 196 196   197 197 197   193 193 193   193 193 193   199 199 199   195 195 195   193 193 193   200 200 200   197 198 200   195 200 200   200 201 203   211 212 214   222 223 225   214 214 216   202 202 202   203 201 202  
   0   0   0   198 193 190   188 184 183   190 186 185   194 192 193   193 193 195   184 185 189   196 197 201   197 197 202   196 197 202   208 207 212   194 193 198   181 179 182   187 184 188   187 183 184   186 181 185   184 179 184   188 183 189   192 187 193   192 187 193   186 184 189   184 182 187   185 183 188   187 185 190   186 184 189   190 188 193   188 187 191   190 189 194   193 192 197   185 184 189   181 180 185   190 189 194   187 189 188   191 193 190   203 205 202   205 207 204   199 201 199   211 213 210   213 213 211   191 191 189   194 194 192   200 200 198   197 196 194   191 190 188   194 193 191   192 191 189   187 186 184   187 187 187   193 195 196   192 196 197   194 198 199   210 211 213   223 224 226   216 216 218   202 202 202   201 200 200  
   0   0   0   192 188 185   191 188 186   193 191 192   196 196 196   196 196 198   189 190 194   199 200 204   193 194 199   200 202 207   215 214 219   195 195 200   181 179 182   195 190 194   194 190 192   190 184 188   187 181 185   191 186 191   195 190 193   196 191 197   192 189 192   188 186 190   185 183 185   184 182 186   189 187 189   191 189 193   184 184 185   183 183 187   189 190 191   188 187 191   184 184 185   186 187 188   185 188 187   188 191 188   206 208 205   213 215 212   215 217 214   240 242 238   242 242 240   204 204 202   190 190 188   201 201 199   200 199 197   193 192 190   196 195 193   196 195 193   190 188 186   185 184 185   195 198 197   190 194 195   188 192 193   204 205 207   220 221 223   218 218 220   208 206 207   209 207 208  
   0   0   0   189 185 182   194 193 191   195 193 194   196 196 197   197 197 199   193 194 198   204 205 209   195 196 201   198 199 204   211 210 215   196 195 200   185 181 185   196 191 195   197 192 196   197 191 195   206 200 203   204 198 201   202 198 199   201 196 199   199 195 196   194 189 192   185 183 184   181 179 181   197 195 196   197 195 197   184 184 184   178 178 179   184 186 185   186 188 188   182 184 183   181 183 182   187 192 188   187 192 188   199 201 198   203 205 202   213 215 212   240 242 239   237 237 235   196 196 194   192 192 190   201 201 199   198 197 195   193 192 190   196 195 193   196 195 193   192 188 187   189 187 188   183 187 186   183 189 189   189 193 194   212 213 215   234 235 237   232 231 233   216 214 215   214 210 211  
   0   0   0   187 183 180   195 194 192   194 192 193   194 194 196   195 195 197   188 189 193   195 196 201   194 195 200   191 192 197   206 206 211   203 200 206   191 186 192   193 188 193   196 190 193   205 199 203   223 217 219   213 207 208   201 197 197   196 192 192   198 194 193   197 193 193   190 189 188   184 183 182   200 200 199   205 204 203   194 194 193   183 183 181   183 185 183   186 188 186   184 186 183   183 185 183   189 194 190   191 196 192   192 196 192   190 194 191   206 208 206   229 231 228   224 224 222   194 194 192   211 211 209   210 210 207   200 199 197   194 193 191   196 193 191   193 190 189   192 188 187   197 195 196   189 193 192   187 194 194   194 198 199   218 219 221   239 240 242   234 232 235   213 211 212   206 202 203  
   0   0   0   183 182 178   193 192 190   193 193 193   195 195 195   197 197 199   185 184 189   186 186 191   195 194 199   188 187 193   207 206 212   212 209 216   196 194 199   188 186 191   191 190 195   212 209 212   226 224 225   210 206 205   190 189 187   184 183 181   192 188 187   200 196 195   197 196 194   193 192 190   200 199 197   213 212 210   209 208 206   195 194 192   191 190 188   193 192 190   193 192 190   196 195 193   191 191 189   200 202 199   196 199 195   193 196 192   214 216 213   236 236 236   233 233 233   219 219 219   229 229 229   222 222 222   207 207 207   203 203 201   207 206 204   207 206 204   213 212 210   229 229 227   222 224 223   209 213 212   199 202 201   207 209 208   223 223 223   216 215 216   200 198 199   197 193 194  
   0   0   0   188 190 185   191 193 188   199 199 197   201 201 199   196 194 195   190 187 188   187 185 186   184 182 184   183 181 186   187 186 191   192 193 197   185 188 193   176 181 185   179 187 190   193 201 203   201 205 206   193 195 194   184 185 185   187 188 188   195 193 194   191 189 190   197 193 192   214 210 209   199 194 193   220 214 214   228 220 218   212 202 201   199 189 188   204 194 193   209 196 196   202 192 191   202 198 197   194 193 191   203 200 201   205 203 204   207 205 207   235 234 237   245 245 247   215 215 218   221 222 224   212 213 216   196 200 201   194 198 197   205 210 209   213 217 216   220 226 222   234 239 235   231 231 228   215 214 212   219 218 215   219 218 216   206 204 203   215 213 214   228 226 227   216 214 215  
 193 194 190   188 190 185   190 192 187   201 202 197   210 208 206   207 203 202   195 190 190   186 181 180   178 174 174   176 174 176   171 171 173   162 166 168   156 162 163   156 166 167   163 174 175   171 183 183   187 196 194   190 198 194   189 195 192   190 196 194   197 200 198   193 194 193   193 193 191   205 202 201   193 190 189   208 203 202   212 204 204   200 192 193   196 185 185   203 192 194   205 192 192   195 184 185   197 191 191   198 194 193   211 206 207   209 205 206   200 198 201   218 216 219   228 227 232   208 207 212   196 197 201   195 196 200   189 193 194   191 197 197   201 209 206   206 214 211   210 219 214   224 229 225   220 221 216   222 218 215   231 227 223   221 217 214   203 199 198   217 212 212   231 229 230   220 218 219  
 193 193 191   187 188 186   187 189 184   198 198 193   208 205 204   205 201 200   190 185 184   176 170 170   152 148 147   143 142 141   130 130 129   116 120 119   110 119 116   117 129 125   127 141 136   134 148 143   157 171 164   173 187 179   181 195 187   183 196 188   190 199 193   189 197 192   188 194 190   194 197 194   191 193 190   200 201 199   202 200 200   194 191 192   195 189 190   202 195 199   201 195 196   193 187 188   190 185 185   197 193 192   209 205 206   204 200 201   188 186 189   197 195 199   205 204 209   196 195 200   185 186 190   189 190 194   187 191 192   192 196 197   203 209 207   209 215 213   217 226 221   236 241 237   225 225 221   230 226 223   232 228 225   215 211 209   193 189 188   201 197 196   211 209 210   202 200 201  
 196 193 192   191 190 188   189 189 186   193 190 188   197 193 192   193 188 187   180 175 173   169 163 161   138 135 132   115 114 110    94  96  91    86  93  86    83  94  84    83  97  86    91 106  95   103 120 108   119 139 125   142 162 148   156 175 164   159 178 167   168 185 174   173 188 179   175 187 179   179 188 183   183 191 187   193 198 196   196 199 198   191 194 194   189 189 191   192 191 195   193 192 194   191 190 191   187 184 185   192 190 188   198 195 196   190 188 189   179 178 180   182 181 186   189 188 193   186 185 191   183 184 189   187 188 193   185 188 191   187 191 192   197 203 201   204 210 208   217 224 220   238 243 239   226 225 222   217 213 212   209 205 204   200 196 195   190 188 186   191 189 189   196 194 195   194 192 193  
 201 197 196   201 197 196   198 194 193   195 189 189   191 185 185   187 181 181   180 175 172   172 167 164   147 144 139   112 112 104    85  88  78    81  89  76    77  90  73    67  84  65    69  88  69    81 103  83    92 115  95   112 137 117   127 150 132   132 155 137   142 163 148   150 168 156   153 170 159   160 175 166   174 186 180   184 194 190   191 200 199   190 196 196   184 188 191   182 185 188   186 187 191   190 191 194   189 189 189   191 189 190   188 186 188   183 181 184   179 178 182   181 180 185   183 182 188   185 184 190   180 181 186   186 187 192   184 188 191   186 190 193   191 197 197   193 199 197   199 205 201   214 219 215   215 214 212   201 197 196   189 185 184   192 188 187   195 193 194   195 193 194   197 195 196   201 199 200  
 198 194 193   199 195 196   198 194 195   194 189 190   191 185 185   191 182 183   185 177 175   176 171 167   153 150 143   118 118 108    87  91  77    75  84  67    72  84  64    65  82  58    64  84  57    69  92  63    77 101  75    92 118  93   104 129 106   115 139 117   127 149 129   134 152 136   137 155 141   148 164 152   168 181 174   176 187 183   186 195 194   189 195 195   185 189 192   181 184 189   183 186 191   189 190 195   189 189 192   191 189 190   185 185 185   182 182 184   183 182 187   181 180 185   177 179 184   183 184 189   179 180 185   183 184 189   180 184 187   181 185 188   186 190 191   183 187 188   183 187 186   195 197 196   195 195 193   195 194 192   189 187 188   189 187 188   193 191 192   194 192 192   192 192 194   197 197 199  
 192 188 187   193 189 191   194 188 190   192 186 188   193 185 186   192 183 184   185 178 175   178 170 167   154 149 143   123 123 111    89  92  77    71  80  58    70  83  57    69  85  57    65  85  51    65  88  55    70  94  63    82 106  76    94 118  91   109 131 107   122 144 122   129 147 128   134 150 134   146 159 146   160 172 163   168 177 171   180 187 185   186 191 192   182 185 188   180 180 185   182 182 188   185 186 191   187 187 189   190 188 189   185 185 187   183 183 185   184 183 188   179 178 184   175 176 181   180 180 186   175 175 181   177 178 184   174 177 181   175 178 181   178 182 183   177 181 182   178 182 181   189 191 190   180 180 178   195 194 193   196 194 195   188 186 187   188 187 188   189 187 188   187 187 189   191 191 193  
   0   0   0   192 189 192   194 188 192   195 189 193   195 188 190   192 183 185   187 178 178   183 175 173   160 155 149   129 127 115    89  92  75    73  80  57    73  86  57    68  85  51    61  80  43    66  87  50    69  92  57    76  98  66    90 112  81   108 127  99   119 139 112   127 143 121   135 149 130   143 155 140   153 162 151   165 171 164   184 187 184   191 191 192   181 181 184   180 178 184   184 182 188   181 180 185   185 185 187   185 185 186   185 185 187   183 183 186   181 180 185   179 178 184   177 178 184   178 178 186   172 172 180   175 175 183   178 179 184   180 181 185   177 181 183   178 182 183   181 185 184   186 188 187   188 188 188   201 199 200   201 199 200   194 192 193   192 192 192   187 187 187   182 182 184   185 185 187  
   0   0   0   192 190 193   192 189 192   194 188 192   193 187 191   191 185 187   189 180 180   186 178 176   165 160 154   136 133 123    94  96  79    74  77  56    71  83  53    67  82  46    63  80  41    68  87  47    65  87  48    71  92  56    86 107  71   105 122  90   117 135 104   126 140 115   133 146 123   142 152 134   155 161 147   170 174 165   191 192 186   198 198 195   194 194 193   199 195 197   196 193 195   181 177 182   179 179 181   179 180 182   180 181 183   180 180 185   179 180 185   179 179 185   179 179 187   180 180 188   176 176 184   177 177 185   179 180 185   181 182 187   182 184 188   184 186 189   185 187 188   186 187 188   189 189 190   200 197 200   198 198 200   192 191 193   190 190 191   183 183 185   176 176 178   177 177 179  
   0   0   0     0   0   0   185 185 187   186 183 186   187 181 185   186 180 184   186 177 180   184 175 176   170 165 161   145 141 132   103 101  86    75  78  57    72  78  50    68  79  45    65  80  41    69  85  46    59  80  40    65  86  48    79 100  61    98 115  79   111 128  95   121 136 106   129 142 116   138 148 125   150 157 140   168 172 159   190 192 182   200 199 194   205 204 199   218 214 212   213 208 208   190 186 187   177 177 177   177 178 180   179 180 184   179 180 184   179 180 185   179 180 185   181 181 189   182 182 190   182 182 190   181 181 189   180 181 186   183 184 189   187 189 192   189 190 194   187 188 190   185 185 187   184 184 186   191 189 192   186 186 188   179 179 181   178 178 180   171 171 173   163 163 165   164 164 166  
   0   0   0     0   0   0   178 179 180   179 177 179   180 176 182   182 175 180   181 173 176   181 172 173   174 166 163   151 146 140   110 108  95    78  80  60    72  76  49    70  77  44    67  77  42    66  81  42    59  80  39    62  85  43    72  96  53    90 112  72   104 124  87   116 134  99   125 141 111   133 146 119   142 152 128   156 164 145   177 181 166   187 189 178   196 198 186   211 211 203   208 208 202   188 187 183   179 179 179   179 180 182   180 181 185   180 181 185   179 180 185   179 180 185   180 180 188   182 182 190   186 186 194   183 183 191   181 182 187   184 185 190   189 190 194   189 190 194   185 185 187   182 182 184   177 177 179   177 177 179   167 167 168   160 160 162   161 161 163   155 155 157   148 149 151   151 152 154  
   0   0   0     0   0   0     0   0   0   174 174 176   175 173 178   178 171 178   176 170 174   177 168 171   170 161 160   155 148 143   119 114 102    85  83  66    75  76  52    72  77  46    66  73  39    60  74  35    59  83  39    58  85  40    65  92  47    81 105  63    96 119  79   107 129  91   119 137 104   127 143 113   136 150 123   148 159 134   165 173 154   175 181 164   178 184 169   189 193 181   191 195 183   180 182 175   179 182 180   180 182 184   182 183 187   180 182 185   179 180 185   178 178 186   179 179 187   180 180 188   185 185 194   184 184 192   183 184 190   184 185 190   186 187 191   185 185 189   180 180 182   177 177 179   168 168 171   164 163 166   152 152 154   147 147 148   149 149 151   145 145 147   139 140 142   144 145 147  
   0   0   0     0   0   0     0   0   0   170 171 174   173 171 176   174 168 175   173 167 171   172 165 167   166 156 156   156 148 146   124 118 109    89  87  72    77  79  56    73  77  49    65  71  37    56  68  30    57  81  38    52  80  36    57  85  40    70  97  54    84 111  68    97 122  81   109 131  93   117 137 101   128 144 112   136 150 121   154 166 141   164 175 153   162 173 153   166 175 158   171 180 164   170 175 164   176 181 177   177 181 182   180 181 185   179 180 185   178 178 185   177 177 186   178 178 187   179 179 189   185 185 194   184 184 193   185 184 191   185 184 190   184 183 188   181 180 185   176 175 179   173 172 176   159 158 163   153 152 157   142 142 144   140 140 142   145 145 147   140 141 143   133 134 136   138 139 141  
   0   0   0     0   0   0     0   0   0     0   0   0   170 168 173   170 167 172   167 164 167   166 161 164   157 151 152   156 151 149   125 123 117    90  89  78    78  80  60    69  75  48    59  68  34    57  69  33    55  70  37    50  69  35    51  73  36    60  84  43    76 100  56    91 114  70   100 123  78   105 125  81   122 139  97   129 144 104   141 154 118   147 160 130   149 163 136   151 166 142   156 172 150   160 173 157   170 179 172   176 180 180   177 180 184   176 178 183   176 176 185   178 178 190   179 179 190   179 179 189   184 183 190   183 182 188   182 182 185   180 180 183   178 177 180   175 174 179   173 171 177   172 169 175   160 159 164   150 146 151   138 137 140   138 136 139   140 138 141   134 134 136   132 133 133   137 137 138  
   0   0   0     0   0   0     0   0   0     0   0   0   165 166 171   167 166 171   166 164 167   165 163 166   155 153 155   155 153 154   126 126 124    90  91  83    75  79  62    65  71  45    55  65  31    58  68  34    57  67  39    55  66  39    54  70  37    62  80  42    74  96  50    88 110  61    98 121  69   104 124  71   121 138  87   128 142  94   135 148 105   141 153 116   142 157 125   143 162 133   147 169 141   153 171 151   167 177 168   174 178 177   176 180 183   174 177 184   175 175 185   178 178 190   180 180 192   178 178 188   184 183 189   183 182 187   182 182 182   180 180 180   177 177 179   174 173 178   173 170 177   171 168 175   166 161 167   152 147 151   141 136 140   140 135 139   138 136 139   134 132 135   133 133 133   137 137 137  
   0   0   0     0   0   0     0   0   0     0   0   0     0   0   0   165 164 170   166 164 169   165 163 168   157 155 160   155 153 156   128 128 126    94  95  87    74  78  61    64  70  44    56  66  32    59  69  34    58  67  35    58  67  35    57  71  34    62  80  37    72  94  44    84 108  53    98 121  64   109 128  72   121 138  84   128 142  91   136 148 102   140 152 112   140 156 120   143 160 128   145 165 137   150 168 146   164 174 162   171 176 172   174 178 179   173 176 181   175 175 185   178 178 190   180 180 192   179 179 189   184 183 189   184 183 188   183 183 183   182 182 182   179 179 181   175 174 179   171 170 176   170 167 174   167 162 168   154 149 153   141 139 142   139 137 140   138 136 139   134 132 135   133 133 133   136 136 136  
   0   0   0     0   0   0     0   0   0     0   0   0     0   0   0   164 165 171   164 163 168   164 162 167   158 156 161   152 150 153   131 131 128    99 101  92    74  78  60    62  68  41    60  69  33    63  71  33    59  66  30    59  67  28    57  72  27    63  81  31    72  92  37    82 105  46   100 122  59   115 135  73   126 144  85   134 147  92   140 153 103   145 157 113   145 159 122   145 161 127   145 165 134   149 166 144   162 172 158   169 174 170   173 177 177   173 176 180   175 176 186   179 179 191   181 181 193   179 179 189   183 183 189   183 183 188   184 184 185   183 183 185   180 179 184   175 174 180   171 170 178   168 167 174   167 166 171   157 153 157   144 142 145   139 137 140   138 136 139   135 133 136   134 134 134   135 135 135  
   0   0   0     0   0   0     0   0   0     0   0   0     0   0   0     0   0   0   164 164 171   164 163 169   161 159 165   152 150 153   135 136 132   107 109  98    74  77  58    60  64  37    61  68  32    62  69  28    63  69  25    61  68  20    60  74  21    68  84  27    74  95  32    84 106  39   100 123  54   117 139  70   131 147  82   139 152  92   147 159 104   152 163 116   150 164 122   148 163 127   146 164 131   148 163 138   161 170 154   168 173 166   172 176 174   173 177 180   174 177 185   178 180 192   181 181 193   179 179 190   182 182 190   182 183 187   183 182 186   181 181 184   179 178 183   175 174 180   172 171 179   170 169 177   170 168 173   159 157 160   147 145 148   140 138 141   138 136 139   137 135 138   135 135 135   134 134 134  
   0   0   0     0   0   0     0   0   0     0   0   0     0   0   0     0   0   0   164 164 173   164 163 170   162 160 168   151 150 154   141 141 139   116 118 107    79  81  63    64  68  39    68  73  36    67  73  29    72  77  27    68  73  19    65  77  17    73  88  25    79 100  29    87 109  36   100 123  49   116 137  63   132 149  78   142 154  91   152 163 104   158 167 117   155 168 123   152 164 126   146 162 126   146 160 132   158 167 148   164 171 161   169 175 171   170 175 177   171 175 181   175 177 189   176 178 190   174 176 188   180 180 187   180 181 186   179 180 184   178 178 182   176 176 181   174 173 179   172 171 179   170 170 178   170 169 174   160 160 162   149 148 150   140 139 142   137 137 139   137 136 139   135 135 135   133 133 133  
   0   0   0     0   0   0     0   0   0     0   0   0     0   0   0     0   0   0   162 165 174   161 161 171   161 161 169   151 150 156   147 147 146   127 127 119    89  90  72    75  78  49    82  86  49    81  85  40    82  85  31    75  79  19    72  82  17    80  94  24    84 105  29    90 113  33   101 124  43   114 135  56   135 151  76   147 158  90   157 167 106   163 172 118   162 172 125   156 167 125   148 163 124   146 159 129   155 164 143   161 169 156   166 173 166   167 173 173   169 172 179   172 174 186   172 174 186   170 172 184   179 179 189   178 178 186   177 178 183   175 176 181   175 174 180   173 172 180   172 170 181   172 171 179   171 170 175   162 162 164   150 150 152   140 140 142   137 137 139   137 137 139   135 135 135   132 132 132  
   0   0   0     0   0   0     0   0   0     0   0   0     0   0   0     0   0   0     0   0   0     0   0   0   161 161 171   155 154 160   148 148 148   138 137 130   116 117  99    95  95  69    86  87  53    92  93  49    96  97  40    94  96  31    91  98  29    90 102  28    89 108  29    93 115  33   104 126  42   117 135  54   136 150  73   140 152  80   152 160  97   161 169 112   164 170 122   159 165 123   152 162 122   149 160 128   157 167 143   158 166 151   161 168 160   166 172 170   170 175 179   172 176 187   172 174 186   170 172 184   173 176 185   174 177 184   176 177 182   175 176 181   173 174 179   171 171 179   169 169 179   168 168 178   167 166 172   164 164 169   157 157 159   145 145 147   138 138 138   136 136 136     0   0   0     0   0   0  
   0   0   0     0   0   0     0   0   0     0   0   0     0   0   0     0   0   0     0   0   0     0   0   0     0   0   0   157 156 165   152 152 155   145 144 139   129 127 113   109 109  84   102 102  69   108 107  63   110 107  51   106 106  40   101 106  36    97 108  32    94 110  30    95 113  31   101 123  38   113 132  49   138 151  72   147 157  84   159 165 101   166 171 113   170 173 123   168 173 130   161 168 128   154 163 129   154 164 138   157 167 148   162 170 158   165 171 167   167 172 176   167 171 182   168 170 183   168 171 184   171 173 185   171 174 183   174 175 182   173 174 182   172 172 180   169 169 179   166 166 178   165 165 175   163 162 168   161 160 165   153 153 155   142 142 144     0   0   0     0   0   0     0   0   0     0   0   0  
   0   0   0     0   0   0     0   0   0     0   0   0     0   0   0     0   0   0     0   0   0     0   0   0     0   0   0   158 157 168   156 155 161   153 151 148   141 139 127   126 124 102   120 117  87   124 120  78   120 114  59   117 112  49   111 113  44   105 114  40   101 114  35    99 117  35   105 125  40   115 133  49   135 148  68   151 160  87   162 168 102   166 170 111   170 172 122   176 178 134   170 173 133   158 164 130   150 160 132   153 165 143   161 169 155   163 170 164   163 168 171   163 167 178   165 169 181   167 171 184   168 170 182   169 171 182   170 173 181   170 173 181   171 171 180   168 168 179   164 164 177   162 162 174     0   0   0     0   0   0     0   0   0     0   0   0     0   0   0     0   0   0     0   0   0     0   0   0  
   0   0   0     0   0   0     0   0   0     0   0   0     0   0   0     0   0   0     0   0   0     0   0   0     0   0   0     0   0   0   159 158 165   159 155 156   150 148 138   139 136 117   132 128 101   131 126  88   126 117  65   123 115  55   116 115  49   111 117  46   105 117  40   104 120  38   108 126  42   117 133  51   131 144  65   149 157  84   161 166 100   165 166 108   170 171 120   177 178 134   173 175 135   160 165 130   145 154 124   148 160 137   156 166 150   159 168 161   160 165 168   160 164 174   163 167 179   166 169 184   163 166 179   164 167 179   166 170 178   167 170 179     0   0   0     0   0   0     0   0   0     0   0   0     0   0   0     0   0   0     0   0   0     0   0   0     0   0   0     0   0   0     0   0   0     0   0   0  
   0   0   0     0   0   0     0   0   0     0   0   0     0   0   0     0   0   0     0   0   0     0   0   0     0   0   0     0   0   0     0   0   0     0   0   0   161 156 150   153 147 131   143 137 113   138 131  94   135 123  75   132 121  65   124 120  57   117 121  52   109 120  44   104 118  39   106 124  42   115 130  49   129 142  63   145 153  80   158 163  97   166 167 109   173 173 121   179 178 132     0   0   0     0   0   0     0   0   0     0   0   0     0   0   0     0   0   0     0   0   0     0   0   0     0   0   0     0   0   0     0   0   0     0   0   0     0   0   0     0   0   0     0   0   0     0   0   0     0   0   0     0   0   0     0   0   0     0   0   0     0   0   0     0   0   0     0   0   0     0   0   0     0   0   0     0   0   0  
   0   0   0     0   0   0     0   0   0     0   0   0     0   0   0     0   0   0     0   0   0     0   0   0     0   0   0     0   0   0     0   0   0     0   0   0     0   0   0     0   0   0   149 143 121   142 133 100   142 129  85   138 127  73   130 126  65   122 125  58   111 121  48   105 119  40   106 124  42   114 129  48   130 141  63   141 148  75   155 158  92   169 168 111     0   0   0     0   0   0     0   0   0     0   0   0     0   0   0     0   0   0     0   0   0     0   0   0     0   0   0     0   0   0     0   0   0     0   0   0     0   0   0     0   0   0     0   0   0     0   0   0     0   0   0     0   0   0     0   0   0     0   0   0     0   0   0     0   0   0     0   0   0     0   0   0     0   0   0     0   0   0     0   0   0     0   0   0  
   0   0   0     0   0   0     0   0   0     0   0   0     0   0   0     0   0   0     0   0   0     0   0   0     0   0   0     0   0   0     0   0   0     0   0   0     0   0   0     0   0   0     0   0   0     0   0   0   142 131  93   138 129  80   132 127  72   124 126  61   115 124  48   110 122  40   110 125  40   115 129  45   127 139  58   136 145  70     0   0   0     0   0   0     0   0   0     0   0   0     0   0   0     0   0   0     0   0   0     0   0   0     0   0   0     0   0   0     0   0   0     0   0   0     0   0   0     0   0   0     0   0   0     0   0   0     0   0   0     0   0   0     0   0   0     0   0   0     0   0   0     0   0   0     0   0   0     0   0   0     0   0   0     0   0   0     0   0   0     0   0   0     0   0   0     0   0   0  
   0   0   0     0   0   0     0   0   0     0   0   0     0   0   0     0   0   0     0   0   0     0   0   0     0   0   0     0   0   0     0   0   0     0   0   0     0   0   0     0   0   0     0   0   0     0   0   0     0   0   0     0   0   0   133 130  78   125 127  62   117 125  47   113 124  38   112 125  35   113 126  36     0   0   0     0   0   0     0   0   0     0   0   0     0   0   0     0   0   0     0   0   0     0   0   0     0   0   0     0   0   0     0   0   0     0   0   0     0   0   0     0   0   0     0   0   0     0   0   0     0   0   0     0   0   0     0   0   0     0   0   0     0   0   0     0   0   0     0   0   0     0   0   0     0   0   0     0   0   0     0   0   0     0   0   0     0   0   0     0   0   0     0   0   0     0   0   0  
   0   0   0     0   0   0     0   0   0     0   0   0     0   0   0     0   0   0     0   0   0     0   0   0     0   0   0     0   0   0     0   0   0     0   0   0     0   0   0     0   0   0     0   0   0     0   0   0     0   0   0     0   0   0     0   0   0     0   0   0   122 129  51   117 127  41     0   0   0     0   0   0     0   0   0     0   0   0     0   0   0     0   0   0     0   0   0     0   0   0     0   0   0     0   0   0     0   0   0     0   0   0     0   0   0     0   0   0     0   0   0     0   0   0     0   0   0     0   0   0     0   0   0     0   0   0     0   0   0     0   0   0     0   0   0     0   0   0     0   0   0     0   0   0     0   0   0     0   0   0     0   0   0     0   0   0     0   0   0     0   0   0     0   0   0     0   0   0  
