P3
61 50
255
   0   0   0     0   0   0     0   0   0     0   0   0     0   0   0     0   0   0     0   0   0     0   0   0     0   0   0     0   0   0     0   0   0   140 140 138   170 170 168     0   0   0     0   0   0     0   0   0     0   0   0     0   0   0     0   0   0     0   0   0     0   0   0     0   0   0     0   0   0     0   0   0     0   0   0     0   0   0     0   0   0     0   0   0     0   0   0     0   0   0     0   0   0     0   0   0     0   0   0     0   0   0     0   0   0     0   0   0     0   0   0     0   0   0     0   0   0     0   0   0     0   0   0     0   0   0     0   0   0     0   0   0     0   0   0     0   0   0     0   0   0     0   0   0     0   0   0     0   0   0     0   0   0     0   0   0     0   0   0     0   0   0     0   0   0     0   0   0     0   0   0     0   0   0    15  15  15    15  15  15    15  15  15  
   0   0   0     0   0   0     0   0   0     0   0   0     0   0   0     0   0   0     0   0   0     0   0   0     0   0   0     0   0   0     0   0   0   156 156 154   169 169 168   164 166 165     0   0   0     0   0   0     0   0   0     0   0   0     0   0   0     0   0   0     0   0   0     0   0   0     0   0   0     0   0   0     0   0   0     0   0   0     0   0   0     0   0   0     0   0   0     0   0   0     0   0   0     0   0   0     0   0   0     0   0   0     0   0   0     0   0   0     0   0   0     0   0   0     0   0   0     0   0   0     0   0   0     0   0   0     0   0   0     0   0   0     0   0   0     0   0   0     0   0   0     0   0   0     0   0   0     0   0   0     0   0   0     0   0   0     0   0   0     0   0   0     0   0   0     0   0   0    16  18  17    12  13  13     9   9   9     6   6   6     8   8   8  
   0   0   0     0   0   0     0   0   0     0   0   0     0   0   0     0   0   0     0   0   0     0   0   0     0   0   0     0   0   0     0   0   0   149 149 147   149 150 148   158 160 159   160 162 161     0   0   0     0   0   0     0   0   0     0   0   0     0   0   0     0   0   0     0   0   0     0   0   0     0   0   0     0   0   0     0   0   0     0   0   0     0   0   0     0   0   0     0   0   0     0   0   0     0   0   0     0   0   0     0   0   0     0   0   0     0   0   0     0   0   0     0   0   0     0   0   0     0   0   0     0   0   0     0   0   0     0   0   0     0   0   0     0   0   0     0   0   0     0   0   0     0   0   0     0   0   0     0   0   0     0   0   0     0   0   0     0   0   0     0   0   0     0   0   0    15  17  16    15  17  16    15  17  16    13  13  13    10  10  10    11  11  11  
   0   0   0     0   0   0     0   0   0     0   0   0     0   0   0     0   0   0     0   0   0     0   0   0     0   0   0     0   0   0   188 188 186   182 182 180   156 156 154   141 143 142   121 123 121   100 101 101     0   0   0     0   0   0     0   0   0     0   0   0     0   0   0     0   0   0     0   0   0     0   0   0     0   0   0     0   0   0     0   0   0     0   0   0     0   0   0     0   0   0     0   0   0     0   0   0     0   0   0     0   0   0     0   0   0     0   0   0     0   0   0     0   0   0     0   0   0     0   0   0     0   0   0     0   0   0     0   0   0     0   0   0     0   0   0     0   0   0     0   0   0     0   0   0     0   0   0     0   0   0     0   0   0     0   0   0     0   0   0    10  12  11    10  12  10    10  12  11    10  12  11    10  12  11    10  10  10    11  11  11    15  15  15  
   0   0   0     0   0   0     0   0   0     0   0   0     0   0   0     0   0   0     0   0   0     0   0   0     0   0   0   202 202 199   199 199 197   185 185 183   149 149 148   127 129 128   123 125 124   122 124 123   108 110 109     0   0   0     0   0   0     0   0   0     0   0   0     0   0   0     0   0   0     0   0   0     0   0   0     0   0   0     0   0   0     0   0   0     0   0   0     0   0   0     0   0   0     0   0   0     0   0   0     0   0   0     0   0   0     0   0   0     0   0   0     0   0   0     0   0   0     0   0   0     0   0   0     0   0   0     0   0   0     0   0   0     0   0   0     0   0   0     0   0   0     0   0   0     0   0   0     0   0   0     0   0   0    22  26  25    16  20  19    11  15  14     8  12  11     7  11  10     7  11  10    10  12  11    12  12  12    14  14  14     0   0   0  
   0   0   0     0   0   0     0   0   0     0   0   0     0   0   0     0   0   0     0   0   0     0   0   0   196 195 191   189 189 186   178 178 176   160 160 158   138 139 137   132 134 133   148 150 149   145 147 146   119 121 120   131 135 134     0   0   0     0   0   0     0   0   0     0   0   0     0   0   0     0   0   0     0   0   0     0   0   0     0   0   0     0   0   0     0   0   0     0   0   0     0   0   0     0   0   0     0   0   0     0   0   0     0   0   0     0   0   0     0   0   0     0   0   0     0   0   0     0   0   0     0   0   0     0   0   0     0   0   0     0   0   0     0   0   0     0   0   0     0   0   0     0   0   0     0   0   0     0   0   0    13  17  16    12  16  15    15  18  17    16  20  19    14  18  17    10  14  13     9  13  12    11  15  13    15  16  15    14  14  14     0   0   0  
   0   0   0     0   0   0     0   0   0     0   0   0     0   0   0     0   0   0     0   0   0   185 184 180   202 201 197   183 182 180   172 172 170   133 133 131   131 131 130   168 170 169   171 173 172   141 143 142   121 124 123   126 131 130   122 131 131     0   0   0     0   0   0     0   0   0     0   0   0     0   0   0     0   0   0     0   0   0     0   0   0     0   0   0     0   0   0     0   0   0     0   0   0     0   0   0     0   0   0     0   0   0     0   0   0     0   0   0     0   0   0     0   0   0     0   0   0     0   0   0     0   0   0     0   0   0     0   0   0     0   0   0     0   0   0     0   0   0     0   0   0     0   0   0    23  27  26    17  21  20    13  17  16     7  10  10    15  19  18    21  25  24    19  23  22    14  18  17    11  15  14    12  13  13    12  12  12    13  13  13     0   0   0  
   0   0   0     0   0   0     0   0   0     0   0   0     0   0   0     0   0   0   157 156 152   209 208 204   189 188 184   176 175 173   172 172 170   123 123 121   130 130 129   201 203 202   174 176 175   130 132 131   138 140 139   130 135 134   125 134 134     0   0   0     0   0   0     0   0   0     0   0   0     0   0   0     0   0   0     0   0   0     0   0   0     0   0   0     0   0   0     0   0   0     0   0   0     0   0   0     0   0   0     0   0   0     0   0   0     0   0   0     0   0   0     0   0   0     0   0   0     0   0   0     0   0   0     0   0   0     0   0   0     0   0   0     0   0   0     0   0   0     0   0   0    10  14  13     9  13  12     5   9   8     6  10   9    12  16  15    21  25  24    27  31  30    24  28  27    20  24  23    16  19  19    12  15  14    11  12  12     0   0   0     0   0   0  
   0   0   0     0   0   0     0   0   0     0   0   0     0   0   0   148 147 143   176 175 171   208 207 203   164 163 159   161 160 158   147 147 145   138 138 136   140 141 139   186 188 187   149 150 149   118 120 119   129 131 131   118 123 124   119 128 130   120 129 130     0   0   0     0   0   0     0   0   0     0   0   0     0   0   0     0   0   0     0   0   0     0   0   0     0   0   0     0   0   0     0   0   0     0   0   0     0   0   0     0   0   0     0   0   0     0   0   0     0   0   0     0   0   0     0   0   0     0   0   0     0   0   0     0   0   0     0   0   0     0   0   0     0   0   0     9  13  12     6  10   9     9  13  12    17  21  20    19  23  22    20  24  23    25  30  29    33  37  36    35  39  38    32  36  36    33  37  36    33  37  36    32  33  33    28  28  28     0   0   0     0   0   0  
   0   0   0     0   0   0     0   0   0     0   0   0   149 147 144   172 171 167   184 183 179   185 184 180   162 161 158   172 172 170   144 144 142   152 152 150   150 151 149   152 154 153   134 136 135   133 135 134   130 132 131   121 126 125   111 118 119   117 125 127   130 135 138     0   0   0     0   0   0     0   0   0     0   0   0     0   0   0     0   0   0     0   0   0     0   0   0     0   0   0     0   0   0     0   0   0     0   0   0     0   0   0     0   0   0     0   0   0     0   0   0     0   0   0     0   0   0     0   0   0     0   0   0     0   0   0     0   0   0     0   0   0    10  10  10     3   7   5     1   2   1    17  21  20    52  56  55    64  68  67    62  66  65    37  41  40    41  46  45    42  46  45    42  45  45    46  51  48    51  56  52    52  55  54     0   0   0     0   0   0     0   0   0  
   0   0   0     0   0   0     0   0   0   151 150 146   145 145 142   153 153 153   165 165 165   146 146 146   160 160 160   158 158 158   141 141 141   154 154 154   137 137 137   131 131 131   153 153 153   174 174 174   156 156 157   128 130 132   120 124 127   136 140 143   135 139 142   121 122 124     0   0   0     0   0   0     0   0   0     0   0   0     0   0   0     0   0   0     0   0   0     0   0   0     0   0   0     0   0   0     0   0   0     0   0   0     0   0   0     0   0   0     0   0   0     0   0   0     0   0   0     0   0   0     0   0   0     0   0   0     0   0   0    14  10  10    11  10  12    12  11  16    16  15  20    42  43  45    79  80  82    91  93  92    85  88  86    58  62  61    36  40  38    32  38  34    31  37  33    36  42  38    40  46  42    27  32  29     0   0   0     0   0   0     0   0   0  
   0   0   0     0   0   0   149 148 146   161 160 156   158 157 155   146 146 145   152 152 152   140 140 140   149 149 149   148 148 148   133 133 133   147 147 147   137 137 137   140 140 140   152 152 152   153 153 153   138 138 138   125 127 127   121 125 127   130 132 136   126 127 131   118 118 119   111 110 112     0   0   0     0   0   0     0   0   0     0   0   0     0   0   0     0   0   0     0   0   0     0   0   0     0   0   0     0   0   0     0   0   0     0   0   0     0   0   0     0   0   0     0   0   0     0   0   0     0   0   0     0   0   0    18  18  16     9   7   6    14  10  10    14  12  14    16  14  19    21  20  25    36  36  40    51  52  54    50  51  51    44  46  45    42  46  44    36  40  39    27  33  29    27  34  28    34  41  34    35  45  37    33  39  35     0   0   0     0   0   0     0   0   0  
   0   0   0   164 162 160   158 157 155   160 159 156   159 159 158   144 144 144   148 148 148   147 147 147   154 154 154   149 149 149   138 138 138   140 140 140   136 136 136   142 142 142   142 142 142   127 127 127   123 123 123   128 129 131   122 125 128   119 121 125   111 112 116   108 108 110   109 108 110   106 104 105     0   0   0     0   0   0     0   0   0     0   0   0     0   0   0     0   0   0     0   0   0     0   0   0     0   0   0     0   0   0     0   0   0     0   0   0     0   0   0     0   0   0     0   0   0     0   0   0     7  12   8    14  14  12     9   7   6    14  10  10    15  13  15    17  17  19    19  19  21    25  25  27    23  24  26    16  18  18    19  21  20    27  31  30    48  53  51    47  53  49    51  57  53    48  55  50    31  37  33     0   0   0     0   0   0     0   0   0     0   0   0  
 183 181 182   173 172 170   163 163 160   153 152 148   144 143 141   146 146 146   143 143 143   144 144 144   153 153 153   142 142 142   134 134 134   140 140 140   135 135 135   132 132 132   125 125 125   116 116 116   123 123 123   132 135 135   124 128 130   115 117 121   108 110 113   109 109 111   110 109 111   107 105 106   103 101 102     0   0   0     0   0   0     0   0   0     0   0   0     0   0   0     0   0   0     0   0   0     0   0   0     0   0   0     0   0   0     0   0   0     0   0   0     0   0   0     0   0   0    40  49  44     8  14  10    16  18  15    17  17  15    13  12  10    14  13  13    13  13  13    11  11  11    15  15  15    15  17  16    18  20  19    35  37  36    46  50  49    68  73  71    72  78  75    73  79  75    64  70  66    33  39  35     0   0   0     0   0   0     0   0   0     0   0   0  
   0   0   0   168 167 165   157 156 154   156 155 152   155 154 154   179 179 179   157 157 157   140 140 140   150 150 150   135 135 135   134 134 134   142 142 142   136 136 136   125 125 125   116 116 116   119 119 119   127 127 127   129 129 132   124 126 130   113 118 121   113 114 118   116 116 118   113 113 114   108 108 108   107 107 107   128 128 128   128 128 126   112 113 110   117 119 114   123 127 122   124 126 121     0   0   0     0   0   0     0   0   0     0   0   0     0   0   0     0   0   0   104 115 109   112 123 117    64  73  68    14  21  17    14  18  14    20  22  19    14  15  13    11  13  10     8  10   9     5   7   5    13  16  15    22  24  23    31  34  33    51  55  54    41  45  44    40  44  43    47  51  51    57  62  62     0   0   0     0   0   0     0   0   0     0   0   0     0   0   0     0   0   0  
   0   0   0     0   0   0   165 164 161   162 161 157   177 177 174   210 210 210   169 169 169   141 141 141   145 145 145   134 134 134   136 136 136   141 141 141   138 138 138   127 127 127   120 120 120   124 124 124   122 122 122   113 116 115   110 114 116   105 108 112   107 111 114   111 112 114   108 108 109   106 106 106   119 119 119   149 149 149   141 141 139   111 111 108   115 117 112   119 121 116   109 111 106   116 115 113   118 117 115   118 119 116   116 120 116   114 120 116   107 117 111   104 115 109   107 118 112    67  76  71    14  23  18     7  13   9    10  15  11    12  16  12    10  12   9     8  10   7     9  11   8    19  21  19    31  33  30    35  38  37    45  49  48    41  45  44    25  29  29     0   0   0     0   0   0     0   0   0     0   0   0     0   0   0     0   0   0     0   0   0     0   0   0  
   0   0   0     0   0   0   167 165 163   166 165 162   173 173 172   183 183 183   149 149 149   133 133 133   132 132 132   132 132 132   132 132 132   138 138 138   134 134 134   129 129 129   125 125 125   120 120 120   116 116 116   112 113 115   112 114 118   106 110 113   108 112 115   109 110 112   105 106 107   109 111 110   112 113 112   133 133 133   124 124 122   109 109 107   125 126 121   128 129 124   116 117 112   115 114 110   118 117 113   118 120 115   116 120 115   115 122 115   108 118 110    98 109 101    90 101  95    71  82  76    48  58  52    36  44  39    13  18  14    10  16  12    10  13   8    12  14   9    14  16  11    20  23  18    27  32  28    28  32  30    30  34  33     0   0   0     0   0   0     0   0   0     0   0   0     0   0   0     0   0   0     0   0   0     0   0   0     0   0   0     0   0   0  
   0   0   0     0   0   0     0   0   0   174 173 169   164 164 161   147 147 146   132 132 132   141 141 141   138 138 138   148 148 148   141 141 141   136 136 136   128 128 128   129 129 129   126 126 126   113 113 113   113 113 113   122 125 124   129 133 135   122 126 129   121 124 128   117 118 120   113 115 116   122 124 123   118 120 119   128 128 128   117 117 115   116 116 113   134 135 130   130 131 126   117 118 113   119 118 114   121 121 116   121 122 117   118 120 115   114 119 113   107 114 107    98 108 101   100 111 105   102 113 107   108 119 113    89  98  93    27  36  31    11  17  13    10  15  10    16  18  13    17  19  14    16  19  14    22  27  23    23  27  25     0   0   0     0   0   0     0   0   0     0   0   0     0   0   0     0   0   0     0   0   0     0   0   0     0   0   0     0   0   0     0   0   0  
   0   0   0     0   0   0     0   0   0     0   0   0   146 146 145   144 144 144   140 140 140   142 142 142   137 137 137   139 139 139   139 139 139   130 130 130   145 145 145   135 135 135   124 124 124   126 126 126   162 162 162   155 155 158   149 151 155   125 129 132   117 121 124   105 109 110   112 116 117   122 125 124   115 117 115   121 123 122   128 128 126   122 122 119   120 119 115   122 121 117   113 112 108   122 119 114   121 118 113   118 118 112   112 114 108   114 118 111   115 122 115    90  98  91    95 105  97    99 108 103   109 118 113   103 112 107    33  42  37     9  16  13    15  20  15    13  18  12    15  20  13    21  26  20     0   0   0     0   0   0     0   0   0     0   0   0     0   0   0     0   0   0     0   0   0     0   0   0     0   0   0     0   0   0     0   0   0     0   0   0     0   0   0  
   0   0   0     0   0   0     0   0   0     0   0   0     0   0   0   147 147 146   138 138 138   135 135 135   131 131 131   144 144 144   139 139 139   127 127 127   134 134 134   137 137 137   133 133 133   143 143 143   162 163 163   159 162 161   138 142 144   131 135 138   143 147 150   152 156 157   152 156 157   144 148 147   141 145 144   134 136 135   116 116 114   123 123 120   130 129 125   118 116 113   119 117 112   114 111 104   124 122 115   121 121 114   111 111 105   112 115 108   101 106  99    72  78  72    95 104  96   100 109 103    68  77  72    69  78  73    51  60  55    22  31  28    16  23  19    26  31  25     0   0   0     0   0   0     0   0   0     0   0   0     0   0   0     0   0   0     0   0   0     0   0   0     0   0   0     0   0   0     0   0   0     0   0   0     0   0   0     0   0   0     0   0   0  
   0   0   0     0   0   0     0   0   0     0   0   0     0   0   0     0   0   0   140 140 140   143 143 143   153 153 153   166 166 166   161 161 161   132 132 132   174 174 174   145 145 145   110 110 110   130 130 130   135 135 135   165 165 168   172 174 178   153 157 160   162 166 169   138 144 144   130 136 135   130 135 133   137 141 140   132 134 133   120 120 118   150 149 147   164 161 158   134 131 128   134 129 125   135 130 124   130 125 119   123 122 114   127 127 118   136 137 131   110 113 106    76  81  75    94 100  93    98 104  99    55  61  57    46  55  52    74  83  80    46  55  52    28  35  32     0   0   0     0   0   0     0   0   0     0   0   0     0   0   0     0   0   0     0   0   0     0   0   0     0   0   0     0   0   0     0   0   0     0   0   0     0   0   0     0   0   0     0   0   0     0   0   0  
   0   0   0     0   0   0     0   0   0     0   0   0     0   0   0     0   0   0     0   0   0   155 155 155   160 160 160   153 153 153   143 143 143   179 179 179   247 247 247   186 186 186   132 132 132   129 129 129   150 150 150   214 217 216   206 210 212   165 169 172   165 169 172   124 130 130   127 133 132   130 136 134   136 140 139   130 134 133   121 123 120   140 139 137   160 157 154   154 149 146   153 148 144   130 125 119   138 133 125   143 139 131   142 139 132   135 135 127   107 108 102    94  97  91    91  95  89    93  98  93    88  94  90    67  74  72    90 100  97     0   0   0     0   0   0     0   0   0     0   0   0     0   0   0     0   0   0     0   0   0     0   0   0     0   0   0     0   0   0     0   0   0     0   0   0     0   0   0     0   0   0     0   0   0     0   0   0     0   0   0     0   0   0  
   0   0   0     0   0   0     0   0   0     0   0   0     0   0   0     0   0   0     0   0   0   162 162 162   143 143 143   143 143 143   128 128 128   159 159 159   201 201 201   156 156 156   131 131 131   112 112 112   173 173 173   215 215 218   182 185 188   160 165 168   150 154 157   143 149 149   163 168 168   148 154 152   134 138 137   126 129 128   123 123 121   124 122 120   144 140 137   154 150 146   129 121 118   130 123 115   185 178 170   191 186 177   148 143 136   122 119 112    99  96  91   101 100  95    94  96  91    90  92  88   112 117 113     0   0   0     0   0   0     0   0   0     0   0   0     0   0   0     0   0   0     0   0   0     0   0   0     0   0   0     0   0   0     0   0   0     0   0   0     0   0   0     0   0   0     0   0   0     0   0   0     0   0   0     0   0   0     0   0   0     0   0   0  
   0   0   0     0   0   0     0   0   0     0   0   0     0   0   0     0   0   0     0   0   0     0   0   0   152 152 152   179 179 179   151 151 151   133 133 133   161 161 161   135 135 135   127 127 127   150 150 150   223 223 223   174 177 177   169 173 175   193 197 200   141 146 149   133 139 139   146 152 151   140 146 144   126 131 130   114 118 117   122 123 120   131 129 127   152 147 144   161 153 151   115 107 104   190 181 174   237 229 220   204 197 189   137 131 122   129 123 117    96  91  86    87  85  80    99  99  95     0   0   0     0   0   0     0   0   0     0   0   0     0   0   0     0   0   0     0   0   0     0   0   0     0   0   0     0   0   0     0   0   0     0   0   0     0   0   0     0   0   0     0   0   0     0   0   0     0   0   0     0   0   0     0   0   0     0   0   0     0   0   0     0   0   0  
   0   0   0     0   0   0     0   0   0     0   0   0     0   0   0     0   0   0     0   0   0     0   0   0     0   0   0   210 210 210   159 159 159   144 144 144   172 172 172   149 149 149   135 135 135   175 175 175   220 220 221   149 149 152   170 173 176   189 193 196   136 141 144   116 122 122   118 127 125   132 140 137   135 139 138   120 122 121   120 120 118   137 135 133   152 147 144   156 149 147   141 132 130   241 230 224   250 242 233   193 184 176   130 121 114   131 124 118    85  80  74    78  75  70     0   0   0     0   0   0     0   0   0     0   0   0     0   0   0     0   0   0     0   0   0     0   0   0     0   0   0     0   0   0     0   0   0     0   0   0     0   0   0     0   0   0     0   0   0     0   0   0     0   0   0     0   0   0     0   0   0     0   0   0     0   0   0     0   0   0     0   0   0  
   0   0   0     0   0   0     0   0   0     0   0   0     0   0   0     0   0   0     0   0   0     0   0   0     0   0   0   225 223 224   160 158 159   153 151 152   161 159 160   147 146 147   140 140 140   134 134 134   149 149 149   137 140 139   121 125 126   101 106 107   106 112 112   118 124 122   129 138 135   137 145 141   130 136 132   124 126 123   135 135 132   161 159 156   151 146 143   126 119 117   134 124 122   248 236 229   255 249 240   220 210 203   157 148 141   127 120 114    82  77  71    97  94  90    91  90  86     0   0   0     0   0   0     0   0   0     0   0   0     0   0   0     0   0   0     0   0   0     0   0   0     0   0   0     0   0   0     0   0   0     0   0   0     0   0   0     0   0   0     0   0   0     0   0   0     0   0   0     0   0   0     0   0   0     0   0   0     0   0   0     0   0   0  
   0   0   0     0   0   0     0   0   0     0   0   0     0   0   0     0   0   0     0   0   0     0   0   0   180 177 178   190 186 186   177 173 174   192 188 189   164 160 161   148 145 146   147 146 147   152 152 152   147 149 148   133 136 134   115 120 116   127 132 128   130 135 130   126 131 127   166 171 167   147 152 148   147 152 148   120 123 118   161 162 157   199 197 193   151 145 142   120 111 109   137 126 124   220 202 200   232 213 209   189 173 170   156 146 141   128 123 119   111 109 104   106 108 103    88  90  85    63  65  60     0   0   0     0   0   0     0   0   0     0   0   0     0   0   0     0   0   0     0   0   0     0   0   0     0   0   0     0   0   0     0   0   0     0   0   0     0   0   0     0   0   0     0   0   0     0   0   0     0   0   0     0   0   0     0   0   0     0   0   0     0   0   0  
   0   0   0     0   0   0     0   0   0     0   0   0     0   0   0     0   0   0     0   0   0     0   0   0   151 148 149   152 147 148   148 142 144   177 171 173   169 164 166   163 160 161   154 154 154   151 151 151   149 151 150   140 143 139   130 135 129   134 139 133   130 135 128   141 146 140   160 165 159   165 170 164   164 167 162   146 148 143   145 146 141   143 141 137   125 121 118   120 113 111   132 121 119   151 131 130   152 133 130   154 138 136   156 145 143   130 124 120   122 122 118   123 126 121   104 109 103    95 100  93     0   0   0     0   0   0     0   0   0     0   0   0     0   0   0     0   0   0     0   0   0     0   0   0     0   0   0     0   0   0     0   0   0     0   0   0     0   0   0     0   0   0     0   0   0     0   0   0     0   0   0     0   0   0     0   0   0     0   0   0     0   0   0  
   0   0   0     0   0   0     0   0   0     0   0   0     0   0   0     0   0   0     0   0   0     0   0   0   126 122 123   122 116 118   124 119 121   137 131 133   152 147 148   164 160 161   159 157 158   150 150 150   138 141 140   130 132 130   136 138 134   121 125 119   106 111 105   110 115 109   124 129 123   177 182 176   151 154 149   139 140 135   127 126 122   115 111 108   123 118 115   130 123 120   133 122 120   133 118 115   129 111 110   148 135 134   159 150 148   128 124 121   114 114 112   109 112 109   111 116 112   113 118 113   129 132 126     0   0   0     0   0   0     0   0   0     0   0   0     0   0   0     0   0   0     0   0   0     0   0   0     0   0   0     0   0   0     0   0   0     0   0   0     0   0   0     0   0   0     0   0   0     0   0   0     0   0   0     0   0   0     0   0   0     0   0   0  
   0   0   0     0   0   0     0   0   0     0   0   0     0   0   0     0   0   0     0   0   0     0   0   0   149 146 147   138 135 136   131 125 128   133 127 129   142 138 139   153 150 151   159 158 158   162 162 162   148 150 149   131 133 129   133 135 130   120 124 118   119 124 119   115 120 114   147 152 146   228 233 227   160 162 157   132 134 129   132 132 127   128 126 122   127 123 120   128 121 118   128 118 117   148 134 132   141 128 125   128 119 117   126 121 118   122 121 119   119 122 119   108 114 110   117 123 119   118 124 120   117 122 116   114 116 111     0   0   0     0   0   0     0   0   0     0   0   0     0   0   0     0   0   0     0   0   0     0   0   0     0   0   0     0   0   0     0   0   0     0   0   0     0   0   0     0   0   0     0   0   0     0   0   0     0   0   0     0   0   0     0   0   0  
   0   0   0     0   0   0     0   0   0     0   0   0     0   0   0     0   0   0     0   0   0   168 168 168   167 164 165   150 146 147   134 130 131   149 145 146   144 140 141   143 140 141   146 145 146   158 158 158   156 158 157   142 144 142   136 138 134   124 126 121   130 132 127   132 137 131   153 158 152   200 205 199   147 150 145   127 128 123   144 142 138   145 140 137   134 129 126   147 140 138   153 145 143   127 117 115   142 132 130   121 115 113   121 119 117   120 120 120   101 106 105    93  99  99   113 119 118   106 111 110   101 103 100   125 126 121   124 124 119     0   0   0     0   0   0     0   0   0     0   0   0     0   0   0     0   0   0     0   0   0     0   0   0     0   0   0     0   0   0     0   0   0     0   0   0     0   0   0     0   0   0     0   0   0     0   0   0     0   0   0     0   0   0  
   0   0   0     0   0   0     0   0   0     0   0   0     0   0   0     0   0   0     0   0   0   145 144 145   142 140 141   139 137 138   144 140 142   150 146 147   149 147 148   154 152 153   151 151 151   150 150 150   149 150 149   147 149 145   151 153 148   119 121 116   104 106 101   123 128 122   123 128 122   125 130 124   123 126 121   131 133 128   154 155 150   149 147 143   143 139 136   168 163 160   168 160 158   145 140 136   156 151 147   133 130 128   130 130 129   115 116 116    95 101 101    97 103 103   104 110 110    97 102 101    91  95  94   129 131 128   124 124 119   114 114 109     0   0   0     0   0   0     0   0   0     0   0   0     0   0   0     0   0   0     0   0   0     0   0   0     0   0   0     0   0   0     0   0   0     0   0   0     0   0   0     0   0   0     0   0   0     0   0   0     0   0   0  
   0   0   0     0   0   0     0   0   0     0   0   0     0   0   0     0   0   0     0   0   0   137 137 137   135 134 135   147 145 146   168 166 167   152 150 151   159 157 158   173 172 172   171 171 171   157 157 157   151 151 151   155 155 155   164 165 161   131 133 128   122 124 119   137 142 136   142 147 141   137 142 136   157 160 154   165 167 162   163 164 159   144 142 139   138 133 130   148 143 140   142 137 134   151 148 145   163 162 158   156 157 155   148 152 150   122 127 127   109 114 117   108 115 117   108 113 116   105 109 111   101 103 103   130 130 128   136 136 134   121 121 116   116 120 116     0   0   0     0   0   0     0   0   0     0   0   0     0   0   0     0   0   0     0   0   0     0   0   0     0   0   0     0   0   0     0   0   0     0   0   0     0   0   0     0   0   0     0   0   0     0   0   0  
   0   0   0     0   0   0     0   0   0     0   0   0     0   0   0     0   0   0     0   0   0   147 147 147   145 145 145   151 151 151   166 166 166   156 156 156   149 149 149   157 157 157   160 160 160   152 152 152   151 151 151   158 158 155   156 157 152   143 144 139   159 161 156   143 148 141   153 158 152   151 156 150   186 189 184   182 184 179   149 150 145   127 128 123   126 123 120   131 127 124   142 138 135   166 168 163   169 171 167   154 157 154   125 131 128   105 111 111   112 119 122   107 114 116   103 108 111   102 106 107    94  98  97   111 113 110   136 136 133   121 121 117   119 123 119     0   0   0     0   0   0     0   0   0     0   0   0     0   0   0     0   0   0     0   0   0     0   0   0     0   0   0     0   0   0     0   0   0     0   0   0     0   0   0     0   0   0     0   0   0     0   0   0  
   0   0   0     0   0   0     0   0   0     0   0   0     0   0   0     0   0   0   138 138 138   146 146 146   150 150 150   152 152 152   167 167 167   149 149 149   150 150 150   154 154 154   155 155 155   152 152 152   153 153 153   156 155 155   139 138 135   151 152 147   176 177 172   155 157 152   159 162 157   142 147 141   158 161 156   172 174 169   169 170 165   147 148 143   138 136 132   158 154 151   180 179 175   181 183 178   144 149 144   146 151 148   135 141 141   117 123 123   114 119 122   109 114 117   101 106 109   106 111 112   112 114 115   122 122 122    96  96  94    98  98  94   123 127 123   133 138 134     0   0   0     0   0   0     0   0   0     0   0   0     0   0   0     0   0   0     0   0   0     0   0   0     0   0   0     0   0   0     0   0   0     0   0   0     0   0   0     0   0   0     0   0   0  
   0   0   0     0   0   0     0   0   0     0   0   0     0   0   0     0   0   0   139 139 139   144 144 144   146 147 147   150 152 151   167 169 168   157 159 158   155 158 157   155 156 155   150 150 150   145 145 145   148 148 148   156 156 153   146 145 141   155 155 151   187 187 182   167 169 164   157 160 155   131 136 130   121 124 118   137 139 134   157 159 154   151 151 147   142 141 137   151 148 145   159 158 154   159 161 156   144 150 144   158 164 159   153 160 157   116 122 122   106 112 113   109 114 117   104 109 111   110 115 116   119 121 121   110 112 109    95  96  91    97  98  93   134 136 132   143 148 144   146 151 147     0   0   0     0   0   0     0   0   0     0   0   0     0   0   0     0   0   0     0   0   0     0   0   0     0   0   0     0   0   0     0   0   0     0   0   0     0   0   0     0   0   0  
   0   0   0     0   0   0     0   0   0     0   0   0     0   0   0     0   0   0   143 143 143   145 146 145   143 145 144   145 147 146   158 161 161   156 160 159   155 157 156   151 153 152   145 145 145   140 140 140   145 143 145   157 155 155   153 152 149   147 146 142   171 172 167   162 164 159   160 163 158   148 153 147   133 138 131   144 146 141   157 159 154   148 149 144   141 140 136   150 147 143   152 151 147   136 139 132   140 145 139   151 156 151   155 159 157   106 110 111    90  94  95   102 106 107   111 115 116   114 116 117   122 123 123   104 106 103   120 121 116   142 143 138   147 147 144   132 132 130   123 123 121   147 147 145     0   0   0     0   0   0     0   0   0     0   0   0     0   0   0     0   0   0     0   0   0     0   0   0     0   0   0     0   0   0     0   0   0     0   0   0     0   0   0  
   0   0   0     0   0   0     0   0   0     0   0   0     0   0   0     0   0   0     0   0   0   148 149 149   141 144 143   137 140 140   145 149 148   145 149 148   144 148 147   144 147 146   145 146 145   144 144 144   144 142 143   155 154 151   168 167 163   155 154 150   159 157 154   150 151 146   156 159 154   157 162 156   159 164 158   162 167 161   158 159 154   143 144 139   143 143 139   154 153 149   155 154 150   152 156 149   162 167 160   153 158 151   155 160 155   114 118 116    98 102 101   101 105 103   102 105 104   103 105 104   106 108 105    91  93  87   117 119 112   146 147 141   152 153 148   153 152 150   157 156 154   148 147 145    88  86  84     0   0   0     0   0   0     0   0   0     0   0   0     0   0   0     0   0   0     0   0   0     0   0   0     0   0   0     0   0   0     0   0   0     0   0   0  
   0   0   0     0   0   0     0   0   0     0   0   0     0   0   0     0   0   0     0   0   0   149 150 150   140 143 142   137 141 140   142 147 145   136 142 140   138 142 141   144 147 146   151 152 151   152 152 152   144 142 143   136 133 133   136 132 130   144 142 138   149 149 144   145 146 141   151 154 149   154 159 153   154 159 153   148 153 147   142 144 139   140 142 137   150 150 146   157 156 152   149 148 144   161 162 156   181 182 176   156 157 151   143 144 139   115 115 112   104 104 102   109 109 109   117 118 116   117 119 115   111 113 109    97  99  93    95  98  91   102 104  98   121 119 114   159 154 151   214 210 209   189 185 185   122 117 118    99  93  94     0   0   0     0   0   0     0   0   0     0   0   0     0   0   0     0   0   0     0   0   0     0   0   0     0   0   0     0   0   0     0   0   0  
   0   0   0     0   0   0     0   0   0     0   0   0     0   0   0     0   0   0     0   0   0   145 147 146   140 144 143   143 148 146   147 153 151   139 145 143   142 147 146   148 152 151   154 157 156   155 155 155   143 141 141   132 130 128   145 141 138   160 158 154   160 159 155   147 148 143   142 143 138   147 151 145   152 157 151   139 144 138   130 133 128   139 141 136   150 151 146   151 150 146   140 139 134   166 166 158   192 194 185   174 175 168   150 151 145   133 134 129   123 124 119   138 138 136   146 147 143   137 139 134   122 125 118   113 116 109    97 100  91    95  97  89    98  96  90   121 116 113   172 166 166   180 174 175   151 144 146   108  99 101   111 102 101     0   0   0     0   0   0     0   0   0     0   0   0     0   0   0     0   0   0     0   0   0     0   0   0     0   0   0     0   0   0  
   0   0   0     0   0   0     0   0   0     0   0   0     0   0   0     0   0   0     0   0   0   146 147 147   145 148 147   145 151 149   144 150 148   143 149 147   147 153 151   150 153 152   149 150 150   147 147 147   139 137 138   135 133 133   156 152 150   166 165 161   172 171 167   161 162 157   150 151 146   175 177 172   169 173 167   142 147 141   135 137 132   148 150 145   154 155 150   148 148 143   139 138 133   141 141 133   152 152 144   151 150 144   137 136 131   134 134 129   118 117 113   141 140 136   142 141 137   123 124 119   115 116 110   116 119 112   107 111 102   110 114 105   140 138 132   164 157 154   152 143 144   173 164 166   175 165 168   125 114 118   116 106 108   127 117 116     0   0   0     0   0   0     0   0   0     0   0   0     0   0   0     0   0   0     0   0   0     0   0   0     0   0   0  
   0   0   0     0   0   0     0   0   0     0   0   0     0   0   0     0   0   0     0   0   0     0   0   0   148 151 150   144 148 147   135 139 138   144 148 147   149 153 152   147 150 149   140 140 140   137 136 134   137 136 134   133 132 129   138 137 133   146 145 141   163 162 158   151 152 147   126 127 122   155 157 152   154 156 151   132 134 129   140 142 137   166 168 163   167 168 163   152 151 147   141 140 135   126 127 119   112 113 105   122 123 116   128 128 122   140 139 134   115 114 110   136 137 132   123 124 119   110 111 106   120 121 115   125 128 121   118 121 112   118 120 111   122 120 114   170 165 161   138 133 130   158 152 152   171 162 164   143 134 137   152 143 145   147 139 137   163 155 151   176 169 159     0   0   0     0   0   0     0   0   0     0   0   0     0   0   0     0   0   0     0   0   0  
   0   0   0     0   0   0     0   0   0     0   0   0     0   0   0     0   0   0     0   0   0     0   0   0   152 154 153   146 148 147   145 147 146   146 148 145   141 141 139   147 146 144   138 137 135   142 139 137   133 129 128   142 141 137   142 142 137   141 142 137   155 156 151   148 150 145   128 129 124   130 131 126   137 138 133   138 139 134   141 142 137   174 175 170   148 149 144   144 144 139   154 154 149   151 154 147   130 133 126   119 121 115   130 132 127   132 134 129   123 125 120   126 127 122   121 122 117   118 119 114   123 124 119   131 132 127   124 125 119   118 119 113   118 118 113   131 128 123   123 119 116   147 143 142   167 163 162   157 155 153   150 149 147   136 135 133   119 118 114    90  90  83    54  54  45     0   0   0     0   0   0     0   0   0     0   0   0     0   0   0     0   0   0  
   0   0   0     0   0   0     0   0   0     0   0   0     0   0   0     0   0   0     0   0   0     0   0   0   149 151 150   147 147 147   149 149 149   146 146 144   147 147 145   145 144 142   143 140 137   143 139 136   135 131 128   143 143 139   147 148 143   149 150 145   155 156 151   143 144 139   134 135 130   143 144 139   133 134 129   135 136 131   155 156 151   179 180 175   141 142 137   149 150 145   180 182 177   154 159 153   137 142 136   130 135 129   140 145 139   134 139 133   118 120 115   117 119 114   125 127 122   133 134 129   128 130 125   129 130 125   129 130 125   122 123 118   123 123 118    98  97  92   166 165 161   161 160 156   154 153 151   185 185 183   167 167 165   141 141 139   120 121 116   108 111 104    80  83  75    35  38  29     0   0   0     0   0   0     0   0   0     0   0   0     0   0   0  
   0   0   0     0   0   0     0   0   0     0   0   0     0   0   0     0   0   0     0   0   0     0   0   0   144 146 145   142 142 142   143 143 143   139 139 137   147 147 145   138 137 135   139 138 134   135 134 130   140 136 133   144 141 138   147 147 143   151 151 146   146 147 142   131 132 127   137 138 133   152 153 148   136 137 132   135 136 131   169 170 165   187 188 183   139 140 135   151 152 147   188 189 184   161 164 159   146 151 145   142 147 141   147 152 146   133 138 131   112 114 109   113 115 110   137 139 134   149 150 145   131 132 127   124 125 120   131 132 127   127 128 123   110 110 105    93  90  85   164 160 157   174 170 168   169 168 166   169 169 166   149 149 147   148 148 146   113 114 111   122 125 119   117 122 112    37  43  33    39  45  32     0   0   0     0   0   0     0   0   0     0   0   0  
   0   0   0     0   0   0     0   0   0     0   0   0     0   0   0     0   0   0     0   0   0     0   0   0     0   0   0   143 143 143   139 139 139   141 141 139   149 149 147   141 140 138   136 135 131   132 131 127   157 153 150   146 145 141   148 149 144   150 151 146   137 138 133   130 131 126   148 149 144   157 158 153   149 150 145   141 143 138   173 174 169   190 191 186   145 146 141   147 147 142   165 167 162   158 163 157   147 152 146   146 151 145   144 149 143   127 132 126   112 114 109   117 119 114   143 145 140   150 151 146   130 131 126   122 123 118   128 129 124   128 128 124   123 121 116   124 121 116   131 127 124   201 198 196   228 227 225   183 182 180   153 153 151   167 167 165   115 117 112   124 128 121   138 144 135    61  67  57    41  47  34    36  44  23     0   0   0     0   0   0     0   0   0  
   0   0   0     0   0   0     0   0   0     0   0   0     0   0   0     0   0   0     0   0   0     0   0   0     0   0   0   147 148 146   144 144 142   151 151 149   153 153 150   148 147 143   134 133 129   136 135 131   169 168 164   150 149 145   155 156 151   151 152 147   134 134 129   147 148 143   166 167 162   158 159 154   158 158 153   147 148 143   168 169 164   181 182 177   148 149 144   144 145 140   149 150 145   147 149 144   141 146 140   145 150 144   141 146 140   122 127 121   113 115 110   118 120 115   132 134 129   134 135 130   131 132 127   131 132 127   127 128 123   125 125 120   125 122 118   118 113 109   112 107 104   149 144 142   170 166 165   181 179 177   199 199 197   164 164 162   113 115 111   107 110 104   115 120 111    61  68  58    24  32  18    25  34  12    34  43  10     0   0   0     0   0   0  
   0   0   0     0   0   0     0   0   0     0   0   0     0   0   0     0   0   0     0   0   0     0   0   0     0   0   0     0   0   0     0   0   0   152 152 149   148 148 145   144 143 139   131 130 126   145 144 140   166 165 161   147 147 142   159 160 155   148 149 144   127 129 124   165 166 161   178 179 174   153 154 149   154 155 150   150 151 146   165 166 161   169 170 165   150 151 146   147 148 143   152 154 149   137 142 136   133 138 132   141 146 140   138 143 137   122 127 121   118 120 115   117 119 114   115 117 112   116 117 112   129 131 126   140 141 136   127 127 122   121 121 116   125 122 118   114 109 105   119 114 111   126 121 119   174 170 169   170 168 166   158 158 156   138 140 137   112 115 109   104 109 102    99 106  96    74  82  71    61  69  56    48  58  36    38  48  16    36  46  11    36  43  10  
   0   0   0     0   0   0     0   0   0     0   0   0     0   0   0     0   0   0     0   0   0     0   0   0     0   0   0     0   0   0     0   0   0   149 150 145   147 148 143   138 139 134   144 145 139   175 176 170   167 168 162   156 157 152   171 171 168   153 153 151   130 130 128   188 188 186   193 193 191   154 154 152   150 150 149   155 155 153   169 169 167   168 168 166   160 160 158   151 151 149   152 152 149   151 153 150   131 136 132   131 136 132   130 135 131   125 130 126   128 130 127   124 126 123   113 115 112   108 109 106   120 120 118   132 132 130   124 124 122   120 119 116   122 118 114   135 128 125   130 125 122   124 119 117   175 171 170   151 149 147   131 130 128   134 134 132   126 129 125   126 131 124   114 121 111   106 114 103   136 147 133    82  93  74    42  53  27    39  48  21    39  45  17  
   0   0   0     0   0   0     0   0   0     0   0   0     0   0   0     0   0   0     0   0   0     0   0   0     0   0   0     0   0   0     0   0   0   154 155 150   158 158 153   144 145 140   169 170 164   214 215 209   182 183 177   179 179 174   190 190 187   169 169 167   143 143 141   212 212 210   211 211 209   168 168 166   155 155 153   161 161 159   174 174 172   174 174 172   175 175 173   153 153 151   138 140 137   168 173 169   133 138 134   120 125 121   120 125 122   126 131 127   138 140 137   135 137 134   122 124 121   110 110 108   108 108 106   118 118 116   120 120 118   121 120 117   123 120 116   137 130 127   120 115 113   135 130 128   163 159 158   163 162 160   140 140 138   130 132 129   124 126 121   125 130 123   109 116 107   100 109  97   160 171 157    77  89  72    45  57  38    41  51  30    39  47  24  
