P3
50 71
255
   0   0   0     0   0   0     0   0   0     0   0   0     0   0   0     0   0   0     0   0   0     0   0   0     0   0   0     0   0   0     0   0   0     0   0   0     0   0   0     0   0   0     0   0   0     0   0   0     0   0   0     0   0   0     0   0   0     0   0   0     0   0   0     0   0   0     0   0   0     0   0   0     0   0   0   157 149 121     0   0   0     0   0   0     0   0   0     0   0   0     0   0   0     0   0   0     0   0   0     0   0   0     0   0   0     0   0   0     0   0   0     0   0   0     0   0   0     0   0   0     0   0   0     0   0   0     0   0   0     0   0   0     0   0   0     0   0   0     0   0   0     0   0   0     0   0   0     0   0   0  
   0   0   0     0   0   0     0   0   0     0   0   0     0   0   0     0   0   0     0   0   0     0   0   0     0   0   0     0   0   0     0   0   0     0   0   0     0   0   0     0   0   0     0   0   0     0   0   0     0   0   0     0   0   0     0   0   0     0   0   0     0   0   0     0   0   0     0   0   0     0   0   0   150 143 117   149 142 114   147 140 112     0   0   0     0   0   0     0   0   0     0   0   0     0   0   0     0   0   0     0   0   0     0   0   0     0   0   0     0   0   0     0   0   0     0   0   0     0   0   0     0   0   0     0   0   0     0   0   0     0   0   0     0   0   0     0   0   0     0   0   0     0   0   0     0   0   0     0   0   0  
   0   0   0     0   0   0     0   0   0     0   0   0     0   0   0     0   0   0     0   0   0     0   0   0     0   0   0     0   0   0     0   0   0     0   0   0     0   0   0     0   0   0     0   0   0     0   0   0     0   0   0     0   0   0     0   0   0     0   0   0     0   0   0     0   0   0     0   0   0     0   0   0   143 136 110   142 135 109   141 134 106     0   0   0     0   0   0     0   0   0     0   0   0     0   0   0     0   0   0     0   0   0     0   0   0     0   0   0     0   0   0     0   0   0     0   0   0     0   0   0     0   0   0     0   0   0     0   0   0     0   0   0     0   0   0     0   0   0     0   0   0     0   0   0     0   0   0     0   0   0  
   0   0   0     0   0   0     0   0   0     0   0   0     0   0   0     0   0   0     0   0   0     0   0   0     0   0   0     0   0   0     0   0   0     0   0   0     0   0   0     0   0   0     0   0   0     0   0   0     0   0   0     0   0   0     0   0   0     0   0   0     0   0   0     0   0   0     0   0   0   139 133 111   138 132 108   137 131 107   137 131 107   137 131 106     0   0   0     0   0   0     0   0   0     0   0   0     0   0   0     0   0   0     0   0   0     0   0   0     0   0   0     0   0   0     0   0   0     0   0   0     0   0   0     0   0   0     0   0   0     0   0   0     0   0   0     0   0   0     0   0   0     0   0   0     0   0   0     0   0   0  
   0   0   0     0   0   0     0   0   0     0   0   0     0   0   0     0   0   0     0   0   0     0   0   0     0   0   0     0   0   0     0   0   0     0   0   0     0   0   0     0   0   0     0   0   0     0   0   0     0   0   0     0   0   0     0   0   0     0   0   0     0   0   0     0   0   0     0   0   0   134 128 105   134 128 106   135 129 107   136 130 108   134 128 105     0   0   0     0   0   0     0   0   0     0   0   0     0   0   0     0   0   0     0   0   0     0   0   0     0   0   0     0   0   0     0   0   0     0   0   0     0   0   0     0   0   0     0   0   0     0   0   0     0   0   0     0   0   0     0   0   0     0   0   0     0   0   0     0   0   0  
   0   0   0     0   0   0     0   0   0     0   0   0     0   0   0     0   0   0     0   0   0     0   0   0     0   0   0     0   0   0     0   0   0     0   0   0     0   0   0     0   0   0     0   0   0     0   0   0     0   0   0     0   0   0     0   0   0     0   0   0     0   0   0     0   0   0   128 123 103   130 125 105   130 125 105   131 126 106   134 129 109   130 125 104   129 124 102     0   0   0     0   0   0     0   0   0     0   0   0     0   0   0     0   0   0     0   0   0     0   0   0     0   0   0     0   0   0     0   0   0     0   0   0     0   0   0     0   0   0     0   0   0     0   0   0     0   0   0     0   0   0     0   0   0     0   0   0     0   0   0  
   0   0   0     0   0   0     0   0   0     0   0   0     0   0   0     0   0   0     0   0   0     0   0   0     0   0   0     0   0   0     0   0   0     0   0   0     0   0   0     0   0   0     0   0   0     0   0   0     0   0   0     0   0   0     0   0   0     0   0   0     0   0   0   128 123 103   129 124 104   130 125 107   128 122 106   130 124 108   132 127 108   128 123 103   126 121 101     0   0   0     0   0   0     0   0   0     0   0   0     0   0   0     0   0   0     0   0   0     0   0   0     0   0   0     0   0   0     0   0   0     0   0   0     0   0   0     0   0   0     0   0   0     0   0   0     0   0   0     0   0   0     0   0   0     0   0   0     0   0   0  
   0   0   0     0   0   0     0   0   0     0   0   0     0   0   0     0   0   0     0   0   0     0   0   0     0   0   0     0   0   0     0   0   0     0   0   0     0   0   0     0   0   0     0   0   0     0   0   0     0   0   0     0   0   0     0   0   0     0   0   0     0   0   0   125 122 103   126 123 105   128 125 108   129 126 111   128 125 110   128 125 110   128 125 109   123 120 103   118 115  96     0   0   0     0   0   0     0   0   0     0   0   0     0   0   0     0   0   0     0   0   0     0   0   0     0   0   0     0   0   0     0   0   0     0   0   0     0   0   0     0   0   0     0   0   0     0   0   0     0   0   0     0   0   0     0   0   0     0   0   0  
   0   0   0     0   0   0     0   0   0     0   0   0     0   0   0     0   0   0     0   0   0     0   0   0     0   0   0     0   0   0     0   0   0     0   0   0     0   0   0     0   0   0     0   0   0     0   0   0     0   0   0     0   0   0     0   0   0     0   0   0   128 125 106   125 123 104   126 123 107   125 122 107   122 118 106   122 118 106   120 117 104   119 115 102   128 124 109   133 129 113   132 129 109     0   0   0     0   0   0     0   0   0     0   0   0     0   0   0     0   0   0     0   0   0     0   0   0     0   0   0     0   0   0     0   0   0     0   0   0     0   0   0     0   0   0     0   0   0     0   0   0     0   0   0     0   0   0     0   0   0  
   0   0   0     0   0   0     0   0   0     0   0   0     0   0   0     0   0   0     0   0   0     0   0   0     0   0   0     0   0   0     0   0   0     0   0   0     0   0   0     0   0   0     0   0   0     0   0   0     0   0   0     0   0   0     0   0   0     0   0   0   124 123 105   123 122 105   123 121 106   121 120 106   117 115 103   116 114 102   118 116 104   118 116 104   124 122 109   123 121 106   116 115  95     0   0   0     0   0   0     0   0   0     0   0   0     0   0   0     0   0   0     0   0   0     0   0   0     0   0   0     0   0   0     0   0   0     0   0   0     0   0   0     0   0   0     0   0   0     0   0   0     0   0   0     0   0   0     0   0   0  
   0   0   0     0   0   0     0   0   0     0   0   0     0   0   0     0   0   0     0   0   0     0   0   0     0   0   0     0   0   0     0   0   0     0   0   0     0   0   0     0   0   0     0   0   0     0   0   0     0   0   0     0   0   0     0   0   0   121 119 104   121 120 102   119 118 101   120 118 104   121 119 107   118 115 106   115 112 103   118 115 106   122 119 110   106 103  92    86  84  69    69  68  50    62  61  40     0   0   0     0   0   0     0   0   0     0   0   0     0   0   0     0   0   0     0   0   0     0   0   0     0   0   0     0   0   0     0   0   0     0   0   0     0   0   0     0   0   0     0   0   0     0   0   0     0   0   0     0   0   0  
   0   0   0     0   0   0     0   0   0     0   0   0     0   0   0     0   0   0     0   0   0     0   0   0     0   0   0     0   0   0     0   0   0     0   0   0     0   0   0     0   0   0     0   0   0     0   0   0     0   0   0     0   0   0   123 121 110   120 118 105   118 119 102   115 115  98   116 117 102   119 120 108   116 116 108   109 108 101    96  95  90    67  67  60    51  51  40    43  44  30    46  48  31    52  54  33     0   0   0     0   0   0     0   0   0     0   0   0     0   0   0     0   0   0     0   0   0     0   0   0     0   0   0     0   0   0     0   0   0     0   0   0     0   0   0     0   0   0     0   0   0     0   0   0     0   0   0     0   0   0  
   0   0   0     0   0   0     0   0   0     0   0   0     0   0   0     0   0   0     0   0   0     0   0   0     0   0   0     0   0   0     0   0   0     0   0   0     0   0   0     0   0   0     0   0   0     0   0   0     0   0   0     0   0   0   121 119 107   118 116 103   117 118 102   116 117 102   121 121 108   124 124 113   118 118 110   108 107 102    92  91  86    58  57  51    40  40  31    40  41  28    50  51  35    52  54  35    50  52  30     0   0   0     0   0   0     0   0   0     0   0   0     0   0   0     0   0   0     0   0   0     0   0   0     0   0   0     0   0   0     0   0   0     0   0   0     0   0   0     0   0   0     0   0   0     0   0   0     0   0   0  
   0   0   0     0   0   0     0   0   0     0   0   0     0   0   0     0   0   0     0   0   0     0   0   0     0   0   0     0   0   0     0   0   0     0   0   0     0   0   0     0   0   0     0   0   0     0   0   0     0   0   0   114 114 104   114 114 104   114 114 102   115 115 101   123 123 108   133 133 121   135 135 126   128 127 121   121 120 116   114 113 109    91  90  85    62  62  54    50  50  39    55  56  42    56  57  38    54  56  34    51  53  31     0   0   0     0   0   0     0   0   0     0   0   0     0   0   0     0   0   0     0   0   0     0   0   0     0   0   0     0   0   0     0   0   0     0   0   0     0   0   0     0   0   0     0   0   0     0   0   0  
   0   0   0     0   0   0     0   0   0     0   0   0     0   0   0     0   0   0     0   0   0     0   0   0     0   0   0     0   0   0     0   0   0     0   0   0     0   0   0     0   0   0     0   0   0     0   0   0   112 112 104   109 109 101   110 110 102   112 112 104   112 112 102   129 129 119   144 145 137   145 146 140   138 139 133   135 136 131   145 146 141   141 142 137    90  91  84    55  57  45    45  47  33    46  49  31    51  54  33    53  58  33     0   0   0     0   0   0     0   0   0     0   0   0     0   0   0     0   0   0     0   0   0     0   0   0     0   0   0     0   0   0     0   0   0     0   0   0     0   0   0     0   0   0     0   0   0     0   0   0  
   0   0   0     0   0   0     0   0   0     0   0   0     0   0   0     0   0   0     0   0   0     0   0   0     0   0   0     0   0   0     0   0   0     0   0   0     0   0   0     0   0   0     0   0   0     0   0   0    98  97  94    98  97  95   104 103 101   110 109 109   114 114 114   132 132 132   146 146 146   138 138 138   124 124 124   128 128 126   144 146 141   151 154 148   127 130 121    97 101  88    64  71  55    44  51  34    42  50  30    44  53  28    54  65  33     0   0   0     0   0   0     0   0   0     0   0   0     0   0   0     0   0   0     0   0   0     0   0   0     0   0   0     0   0   0     0   0   0     0   0   0     0   0   0     0   0   0     0   0   0  
   0   0   0     0   0   0     0   0   0     0   0   0     0   0   0     0   0   0     0   0   0     0   0   0     0   0   0     0   0   0     0   0   0     0   0   0     0   0   0     0   0   0     0   0   0   102 101  97    95  94  92    96  95  93   103 102 102   111 109 110   114 114 114   118 119 119   118 120 118   106 108 105    94  96  91    99 102  95   114 118 108   124 130 118   118 124 111   108 115  99    82  91  72    52  61  40    34  44  21    37  50  20    48  62  26     0   0   0     0   0   0     0   0   0     0   0   0     0   0   0     0   0   0     0   0   0     0   0   0     0   0   0     0   0   0     0   0   0     0   0   0     0   0   0     0   0   0     0   0   0  
   0   0   0     0   0   0     0   0   0     0   0   0     0   0   0     0   0   0     0   0   0     0   0   0     0   0   0     0   0   0     0   0   0     0   0   0     0   0   0     0   0   0     0   0   0    92  92  87    88  90  85    95  96  91   109 110 105   121 122 116   114 114 105   109 110 100   104 106  95    98 100  89    99 101  88   110 112  98   121 124 106   123 128 108   126 131 110   132 137 114   122 131 104   101 110  83    85  94  65    88  99  63    98 110  70   106 118  78     0   0   0     0   0   0     0   0   0     0   0   0     0   0   0     0   0   0     0   0   0     0   0   0     0   0   0     0   0   0     0   0   0     0   0   0     0   0   0     0   0   0  
   0   0   0     0   0   0     0   0   0     0   0   0     0   0   0     0   0   0     0   0   0     0   0   0     0   0   0   112 115 104   106 109  98   109 112 101   119 122 111   118 121 110   110 113 102    97 100  89    88  91  80    89  92  81   100 102  92   111 113 100   114 115  97   112 114  93   108 110  89   103 107  85   107 110  87   117 121  95   126 131 103   130 137 107   132 139 108   142 149 116   146 153 120   137 147 112   131 141 105   112 123  82    96 109  65    83  96  52     0   0   0     0   0   0     0   0   0     0   0   0     0   0   0     0   0   0     0   0   0     0   0   0     0   0   0     0   0   0     0   0   0     0   0   0     0   0   0     0   0   0  
   0   0   0     0   0   0     0   0   0    65  66  58    82  83  75    96  98  89   102 105  96   112 115 104   119 122 111   119 123 109   114 119 104   112 116 102   112 116 101   103 106  91    95  99  83    87  91  74    83  87  70    88  93  73   100 105  83   111 116  93   111 114  84   121 122  90   128 131  98   131 135 102   136 140 106   145 148 113   152 156 119   151 157 119   139 145 107   130 137  97   117 124  83    94 102  61    78  86  44    80  89  44    74  83  36    61  70  23    57  65  19    56  65  20    58  67  22    62  71  26    59  68  25    58  67  24     0   0   0     0   0   0     0   0   0     0   0   0     0   0   0     0   0   0     0   0   0     0   0   0  
   0   0   0     0   0   0    61  64  54    72  75  64    83  87  73    91  95  81   100 106  91   112 119 102   111 118 101   106 113  95   103 111  90   104 112  90   105 113  90    94 102  78    90  99  72    93 103  75   102 111  81   114 123  92   128 138 105   142 149 115   147 151 111   155 158 115   157 160 117   150 155 111   144 150 106   139 145 102   133 139  95   119 126  82   101 109  63    90  98  51    81  89  42    71  79  32    67  76  29    61  71  22    60  70  20    64  74  24    67  77  28    67  76  29    61  70  23    57  66  19    56  65  20    57  66  21    58  67  22    55  64  19    52  61  16    51  60  15    52  59  18    52  58  21     0   0   0     0   0   0  
  67  73  61    58  65  50    66  73  56    79  86  68    83  91  70    91  99  78   101 109  86   100 109  84    97 107  80    92 102  75    92 103  73   100 111  81   108 119  86   124 136 100   133 144 107   136 148 108   138 151 110   141 154 111   144 157 113   149 159 114   136 142  94   136 138  91   130 132  85   123 126  79   119 123  73   111 115  65   101 106  56    90  97  46    76  83  33    68  74  26    66  72  24    65  71  23    69  77  28    68  76  28    68  74  28    63  69  23    56  62  16    57  63  17    62  68  22    64  70  24    52  58  12    53  59  13    53  59  15    50  56  12    47  53   9    48  54  10    49  56  14    51  58  18    51  57  19    51  57  19  
  48  56  35    42  50  26    56  65  39    72  80  53    72  81  52    84  93  64    99 108  77    99 111  76   112 124  87   119 130  93   122 134  96   127 140  99   132 145 102   132 145 100   134 149 100   138 152 101   138 152 100   135 149  96   130 145  90   129 142  88   124 131  79   114 116  66    97  99  49    87  91  40    85  89  38    75  79  28    65  70  19    65  72  21    65  72  21    69  77  25    66  73  22    54  61  10    46  54   4    49  56   9    57  63  19    60  66  22    54  60  16    54  60  16    55  62  18    52  58  14    53  59  15    54  60  16    55  61  17    53  59  15    55  61  17    58  64  20    57  63  22    51  57  18    51  57  19    52  58  20  
   0   0   0    81  92  59    92 103  68   102 113  78   110 122  84   117 129  91   125 138  96   137 150 105   141 154 108   133 146 100   126 140  91   131 145  94   136 150  98   136 150  96   140 155  99   131 146  87   126 141  81   121 137  75   100 116  53    96 107  47    88  92  39    85  87  37    80  82  32    75  78  28    72  76  26    71  75  25    68  72  22    63  69  20    62  68  20    59  65  17    56  62  14    54  61  14    55  63  16    52  58  16    54  59  19    55  60  20    54  59  19    54  59  19    56  61  21    56  61  21    58  63  23    55  60  20    53  58  18    51  56  16    52  57  17    54  59  19    54  59  19    51  58  17    50  58  17    53  60  19  
   0   0   0   113 127  83   123 136  92   127 140  95   129 142  96   132 146  97   133 147  95   132 147  93   137 152  97   134 149  94   132 147  90   137 152  94   139 154  95   135 151  90   134 150  87   115 131  68   100 116  51    89 105  40    66  83  16    62  74  12    64  71  17    65  68  19    64  67  18    61  65  17    59  62  15    57  60  13    55  61  13    57  63  16    58  64  18    56  62  16    55  61  15    53  61  15    56  64  19    54  60  21    57  61  25    58  62  26    55  59  22    55  59  22    55  60  23    55  59  22    56  60  23    54  58  21    53  57  19    52  57  17    52  57  17    53  58  18    53  59  18    51  58  17    50  58  17     0   0   0  
   0   0   0   129 142  91   134 147  94   133 146  92   132 145  91   135 148  92   137 151  91   138 152  91   140 155  94   137 151  90   136 150  88   136 150  88   132 146  84   115 130  66   106 121  56    88 103  38    76  91  24    69  84  17    56  71   4    56  68   5    54  61  10    57  61  16    60  63  18    59  62  17    55  61  15    53  59  13    53  59  15    56  62  18    55  63  19    55  62  18    54  61  17    55  61  20    57  64  22    56  62  24    58  64  29    58  64  29    54  60  26    54  60  26    54  60  26    53  59  23    52  58  22    52  58  22    52  58  22    51  57  21    51  57  19    51  57  19    51  58  17    51  58  16     0   0   0     0   0   0  
   0   0   0     0   0   0   132 146  87   132 145  85   134 149  88   138 152  91   139 153  90   136 151  86   131 146  81   123 138  73   117 132  67   110 125  60   101 116  51    82  97  32    74  89  24    63  78  14    58  72  11    60  74  12    57  71   9    61  73  14    56  62  15    61  63  21    61  66  22    59  65  21    58  64  20    58  64  20    57  64  22    58  65  23    58  65  23    57  64  22    55  62  20    53  62  19    53  62  20    52  60  23    55  62  28    56  62  28    53  59  25    53  59  25    54  60  25    53  59  23    49  55  19    50  56  20    52  58  21    52  58  20    51  57  19    51  57  19    50  57  15    50  57  15     0   0   0     0   0   0  
   0   0   0     0   0   0   127 138  78   131 142  81   133 145  83   128 140  78   123 135  71   118 130  65   107 118  53    96 106  43    88  98  37    81  91  30    71  81  21    66  76  16    64  74  14    57  66   9    53  62   7    53  62   7    51  60   5    51  59   7    55  61  17    56  61  21    55  61  20    51  58  17    51  58  17    53  60  19    55  62  21    55  62  21    54  63  20    53  62  19    53  62  19    50  62  19    51  60  18    49  57  19    51  58  23    52  59  24    50  59  22    51  59  22    53  60  24    52  60  21    47  55  16    48  56  17    51  59  20    52  60  20    51  59  18    51  59  18    50  58  15     0   0   0     0   0   0     0   0   0  
   0   0   0     0   0   0   125 137  75   128 140  76   123 135  70   107 119  55    97 109  44    94 105  39    83  93  29    75  85  23    73  83  22    69  79  20    64  73  16    63  72  16    61  70  17    59  67  16    56  64  15    55  63  15    54  62  15    53  60  16    54  59  18    53  60  19    52  59  18    48  56  15    48  55  14    51  58  17    51  59  18    47  56  14    47  56  13    47  58  15    50  61  18    50  62  19    50  61  18    47  56  16    49  58  20    51  59  22    50  58  19    50  58  19    52  60  20    52  60  19    48  56  15    49  57  16    51  60  17    53  62  19    53  62  19    53  62  17     0   0   0     0   0   0     0   0   0     0   0   0  
   0   0   0     0   0   0   127 137  76   122 132  71   110 120  59    95 105  44    85  95  33    78  87  24    70  78  17    67  75  15    68  76  17    68  76  20    67  74  21    62  69  18    59  65  17    59  65  19    59  65  22    59  64  23    61  66  26    62  67  27    51  57  19    54  61  22    54  62  21    51  60  18    50  58  17    52  61  18    53  62  18    46  56  13    45  56  13    48  59  14    51  63  17    51  64  18    51  63  18    48  57  16    51  59  19    52  60  20    50  58  17    50  58  17    52  60  19    51  60  17    49  58  15    50  59  15    52  61  16    53  62  17    54  63  18     0   0   0     0   0   0     0   0   0     0   0   0     0   0   0  
   0   0   0     0   0   0   109 119  59    96 106  46    84  94  34    77  87  27    73  83  23    65  75  15    59  68  11    58  67  10    60  69  14    59  67  15    58  66  16    59  67  19    56  63  19    55  62  20    51  58  18    48  54  16    51  57  20    51  57  19    46  52  14    51  57  18    54  62  21    52  61  20    50  58  17    52  61  18    53  63  20    52  63  20    51  62  19    52  64  18    54  66  20    53  66  20    51  63  19    50  60  18    54  62  21    54  62  21    51  59  18    50  59  17    50  60  17    50  59  16    50  59  14    51  60  14    52  61  14    53  62  15     0   0   0     0   0   0     0   0   0     0   0   0     0   0   0     0   0   0  
   0   0   0     0   0   0    91 100  43    79  88  32    68  77  22    65  74  21    62  71  18    60  68  18    57  66  16    56  64  15    54  62  13    51  59  13    50  57  13    53  60  17    56  63  22    55  62  22    50  56  18    47  53  15    49  55  17    54  61  22    45  53  14    49  57  16    55  63  22    55  62  21    50  58  17    49  57  16    51  60  18    52  60  19    50  57  16    49  57  16    50  58  17    51  59  18    51  59  18    54  62  23    55  61  25    52  58  22    50  56  18    51  57  18    52  59  18    52  59  18    54  61  19    56  63  21    59  66  22     0   0   0     0   0   0     0   0   0     0   0   0     0   0   0     0   0   0     0   0   0  
   0   0   0     0   0   0     0   0   0    67  76  23    61  69  18    57  65  15    54  62  14    55  64  18    54  63  18    54  63  18    53  62  17    50  60  15    50  59  16    51  60  18    53  61  20    54  62  21    50  58  19    48  56  17    49  57  18    53  61  22    47  55  14    49  57  16    52  60  19    51  60  18    48  56  15    47  55  14    47  55  14    48  56  15    49  57  15    50  58  17    51  59  18    53  61  21    56  64  23    57  63  24    57  63  27    57  63  27    58  65  28    61  67  29    63  69  29    64  71  30    66  73  31    64  71  29    59  66  23     0   0   0     0   0   0     0   0   0     0   0   0     0   0   0     0   0   0     0   0   0  
   0   0   0     0   0   0     0   0   0    58  65  17    58  66  19    55  63  16    50  58  11    51  60  13    51  60  14    51  60  15    51  60  15    50  60  15    50  59  16    50  59  16    51  59  18    50  58  17    50  58  17    50  58  17    50  59  19    51  59  20    52  60  19    52  60  19    52  60  19    52  60  19    51  59  18    49  57  16    47  55  14    49  57  16    52  60  19    53  61  20    53  61  20    55  63  22    59  67  26    60  66  27    59  65  27    60  66  28    60  65  28    59  65  27    58  65  25    57  64  23    68  75  34    66  73  32     0   0   0     0   0   0     0   0   0     0   0   0     0   0   0     0   0   0     0   0   0     0   0   0  
   0   0   0     0   0   0     0   0   0    56  64  17    58  65  20    57  64  20    51  59  15    48  57  11    49  58  12    49  58  13    49  58  13    49  58  13    48  57  14    49  58  15    48  57  14    48  56  15    50  57  16    52  60  19    51  59  20    49  57  18    57  65  24    55  63  22    54  62  21    55  63  22    58  66  25    56  64  23    53  61  20    55  63  22    58  66  25    59  67  26    56  64  23    56  64  23    60  68  27    63  69  30    65  71  33    67  73  35    67  73  35    66  72  34    64  71  31    63  70  29    62  69  28     0   0   0     0   0   0     0   0   0     0   0   0     0   0   0     0   0   0     0   0   0     0   0   0     0   0   0  
   0   0   0     0   0   0     0   0   0     0   0   0     0   0   0    56  63  22    52  60  18    49  58  13    49  58  13    48  57  12    47  56  11    47  56  11    47  56  13    49  58  15    49  58  15    47  56  13    50  59  16    54  62  21    52  61  20    50  58  17    58  66  25    57  65  24    56  64  23    58  66  25    62  70  29    62  69  29    58  65  25    59  67  26    63  71  30    63  71  30    60  68  27    60  67  26    63  71  30    61  68  27    62  69  28    65  72  31    67  74  34    69  75  37    70  75  38     0   0   0     0   0   0     0   0   0     0   0   0     0   0   0     0   0   0     0   0   0     0   0   0     0   0   0     0   0   0     0   0   0  
   0   0   0     0   0   0     0   0   0     0   0   0     0   0   0     0   0   0     0   0   0    53  62  18    51  60  15    49  58  13    48  57  12    49  58  14    50  59  16    53  62  19    53  62  19    51  60  17    53  61  19    56  64  23    55  63  22    54  62  21    55  63  22    58  66  25    57  65  24    58  66  25    63  71  30    64  72  30    59  67  26    60  68  27    63  71  30    65  73  32    64  72  31    65  72  31    67  75  34    73  80  39    76  83  42    77  84  43    74  81  40    72  78  40     0   0   0     0   0   0     0   0   0     0   0   0     0   0   0     0   0   0     0   0   0     0   0   0     0   0   0     0   0   0     0   0   0     0   0   0  
   0   0   0     0   0   0     0   0   0     0   0   0     0   0   0     0   0   0     0   0   0     0   0   0     0   0   0    51  60  17    51  60  17    55  64  21    58  67  24    60  69  25    59  68  25    57  66  23    57  66  23    59  68  25    60  68  26    60  68  27    58  65  23    63  71  30    63  70  29    61  68  27    65  72  31    67  74  32    63  70  29    63  70  29    64  70  30    65  72  31    66  73  32    66  73  32    66  73  32    64  69  29    64  69  29    64  68  31    62  65  29     0   0   0     0   0   0     0   0   0     0   0   0     0   0   0     0   0   0     0   0   0     0   0   0     0   0   0     0   0   0     0   0   0     0   0   0     0   0   0  
   0   0   0     0   0   0     0   0   0     0   0   0     0   0   0     0   0   0     0   0   0     0   0   0     0   0   0     0   0   0     0   0   0    59  68  25    65  74  31    65  74  31    64  73  30    62  71  28    60  69  26    61  70  27    62  70  29    65  73  32    62  69  28    70  77  36    70  77  36    66  72  31    68  74  34    69  76  34    66  73  32    66  73  32    65  72  31    65  72  31    65  72  31    63  70  29    60  67  26    64  70  30    71  75  38     0   0   0     0   0   0     0   0   0     0   0   0     0   0   0     0   0   0     0   0   0     0   0   0     0   0   0     0   0   0     0   0   0     0   0   0     0   0   0     0   0   0     0   0   0  
   0   0   0     0   0   0     0   0   0     0   0   0     0   0   0     0   0   0     0   0   0     0   0   0     0   0   0     0   0   0     0   0   0     0   0   0     0   0   0    63  71  32    60  68  27    63  70  30    69  77  36    66  74  33    64  72  30    68  76  35    69  75  37    69  75  37    66  72  34    61  67  30    64  69  32    68  74  36    70  76  38    75  81  43    75  81  43    75  81  43    83  89  51    99 105  67   112 118  80   122 126  89     0   0   0     0   0   0     0   0   0     0   0   0     0   0   0     0   0   0     0   0   0     0   0   0     0   0   0     0   0   0     0   0   0     0   0   0     0   0   0     0   0   0     0   0   0     0   0   0  
   0   0   0     0   0   0     0   0   0     0   0   0     0   0   0     0   0   0     0   0   0     0   0   0     0   0   0     0   0   0     0   0   0     0   0   0     0   0   0     0   0   0     0   0   0    62  70  31    65  73  32    62  70  29    59  67  26    63  71  32    65  71  33    68  75  38    71  77  41    73  79  43    80  86  50    87  93  57    92  98  62   102 108  72   113 119  83   125 131  95   138 144 108   152 158 122   160 166 130     0   0   0     0   0   0     0   0   0     0   0   0     0   0   0     0   0   0     0   0   0     0   0   0     0   0   0     0   0   0     0   0   0     0   0   0     0   0   0     0   0   0     0   0   0     0   0   0     0   0   0  
   0   0   0     0   0   0     0   0   0     0   0   0     0   0   0     0   0   0     0   0   0     0   0   0     0   0   0     0   0   0     0   0   0     0   0   0     0   0   0     0   0   0     0   0   0     0   0   0     0   0   0    74  82  45    77  85  48    84  92  55    93  98  64    99 103  70   104 108  75   109 113  80   117 121  88   124 128  95   126 130  97   130 134 101   137 141 108   141 145 112   142 146 113     0   0   0     0   0   0     0   0   0     0   0   0     0   0   0     0   0   0     0   0   0     0   0   0     0   0   0     0   0   0     0   0   0     0   0   0     0   0   0     0   0   0     0   0   0     0   0   0     0   0   0     0   0   0     0   0   0  
   0   0   0     0   0   0     0   0   0     0   0   0     0   0   0     0   0   0     0   0   0     0   0   0     0   0   0     0   0   0     0   0   0     0   0   0     0   0   0     0   0   0     0   0   0     0   0   0     0   0   0     0   0   0     0   0   0   107 114  80   110 114  82   116 119  88   120 123  92   121 124  93   125 129  97   128 131 100   127 130  99   127 130  99   129 132 101   130 133 102     0   0   0     0   0   0     0   0   0     0   0   0     0   0   0     0   0   0     0   0   0     0   0   0     0   0   0     0   0   0     0   0   0     0   0   0     0   0   0     0   0   0     0   0   0     0   0   0     0   0   0     0   0   0     0   0   0     0   0   0  
   0   0   0     0   0   0     0   0   0     0   0   0     0   0   0     0   0   0     0   0   0     0   0   0     0   0   0     0   0   0     0   0   0     0   0   0     0   0   0     0   0   0     0   0   0     0   0   0     0   0   0     0   0   0     0   0   0     0   0   0     0   0   0   118 121  94   120 123  96   119 122  95   120 123  96   121 124  97   119 122  95   122 125  98   126 129 102     0   0   0     0   0   0     0   0   0     0   0   0     0   0   0     0   0   0     0   0   0     0   0   0     0   0   0     0   0   0     0   0   0     0   0   0     0   0   0     0   0   0     0   0   0     0   0   0     0   0   0     0   0   0     0   0   0     0   0   0     0   0   0  
   0   0   0     0   0   0     0   0   0     0   0   0     0   0   0     0   0   0     0   0   0     0   0   0     0   0   0     0   0   0     0   0   0     0   0   0     0   0   0     0   0   0     0   0   0     0   0   0     0   0   0     0   0   0     0   0   0     0   0   0     0   0   0     0   0   0     0   0   0   124 127 100   126 129 102   127 130 103   125 128 101     0   0   0     0   0   0     0   0   0     0   0   0     0   0   0     0   0   0     0   0   0     0   0   0     0   0   0     0   0   0     0   0   0     0   0   0     0   0   0     0   0   0     0   0   0     0   0   0     0   0   0     0   0   0     0   0   0     0   0   0     0   0   0     0   0   0     0   0   0  
   0   0   0     0   0   0     0   0   0     0   0   0     0   0   0     0   0   0     0   0   0     0   0   0     0   0   0     0   0   0     0   0   0     0   0   0     0   0   0     0   0   0     0   0   0     0   0   0     0   0   0     0   0   0     0   0   0     0   0   0     0   0   0     0   0   0     0   0   0     0   0   0   123 125 103   125 127 105     0   0   0     0   0   0     0   0   0     0   0   0     0   0   0     0   0   0     0   0   0     0   0   0     0   0   0     0   0   0     0   0   0     0   0   0     0   0   0     0   0   0     0   0   0     0   0   0     0   0   0     0   0   0     0   0   0     0   0   0     0   0   0     0   0   0     0   0   0     0   0   0  
   0   0   0     0   0   0     0   0   0     0   0   0     0   0   0     0   0   0     0   0   0     0   0   0     0   0   0     0   0   0     0   0   0     0   0   0     0   0   0     0   0   0     0   0   0     0   0   0     0   0   0     0   0   0     0   0   0     0   0   0     0   0   0     0   0   0   124 126 104   122 124 102   123 125 103   123 125 103   122 125 102     0   0   0     0   0   0     0   0   0     0   0   0     0   0   0     0   0   0     0   0   0     0   0   0     0   0   0     0   0   0     0   0   0     0   0   0     0   0   0     0   0   0     0   0   0     0   0   0     0   0   0     0   0   0     0   0   0     0   0   0     0   0   0     0   0   0     0   0   0  
   0   0   0     0   0   0     0   0   0     0   0   0     0   0   0     0   0   0     0   0   0     0   0   0     0   0   0     0   0   0     0   0   0     0   0   0     0   0   0     0   0   0     0   0   0     0   0   0     0   0   0     0   0   0     0   0   0     0   0   0   122 121 101   124 121 102   125 122 103   125 122 103   125 124 104   125 124 104   127 126 106   129 128 108     0   0   0     0   0   0     0   0   0     0   0   0     0   0   0     0   0   0     0   0   0     0   0   0     0   0   0     0   0   0     0   0   0     0   0   0     0   0   0     0   0   0     0   0   0     0   0   0     0   0   0     0   0   0     0   0   0     0   0   0     0   0   0     0   0   0  
   0   0   0     0   0   0     0   0   0     0   0   0     0   0   0     0   0   0     0   0   0     0   0   0     0   0   0     0   0   0     0   0   0     0   0   0     0   0   0     0   0   0     0   0   0     0   0   0     0   0   0     0   0   0   120 123 102   123 125 104   124 123 103   125 122 103   126 123 104   127 124 105   127 124 105   127 126 106   127 126 106   129 128 108   128 129 109   130 132 111     0   0   0     0   0   0     0   0   0     0   0   0     0   0   0     0   0   0     0   0   0     0   0   0     0   0   0     0   0   0     0   0   0     0   0   0     0   0   0     0   0   0     0   0   0     0   0   0     0   0   0     0   0   0     0   0   0     0   0   0  
   0   0   0     0   0   0     0   0   0     0   0   0     0   0   0     0   0   0     0   0   0     0   0   0     0   0   0     0   0   0     0   0   0     0   0   0     0   0   0     0   0   0     0   0   0     0   0   0   123 125 104   123 125 104   122 124 103   125 125 105   127 124 105   127 124 105   128 125 106   129 125 107   129 126 107   129 128 108   129 128 108   130 129 109   129 130 110   130 132 111   131 133 112     0   0   0     0   0   0     0   0   0     0   0   0     0   0   0     0   0   0     0   0   0     0   0   0     0   0   0     0   0   0     0   0   0     0   0   0     0   0   0     0   0   0     0   0   0     0   0   0     0   0   0     0   0   0     0   0   0  
   0   0   0     0   0   0     0   0   0     0   0   0     0   0   0     0   0   0     0   0   0     0   0   0     0   0   0     0   0   0     0   0   0     0   0   0     0   0   0     0   0   0   121 123 102   121 123 102   124 126 105   124 126 105   123 125 104   125 127 106   128 127 107   129 126 107   130 127 108   130 128 109   131 128 109   131 130 110   130 130 110   131 130 110   130 130 110   130 132 111   132 134 113   133 135 114     0   0   0     0   0   0     0   0   0     0   0   0     0   0   0     0   0   0     0   0   0     0   0   0     0   0   0     0   0   0     0   0   0     0   0   0     0   0   0     0   0   0     0   0   0     0   0   0     0   0   0     0   0   0  
   0   0   0     0   0   0     0   0   0     0   0   0     0   0   0     0   0   0     0   0   0     0   0   0     0   0   0     0   0   0     0   0   0     0   0   0   120 121 103   122 123 105   121 122 104   122 123 105   124 125 107   123 124 106   123 124 105   126 125 107   130 127 110   130 127 110   131 128 111   131 129 112   132 131 113   132 131 113   131 130 113   130 131 113   130 131 113   131 132 114   132 133 115   133 135 116   134 136 117   137 135 120     0   0   0     0   0   0     0   0   0     0   0   0     0   0   0     0   0   0     0   0   0     0   0   0     0   0   0     0   0   0     0   0   0     0   0   0     0   0   0     0   0   0     0   0   0     0   0   0  
   0   0   0     0   0   0     0   0   0     0   0   0     0   0   0     0   0   0     0   0   0     0   0   0     0   0   0     0   0   0   116 117  99   120 121 102   122 123 105   123 124 106   122 123 105   122 123 105   124 125 107   123 124 106   122 123 105   124 125 107   130 129 111   131 128 111   132 129 112   132 130 113   132 131 113   133 132 114   132 132 114   131 132 114   132 133 115   133 134 116   133 134 116   134 136 117   134 137 119   135 137 120   137 135 120     0   0   0     0   0   0     0   0   0     0   0   0     0   0   0     0   0   0     0   0   0     0   0   0     0   0   0     0   0   0     0   0   0     0   0   0     0   0   0     0   0   0     0   0   0  
   0   0   0     0   0   0     0   0   0     0   0   0     0   0   0     0   0   0     0   0   0     0   0   0   120 120 103   117 118 100   117 118 100   121 122 105   123 124 106   124 125 107   123 124 106   123 124 106   125 126 108   124 125 107   123 124 106   125 126 108   129 127 112   130 128 113   131 129 114   131 129 114   132 130 115   131 132 116   131 132 116   133 134 118   132 135 118   133 136 119   133 136 119   134 137 120   135 138 121   135 137 122   135 135 123   135 135 123     0   0   0     0   0   0     0   0   0     0   0   0     0   0   0     0   0   0     0   0   0     0   0   0     0   0   0     0   0   0     0   0   0     0   0   0     0   0   0     0   0   0  
   0   0   0     0   0   0     0   0   0     0   0   0     0   0   0     0   0   0   116 118  99   119 120 102   121 122 104   118 119 101   117 118 100   122 123 105   124 125 107   125 126 108   125 126 108   125 126 108   126 127 109   125 126 108   124 125 107   126 127 109   129 127 112   129 127 112   131 129 114   131 129 114   132 130 115   130 131 115   131 132 116   134 135 119   133 135 119   133 136 119   134 137 120   135 138 121   135 138 122   135 136 124   135 135 123   135 135 123   135 135 123     0   0   0     0   0   0     0   0   0     0   0   0     0   0   0     0   0   0     0   0   0     0   0   0     0   0   0     0   0   0     0   0   0     0   0   0     0   0   0  
   0   0   0     0   0   0     0   0   0     0   0   0   116 119 102   119 121 104   117 118 102   120 121 103   120 121 103   120 121 103   124 125 107   128 129 111   127 128 110   125 126 108   126 127 109   127 128 110   128 129 111   128 129 111   126 127 109   126 127 109   129 127 112   130 128 115   132 130 117   132 132 118   134 135 121   135 136 122   135 137 123   135 137 123   135 137 123   135 137 123   135 137 123   134 136 122   134 137 122   135 136 123   136 136 124   135 135 123   135 135 123   136 136 124   137 137 124     0   0   0     0   0   0     0   0   0     0   0   0     0   0   0     0   0   0     0   0   0     0   0   0     0   0   0     0   0   0     0   0   0  
   0   0   0     0   0   0   110 113  96   111 114  97   116 119 102   120 121 105   119 120 103   122 123 105   122 123 105   121 122 104   124 125 107   127 128 110   126 127 109   124 125 107   125 126 108   126 127 109   127 128 110   128 129 111   128 129 111   128 129 113   130 128 115   131 129 116   133 131 118   132 132 119   133 134 120   134 135 121   135 136 122   134 136 122   134 136 122   134 136 122   135 137 123   135 137 123   134 138 123   135 137 124   136 136 124   135 135 123   135 135 123   136 136 124   137 137 124   138 139 125     0   0   0     0   0   0     0   0   0     0   0   0     0   0   0     0   0   0     0   0   0     0   0   0     0   0   0     0   0   0  
   0   0   0     0   0   0   112 113  97   115 116 100   118 119 103   120 121 107   122 123 108   124 125 109   124 125 109   123 124 108   124 125 109   126 127 111   125 126 110   124 125 109   124 125 109   125 126 110   126 127 111   128 129 113   130 130 115   131 132 116   130 131 117   130 130 118   132 132 120   132 132 120   133 133 121   133 135 122   133 135 122   133 135 122   132 135 122   133 137 123   133 137 123   134 138 124   135 139 125   135 138 125   135 137 124   135 137 124   134 136 123   136 138 124   137 139 125   137 139 125   136 139 122     0   0   0     0   0   0     0   0   0     0   0   0     0   0   0     0   0   0     0   0   0     0   0   0     0   0   0  
   0   0   0     0   0   0   113 114  98   118 119 103   119 120 104   120 121 107   123 124 109   124 125 109   125 126 110   124 125 109   124 125 109   127 128 112   126 127 111   125 127 110   125 126 110   125 126 110   125 126 110   127 128 112   129 130 114   131 132 116   132 133 119   132 132 120   132 132 120   133 133 120   133 133 121   132 134 121   132 134 121   132 134 121   132 135 122   132 136 122   133 137 123   134 138 124   135 139 125   135 138 125   136 138 125   135 137 124   135 137 123   136 138 124   137 139 125   138 141 124   137 140 123     0   0   0     0   0   0     0   0   0     0   0   0     0   0   0     0   0   0     0   0   0     0   0   0     0   0   0  
   0   0   0     0   0   0   115 116 100   119 120 105   120 121 107   121 122 108   123 124 110   123 124 108   125 125 110   124 125 109   125 126 110   128 129 113   129 130 114   129 130 114   128 129 113   127 128 112   127 128 112   128 129 113   129 130 114   130 131 117   133 133 121   133 133 121   133 133 121   133 133 121   133 133 121   132 134 121   132 134 121   132 134 121   132 135 122   133 137 123   134 138 124   135 139 125   135 139 125   136 139 125   136 138 124   136 138 124   135 137 123   137 139 124   138 140 124   138 141 124   137 140 123   137 140 121     0   0   0     0   0   0     0   0   0     0   0   0     0   0   0     0   0   0     0   0   0     0   0   0  
   0   0   0     0   0   0   117 118 102   118 119 105   121 122 108   123 124 110   123 124 110   124 125 109   126 127 111   126 127 111   126 127 111   128 130 113   130 131 115   130 130 115   130 131 115   129 130 114   129 130 114   129 130 114   129 130 114   129 130 116   133 133 121   133 133 121   133 133 121   134 134 122   134 134 122   133 135 122   133 135 122   134 136 123   133 137 123   134 138 124   134 138 124   135 139 125   135 139 125   136 139 125   137 139 125   136 138 124   136 138 123   137 140 123   138 140 124   139 142 125   136 139 120   137 140 121   138 141 122     0   0   0     0   0   0     0   0   0     0   0   0     0   0   0     0   0   0     0   0   0  
   0   0   0     0   0   0   118 119 103   117 118 103   121 122 108   126 124 112   125 123 110   126 127 111   128 129 113   127 128 112   126 127 111   127 128 112   129 130 114   128 129 113   129 130 114   130 131 115   131 132 116   131 132 116   131 132 116   131 132 118   133 133 121   133 133 123   134 134 124   133 135 124   134 136 125   134 136 125   134 136 125   134 137 126   134 137 126   135 138 127   135 138 127   134 138 127   134 139 126   137 140 125   137 140 123   137 140 123   136 139 122   138 141 124   139 142 123   139 142 123   135 138 119   136 139 120   138 141 120     0   0   0     0   0   0     0   0   0     0   0   0     0   0   0     0   0   0     0   0   0  
   0   0   0     0   0   0     0   0   0   116 117 103   121 121 109   127 125 114   125 123 111   128 129 114   130 131 115   128 129 113   125 126 110   126 127 111   127 128 112   126 127 111   128 129 113   130 131 115   132 133 117   133 134 118   133 134 118   133 134 120   132 132 120   133 133 121   134 134 123   134 135 125   134 136 125   135 137 126   135 137 126   136 139 128   135 138 127   135 138 127   135 138 127   135 139 125   135 139 125   137 140 124   137 140 123   137 140 123   136 139 122   138 141 124   139 142 123   139 142 123   134 137 118   136 138 119   138 141 120   139 142 121     0   0   0     0   0   0     0   0   0     0   0   0     0   0   0     0   0   0  
   0   0   0     0   0   0     0   0   0   121 119 107   127 124 114   123 120 111   126 125 113   125 126 112   127 129 115   124 126 112   125 127 113   128 130 116   126 128 114   127 129 115   130 132 118   130 132 118   131 133 119   132 134 120   132 134 120   133 135 121   133 136 119   133 135 120   133 135 122   134 135 123   134 136 125   134 136 125   135 136 127   136 138 128   137 139 128   137 139 126   137 139 126   138 140 125   138 141 124   137 140 122   138 139 121   139 140 122   139 140 122   140 141 123   140 142 124   141 142 124   141 142 124   140 140 123   139 140 122   137 138 120     0   0   0     0   0   0     0   0   0     0   0   0     0   0   0     0   0   0  
   0   0   0     0   0   0     0   0   0   125 123 114   120 117 108   119 116 107   128 127 115   130 131 118   129 131 117   124 126 112   122 124 110   124 126 112   129 131 117   129 131 117   130 132 118   130 132 118   131 133 119   132 134 120   132 134 120   133 135 121   133 136 119   133 135 120   134 136 122   134 136 123   134 136 125   135 136 128   135 136 128   136 137 129   137 138 128   137 139 126   137 139 125   138 140 125   138 141 123   138 140 121   139 140 122   139 140 122   139 140 122   139 140 122   139 140 122   140 141 123   141 142 124   140 140 123   139 140 122   138 139 121   139 140 122     0   0   0     0   0   0     0   0   0     0   0   0     0   0   0  
   0   0   0     0   0   0     0   0   0   121 117 106   123 119 108   124 120 109   128 126 114   127 128 115   127 129 115   126 128 115   123 125 112   122 124 111   129 131 118   130 132 119   130 132 119   130 132 119   131 133 120   132 134 121   132 134 121   133 135 121   134 137 120   134 137 121   134 136 122   135 137 123   135 137 126   135 136 128   136 137 129   136 137 129   137 138 128   137 139 126   137 139 125   138 140 125   138 141 124   139 140 124   139 140 124   139 140 124   139 140 124   138 139 123   138 139 123   138 139 123   140 141 125   140 141 125   140 141 125   140 140 125   140 141 125   141 142 126     0   0   0     0   0   0     0   0   0     0   0   0  
   0   0   0     0   0   0     0   0   0    93  90  79   125 121 110   136 132 121   127 126 114   120 121 109   122 124 111   127 129 116   127 129 117   124 126 113   127 129 116   129 131 118   130 132 119   130 132 119   131 133 120   132 134 121   132 134 121   133 135 122   134 136 122   135 138 121   135 137 124   135 137 125   136 138 127   136 137 129   136 137 129   136 137 129   137 138 128   137 139 128   137 139 126   138 140 125   138 141 124   139 140 124   139 140 124   139 140 124   138 139 123   138 139 123   137 138 122   137 138 122   138 139 123   138 139 123   139 140 124   140 140 125   140 141 125   141 142 126     0   0   0     0   0   0     0   0   0     0   0   0  
   0   0   0     0   0   0     0   0   0    57  53  41   100  96  84   130 126 114   128 126 114   123 124 112   121 123 110   125 127 114   129 131 118   128 130 117   128 130 117   129 131 118   130 132 119   130 132 119   131 133 120   132 134 121   132 134 121   133 135 122   135 137 123   135 137 123   135 137 124   135 138 126   136 138 127   136 138 127   136 138 127   136 138 127   137 139 128   137 139 128   137 139 126   138 140 127   138 140 126   139 140 125   139 140 124   139 140 124   138 139 123   138 139 123   137 138 122   137 138 122   136 137 121   137 138 122   138 139 123   139 140 124   139 140 124   139 140 124   139 140 126     0   0   0     0   0   0     0   0   0  
   0   0   0    34  32  20    34  31  19    33  29  17    55  52  40    94  90  78   117 116 103   127 128 116   125 126 113   122 124 111   124 126 113   130 131 118   131 133 120   130 131 118   130 132 119   130 132 119   131 133 120   132 134 121   132 134 121   133 135 122   135 137 123   135 137 123   135 137 124   135 138 126   136 138 127   136 138 127   136 138 127   136 138 127   137 139 128   137 139 128   137 139 126   138 140 127   138 140 126   139 140 125   139 140 124   139 140 124   139 140 124   138 139 123   138 139 123   138 139 123   136 137 121   137 138 122   138 139 123   138 139 123   138 139 123   138 139 123   137 138 125   138 140 128   138 140 129     0   0   0  
  23  23  11    38  36  23    38  36  23    33  29  17    30  26  14    50  47  32    86  85  72   113 114 103   124 126 115   122 124 113   122 124 113   129 131 120   131 133 122   129 131 120   130 132 121   130 132 121   131 133 122   132 134 123   132 134 123   133 135 124   134 136 123   134 136 123   135 137 124   135 137 125   136 138 127   136 138 127   136 138 127   136 138 127   137 139 128   137 139 128   137 139 126   138 140 127   138 140 127   138 139 126   139 140 126   139 140 126   139 140 126   139 140 126   139 140 126   140 141 127   138 139 125   138 139 125   139 140 126   139 140 126   138 139 125   137 138 124   136 138 124   138 140 128   139 140 130   139 141 130  
  37  39  26    33  34  21    33  32  19    43  40  28    29  27  14    21  19   5    54  53  40    91  92  81   119 121 109   125 127 116   122 124 113   127 130 118   127 129 118   127 129 118   130 132 121   130 132 121   131 133 122   132 134 123   132 134 123   133 135 124   134 136 123   134 136 123   135 137 124   135 137 125   135 137 126   136 138 127   136 138 127   136 138 127   137 139 128   137 139 128   137 139 126   138 140 127   138 140 127   138 139 126   138 139 125   139 140 126   139 140 126   140 141 127   140 142 128   141 142 128   139 140 126   140 141 127   140 141 127   140 141 127   139 140 126   137 138 124   136 137 125   138 140 129   139 140 130   139 141 130  
