P3
50 50
255
 141 144 151   139 142 149     0   0   0     0   0   0     0   0   0     0   0   0     0   0   0     0   0   0     0   0   0     0   0   0     0   0   0     0   0   0     0   0   0     0   0   0     0   0   0     0   0   0     0   0   0     0   0   0     0   0   0     0   0   0     0   0   0     0   0   0     0   0   0     0   0   0     0   0   0     0   0   0     0   0   0     0   0   0     0   0   0     0   0   0     0   0   0     0   0   0     0   0   0     0   0   0     0   0   0     0   0   0     0   0   0     0   0   0     0   0   0     0   0   0     0   0   0     0   0   0     0   0   0     0   0   0     0   0   0     0   0   0   130 134 143   130 134 145   130 134 143   129 133 142  
 139 142 149   135 138 145   136 139 146     0   0   0     0   0   0     0   0   0     0   0   0     0   0   0     0   0   0     0   0   0     0   0   0     0   0   0     0   0   0     0   0   0     0   0   0     0   0   0     0   0   0     0   0   0     0   0   0     0   0   0     0   0   0     0   0   0     0   0   0     0   0   0     0   0   0     0   0   0     0   0   0     0   0   0     0   0   0     0   0   0     0   0   0     0   0   0     0   0   0     0   0   0     0   0   0     0   0   0     0   0   0     0   0   0     0   0   0     0   0   0     0   0   0     0   0   0     0   0   0     0   0   0   131 135 144   131 135 144   130 135 144   130 134 145   130 134 143   129 133 142  
 139 139 147   136 136 144   136 136 144     0   0   0     0   0   0     0   0   0     0   0   0     0   0   0     0   0   0     0   0   0     0   0   0     0   0   0     0   0   0     0   0   0     0   0   0     0   0   0     0   0   0     0   0   0     0   0   0     0   0   0     0   0   0     0   0   0     0   0   0     0   0   0     0   0   0     0   0   0     0   0   0     0   0   0     0   0   0     0   0   0     0   0   0     0   0   0     0   0   0     0   0   0     0   0   0     0   0   0     0   0   0     0   0   0     0   0   0     0   0   0     0   0   0     0   0   0   131 135 144   130 135 144   132 136 145   132 136 144   129 133 142   128 132 143   127 131 141   127 131 140  
 136 136 144   134 134 142   134 134 142   137 137 145     0   0   0     0   0   0     0   0   0     0   0   0     0   0   0     0   0   0     0   0   0     0   0   0     0   0   0     0   0   0     0   0   0     0   0   0     0   0   0     0   0   0     0   0   0     0   0   0     0   0   0     0   0   0     0   0   0     0   0   0     0   0   0   120 123 138   118 121 136   118 121 136     0   0   0     0   0   0     0   0   0     0   0   0     0   0   0     0   0   0     0   0   0     0   0   0     0   0   0     0   0   0     0   0   0     0   0   0   131 135 144   132 136 145   131 135 144   130 134 143   132 136 145   131 135 144   128 132 142   127 131 142   128 132 141     0   0   0  
 132 132 140   130 130 139   131 131 139   132 132 140   133 133 141   130 131 139     0   0   0     0   0   0     0   0   0     0   0   0     0   0   0     0   0   0     0   0   0     0   0   0     0   0   0     0   0   0     0   0   0     0   0   0     0   0   0     0   0   0     0   0   0     0   0   0     0   0   0   118 122 134   121 125 137   120 124 136   119 123 135   117 121 133   118 122 134   119 123 135   120 124 136   121 125 137   122 126 138   121 125 136     0   0   0     0   0   0     0   0   0     0   0   0   127 131 142   128 132 143   130 134 145   132 136 147   131 135 146   129 133 144   130 134 145   130 134 145   127 131 142   127 131 142     0   0   0     0   0   0  
 128 128 136   126 126 134   126 126 134   127 127 135   128 128 136   125 126 134   121 124 131   118 121 130     0   0   0     0   0   0     0   0   0     0   0   0     0   0   0     0   0   0     0   0   0     0   0   0     0   0   0     0   0   0     0   0   0     0   0   0     0   0   0   112 116 127   114 118 129   117 121 132   120 124 135   119 123 134   118 122 133   117 121 132   117 121 132   118 122 133   119 123 134   121 125 136   122 126 137   122 126 137   122 126 137   124 128 139   126 130 141   127 131 142   127 131 142   127 131 142   129 133 144   131 135 146   131 135 146   128 132 143   129 133 144   129 133 144   127 131 142     0   0   0     0   0   0     0   0   0  
 122 125 132   120 124 130   120 123 130   120 123 130   120 123 130   119 122 129   118 121 129   117 120 129   117 120 129   117 120 129     0   0   0     0   0   0     0   0   0     0   0   0     0   0   0     0   0   0     0   0   0     0   0   0     0   0   0   107 120 129   112 119 129   114 118 129   116 120 131   117 121 132   118 122 133   117 121 132   116 120 131   117 121 132   117 121 132   117 121 132   118 122 133   120 123 135   122 126 137   122 126 137   123 127 138   125 129 140   127 131 142   128 132 143   127 131 142   127 131 142   128 132 143   131 135 146   131 135 146   127 131 142   128 132 143   129 133 144     0   0   0     0   0   0     0   0   0     0   0   0  
 119 122 129   118 120 128   117 120 127   116 119 126   116 119 126   116 119 126   115 119 126   116 119 128   117 120 129   117 120 129   118 118 130   117 117 129     0   0   0     0   0   0     0   0   0     0   0   0     0   0   0   111 122 132   107 121 130   107 120 129   114 121 129   116 120 129   117 121 130   118 122 130   118 122 131   116 120 129   115 119 128   117 121 130   116 120 129   116 120 129   117 121 130   120 123 132   122 126 135   123 127 137   124 128 139   126 130 141   128 132 143   128 132 143   127 131 142   127 131 142   128 132 143   131 136 146   132 136 147   128 132 143   128 132 143     0   0   0     0   0   0     0   0   0     0   0   0     0   0   0  
 116 121 127   115 120 127   114 119 125   113 116 123   113 116 123   113 116 123   113 116 124   113 116 125   116 119 128   117 120 129   118 118 130   117 117 129   119 119 131   118 120 132     0   0   0   116 122 134   114 123 134   112 123 133   108 122 133   108 121 130   113 120 128   115 120 126   116 121 127   118 123 129   119 124 130   118 123 129   116 121 127   117 122 128   115 120 126   115 120 126   116 121 127   119 124 130   122 126 134   123 127 137   125 129 140   127 131 142   128 132 143   129 133 144   127 131 142   126 130 141   128 132 143   132 136 147   132 136 147   128 132 143     0   0   0     0   0   0     0   0   0     0   0   0     0   0   0     0   0   0  
 115 120 126   115 120 125   113 118 125   112 115 124   111 114 123   112 115 124   112 115 124   112 115 124   115 118 127   117 120 129   116 118 130   116 118 130   118 120 132   118 120 133   117 121 133   116 122 134   115 123 134   114 124 134   111 122 134   111 121 131   111 120 127   112 119 125   114 121 127   118 123 129   120 125 131   120 125 131   118 123 129   117 122 128   115 120 126   115 120 126   116 121 127   118 123 130   121 126 132   123 127 135   125 129 138   127 131 140   129 133 142   128 134 142   126 132 141   124 131 141   126 133 143   132 136 147   133 137 148     0   0   0     0   0   0     0   0   0     0   0   0     0   0   0     0   0   0     0   0   0  
 116 119 128   115 119 128   115 117 128   113 115 127   113 115 127   112 114 126   112 114 125   112 116 125   113 117 125   115 119 128   116 120 129   117 120 130   117 120 131   117 121 132   119 123 134   119 124 136   115 121 133   114 120 132   115 121 133   117 125 135   112 123 129   110 120 125   112 121 126   116 124 130   121 126 132   118 122 129   116 119 126   116 119 126   116 119 126   117 120 127   117 122 128   119 124 130   121 126 132   123 128 134   124 128 137   123 130 138   125 132 140   126 134 141   125 134 141   125 134 141   125 134 141   127 134 142     0   0   0     0   0   0     0   0   0     0   0   0     0   0   0     0   0   0     0   0   0     0   0   0  
 116 119 128   115 118 128   115 117 129   114 116 129   113 115 128   112 114 127   112 114 125   112 116 125   113 117 126   116 120 129   117 121 130   117 121 131   117 121 132   118 122 133   119 123 134   119 123 135   118 122 134   117 121 133   118 122 134   119 126 136   112 124 129   109 122 125   111 122 126   115 124 129   118 125 131   117 122 128   116 118 126   119 119 127   118 120 128   118 121 128   119 124 130   121 126 131   123 128 134   124 129 135   125 130 136   124 131 137   125 132 138   125 134 139   124 135 139   124 135 139   125 134 141     0   0   0     0   0   0     0   0   0     0   0   0     0   0   0     0   0   0     0   0   0     0   0   0     0   0   0  
 115 119 128   114 118 127   114 118 129   113 117 129   112 116 128   112 116 128   112 116 128   113 117 127   114 118 127   116 120 129   117 121 130   118 122 131   118 122 133   118 122 133   118 122 133   119 123 135   118 122 134   118 122 134   119 123 135   120 127 137   114 126 132   111 124 127   112 122 127   115 123 128   119 124 130   117 120 127   116 119 126   119 122 129   119 122 129   120 123 130   121 126 132   122 127 133   123 130 136   125 130 137   126 131 137   125 132 138   125 133 139   126 135 140   125 135 139   124 135 139     0   0   0     0   0   0     0   0   0     0   0   0     0   0   0     0   0   0     0   0   0     0   0   0     0   0   0     0   0   0  
 114 118 127   114 118 127   114 118 129   113 117 129   113 117 129   112 116 128   112 116 127   114 118 127   115 119 128   117 121 130   118 122 131   119 123 132   119 123 134   118 122 133   118 122 133   118 122 134   118 122 134   120 124 136   121 125 137   121 128 138   115 127 132   112 125 129   114 124 128   115 122 128   117 122 128   116 119 126   115 118 125   119 122 129   120 123 130   121 124 131   122 127 133   123 128 135   123 130 136   126 131 137   127 132 138   126 133 139   125 133 139   125 134 139   124 135 139     0   0   0     0   0   0     0   0   0     0   0   0     0   0   0     0   0   0     0   0   0     0   0   0     0   0   0     0   0   0     0   0   0  
 112 119 127   112 119 127   112 119 129   112 118 130   111 117 129   111 117 129   112 117 129   115 119 129   115 120 129   118 122 131   119 123 132   119 123 132   119 123 134   118 122 133   118 122 133   117 121 133   118 122 134   120 124 136   122 125 138   120 127 137   116 125 132   114 124 130   114 123 130   114 121 129   115 119 128   115 118 127   115 118 127   118 121 130   119 122 130   121 124 133   122 126 135   124 128 137   123 130 138   126 131 140   128 132 141   125 132 138   125 132 138   124 133 138     0   0   0     0   0   0     0   0   0     0   0   0     0   0   0     0   0   0     0   0   0     0   0   0     0   0   0     0   0   0     0   0   0     0   0   0  
 112 119 127   112 119 127   112 119 129   112 118 130   112 118 130   112 118 130   112 119 128   115 119 128   115 120 129   118 122 131   119 123 132   119 123 132   119 123 134   119 123 134   118 122 133   117 121 133   117 121 133   120 124 136   120 125 137   119 126 136   115 124 131   113 123 130   113 122 129   112 120 127   114 118 127   115 118 127   116 118 127   118 121 130   119 122 131   121 125 134   123 127 136   123 130 138   124 131 139   127 132 140   127 131 140   125 132 138   123 131 137   122 131 136     0   0   0     0   0   0     0   0   0     0   0   0     0   0   0     0   0   0     0   0   0     0   0   0     0   0   0     0   0   0     0   0   0     0   0   0  
 111 120 127   111 120 127   111 120 129   111 120 129   111 120 129   111 119 130   112 118 130   115 119 129   115 120 129   118 122 131   119 123 132   119 123 132   119 123 134   120 124 135   118 122 133   116 120 132   117 121 133   119 123 135   119 123 135   117 123 135   113 122 131   112 122 129   112 120 128   113 117 126   113 117 126   115 118 127   116 119 128   119 122 131   120 123 132   123 127 136   125 129 138   125 132 140   126 133 141   127 132 141   128 131 140   125 129 138   123 128 137     0   0   0     0   0   0     0   0   0     0   0   0     0   0   0     0   0   0     0   0   0     0   0   0     0   0   0     0   0   0     0   0   0     0   0   0     0   0   0  
 111 120 127   111 120 127   111 120 129   111 120 129   111 120 129   111 119 130   112 120 129   114 119 128   115 120 129   118 122 131   119 123 132   119 123 132   119 123 134   120 124 135   119 123 134   116 120 132   116 121 132   119 123 135   118 122 134   115 122 132   112 121 128   111 121 128   111 119 127   112 116 125   112 116 125   114 117 126   117 120 129   120 123 132   121 125 134   124 129 138   125 132 140   125 134 141   127 135 142   127 132 141   127 130 139   124 128 137     0   0   0     0   0   0     0   0   0     0   0   0     0   0   0     0   0   0     0   0   0     0   0   0     0   0   0     0   0   0     0   0   0     0   0   0     0   0   0     0   0   0  
 109 118 127   109 118 127   110 119 128   110 120 129   112 121 130   112 121 130   113 119 129   115 119 128   118 122 131   120 124 133   119 123 132   118 122 132   120 124 135   118 122 133   116 120 131   115 119 131   115 119 131   115 119 131   115 120 132   115 121 133   111 120 129   110 119 126   111 118 126   110 116 124   111 115 124   112 115 124   114 117 126   121 124 133   124 128 137   126 130 139   124 131 139   125 134 141   124 133 140   124 130 140   126 128 140   124 128 139     0   0   0     0   0   0     0   0   0     0   0   0     0   0   0     0   0   0     0   0   0     0   0   0     0   0   0     0   0   0     0   0   0     0   0   0     0   0   0     0   0   0  
 109 118 127   109 118 127   110 119 128   110 120 129   112 121 130   112 121 130   114 120 130   116 120 129   118 122 131   119 123 132   118 122 131   118 122 132   120 124 135   118 122 133   116 120 131   116 120 132   115 119 131   116 120 132   116 120 132   117 121 133   113 120 129   110 119 126   110 117 125   110 115 124   111 115 124   113 116 125   115 118 127   121 124 133   124 128 137   124 131 139   123 132 139   124 133 140   124 134 140   124 130 140   126 128 140     0   0   0     0   0   0     0   0   0     0   0   0     0   0   0     0   0   0     0   0   0     0   0   0     0   0   0     0   0   0     0   0   0     0   0   0     0   0   0     0   0   0     0   0   0  
 110 117 127   111 118 128   112 119 129   113 120 130   113 120 130   114 121 131   115 120 130   117 121 130   119 123 132   119 123 132   118 122 131   117 121 131   118 122 133   117 121 132   117 121 132   116 120 132   115 119 131   116 120 132   117 120 133   117 121 133   114 121 131   112 118 128   111 115 126   110 113 125   112 114 126   114 116 128   117 119 131   121 123 135   124 128 139   125 129 140   124 131 141   124 133 142   124 133 142   124 130 141   126 128 141     0   0   0     0   0   0     0   0   0     0   0   0     0   0   0     0   0   0     0   0   0     0   0   0     0   0   0     0   0   0     0   0   0     0   0   0     0   0   0     0   0   0     0   0   0  
 111 118 128   111 118 128   112 119 129   113 120 130   114 121 131   114 121 131   115 121 131   118 122 131   119 123 132   119 123 132   118 122 131   117 121 131   118 122 133   118 122 133   117 121 132   117 121 133   116 120 132   117 121 133   117 121 133   118 122 134   115 122 132   113 119 129   111 115 126   110 113 125   113 115 127   115 117 129   118 120 132   122 124 136   125 129 140   123 130 140   122 131 140   123 133 142   123 133 142   124 130 141     0   0   0     0   0   0     0   0   0     0   0   0     0   0   0     0   0   0     0   0   0     0   0   0     0   0   0     0   0   0     0   0   0     0   0   0     0   0   0     0   0   0     0   0   0     0   0   0  
 114 118 129   114 118 129   115 119 130   115 120 130   116 120 131   117 121 132   117 121 132   119 123 132   118 122 131   118 122 131   118 122 131   118 122 131   118 122 133   118 122 133   118 122 133   117 121 133   117 121 133   117 121 133   118 122 134   118 122 134   115 122 132   113 119 129   111 115 126   111 114 125   114 116 128   116 118 130   119 121 133   123 125 137   125 129 140   123 130 140   122 131 140   122 132 141   123 133 142     0   0   0     0   0   0     0   0   0     0   0   0     0   0   0     0   0   0     0   0   0     0   0   0     0   0   0     0   0   0     0   0   0     0   0   0     0   0   0     0   0   0     0   0   0     0   0   0     0   0   0  
 114 118 129   114 118 129   115 119 130   115 120 130   117 121 132   117 121 132   118 122 133   119 123 132   117 121 130   117 121 130   118 122 131   119 123 132   119 123 134   119 123 134   118 122 133   118 122 134   117 121 133   118 122 134   118 122 134   119 123 135   114 121 131   113 119 129   113 117 128   113 115 127   115 117 129   117 119 131   119 121 133   123 126 138   124 130 140   121 130 139   120 130 139   122 132 141   122 133 142     0   0   0     0   0   0     0   0   0     0   0   0     0   0   0     0   0   0     0   0   0     0   0   0     0   0   0     0   0   0     0   0   0     0   0   0     0   0   0     0   0   0     0   0   0     0   0   0     0   0   0  
 115 117 129   116 118 130   117 119 131   118 120 132   118 120 132   119 121 133   119 121 133   118 122 131   116 120 128   116 120 129   118 122 131   120 124 133   120 124 135   119 123 134   119 123 134   118 122 134   117 121 133   118 122 134   119 123 135   119 123 135   115 119 130   114 118 129   113 117 128   114 116 128   116 118 130   119 119 131   121 121 133   124 126 138   125 129 140   122 129 139   121 130 139   121 132 141     0   0   0     0   0   0     0   0   0     0   0   0     0   0   0     0   0   0     0   0   0     0   0   0     0   0   0     0   0   0     0   0   0     0   0   0     0   0   0     0   0   0     0   0   0     0   0   0     0   0   0     0   0   0  
 116 118 130   116 118 130   117 119 131   118 120 132   118 120 132   119 121 133   119 121 132   118 121 130   115 119 128   115 119 128   118 122 131   120 124 134   121 125 136   120 124 135   119 123 134   118 122 133   118 122 133   117 123 133   117 124 134   119 124 135   114 118 129   114 118 129   114 118 129   114 118 129   116 118 130   117 119 131   119 122 133   124 128 139   124 130 140   121 130 139   119 129 138   121 132 141     0   0   0     0   0   0     0   0   0     0   0   0     0   0   0     0   0   0     0   0   0     0   0   0     0   0   0     0   0   0     0   0   0     0   0   0     0   0   0     0   0   0     0   0   0     0   0   0     0   0   0     0   0   0  
 116 120 131   116 120 131   116 120 131   117 120 132   118 122 133   119 123 134   119 121 132   116 119 128   116 119 128   116 119 128   117 120 129   118 121 130   119 123 132   115 121 130   115 122 130   117 124 132   118 125 135   119 126 136   116 123 133   115 122 132   118 122 133   114 118 129   110 114 125   110 114 125   114 117 129   119 123 134   121 126 137   120 128 137   121 130 139   123 133 142   123 133 142   121 132 140   120 131 140     0   0   0     0   0   0     0   0   0     0   0   0     0   0   0     0   0   0     0   0   0     0   0   0     0   0   0     0   0   0     0   0   0     0   0   0     0   0   0     0   0   0     0   0   0     0   0   0     0   0   0  
 117 121 132   117 121 132   118 122 133   119 123 134   119 123 134   118 122 133   117 121 131   117 118 128   116 118 127   115 118 127   115 118 127   117 121 130   119 123 132   115 121 130   115 122 130   117 124 132   118 125 133   116 125 132   114 123 130   113 122 129   114 121 131   113 117 128   111 115 126   109 115 125   112 119 129   116 123 133   119 126 136   119 128 137   120 129 138   122 132 141   123 133 142   122 133 142   121 132 141     0   0   0     0   0   0     0   0   0     0   0   0     0   0   0     0   0   0     0   0   0     0   0   0     0   0   0     0   0   0     0   0   0     0   0   0     0   0   0     0   0   0     0   0   0     0   0   0     0   0   0  
 118 122 133   119 123 134   120 124 135   120 124 135   119 123 134   117 121 132   116 120 130   116 119 128   114 117 126   113 116 125   114 117 126   116 119 128   118 122 131   115 121 130   115 122 130   116 123 131   116 124 132   114 123 130   112 121 128   112 119 127   114 118 129   112 116 127   111 115 126   109 115 125   112 119 129   116 123 133   118 125 135   118 127 136   120 129 138   123 132 141   123 133 142   123 133 142   123 133 142     0   0   0     0   0   0     0   0   0     0   0   0     0   0   0     0   0   0     0   0   0     0   0   0     0   0   0     0   0   0     0   0   0     0   0   0     0   0   0     0   0   0     0   0   0     0   0   0     0   0   0  
 118 122 133   119 123 134   121 125 136   120 124 135   118 122 133   115 119 130   114 118 129   115 118 127   113 116 125   112 115 124   112 115 124   114 117 126   116 120 129   115 121 129   114 121 129   115 122 130   114 122 130   112 121 128   110 119 126   109 118 125   110 117 127   112 115 127   111 115 126   110 116 127   113 119 129   115 122 132   117 125 134   118 127 136   119 128 137   123 132 141   123 133 142   124 134 143   124 134 143   122 132 141     0   0   0     0   0   0     0   0   0     0   0   0     0   0   0     0   0   0     0   0   0     0   0   0     0   0   0     0   0   0     0   0   0     0   0   0     0   0   0     0   0   0     0   0   0     0   0   0  
 115 122 132   116 123 133   117 124 134   116 123 133   114 121 131   111 118 128   112 116 127   114 118 127   111 116 125   110 114 123   111 115 124   112 116 126   115 119 128   113 120 128   113 120 128   113 120 128   112 120 128   110 119 126   108 117 124   108 115 123   111 115 126   111 115 126   111 115 126   111 117 127   113 120 130   115 122 132   117 125 135   120 127 137   120 129 138   123 132 141   125 134 143   126 135 144   126 135 144   125 133 142     0   0   0     0   0   0     0   0   0     0   0   0     0   0   0     0   0   0     0   0   0     0   0   0     0   0   0     0   0   0     0   0   0     0   0   0     0   0   0     0   0   0     0   0   0     0   0   0  
 114 121 131   115 122 132   116 123 133   115 122 132   113 120 130   111 118 128   111 117 127   113 117 126   112 116 125   111 115 124   111 115 124   112 116 125   113 117 126   111 118 126   111 118 126   111 118 126   110 118 125   109 118 125   108 117 124   107 116 123   110 117 127   111 115 126   111 115 126   111 117 127   114 121 131   116 123 133   119 126 136   122 129 139   123 131 140   124 133 142   125 134 143   126 135 144   127 136 145   126 135 144   128 137 146     0   0   0     0   0   0     0   0   0     0   0   0     0   0   0     0   0   0     0   0   0     0   0   0     0   0   0     0   0   0     0   0   0     0   0   0     0   0   0     0   0   0     0   0   0  
 115 122 132   115 122 132   115 122 132   115 122 132   114 121 131   113 120 130   112 119 129   110 117 127   110 117 127   111 118 128   110 117 127   110 117 127   110 117 127   109 116 126   109 116 126   109 116 126   109 116 126   109 116 126   107 116 125   108 115 125   113 117 126   112 115 125   111 115 124   111 117 125   114 121 129   117 124 132   121 128 136   125 132 140   125 132 140   126 133 141   127 134 142   127 134 142   128 135 143   128 136 145   130 139 148     0   0   0     0   0   0     0   0   0     0   0   0     0   0   0     0   0   0     0   0   0     0   0   0     0   0   0     0   0   0     0   0   0     0   0   0     0   0   0     0   0   0     0   0   0  
 116 123 133   116 123 133   116 123 133   115 122 132   115 122 132   115 122 132   113 120 130   110 117 127   110 118 128   112 119 129   111 118 128   110 117 127   109 116 126   108 115 125   108 115 125   108 115 125   108 115 125   108 115 125   108 116 125   109 116 126   111 118 126   112 115 125   111 115 124   111 117 125   114 121 129   118 125 133   122 129 137   126 133 141   126 133 141   127 134 142   127 134 142   128 135 143   128 135 143   129 137 146   131 140 149     0   0   0     0   0   0     0   0   0     0   0   0     0   0   0     0   0   0     0   0   0     0   0   0     0   0   0     0   0   0     0   0   0     0   0   0     0   0   0     0   0   0     0   0   0  
 117 126 135   117 125 135   116 125 134   114 123 132   113 122 131   112 121 130   112 121 130   111 120 129   108 117 126   107 116 125   108 117 126   108 117 126   108 117 126   107 116 125   107 116 125   108 115 125   107 114 124   108 115 125   108 115 125   109 116 126   112 119 127   112 119 127   112 119 127   114 119 128   117 121 130   118 122 131   121 125 134   127 131 140   131 135 144   133 137 146   132 136 145   130 134 143   130 135 144   129 137 146   130 139 148   131 140 147     0   0   0     0   0   0     0   0   0     0   0   0     0   0   0     0   0   0     0   0   0     0   0   0     0   0   0     0   0   0     0   0   0     0   0   0     0   0   0     0   0   0  
 117 126 135   117 125 135   116 125 134   114 123 132   113 122 131   113 122 131   112 121 131   113 122 131   111 120 128   108 117 126   109 118 127   109 118 127   108 117 126   106 115 124   106 115 124   108 115 125   108 115 125   109 116 126   109 116 126   109 116 126   111 118 126   111 118 126   112 119 127   115 120 128   117 121 130   119 123 132   121 125 134   127 131 140   130 134 143   132 136 145   132 136 145   131 135 144   133 137 146   132 138 148   131 140 149   131 140 147     0   0   0     0   0   0     0   0   0     0   0   0     0   0   0     0   0   0     0   0   0     0   0   0     0   0   0     0   0   0     0   0   0     0   0   0     0   0   0     0   0   0  
 118 127 136   117 126 135   117 126 135   115 124 133   114 123 132   113 122 131   113 123 132   114 124 134   111 121 131   108 118 128   107 117 127   107 116 127   107 115 126   105 112 123   105 113 124   108 114 126   110 116 128   111 117 129   110 116 128   110 117 127   110 117 125   110 117 125   112 119 127   115 120 128   119 123 132   121 125 134   123 127 136   127 131 140   130 133 142   133 136 145   133 136 145   135 137 146   136 140 149   134 140 150   132 141 150   130 139 146   127 136 143     0   0   0     0   0   0     0   0   0     0   0   0     0   0   0     0   0   0     0   0   0     0   0   0     0   0   0     0   0   0     0   0   0     0   0   0     0   0   0  
 118 127 136   118 127 135   117 126 135   115 124 133   114 123 132   113 122 131   113 123 132   114 124 134   110 120 130   107 117 127   106 116 126   105 114 125   104 112 123   103 111 122   105 113 124   108 114 126   111 117 129   112 118 130   111 117 129   110 117 127   108 115 123   109 116 124   111 118 126   115 120 129   119 124 133   123 127 136   125 129 138   128 132 141   129 133 142   132 135 144   134 137 146   136 140 148   138 142 151   136 142 152   132 141 150   129 139 145   125 134 141   122 129 137     0   0   0     0   0   0     0   0   0     0   0   0     0   0   0     0   0   0     0   0   0     0   0   0     0   0   0     0   0   0     0   0   0     0   0   0  
 118 127 136   118 127 135   117 126 135   115 124 133   114 123 132   113 122 131   113 122 131   111 123 132   106 119 128   103 116 125   104 114 124   102 112 122   101 111 121   102 110 121   105 113 124   108 114 126   111 117 129   112 118 130   111 117 129   110 117 127   108 115 123   108 116 121   111 118 124   115 121 127   120 125 132   124 129 135   126 131 137   128 131 138   129 132 139   132 134 142   136 136 144   140 140 147   140 142 150   135 141 151   132 141 150   129 137 144   124 132 140   121 128 136   117 125 132     0   0   0     0   0   0     0   0   0     0   0   0     0   0   0     0   0   0     0   0   0     0   0   0     0   0   0     0   0   0     0   0   0  
 118 127 136   117 126 135   117 126 135   115 124 133   114 123 132   113 122 131   111 122 131   109 122 131   105 118 127   102 115 124   103 113 123   101 111 121   100 110 120   102 111 122   105 113 124   108 114 126   110 116 128   111 117 129   110 116 128   110 117 127   108 115 123   109 116 122   111 118 124   116 122 128   121 126 132   124 129 135   126 131 137   128 131 138   129 132 139   132 134 142   137 137 145   139 139 147   139 140 148   133 139 147   130 139 148   127 136 143   123 132 139   121 128 136   117 125 132   116 123 131     0   0   0     0   0   0     0   0   0     0   0   0     0   0   0     0   0   0     0   0   0     0   0   0     0   0   0     0   0   0  
 116 126 135   115 125 135   115 125 134   113 123 132   112 122 131   112 122 131   110 121 130   108 121 130   105 118 127   102 115 124   101 114 123   100 112 122   101 111 121   104 113 123   106 114 125   107 115 126   107 115 126   109 115 127   109 115 127   109 116 126   109 116 124   109 116 122   112 119 125   116 122 128   121 126 132   124 129 135   126 131 137   128 131 138   130 131 139   134 134 142   138 138 146   140 140 148   139 138 147   132 137 147   128 137 146   127 136 143   123 132 139   121 128 136   117 125 132   115 122 130   115 120 126     0   0   0     0   0   0     0   0   0     0   0   0     0   0   0     0   0   0     0   0   0     0   0   0     0   0   0  
 116 126 135   115 125 135   115 125 134   113 123 132   112 122 131   111 121 130   110 121 130   108 121 131   105 117 129   103 116 125   102 115 124   102 114 123   102 112 122   105 114 124   107 115 126   107 115 126   106 115 124   108 115 125   108 115 125   111 115 126   111 115 124   112 117 123   114 119 125   117 122 128   121 126 132   124 129 135   126 130 136   128 131 137   129 132 137   132 135 140   137 140 145   139 140 145   135 137 143   129 135 143   127 136 145   126 135 142   124 132 139   122 129 137   118 125 133   115 122 130   114 120 126   111 116 122   114 119 125     0   0   0     0   0   0     0   0   0     0   0   0     0   0   0     0   0   0     0   0   0  
 116 125 132   115 125 132   115 124 131   114 123 130   113 122 129   113 122 129   110 121 131   107 121 133   105 118 131   102 116 127   102 114 126   103 114 125   106 116 126   105 115 124   106 115 124   109 116 126   109 115 124   110 114 123   110 115 121   112 115 122   115 118 127   117 120 128   117 120 127   120 123 130   126 129 136   131 134 139   130 134 139   131 134 139   133 136 141   135 139 142   136 140 143   134 138 141   132 137 140   127 133 140   123 132 141   122 131 138   120 130 137   119 128 135   116 125 132   114 121 129   113 120 126   111 118 124   114 121 127   115 123 126     0   0   0     0   0   0     0   0   0     0   0   0     0   0   0     0   0   0  
 116 125 132   115 124 131   115 124 131   114 123 130   113 122 129   112 121 128   109 120 131   103 118 132   101 116 129    99 113 126   100 112 124   101 112 124   104 114 124   105 115 124   107 116 125   109 116 124   109 115 123   110 115 121   111 115 120   114 117 122   116 119 126   119 119 128   119 119 127   122 122 130   127 129 136   130 133 138   130 133 138   130 135 138   131 136 139   134 139 142   134 140 140   133 139 139   131 138 139   126 135 140   124 133 142   122 131 138   120 130 137   119 128 135   116 125 132   113 122 129   114 121 127   113 120 126   115 122 128   117 124 128   116 124 127     0   0   0     0   0   0     0   0   0     0   0   0     0   0   0  
 115 124 133   115 124 133   115 124 133   113 122 131   113 122 131   112 121 130   109 120 130   104 117 130   101 116 128   100 114 127   100 112 124   101 113 124   104 114 124   107 116 125   109 118 127   109 116 124   108 115 122   110 115 121   112 117 122   116 119 125   116 119 128   118 121 130   118 121 130   119 122 131   124 127 136   129 132 139   128 133 139   130 135 139   130 135 140   131 139 142   131 139 141   130 138 140   129 137 140   127 136 141   123 133 142   121 132 138   120 130 137   119 128 135   116 126 132   113 122 129   115 122 128   116 122 128   119 124 130   120 125 130   122 127 131   126 129 134     0   0   0     0   0   0     0   0   0     0   0   0  
 115 124 133   114 123 132   114 123 132   113 122 131   112 121 130   112 121 130   109 120 130   106 119 132   104 118 131   103 117 128   103 115 127   105 117 126   107 117 126   109 118 127   110 119 128   110 117 125   109 115 123   111 116 122   113 118 123   116 121 127   117 120 129   119 122 131   119 122 131   119 122 131   123 127 135   127 132 138   128 133 139   129 135 140   129 137 140   130 138 141   131 139 142   130 138 140   129 138 140   126 137 142   124 134 143   122 133 139   120 131 137   119 129 136   117 126 133   114 123 130   115 122 128   116 122 128   119 124 130   121 126 131   124 129 133   128 131 136   129 132 138     0   0   0     0   0   0     0   0   0  
 115 121 133   115 120 133   114 120 132   113 119 131   113 119 131   112 118 130   110 119 130   108 119 131   105 117 129   105 117 129   106 116 128   106 116 126   107 117 127   109 118 127   110 119 126   111 118 126   109 115 123   111 116 122   113 118 124   117 122 128   116 120 129   119 123 134   119 123 134   119 123 134   122 127 137   128 132 141   127 134 142   129 136 143   130 137 143   130 139 144   130 139 144   130 139 144   130 139 144   127 139 144   124 137 145   121 134 140   120 131 137   119 130 136   116 126 133   114 123 130   114 121 127   116 122 128   119 124 130   122 125 130   126 129 134   131 132 137   128 131 137   127 131 138     0   0   0     0   0   0  
 115 121 133   114 120 132   114 120 132   113 119 131   112 118 130   111 117 129   108 117 128   104 115 127   103 115 127   103 116 125   105 115 125   105 115 125   105 115 124   108 118 125   110 119 126   111 118 126   110 117 124   112 117 123   113 118 124   116 121 127   115 119 128   120 123 135   120 124 135   120 124 135   122 128 139   127 134 142   129 136 144   130 138 146   130 139 146   131 140 145   131 140 145   131 140 145   131 141 146   128 140 148   124 139 146   121 134 140   118 131 137   118 130 136   117 127 133   115 124 131   113 120 126   116 122 128   118 123 129   121 125 130   127 130 135   131 132 137   128 131 136   128 133 139   129 134 140   132 137 143  
 114 120 132   114 120 132   114 120 132   112 118 130   112 118 130   111 117 129   108 117 128   105 115 125   105 115 125   105 115 125   105 115 125   105 115 124   106 115 124   109 116 125   111 118 126   111 118 126   111 118 125   112 117 123   113 118 124   115 119 128   113 120 130   117 125 135   119 126 136   118 125 135   122 129 139   129 136 146   131 140 149   132 141 150   132 141 150   131 141 150   132 142 151   132 142 151   132 142 151   129 141 150   124 139 146   121 135 141   118 131 137   118 130 136   117 127 133   115 124 131   113 120 126   116 122 128   119 123 130   124 126 131   131 132 137   133 134 139   130 131 137   130 134 140   130 135 141   133 138 144  
 114 120 132   114 120 132   113 119 131   112 118 130   111 117 129   111 117 129   110 117 128   108 117 127   108 118 128   108 118 127   108 118 127   108 118 127   109 118 127   109 116 125   110 117 125   111 118 126   111 118 125   113 118 124   113 118 124   114 119 125   112 119 128   118 125 135   120 127 137   119 126 136   123 130 140   129 138 147   132 141 150   133 142 151   132 142 151   132 142 151   132 142 151   133 143 152   133 143 152   130 142 151   125 140 147   121 136 141   118 132 137   118 130 136   117 127 133   115 124 131   114 121 127   117 123 129   120 124 131   124 127 132   133 134 139   133 134 139   128 132 137   130 135 141   131 136 142   133 138 144  
