P3
50 50
255
  28  20  17    29  21  18    30  22  19     0   0   0     0   0   0     0   0   0     0   0   0     0   0   0     0   0   0     0   0   0     0   0   0     0   0   0     0   0   0     0   0   0     0   0   0     0   0   0     0   0   0     0   0   0     0   0   0     0   0   0     0   0   0     0   0   0     0   0   0     0   0   0     0   0   0     0   0   0     0   0   0     0   0   0     0   0   0     0   0   0     0   0   0     0   0   0     0   0   0     0   0   0     0   0   0     0   0   0     0   0   0     0   0   0     0   0   0     0   0   0     0   0   0     0   0   0     0   0   0     0   0   0     0   0   0     0   0   0     0   0   0     0   0   0    20  19  15    21  20  16  
  29  21  18    30  22  19    31  23  20    31  23  20    31  23  20     0   0   0     0   0   0     0   0   0     0   0   0     0   0   0     0   0   0     0   0   0     0   0   0     0   0   0     0   0   0     0   0   0     0   0   0     0   0   0     0   0   0     0   0   0     0   0   0     0   0   0     0   0   0     0   0   0     0   0   0     0   0   0     0   0   0     0   0   0     0   0   0     0   0   0     0   0   0     0   0   0     0   0   0     0   0   0     0   0   0     0   0   0     0   0   0     0   0   0     0   0   0     0   0   0     0   0   0     0   0   0     0   0   0     0   0   0     0   0   0     0   0   0     0   0   0    19  18  14    19  18  14    20  19  15  
  31  23  20    32  24  21    33  25  22    33  25  22    33  25  22    35  27  24     0   0   0     0   0   0     0   0   0     0   0   0     0   0   0     0   0   0     0   0   0     0   0   0     0   0   0     0   0   0     0   0   0     0   0   0     0   0   0     0   0   0     0   0   0     0   0   0     0   0   0     0   0   0     0   0   0     0   0   0     0   0   0     0   0   0     0   0   0     0   0   0     0   0   0     0   0   0     0   0   0     0   0   0     0   0   0     0   0   0     0   0   0     0   0   0     0   0   0     0   0   0     0   0   0     0   0   0     0   0   0     0   0   0     0   0   0     0   0   0     0   0   0    18  17  13    18  17  13     0   0   0  
   0   0   0    32  24  21    33  25  22    33  25  22    34  26  23    35  28  25    37  29  26     0   0   0     0   0   0     0   0   0     0   0   0     0   0   0     0   0   0     0   0   0     0   0   0     0   0   0     0   0   0     0   0   0     0   0   0     0   0   0     0   0   0     0   0   0     0   0   0     0   0   0     0   0   0     0   0   0     0   0   0     0   0   0     0   0   0     0   0   0     0   0   0     0   0   0     0   0   0     0   0   0     0   0   0     0   0   0     0   0   0     0   0   0     0   0   0     0   0   0     0   0   0     0   0   0     0   0   0     0   0   0     0   0   0     0   0   0    16  15  11    17  16  12    17  16  12     0   0   0  
   0   0   0     0   0   0    32  24  21    33  25  22    34  26  23    35  27  24    36  28  25    36  28  25    34  26  23     0   0   0     0   0   0     0   0   0     0   0   0     0   0   0     0   0   0     0   0   0     0   0   0     0   0   0     0   0   0     0   0   0     0   0   0     0   0   0     0   0   0     0   0   0     0   0   0     0   0   0     0   0   0     0   0   0     0   0   0     0   0   0     0   0   0     0   0   0     0   0   0     0   0   0     0   0   0     0   0   0     0   0   0     0   0   0     0   0   0     0   0   0     0   0   0     0   0   0     0   0   0     0   0   0    16  15  11    16  15  11    16  15  11    17  16  12     0   0   0     0   0   0  
   0   0   0     0   0   0     0   0   0    32  24  21    33  25  22    35  27  24    35  27  24    35  27  24    34  26  23    33  25  22     0   0   0     0   0   0     0   0   0     0   0   0     0   0   0     0   0   0     0   0   0     0   0   0     0   0   0     0   0   0     0   0   0     0   0   0     0   0   0     0   0   0     0   0   0     0   0   0     0   0   0     0   0   0     0   0   0     0   0   0     0   0   0     0   0   0     0   0   0     0   0   0     0   0   0     0   0   0     0   0   0     0   0   0     0   0   0     0   0   0     0   0   0     0   0   0    20  16  15    20  16  15    16  15  11    16  15  11    17  16  12    17  16  12     0   0   0     0   0   0  
   0   0   0     0   0   0     0   0   0     0   0   0    33  26  22    33  26  23    34  27  24    34  27  23    33  26  23    32  25  22    33  26  23     0   0   0     0   0   0     0   0   0     0   0   0     0   0   0     0   0   0     0   0   0     0   0   0     0   0   0     0   0   0     0   0   0     0   0   0     0   0   0     0   0   0     0   0   0     0   0   0     0   0   0     0   0   0     0   0   0     0   0   0     0   0   0     0   0   0     0   0   0     0   0   0     0   0   0     0   0   0     0   0   0     0   0   0     0   0   0    20  17  16    20  16  16    19  16  15    18  15  15    16  15  14    17  15  12    17  15  15    18  17  13     0   0   0     0   0   0  
   0   0   0     0   0   0     0   0   0     0   0   0     0   0   0    32  27  23    32  27  23    31  26  22    31  26  22    31  26  22    32  27  23    32  27  24    31  29  27     0   0   0     0   0   0     0   0   0     0   0   0     0   0   0     0   0   0     0   0   0     0   0   0     0   0   0     0   0   0     0   0   0     0   0   0     0   0   0     0   0   0     0   0   0     0   0   0     0   0   0     0   0   0     0   0   0     0   0   0     0   0   0     0   0   0     0   0   0     0   0   0     0   0   0    18  16  17    18  16  17    18  16  17    17  15  16    15  13  15    14  12  14    14  12  13    16  14  14    17  15  16     0   0   0     0   0   0     0   0   0  
   0   0   0     0   0   0     0   0   0     0   0   0     0   0   0     0   0   0    31  26  22    30  25  21    30  25  21    31  26  22    31  26  22    32  27  23    33  29  28    31  28  27     0   0   0     0   0   0     0   0   0     0   0   0     0   0   0     0   0   0     0   0   0     0   0   0     0   0   0     0   0   0     0   0   0     0   0   0     0   0   0     0   0   0     0   0   0     0   0   0     0   0   0     0   0   0     0   0   0     0   0   0     0   0   0     0   0   0    23  20  20    21  18  19    19  16  17    18  14  15    18  14  15    18  14  15    17  14  15    16  13  14    14  12  13    15  13  14    16  14  15     0   0   0     0   0   0     0   0   0  
   0   0   0     0   0   0     0   0   0     0   0   0     0   0   0     0   0   0     0   0   0    30  25  21    30  25  21    30  25  21    31  26  22    31  26  23    33  29  28    32  28  27    31  27  26    31  27  26     0   0   0     0   0   0     0   0   0     0   0   0     0   0   0     0   0   0     0   0   0     0   0   0     0   0   0     0   0   0     0   0   0     0   0   0     0   0   0     0   0   0     0   0   0     0   0   0     0   0   0     0   0   0     0   0   0    24  20  19    26  22  23    23  19  20    20  16  17    18  14  15    18  14  15    18  14  15    18  14  15    18  14  15    13  11  12    14  12  13     0   0   0     0   0   0     0   0   0     0   0   0  
   0   0   0     0   0   0     0   0   0     0   0   0     0   0   0     0   0   0     0   0   0     0   0   0    28  24  21    29  25  22    30  26  23    30  26  23    32  28  27    31  27  26    31  27  26    31  27  26    31  27  26     0   0   0     0   0   0     0   0   0     0   0   0     0   0   0     0   0   0     0   0   0     0   0   0     0   0   0     0   0   0     0   0   0     0   0   0     0   0   0     0   0   0     0   0   0     0   0   0    26  22  19    25  21  20    25  21  20    27  23  22    24  20  19    20  16  17    18  14  15    18  14  15    18  14  15    18  14  15    17  13  14    12  10  11    14  12  13     0   0   0     0   0   0     0   0   0     0   0   0  
   0   0   0     0   0   0     0   0   0     0   0   0     0   0   0     0   0   0     0   0   0     0   0   0     0   0   0    29  25  22    29  25  22    30  26  23    30  27  25    30  25  25    30  25  25    30  27  25    32  28  27    32  28  27    30  26  25     0   0   0     0   0   0     0   0   0     0   0   0     0   0   0     0   0   0     0   0   0     0   0   0     0   0   0     0   0   0     0   0   0     0   0   0    29  26  22    28  24  21    27  23  20    26  22  20    26  22  20    27  23  22    24  20  19    21  17  18    20  16  17    19  15  16    19  15  16    18  14  15    16  12  13    12  10  10    13  11  12     0   0   0     0   0   0     0   0   0     0   0   0  
   0   0   0     0   0   0     0   0   0     0   0   0     0   0   0     0   0   0     0   0   0     0   0   0     0   0   0     0   0   0    29  25  22    30  26  23    30  26  25    29  25  24    29  25  24    30  26  25    32  28  27    33  29  28    32  28  27    31  27  26    28  24  23     0   0   0     0   0   0     0   0   0     0   0   0     0   0   0     0   0   0     0   0   0     0   0   0    30  27  22    30  27  22    30  27  22    30  26  23    29  25  22    28  24  21    27  23  20    26  22  21    24  20  19    23  19  18    22  18  17    21  17  18    20  16  17    17  13  14    15  11  12    11   9  10     0   0   0     0   0   0     0   0   0     0   0   0     0   0   0  
   0   0   0     0   0   0     0   0   0     0   0   0     0   0   0     0   0   0     0   0   0     0   0   0     0   0   0     0   0   0     0   0   0    29  25  24    30  25  23    30  25  23    31  26  24    32  27  25    33  29  26    34  29  26    33  29  26    32  28  25    31  26  24    30  25  23     0   0   0     0   0   0     0   0   0     0   0   0     0   0   0    30  25  22    30  26  21    30  26  22    30  26  22    30  26  22    30  26  22    30  25  21    29  24  21    28  24  20    25  21  18    25  20  17    24  19  19    23  17  17    22  16  16    20  15  15    18  12  12    15  12  11    12  10  11     0   0   0     0   0   0     0   0   0     0   0   0     0   0   0  
   0   0   0     0   0   0     0   0   0     0   0   0     0   0   0     0   0   0     0   0   0     0   0   0     0   0   0     0   0   0     0   0   0    29  25  24    32  27  24    32  27  24    33  28  25    34  29  26    34  29  26    34  29  26    33  28  25    33  28  25    32  27  24    32  27  24    31  26  23    30  25  22     0   0   0    30  25  22    30  25  22    31  26  23    32  27  23    32  27  23    32  27  23    32  27  23    32  27  23    31  26  22    30  25  22    29  24  21    26  21  18    26  21  18    25  19  19    24  18  18    23  17  17    21  15  15    19  13  13    17  13  12    15  11  12     0   0   0     0   0   0     0   0   0     0   0   0     0   0   0  
   0   0   0     0   0   0     0   0   0     0   0   0     0   0   0     0   0   0     0   0   0     0   0   0     0   0   0     0   0   0     0   0   0     0   0   0    33  28  25    33  28  25    34  29  26    34  29  26    34  29  26    34  29  26    33  28  25    33  28  25    33  28  25    32  27  24    31  26  23    31  26  23    30  25  22    31  26  23    31  26  23    31  26  23    33  28  24    33  28  22    33  28  24    33  28  24    33  28  24    32  27  23    31  26  22    30  25  21    27  22  19    27  22  19    26  21  18    26  21  18    24  18  18    22  16  16    21  15  15    19  15  14    16  12  13     0   0   0     0   0   0     0   0   0     0   0   0     0   0   0  
   0   0   0     0   0   0     0   0   0     0   0   0     0   0   0     0   0   0     0   0   0     0   0   0     0   0   0     0   0   0     0   0   0     0   0   0    34  29  26    35  29  25    35  29  26    36  30  27    36  30  27    35  29  26    35  29  26    35  29  26    34  28  25    33  28  25    33  27  24    32  26  23    32  26  23    32  26  23    32  27  24    33  27  23    36  30  24    36  30  24    36  30  25    36  30  25    35  29  25    33  28  24    32  27  23    31  25  22    28  23  20    28  23  20    28  22  19    27  22  19    26  19  19    25  18  18    24  17  17    22  16  16     0   0   0     0   0   0     0   0   0     0   0   0     0   0   0     0   0   0  
   0   0   0     0   0   0     0   0   0     0   0   0     0   0   0     0   0   0     0   0   0     0   0   0     0   0   0     0   0   0     0   0   0     0   0   0    34  29  26    36  28  25    37  29  26    38  30  27    38  30  27    38  30  27    38  30  27    38  30  27    37  29  26    36  28  25    35  27  24    35  27  24    34  26  23    35  27  24    35  27  24    35  27  24    38  31  25    38  31  25    38  31  25    38  31  25    37  29  26    35  27  24    34  26  23    33  25  22    30  22  19    30  22  19    30  22  20    29  21  19    28  20  18    27  19  17    26  18  16    23  18  16     0   0   0     0   0   0     0   0   0     0   0   0     0   0   0     0   0   0  
   0   0   0     0   0   0     0   0   0     0   0   0     0   0   0     0   0   0     0   0   0     0   0   0     0   0   0     0   0   0     0   0   0     0   0   0    32  27  24    35  27  24    37  29  26    38  30  27    39  30  28    40  32  29    40  32  29    39  31  28    37  29  26    37  29  25    35  28  25    35  27  24    35  27  24    35  27  24    35  27  24    35  28  25    39  32  25    38  31  25    38  31  25    37  30  24    36  29  23    35  28  22    33  25  22    32  24  21    29  21  18    29  21  18    29  21  19    29  21  19    28  20  18    27  19  17    26  18  16    23  18  15     0   0   0     0   0   0     0   0   0     0   0   0     0   0   0     0   0   0  
   0   0   0     0   0   0     0   0   0     0   0   0     0   0   0     0   0   0     0   0   0     0   0   0     0   0   0     0   0   0     0   0   0     0   0   0     0   0   0    35  27  24    37  27  25    38  30  27    40  32  29    41  33  30    41  33  30    41  33  30    37  29  26    37  29  26    36  28  25    35  27  24    35  27  24    35  27  24    36  28  25    36  28  25    38  31  25    38  31  25    38  31  25    37  30  24    36  29  23    34  27  21    33  25  22    32  24  21    28  20  17    29  21  18    29  21  19    28  20  18    28  20  18    27  19  17    26  18  16    23  17  17     0   0   0     0   0   0     0   0   0     0   0   0     0   0   0     0   0   0  
   0   0   0     0   0   0     0   0   0     0   0   0     0   0   0     0   0   0     0   0   0     0   0   0     0   0   0     0   0   0     0   0   0     0   0   0     0   0   0    36  26  24    39  28  26    40  30  28    41  31  29    41  31  29    40  30  28    40  30  28    37  29  26    37  29  26    34  29  25    33  28  24    32  27  23    32  27  23    32  27  23    32  27  23    38  31  25    36  29  23    34  27  21    35  28  22    37  29  26    38  29  27    36  28  25    34  26  23    32  27  24    30  25  22    27  22  19    25  20  17    23  18  15    21  16  13    21  15  15    21  15  15     0   0   0     0   0   0     0   0   0     0   0   0     0   0   0     0   0   0  
   0   0   0     0   0   0     0   0   0     0   0   0     0   0   0     0   0   0     0   0   0     0   0   0     0   0   0     0   0   0     0   0   0     0   0   0     0   0   0    37  26  24    39  28  26    41  30  28    41  31  29    41  31  29    41  31  29    40  30  28    40  32  29    39  31  28    36  31  26    35  30  26    33  28  24    33  28  24    31  28  23    32  27  23    35  29  23    36  28  22    35  27  21    35  27  21    34  25  23    34  26  23    34  25  23    32  24  21    30  25  23    29  24  20    26  22  19    23  19  15    21  17  14    20  15  13    20  15  15    20  15  15     0   0   0     0   0   0     0   0   0     0   0   0     0   0   0     0   0   0  
   0   0   0     0   0   0     0   0   0     0   0   0     0   0   0     0   0   0     0   0   0     0   0   0     0   0   0     0   0   0     0   0   0     0   0   0     0   0   0    38  27  25    40  29  27    42  31  29    42  32  30    42  32  30    42  32  30    42  32  30    43  35  32    42  34  31    38  33  29    37  32  28    35  30  26    35  30  26    34  29  25    35  28  25    37  29  23    39  30  25    39  30  25    38  29  24    35  25  23    34  24  22    34  26  23    35  27  24    30  25  22    28  23  20    25  21  18    22  18  15    20  16  13    19  15  12    19  15  14     0   0   0     0   0   0     0   0   0     0   0   0     0   0   0     0   0   0     0   0   0  
   0   0   0     0   0   0     0   0   0     0   0   0     0   0   0     0   0   0     0   0   0     0   0   0     0   0   0     0   0   0     0   0   0     0   0   0     0   0   0     0   0   0    39  29  27    41  31  29    42  32  30    43  33  30    43  33  30    43  33  30    45  37  34    44  35  33    41  34  30    39  32  29    37  32  28    35  30  27    35  30  25    37  29  25    39  28  24    40  30  26    42  31  27    40  30  25    36  26  24    34  24  22    34  26  23    36  28  25    28  23  20    27  22  19    24  20  17    22  18  15    18  17  13    17  15  12    17  15  14     0   0   0     0   0   0     0   0   0     0   0   0     0   0   0     0   0   0     0   0   0  
   0   0   0     0   0   0     0   0   0     0   0   0     0   0   0     0   0   0     0   0   0     0   0   0     0   0   0     0   0   0     0   0   0     0   0   0     0   0   0     0   0   0    40  30  28    41  31  29    42  32  30    43  33  31    44  34  32    44  34  32    45  37  34    44  36  33    42  34  31    41  33  30    37  32  28    37  32  28    36  31  27    38  30  27    38  27  23    41  27  24    39  28  24    38  27  23    36  25  23    34  24  22    34  26  23    34  26  23    28  23  20    27  22  19    24  20  17    20  19  15    19  18  14    18  17  13    17  17  15     0   0   0     0   0   0     0   0   0     0   0   0     0   0   0     0   0   0     0   0   0  
   0   0   0     0   0   0     0   0   0     0   0   0     0   0   0     0   0   0     0   0   0     0   0   0     0   0   0     0   0   0     0   0   0     0   0   0     0   0   0    40  30  28    40  30  28    41  31  29    42  32  30    43  33  31    44  36  33    44  36  33    44  36  33    43  35  32    42  34  31    40  32  29    39  31  28    39  31  28    39  31  28    40  30  28    39  28  24    40  26  23    39  25  22    37  26  22    38  27  25    37  27  25    35  27  24    34  26  23    29  24  21    28  23  20    25  21  18    21  20  16    19  18  14    18  19  14    18  18  16     0   0   0     0   0   0     0   0   0     0   0   0     0   0   0     0   0   0     0   0   0  
   0   0   0     0   0   0     0   0   0     0   0   0     0   0   0     0   0   0     0   0   0     0   0   0     0   0   0     0   0   0     0   0   0     0   0   0    38  30  27    39  30  28    40  31  28    41  31  29    42  32  30    43  34  32    43  35  32    44  36  33    43  35  32    42  34  31    41  33  30    41  32  30    41  32  29    40  32  29    40  31  28    39  29  27    41  30  26    41  27  24    39  26  23    39  28  24    41  30  28    40  30  28    38  30  27    35  27  24    31  26  23    28  23  21    25  20  18    20  20  15    21  20  16    20  21  16     0   0   0     0   0   0     0   0   0     0   0   0     0   0   0     0   0   0     0   0   0     0   0   0  
   0   0   0     0   0   0     0   0   0     0   0   0     0   0   0     0   0   0     0   0   0     0   0   0     0   0   0     0   0   0     0   0   0    35  30  27    37  29  26    38  30  27    40  32  29    41  33  30    42  34  31    42  34  31    42  34  31    42  34  31    42  34  31    42  34  31    43  33  31    44  34  32    45  35  33    44  34  32    41  31  29    39  29  27    39  28  24    40  28  24    40  29  25    40  30  26    40  29  27    39  29  27    37  29  26    36  28  25    35  30  27    31  26  23    25  21  18    22  20  16    23  21  17    24  23  19     0   0   0     0   0   0     0   0   0     0   0   0     0   0   0     0   0   0     0   0   0     0   0   0  
   0   0   0     0   0   0     0   0   0     0   0   0     0   0   0     0   0   0     0   0   0     0   0   0     0   0   0     0   0   0    33  28  25    33  28  25    34  28  24    35  29  25    37  31  27    39  33  29    42  34  31    43  35  32    43  35  32    43  35  32    43  34  32    43  33  31    43  33  31    44  34  32    44  34  32    44  34  32    41  31  29    39  29  27    39  29  25    38  29  24    38  29  24    37  29  23    36  28  25    36  28  25    36  28  25    36  28  25    32  27  25    32  27  24    29  25  22    27  22  19    25  20  18    23  20  16     0   0   0     0   0   0     0   0   0     0   0   0     0   0   0     0   0   0     0   0   0     0   0   0  
   0   0   0     0   0   0     0   0   0     0   0   0     0   0   0     0   0   0     0   0   0     0   0   0     0   0   0    32  27  24    32  27  24    32  27  24    33  28  24    34  29  25    35  30  26    37  32  28    41  33  30    42  34  31    43  35  32    44  36  33    44  34  32    43  33  31    43  33  31    43  33  31    44  34  32    43  33  31    41  31  29    40  30  28    39  30  25    38  31  25    36  29  23    35  28  22    35  27  24    35  27  24    36  28  25    36  28  25    31  26  23    33  28  25    34  29  26    31  26  23    26  21  18     0   0   0     0   0   0     0   0   0     0   0   0     0   0   0     0   0   0     0   0   0     0   0   0     0   0   0  
   0   0   0     0   0   0     0   0   0     0   0   0     0   0   0     0   0   0     0   0   0     0   0   0    33  25  22    34  26  23    34  26  23    34  26  23    33  28  24    34  29  25    35  30  26    36  31  27    38  33  29    40  35  31    43  35  32    44  36  33    45  35  33    44  34  32    43  33  31    43  33  31     0   0   0    44  33  31    43  32  30    40  30  28    39  32  26    36  31  25    35  30  24    33  28  22    33  28  24    33  28  24    34  29  25    34  29  25    33  25  23    35  27  25    36  28  26    34  26  24    29  21  19     0   0   0     0   0   0     0   0   0     0   0   0     0   0   0     0   0   0     0   0   0     0   0   0     0   0   0  
   0   0   0     0   0   0     0   0   0     0   0   0     0   0   0     0   0   0    34  26  23    34  26  23    34  26  23    34  26  23    34  26  23    34  26  23    34  29  25    34  30  25    34  29  25    35  30  26    37  32  28    39  34  30    43  35  32    44  35  33    45  35  33    44  34  32     0   0   0     0   0   0     0   0   0     0   0   0    43  32  30    41  31  29    38  33  27    35  33  26    35  33  26    34  32  25    34  30  26    34  30  25    34  29  25    34  29  25    36  27  26    35  27  25    35  26  24    33  24  23     0   0   0     0   0   0     0   0   0     0   0   0     0   0   0     0   0   0     0   0   0     0   0   0     0   0   0     0   0   0  
   0   0   0     0   0   0     0   0   0     0   0   0     0   0   0    36  28  25    36  28  25    35  27  24    35  27  24    35  27  24    35  27  24    34  27  24    35  31  27    34  31  26    35  31  26    35  30  26    36  31  27    38  33  29    42  34  31    43  35  32    46  36  34     0   0   0     0   0   0     0   0   0     0   0   0     0   0   0    43  32  30    41  31  29    38  34  28    36  35  29    36  35  29    36  35  28    36  33  28    35  31  27    34  29  25    34  28  24    38  30  28    35  27  25    33  23  22    32  22  21     0   0   0     0   0   0     0   0   0     0   0   0     0   0   0     0   0   0     0   0   0     0   0   0     0   0   0     0   0   0  
   0   0   0     0   0   0     0   0   0     0   0   0    35  27  25    35  27  25    37  29  26    36  28  26    36  28  26    36  28  26    35  28  25    33  28  25    33  31  27    32  31  27    32  31  27    34  30  27    35  31  28    37  33  29    40  34  30    42  34  31     0   0   0     0   0   0     0   0   0     0   0   0     0   0   0     0   0   0     0   0   0    41  31  29    39  34  31    37  34  32    37  33  30    37  33  29    36  32  28    37  30  27    36  29  25    37  28  25    38  28  26    37  28  25    35  27  25    34  26  24     0   0   0     0   0   0     0   0   0     0   0   0     0   0   0     0   0   0     0   0   0     0   0   0     0   0   0     0   0   0  
   0   0   0     0   0   0     0   0   0    31  23  21    34  26  24    35  27  25    36  28  26    37  29  27    37  29  27    36  28  26    35  27  25    32  27  24    30  29  25    29  30  25    30  29  25    31  30  26    34  30  27    35  31  28     0   0   0     0   0   0     0   0   0     0   0   0     0   0   0     0   0   0     0   0   0     0   0   0     0   0   0     0   0   0    39  33  33    37  33  34    37  31  31    36  30  30    38  30  28    38  30  28    39  29  27    39  29  27    39  29  27    39  29  27    38  30  28     0   0   0     0   0   0     0   0   0     0   0   0     0   0   0     0   0   0     0   0   0     0   0   0     0   0   0     0   0   0     0   0   0  
   0   0   0     0   0   0    31  23  21    31  23  21    32  24  22    33  25  23    34  26  24    36  28  26    36  28  26    35  27  25    34  26  24    32  27  24    30  26  23    28  27  23    30  26  23    31  27  24    32  28  25     0   0   0     0   0   0     0   0   0     0   0   0     0   0   0     0   0   0     0   0   0     0   0   0     0   0   0     0   0   0     0   0   0    37  31  31    35  31  32    36  30  30    35  29  29    37  29  27    38  30  28    39  29  27    39  29  27    39  29  27    39  29  27    38  30  28     0   0   0     0   0   0     0   0   0     0   0   0     0   0   0     0   0   0     0   0   0     0   0   0     0   0   0     0   0   0     0   0   0  
   0   0   0     0   0   0    30  23  20    30  23  20    30  23  20    31  24  22    32  25  23    34  27  25    34  27  25    34  27  25    33  26  24    31  26  23    31  26  24    31  26  24    31  26  24    31  26  24     0   0   0     0   0   0     0   0   0     0   0   0     0   0   0     0   0   0     0   0   0     0   0   0     0   0   0     0   0   0     0   0   0     0   0   0     0   0   0    33  29  30    34  28  28    34  28  28    37  29  27    37  29  27    39  29  27    40  30  28    37  27  25    37  27  25    36  28  26    35  27  25     0   0   0     0   0   0     0   0   0     0   0   0     0   0   0     0   0   0     0   0   0     0   0   0     0   0   0     0   0   0  
   0   0   0     0   0   0    28  23  20    28  23  20    28  23  20    29  24  21    31  26  23    32  27  24    33  28  25    33  28  25    33  28  25    32  27  24    34  28  28    34  28  28     0   0   0     0   0   0     0   0   0     0   0   0     0   0   0     0   0   0     0   0   0     0   0   0     0   0   0     0   0   0     0   0   0     0   0   0     0   0   0     0   0   0     0   0   0     0   0   0    33  27  27    33  27  27    36  28  26    36  28  26    38  28  26    39  29  27    36  26  24    36  26  24    35  27  25    34  26  24    30  24  24     0   0   0     0   0   0     0   0   0     0   0   0     0   0   0     0   0   0     0   0   0     0   0   0     0   0   0  
   0   0   0     0   0   0    28  22  21    28  22  21    28  22  21    29  23  22    31  25  24    33  27  26    34  28  27    34  28  27    33  27  26    33  27  26    35  27  28     0   0   0     0   0   0     0   0   0     0   0   0     0   0   0     0   0   0     0   0   0     0   0   0     0   0   0     0   0   0     0   0   0     0   0   0     0   0   0     0   0   0     0   0   0     0   0   0     0   0   0    32  26  26    32  26  26    34  26  24    34  26  24    36  26  24    36  26  25    35  25  24    35  25  24    34  26  24    33  25  23    29  23  23     0   0   0     0   0   0     0   0   0     0   0   0     0   0   0     0   0   0     0   0   0     0   0   0     0   0   0  
   0   0   0     0   0   0    27  21  21    28  22  22    28  22  22    30  24  24    31  25  25    33  27  27    34  28  28    34  28  28    34  28  28    34  28  28     0   0   0     0   0   0     0   0   0     0   0   0     0   0   0     0   0   0     0   0   0     0   0   0     0   0   0     0   0   0     0   0   0     0   0   0     0   0   0     0   0   0     0   0   0     0   0   0     0   0   0     0   0   0     0   0   0    31  25  25    33  25  23    34  26  24    35  25  23    36  26  24    36  26  24    36  26  24    35  27  25    34  26  24    30  24  24    28  22  22     0   0   0     0   0   0     0   0   0     0   0   0     0   0   0     0   0   0     0   0   0     0   0   0  
   0   0   0     0   0   0    26  22  21    26  22  21    26  22  21    27  23  22    28  24  23    30  26  25    32  28  27    34  30  29    35  31  30     0   0   0     0   0   0     0   0   0     0   0   0     0   0   0     0   0   0     0   0   0     0   0   0     0   0   0     0   0   0     0   0   0     0   0   0     0   0   0     0   0   0     0   0   0     0   0   0     0   0   0     0   0   0     0   0   0     0   0   0    33  27  27    34  26  24    33  25  23    33  23  21    32  22  20    33  23  21    33  23  21    33  25  23    33  25  23    30  24  24    28  22  22    25  21  22     0   0   0     0   0   0     0   0   0     0   0   0     0   0   0     0   0   0     0   0   0  
   0   0   0     0   0   0    26  22  21    26  22  21    26  22  22    27  23  23    29  25  25    30  26  26    32  28  28    34  30  30     0   0   0     0   0   0     0   0   0     0   0   0     0   0   0     0   0   0     0   0   0     0   0   0     0   0   0     0   0   0     0   0   0     0   0   0     0   0   0     0   0   0     0   0   0     0   0   0     0   0   0     0   0   0     0   0   0     0   0   0     0   0   0     0   0   0    34  25  24    33  25  23    33  23  21    32  22  20    32  22  20    33  23  20    32  24  22    32  24  22    29  23  23    27  20  20    24  20  20    23  19  18     0   0   0     0   0   0     0   0   0     0   0   0     0   0   0     0   0   0  
   0   0   0     0   0   0    27  23  24    27  23  24    28  24  25    29  25  26    31  27  28    32  28  29    34  30  31     0   0   0     0   0   0     0   0   0     0   0   0     0   0   0     0   0   0     0   0   0     0   0   0     0   0   0     0   0   0     0   0   0     0   0   0     0   0   0     0   0   0     0   0   0     0   0   0     0   0   0     0   0   0     0   0   0     0   0   0     0   0   0     0   0   0     0   0   0     0   0   0    33  25  23    34  24  22    34  24  22    31  21  19    32  22  20    31  23  21    31  23  21    28  22  22    26  20  20    23  19  20    22  18  17    25  19  19     0   0   0     0   0   0     0   0   0     0   0   0     0   0   0  
   0   0   0     0   0   0    28  24  25    28  24  25    30  25  27    30  26  27    32  28  29    34  30  30     0   0   0     0   0   0     0   0   0     0   0   0     0   0   0     0   0   0     0   0   0     0   0   0     0   0   0     0   0   0     0   0   0     0   0   0     0   0   0     0   0   0     0   0   0     0   0   0     0   0   0     0   0   0     0   0   0     0   0   0     0   0   0     0   0   0     0   0   0     0   0   0     0   0   0    34  25  24    35  25  23    34  24  22    31  21  19    31  21  19    30  22  20    29  21  19    26  20  20    24  18  18    22  18  19    22  18  17    25  19  19    25  20  18     0   0   0     0   0   0     0   0   0     0   0   0  
   0   0   0     0   0   0    30  26  27    30  26  27    31  27  28    32  28  29    33  29  30     0   0   0     0   0   0     0   0   0     0   0   0     0   0   0     0   0   0     0   0   0     0   0   0     0   0   0     0   0   0     0   0   0     0   0   0     0   0   0     0   0   0     0   0   0     0   0   0     0   0   0     0   0   0     0   0   0     0   0   0     0   0   0     0   0   0     0   0   0     0   0   0     0   0   0     0   0   0     0   0   0    35  25  23    35  25  23    32  22  20    31  21  19    30  22  20    29  21  19    25  19  19    24  18  18    23  19  20    22  18  17    25  19  19    26  21  18     0   0   0     0   0   0     0   0   0     0   0   0  
   0   0   0     0   0   0    30  28  29    30  28  29    30  28  29    31  29  30     0   0   0     0   0   0     0   0   0     0   0   0     0   0   0     0   0   0     0   0   0     0   0   0     0   0   0     0   0   0     0   0   0     0   0   0     0   0   0     0   0   0     0   0   0     0   0   0     0   0   0     0   0   0     0   0   0     0   0   0     0   0   0     0   0   0     0   0   0     0   0   0     0   0   0     0   0   0     0   0   0     0   0   0     0   0   0    35  25  23    33  23  21    32  22  20    30  22  20    29  21  19    26  20  20    25  19  19    24  20  21    23  19  18    25  19  19    26  21  18    29  21  19     0   0   0     0   0   0     0   0   0  
   0   0   0     0   0   0    29  31  33    29  30  31    30  31  33     0   0   0     0   0   0     0   0   0     0   0   0     0   0   0     0   0   0     0   0   0     0   0   0     0   0   0     0   0   0     0   0   0     0   0   0     0   0   0     0   0   0     0   0   0     0   0   0     0   0   0     0   0   0     0   0   0     0   0   0     0   0   0     0   0   0     0   0   0     0   0   0     0   0   0     0   0   0     0   0   0     0   0   0     0   0   0     0   0   0    36  26  23    34  24  22    33  23  21    30  22  20    27  22  19    25  20  20    23  20  19    23  20  20    24  20  19    26  20  17    28  20  18    31  22  20    32  23  21     0   0   0     0   0   0  
   0   0   0    32  33  36    29  33  36    28  32  34     0   0   0     0   0   0     0   0   0     0   0   0     0   0   0     0   0   0     0   0   0     0   0   0     0   0   0     0   0   0     0   0   0     0   0   0     0   0   0     0   0   0     0   0   0     0   0   0     0   0   0     0   0   0     0   0   0     0   0   0     0   0   0     0   0   0     0   0   0     0   0   0     0   0   0     0   0   0     0   0   0     0   0   0     0   0   0     0   0   0     0   0   0     0   0   0     0   0   0     0   0   0     0   0   0     0   0   0     0   0   0    22  21  19    22  21  19    24  21  19    27  19  16    31  20  17    32  22  20    34  24  22    34  26  24     0   0   0  
  37  36  41    34  35  39    30  34  37     0   0   0     0   0   0     0   0   0     0   0   0     0   0   0     0   0   0     0   0   0     0   0   0     0   0   0     0   0   0     0   0   0     0   0   0     0   0   0     0   0   0     0   0   0     0   0   0     0   0   0     0   0   0     0   0   0     0   0   0     0   0   0     0   0   0     0   0   0     0   0   0     0   0   0     0   0   0     0   0   0     0   0   0     0   0   0     0   0   0     0   0   0     0   0   0     0   0   0     0   0   0     0   0   0     0   0   0     0   0   0     0   0   0     0   0   0     0   0   0     0   0   0     0   0   0     0   0   0     0   0   0    35  25  23    35  27  25    36  28  26  
  39  38  43    36  37  41     0   0   0     0   0   0     0   0   0     0   0   0     0   0   0     0   0   0     0   0   0     0   0   0     0   0   0     0   0   0     0   0   0     0   0   0     0   0   0     0   0   0     0   0   0     0   0   0     0   0   0     0   0   0     0   0   0     0   0   0     0   0   0     0   0   0     0   0   0     0   0   0     0   0   0     0   0   0     0   0   0     0   0   0     0   0   0     0   0   0     0   0   0     0   0   0     0   0   0     0   0   0     0   0   0     0   0   0     0   0   0     0   0   0     0   0   0     0   0   0     0   0   0     0   0   0     0   0   0     0   0   0     0   0   0     0   0   0    35  27  25    37  29  27  
