P3
62 50
255
   0   0   0     0   0   0     0   0   0     0   0   0     0   0   0     0   0   0     0   0   0     0   0   0     0   0   0     0   0   0     0   0   0     0   0   0   164 168 171   165 169 172     0   0   0     0   0   0     0   0   0     0   0   0     0   0   0     0   0   0     0   0   0     0   0   0     0   0   0     0   0   0     0   0   0     0   0   0     0   0   0     0   0   0     0   0   0     0   0   0     0   0   0     0   0   0     0   0   0     0   0   0     0   0   0     0   0   0     0   0   0     0   0   0     0   0   0     0   0   0     0   0   0     0   0   0     0   0   0     0   0   0     0   0   0     0   0   0     0   0   0     0   0   0     0   0   0     0   0   0     0   0   0     0   0   0     0   0   0     0   0   0     0   0   0     0   0   0     0   0   0     0   0   0     0   0   0     0   0   0   198 194 193   194 190 189  
   0   0   0     0   0   0     0   0   0     0   0   0     0   0   0     0   0   0     0   0   0     0   0   0     0   0   0     0   0   0     0   0   0     0   0   0   163 167 170   163 167 170   163 167 170   165 167 170     0   0   0     0   0   0     0   0   0     0   0   0     0   0   0     0   0   0     0   0   0     0   0   0     0   0   0     0   0   0     0   0   0     0   0   0     0   0   0     0   0   0     0   0   0     0   0   0     0   0   0     0   0   0     0   0   0     0   0   0     0   0   0     0   0   0     0   0   0     0   0   0     0   0   0     0   0   0     0   0   0     0   0   0     0   0   0     0   0   0     0   0   0     0   0   0     0   0   0     0   0   0     0   0   0     0   0   0     0   0   0     0   0   0     0   0   0     0   0   0     0   0   0     0   0   0     0   0   0   198 194 193   197 193 192   194 190 189  
   0   0   0     0   0   0     0   0   0     0   0   0     0   0   0     0   0   0     0   0   0     0   0   0     0   0   0     0   0   0     0   0   0   161 165 168   161 165 168   161 165 168   163 167 170   165 167 170   166 167 171   166 167 171     0   0   0     0   0   0     0   0   0     0   0   0     0   0   0     0   0   0     0   0   0     0   0   0     0   0   0     0   0   0     0   0   0     0   0   0     0   0   0     0   0   0     0   0   0     0   0   0     0   0   0     0   0   0     0   0   0     0   0   0     0   0   0     0   0   0     0   0   0     0   0   0     0   0   0     0   0   0     0   0   0     0   0   0     0   0   0     0   0   0     0   0   0     0   0   0     0   0   0     0   0   0     0   0   0     0   0   0     0   0   0     0   0   0     0   0   0     0   0   0     0   0   0   197 193 192   197 193 192   194 190 189  
   0   0   0     0   0   0     0   0   0     0   0   0     0   0   0     0   0   0     0   0   0     0   0   0     0   0   0     0   0   0   162 166 169   161 165 168   160 164 167   160 164 167   162 166 169   164 166 170   165 166 170   167 168 172   170 171 175   175 176 180     0   0   0     0   0   0     0   0   0     0   0   0     0   0   0     0   0   0     0   0   0     0   0   0     0   0   0     0   0   0     0   0   0     0   0   0     0   0   0     0   0   0     0   0   0     0   0   0     0   0   0     0   0   0     0   0   0     0   0   0     0   0   0     0   0   0     0   0   0     0   0   0     0   0   0     0   0   0     0   0   0     0   0   0     0   0   0     0   0   0     0   0   0     0   0   0     0   0   0     0   0   0     0   0   0     0   0   0     0   0   0   199 194 194   196 192 191   198 194 193   197 193 192   195 191 190  
   0   0   0     0   0   0     0   0   0     0   0   0     0   0   0     0   0   0     0   0   0     0   0   0     0   0   0     0   0   0   163 167 170   161 165 168   159 163 166   159 163 166   161 165 168   163 165 170   165 166 171   167 168 173   171 172 176   175 176 180   178 179 182   180 181 183     0   0   0     0   0   0     0   0   0     0   0   0     0   0   0     0   0   0     0   0   0     0   0   0     0   0   0     0   0   0     0   0   0     0   0   0     0   0   0     0   0   0     0   0   0     0   0   0     0   0   0     0   0   0     0   0   0     0   0   0     0   0   0     0   0   0     0   0   0     0   0   0     0   0   0     0   0   0     0   0   0     0   0   0     0   0   0     0   0   0     0   0   0     0   0   0   203 203 204   202 201 200   204 200 199   202 198 197   199 195 194   200 196 195   200 196 195   197 193 192  
   0   0   0     0   0   0     0   0   0     0   0   0     0   0   0     0   0   0     0   0   0     0   0   0     0   0   0     0   0   0   165 166 170   163 164 168   161 162 166   161 161 166   163 164 168   163 164 168   165 166 170   167 168 172   171 172 176   175 176 179   177 178 180   179 180 182   179 181 180   181 183 182     0   0   0     0   0   0     0   0   0     0   0   0     0   0   0     0   0   0     0   0   0     0   0   0     0   0   0     0   0   0     0   0   0     0   0   0     0   0   0     0   0   0     0   0   0     0   0   0     0   0   0     0   0   0     0   0   0     0   0   0     0   0   0     0   0   0     0   0   0     0   0   0     0   0   0     0   0   0     0   0   0     0   0   0   201 201 203   201 201 203   202 202 203   204 203 202   206 202 201   204 199 199   201 197 196   202 198 197   202 198 197   199 195 194  
   0   0   0     0   0   0     0   0   0     0   0   0     0   0   0     0   0   0     0   0   0     0   0   0     0   0   0   165 167 166   167 169 168   165 167 166   161 163 162   161 163 162   166 167 167   166 166 168   164 164 166   163 163 165   168 168 170   174 174 175   177 177 177   177 177 177   180 180 180   180 180 180   183 183 183   186 186 186   185 185 185     0   0   0     0   0   0     0   0   0     0   0   0     0   0   0     0   0   0     0   0   0     0   0   0     0   0   0     0   0   0     0   0   0     0   0   0     0   0   0     0   0   0     0   0   0     0   0   0     0   0   0     0   0   0     0   0   0     0   0   0     0   0   0     0   0   0   200 200 198   200 200 199   201 201 199   201 201 199   202 202 200   202 202 200   200 199 197   204 203 201   203 202 199   200 199 197   201 200 198   198 197 196   199 198 196  
   0   0   0     0   0   0     0   0   0     0   0   0     0   0   0     0   0   0     0   0   0     0   0   0     0   0   0   167 167 167   169 169 169   167 167 167   164 164 164   163 163 163   167 167 167   166 166 166   165 165 165   166 166 166   169 169 169   174 174 174   176 176 176   178 178 178   181 181 181   181 181 181   184 184 184   186 186 186   185 185 185   184 184 184   187 185 185     0   0   0     0   0   0     0   0   0     0   0   0     0   0   0     0   0   0     0   0   0     0   0   0     0   0   0     0   0   0     0   0   0     0   0   0     0   0   0     0   0   0     0   0   0     0   0   0     0   0   0   201 201 199   201 201 199   200 200 198   200 200 198   200 200 198   200 200 198   201 201 199   201 201 199   201 201 199   200 199 197   203 202 200   203 202 200   202 201 199   204 203 201   201 200 198   199 198 196  
   0   0   0     0   0   0     0   0   0     0   0   0     0   0   0     0   0   0     0   0   0     0   0   0     0   0   0   168 168 168   170 170 170   168 168 168   166 166 166   166 166 166   168 168 168   167 167 167   167 167 167   169 169 169   170 170 170   172 172 172   175 175 175   178 178 178   182 182 182   182 182 182   185 185 185   187 187 187   186 186 186   186 186 186   188 188 185   190 188 184   192 190 187     0   0   0     0   0   0     0   0   0     0   0   0     0   0   0     0   0   0     0   0   0     0   0   0     0   0   0     0   0   0     0   0   0     0   0   0   200 200 198   201 201 199   200 200 198   199 199 197   200 200 198   199 199 197   198 198 196   199 199 197   199 199 197   199 199 197   200 200 198   200 200 198   200 199 197   204 202 200   203 202 200   204 203 201   208 207 205   204 203 201   200 199 197  
   0   0   0     0   0   0     0   0   0     0   0   0     0   0   0     0   0   0     0   0   0     0   0   0     0   0   0   170 170 170   170 170 170   170 170 170   168 168 168   167 167 167   169 169 169   168 168 168   170 170 170   172 172 172   172 172 172   172 172 172   175 175 175   179 179 179   184 184 184   183 183 183   186 186 186   187 187 187   187 187 187   188 188 188   193 191 191   196 192 190   193 191 189   198 196 197   205 205 207     0   0   0     0   0   0     0   0   0     0   0   0     0   0   0     0   0   0     0   0   0     0   0   0   202 198 195   199 198 196   199 199 197   199 199 197   198 198 196   198 198 196   198 198 196   198 198 196   197 197 195   197 197 195   197 197 195   198 198 196   198 198 196   199 199 197   200 199 197   203 202 199   202 201 199   205 204 202   211 210 208   207 206 204   201 200 198  
   0   0   0     0   0   0     0   0   0     0   0   0     0   0   0     0   0   0     0   0   0     0   0   0     0   0   0   171 171 171   172 172 172   171 171 171   170 170 170   169 169 169   170 170 170   169 169 169   171 171 171   173 173 173   173 173 173   173 173 173   176 176 176   179 179 179   184 184 184   185 185 185   188 188 188   189 189 189   188 188 188   190 190 190   196 196 195   200 198 196   194 192 191   197 196 194   202 204 203   205 207 209   205 209 210     0   0   0     0   0   0     0   0   0   205 206 205   208 207 205   205 202 200   202 201 199   198 198 196   198 198 195   197 197 195   197 197 195   198 198 196   198 198 196   197 197 195   196 196 194   196 196 194   196 196 194   197 197 195   197 197 195   197 197 195   199 198 196   203 202 199   202 201 199   205 204 202   212 211 209   207 206 204   201 200 198  
   0   0   0     0   0   0     0   0   0     0   0   0     0   0   0     0   0   0     0   0   0     0   0   0     0   0   0   172 172 172   172 172 172   172 172 172   172 172 172   170 170 170   170 170 170   170 170 170   172 172 172   173 173 173   173 173 173   175 175 175   177 177 177   180 180 180   184 184 184   186 186 186   190 190 190   191 191 191   189 189 189   192 192 192   200 197 197   203 199 198   195 193 191   196 194 194   201 201 201   204 206 208   206 210 211   215 219 220   218 222 223   206 207 209   203 202 203   207 206 205   202 199 198   204 200 199   199 198 196   197 197 195   197 197 195   198 198 196   199 199 197   198 198 196   195 195 194   195 195 193   195 195 193   196 196 194   196 196 194   196 196 194   197 197 195   198 197 195   202 201 199   202 201 199   204 203 201   209 208 206   205 204 202   201 200 198  
   0   0   0     0   0   0     0   0   0     0   0   0     0   0   0     0   0   0     0   0   0     0   0   0   173 173 173   172 172 172   172 172 172   173 173 173   173 173 173   172 172 172   171 171 171   171 171 171   172 172 172   171 171 171   174 174 174   177 177 177   179 179 179   180 180 180   184 184 184   187 187 187   192 192 192   193 193 193   191 191 191   193 193 193   198 197 197   199 196 197   194 192 193   194 194 194   198 200 199   201 204 203   205 209 208   209 213 212   213 217 216   203 205 204   200 201 201   204 203 203   199 196 197   202 199 200   198 198 196   197 197 195   198 198 196   200 200 198   200 200 198   198 198 196   195 195 193   195 195 193   195 195 193   195 195 193   196 196 194   196 196 194   197 197 195   196 196 194   201 201 199   201 201 199   200 200 198   203 203 201   201 201 199   201 201 199  
   0   0   0     0   0   0     0   0   0     0   0   0     0   0   0     0   0   0     0   0   0     0   0   0   173 173 173   172 172 172   172 172 172   173 173 173   173 173 173   172 172 172   171 171 171   172 172 172   171 171 171   170 170 170   174 174 174   179 179 179   180 180 180   180 180 180   183 183 183   188 188 188   194 194 194   194 194 194   191 191 191   193 193 193   198 195 196   197 193 194   193 191 192   195 193 194   198 198 198   199 202 201   202 206 205   205 209 208   210 214 213   203 205 204   200 199 200   203 201 202   196 193 194   202 198 199   199 198 196   197 197 195   199 199 197   201 201 199   201 201 199   198 198 196   195 195 193   195 195 193   195 195 193   195 195 193   196 196 194   196 196 194   197 197 195   196 196 193   200 200 198   201 201 199   198 198 196   200 200 198   199 199 197   201 201 199  
   0   0   0     0   0   0     0   0   0     0   0   0     0   0   0     0   0   0     0   0   0     0   0   0   173 173 173   175 175 175   174 174 174   174 174 174   174 174 174   173 173 173   173 173 173   174 174 174   173 173 173   173 173 173   173 173 173   177 177 177   180 180 180   183 183 183   184 184 184   187 187 187   191 191 191   193 193 193   194 194 194   194 194 194   193 192 193   192 189 190   191 189 190   191 191 191   189 191 190   190 192 191   194 198 197   195 199 198   196 200 199   200 202 201   199 200 200   199 198 199   200 197 198   199 197 198   199 199 197   199 199 197   199 199 197   198 198 196   198 198 196   198 198 196   198 198 196   198 198 196   196 196 193   194 194 192   193 193 191   193 193 191   194 194 192   194 194 192   194 194 192   196 196 194   197 197 195   197 197 195   197 197 195   196 196 194  
   0   0   0     0   0   0     0   0   0     0   0   0     0   0   0     0   0   0     0   0   0   173 173 173   174 174 174   175 175 175   174 174 174   174 174 174   174 174 174   173 173 173   173 173 173   173 173 173   173 173 173   173 173 173   173 173 173   177 177 177   180 180 180   182 182 182   182 182 182   185 185 185   189 189 189   191 191 191   192 192 192   192 192 192   192 189 190   192 188 189   190 187 188   190 188 189   189 189 189   187 190 189   192 196 195   192 196 196   194 198 197   198 200 199   199 199 199   200 198 199   201 198 199   202 198 199   200 199 197   199 199 197   198 198 196   198 198 196   198 198 196   197 197 195   196 196 194   194 194 192   193 193 191   192 192 190   193 193 191   193 193 191   195 195 193   193 193 191   193 193 191   194 194 192   196 196 194   196 196 194   196 196 194   196 196 194  
   0   0   0     0   0   0     0   0   0     0   0   0     0   0   0     0   0   0     0   0   0   174 174 174   175 175 175   175 175 175   175 175 175   174 174 174   174 174 174   174 174 174   173 173 173   172 172 172   172 172 172   172 172 172   173 173 173   176 176 176   178 178 178   181 181 181   181 181 181   183 183 183   186 186 186   188 188 188   189 189 189   189 189 189   189 188 189   190 186 190   188 185 188   187 187 187   185 187 186   184 187 184   187 192 188   187 192 188   189 194 191   195 197 194   197 199 198   199 198 200   201 197 201   201 199 200   198 198 196   198 198 196   198 198 196   198 198 196   197 197 195   196 196 194   194 194 192   191 191 189   191 191 189   191 191 189   192 192 190   193 193 191   195 195 193   191 193 190   190 192 189   192 194 191   193 195 192   194 196 193   194 196 193   193 195 192  
   0   0   0     0   0   0     0   0   0     0   0   0     0   0   0     0   0   0   174 174 174   175 175 175   175 175 175   175 175 175   174 174 174   174 174 174   174 174 174   173 173 173   173 173 173   172 172 172   171 171 171   172 172 172   172 172 172   175 175 175   177 177 177   179 179 179   180 180 180   182 182 182   185 185 185   186 186 186   187 187 187   187 187 187   188 185 187   189 184 188   185 182 185   184 182 185   183 183 183   181 184 181   183 188 184   183 188 184   186 191 187   192 194 191   196 196 197   199 197 200   202 198 201   204 199 203   198 196 197   198 198 196   198 198 196   197 197 195   196 196 194   195 195 193   193 193 191   191 191 189   191 191 189   192 192 190   192 192 190   193 193 191   193 193 191   189 191 188   189 191 188   190 192 189   192 194 191   193 195 192   193 195 192   193 195 192  
   0   0   0     0   0   0     0   0   0     0   0   0     0   0   0   174 174 174   174 174 174   175 175 175   175 175 175   174 174 174   174 174 174   174 174 174   173 173 173   173 173 173   173 173 173   171 171 171   171 171 171   171 171 171   172 172 172   174 174 174   176 176 176   178 178 178   181 181 181   182 182 182   184 184 184   185 185 185   185 185 185   185 185 185   186 185 186   186 183 187   182 179 183   181 181 181   180 182 179   179 181 178   180 185 179   180 185 178   182 187 182   190 192 189   194 195 193   197 196 198   200 196 201   200 198 201   197 197 197   197 197 195   197 197 195   197 197 195   195 195 193   194 194 192   193 193 191   194 194 192   194 194 192   193 193 191   193 193 191   192 192 190   192 192 190   188 190 187   188 190 187   189 191 188   191 193 190   193 195 192   193 195 192   193 195 192  
   0   0   0     0   0   0     0   0   0     0   0   0   174 174 174   173 173 173   174 174 174   175 175 175   174 174 174   173 173 173   173 173 173   173 173 173   172 172 172   172 172 172   172 172 172   171 171 171   171 171 171   172 172 172   173 173 173   175 175 175   175 175 175   177 177 177   181 181 181   181 181 181   182 182 182   183 183 183   183 183 183   183 183 183   185 182 186   185 180 186   180 177 181   180 178 181   180 180 179   178 181 177   178 183 177   178 183 177   182 187 180   188 190 188   194 193 194   196 194 197   198 194 199   199 194 198   197 195 196   196 196 194   197 197 195   196 196 194   194 194 192   192 192 190   192 192 190   194 194 192   194 194 192   194 194 192   193 193 191   192 192 190   191 191 189   188 189 186   188 190 187   189 191 188   191 193 191   193 195 192   193 195 192   193 195 192  
   0   0   0     0   0   0     0   0   0     0   0   0   174 174 174   173 173 173   174 174 174   174 174 174   174 174 174   172 172 172   172 172 172   172 172 172   171 171 171   171 171 171   171 171 171   171 171 171   172 172 172   172 172 172   173 173 173   175 175 175   175 175 175   176 176 176   179 179 179   179 179 179   180 180 180   180 180 180   180 180 180   180 180 180   181 181 181   183 180 184   178 176 179   178 178 178   178 180 177   178 181 177   178 183 177   178 183 177   181 186 179   188 190 187   191 193 191   194 193 194   195 191 196   194 192 195   195 195 195   196 196 194   197 197 195   196 196 194   194 194 192   191 191 189   190 190 188   191 191 189   192 192 190   193 193 191   192 192 190   192 192 190   191 191 189   188 189 186   188 190 187   190 192 189   192 194 191   194 196 193   194 196 193   194 196 193  
   0   0   0     0   0   0     0   0   0   174 174 174   173 173 173   173 173 173   173 173 173   174 174 174   174 174 174   172 172 172   171 171 171   171 171 171   171 171 171   170 170 170   170 170 170   170 170 170   172 172 172   173 173 173   173 173 173   175 175 175   175 175 175   176 176 176   178 178 178   178 178 178   178 178 178   178 178 178   178 178 178   178 178 178   180 179 180   182 180 183   177 175 178   177 177 177   178 180 179   178 181 178   178 183 179   178 183 179   183 186 182   188 190 187   192 192 192   193 191 193   194 190 193   192 190 193   195 195 195   196 196 194   197 197 195   196 196 194   193 193 191   191 191 189   188 188 186   188 188 186   189 189 187   191 191 189   192 192 190   192 192 190   191 192 189   188 190 187   189 191 188   190 192 189   192 195 191   195 197 194   195 197 194   195 197 194  
   0   0   0     0   0   0   175 175 175   174 174 174   173 173 173   172 172 172   171 171 171   169 169 169   167 167 167   166 166 166   167 167 167   170 170 170   171 171 171   171 171 171   171 171 171   172 172 172   173 173 173   172 172 172   172 172 172   174 174 174   175 175 175   177 177 177   176 176 176   175 175 175   175 175 175   175 175 175   178 178 178   179 179 179   179 179 179   177 179 178   177 179 178   176 178 177   175 177 176   176 177 176   178 180 178   179 180 178   182 182 182   184 184 184   186 186 186   189 187 188   190 188 189   193 191 192   194 194 194   192 192 191   193 193 191   194 195 193   191 193 190   191 193 190   192 194 190   190 192 187   190 193 188   189 194 188   189 194 188   189 194 187   189 192 186   190 192 189   193 193 193   195 195 195   197 197 197   199 199 199   199 199 199   199 199 199  
   0   0   0   172 173 175   174 174 174   172 172 172   171 171 171   171 171 171   170 170 170   169 169 169   166 166 166   166 166 166   167 167 167   170 170 170   171 171 171   172 172 172   172 172 172   173 173 173   173 173 173   172 172 172   173 173 173   174 174 174   175 175 175   177 177 177   175 175 175   175 175 175   175 175 175   175 175 175   177 177 177   178 178 178   177 178 178   175 178 177   175 178 177   175 177 176   174 176 175   175 176 176   177 179 178   179 180 180   182 182 182   185 185 185   187 187 187   190 188 189   192 190 191   195 193 194   194 194 194   191 191 191   192 192 191   191 193 190   189 191 188   189 191 188   190 192 189   190 192 188   189 193 188   190 195 189   190 195 189   189 194 187   189 193 187   192 193 190   194 194 194   196 196 196   197 197 197   199 199 199   198 198 198   198 198 198  
   0   0   0   171 172 174   173 173 173   170 170 170   169 169 169   169 169 169   169 169 169   167 167 167   165 165 165   165 165 165   166 166 166   169 169 169   172 172 172   173 173 173   174 174 174   173 173 173   173 173 173   173 173 173   173 173 173   175 175 175   175 175 175   176 176 176   173 173 173   174 174 174   176 176 176   176 176 176   176 176 176   176 176 176   175 176 176   176 178 177   176 178 177   175 177 176   174 176 175   175 176 175   177 177 177   179 179 179   183 183 183   187 185 186   190 187 188   192 190 191   195 193 194   198 196 197   195 195 197   194 196 195   194 196 195   193 195 194   191 193 192   190 192 191   190 192 189   191 193 190   192 194 190   192 194 189   192 194 189   192 194 189   191 193 188   194 194 191   196 196 196   197 197 197   198 198 198   198 198 198   198 198 198   197 197 197  
 168 169 171   171 172 174   171 171 171   168 168 168   167 167 167   167 167 167   167 167 167   166 166 166   164 164 164   164 164 164   166 166 166   169 169 169   172 172 172   174 174 174   175 175 175   174 174 174   174 174 174   174 174 174   174 174 174   175 175 175   175 175 175   176 176 176   174 174 174   175 175 175   177 177 177   178 178 178   177 177 177   176 176 176   175 176 176   175 177 176   175 177 176   174 176 175   173 175 174   174 175 175   177 177 177   180 180 180   183 183 183   187 185 186   191 189 190   194 192 193   198 196 197   200 199 200   200 201 203   203 204 206   203 204 205   199 201 200   198 200 199   196 198 197   193 195 194   192 194 192   192 194 191   193 193 191   193 193 191   193 194 189   193 194 190   196 196 195   197 197 197   198 198 198   199 199 199   199 199 199   197 197 197   196 196 196  
   0   0   0   170 171 173   169 169 169   166 166 166   165 165 165   165 165 165   165 165 165   165 165 165   164 164 164   164 164 164   166 166 166   169 169 169   172 172 172   174 174 174   175 175 175   175 175 175   175 175 175   176 176 176   176 176 176   176 176 176   176 176 176   176 176 176   176 176 176   176 176 176   179 179 179   179 179 179   178 178 178   177 177 177   176 177 176   175 177 176   175 177 176   174 176 175   173 175 174   173 175 174   176 176 176   180 180 180   183 183 183   188 186 187   192 190 191   196 194 195   199 197 198   201 201 201   200 205 206   206 211 215   206 211 213   201 205 206   202 206 207   201 202 204   195 197 196   194 194 194   193 193 193   193 193 193   193 193 193   193 193 191   194 194 192   196 196 195   198 198 198   198 198 198   199 199 199   198 198 198   197 197 197   196 196 196  
   0   0   0   168 169 171   168 168 168   165 165 165   163 163 163   163 163 163   164 164 164   164 164 164   164 164 164   166 166 166   167 167 167   170 170 170   172 172 172   174 174 174   174 174 174   175 175 175   177 177 177   177 177 177   178 178 178   178 178 178   177 177 177   177 177 177   177 177 177   178 178 178   179 179 179   179 179 179   179 179 179   178 178 178   177 177 177   175 177 176   175 177 176   174 176 175   173 175 174   174 175 175   177 177 177   180 180 180   184 184 184   188 186 187   191 190 191   195 193 194   199 197 198   201 201 201   199 203 206   209 214 217   208 213 216   202 206 209   204 208 209   202 203 205   195 196 198   194 194 195   194 192 193   194 192 193   194 192 193   196 192 193   196 193 193   196 196 195   197 197 197   198 198 198   198 198 198   198 198 198   197 197 197   196 196 196  
   0   0   0     0   0   0   167 167 167   164 164 164   162 162 162   162 162 162   164 164 164   164 164 164   165 165 165   167 167 167   168 168 168   171 171 171   172 172 172   173 173 173   173 173 173   176 176 176   178 178 178   179 179 179   180 180 180   180 180 180   178 178 178   178 178 178   178 178 178   178 178 178   177 177 177   177 177 177   177 177 177   178 178 178   177 178 177   175 177 174   175 176 174   175 175 173   174 174 172   175 175 172   177 177 175   181 181 179   185 184 182   188 187 185   192 190 188   196 192 191   200 196 195   200 199 199   198 202 205   209 216 219   209 214 218   203 207 210   205 209 212   205 206 210   196 197 199   194 194 196   193 191 194   195 190 194   195 190 194   195 191 192   197 193 194   196 194 195   196 196 196   197 197 197   198 198 198   198 198 198   197 197 197   196 196 196  
   0   0   0     0   0   0     0   0   0   164 164 164   162 162 162   162 162 162   163 163 163   164 164 164   165 165 165   168 168 168   169 169 169   171 171 171   172 172 172   173 173 173   173 173 173   177 177 177   179 179 179   180 180 180   181 181 181   181 181 181   179 179 179   178 178 178   178 178 178   177 177 177   176 176 176   175 175 175   176 176 176   177 177 177   176 177 176   176 178 175   177 177 175   176 176 174   174 174 172   175 175 173   177 177 175   181 181 179   185 184 182   188 187 185   191 189 187   196 192 191   199 195 194   200 198 199   199 203 206   211 218 221   212 217 221   205 209 212   208 212 215   208 209 213   198 197 202   194 193 196   195 191 194   194 189 193   195 189 193   196 190 194   197 192 194   196 193 194   195 195 195   196 196 196   197 197 197   198 198 198   197 197 197   196 196 196  
   0   0   0     0   0   0     0   0   0   164 164 164   161 161 161   159 159 159   162 162 162   165 165 165   166 166 166   167 167 167   167 167 167   168 168 168   170 170 170   172 172 172   175 175 175   177 177 177   179 179 179   179 179 179   179 179 179   179 179 179   177 177 177   176 176 176   179 179 179   179 179 179   178 178 178   177 177 177   176 176 176   176 176 176   175 175 175   173 173 171   172 172 170   174 174 172   174 174 172   173 173 171   177 176 174   181 180 178   184 183 181   186 182 181   188 184 183   195 191 190   201 197 196   200 198 199   200 204 207   208 213 217   206 211 215   204 208 211   205 209 212   202 202 207   198 198 202   194 193 196   192 188 192   193 188 192   195 189 193   195 188 192   197 189 192   197 194 195   196 196 196   200 200 200   201 201 201   199 199 199   198 198 198   194 194 194  
   0   0   0     0   0   0     0   0   0     0   0   0   163 163 163   160 160 160   164 164 164   166 166 166   166 166 166   167 167 167   168 168 168   169 169 169   171 171 171   173 173 173   176 176 176   177 177 177   179 179 179   179 179 179   179 179 179   179 179 179   177 177 177   176 176 176   178 178 178   178 178 178   178 178 178   176 176 176   176 176 176   175 175 175   175 175 174   174 174 172   171 171 169   173 173 171   174 174 172   174 173 171   177 176 174   180 179 177   183 182 180   185 181 180   186 182 181   192 188 187   197 193 192   196 194 195   198 199 203   205 208 213   204 207 212   202 205 209   204 205 209   201 199 204   197 196 200   194 192 195   191 187 191   191 186 190   194 188 192   195 188 192   197 190 192   198 195 196   197 197 197   201 201 201   202 202 202   200 200 200   201 201 201   200 200 200  
   0   0   0     0   0   0     0   0   0     0   0   0   165 165 165   162 162 162   164 164 164   167 167 167   167 167 167   168 168 168   169 169 169   171 171 171   173 173 173   174 174 174   176 176 176   177 177 177   179 179 179   179 179 179   179 179 179   179 179 179   177 177 177   176 176 176   177 177 177   177 177 177   177 177 177   175 175 175   175 175 175   174 174 174   174 174 174   174 174 171   172 171 167   173 172 168   174 173 169   175 174 170   179 178 174   182 179 175   184 180 177   184 180 177   184 180 176   188 183 180   192 187 184   192 188 187   193 193 195   198 202 205   199 201 205   199 200 203   200 201 203   198 198 200   197 196 198   195 193 194   191 187 188   190 186 187   193 187 189   194 188 189   197 192 191   198 195 195   197 197 197   202 202 202   201 201 201   199 199 199   204 204 204   208 208 208  
   0   0   0     0   0   0     0   0   0     0   0   0     0   0   0   164 164 164   167 167 167   169 169 169   168 168 168   168 168 168   170 170 170   173 173 173   175 175 175   176 176 176   176 176 176   177 177 177   179 179 179   179 179 179   179 179 179   179 179 179   177 177 177   176 176 176   177 177 177   176 176 176   176 176 176   175 175 175   174 174 174   173 173 173   173 173 173   174 174 171   172 171 167   173 172 168   174 173 169   176 175 171   180 179 175   183 180 177   186 182 179   186 182 179   184 180 177   186 181 178   188 183 180   187 183 182   188 188 190   195 194 199   195 195 198   196 196 198   197 197 199   195 195 197   196 196 197   198 196 197   193 189 190   191 187 188   192 188 189   193 187 187   196 191 191   196 193 193   195 195 195   199 199 199   197 197 197   196 196 196   204 204 204   210 210 210  
   0   0   0     0   0   0     0   0   0     0   0   0     0   0   0     0   0   0   168 168 168   169 169 169   169 169 169   169 169 169   170 170 170   174 174 174   175 175 175   176 176 176   176 176 176   177 177 177   179 179 179   179 179 179   179 179 179   179 179 179   177 177 177   176 176 176   176 176 176   175 175 175   175 175 175   174 174 174   173 173 173   173 173 173   173 173 170   174 173 169   172 171 167   174 173 169   176 175 171   178 176 172   183 179 176   186 182 179   189 186 183   190 185 182   186 181 178   186 181 178   187 182 179   186 182 181   185 184 185   190 190 192   191 191 192   193 193 193   195 193 194   194 192 193   198 197 197   202 201 199   195 194 192   191 190 188   190 189 187   190 189 185   193 192 189   192 191 191   191 191 191   195 195 195   193 193 193   191 191 191   201 201 201   207 207 207  
   0   0   0     0   0   0     0   0   0     0   0   0     0   0   0     0   0   0   168 168 168   169 169 169   168 168 168   169 169 169   170 170 170   173 173 173   175 175 175   176 176 176   177 177 177   178 178 178   179 179 179   179 179 179   179 179 179   179 179 179   177 177 177   176 176 176   176 176 176   175 175 175   175 175 175   174 174 174   173 173 173   173 173 173   172 172 172   174 173 170   173 172 168   176 174 171   178 177 173   180 178 175   185 181 178   189 185 182   193 189 186   194 189 186   189 184 181   187 182 179   187 182 179   187 181 181   186 183 184   190 188 190   192 190 191   194 192 193   194 192 193   193 191 192   199 198 198   202 201 199   195 194 192   192 191 189   191 190 186   190 189 185   192 191 187   190 190 187   189 189 189   192 192 192   191 191 191   190 190 190   198 198 198   203 203 203  
   0   0   0     0   0   0     0   0   0     0   0   0     0   0   0     0   0   0     0   0   0   168 168 168   168 168 168   170 170 170   170 170 170   172 172 172   174 174 174   176 176 176   178 178 178   178 178 178   179 179 179   179 179 179   179 179 179   179 179 179   177 177 177   176 176 176   176 176 176   175 175 175   175 175 175   174 174 174   173 173 173   173 173 173   173 173 170   173 172 168   174 173 169   178 177 173   181 180 176   182 180 176   185 181 178   190 186 183   194 191 188   196 191 188   191 186 183   188 183 180   187 182 179   188 182 182   188 184 185   192 188 189   194 190 189   197 193 192   196 192 191   193 192 190   198 197 195   198 197 193   193 192 188   192 191 187   191 192 186   190 191 185   191 192 187   191 191 189   189 189 189   193 193 193   193 193 193   192 192 192   196 196 196   198 198 198  
   0   0   0     0   0   0     0   0   0     0   0   0     0   0   0     0   0   0     0   0   0   168 168 168   168 168 168   170 170 170   170 170 170   171 171 171   173 173 173   176 176 176   178 178 178   178 178 178   179 179 179   179 179 179   179 179 179   179 179 179   177 177 177   176 176 176   176 176 176   175 175 175   175 175 175   174 174 174   174 174 174   173 173 173   173 173 172   173 172 169   174 173 169   179 178 174   182 181 177   182 180 177   185 181 178   190 186 183   195 192 189   197 192 189   191 186 183   188 183 180   188 183 180   187 183 180   190 186 185   192 190 188   195 191 190   198 194 193   197 193 192   196 192 191   200 196 195   194 192 190   190 188 186   191 190 186   191 192 187   190 191 186   192 193 189   193 193 192   191 191 191   194 194 194   195 195 195   195 195 195   197 197 197   195 195 195  
   0   0   0     0   0   0     0   0   0     0   0   0     0   0   0     0   0   0     0   0   0     0   0   0   167 167 166   170 170 168   172 172 170   174 174 172   174 174 172   176 176 173   178 178 176   178 178 178   177 177 177   178 178 178   179 179 179   180 180 180   178 178 178   176 176 176   176 176 176   175 175 175   175 175 175   174 174 174   174 174 174   174 174 174   173 172 170   174 173 169   176 175 171   178 177 173   181 180 176   186 186 181   188 187 183   195 194 190     0   0   0     0   0   0   190 189 185   186 185 181   185 184 180   185 184 180   186 187 182   188 188 183   191 190 186   193 190 187   194 190 187   194 190 189   193 189 188   192 188 187   190 188 187   191 189 189   192 192 192   192 194 193   192 194 193   193 194 194   194 194 194   194 194 194   194 194 194   194 196 195   195 197 195   196 198 197  
   0   0   0     0   0   0     0   0   0     0   0   0     0   0   0     0   0   0     0   0   0     0   0   0   168 168 166   171 171 169   172 172 170   174 174 172   174 174 172   176 176 173   178 178 176   178 178 178   178 178 178   178 178 178   179 179 179   180 180 180   178 178 178   177 177 177   175 175 175   175 175 175   174 174 174   174 174 174   173 173 173   173 173 173   173 173 172   176 175 172   178 177 173   180 179 175   183 182 178   187 186 182     0   0   0     0   0   0     0   0   0     0   0   0     0   0   0     0   0   0   185 184 180   185 184 180   185 186 180   185 187 180   187 187 182   190 187 183   192 188 185   193 187 187   193 187 187   192 186 188   192 187 189   191 189 190   192 192 194   192 193 195   193 194 196   194 194 195   194 194 194   194 194 194   194 194 194   196 197 196   197 199 198   200 202 201  
   0   0   0     0   0   0     0   0   0     0   0   0     0   0   0     0   0   0     0   0   0     0   0   0   170 170 167   172 172 170   173 173 171   175 175 173   175 175 173   176 176 173   178 178 176   179 179 178   178 178 178   178 178 178   179 179 179   180 180 180   178 178 178   177 177 177   174 174 174   174 174 174   174 174 174   173 173 173   173 173 173   173 173 173   173 173 170   177 176 172   180 179 175   181 180 176     0   0   0     0   0   0     0   0   0     0   0   0     0   0   0     0   0   0     0   0   0     0   0   0     0   0   0     0   0   0   183 185 180   183 185 180   185 185 181   187 184 181   189 185 182   190 184 184   191 185 185   191 186 186   190 188 188   191 189 190   191 191 193   192 193 195   193 194 196   194 195 195   196 194 195   195 193 194   195 195 195   198 198 198   201 201 201   204 204 204  
   0   0   0     0   0   0     0   0   0     0   0   0     0   0   0     0   0   0     0   0   0     0   0   0     0   0   0   173 173 171   174 174 172   175 175 173   175 175 173   176 176 173   178 178 176   179 179 178   178 178 178   177 177 177   178 178 178   179 179 179   178 178 178   177 177 177   174 174 174   174 174 174   174 174 174   174 174 174   174 174 174   174 174 174   175 174 174   178 177 174     0   0   0     0   0   0     0   0   0     0   0   0     0   0   0     0   0   0     0   0   0     0   0   0     0   0   0     0   0   0     0   0   0     0   0   0     0   0   0     0   0   0   184 185 180   185 184 180   188 184 181   190 184 184   190 184 184   191 186 185   190 188 188   191 189 190   191 191 193   192 192 194   194 194 196   196 195 196   196 194 195   195 193 194   195 193 194   197 196 197   200 200 200   203 203 203  
   0   0   0     0   0   0     0   0   0     0   0   0     0   0   0     0   0   0     0   0   0     0   0   0     0   0   0   174 174 172   175 175 173   175 175 173   175 175 173   175 175 173   177 177 175   178 178 177   176 176 176   175 175 175   176 176 176   178 178 178   177 177 177   176 176 176   175 175 175   175 175 175   175 175 175   175 175 175   175 175 175   175 175 175     0   0   0     0   0   0     0   0   0     0   0   0     0   0   0     0   0   0     0   0   0     0   0   0     0   0   0     0   0   0     0   0   0     0   0   0     0   0   0     0   0   0     0   0   0     0   0   0     0   0   0     0   0   0   187 186 184   190 186 185   190 185 185   190 186 185   191 188 189   191 189 190   190 190 190   191 191 191   193 193 193   197 196 195   199 195 194   197 193 192   194 193 191   195 194 192   196 195 193   198 197 195  
   0   0   0     0   0   0     0   0   0     0   0   0     0   0   0     0   0   0     0   0   0     0   0   0     0   0   0     0   0   0   175 175 174   175 175 173   174 174 172   174 174 172   176 176 174   176 176 175   175 175 175   173 173 173   173 173 173   175 175 175   175 175 175   174 174 174   174 174 174   174 174 174   175 175 175   175 175 175     0   0   0     0   0   0     0   0   0     0   0   0     0   0   0     0   0   0     0   0   0     0   0   0     0   0   0     0   0   0     0   0   0     0   0   0     0   0   0     0   0   0     0   0   0     0   0   0     0   0   0     0   0   0     0   0   0     0   0   0     0   0   0     0   0   0     0   0   0   191 187 186   192 189 190   192 190 191   190 188 189   188 188 188   192 191 191   196 193 193   197 193 192   196 192 191   194 191 190   193 192 190   194 193 190   194 193 191  
   0   0   0     0   0   0     0   0   0     0   0   0     0   0   0     0   0   0     0   0   0     0   0   0     0   0   0     0   0   0   175 175 173   175 175 173   174 174 172   173 173 171   175 175 173   174 174 174   173 173 173   171 171 171   171 171 171   173 173 173   173 173 173   173 173 173   172 172 172   172 172 172   173 173 173     0   0   0     0   0   0     0   0   0     0   0   0     0   0   0     0   0   0     0   0   0     0   0   0     0   0   0     0   0   0     0   0   0     0   0   0     0   0   0     0   0   0     0   0   0     0   0   0     0   0   0     0   0   0     0   0   0     0   0   0     0   0   0     0   0   0     0   0   0     0   0   0     0   0   0     0   0   0     0   0   0   189 188 186   188 187 186   191 189 190   193 190 190   195 191 188   195 191 188   196 192 189   196 192 189   195 191 188   195 191 188  
   0   0   0     0   0   0     0   0   0     0   0   0     0   0   0     0   0   0     0   0   0     0   0   0     0   0   0     0   0   0   175 175 173   175 175 173   173 173 171   172 172 170   174 174 172   173 173 173   171 171 171   170 170 170   170 170 170   172 172 172   172 172 172   171 171 171   170 170 170     0   0   0     0   0   0     0   0   0     0   0   0     0   0   0     0   0   0     0   0   0     0   0   0     0   0   0     0   0   0     0   0   0     0   0   0     0   0   0     0   0   0     0   0   0     0   0   0     0   0   0     0   0   0     0   0   0     0   0   0     0   0   0     0   0   0     0   0   0     0   0   0     0   0   0     0   0   0     0   0   0     0   0   0     0   0   0     0   0   0     0   0   0   191 188 188   192 188 187   193 189 186   195 191 188   196 192 189   197 193 190   197 193 190   196 192 189  
   0   0   0     0   0   0     0   0   0     0   0   0     0   0   0     0   0   0     0   0   0     0   0   0     0   0   0     0   0   0     0   0   0   173 173 171   174 174 172   173 173 171   174 174 172   174 174 174   174 174 174   171 171 171   168 168 168   169 169 169   169 169 169     0   0   0     0   0   0     0   0   0     0   0   0     0   0   0     0   0   0     0   0   0     0   0   0     0   0   0     0   0   0     0   0   0     0   0   0     0   0   0     0   0   0     0   0   0     0   0   0     0   0   0     0   0   0     0   0   0     0   0   0     0   0   0     0   0   0     0   0   0     0   0   0     0   0   0     0   0   0     0   0   0     0   0   0     0   0   0     0   0   0     0   0   0     0   0   0     0   0   0     0   0   0     0   0   0     0   0   0   189 188 186   194 193 191   197 196 194   198 195 193   198 194 193  
   0   0   0     0   0   0     0   0   0     0   0   0     0   0   0     0   0   0     0   0   0     0   0   0     0   0   0     0   0   0     0   0   0   173 173 171   173 173 171   173 173 171   175 175 173   175 175 175   175 175 175   172 172 172   169 169 169     0   0   0     0   0   0     0   0   0     0   0   0     0   0   0     0   0   0     0   0   0     0   0   0     0   0   0     0   0   0     0   0   0     0   0   0     0   0   0     0   0   0     0   0   0     0   0   0     0   0   0     0   0   0     0   0   0     0   0   0     0   0   0     0   0   0     0   0   0     0   0   0     0   0   0     0   0   0     0   0   0     0   0   0     0   0   0     0   0   0     0   0   0     0   0   0     0   0   0     0   0   0     0   0   0     0   0   0     0   0   0     0   0   0     0   0   0     0   0   0   205 204 202   201 200 198   197 193 192  
   0   0   0     0   0   0     0   0   0     0   0   0     0   0   0     0   0   0     0   0   0     0   0   0     0   0   0     0   0   0     0   0   0     0   0   0   173 173 171   172 172 171   175 175 173   177 177 176   176 176 176     0   0   0     0   0   0     0   0   0     0   0   0     0   0   0     0   0   0     0   0   0     0   0   0     0   0   0     0   0   0     0   0   0     0   0   0     0   0   0     0   0   0     0   0   0     0   0   0     0   0   0     0   0   0     0   0   0     0   0   0     0   0   0     0   0   0     0   0   0     0   0   0     0   0   0     0   0   0     0   0   0     0   0   0     0   0   0     0   0   0     0   0   0     0   0   0     0   0   0     0   0   0     0   0   0     0   0   0     0   0   0     0   0   0     0   0   0     0   0   0     0   0   0     0   0   0   211 211 211   209 209 209   201 201 201  
   0   0   0     0   0   0     0   0   0     0   0   0     0   0   0     0   0   0     0   0   0     0   0   0     0   0   0     0   0   0     0   0   0     0   0   0   174 174 172   172 172 171   174 174 172     0   0   0     0   0   0     0   0   0     0   0   0     0   0   0     0   0   0     0   0   0     0   0   0     0   0   0     0   0   0     0   0   0     0   0   0     0   0   0     0   0   0     0   0   0     0   0   0     0   0   0     0   0   0     0   0   0     0   0   0     0   0   0     0   0   0     0   0   0     0   0   0     0   0   0     0   0   0     0   0   0     0   0   0     0   0   0     0   0   0     0   0   0     0   0   0     0   0   0     0   0   0     0   0   0     0   0   0     0   0   0     0   0   0     0   0   0     0   0   0     0   0   0     0   0   0     0   0   0     0   0   0     0   0   0   218 218 220   213 213 215  
